<?xml version="1.0" encoding="UTF-8" standalone="no"?>
<svg
   xmlns:dc="http://purl.org/dc/elements/1.1/"
   xmlns:cc="http://creativecommons.org/ns#"
   xmlns:rdf="http://www.w3.org/1999/02/22-rdf-syntax-ns#"
   xmlns:svg="http://www.w3.org/2000/svg"
   xmlns="http://www.w3.org/2000/svg"
   xmlns:sodipodi="http://sodipodi.sourceforge.net/DTD/sodipodi-0.dtd"
   xmlns:inkscape="http://www.inkscape.org/namespaces/inkscape"
   version="1.1"
   viewBox="0.0 0.0 960.0 540.0"
   fill="none"
   stroke="none"
   stroke-linecap="square"
   stroke-miterlimit="10"
   id="svg10819"
   inkscape:version="0.48.4 r9939"
   width="100%"
   height="100%"
   sodipodi:docname="branch-bg.svg">
  <metadata
     id="metadata10886">
    <rdf:RDF>
      <cc:Work
         rdf:about="">
        <dc:format>image/svg+xml</dc:format>
        <dc:type
           rdf:resource="http://purl.org/dc/dcmitype/StillImage" />
      </cc:Work>
    </rdf:RDF>
  </metadata>
  <defs
     id="defs10884" />
  <sodipodi:namedview
     pagecolor="#ffffff"
     bordercolor="#666666"
     borderopacity="1"
     objecttolerance="10"
     gridtolerance="10"
     guidetolerance="10"
     inkscape:pageopacity="0"
     inkscape:pageshadow="2"
     inkscape:window-width="1598"
     inkscape:window-height="866"
     id="namedview10882"
     showgrid="false"
     inkscape:zoom="0.88766276"
     inkscape:cx="480"
     inkscape:cy="270"
     inkscape:window-x="0"
     inkscape:window-y="32"
     inkscape:window-maximized="0"
     inkscape:current-layer="svg10819" />
  <clipPath
     id="g3593cc936_172.0">
    <path
       d="m0 0l960.0 0l0 540.0l-960.0 0l0 -540.0z"
       clip-rule="nonzero"
       id="path10822" />
  </clipPath>
  <path
     style="fill:#6d9eeb;fill-rule:nonzero"
     inkscape:connector-curvature="0"
     id="path10828"
     d="m 221.92914,405.92126 0,0 c 0,-19.03861 15.43384,-34.47244 34.47244,-34.47244 l 0,0 c 9.14264,0 17.91086,3.63189 24.3757,10.09674 6.46482,6.46484 10.09675,15.23303 10.09675,24.3757 l 0,0 c 0,19.03861 -15.43384,34.47244 -34.47245,34.47244 l 0,0 c -19.0386,0 -34.47244,-15.43383 -34.47244,-34.47244 z" />
  <path
     style="stroke:#666666;stroke-width:2;stroke-linecap:butt;stroke-linejoin:round"
     inkscape:connector-curvature="0"
     id="path10830"
     d="m 221.92914,405.92126 0,0 c 0,-19.03861 15.43384,-34.47244 34.47244,-34.47244 l 0,0 c 9.14264,0 17.91086,3.63189 24.3757,10.09674 6.46482,6.46484 10.09675,15.23303 10.09675,24.3757 l 0,0 c 0,19.03861 -15.43384,34.47244 -34.47245,34.47244 l 0,0 c -19.0386,0 -34.47244,-15.43383 -34.47244,-34.47244 z" />
  <path
     style="fill:#6d9eeb;fill-rule:nonzero"
     inkscape:connector-curvature="0"
     id="path10832"
     d="m 455.34384,405.92126 0,0 c 0,-19.03861 15.43384,-34.47244 34.47244,-34.47244 l 0,0 c 9.14264,0 17.91086,3.63189 24.37567,10.09674 6.46485,6.46484 10.09674,15.23303 10.09674,24.3757 l 0,0 c 0,19.03861 -15.4338,34.47244 -34.47241,34.47244 l 0,0 c -19.0386,0 -34.47244,-15.43383 -34.47244,-34.47244 z" />
  <path
     style="stroke:#666666;stroke-width:2;stroke-linecap:butt;stroke-linejoin:round"
     inkscape:connector-curvature="0"
     id="path10834"
     d="m 455.34384,405.92126 0,0 c 0,-19.03861 15.43384,-34.47244 34.47244,-34.47244 l 0,0 c 9.14264,0 17.91086,3.63189 24.37567,10.09674 6.46485,6.46484 10.09674,15.23303 10.09674,24.3757 l 0,0 c 0,19.03861 -15.4338,34.47244 -34.47241,34.47244 l 0,0 c -19.0386,0 -34.47244,-15.43383 -34.47244,-34.47244 z" />
  <path
     style="fill:#93c47d;fill-rule:nonzero"
     inkscape:connector-curvature="0"
     id="path10836"
     d="m 626.93964,219.88977 0,0 c 0,-19.03861 15.43384,-34.47244 34.47241,-34.47244 l 0,0 c 9.1427,0 17.91089,3.63189 24.37573,10.09674 6.46485,6.46483 10.09674,15.23303 10.09674,24.3757 l 0,0 c 0,19.03859 -15.43383,34.47243 -34.47247,34.47243 l 0,0 c -19.03857,0 -34.47241,-15.43384 -34.47241,-34.47243 z" />
  <path
     style="stroke:#666666;stroke-width:2;stroke-linecap:butt;stroke-linejoin:round"
     inkscape:connector-curvature="0"
     id="path10838"
     d="m 626.93964,219.88977 0,0 c 0,-19.03861 15.43384,-34.47244 34.47241,-34.47244 l 0,0 c 9.1427,0 17.91089,3.63189 24.37573,10.09674 6.46485,6.46483 10.09674,15.23303 10.09674,24.3757 l 0,0 c 0,19.03859 -15.43383,34.47243 -34.47247,34.47243 l 0,0 c -19.03857,0 -34.47241,-15.43384 -34.47241,-34.47243 z" />
  <path
     style="fill:#000000;fill-opacity:0;fill-rule:nonzero"
     inkscape:connector-curvature="0"
     id="path10840"
     d="m 290.87402,405.92126 164.46982,0" />
  <path
     style="stroke:#666666;stroke-width:2;stroke-linecap:butt;stroke-linejoin:round"
     inkscape:connector-curvature="0"
     id="path10842"
     d="m 290.87402,405.92126 152.46982,0" />
  <path
     style="fill:#666666;fill-rule:evenodd;stroke:#666666;stroke-width:2;stroke-linecap:butt"
     inkscape:connector-curvature="0"
     id="path10844"
     d="m 443.34384,409.22473 9.07617,-3.30347 -9.07617,-3.30346 z" />
  <path
     style="fill:#000000;fill-opacity:0;fill-rule:nonzero"
     inkscape:connector-curvature="0"
     id="path10846"
     d="m 221.92914,405.92126 -221.82677,0" />
  <path
     style="stroke:#666666;stroke-width:2;stroke-linecap:butt;stroke-linejoin:round"
     inkscape:connector-curvature="0"
     id="path10848"
     d="m 209.92914,405.92126 -209.82677,0" />
  <path
     style="fill:#666666;fill-rule:evenodd;stroke:#666666;stroke-width:2;stroke-linecap:butt"
     inkscape:connector-curvature="0"
     id="path10850"
     d="m 209.92914,409.22473 9.07619,-3.30347 -9.07619,-3.30346 z" />
  <path
     style="fill:#000000;fill-opacity:0;fill-rule:nonzero"
     inkscape:connector-curvature="0"
     id="path10852"
     d="M 514.19196,381.54556 637.03638,244.26546" />
  <path
     style="stroke:#666666;stroke-width:2;stroke-linecap:butt;stroke-linejoin:round"
     inkscape:connector-curvature="0"
     id="path10854"
     d="M 514.19196,381.54556 629.03431,253.20788" />
  <path
     style="fill:#666666;fill-rule:evenodd;stroke:#666666;stroke-width:2;stroke-linecap:butt"
     inkscape:connector-curvature="0"
     id="path10856"
     d="m 631.49603,255.41075 3.59064,-8.96646 -8.5141,4.5607 z" />
  <path
     style="fill:#000000;fill-opacity:0;fill-rule:nonzero"
     inkscape:connector-curvature="0"
     id="path10858"
     d="m 695.8845,219.88977 132.62988,0" />
  <path
     style="stroke:#666666;stroke-width:2;stroke-linecap:butt;stroke-linejoin:round"
     inkscape:connector-curvature="0"
     id="path10860"
     d="m 695.8845,219.88977 120.62994,0" />
  <path
     style="fill:#666666;fill-rule:evenodd;stroke:#666666;stroke-width:2;stroke-linecap:butt"
     inkscape:connector-curvature="0"
     id="path10862"
     d="m 816.51447,223.19322 9.07617,-3.30345 -9.07617,-3.30347 z" />
  <path
     style="fill:#93c47d;fill-rule:nonzero"
     inkscape:connector-curvature="0"
     id="path10864"
     d="m 828.51447,219.88977 0,0 c 0,-19.03861 15.43384,-34.47244 34.47241,-34.47244 l 0,0 c 9.14264,0 17.91083,3.63189 24.37567,10.09674 6.46485,6.46483 10.09674,15.23303 10.09674,24.3757 l 0,0 c 0,19.03859 -15.43383,34.47243 -34.47241,34.47243 l 0,0 c -19.03857,0 -34.47241,-15.43384 -34.47241,-34.47243 z" />
  <path
     style="stroke:#666666;stroke-width:2;stroke-linecap:butt;stroke-linejoin:round"
     inkscape:connector-curvature="0"
     id="path10866"
     d="m 828.51447,219.88977 0,0 c 0,-19.03861 15.43384,-34.47244 34.47241,-34.47244 l 0,0 c 9.14264,0 17.91083,3.63189 24.37567,10.09674 6.46485,6.46483 10.09674,15.23303 10.09674,24.3757 l 0,0 c 0,19.03859 -15.43383,34.47243 -34.47241,34.47243 l 0,0 c -19.03857,0 -34.47241,-15.43384 -34.47241,-34.47243 z" />
  <path
     style="fill:#000000;fill-opacity:0;fill-rule:nonzero"
     inkscape:connector-curvature="0"
     id="path10868"
     d="m 897.4593,219.88977 62.83466,0" />
  <path
     style="stroke:#666666;stroke-width:2;stroke-linecap:butt;stroke-linejoin:round"
     inkscape:connector-curvature="0"
     id="path10870"
     d="m 897.4593,219.88977 62.83466,0" />
  <path
     style="fill:#000000;fill-opacity:0;fill-rule:nonzero"
     inkscape:connector-curvature="0"
     id="path10872"
     d="m 524.2887,405.92126 164.47247,0" />
  <path
     style="stroke:#666666;stroke-width:2;stroke-linecap:butt;stroke-linejoin:round"
     inkscape:connector-curvature="0"
     id="path10874"
     d="m 524.2887,405.92126 152.47247,0" />
  <path
     style="fill:#666666;fill-rule:evenodd;stroke:#666666;stroke-width:2;stroke-linecap:butt"
     inkscape:connector-curvature="0"
     id="path10876"
     d="m 676.76117,409.22473 9.07617,-3.30347 -9.07617,-3.30346 z" />
  <path
     style="fill:#6d9eeb;fill-rule:nonzero"
     inkscape:connector-curvature="0"
     id="path10878"
     d="m 688.75854,405.92126 0,0 c 0,-19.03861 15.43384,-34.47244 34.47241,-34.47244 l 0,0 c 9.1427,0 17.91089,3.63189 24.37573,10.09674 6.46485,6.46484 10.09674,15.23303 10.09674,24.3757 l 0,0 c 0,19.03861 -15.43383,34.47244 -34.47247,34.47244 l 0,0 c -19.03857,0 -34.47241,-15.43383 -34.47241,-34.47244 z" />
  <path
     style="stroke:#666666;stroke-width:2;stroke-linecap:butt;stroke-linejoin:round"
     inkscape:connector-curvature="0"
     id="path10880"
     d="m 688.75854,405.92126 0,0 c 0,-19.03861 15.43384,-34.47244 34.47241,-34.47244 l 0,0 c 9.1427,0 17.91089,3.63189 24.37573,10.09674 6.46485,6.46484 10.09674,15.23303 10.09674,24.3757 l 0,0 c 0,19.03861 -15.43383,34.47244 -34.47247,34.47244 l 0,0 c -19.03857,0 -34.47241,-15.43383 -34.47241,-34.47244 z" />
</svg>
