<?xml version="1.0" encoding="UTF-8" standalone="no"?>
<svg
   xmlns:dc="http://purl.org/dc/elements/1.1/"
   xmlns:cc="http://creativecommons.org/ns#"
   xmlns:rdf="http://www.w3.org/1999/02/22-rdf-syntax-ns#"
   xmlns:svg="http://www.w3.org/2000/svg"
   xmlns="http://www.w3.org/2000/svg"
   xmlns:sodipodi="http://sodipodi.sourceforge.net/DTD/sodipodi-0.dtd"
   xmlns:inkscape="http://www.inkscape.org/namespaces/inkscape"
   version="1.1"
   viewBox="0.0 0.0 960.0 540.0"
   fill="none"
   stroke="none"
   stroke-linecap="square"
   stroke-miterlimit="10"
   id="svg2"
   inkscape:version="0.48.4 r9939"
   width="100%"
   height="100%"
   sodipodi:docname="centralized-vcs.svg"
   inkscape:export-filename="/home/nathan/devel/nasa/git-talk/img/centralized-vcs.svg.png"
   inkscape:export-xdpi="300"
   inkscape:export-ydpi="300">
  <metadata
     id="metadata151">
    <rdf:RDF>
      <cc:Work
         rdf:about="">
        <dc:format>image/svg+xml</dc:format>
        <dc:type
           rdf:resource="http://purl.org/dc/dcmitype/StillImage" />
        <dc:title />
      </cc:Work>
    </rdf:RDF>
  </metadata>
  <defs
     id="defs149" />
  <sodipodi:namedview
     pagecolor="#ffffff"
     bordercolor="#666666"
     borderopacity="1"
     objecttolerance="10"
     gridtolerance="10"
     guidetolerance="10"
     inkscape:pageopacity="0"
     inkscape:pageshadow="2"
     inkscape:window-width="1598"
     inkscape:window-height="866"
     id="namedview147"
     showgrid="false"
     inkscape:zoom="0.92792399"
     inkscape:cx="514.89798"
     inkscape:cy="246.32505"
     inkscape:window-x="0"
     inkscape:window-y="32"
     inkscape:window-maximized="0"
     inkscape:current-layer="g7" />
  <clipPath
     id="g358aeef41_05.0">
    <path
       d="m0 0l960.0 0l0 540.0l-960.0 0l0 -540.0z"
       clip-rule="nonzero"
       id="path5" />
  </clipPath>
  <g
     clip-path="url(#g358aeef41_05.0)"
     id="g7">
    <path
       fill="#000000"
       fill-opacity="0.0"
       d="m48.0 21.625038l864.0 0l0 90.015755l-864.0 0z"
       fill-rule="nonzero"
       id="path11" />
    <path
       fill="#cccccc"
       d="m642.48816 191.19685l247.1759 0l0 310.04724l-247.1759 0z"
       fill-rule="nonzero"
       id="path15" />
    <path
       stroke="#666666"
       stroke-width="2.0"
       stroke-linejoin="round"
       stroke-linecap="butt"
       d="m642.48816 191.19685l247.1759 0l0 310.04724l-247.1759 0z"
       fill-rule="nonzero"
       id="path17" />
    <path
       fill="#000000"
       fill-opacity="0.0"
       d="m634.45404 96.35433l263.24414 0l0 66.29922l-263.24414 0z"
       fill-rule="nonzero"
       id="path19" />
    <path
       fill="#000000"
       d="m673.0878 118.348076q0.15625 0.34375 0.15625 0.515625q0 0.109375 -0.078125 0.3125q-1.71875 0.859375 -2.203125 1.28125q-1.03125 0.8125 -1.53125 1.65625q-0.328125 0.578125 -0.328125 1.203125q0 0.609375 0.3125 1.0q0.203125 0.28125 0.46875 0.28125q0.09375 0 1.0 -0.0625q0.09375 -0.015625 0.21875 -0.015625q0.71875 0 1.1875 0.453125q0.46875 0.453125 0.46875 1.1875q0 0.75 -0.59375 1.3125q-0.59375 0.5625076 -1.40625 0.5625076q-0.8125 0 -1.59375 -0.40625763q-0.765625 -0.421875 -1.265625 -1.3125q-0.5 -0.90625 -0.5 -1.796875q0 -1.296875 0.71875 -2.625q0.734375 -1.34375 1.84375 -2.03125q1.875 -1.125 3.125 -1.515625zm9.3125 0.03125q0.03125 0.234375 0.03125 0.4375q0 0.15625 -0.078125 0.40625q-2.1875 1.015625 -3.125 2.125q-0.921875 1.109375 -0.921875 2.078125q0 0.3125 0.109375 0.59375q0.125 0.28125 0.359375 0.53125q0.3125 0.09375 0.453125 0.09375q0.09375 0 0.515625 -0.09375q0.234375 -0.0625 0.515625 -0.0625q0.796875 0 1.234375 0.421875q0.4375 0.421875 0.4375 1.140625q0 0.859375 -0.5625 1.4375q-0.546875 0.5781326 -1.390625 0.5781326q-1.40625 0 -2.359375 -0.9843826q-0.953125 -0.984375 -0.953125 -2.796875q0 -1.328125 0.90625 -2.703125q0.921875 -1.390625 2.296875 -2.171875q1.890625 -1.046875 2.4375 -1.046875l0.09375 0.015625zm1.8789062 3.296875l0.796875 -2.9375q0.078125 -0.59375 0.21875 -0.75q0.140625 -0.171875 0.3125 -0.171875q0.359375 0 0.796875 0.84375q0.34375 0.59375 0.546875 0.765625q0.21875 0.171875 0.625 0.21875l0.203125 -0.015625l0.84375 0.078125l4.609375 0.0625l5.4375 -0.015625l1.609375 0l3.03125 -0.0625q0.1875 0 0.484375 0.03125q1.328125 0.125 1.640625 0.125q0.296875 0 0.46875 -0.203125q0.0625 -0.078125 0.640625 -1.328125q0.25 -0.5625 0.625 -0.5625q0.15625 0 0.390625 0.078125q0.09375 0.390625 0.09375 0.703125l-0.015625 0.78125l0.015625 1.65625q0 0.609375 -0.09375 3.90625q0 0.21875 -0.078125 0.390625q-0.21875 0.140625 -0.375 0.140625q-0.15625 0 -0.28125 -0.140625q-0.109375 -0.15625 -0.28125 -0.90625q-0.390625 -1.765625 -0.96875 -2.53125q-0.390625 -0.484375 -1.125 -0.6875q-0.734375 -0.21875 -3.515625 -0.21875q-2.21875 0 -3.296875 0.078125q-0.03125 0.78125 -0.03125 1.421875l0.15625 12.125008q0 0.71875 -0.078125 2.734375l0.015625 2.59375l-0.015625 1.453125q0 0.6875 0.234375 0.984375q0.234375 0.28125 1.265625 0.5625q1.796875 0.4375 2.40625 0.546875q0.359375 0.03125 0.59375 0.15625l0 0.578125l-2.765625 -0.078125q-2.28125 -0.015625 -3.4375 -0.09375l-2.859375 0.140625l-2.078125 0.109375q-0.890625 0 -1.078125 -0.03125l-0.28125 -0.125q0.046875 -0.453125 0.171875 -0.578125q0.140625 -0.125 0.734375 -0.203125q0.8125 -0.109375 1.921875 -0.40625q1.125 -0.3125 1.46875 -0.625q0.203125 -0.171875 0.28125 -0.59375q0.171875 -0.859375 0.171875 -3.375l0 -3.3125l-0.078125 -7.2500076l-0.078125 -1.5625l-0.015625 -5.21875q-1.234375 -0.140625 -3.140625 -0.140625q-2.8125 0 -3.421875 0.359375q-0.953125 0.546875 -2.859375 3.203125q-0.625 1.0 -1.09375 1.0l-0.171875 -0.046875q-0.078125 -0.109375 -0.078125 -0.21875q0 -0.234375 0.3125 -1.40625q0.390625 -1.5 0.46875 -2.03125zm24.636719 21.609383q2.28125 -0.40625 2.625 -0.625q0.21875 -0.140625 0.21875 -0.625l-0.015625 -1.296875l0.015625 -2.28125l-0.03125 -5.8125l0.015625 -2.171875l0 -1.546875l0.0625 -1.8906326q0 -4.453125 -0.09375 -5.3125q-0.09375 -0.875 -0.34375 -1.09375q-0.46875 -0.453125 -2.578125 -0.9375l0 -0.09375q0 -0.140625 0.046875 -0.390625q0.265625 -0.046875 0.515625 -0.09375q0.265625 -0.0625 0.5 -0.09375q2.3125 -0.65625 3.375 -1.28125l0.953125 0q0.046875 0.546875 0.046875 3.453125l-0.03125 2.484375l0.03125 3.203125l-0.078125 3.9375076q0 0.359375 0.03125 0.78125q1.234375 -1.421875 1.796875 -1.890625q1.015625 -0.8125 2.171875 -1.296875q1.15625 -0.48438263 2.421875 -0.48438263q2.40625 0 3.921875 2.0312576q0.875 1.203125 0.875 3.390625l-0.046875 1.984375l0.015625 1.109375l-0.078125 1.9375q-0.078125 2.40625 -0.078125 2.859375q0 0.5 0.03125 1.359375l1.125 0.25q1.109375 0.234375 1.71875 0.4375l-0.03125 0.609375l-4.15625 -0.125q-0.34375 0 -1.90625 0.078125q-0.96875 0.046875 -1.125 0.046875l-0.421875 0q-0.09375 -0.1875 -0.09375 -0.296875l0 -0.171875q0.265625 -0.359375 1.015625 -0.46875l1.171875 -0.28125q0.234375 -0.1875 0.265625 -0.40625q0.078125 -0.515625 0.171875 -5.046875l0.046875 -1.4375q0.078125 -2.28125 -0.359375 -3.796875q-0.265625 -1.03125 -1.234375 -1.640625q-0.96875 -0.625 -2.234375 -0.625q-1.0625 0 -2.0 0.453125q-0.640625 0.328125 -1.546875 1.15625q-0.890625 0.8125 -1.234375 1.40625q-0.234375 0.390625 -0.234375 1.28125l0.015625 1.375l-0.046875 1.421875q0 0.171875 0.0625 2.4375l-0.015625 1.25l0.03125 1.375q0.03125 0.296875 0.0625 0.421875l2.75 0.671875q0.21875 0.0625 0.65625 0.234375l0.046875 0.21875q0 0.09375 -0.09375 0.3125q-0.5625 0.015625 -0.859375 0.015625l-1.515625 -0.015625l-3.359375 0.03125l-2.53125 0.078125q-0.1875 -0.015625 -0.578125 -0.03125l-0.015625 -0.140625q0 -0.15625 0.15625 -0.390625zm35.128906 -9.84375l-7.828125 0.0625l-1.484375 0q-0.90625 0 -1.84375 0.078125q-0.171875 0.578125 -0.171875 0.796875l0.015625 0.1875l0 0.203125l-0.015625 0.953125q0 1.1875 0.75 2.921875q0.75 1.734375 2.140625 2.640625q1.40625 0.90625 3.5 0.96875q1.109375 -0.0625 1.765625 -0.28125q0.671875 -0.21875 1.890625 -1.0l1.40625 -1.140625l0.109375 0.78125q0 0.125 -0.015625 0.28125q-0.875 1.125 -2.234375 1.96875q-1.34375 0.828125 -2.734375 1.21875q-0.65625 0.1875 -2.1875 0.1875q-1.375 0 -2.734375 -0.578125q-1.984375 -0.859375 -3.125 -2.765625q-1.140625 -1.90625 -1.140625 -4.609375q0 -0.859375 0.3125 -2.203125q0.328125 -1.359375 1.171875 -2.875q0.5625 -1.046875 1.375 -1.703125q1.171875 -0.9375 2.0625 -1.3125q1.265625 -0.5312576 2.9375 -0.5312576q1.828125 0 2.96875 0.6718826q1.5625 0.875 2.328125 2.265625q0.78125 1.390625 0.78125 2.53125l0 0.28125zm-10.890625 -0.703125l0.90625 0q1.0 0 5.9375 -0.3125q0.78125 -0.046875 0.96875 -0.15625q0.34375 -0.375 0.34375 -0.671875q0 -0.59375 -0.390625 -1.359375q-0.390625 -0.78125 -1.203125 -1.203125q-0.8125 -0.421875 -1.875 -0.421875q-2.265625 0 -3.640625 1.703125q-1.046875 1.28125 -1.046875 2.421875zm24.910156 6.046875q0.734375 1.859375 1.09375 2.40625q0.75 1.109375 1.78125 1.734375q1.03125 0.609375 2.25 0.609375q1.109375 0 2.203125 -0.953125q0.78125 -0.71875 0.78125 -1.6875q0 -1.265625 -0.921875 -2.34375q-0.90625 -1.046875 -3.484375 -2.015625q-2.5625 -0.96875 -3.4375 -2.0625q-0.890625 -1.09375 -0.890625 -2.5q0 -1.328125 0.71875 -2.34375q0.734375 -1.015625 2.0 -1.53125q1.265625 -0.5156326 2.34375 -0.5156326q1.390625 0 2.484375 0.21875q1.109375 0.20313263 1.90625 0.6562576q0.15625 1.0 0.265625 2.9375l0.03125 0.625q-0.25 0.015625 -0.421875 0.015625l-0.28125 0q-0.578125 -1.625 -1.78125 -2.5625q-1.203125 -0.953125 -2.375 -0.953125q-1.171875 0 -1.90625 0.71875q-0.71875 0.703125 -0.71875 1.859375q0 0.875 0.59375 1.5625q0.578125 0.6875 2.734375 1.5625q2.171875 0.875 3.15625 1.625q0.984375 0.75 1.453125 1.828125q0.46875 1.078125 0.46875 2.046875q0 1.359375 -0.890625 2.53125q-0.890625 1.171875 -2.234375 1.640625q-1.328125 0.484375 -2.390625 0.484375q-2.46875 0 -4.5625 -0.921875q-0.203125 -0.15625 -0.21875 -0.578125q0 -0.1875 -0.03125 -0.578125q-0.3125 -2.625 -0.3125 -3.125q0 -0.234375 0.09375 -0.3125q0.09375 -0.078125 0.5 -0.078125zm27.230469 -5.34375l-7.828125 0.0625l-1.484375 0q-0.90625 0 -1.84375 0.078125q-0.171875 0.578125 -0.171875 0.796875l0.015625 0.1875l0 0.203125l-0.015625 0.953125q0 1.1875 0.75 2.921875q0.75 1.734375 2.140625 2.640625q1.40625 0.90625 3.5 0.96875q1.109375 -0.0625 1.765625 -0.28125q0.671875 -0.21875 1.890625 -1.0l1.40625 -1.140625l0.109375 0.78125q0 0.125 -0.015625 0.28125q-0.875 1.125 -2.234375 1.96875q-1.34375 0.828125 -2.734375 1.21875q-0.65625 0.1875 -2.1875 0.1875q-1.375 0 -2.734375 -0.578125q-1.984375 -0.859375 -3.125 -2.765625q-1.140625 -1.90625 -1.140625 -4.609375q0 -0.859375 0.3125 -2.203125q0.328125 -1.359375 1.171875 -2.875q0.5625 -1.046875 1.375 -1.703125q1.171875 -0.9375 2.0625 -1.3125q1.265625 -0.5312576 2.9375 -0.5312576q1.828125 0 2.96875 0.6718826q1.5625 0.875 2.328125 2.265625q0.78125 1.390625 0.78125 2.53125l0 0.28125zm-10.890625 -0.703125l0.90625 0q1.0 0 5.9375 -0.3125q0.78125 -0.046875 0.96875 -0.15625q0.34375 -0.375 0.34375 -0.671875q0 -0.59375 -0.390625 -1.359375q-0.390625 -0.78125 -1.203125 -1.203125q-0.8125 -0.421875 -1.875 -0.421875q-2.265625 0 -3.640625 1.703125q-1.046875 1.28125 -1.046875 2.421875zm12.878906 11.078125l-0.078125 -0.265625q0 -0.125 0.1875 -0.40625l1.140625 -0.234375l1.625 -0.296875q0.203125 -0.09375 0.28125 -0.265625q0.109375 -0.25 0.109375 -1.5q0 -6.640625 -0.078125 -7.671875q-0.078125 -1.03125 -0.359375 -1.296875q-0.265625 -0.28125 -1.390625 -0.4375q-0.671875 -0.09375 -1.0625 -0.25l0.078125 -0.578125q2.046875 -0.84375 2.75 -1.453125q0.984375 -0.875 1.671875 -2.2968826l0.65625 0.015625q0.125 0.96875 0.125 4.3281326l-0.03125 0.34375q0 0.109375 0.046875 0.359375q0.734375 -1.34375 1.859375 -2.46875l0.4375 -0.453125q0.28125 -0.3125 0.53125 -0.484375q1.375 -0.8281326 2.03125 -0.8281326q0.859375 0 1.40625 0.5781326q0.546875 0.578125 0.546875 1.421875q0 0.65625 -0.390625 1.03125q-0.53125 0.484375 -1.203125 0.484375q-0.3125 0 -1.234375 -0.328125q-0.921875 -0.328125 -1.21875 -0.328125q-0.546875 0 -0.75 0.171875q-0.546875 0.421875 -1.328125 1.75q-0.609375 1.0 -0.609375 1.84375l0.09375 3.21875l0.046875 3.875q0.046875 0.65625 0.15625 0.859375q0.078125 0.125 0.390625 0.328125q2.109375 0.171875 2.5 0.25q0.265625 0.015625 0.40625 0.046875q0.84375 0.015625 1.171875 0.234375q0.171875 0.09375 0.171875 0.28125q0 0.125 -0.15625 0.3125l-2.171875 -0.015625l-0.8125 -0.015625l-1.1875 0.015625l-2.0 0l-1.078125 0.0625l-3.28125 0.0625zm12.324219 -15.578125q2.171875 0.03125 3.796875 0.140625q1.15625 0 1.671875 -0.03125q0.375 -0.03125 0.46875 -0.03125l2.1875 0.03125q0.453125 0.078125 0.734375 0.09375q0.109375 0.03125 0.203125 0.21875q0 0.1875 -0.109375 0.40625q-0.328125 0.09375 -0.6875 0.109375q-1.46875 0.15625 -2.453125 0.453125q-0.140625 0.09375 -0.140625 0.203125q0 0.1875 0.1875 0.59375q0.046875 0.109375 0.1875 0.46875l1.953125 4.6875q1.296875 3.234375 2.421875 5.4375q0.75 -1.453125 1.390625 -2.984375q0.65625 -1.546875 1.90625 -4.875q0.34375 -0.9375 0.65625 -2.3125q0.0625 -0.28125 0.0625 -0.46875q0 -0.234375 -0.265625 -0.515625q-0.265625 -0.296875 -0.890625 -0.46875q-0.125 -0.015625 -1.765625 -0.296875q-0.140625 -0.078125 -0.265625 -0.203125l0 -0.15625q0 -0.109375 0.03125 -0.265625q0.46875 -0.046875 0.671875 -0.046875l2.3125 0.015625q0.234375 0 1.109375 -0.0625q3.109375 0 3.734375 0.0625q0.109375 0.03125 0.21875 0.234375q0 0.171875 -0.125 0.390625l-0.609375 0.15625q-0.234375 0.015625 -0.359375 0.03125q-1.6875 0.15625 -2.078125 0.46875q-0.296875 0.21875 -0.921875 2.015625q-0.28125 0.875 -0.859375 2.234375l-1.015625 2.453125q-0.203125 0.53125 -0.46875 1.15625l-3.015625 7.0l-0.59375 0q-0.171875 -0.46875 -0.421875 -0.984375l-1.484375 -3.140625l-3.5 -8.1875q-1.0625 -2.390625 -1.28125 -2.578125q-0.203125 -0.203125 -2.5 -0.828125q-0.109375 -0.3125 -0.109375 -0.4375l0.015625 -0.1875zm34.4375 5.203125l-7.828125 0.0625l-1.484375 0q-0.90625 0 -1.84375 0.078125q-0.171875 0.578125 -0.171875 0.796875l0.015625 0.1875l0 0.203125l-0.015625 0.953125q0 1.1875 0.75 2.921875q0.75 1.734375 2.140625 2.640625q1.40625 0.90625 3.5 0.96875q1.109375 -0.0625 1.765625 -0.28125q0.671875 -0.21875 1.890625 -1.0l1.40625 -1.140625l0.109375 0.78125q0 0.125 -0.015625 0.28125q-0.875 1.125 -2.234375 1.96875q-1.34375 0.828125 -2.734375 1.21875q-0.65625 0.1875 -2.1875 0.1875q-1.375 0 -2.734375 -0.578125q-1.984375 -0.859375 -3.125 -2.765625q-1.140625 -1.90625 -1.140625 -4.609375q0 -0.859375 0.3125 -2.203125q0.328125 -1.359375 1.171875 -2.875q0.5625 -1.046875 1.375 -1.703125q1.171875 -0.9375 2.0625 -1.3125q1.265625 -0.5312576 2.9375 -0.5312576q1.828125 0 2.96875 0.6718826q1.5625 0.875 2.328125 2.265625q0.78125 1.390625 0.78125 2.53125l0 0.28125zm-10.890625 -0.703125l0.90625 0q1.0 0 5.9375 -0.3125q0.78125 -0.046875 0.96875 -0.15625q0.34375 -0.375 0.34375 -0.671875q0 -0.59375 -0.390625 -1.359375q-0.390625 -0.78125 -1.203125 -1.203125q-0.8125 -0.421875 -1.875 -0.421875q-2.265625 0 -3.640625 1.703125q-1.046875 1.28125 -1.046875 2.421875zm12.878906 11.078125l-0.078125 -0.265625q0 -0.125 0.1875 -0.40625l1.140625 -0.234375l1.625 -0.296875q0.203125 -0.09375 0.28125 -0.265625q0.109375 -0.25 0.109375 -1.5q0 -6.640625 -0.078125 -7.671875q-0.078125 -1.03125 -0.359375 -1.296875q-0.265625 -0.28125 -1.390625 -0.4375q-0.671875 -0.09375 -1.0625 -0.25l0.078125 -0.578125q2.046875 -0.84375 2.75 -1.453125q0.984375 -0.875 1.671875 -2.2968826l0.65625 0.015625q0.125 0.96875 0.125 4.3281326l-0.03125 0.34375q0 0.109375 0.046875 0.359375q0.734375 -1.34375 1.859375 -2.46875l0.4375 -0.453125q0.28125 -0.3125 0.53125 -0.484375q1.375 -0.8281326 2.03125 -0.8281326q0.859375 0 1.40625 0.5781326q0.546875 0.578125 0.546875 1.421875q0 0.65625 -0.390625 1.03125q-0.53125 0.484375 -1.203125 0.484375q-0.3125 0 -1.234375 -0.328125q-0.921875 -0.328125 -1.21875 -0.328125q-0.546875 0 -0.75 0.171875q-0.546875 0.421875 -1.328125 1.75q-0.609375 1.0 -0.609375 1.84375l0.09375 3.21875l0.046875 3.875q0.046875 0.65625 0.15625 0.859375q0.078125 0.125 0.390625 0.328125q2.109375 0.171875 2.5 0.25q0.265625 0.015625 0.40625 0.046875q0.84375 0.015625 1.171875 0.234375q0.171875 0.09375 0.171875 0.28125q0 0.125 -0.15625 0.3125l-2.171875 -0.015625l-0.8125 -0.015625l-1.1875 0.015625l-2.0 0l-1.078125 0.0625l-3.28125 0.0625zm23.449219 -16.796883l2.21875 -1.640625q0.6875 -0.625 1.046875 -1.3125q0.375 -0.703125 0.375 -1.46875q0 -0.609375 -0.25 -0.9375q-0.171875 -0.234375 -0.46875 -0.234375q-0.140625 0 -0.34375 0.015625q-0.421875 0.03125 -0.828125 0.03125q-0.34375 0 -0.640625 -0.109375q-0.296875 -0.109375 -0.546875 -0.328125q-0.390625 -0.625 -0.390625 -1.234375q0 -0.796875 0.515625 -1.28125q0.515625 -0.484375 1.296875 -0.484375q1.5625 0 2.578125 1.0q1.03125 0.984375 1.03125 2.40625q0 1.21875 -0.515625 2.34375q-0.515625 1.125 -2.078125 2.421875q-0.96875 0.8125 -2.828125 1.703125l-0.171875 -0.890625zm-9.5 0q2.25 -1.5625 3.140625 -2.765625q0.515625 -0.671875 0.515625 -1.578125q0 -0.609375 -0.28125 -1.0q-0.203125 -0.28125 -0.46875 -0.28125q-0.09375 0 -0.828125 0.125q-0.140625 0.03125 -0.296875 0.03125q-0.671875 0 -1.125 -0.484375q-0.453125 -0.484375 -0.453125 -1.1875q0 -0.75 0.53125 -1.28125q0.53125 -0.53125 1.515625 -0.53125q1.421875 0 2.40625 0.984375q0.984375 0.984375 0.984375 2.5q0 1.0625 -0.59375 2.296875q-0.578125 1.21875 -2.046875 2.375q-1.453125 1.15625 -2.796875 1.6875l-0.203125 -0.890625z"
       fill-rule="nonzero"
       id="path21" />
    <path
       fill="#cccccc"
       d="m104.20998 153.30446l113.6693 0l0 66.29921l-113.6693 0z"
       fill-rule="nonzero"
       id="path23" />
    <path
       stroke="#666666"
       stroke-width="2.0"
       stroke-linejoin="round"
       stroke-linecap="butt"
       d="m104.20998 153.30446l113.6693 0l0 66.29921l-113.6693 0z"
       fill-rule="nonzero"
       id="path25" />
    <path
       fill="#cccccc"
       d="m77.49606 244.59055l28.076637 -24.986877l112.30657 0l-28.076645 24.986877z"
       fill-rule="nonzero"
       id="path27" />
    <path
       stroke="#666666"
       stroke-width="2.0"
       stroke-linejoin="round"
       stroke-linecap="butt"
       d="m77.49606 244.59055l28.076637 -24.986877l112.30657 0l-28.076645 24.986877z"
       fill-rule="nonzero"
       id="path29" />
    <path
       fill="#434343"
       d="m109.37795 160.18898l104.22048 0l0 45.66928l-104.22048 0z"
       fill-rule="nonzero"
       id="path31" />
    <path
       stroke="#666666"
       stroke-width="2.0"
       stroke-linejoin="round"
       stroke-linecap="butt"
       d="m109.37795 160.18898l104.22048 0l0 45.66928l-104.22048 0z"
       fill-rule="nonzero"
       id="path33" />
    <path
       fill="#000000"
       fill-opacity="0.0"
       d="m109.37795 163.63518l104.22048 0l0 38.771652l-104.22048 0z"
       fill-rule="nonzero"
       id="path35" />
    <path
       fill="#000000"
       d="m118.64358 176.3933l0.765625 0l0.96875 2.59375l0.203125 0.625l0.21875 -0.640625l0.953125 -2.578125l0.734375 0l-1.53125 3.921875l-0.78125 0l-1.53125 -3.921875zm6.1015625 0.5625l-1.171875 0l0 -0.5625l1.859375 0l0 3.359375l1.15625 0l0 0.5625l-3.140625 0l0 -0.5625l1.296875 0l0 -2.796875zm0.234375 -2.203125q0.109375 0 0.203125 0.046875q0.109375 0.03125 0.171875 0.109375q0.078125 0.0625 0.109375 0.171875q0.046875 0.09375 0.046875 0.203125q0 0.109375 -0.046875 0.203125q-0.03125 0.09375 -0.109375 0.171875q-0.0625 0.078125 -0.171875 0.125q-0.09375 0.03125 -0.203125 0.03125q-0.109375 0 -0.21875 -0.03125q-0.09375 -0.046875 -0.171875 -0.125q-0.0625 -0.078125 -0.109375 -0.171875q-0.03125 -0.09375 -0.03125 -0.203125q0 -0.109375 0.03125 -0.203125q0.046875 -0.109375 0.109375 -0.171875q0.078125 -0.078125 0.171875 -0.109375q0.109375 -0.046875 0.21875 -0.046875zm10.375008 0.046875l-2.6875 6.359375l-0.640625 0l2.671875 -6.359375l0.65625 0zm4.0703125 2.140625q0.109375 0.140625 0.171875 0.328125q0.0625 0.171875 0.0625 0.390625q0 0.296875 -0.125 0.5625q-0.109375 0.25 -0.3125 0.4375q-0.203125 0.171875 -0.484375 0.265625q-0.28125 0.09375 -0.625 0.09375q-0.234375 0 -0.453125 -0.046875q-0.21875 -0.046875 -0.34375 -0.125q-0.078125 0.109375 -0.125 0.203125q-0.046875 0.09375 -0.046875 0.21875q0 0.140625 0.140625 0.25q0.140625 0.09375 0.375 0.09375l1.03125 0.046875q0.296875 0 0.546875 0.078125q0.25 0.0625 0.421875 0.1875q0.171875 0.125 0.265625 0.3125q0.109375 0.1875 0.109375 0.421875q0 0.265625 -0.109375 0.5q-0.109375 0.234375 -0.359375 0.40625q-0.234375 0.1875 -0.59375 0.28125q-0.359375 0.109375 -0.859375 0.109375q-0.484375 0 -0.8125 -0.078125q-0.328125 -0.078125 -0.546875 -0.21875q-0.21875 -0.125 -0.3125 -0.3125q-0.09375 -0.1875 -0.09375 -0.40625q0 -0.28125 0.125 -0.5q0.140625 -0.21875 0.40625 -0.421875q-0.09375 -0.046875 -0.171875 -0.109375q-0.078125 -0.078125 -0.125 -0.15625q-0.046875 -0.078125 -0.078125 -0.171875q-0.015625 -0.09375 -0.015625 -0.1875q0 -0.25 0.125 -0.453125q0.125 -0.21875 0.28125 -0.40625q-0.078125 -0.09375 -0.140625 -0.171875q-0.046875 -0.09375 -0.09375 -0.1875q-0.03125 -0.109375 -0.0625 -0.21875q-0.015625 -0.125 -0.015625 -0.265625q0 -0.3125 0.109375 -0.5625q0.109375 -0.25 0.3125 -0.421875q0.203125 -0.1875 0.484375 -0.28125q0.28125 -0.109375 0.625 -0.109375q0.15625 0 0.28125 0.03125q0.140625 0.015625 0.234375 0.046875l1.421875 0l0 0.546875l-0.625 0zm-2.359375 3.9375q0 0.28125 0.28125 0.40625q0.296875 0.125 0.8125 0.125q0.328125 0 0.546875 -0.0625q0.21875 -0.046875 0.34375 -0.140625q0.140625 -0.09375 0.203125 -0.21875q0.0625 -0.125 0.0625 -0.25q0 -0.25 -0.203125 -0.359375q-0.1875 -0.109375 -0.59375 -0.140625l-1.03125 -0.03125q-0.125 0.09375 -0.21875 0.171875q-0.078125 0.078125 -0.125 0.15625q-0.046875 0.09375 -0.0625 0.171875q-0.015625 0.09375 -0.015625 0.171875zm0.203125 -3.203125q0 0.1875 0.0625 0.34375q0.0625 0.15625 0.171875 0.265625q0.125 0.109375 0.265625 0.171875q0.15625 0.0625 0.34375 0.0625q0.203125 0 0.359375 -0.0625q0.171875 -0.078125 0.265625 -0.1875q0.109375 -0.125 0.171875 -0.28125q0.0625 -0.15625 0.0625 -0.3125q0 -0.1875 -0.0625 -0.34375q-0.0625 -0.15625 -0.1875 -0.265625q-0.109375 -0.109375 -0.265625 -0.171875q-0.15625 -0.0625 -0.34375 -0.0625q-0.203125 0 -0.359375 0.078125q-0.15625 0.0625 -0.265625 0.1875q-0.109375 0.109375 -0.171875 0.265625q-0.046875 0.140625 -0.046875 0.3125zm3.8828125 -1.28125l0.625 0l0.015625 0.71875q0.359375 -0.421875 0.6875 -0.609375q0.34375 -0.1875 0.6875 -0.1875q0.609375 0 0.921875 0.40625q0.3125 0.390625 0.296875 1.171875l-0.6875 0q0 -0.515625 -0.15625 -0.75q-0.15625 -0.234375 -0.46875 -0.234375q-0.140625 0 -0.28125 0.046875q-0.140625 0.046875 -0.296875 0.15625q-0.140625 0.109375 -0.3125 0.28125q-0.15625 0.15625 -0.34375 0.40625l0 2.515625l-0.6875 0l0 -3.921875zm7.5546875 1.75q0 0.140625 0 0.25q0 0.09375 -0.015625 0.171875l-2.75 0q0 0.609375 0.328125 0.9375q0.34375 0.3125 0.96875 0.3125q0.171875 0 0.34375 -0.015625q0.171875 -0.015625 0.328125 -0.03125q0.171875 -0.03125 0.3125 -0.046875q0.15625 -0.03125 0.28125 -0.078125l0 0.5625q-0.28125 0.078125 -0.640625 0.125q-0.34375 0.0625 -0.71875 0.0625q-0.5 0 -0.875 -0.140625q-0.359375 -0.140625 -0.59375 -0.390625q-0.21875 -0.265625 -0.34375 -0.640625q-0.109375 -0.390625 -0.109375 -0.859375q0 -0.421875 0.125 -0.78125q0.125 -0.375 0.34375 -0.65625q0.234375 -0.28125 0.5625 -0.4375q0.328125 -0.171875 0.75 -0.171875q0.421875 0 0.734375 0.140625q0.3125 0.125 0.53125 0.359375q0.21875 0.234375 0.328125 0.578125q0.109375 0.328125 0.109375 0.75zm-0.703125 -0.09375q0.015625 -0.265625 -0.046875 -0.484375q-0.0625 -0.21875 -0.203125 -0.375q-0.125 -0.15625 -0.328125 -0.234375q-0.1875 -0.09375 -0.453125 -0.09375q-0.21875 0 -0.40625 0.09375q-0.171875 0.078125 -0.3125 0.234375q-0.125 0.15625 -0.21875 0.375q-0.078125 0.21875 -0.09375 0.484375l2.0625 0zm4.3046875 2.265625l-0.015625 -0.53125q-0.3125 0.3125 -0.640625 0.46875q-0.328125 0.140625 -0.703125 0.140625q-0.328125 0 -0.578125 -0.09375q-0.234375 -0.09375 -0.390625 -0.234375q-0.140625 -0.15625 -0.21875 -0.359375q-0.078125 -0.203125 -0.078125 -0.4375q0 -0.59375 0.4375 -0.921875q0.453125 -0.34375 1.3125 -0.34375l0.8125 0l0 -0.34375q0 -0.34375 -0.234375 -0.546875q-0.21875 -0.21875 -0.671875 -0.21875q-0.328125 0 -0.65625 0.078125q-0.328125 0.078125 -0.671875 0.21875l0 -0.625q0.140625 -0.046875 0.296875 -0.078125q0.15625 -0.046875 0.328125 -0.078125q0.171875 -0.046875 0.359375 -0.0625q0.203125 -0.03125 0.390625 -0.03125q0.359375 0 0.640625 0.078125q0.296875 0.078125 0.484375 0.25q0.203125 0.15625 0.296875 0.40625q0.109375 0.234375 0.109375 0.5625l0 2.703125l-0.609375 0zm-0.0625 -1.78125l-0.875 0q-0.25 0 -0.4375 0.046875q-0.171875 0.046875 -0.296875 0.140625q-0.109375 0.09375 -0.171875 0.234375q-0.0625 0.125 -0.0625 0.28125q0 0.125 0.03125 0.234375q0.046875 0.09375 0.125 0.171875q0.078125 0.078125 0.203125 0.125q0.125 0.046875 0.296875 0.046875q0.234375 0 0.53125 -0.140625q0.3125 -0.140625 0.65625 -0.453125l0 -0.6875zm5.1015625 1.71875q-0.21875 0.0625 -0.46875 0.09375q-0.25 0.03125 -0.5 0.03125q-0.734375 0 -1.109375 -0.328125q-0.359375 -0.34375 -0.359375 -1.046875l0 -2.046875l-1.09375 0l0 -0.5625l1.09375 0l0 -1.078125l0.6875 -0.171875l0 1.25l1.75 0l0 0.5625l-1.75 0l0 2.0q0 0.421875 0.21875 0.640625q0.21875 0.203125 0.65625 0.203125q0.1875 0 0.40625 -0.03125q0.234375 -0.03125 0.46875 -0.09375l0 0.578125zm4.3984375 -5.453125l-2.6875 6.359375l-0.640625 0l2.671875 -6.359375l0.65625 0zm4.6015625 3.484375q0 0.515625 -0.15625 0.90625q-0.140625 0.390625 -0.40625 0.65625q-0.25 0.25 -0.609375 0.390625q-0.34375 0.125 -0.75 0.125q-0.1875 0 -0.375 -0.015625q-0.1875 -0.015625 -0.375 -0.078125l0 1.65625l-0.6875 0l0 -5.53125l0.609375 0l0.046875 0.65625q0.28125 -0.40625 0.609375 -0.5625q0.34375 -0.171875 0.734375 -0.171875q0.328125 0 0.578125 0.140625q0.265625 0.140625 0.4375 0.40625q0.171875 0.25 0.25 0.609375q0.09375 0.359375 0.09375 0.8125zm-0.703125 0.03125q0 -0.3125 -0.046875 -0.5625q-0.046875 -0.265625 -0.140625 -0.4375q-0.09375 -0.1875 -0.25 -0.296875q-0.15625 -0.109375 -0.359375 -0.109375q-0.125 0 -0.265625 0.046875q-0.125 0.046875 -0.28125 0.140625q-0.140625 0.09375 -0.296875 0.25q-0.15625 0.15625 -0.328125 0.390625l0 1.90625q0.1875 0.078125 0.390625 0.125q0.203125 0.046875 0.40625 0.046875q0.546875 0 0.859375 -0.375q0.3125 -0.375 0.3125 -1.125zm1.8984375 -1.921875l0.625 0l0.015625 0.71875q0.359375 -0.421875 0.6875 -0.609375q0.34375 -0.1875 0.6875 -0.1875q0.609375 0 0.921875 0.40625q0.3125 0.390625 0.296875 1.171875l-0.6875 0q0 -0.515625 -0.15625 -0.75q-0.15625 -0.234375 -0.46875 -0.234375q-0.140625 0 -0.28125 0.046875q-0.140625 0.046875 -0.296875 0.15625q-0.140625 0.109375 -0.3125 0.28125q-0.15625 0.15625 -0.34375 0.40625l0 2.515625l-0.6875 0l0 -3.921875zm7.6640625 1.921875q0 0.46875 -0.140625 0.84375q-0.125 0.375 -0.375 0.65625q-0.234375 0.265625 -0.578125 0.421875q-0.34375 0.15625 -0.796875 0.15625q-0.421875 0 -0.75 -0.125q-0.328125 -0.140625 -0.5625 -0.390625q-0.234375 -0.265625 -0.359375 -0.640625q-0.125 -0.375 -0.125 -0.859375q0 -0.453125 0.125 -0.828125q0.140625 -0.390625 0.375 -0.65625q0.25 -0.265625 0.59375 -0.421875q0.34375 -0.15625 0.78125 -0.15625q0.421875 0 0.75 0.140625q0.34375 0.125 0.578125 0.375q0.234375 0.25 0.359375 0.625q0.125 0.375 0.125 0.859375zm-0.703125 0.03125q0 -0.359375 -0.078125 -0.625q-0.078125 -0.28125 -0.234375 -0.453125q-0.140625 -0.1875 -0.359375 -0.28125q-0.203125 -0.09375 -0.46875 -0.09375q-0.3125 0 -0.53125 0.125q-0.203125 0.125 -0.34375 0.328125q-0.140625 0.1875 -0.203125 0.453125q-0.0625 0.265625 -0.0625 0.546875q0 0.375 0.078125 0.65625q0.078125 0.265625 0.21875 0.453125q0.15625 0.171875 0.359375 0.265625q0.21875 0.09375 0.484375 0.09375q0.296875 0 0.515625 -0.125q0.21875 -0.125 0.359375 -0.3125q0.140625 -0.203125 0.203125 -0.46875q0.0625 -0.265625 0.0625 -0.5625zm4.3359375 -1.953125l0 3.84375q0 0.421875 -0.125 0.734375q-0.109375 0.328125 -0.328125 0.546875q-0.21875 0.21875 -0.546875 0.328125q-0.3125 0.109375 -0.703125 0.109375q-0.296875 0 -0.578125 -0.0625q-0.265625 -0.046875 -0.484375 -0.140625l0 -0.640625q0.125 0.0625 0.25 0.109375q0.140625 0.046875 0.28125 0.078125q0.15625 0.046875 0.296875 0.0625q0.15625 0.015625 0.296875 0.015625q0.453125 0 0.703125 -0.28125q0.25 -0.28125 0.25 -0.828125l0 -3.3125l-1.921875 0l0 -0.5625l2.609375 0zm-0.40625 -1.640625q0.109375 0 0.203125 0.046875q0.109375 0.03125 0.171875 0.109375q0.078125 0.0625 0.109375 0.171875q0.046875 0.09375 0.046875 0.203125q0 0.109375 -0.046875 0.203125q-0.03125 0.09375 -0.109375 0.171875q-0.0625 0.078125 -0.171875 0.125q-0.09375 0.03125 -0.203125 0.03125q-0.109375 0 -0.21875 -0.03125q-0.09375 -0.046875 -0.171875 -0.125q-0.0625 -0.078125 -0.109375 -0.171875q-0.03125 -0.09375 -0.03125 -0.203125q0 -0.109375 0.03125 -0.203125q0.046875 -0.109375 0.109375 -0.171875q0.078125 -0.078125 0.171875 -0.109375q0.109375 -0.046875 0.21875 -0.046875zm5.4609375 3.390625q0 0.140625 0 0.25q0 0.09375 -0.015625 0.171875l-2.75 0q0 0.609375 0.328125 0.9375q0.34375 0.3125 0.96875 0.3125q0.171875 0 0.34375 -0.015625q0.171875 -0.015625 0.328125 -0.03125q0.171875 -0.03125 0.3125 -0.046875q0.15625 -0.03125 0.28125 -0.078125l0 0.5625q-0.28125 0.078125 -0.640625 0.125q-0.34375 0.0625 -0.71875 0.0625q-0.5 0 -0.875 -0.140625q-0.359375 -0.140625 -0.59375 -0.390625q-0.21875 -0.265625 -0.34375 -0.640625q-0.109375 -0.390625 -0.109375 -0.859375q0 -0.421875 0.125 -0.78125q0.125 -0.375 0.34375 -0.65625q0.234375 -0.28125 0.5625 -0.4375q0.328125 -0.171875 0.75 -0.171875q0.421875 0 0.734375 0.140625q0.3125 0.125 0.53125 0.359375q0.21875 0.234375 0.328125 0.578125q0.109375 0.328125 0.109375 0.75zm-0.703125 -0.09375q0.015625 -0.265625 -0.046875 -0.484375q-0.0625 -0.21875 -0.203125 -0.375q-0.125 -0.15625 -0.328125 -0.234375q-0.1875 -0.09375 -0.453125 -0.09375q-0.21875 0 -0.40625 0.09375q-0.171875 0.078125 -0.3125 0.234375q-0.125 0.15625 -0.21875 0.375q-0.078125 0.21875 -0.09375 0.484375l2.0625 0zm4.8359375 2.125q-0.265625 0.09375 -0.546875 0.140625q-0.28125 0.0625 -0.578125 0.0625q-0.921875 0 -1.421875 -0.5q-0.5 -0.515625 -0.5 -1.484375q0 -0.46875 0.140625 -0.84375q0.140625 -0.375 0.40625 -0.640625q0.265625 -0.28125 0.625 -0.421875q0.359375 -0.15625 0.796875 -0.15625q0.3125 0 0.578125 0.046875q0.265625 0.046875 0.5 0.140625l0 0.65625q-0.25 -0.140625 -0.515625 -0.203125q-0.265625 -0.0625 -0.546875 -0.0625q-0.265625 0 -0.5 0.109375q-0.21875 0.09375 -0.40625 0.28125q-0.171875 0.1875 -0.28125 0.46875q-0.09375 0.265625 -0.09375 0.59375q0 0.71875 0.34375 1.078125q0.34375 0.34375 0.96875 0.34375q0.265625 0 0.53125 -0.0625q0.265625 -0.0625 0.5 -0.1875l0 0.640625zm4.5078125 0.078125q-0.21875 0.0625 -0.46875 0.09375q-0.25 0.03125 -0.5 0.03125q-0.734375 0 -1.109375 -0.328125q-0.359375 -0.34375 -0.359375 -1.046875l0 -2.046875l-1.09375 0l0 -0.5625l1.09375 0l0 -1.078125l0.6875 -0.171875l0 1.25l1.75 0l0 0.5625l-1.75 0l0 2.0q0 0.421875 0.21875 0.640625q0.21875 0.203125 0.65625 0.203125q0.1875 0 0.40625 -0.03125q0.234375 -0.03125 0.46875 -0.09375l0 0.578125z"
       fill-rule="nonzero"
       id="path37" />
    <path
       fill="#d9d9d9"
       d="m657.9895 222.2021l215.30707 0l0 80.0945l-215.30707 0z"
       fill-rule="nonzero"
       id="path39" />
    <path
       stroke="#666666"
       stroke-width="2.0"
       stroke-linejoin="round"
       stroke-linecap="butt"
       d="m657.9895 222.2021l215.30707 0l0 80.0945l-215.30707 0z"
       fill-rule="nonzero"
       id="path41" />
    <path
       fill="#d9d9d9"
       d="m657.9895 317.53018l215.30707 0l0 80.09448l-215.30707 0z"
       fill-rule="nonzero"
       id="path43" />
    <path
       stroke="#666666"
       stroke-width="2.0"
       stroke-linejoin="round"
       stroke-linecap="butt"
       d="m657.9895 317.53018l215.30707 0l0 80.09448l-215.30707 0z"
       fill-rule="nonzero"
       id="path45" />
    <path
       fill="#d9d9d9"
       d="m658.42255 412.85828l215.30713 0l0 80.09448l-215.30713 0z"
       fill-rule="nonzero"
       id="path47" />
    <path
       stroke="#666666"
       stroke-width="2.0"
       stroke-linejoin="round"
       stroke-linecap="butt"
       d="m658.42255 412.85828l215.30713 0l0 80.09448l-215.30713 0z"
       fill-rule="nonzero"
       id="path49" />
    <path
       fill="#ffe599"
       d="m664.0184 232.53543l35.307068 0l0 36.15747l-35.307068 0z"
       fill-rule="nonzero"
       id="path51" />
    <path
       stroke="#666666"
       stroke-width="2.0"
       stroke-linejoin="round"
       stroke-linecap="butt"
       d="m664.0184 232.53543l35.307068 0l0 36.15747l-35.307068 0z"
       fill-rule="nonzero"
       id="path53" />
    <path
       fill="#d5a6bd"
       d="m709.2992 232.53543l35.30713 0l0 36.15747l-35.30713 0z"
       fill-rule="nonzero"
       id="path55" />
    <path
       stroke="#666666"
       stroke-width="2.0"
       stroke-linejoin="round"
       stroke-linecap="butt"
       d="m709.2992 232.53543l35.30713 0l0 36.15747l-35.30713 0z"
       fill-rule="nonzero"
       id="path57" />
    <path
       fill="#a4c2f4"
       d="m754.5801 232.53543l35.307068 0l0 36.15747l-35.307068 0z"
       fill-rule="nonzero"
       id="path59" />
    <path
       stroke="#666666"
       stroke-width="2.0"
       stroke-linejoin="round"
       stroke-linecap="butt"
       d="m754.5801 232.53543l35.307068 0l0 36.15747l-35.307068 0z"
       fill-rule="nonzero"
       id="path61" />
    <path
       fill="#dd7e6b"
       d="m664.0184 327.90552l35.307068 0l0 36.15747l-35.307068 0z"
       fill-rule="nonzero"
       id="path63" />
    <path
       stroke="#666666"
       stroke-width="2.0"
       stroke-linejoin="round"
       stroke-linecap="butt"
       d="m664.0184 327.90552l35.307068 0l0 36.15747l-35.307068 0z"
       fill-rule="nonzero"
       id="path65" />
    <path
       fill="#ea9999"
       d="m709.2992 327.90552l35.30713 0l0 36.15747l-35.30713 0z"
       fill-rule="nonzero"
       id="path67" />
    <path
       stroke="#666666"
       stroke-width="2.0"
       stroke-linejoin="round"
       stroke-linecap="butt"
       d="m709.2992 327.90552l35.30713 0l0 36.15747l-35.30713 0z"
       fill-rule="nonzero"
       id="path69" />
    <path
       fill="#ffe599"
       d="m829.28345 419.3281l35.30713 0l0 36.15747l-35.30713 0z"
       fill-rule="nonzero"
       id="path71" />
    <path
       stroke="#666666"
       stroke-width="2.0"
       stroke-linejoin="round"
       stroke-linecap="butt"
       d="m829.28345 419.3281l35.30713 0l0 36.15747l-35.30713 0z"
       fill-rule="nonzero"
       id="path73" />
    <path
       fill="#b6d7a8"
       d="m780.6877 419.3281l35.307068 0l0 36.15747l-35.307068 0z"
       fill-rule="nonzero"
       id="path75" />
    <path
       stroke="#666666"
       stroke-width="2.0"
       stroke-linejoin="round"
       stroke-linecap="butt"
       d="m780.6877 419.3281l35.307068 0l0 36.15747l-35.307068 0z"
       fill-rule="nonzero"
       id="path77" />
    <path
       fill="#cccccc"
       d="m176.5538 386.46194l113.66931 0l0 66.299225l-113.66931 0z"
       fill-rule="nonzero"
       id="path79" />
    <path
       stroke="#666666"
       stroke-width="2.0"
       stroke-linejoin="round"
       stroke-linecap="butt"
       d="m176.5538 386.46194l113.66931 0l0 66.299225l-113.66931 0z"
       fill-rule="nonzero"
       id="path81" />
    <path
       fill="#cccccc"
       d="m149.83989 477.74802l28.076645 -24.986847l112.30658 0l-28.07666 24.986847z"
       fill-rule="nonzero"
       id="path83" />
    <path
       stroke="#666666"
       stroke-width="2.0"
       stroke-linejoin="round"
       stroke-linecap="butt"
       d="m149.83989 477.74802l28.076645 -24.986847l112.30658 0l-28.07666 24.986847z"
       fill-rule="nonzero"
       id="path85" />
    <path
       fill="#434343"
       d="m181.72179 393.34647l104.220474 0l0 45.66928l-104.220474 0z"
       fill-rule="nonzero"
       id="path87" />
    <path
       stroke="#666666"
       stroke-width="2.0"
       stroke-linejoin="round"
       stroke-linecap="butt"
       d="m181.72179 393.34647l104.220474 0l0 45.66928l-104.220474 0z"
       fill-rule="nonzero"
       id="path89" />
    <path
       fill="#000000"
       fill-opacity="0.0"
       d="m181.72179 396.79266l104.220474 0l0 38.771637l-104.220474 0z"
       fill-rule="nonzero"
       id="path91" />
    <path
       fill="#000000"
       d="m194.00304 409.55078l0 3.84375q0 0.421875 -0.125 0.734375q-0.109375 0.328125 -0.328125 0.546875q-0.21875 0.21875 -0.546875 0.328125q-0.3125 0.109375 -0.703125 0.109375q-0.296875 0 -0.578125 -0.0625q-0.265625 -0.046875 -0.484375 -0.140625l0 -0.640625q0.125 0.0625 0.25 0.109375q0.140625 0.046875 0.28125 0.078125q0.15625 0.046875 0.296875 0.0625q0.15625 0.015625 0.296875 0.015625q0.453125 0 0.703125 -0.28125q0.25 -0.28125 0.25 -0.828125l0 -3.3125l-1.921875 0l0 -0.5625l2.609375 0zm-0.40625 -1.640625q0.109375 0 0.203125 0.046875q0.109375 0.03125 0.171875 0.109375q0.078125 0.0625 0.109375 0.171875q0.046875 0.09375 0.046875 0.203125q0 0.109375 -0.046875 0.203125q-0.03125 0.09375 -0.109375 0.171875q-0.0625 0.078125 -0.171875 0.125q-0.09375 0.03125 -0.203125 0.03125q-0.109375 0 -0.21875 -0.03125q-0.09375 -0.046875 -0.171875 -0.125q-0.0625 -0.078125 -0.109375 -0.171875q-0.03125 -0.09375 -0.03125 -0.203125q0 -0.109375 0.03125 -0.203125q0.046875 -0.109375 0.109375 -0.171875q0.078125 -0.078125 0.171875 -0.109375q0.109375 -0.046875 0.21875 -0.046875zm4.6640625 5.5625l-0.015625 -0.53125q-0.3125 0.3125 -0.640625 0.46875q-0.328125 0.140625 -0.703125 0.140625q-0.328125 0 -0.578125 -0.09375q-0.234375 -0.09375 -0.390625 -0.234375q-0.140625 -0.15625 -0.21875 -0.359375q-0.078125 -0.203125 -0.078125 -0.4375q0 -0.59375 0.4375 -0.921875q0.453125 -0.34375 1.3125 -0.34375l0.8125 0l0 -0.34375q0 -0.34375 -0.234375 -0.546875q-0.21875 -0.21875 -0.671875 -0.21875q-0.328125 0 -0.65625 0.078125q-0.328125 0.078125 -0.671875 0.21875l0 -0.625q0.140625 -0.046875 0.296875 -0.078125q0.15625 -0.046875 0.328125 -0.078125q0.171875 -0.046875 0.359375 -0.0625q0.203125 -0.03125 0.390625 -0.03125q0.359375 0 0.640625 0.078125q0.296875 0.078125 0.484375 0.25q0.203125 0.15625 0.296875 0.40625q0.109375 0.234375 0.109375 0.5625l0 2.703125l-0.609375 0zm-0.0625 -1.78125l-0.875 0q-0.25 0 -0.4375 0.046875q-0.171875 0.046875 -0.296875 0.140625q-0.109375 0.09375 -0.171875 0.234375q-0.0625 0.125 -0.0625 0.28125q0 0.125 0.03125 0.234375q0.046875 0.09375 0.125 0.171875q0.078125 0.078125 0.203125 0.125q0.125 0.046875 0.296875 0.046875q0.234375 0 0.53125 -0.140625q0.3125 -0.140625 0.65625 -0.453125l0 -0.6875zm1.5859375 -2.140625l0.765625 0l0.96875 2.59375l0.203125 0.625l0.21875 -0.640625l0.953125 -2.578125l0.734375 0l-1.53125 3.921875l-0.78125 0l-1.53125 -3.921875zm7.2734375 3.921875l-0.015625 -0.53125q-0.3125 0.3125 -0.640625 0.46875q-0.328125 0.140625 -0.703125 0.140625q-0.328125 0 -0.578125 -0.09375q-0.234375 -0.09375 -0.390625 -0.234375q-0.140625 -0.15625 -0.21875 -0.359375q-0.078125 -0.203125 -0.078125 -0.4375q0 -0.59375 0.4375 -0.921875q0.453125 -0.34375 1.3125 -0.34375l0.8125 0l0 -0.34375q0 -0.34375 -0.234375 -0.546875q-0.21875 -0.21875 -0.671875 -0.21875q-0.328125 0 -0.65625 0.078125q-0.328125 0.078125 -0.671875 0.21875l0 -0.625q0.140625 -0.046875 0.296875 -0.078125q0.15625 -0.046875 0.328125 -0.078125q0.171875 -0.046875 0.359375 -0.0625q0.203125 -0.03125 0.390625 -0.03125q0.359375 0 0.640625 0.078125q0.296875 0.078125 0.484375 0.25q0.203125 0.15625 0.296875 0.40625q0.109375 0.234375 0.109375 0.5625l0 2.703125l-0.609375 0zm-0.0625 -1.78125l-0.875 0q-0.25 0 -0.4375 0.046875q-0.171875 0.046875 -0.296875 0.140625q-0.109375 0.09375 -0.171875 0.234375q-0.0625 0.125 -0.0625 0.28125q0 0.125 0.03125 0.234375q0.046875 0.09375 0.125 0.171875q0.078125 0.078125 0.203125 0.125q0.125 0.046875 0.296875 0.046875q0.234375 0 0.53125 -0.140625q0.3125 -0.140625 0.65625 -0.453125l0 -0.6875zm4.9921875 1.640625q-0.265625 0.09375 -0.546875 0.140625q-0.28125 0.0625 -0.578125 0.0625q-0.921875 0 -1.421875 -0.5q-0.5 -0.515625 -0.5 -1.484375q0 -0.46875 0.140625 -0.84375q0.140625 -0.375 0.40625 -0.640625q0.265625 -0.28125 0.625 -0.421875q0.359375 -0.15625 0.796875 -0.15625q0.3125 0 0.578125 0.046875q0.265625 0.046875 0.5 0.140625l0 0.65625q-0.25 -0.140625 -0.515625 -0.203125q-0.265625 -0.0625 -0.546875 -0.0625q-0.265625 0 -0.5 0.109375q-0.21875 0.09375 -0.40625 0.28125q-0.171875 0.1875 -0.28125 0.46875q-0.09375 0.265625 -0.09375 0.59375q0 0.71875 0.34375 1.078125q0.34375 0.34375 0.96875 0.34375q0.265625 0 0.53125 -0.0625q0.265625 -0.0625 0.5 -0.1875l0 0.640625zm8.90625 0.140625l-0.6875 0l0 -2.5q0 -0.453125 -0.171875 -0.671875q-0.15625 -0.234375 -0.484375 -0.234375q-0.125 0 -0.25 0.046875q-0.125 0.03125 -0.25 0.125q-0.125 0.078125 -0.28125 0.234375q-0.15625 0.15625 -0.34375 0.390625l0 2.609375l-0.6875 0l0 -5.515625l0.6875 0l0 1.59375l-0.03125 0.609375q0.15625 -0.1875 0.3125 -0.3125q0.15625 -0.140625 0.3125 -0.21875q0.15625 -0.078125 0.3125 -0.109375q0.15625 -0.046875 0.328125 -0.046875q0.59375 0 0.90625 0.359375q0.328125 0.359375 0.328125 1.078125l0 2.5625zm2.5859375 -3.359375l-1.171875 0l0 -0.5625l1.859375 0l0 3.359375l1.15625 0l0 0.5625l-3.140625 0l0 -0.5625l1.296875 0l0 -2.796875zm0.234375 -2.203125q0.109375 0 0.203125 0.046875q0.109375 0.03125 0.171875 0.109375q0.078125 0.0625 0.109375 0.171875q0.046875 0.09375 0.046875 0.203125q0 0.109375 -0.046875 0.203125q-0.03125 0.09375 -0.109375 0.171875q-0.0625 0.078125 -0.171875 0.125q-0.09375 0.03125 -0.203125 0.03125q-0.109375 0 -0.21875 -0.03125q-0.09375 -0.046875 -0.171875 -0.125q-0.0625 -0.078125 -0.109375 -0.171875q-0.03125 -0.09375 -0.03125 -0.203125q0 -0.109375 0.03125 -0.203125q0.046875 -0.109375 0.109375 -0.171875q0.078125 -0.078125 0.171875 -0.109375q0.109375 -0.046875 0.21875 -0.046875zm5.9765625 5.5q-0.21875 0.0625 -0.46875 0.09375q-0.25 0.03125 -0.5 0.03125q-0.734375 0 -1.109375 -0.328125q-0.359375 -0.34375 -0.359375 -1.046875l0 -2.046875l-1.09375 0l0 -0.5625l1.09375 0l0 -1.078125l0.6875 -0.171875l0 1.25l1.75 0l0 0.5625l-1.75 0l0 2.0q0 0.421875 0.21875 0.640625q0.21875 0.203125 0.65625 0.203125q0.1875 0 0.40625 -0.03125q0.234375 -0.03125 0.46875 -0.09375l0 0.578125zm4.3984375 0.0625l-0.6875 0l0 -2.5q0 -0.453125 -0.171875 -0.671875q-0.15625 -0.234375 -0.484375 -0.234375q-0.125 0 -0.25 0.046875q-0.125 0.03125 -0.25 0.125q-0.125 0.078125 -0.28125 0.234375q-0.15625 0.15625 -0.34375 0.390625l0 2.609375l-0.6875 0l0 -5.515625l0.6875 0l0 1.59375l-0.03125 0.609375q0.15625 -0.1875 0.3125 -0.3125q0.15625 -0.140625 0.3125 -0.21875q0.15625 -0.078125 0.3125 -0.109375q0.15625 -0.046875 0.328125 -0.046875q0.59375 0 0.90625 0.359375q0.328125 0.359375 0.328125 1.078125l0 2.5625zm4.5546875 -2.171875q0 0.140625 0 0.25q0 0.09375 -0.015625 0.171875l-2.75 0q0 0.609375 0.328125 0.9375q0.34375 0.3125 0.96875 0.3125q0.171875 0 0.34375 -0.015625q0.171875 -0.015625 0.328125 -0.03125q0.171875 -0.03125 0.3125 -0.046875q0.15625 -0.03125 0.28125 -0.078125l0 0.5625q-0.28125 0.078125 -0.640625 0.125q-0.34375 0.0625 -0.71875 0.0625q-0.5 0 -0.875 -0.140625q-0.359375 -0.140625 -0.59375 -0.390625q-0.21875 -0.265625 -0.34375 -0.640625q-0.109375 -0.390625 -0.109375 -0.859375q0 -0.421875 0.125 -0.78125q0.125 -0.375 0.34375 -0.65625q0.234375 -0.28125 0.5625 -0.4375q0.328125 -0.171875 0.75 -0.171875q0.421875 0 0.734375 0.140625q0.3125 0.125 0.53125 0.359375q0.21875 0.234375 0.328125 0.578125q0.109375 0.328125 0.109375 0.75zm-0.703125 -0.09375q0.015625 -0.265625 -0.046875 -0.484375q-0.0625 -0.21875 -0.203125 -0.375q-0.125 -0.15625 -0.328125 -0.234375q-0.1875 -0.09375 -0.453125 -0.09375q-0.21875 0 -0.40625 0.09375q-0.171875 0.078125 -0.3125 0.234375q-0.125 0.15625 -0.21875 0.375q-0.078125 0.21875 -0.09375 0.484375l2.0625 0zm1.9453125 -1.65625l0.625 0l0.015625 0.71875q0.359375 -0.421875 0.6875 -0.609375q0.34375 -0.1875 0.6875 -0.1875q0.609375 0 0.921875 0.40625q0.3125 0.390625 0.296875 1.171875l-0.6875 0q0 -0.515625 -0.15625 -0.75q-0.15625 -0.234375 -0.46875 -0.234375q-0.140625 0 -0.28125 0.046875q-0.140625 0.046875 -0.296875 0.15625q-0.140625 0.109375 -0.3125 0.28125q-0.15625 0.15625 -0.34375 0.40625l0 2.515625l-0.6875 0l0 -3.921875zm7.5546875 1.75q0 0.140625 0 0.25q0 0.09375 -0.015625 0.171875l-2.75 0q0 0.609375 0.328125 0.9375q0.34375 0.3125 0.96875 0.3125q0.171875 0 0.34375 -0.015625q0.171875 -0.015625 0.328125 -0.03125q0.171875 -0.03125 0.3125 -0.046875q0.15625 -0.03125 0.28125 -0.078125l0 0.5625q-0.28125 0.078125 -0.640625 0.125q-0.34375 0.0625 -0.71875 0.0625q-0.5 0 -0.875 -0.140625q-0.359375 -0.140625 -0.59375 -0.390625q-0.21875 -0.265625 -0.34375 -0.640625q-0.109375 -0.390625 -0.109375 -0.859375q0 -0.421875 0.125 -0.78125q0.125 -0.375 0.34375 -0.65625q0.234375 -0.28125 0.5625 -0.4375q0.328125 -0.171875 0.75 -0.171875q0.421875 0 0.734375 0.140625q0.3125 0.125 0.53125 0.359375q0.21875 0.234375 0.328125 0.578125q0.109375 0.328125 0.109375 0.75zm-0.703125 -0.09375q0.015625 -0.265625 -0.046875 -0.484375q-0.0625 -0.21875 -0.203125 -0.375q-0.125 -0.15625 -0.328125 -0.234375q-0.1875 -0.09375 -0.453125 -0.09375q-0.21875 0 -0.40625 0.09375q-0.171875 0.078125 -0.3125 0.234375q-0.125 0.15625 -0.21875 0.375q-0.078125 0.21875 -0.09375 0.484375l2.0625 0zm3.3359375 1.03125q0.125 0 0.25 0.0625q0.125 0.046875 0.203125 0.140625q0.09375 0.078125 0.140625 0.203125q0.046875 0.109375 0.046875 0.25q0 0.140625 -0.046875 0.265625q-0.046875 0.109375 -0.140625 0.203125q-0.078125 0.078125 -0.203125 0.125q-0.125 0.0625 -0.25 0.0625q-0.140625 0 -0.265625 -0.0625q-0.109375 -0.046875 -0.203125 -0.125q-0.078125 -0.09375 -0.140625 -0.203125q-0.046875 -0.125 -0.046875 -0.265625q0 -0.140625 0.046875 -0.25q0.0625 -0.125 0.140625 -0.203125q0.09375 -0.09375 0.203125 -0.140625q0.125 -0.0625 0.265625 -0.0625zm5.5078125 -2.6875l0 3.84375q0 0.421875 -0.125 0.734375q-0.109375 0.328125 -0.328125 0.546875q-0.21875 0.21875 -0.546875 0.328125q-0.3125 0.109375 -0.703125 0.109375q-0.296875 0 -0.578125 -0.0625q-0.265625 -0.046875 -0.484375 -0.140625l0 -0.640625q0.125 0.0625 0.25 0.109375q0.140625 0.046875 0.28125 0.078125q0.15625 0.046875 0.296875 0.0625q0.15625 0.015625 0.296875 0.015625q0.453125 0 0.703125 -0.28125q0.25 -0.28125 0.25 -0.828125l0 -3.3125l-1.921875 0l0 -0.5625l2.609375 0zm-0.40625 -1.640625q0.109375 0 0.203125 0.046875q0.109375 0.03125 0.171875 0.109375q0.078125 0.0625 0.109375 0.171875q0.046875 0.09375 0.046875 0.203125q0 0.109375 -0.046875 0.203125q-0.03125 0.09375 -0.109375 0.171875q-0.0625 0.078125 -0.171875 0.125q-0.09375 0.03125 -0.203125 0.03125q-0.109375 0 -0.21875 -0.03125q-0.09375 -0.046875 -0.171875 -0.125q-0.0625 -0.078125 -0.109375 -0.171875q-0.03125 -0.09375 -0.03125 -0.203125q0 -0.109375 0.03125 -0.203125q0.046875 -0.109375 0.109375 -0.171875q0.078125 -0.078125 0.171875 -0.109375q0.109375 -0.046875 0.21875 -0.046875zm4.6640472 5.5625l-0.015625 -0.53125q-0.3125 0.3125 -0.640625 0.46875q-0.328125 0.140625 -0.703125 0.140625q-0.328125 0 -0.578125 -0.09375q-0.234375 -0.09375 -0.390625 -0.234375q-0.140625 -0.15625 -0.21875 -0.359375q-0.078125 -0.203125 -0.078125 -0.4375q0 -0.59375 0.4375 -0.921875q0.453125 -0.34375 1.3125 -0.34375l0.8125 0l0 -0.34375q0 -0.34375 -0.234375 -0.546875q-0.21875 -0.21875 -0.671875 -0.21875q-0.328125 0 -0.65625 0.078125q-0.328125 0.078125 -0.671875 0.21875l0 -0.625q0.140625 -0.046875 0.296875 -0.078125q0.15625 -0.046875 0.328125 -0.078125q0.171875 -0.046875 0.359375 -0.0625q0.203125 -0.03125 0.390625 -0.03125q0.359375 0 0.640625 0.078125q0.296875 0.078125 0.484375 0.25q0.203125 0.15625 0.296875 0.40625q0.109375 0.234375 0.109375 0.5625l0 2.703125l-0.609375 0zm-0.0625 -1.78125l-0.875 0q-0.25 0 -0.4375 0.046875q-0.171875 0.046875 -0.296875 0.140625q-0.109375 0.09375 -0.171875 0.234375q-0.0625 0.125 -0.0625 0.28125q0 0.125 0.03125 0.234375q0.046875 0.09375 0.125 0.171875q0.078125 0.078125 0.203125 0.125q0.125 0.046875 0.296875 0.046875q0.234375 0 0.53125 -0.140625q0.3125 -0.140625 0.65625 -0.453125l0 -0.6875zm1.5859375 -2.140625l0.765625 0l0.96875 2.59375l0.203125 0.625l0.21875 -0.640625l0.953125 -2.578125l0.734375 0l-1.53125 3.921875l-0.78125 0l-1.53125 -3.921875zm7.2734375 3.921875l-0.015625 -0.53125q-0.3125 0.3125 -0.640625 0.46875q-0.328125 0.140625 -0.703125 0.140625q-0.328125 0 -0.578125 -0.09375q-0.234375 -0.09375 -0.390625 -0.234375q-0.140625 -0.15625 -0.21875 -0.359375q-0.078125 -0.203125 -0.078125 -0.4375q0 -0.59375 0.4375 -0.921875q0.453125 -0.34375 1.3125 -0.34375l0.8125 0l0 -0.34375q0 -0.34375 -0.234375 -0.546875q-0.21875 -0.21875 -0.671875 -0.21875q-0.328125 0 -0.65625 0.078125q-0.328125 0.078125 -0.671875 0.21875l0 -0.625q0.140625 -0.046875 0.296875 -0.078125q0.15625 -0.046875 0.328125 -0.078125q0.171875 -0.046875 0.359375 -0.0625q0.203125 -0.03125 0.390625 -0.03125q0.359375 0 0.640625 0.078125q0.296875 0.078125 0.484375 0.25q0.203125 0.15625 0.296875 0.40625q0.109375 0.234375 0.109375 0.5625l0 2.703125l-0.609375 0zm-0.0625 -1.78125l-0.875 0q-0.25 0 -0.4375 0.046875q-0.171875 0.046875 -0.296875 0.140625q-0.109375 0.09375 -0.171875 0.234375q-0.0625 0.125 -0.0625 0.28125q0 0.125 0.03125 0.234375q0.046875 0.09375 0.125 0.171875q0.078125 0.078125 0.203125 0.125q0.125 0.046875 0.296875 0.046875q0.234375 0 0.53125 -0.140625q0.3125 -0.140625 0.65625 -0.453125l0 -0.6875z"
       fill-rule="nonzero"
       id="path93" />
    <path
       fill="#cccccc"
       d="m176.5538 269.8819l113.66931 0l0 66.299194l-113.66931 0z"
       fill-rule="nonzero"
       id="path95" />
    <path
       stroke="#666666"
       stroke-width="2.0"
       stroke-linejoin="round"
       stroke-linecap="butt"
       d="m176.5538 269.8819l113.66931 0l0 66.299194l-113.66931 0z"
       fill-rule="nonzero"
       id="path97" />
    <path
       fill="#cccccc"
       d="m149.83989 361.16797l28.076645 -24.986877l112.30658 0l-28.07666 24.986877z"
       fill-rule="nonzero"
       id="path99" />
    <path
       stroke="#666666"
       stroke-width="2.0"
       stroke-linejoin="round"
       stroke-linecap="butt"
       d="m149.83989 361.16797l28.076645 -24.986877l112.30658 0l-28.07666 24.986877z"
       fill-rule="nonzero"
       id="path101" />
    <path
       fill="#434343"
       d="m181.72179 276.76642l104.220474 0l0 45.66928l-104.220474 0z"
       fill-rule="nonzero"
       id="path103" />
    <path
       stroke="#666666"
       stroke-width="2.0"
       stroke-linejoin="round"
       stroke-linecap="butt"
       d="m181.72179 276.76642l104.220474 0l0 45.66928l-104.220474 0z"
       fill-rule="nonzero"
       id="path105" />
    <path
       fill="#000000"
       fill-opacity="0.0"
       d="m181.72179 280.2126l104.220474 0l0 38.771667l-104.220474 0z"
       fill-rule="nonzero"
       id="path107" />
    <path
       fill="#000000"
       d="m194.45616 295.81448q0 0.21875 -0.078125 0.390625q-0.0625 0.15625 -0.1875 0.28125q-0.125 0.125 -0.28125 0.21875q-0.15625 0.078125 -0.34375 0.140625q-0.171875 0.0625 -0.375 0.09375q-0.1875 0.03125 -0.375 0.03125q-0.390625 0 -0.734375 -0.046875q-0.328125 -0.03125 -0.640625 -0.109375l0 -0.625q0.34375 0.09375 0.671875 0.15625q0.34375 0.046875 0.6875 0.046875q0.484375 0 0.71875 -0.125q0.234375 -0.140625 0.234375 -0.390625q0 -0.109375 -0.046875 -0.1875q-0.03125 -0.09375 -0.125 -0.15625q-0.09375 -0.078125 -0.3125 -0.15625q-0.203125 -0.09375 -0.546875 -0.203125q-0.265625 -0.078125 -0.5 -0.171875q-0.21875 -0.09375 -0.390625 -0.234375q-0.15625 -0.140625 -0.25 -0.3125q-0.09375 -0.1875 -0.09375 -0.4375q0 -0.171875 0.078125 -0.359375q0.078125 -0.203125 0.25 -0.359375q0.1875 -0.171875 0.5 -0.28125q0.3125 -0.125 0.78125 -0.125q0.234375 0 0.515625 0.03125q0.28125 0.03125 0.578125 0.09375l0 0.59375q-0.3125 -0.078125 -0.609375 -0.109375q-0.28125 -0.03125 -0.484375 -0.03125q-0.265625 0 -0.4375 0.046875q-0.171875 0.03125 -0.28125 0.09375q-0.109375 0.0625 -0.15625 0.15625q-0.046875 0.09375 -0.046875 0.203125q0 0.109375 0.046875 0.203125q0.046875 0.078125 0.15625 0.15625q0.109375 0.078125 0.296875 0.15625q0.203125 0.078125 0.53125 0.171875q0.34375 0.109375 0.578125 0.21875q0.25 0.109375 0.390625 0.25q0.15625 0.125 0.21875 0.296875q0.0625 0.171875 0.0625 0.390625zm0.9296875 -2.84375l0.765625 0l0.96875 2.59375l0.203125 0.625l0.21875 -0.640625l0.953125 -2.578125l0.734375 0l-1.53125 3.921875l-0.78125 0l-1.53125 -3.921875zm4.7578125 0l0.609375 0l0.03125 0.625q0.171875 -0.203125 0.328125 -0.328125q0.15625 -0.140625 0.3125 -0.21875q0.15625 -0.078125 0.3125 -0.109375q0.15625 -0.046875 0.328125 -0.046875q0.609375 0 0.921875 0.359375q0.3125 0.359375 0.3125 1.078125l0 2.5625l-0.6875 0l0 -2.5q0 -0.46875 -0.171875 -0.6875q-0.171875 -0.21875 -0.5 -0.21875q-0.125 0 -0.25 0.046875q-0.125 0.03125 -0.25 0.125q-0.125 0.078125 -0.28125 0.234375q-0.140625 0.15625 -0.328125 0.390625l0 2.609375l-0.6875 0l0 -3.921875zm11.84375 3.78125q-0.265625 0.09375 -0.546875 0.140625q-0.28125 0.0625 -0.578125 0.0625q-0.921875 0 -1.421875 -0.5q-0.5 -0.515625 -0.5 -1.484375q0 -0.46875 0.140625 -0.84375q0.140625 -0.375 0.40625 -0.640625q0.265625 -0.28125 0.625 -0.421875q0.359375 -0.15625 0.796875 -0.15625q0.3125 0 0.578125 0.046875q0.265625 0.046875 0.5 0.140625l0 0.65625q-0.25 -0.140625 -0.515625 -0.203125q-0.265625 -0.0625 -0.546875 -0.0625q-0.265625 0 -0.5 0.109375q-0.21875 0.09375 -0.40625 0.28125q-0.171875 0.1875 -0.28125 0.46875q-0.09375 0.265625 -0.09375 0.59375q0 0.71875 0.34375 1.078125q0.34375 0.34375 0.96875 0.34375q0.265625 0 0.53125 -0.0625q0.265625 -0.0625 0.5 -0.1875l0 0.640625zm4.7734375 -1.859375q0 0.46875 -0.140625 0.84375q-0.125 0.375 -0.375 0.65625q-0.234375 0.265625 -0.578125 0.421875q-0.34375 0.15625 -0.796875 0.15625q-0.421875 0 -0.75 -0.125q-0.328125 -0.140625 -0.5625 -0.390625q-0.234375 -0.265625 -0.359375 -0.640625q-0.125 -0.375 -0.125 -0.859375q0 -0.453125 0.125 -0.828125q0.140625 -0.390625 0.375 -0.65625q0.25 -0.265625 0.59375 -0.421875q0.34375 -0.15625 0.78125 -0.15625q0.421875 0 0.75 0.140625q0.34375 0.125 0.578125 0.375q0.234375 0.25 0.359375 0.625q0.125 0.375 0.125 0.859375zm-0.703125 0.03125q0 -0.359375 -0.078125 -0.625q-0.078125 -0.28125 -0.234375 -0.453125q-0.140625 -0.1875 -0.359375 -0.28125q-0.203125 -0.09375 -0.46875 -0.09375q-0.3125 0 -0.53125 0.125q-0.203125 0.125 -0.34375 0.328125q-0.140625 0.1875 -0.203125 0.453125q-0.0625 0.265625 -0.0625 0.546875q0 0.375 0.078125 0.65625q0.078125 0.265625 0.21875 0.453125q0.15625 0.171875 0.359375 0.265625q0.21875 0.09375 0.484375 0.09375q0.296875 0 0.515625 -0.125q0.21875 -0.125 0.359375 -0.3125q0.140625 -0.203125 0.203125 -0.46875q0.0625 -0.265625 0.0625 -0.5625zm4.4765625 1.96875l0 -2.8125q0 -0.1875 -0.015625 -0.296875q-0.015625 -0.125 -0.046875 -0.1875q-0.015625 -0.078125 -0.0625 -0.09375q-0.046875 -0.03125 -0.109375 -0.03125q-0.078125 0 -0.15625 0.046875q-0.0625 0.046875 -0.140625 0.15625q-0.078125 0.09375 -0.171875 0.265625q-0.078125 0.171875 -0.203125 0.4375l0 2.515625l-0.625 0l0 -2.75q0 -0.203125 -0.015625 -0.328125q-0.015625 -0.140625 -0.046875 -0.21875q-0.03125 -0.078125 -0.078125 -0.09375q-0.046875 -0.03125 -0.109375 -0.03125q-0.0625 0 -0.125 0.046875q-0.0625 0.03125 -0.140625 0.140625q-0.078125 0.09375 -0.171875 0.265625q-0.09375 0.171875 -0.21875 0.453125l0 2.515625l-0.625 0l0 -3.921875l0.515625 0l0.03125 0.75q0.09375 -0.234375 0.1875 -0.390625q0.109375 -0.15625 0.203125 -0.25q0.109375 -0.09375 0.21875 -0.140625q0.109375 -0.046875 0.25 -0.046875q0.328125 0 0.484375 0.21875q0.171875 0.203125 0.171875 0.640625q0.09375 -0.203125 0.171875 -0.359375q0.09375 -0.171875 0.1875 -0.265625q0.109375 -0.109375 0.234375 -0.171875q0.125 -0.0625 0.296875 -0.0625q0.734375 0 0.734375 1.140625l0 2.859375l-0.625 0zm4.3984375 0l0 -2.8125q0 -0.1875 -0.015625 -0.296875q-0.015625 -0.125 -0.046875 -0.1875q-0.015625 -0.078125 -0.0625 -0.09375q-0.046875 -0.03125 -0.109375 -0.03125q-0.078125 0 -0.15625 0.046875q-0.0625 0.046875 -0.140625 0.15625q-0.078125 0.09375 -0.171875 0.265625q-0.078125 0.171875 -0.203125 0.4375l0 2.515625l-0.625 0l0 -2.75q0 -0.203125 -0.015625 -0.328125q-0.015625 -0.140625 -0.046875 -0.21875q-0.03125 -0.078125 -0.078125 -0.09375q-0.046875 -0.03125 -0.109375 -0.03125q-0.0625 0 -0.125 0.046875q-0.0625 0.03125 -0.140625 0.140625q-0.078125 0.09375 -0.171875 0.265625q-0.09375 0.171875 -0.21875 0.453125l0 2.515625l-0.625 0l0 -3.921875l0.515625 0l0.03125 0.75q0.09375 -0.234375 0.1875 -0.390625q0.109375 -0.15625 0.203125 -0.25q0.109375 -0.09375 0.21875 -0.140625q0.109375 -0.046875 0.25 -0.046875q0.328125 0 0.484375 0.21875q0.171875 0.203125 0.171875 0.640625q0.09375 -0.203125 0.171875 -0.359375q0.09375 -0.171875 0.1875 -0.265625q0.109375 -0.109375 0.234375 -0.171875q0.125 -0.0625 0.296875 -0.0625q0.734375 0 0.734375 1.140625l0 2.859375l-0.625 0zm2.9453125 -3.359375l-1.171875 0l0 -0.5625l1.859375 0l0 3.359375l1.15625 0l0 0.5625l-3.140625 0l0 -0.5625l1.296875 0l0 -2.796875zm0.234375 -2.203125q0.109375 0 0.203125 0.046875q0.109375 0.03125 0.171875 0.109375q0.078125 0.0625 0.109375 0.171875q0.046875 0.09375 0.046875 0.203125q0 0.109375 -0.046875 0.203125q-0.03125 0.09375 -0.109375 0.171875q-0.0625 0.078125 -0.171875 0.125q-0.09375 0.03125 -0.203125 0.03125q-0.109375 0 -0.21875 -0.03125q-0.09375 -0.046875 -0.171875 -0.125q-0.0625 -0.078125 -0.109375 -0.171875q-0.03125 -0.09375 -0.03125 -0.203125q0 -0.109375 0.03125 -0.203125q0.046875 -0.109375 0.109375 -0.171875q0.078125 -0.078125 0.171875 -0.109375q0.109375 -0.046875 0.21875 -0.046875zm5.9765625 5.5q-0.21875 0.0625 -0.46875 0.09375q-0.25 0.03125 -0.5 0.03125q-0.734375 0 -1.109375 -0.328125q-0.359375 -0.34375 -0.359375 -1.046875l0 -2.046875l-1.09375 0l0 -0.5625l1.09375 0l0 -1.078125l0.6875 -0.171875l0 1.25l1.75 0l0 0.5625l-1.75 0l0 2.0q0 0.421875 0.21875 0.640625q0.21875 0.203125 0.65625 0.203125q0.1875 0 0.40625 -0.03125q0.234375 -0.03125 0.46875 -0.09375l0 0.578125z"
       fill-rule="nonzero"
       id="path109" />
    <path
       fill="#000000"
       fill-opacity="0.0"
       d="m213.59843 183.021l450.41992 67.59317"
       fill-rule="nonzero"
       id="path111" />
    <path
       stroke="#666666"
       stroke-width="2.0"
       stroke-linejoin="round"
       stroke-linecap="butt"
       d="m213.59842 183.021l438.55283 65.81232"
       fill-rule="evenodd"
       id="path113" />
    <path
       fill="#666666"
       stroke="#666666"
       stroke-width="2.0"
       stroke-linecap="butt"
       d="m651.661 252.10019l9.465942 -1.9199219l-8.485474 -4.613846z"
       fill-rule="evenodd"
       id="path115" />
    <path
       fill="#000000"
       fill-opacity="0.0"
       d="m290.22833 303.02362l436.72443 -34.33072"
       fill-rule="nonzero"
       id="path117" />
    <path
       stroke="#666666"
       stroke-width="2.0"
       stroke-linejoin="round"
       stroke-linecap="butt"
       d="m290.22833 303.02362l424.76135 -33.39029"
       fill-rule="evenodd"
       id="path119" />
    <path
       fill="#666666"
       stroke="#666666"
       stroke-width="2.0"
       stroke-linecap="butt"
       d="m715.24854 272.92664l8.789429 -4.0045776l-9.30719 -2.5820312z"
       fill-rule="evenodd"
       id="path121" />
    <path
       fill="#000000"
       fill-opacity="0.0"
       d="m217.86615 186.4567l491.43304 64.15747"
       fill-rule="nonzero"
       id="path123" />
    <path
       stroke="#666666"
       stroke-width="2.0"
       stroke-linejoin="round"
       stroke-linecap="butt"
       d="m217.86613 186.4567l479.53406 62.604034"
       fill-rule="evenodd"
       id="path125" />
    <path
       fill="#666666"
       stroke="#666666"
       stroke-width="2.0"
       stroke-linecap="butt"
       d="m696.97253 252.3364l9.42749 -2.1007233l-8.572205 -4.4506073z"
       fill-rule="evenodd"
       id="path127" />
    <path
       fill="#000000"
       fill-opacity="0.0"
       d="m290.22308 419.62204l373.7953 -73.63779"
       fill-rule="nonzero"
       id="path129" />
    <path
       stroke="#666666"
       stroke-width="2.0"
       stroke-linejoin="round"
       stroke-linecap="butt"
       d="m290.22308 419.62204l362.0216 -71.31836"
       fill-rule="evenodd"
       id="path131" />
    <path
       fill="#666666"
       stroke="#666666"
       stroke-width="2.0"
       stroke-linecap="butt"
       d="m652.8832 351.54486l8.266541 -4.9954834l-9.543579 -1.4868774z"
       fill-rule="evenodd"
       id="path133" />
    <path
       fill="#000000"
       fill-opacity="0.0"
       d="m290.21783 419.62204l482.01575 -150.92914"
       fill-rule="nonzero"
       id="path135" />
    <path
       stroke="#666666"
       stroke-width="2.0"
       stroke-linejoin="round"
       stroke-linecap="butt"
       d="m290.21783 419.62204l470.56396 -147.34335"
       fill-rule="evenodd"
       id="path137" />
    <path
       fill="#666666"
       stroke="#666666"
       stroke-width="2.0"
       stroke-linecap="butt"
       d="m761.769 275.4312l7.6743774 -5.864624l-9.648621 -0.4404297z"
       fill-rule="evenodd"
       id="path139" />
    <path
       fill="#000000"
       fill-opacity="0.0"
       d="m290.2231 303.0315l490.46457 134.37534"
       fill-rule="nonzero"
       id="path141" />
    <path
       stroke="#666666"
       stroke-width="2.0"
       stroke-linejoin="round"
       stroke-linecap="butt"
       d="m290.22308 303.0315l478.8911 131.20447"
       fill-rule="evenodd"
       id="path143" />
    <path
       fill="#666666"
       stroke="#666666"
       stroke-width="2.0"
       stroke-linecap="butt"
       d="m768.2413 437.42203l9.626526 -0.78778076l-7.8807373 -5.58432z"
       fill-rule="evenodd"
       id="path145" />
  </g>
</svg>
