<?xml version="1.0" encoding="UTF-8" standalone="no"?>
<svg
   xmlns:dc="http://purl.org/dc/elements/1.1/"
   xmlns:cc="http://creativecommons.org/ns#"
   xmlns:rdf="http://www.w3.org/1999/02/22-rdf-syntax-ns#"
   xmlns:svg="http://www.w3.org/2000/svg"
   xmlns="http://www.w3.org/2000/svg"
   xmlns:sodipodi="http://sodipodi.sourceforge.net/DTD/sodipodi-0.dtd"
   xmlns:inkscape="http://www.inkscape.org/namespaces/inkscape"
   version="1.1"
   viewBox="0 0 814.15094 349.94351"
   stroke-miterlimit="10"
   id="svg2"
   inkscape:version="0.48.4 r9939"
   width="100%"
   height="100%"
   sodipodi:docname="centralized-vcs.svg"
   inkscape:export-filename="/home/nathan/devel/nasa/git-talk/img/centralized-vcs.svg.png"
   inkscape:export-xdpi="300"
   inkscape:export-ydpi="300"
   style="fill:none;stroke:none">
  <metadata
     id="metadata151">
    <rdf:RDF>
      <cc:Work
         rdf:about="">
        <dc:format>image/svg+xml</dc:format>
        <dc:type
           rdf:resource="http://purl.org/dc/dcmitype/StillImage" />
        <dc:title></dc:title>
      </cc:Work>
    </rdf:RDF>
  </metadata>
  <defs
     id="defs149" />
  <sodipodi:namedview
     pagecolor="#ffffff"
     bordercolor="#666666"
     borderopacity="1"
     objecttolerance="10"
     gridtolerance="10"
     guidetolerance="10"
     inkscape:pageopacity="0"
     inkscape:pageshadow="2"
     inkscape:window-width="1598"
     inkscape:window-height="866"
     id="namedview147"
     showgrid="false"
     inkscape:zoom="0.97011523"
     inkscape:cx="512.13976"
     inkscape:cy="149.0265"
     inkscape:window-x="0"
     inkscape:window-y="32"
     inkscape:window-maximized="0"
     inkscape:current-layer="g7"
     fit-margin-top="0"
     fit-margin-left="0"
     fit-margin-right="0"
     fit-margin-bottom="0" />
  <clipPath
     id="g358aeef41_05.0">
    <path
       d="M 0,0 960,0 960,540 0,540 0,0 z"
       clip-rule="nonzero"
       id="path5"
       inkscape:connector-curvature="0" />
  </clipPath>
  <g
     clip-path="url(#g358aeef41_05.0)"
     id="g7"
     transform="translate(-76.505339,-152.3065)">
    <path
       d="m 642.48816,191.19685 247.1759,0 0,310.04724 -247.1759,0 z"
       id="path15"
       inkscape:connector-curvature="0"
       style="fill:#cccccc;fill-rule:nonzero"
       sodipodi:nodetypes="ccccc" />
    <path
       d="m 642.48816,191.19685 247.1759,0 0,310.04724 -247.1759,0 z"
       id="path17"
       inkscape:connector-curvature="0"
       style="stroke:#666666;stroke-width:2;stroke-linecap:butt;stroke-linejoin:round"
       sodipodi:nodetypes="ccccc" />
    <path
       d="m 104.20998,153.30446 113.6693,0 0,66.29921 -113.6693,0 z"
       id="path23"
       inkscape:connector-curvature="0"
       style="fill:#cccccc;fill-rule:nonzero"
       sodipodi:nodetypes="ccccc" />
    <path
       d="m 104.20998,153.30446 113.6693,0 0,66.29921 -113.6693,0 z"
       id="path25"
       inkscape:connector-curvature="0"
       style="stroke:#666666;stroke-width:2;stroke-linecap:butt;stroke-linejoin:round"
       sodipodi:nodetypes="ccccc" />
    <path
       d="m 77.49606,244.59055 28.07664,-24.98688 112.30657,0 -28.07665,24.98688 z"
       id="path27"
       inkscape:connector-curvature="0"
       style="fill:#cccccc;fill-rule:nonzero"
       sodipodi:nodetypes="ccccc" />
    <path
       d="m 77.49606,244.59055 28.07664,-24.98688 112.30657,0 -28.07665,24.98688 z"
       id="path29"
       inkscape:connector-curvature="0"
       style="stroke:#666666;stroke-width:2;stroke-linecap:butt;stroke-linejoin:round"
       sodipodi:nodetypes="ccccc" />
    <path
       d="m 109.37795,160.18898 104.22048,0 0,45.66928 -104.22048,0 z"
       id="path31"
       inkscape:connector-curvature="0"
       style="fill:#434343;fill-rule:nonzero"
       sodipodi:nodetypes="ccccc" />
    <path
       d="m 109.37795,160.18898 104.22048,0 0,45.66928 -104.22048,0 z"
       id="path33"
       inkscape:connector-curvature="0"
       style="stroke:#666666;stroke-width:2;stroke-linecap:butt;stroke-linejoin:round"
       sodipodi:nodetypes="ccccc" />
    <path
       d="m 109.37795,163.63518 104.22048,0 0,38.77165 -104.22048,0 z"
       id="path35"
       inkscape:connector-curvature="0"
       style="fill:#000000;fill-opacity:0;fill-rule:nonzero"
       sodipodi:nodetypes="ccccc" />
    <path
       d="m 118.64358,176.3933 0.76563,0 0.96875,2.59375 0.20312,0.625 0.21875,-0.64063 0.95313,-2.57812 0.73437,0 -1.53125,3.92187 -0.78125,0 z m 6.10156,0.5625 -1.17187,0 0,-0.5625 1.85937,0 0,3.35937 1.15625,0 0,0.5625 -3.14062,0 0,-0.5625 1.29687,0 z m 0.23438,-2.20313 c 0.0729,1e-5 0.14062,0.0156 0.20312,0.0469 0.0729,0.0208 0.13021,0.0573 0.17188,0.10937 0.0521,0.0417 0.0885,0.099 0.10937,0.17188 0.0312,0.0625 0.0469,0.13021 0.0469,0.20312 0,0.0729 -0.0156,0.14063 -0.0469,0.20313 -0.0208,0.0625 -0.0573,0.11979 -0.10937,0.17187 -0.0417,0.0521 -0.099,0.0938 -0.17188,0.125 -0.0625,0.0208 -0.13021,0.0313 -0.20312,0.0312 -0.0729,10e-6 -0.14584,-0.0104 -0.21875,-0.0312 -0.0625,-0.0312 -0.11979,-0.0729 -0.17188,-0.125 -0.0417,-0.0521 -0.0781,-0.10937 -0.10937,-0.17187 -0.0208,-0.0625 -0.0312,-0.13021 -0.0312,-0.20313 0,-0.0729 0.0104,-0.14062 0.0312,-0.20312 0.0312,-0.0729 0.0677,-0.13021 0.10937,-0.17188 0.0521,-0.0521 0.10938,-0.0885 0.17188,-0.10937 0.0729,-0.0312 0.14583,-0.0469 0.21875,-0.0469 z m 10.37501,0.0469 -2.6875,6.35937 -0.64063,0 2.67188,-6.35937 z m 4.07031,2.14062 c 0.0729,0.0938 0.13021,0.20313 0.17187,0.32813 0.0417,0.11458 0.0625,0.24479 0.0625,0.39062 0,0.19792 -0.0417,0.38542 -0.125,0.5625 -0.0729,0.16667 -0.17708,0.31251 -0.3125,0.4375 -0.13541,0.11459 -0.29687,0.20313 -0.48437,0.26563 -0.1875,0.0625 -0.39584,0.0937 -0.625,0.0937 -0.15625,0 -0.30729,-0.0156 -0.45313,-0.0469 -0.14583,-0.0312 -0.26041,-0.0729 -0.34375,-0.125 -0.0521,0.0729 -0.0937,0.14063 -0.125,0.20313 -0.0312,0.0625 -0.0469,0.13542 -0.0469,0.21875 0,0.0937 0.0469,0.17708 0.14062,0.25 0.0937,0.0625 0.21875,0.0937 0.375,0.0937 l 1.03125,0.0469 c 0.19792,1e-5 0.38021,0.026 0.54688,0.0781 0.16666,0.0417 0.30729,0.10417 0.42187,0.1875 0.11459,0.0833 0.20313,0.1875 0.26563,0.3125 0.0729,0.125 0.10937,0.26563 0.10937,0.42187 0,0.17709 -0.0365,0.34376 -0.10937,0.5 -0.0729,0.15626 -0.19271,0.29167 -0.35938,0.40625 -0.15625,0.12501 -0.35416,0.21876 -0.59375,0.28125 -0.23958,0.0729 -0.52604,0.10938 -0.85937,0.10938 -0.32292,0 -0.59375,-0.026 -0.8125,-0.0781 -0.21875,-0.0521 -0.40104,-0.12499 -0.54688,-0.21875 -0.14583,-0.0833 -0.25,-0.18749 -0.3125,-0.3125 -0.0625,-0.12499 -0.0937,-0.26041 -0.0937,-0.40625 0,-0.18749 0.0417,-0.35416 0.125,-0.5 0.0937,-0.14583 0.22917,-0.28645 0.40625,-0.42187 -0.0625,-0.0312 -0.11979,-0.0677 -0.17187,-0.10938 -0.0521,-0.0521 -0.0937,-0.10416 -0.125,-0.15625 -0.0312,-0.0521 -0.0573,-0.10937 -0.0781,-0.17187 -0.0104,-0.0625 -0.0156,-0.125 -0.0156,-0.1875 0,-0.16667 0.0417,-0.31771 0.125,-0.45313 0.0833,-0.14583 0.17708,-0.28124 0.28125,-0.40625 -0.0521,-0.0625 -0.099,-0.11979 -0.14063,-0.17187 l -0.0937,-0.1875 -0.0625,-0.21875 c -0.0104,-0.0833 -0.0156,-0.17187 -0.0156,-0.26563 0,-0.20833 0.0365,-0.39583 0.10937,-0.5625 0.0729,-0.16666 0.17709,-0.30729 0.3125,-0.42187 0.13542,-0.125 0.29688,-0.21875 0.48438,-0.28125 0.1875,-0.0729 0.39583,-0.10937 0.625,-0.10938 0.10416,1e-5 0.19791,0.0104 0.28125,0.0312 0.0937,0.0104 0.17187,0.026 0.23437,0.0469 l 1.42188,0 0,0.54687 z m -2.35938,3.9375 c 0,0.18751 0.0937,0.32292 0.28125,0.40625 0.19792,0.0833 0.46875,0.12501 0.8125,0.125 0.21875,1e-5 0.40104,-0.0208 0.54688,-0.0625 0.14583,-0.0312 0.26041,-0.0781 0.34375,-0.14062 0.0937,-0.0625 0.16146,-0.13542 0.20312,-0.21875 0.0417,-0.0833 0.0625,-0.16667 0.0625,-0.25 0,-0.16667 -0.0677,-0.28646 -0.20312,-0.35938 -0.125,-0.0729 -0.32292,-0.11979 -0.59375,-0.14062 l -1.03125,-0.0312 c -0.0833,0.0625 -0.15625,0.11979 -0.21875,0.17187 -0.0521,0.0521 -0.0937,0.10417 -0.125,0.15625 -0.0312,0.0625 -0.0521,0.1198 -0.0625,0.17188 -0.0104,0.0625 -0.0156,0.11979 -0.0156,0.17187 z m 0.20313,-3.20312 c 0,0.125 0.0208,0.23958 0.0625,0.34375 0.0417,0.10417 0.099,0.19271 0.17187,0.26562 0.0833,0.0729 0.17188,0.13021 0.26563,0.17188 0.10416,0.0417 0.21875,0.0625 0.34375,0.0625 0.13541,0 0.25521,-0.0208 0.35937,-0.0625 0.11459,-0.0521 0.20313,-0.11458 0.26563,-0.1875 0.0729,-0.0833 0.13021,-0.17708 0.17187,-0.28125 0.0417,-0.10417 0.0625,-0.20833 0.0625,-0.3125 0,-0.125 -0.0208,-0.23958 -0.0625,-0.34375 -0.0417,-0.10417 -0.10416,-0.19271 -0.1875,-0.26563 -0.0729,-0.0729 -0.16146,-0.1302 -0.26562,-0.17187 -0.10417,-0.0417 -0.21875,-0.0625 -0.34375,-0.0625 -0.13542,0 -0.25521,0.026 -0.35938,0.0781 -0.10416,0.0417 -0.19271,0.10417 -0.26562,0.1875 -0.0729,0.0729 -0.13021,0.16146 -0.17188,0.26563 -0.0312,0.0937 -0.0469,0.19792 -0.0469,0.3125 z m 3.88281,-1.28125 0.625,0 0.0156,0.71875 c 0.23958,-0.28125 0.46875,-0.48437 0.6875,-0.60938 0.22916,-0.12499 0.45833,-0.18749 0.6875,-0.1875 0.40625,1e-5 0.71354,0.13542 0.92187,0.40625 0.20833,0.26042 0.30729,0.65105 0.29688,1.17188 l -0.6875,0 c 0,-0.34375 -0.0521,-0.59375 -0.15625,-0.75 -0.10417,-0.15625 -0.26042,-0.23437 -0.46875,-0.23438 -0.0937,1e-5 -0.1875,0.0156 -0.28125,0.0469 -0.0937,0.0312 -0.19271,0.0833 -0.29688,0.15625 -0.0937,0.0729 -0.19792,0.16667 -0.3125,0.28125 -0.10417,0.10417 -0.21875,0.23958 -0.34375,0.40625 l 0,2.51562 -0.6875,0 z m 7.55469,1.75 0,0.25 c 0,0.0625 -0.005,0.11979 -0.0156,0.17187 l -2.75,0 c 0,0.40626 0.10938,0.71876 0.32813,0.9375 0.22916,0.20834 0.55208,0.31251 0.96875,0.3125 0.11458,1e-5 0.22916,-0.005 0.34375,-0.0156 0.11458,-0.0104 0.22396,-0.0208 0.32812,-0.0312 0.11459,-0.0208 0.21875,-0.0365 0.3125,-0.0469 0.10417,-0.0208 0.19792,-0.0469 0.28125,-0.0781 l 0,0.5625 c -0.1875,0.0521 -0.40104,0.0937 -0.64062,0.125 -0.22917,0.0417 -0.46875,0.0625 -0.71875,0.0625 -0.33334,0 -0.625,-0.0469 -0.875,-0.14063 -0.23959,-0.0937 -0.4375,-0.22395 -0.59375,-0.39062 -0.14584,-0.17708 -0.26042,-0.39062 -0.34375,-0.64063 -0.0729,-0.26041 -0.10938,-0.54687 -0.10938,-0.85937 0,-0.28125 0.0417,-0.54167 0.125,-0.78125 0.0833,-0.25 0.19792,-0.46875 0.34375,-0.65625 0.15625,-0.1875 0.34375,-0.33333 0.5625,-0.4375 0.21875,-0.11458 0.46875,-0.17187 0.75,-0.17188 0.28125,1e-5 0.52604,0.0469 0.73438,0.14063 0.20833,0.0833 0.38541,0.20313 0.53125,0.35937 0.14583,0.15626 0.25521,0.34896 0.32812,0.57813 0.0729,0.21875 0.10938,0.46875 0.10938,0.75 z m -0.70313,-0.0937 c 0.0104,-0.17708 -0.005,-0.33854 -0.0469,-0.48438 -0.0417,-0.14583 -0.10938,-0.27083 -0.20313,-0.375 -0.0833,-0.10416 -0.19271,-0.18229 -0.32812,-0.23437 -0.125,-0.0625 -0.27604,-0.0937 -0.45313,-0.0937 -0.14583,0 -0.28125,0.0312 -0.40625,0.0937 -0.11458,0.0521 -0.21875,0.13021 -0.3125,0.23437 -0.0833,0.10417 -0.15625,0.22917 -0.21875,0.375 -0.0521,0.14584 -0.0833,0.3073 -0.0937,0.48438 z m 4.30469,2.26562 -0.0156,-0.53125 c -0.20834,0.20834 -0.42188,0.36459 -0.64063,0.46875 -0.21875,0.0938 -0.45312,0.14063 -0.70312,0.14063 -0.21875,0 -0.41146,-0.0312 -0.57813,-0.0937 -0.15625,-0.0625 -0.28646,-0.14062 -0.39062,-0.23438 -0.0937,-0.10416 -0.16667,-0.22395 -0.21875,-0.35937 -0.0521,-0.13542 -0.0781,-0.28125 -0.0781,-0.4375 0,-0.39583 0.14583,-0.70312 0.4375,-0.92188 0.30208,-0.22916 0.73958,-0.34374 1.3125,-0.34375 l 0.8125,0 0,-0.34375 c 0,-0.22916 -0.0781,-0.41145 -0.23437,-0.54687 -0.14584,-0.14583 -0.3698,-0.21875 -0.67188,-0.21875 -0.21875,0 -0.4375,0.026 -0.65625,0.0781 -0.21875,0.0521 -0.44271,0.12501 -0.67187,0.21875 l 0,-0.625 c 0.0937,-0.0312 0.1927,-0.0573 0.29687,-0.0781 0.10417,-0.0312 0.21354,-0.0573 0.32813,-0.0781 0.11458,-0.0312 0.23437,-0.0521 0.35937,-0.0625 0.13542,-0.0208 0.26563,-0.0312 0.39063,-0.0312 0.23958,1e-5 0.45312,0.026 0.64062,0.0781 0.19792,0.0521 0.35938,0.13542 0.48438,0.25 0.13541,0.10417 0.23437,0.23958 0.29687,0.40625 0.0729,0.15625 0.10938,0.34375 0.10938,0.5625 l 0,2.70312 z m -0.0625,-1.78125 -0.875,0 c -0.16667,1e-5 -0.3125,0.0156 -0.4375,0.0469 -0.11458,0.0312 -0.21354,0.0781 -0.29687,0.14062 -0.0729,0.0625 -0.13021,0.14063 -0.17188,0.23438 -0.0417,0.0833 -0.0625,0.17708 -0.0625,0.28125 0,0.0833 0.0104,0.16146 0.0312,0.23437 0.0312,0.0625 0.0729,0.1198 0.125,0.17188 0.0521,0.0521 0.11979,0.0937 0.20313,0.125 0.0833,0.0312 0.18229,0.0469 0.29687,0.0469 0.15625,1e-5 0.33333,-0.0469 0.53125,-0.14062 0.20833,-0.0937 0.42708,-0.24479 0.65625,-0.45313 z m 5.10156,1.71875 c -0.14583,0.0417 -0.30208,0.0729 -0.46875,0.0937 -0.16666,0.0208 -0.33333,0.0313 -0.5,0.0312 -0.48958,10e-6 -0.85937,-0.10937 -1.10937,-0.32812 -0.23959,-0.22917 -0.35938,-0.57812 -0.35938,-1.04688 l 0,-2.04687 -1.09375,0 0,-0.5625 1.09375,0 0,-1.07813 0.6875,-0.17187 0,1.25 1.75,0 0,0.5625 -1.75,0 0,2 c 0,0.28125 0.0729,0.49479 0.21875,0.64062 0.14584,0.13542 0.36459,0.20313 0.65625,0.20313 0.125,0 0.26042,-0.0104 0.40625,-0.0312 0.15625,-0.0208 0.3125,-0.0521 0.46875,-0.0937 z m 4.39844,-5.45312 -2.6875,6.35937 -0.64062,0 2.67187,-6.35937 z m 4.60156,3.48437 c 0,0.34376 -0.0521,0.64584 -0.15625,0.90625 -0.0937,0.26042 -0.22916,0.47917 -0.40625,0.65625 -0.16666,0.16667 -0.36979,0.29688 -0.60937,0.39063 -0.22917,0.0833 -0.47917,0.125 -0.75,0.125 -0.125,0 -0.25,-0.005 -0.375,-0.0156 -0.125,-0.0104 -0.25,-0.0365 -0.375,-0.0781 l 0,1.65625 -0.6875,0 0,-5.53125 0.60937,0 0.0469,0.65625 c 0.1875,-0.27083 0.39062,-0.45833 0.60937,-0.5625 0.22917,-0.11458 0.47396,-0.17187 0.73438,-0.17188 0.21875,1e-5 0.41146,0.0469 0.57812,0.14063 0.17709,0.0937 0.32292,0.22917 0.4375,0.40625 0.11459,0.16667 0.19792,0.36979 0.25,0.60937 0.0625,0.23959 0.0937,0.51042 0.0937,0.8125 z m -0.70312,0.0312 c 0,-0.20833 -0.0156,-0.39583 -0.0469,-0.5625 -0.0312,-0.17708 -0.0781,-0.32291 -0.14062,-0.4375 -0.0625,-0.12499 -0.14584,-0.22395 -0.25,-0.29687 -0.10417,-0.0729 -0.22396,-0.10937 -0.35938,-0.10938 -0.0833,1e-5 -0.17187,0.0156 -0.26562,0.0469 -0.0833,0.0312 -0.17709,0.0781 -0.28125,0.14062 -0.0937,0.0625 -0.19271,0.14584 -0.29688,0.25 -0.10416,0.10417 -0.21354,0.23438 -0.32812,0.39063 l 0,1.90625 c 0.125,0.0521 0.25521,0.0937 0.39062,0.125 0.13542,0.0312 0.27084,0.0469 0.40625,0.0469 0.36459,1e-5 0.65104,-0.12499 0.85938,-0.375 0.20833,-0.24999 0.3125,-0.62499 0.3125,-1.125 z m 1.89844,-1.92187 0.625,0 0.0156,0.71875 c 0.23958,-0.28125 0.46875,-0.48437 0.6875,-0.60938 0.22917,-0.12499 0.45833,-0.18749 0.6875,-0.1875 0.40625,1e-5 0.71354,0.13542 0.92188,0.40625 0.20833,0.26042 0.30729,0.65105 0.29687,1.17188 l -0.6875,0 c 0,-0.34375 -0.0521,-0.59375 -0.15625,-0.75 -0.10417,-0.15625 -0.26042,-0.23437 -0.46875,-0.23438 -0.0937,1e-5 -0.1875,0.0156 -0.28125,0.0469 -0.0937,0.0312 -0.19271,0.0833 -0.29687,0.15625 -0.0937,0.0729 -0.19792,0.16667 -0.3125,0.28125 -0.10417,0.10417 -0.21875,0.23958 -0.34375,0.40625 l 0,2.51562 -0.6875,0 z m 7.66406,1.92187 c 0,0.31251 -0.0469,0.59376 -0.14063,0.84375 -0.0833,0.25001 -0.20833,0.46876 -0.375,0.65625 -0.15625,0.17709 -0.34896,0.31771 -0.57812,0.42188 -0.22917,0.10417 -0.49479,0.15625 -0.79688,0.15625 -0.28125,0 -0.53125,-0.0417 -0.75,-0.125 -0.21875,-0.0937 -0.40625,-0.22396 -0.5625,-0.39063 -0.15625,-0.17708 -0.27604,-0.39062 -0.35937,-0.64062 -0.0833,-0.25 -0.125,-0.53646 -0.125,-0.85938 0,-0.30208 0.0417,-0.57812 0.125,-0.82812 0.0937,-0.26042 0.21875,-0.47917 0.375,-0.65625 0.16666,-0.17708 0.36458,-0.31771 0.59375,-0.42188 0.22916,-0.10416 0.48958,-0.15624 0.78125,-0.15625 0.28125,1e-5 0.53125,0.0469 0.75,0.14063 0.22916,0.0833 0.42187,0.20833 0.57812,0.375 0.15625,0.16667 0.27604,0.375 0.35938,0.625 0.0833,0.25 0.125,0.53646 0.125,0.85937 z m -0.70313,0.0312 c 0,-0.23958 -0.026,-0.44791 -0.0781,-0.625 -0.0521,-0.18749 -0.13021,-0.33854 -0.23438,-0.45312 -0.0937,-0.125 -0.21354,-0.21875 -0.35937,-0.28125 -0.13542,-0.0625 -0.29167,-0.0937 -0.46875,-0.0937 -0.20834,0 -0.38542,0.0417 -0.53125,0.125 -0.13542,0.0833 -0.25,0.19271 -0.34375,0.32812 -0.0937,0.12501 -0.16146,0.27605 -0.20313,0.45313 -0.0417,0.17708 -0.0625,0.35938 -0.0625,0.54687 0,0.25001 0.026,0.46876 0.0781,0.65625 0.0521,0.17709 0.125,0.32813 0.21875,0.45313 0.10416,0.11458 0.22396,0.20313 0.35937,0.26562 0.14584,0.0625 0.30729,0.0938 0.48438,0.0937 0.19791,10e-6 0.36979,-0.0417 0.51562,-0.125 0.14584,-0.0833 0.26563,-0.18749 0.35938,-0.3125 0.0937,-0.13541 0.16146,-0.29166 0.20312,-0.46875 0.0417,-0.17708 0.0625,-0.36458 0.0625,-0.5625 z m 4.33594,-1.95312 0,3.84375 c 0,0.28125 -0.0417,0.52604 -0.125,0.73437 -0.0729,0.21876 -0.18229,0.40105 -0.32812,0.54688 -0.14584,0.14583 -0.32813,0.25521 -0.54688,0.32812 -0.20833,0.0729 -0.44271,0.10938 -0.70312,0.10938 -0.19792,0 -0.39063,-0.0208 -0.57813,-0.0625 -0.17708,-0.0312 -0.33854,-0.0781 -0.48437,-0.14063 l 0,-0.64062 c 0.0833,0.0417 0.16666,0.0781 0.25,0.10937 0.0937,0.0313 0.1875,0.0573 0.28125,0.0781 0.10416,0.0312 0.20312,0.0521 0.29687,0.0625 0.10417,0.0104 0.20313,0.0156 0.29688,0.0156 0.30208,1e-5 0.53645,-0.0937 0.70312,-0.28125 0.16667,-0.18749 0.25,-0.46354 0.25,-0.82812 l 0,-3.3125 -1.92187,0 0,-0.5625 z m -0.40625,-1.64063 c 0.0729,10e-6 0.14063,0.0156 0.20313,0.0469 0.0729,0.0208 0.1302,0.0573 0.17187,0.10937 0.0521,0.0417 0.0885,0.099 0.10938,0.17188 0.0312,0.0625 0.0469,0.13021 0.0469,0.20312 0,0.0729 -0.0156,0.14063 -0.0469,0.20313 -0.0208,0.0625 -0.0573,0.11979 -0.10938,0.17187 -0.0417,0.0521 -0.099,0.0938 -0.17187,0.125 -0.0625,0.0208 -0.13021,0.0313 -0.20313,0.0312 -0.0729,1e-5 -0.14583,-0.0104 -0.21875,-0.0312 -0.0625,-0.0312 -0.11979,-0.0729 -0.17187,-0.125 -0.0417,-0.0521 -0.0781,-0.10937 -0.10938,-0.17187 -0.0208,-0.0625 -0.0312,-0.13021 -0.0312,-0.20313 0,-0.0729 0.0104,-0.14062 0.0312,-0.20312 0.0312,-0.0729 0.0677,-0.13021 0.10938,-0.17188 0.0521,-0.0521 0.10937,-0.0885 0.17187,-0.10937 0.0729,-0.0312 0.14583,-0.0469 0.21875,-0.0469 z m 5.46094,3.39063 0,0.25 c 0,0.0625 -0.005,0.11979 -0.0156,0.17187 l -2.75,0 c 0,0.40626 0.10938,0.71876 0.32813,0.9375 0.22916,0.20834 0.55208,0.31251 0.96875,0.3125 0.11458,10e-6 0.22916,-0.005 0.34375,-0.0156 0.11458,-0.0104 0.22396,-0.0208 0.32812,-0.0312 0.11459,-0.0208 0.21875,-0.0365 0.3125,-0.0469 0.10417,-0.0208 0.19792,-0.0469 0.28125,-0.0781 l 0,0.5625 c -0.1875,0.0521 -0.40104,0.0937 -0.64062,0.125 -0.22917,0.0417 -0.46875,0.0625 -0.71875,0.0625 -0.33334,0 -0.625,-0.0469 -0.875,-0.14063 -0.23959,-0.0937 -0.4375,-0.22395 -0.59375,-0.39062 -0.14584,-0.17708 -0.26042,-0.39062 -0.34375,-0.64063 -0.0729,-0.26041 -0.10938,-0.54687 -0.10938,-0.85937 0,-0.28125 0.0417,-0.54167 0.125,-0.78125 0.0833,-0.25 0.19792,-0.46875 0.34375,-0.65625 0.15625,-0.1875 0.34375,-0.33333 0.5625,-0.4375 0.21875,-0.11458 0.46875,-0.17187 0.75,-0.17188 0.28125,1e-5 0.52604,0.0469 0.73438,0.14063 0.20833,0.0833 0.38541,0.20313 0.53125,0.35937 0.14583,0.15626 0.25521,0.34896 0.32812,0.57813 0.0729,0.21875 0.10938,0.46875 0.10938,0.75 z m -0.70313,-0.0937 c 0.0104,-0.17708 -0.005,-0.33854 -0.0469,-0.48438 -0.0417,-0.14583 -0.10938,-0.27083 -0.20313,-0.375 -0.0833,-0.10416 -0.19271,-0.18229 -0.32812,-0.23437 -0.125,-0.0625 -0.27604,-0.0937 -0.45313,-0.0937 -0.14583,0 -0.28125,0.0312 -0.40625,0.0937 -0.11458,0.0521 -0.21875,0.13021 -0.3125,0.23437 -0.0833,0.10417 -0.15625,0.22917 -0.21875,0.375 -0.0521,0.14584 -0.0833,0.3073 -0.0937,0.48438 z m 4.83594,2.125 c -0.17708,0.0625 -0.35937,0.10938 -0.54687,0.14062 -0.1875,0.0417 -0.38021,0.0625 -0.57813,0.0625 -0.61458,1e-5 -1.08854,-0.16666 -1.42187,-0.5 -0.33334,-0.34374 -0.5,-0.83854 -0.5,-1.48437 0,-0.3125 0.0469,-0.59375 0.14062,-0.84375 0.0937,-0.25 0.22917,-0.46354 0.40625,-0.64063 0.17708,-0.18749 0.38542,-0.32812 0.625,-0.42187 0.23958,-0.10417 0.50521,-0.15625 0.79688,-0.15625 0.20833,0 0.40104,0.0156 0.57812,0.0469 0.17708,0.0313 0.34375,0.0781 0.5,0.14063 l 0,0.65625 c -0.16667,-0.0937 -0.33854,-0.16146 -0.51562,-0.20313 -0.17709,-0.0417 -0.35938,-0.0625 -0.54688,-0.0625 -0.17708,1e-5 -0.34375,0.0365 -0.5,0.10938 -0.14583,0.0625 -0.28125,0.15625 -0.40625,0.28125 -0.11458,0.125 -0.20833,0.28125 -0.28125,0.46875 -0.0625,0.17708 -0.0937,0.375 -0.0937,0.59375 0,0.47917 0.11458,0.83854 0.34375,1.07812 0.22917,0.22917 0.55208,0.34376 0.96875,0.34375 0.17708,1e-5 0.35417,-0.0208 0.53125,-0.0625 0.17708,-0.0417 0.34375,-0.10416 0.5,-0.1875 z m 4.50781,0.0781 c -0.14583,0.0417 -0.30208,0.0729 -0.46875,0.0937 -0.16666,0.0208 -0.33333,0.0313 -0.5,0.0312 -0.48958,1e-5 -0.85937,-0.10937 -1.10937,-0.32812 -0.23959,-0.22917 -0.35938,-0.57812 -0.35938,-1.04688 l 0,-2.04687 -1.09375,0 0,-0.5625 1.09375,0 0,-1.07813 0.6875,-0.17187 0,1.25 1.75,0 0,0.5625 -1.75,0 0,2 c 0,0.28125 0.0729,0.49479 0.21875,0.64062 0.14584,0.13542 0.36459,0.20313 0.65625,0.20313 0.125,0 0.26042,-0.0104 0.40625,-0.0312 0.15625,-0.0208 0.3125,-0.0521 0.46875,-0.0937 z"
       id="path37"
       inkscape:connector-curvature="0"
       style="fill:#000000;fill-rule:nonzero"
       sodipodi:nodetypes="cccccccccccccccccccccscccscccscccscscscccccccsccssscssccccscssccsscsscccscscccccssccscccccscsccssccccccsscccsccssscsscccsccscscccssscsccccsscccsscccccscccscccscscscsccscccccccccccsscscscsscccccscccscccscscscsssccccsscsccccccccccscsccccccscscsssscccccccscccssccssccsccssssccccssccssscsccccsccssscssccsscsssscccsscsscccsscsscscscsccccccsssccccscccscscscccscscssscccsccccccscccscccscscscsccscccccccscssccssccsscccscsscccsscsccccccccccscsccccscsccc" />
    <path
       d="m 657.9895,222.2021 215.30707,0 0,80.0945 -215.30707,0 z"
       id="path39"
       inkscape:connector-curvature="0"
       style="fill:#d9d9d9;fill-rule:nonzero"
       sodipodi:nodetypes="ccccc" />
    <path
       d="m 657.9895,222.2021 215.30707,0 0,80.0945 -215.30707,0 z"
       id="path41"
       inkscape:connector-curvature="0"
       style="stroke:#666666;stroke-width:2;stroke-linecap:butt;stroke-linejoin:round"
       sodipodi:nodetypes="ccccc" />
    <path
       d="m 657.9895,317.53018 215.30707,0 0,80.09448 -215.30707,0 z"
       id="path43"
       inkscape:connector-curvature="0"
       style="fill:#d9d9d9;fill-rule:nonzero"
       sodipodi:nodetypes="ccccc" />
    <path
       d="m 657.9895,317.53018 215.30707,0 0,80.09448 -215.30707,0 z"
       id="path45"
       inkscape:connector-curvature="0"
       style="stroke:#666666;stroke-width:2;stroke-linecap:butt;stroke-linejoin:round"
       sodipodi:nodetypes="ccccc" />
    <path
       d="m 658.42255,412.85828 215.30713,0 0,80.09448 -215.30713,0 z"
       id="path47"
       inkscape:connector-curvature="0"
       style="fill:#d9d9d9;fill-rule:nonzero"
       sodipodi:nodetypes="ccccc" />
    <path
       d="m 658.42255,412.85828 215.30713,0 0,80.09448 -215.30713,0 z"
       id="path49"
       inkscape:connector-curvature="0"
       style="stroke:#666666;stroke-width:2;stroke-linecap:butt;stroke-linejoin:round"
       sodipodi:nodetypes="ccccc" />
    <path
       d="m 664.0184,232.53543 35.30707,0 0,36.15747 -35.30707,0 z"
       id="path51"
       inkscape:connector-curvature="0"
       style="fill:#ffe599;fill-rule:nonzero"
       sodipodi:nodetypes="ccccc" />
    <path
       d="m 664.0184,232.53543 35.30707,0 0,36.15747 -35.30707,0 z"
       id="path53"
       inkscape:connector-curvature="0"
       style="stroke:#666666;stroke-width:2;stroke-linecap:butt;stroke-linejoin:round"
       sodipodi:nodetypes="ccccc" />
    <path
       d="m 709.2992,232.53543 35.30713,0 0,36.15747 -35.30713,0 z"
       id="path55"
       inkscape:connector-curvature="0"
       style="fill:#d5a6bd;fill-rule:nonzero"
       sodipodi:nodetypes="ccccc" />
    <path
       d="m 709.2992,232.53543 35.30713,0 0,36.15747 -35.30713,0 z"
       id="path57"
       inkscape:connector-curvature="0"
       style="stroke:#666666;stroke-width:2;stroke-linecap:butt;stroke-linejoin:round"
       sodipodi:nodetypes="ccccc" />
    <path
       d="m 754.5801,232.53543 35.30707,0 0,36.15747 -35.30707,0 z"
       id="path59"
       inkscape:connector-curvature="0"
       style="fill:#a4c2f4;fill-rule:nonzero"
       sodipodi:nodetypes="ccccc" />
    <path
       d="m 754.5801,232.53543 35.30707,0 0,36.15747 -35.30707,0 z"
       id="path61"
       inkscape:connector-curvature="0"
       style="stroke:#666666;stroke-width:2;stroke-linecap:butt;stroke-linejoin:round"
       sodipodi:nodetypes="ccccc" />
    <path
       d="m 664.0184,327.90552 35.30707,0 0,36.15747 -35.30707,0 z"
       id="path63"
       inkscape:connector-curvature="0"
       style="fill:#dd7e6b;fill-rule:nonzero"
       sodipodi:nodetypes="ccccc" />
    <path
       d="m 664.0184,327.90552 35.30707,0 0,36.15747 -35.30707,0 z"
       id="path65"
       inkscape:connector-curvature="0"
       style="stroke:#666666;stroke-width:2;stroke-linecap:butt;stroke-linejoin:round"
       sodipodi:nodetypes="ccccc" />
    <path
       d="m 709.2992,327.90552 35.30713,0 0,36.15747 -35.30713,0 z"
       id="path67"
       inkscape:connector-curvature="0"
       style="fill:#ea9999;fill-rule:nonzero"
       sodipodi:nodetypes="ccccc" />
    <path
       d="m 709.2992,327.90552 35.30713,0 0,36.15747 -35.30713,0 z"
       id="path69"
       inkscape:connector-curvature="0"
       style="stroke:#666666;stroke-width:2;stroke-linecap:butt;stroke-linejoin:round"
       sodipodi:nodetypes="ccccc" />
    <path
       d="m 829.28345,419.3281 35.30713,0 0,36.15747 -35.30713,0 z"
       id="path71"
       inkscape:connector-curvature="0"
       style="fill:#ffe599;fill-rule:nonzero"
       sodipodi:nodetypes="ccccc" />
    <path
       d="m 829.28345,419.3281 35.30713,0 0,36.15747 -35.30713,0 z"
       id="path73"
       inkscape:connector-curvature="0"
       style="stroke:#666666;stroke-width:2;stroke-linecap:butt;stroke-linejoin:round"
       sodipodi:nodetypes="ccccc" />
    <path
       d="m 780.6877,419.3281 35.30707,0 0,36.15747 -35.30707,0 z"
       id="path75"
       inkscape:connector-curvature="0"
       style="fill:#b6d7a8;fill-rule:nonzero"
       sodipodi:nodetypes="ccccc" />
    <path
       d="m 780.6877,419.3281 35.30707,0 0,36.15747 -35.30707,0 z"
       id="path77"
       inkscape:connector-curvature="0"
       style="stroke:#666666;stroke-width:2;stroke-linecap:butt;stroke-linejoin:round"
       sodipodi:nodetypes="ccccc" />
    <path
       d="m 176.5538,386.46194 113.66931,0 0,66.29922 -113.66931,0 z"
       id="path79"
       inkscape:connector-curvature="0"
       style="fill:#cccccc;fill-rule:nonzero"
       sodipodi:nodetypes="ccccc" />
    <path
       d="m 176.5538,386.46194 113.66931,0 0,66.29922 -113.66931,0 z"
       id="path81"
       inkscape:connector-curvature="0"
       style="stroke:#666666;stroke-width:2;stroke-linecap:butt;stroke-linejoin:round"
       sodipodi:nodetypes="ccccc" />
    <path
       d="m 149.83989,477.74802 28.07664,-24.98685 112.30658,0 -28.07666,24.98685 z"
       id="path83"
       inkscape:connector-curvature="0"
       style="fill:#cccccc;fill-rule:nonzero"
       sodipodi:nodetypes="ccccc" />
    <path
       d="m 149.83989,477.74802 28.07664,-24.98685 112.30658,0 -28.07666,24.98685 z"
       id="path85"
       inkscape:connector-curvature="0"
       style="stroke:#666666;stroke-width:2;stroke-linecap:butt;stroke-linejoin:round"
       sodipodi:nodetypes="ccccc" />
    <path
       d="m 181.72179,393.34647 104.22047,0 0,45.66928 -104.22047,0 z"
       id="path87"
       inkscape:connector-curvature="0"
       style="fill:#434343;fill-rule:nonzero"
       sodipodi:nodetypes="ccccc" />
    <path
       d="m 181.72179,393.34647 104.22047,0 0,45.66928 -104.22047,0 z"
       id="path89"
       inkscape:connector-curvature="0"
       style="stroke:#666666;stroke-width:2;stroke-linecap:butt;stroke-linejoin:round"
       sodipodi:nodetypes="ccccc" />
    <path
       d="m 181.72179,396.79266 104.22047,0 0,38.77164 -104.22047,0 z"
       id="path91"
       inkscape:connector-curvature="0"
       style="fill:#000000;fill-opacity:0;fill-rule:nonzero"
       sodipodi:nodetypes="ccccc" />
    <path
       d="m 194.00304,409.55078 0,3.84375 c 0,0.28125 -0.0417,0.52604 -0.125,0.73437 -0.0729,0.21875 -0.18229,0.40105 -0.32813,0.54688 -0.14583,0.14583 -0.32812,0.25521 -0.54687,0.32812 -0.20833,0.0729 -0.44271,0.10938 -0.70313,0.10938 -0.19791,0 -0.39062,-0.0208 -0.57812,-0.0625 -0.17708,-0.0312 -0.33854,-0.0781 -0.48438,-0.14063 l 0,-0.64062 c 0.0833,0.0417 0.16667,0.0781 0.25,0.10937 0.0937,0.0312 0.1875,0.0573 0.28125,0.0781 0.10417,0.0312 0.20313,0.0521 0.29688,0.0625 0.10417,0.0104 0.20312,0.0156 0.29687,0.0156 0.30209,0 0.53646,-0.0937 0.70313,-0.28125 0.16667,-0.1875 0.25,-0.46354 0.25,-0.82812 l 0,-3.3125 -1.92188,0 0,-0.5625 z m -0.40625,-1.64063 c 0.0729,0 0.14062,0.0156 0.20312,0.0469 0.0729,0.0208 0.13021,0.0573 0.17188,0.10937 0.0521,0.0417 0.0885,0.099 0.10937,0.17188 0.0312,0.0625 0.0469,0.13021 0.0469,0.20312 0,0.0729 -0.0156,0.14063 -0.0469,0.20313 -0.0208,0.0625 -0.0573,0.11979 -0.10937,0.17187 -0.0417,0.0521 -0.099,0.0937 -0.17188,0.125 -0.0625,0.0208 -0.1302,0.0312 -0.20312,0.0312 -0.0729,0 -0.14583,-0.0104 -0.21875,-0.0312 -0.0625,-0.0312 -0.11979,-0.0729 -0.17188,-0.125 -0.0417,-0.0521 -0.0781,-0.10937 -0.10937,-0.17187 -0.0208,-0.0625 -0.0312,-0.13021 -0.0312,-0.20313 0,-0.0729 0.0104,-0.14062 0.0312,-0.20312 0.0312,-0.0729 0.0677,-0.13021 0.10937,-0.17188 0.0521,-0.0521 0.10938,-0.0885 0.17188,-0.10937 0.0729,-0.0312 0.14583,-0.0469 0.21875,-0.0469 z m 4.66406,5.5625 -0.0156,-0.53125 c -0.20834,0.20834 -0.42188,0.36459 -0.64063,0.46875 -0.21875,0.0937 -0.45312,0.14063 -0.70312,0.14063 -0.21875,0 -0.41146,-0.0312 -0.57813,-0.0937 -0.15625,-0.0625 -0.28646,-0.14063 -0.39062,-0.23438 -0.0937,-0.10416 -0.16667,-0.22395 -0.21875,-0.35937 -0.0521,-0.13542 -0.0781,-0.28125 -0.0781,-0.4375 0,-0.39583 0.14584,-0.70313 0.4375,-0.92188 0.30209,-0.22916 0.73959,-0.34375 1.3125,-0.34375 l 0.8125,0 0,-0.34375 c 0,-0.22916 -0.0781,-0.41145 -0.23437,-0.54687 -0.14584,-0.14583 -0.36979,-0.21875 -0.67188,-0.21875 -0.21875,0 -0.4375,0.026 -0.65625,0.0781 -0.21875,0.0521 -0.44271,0.125 -0.67187,0.21875 l 0,-0.625 c 0.0937,-0.0312 0.19271,-0.0573 0.29687,-0.0781 0.10417,-0.0312 0.21354,-0.0573 0.32813,-0.0781 0.11458,-0.0312 0.23437,-0.0521 0.35937,-0.0625 0.13542,-0.0208 0.26563,-0.0312 0.39063,-0.0312 0.23958,0 0.45312,0.026 0.64062,0.0781 0.19792,0.0521 0.35938,0.13542 0.48438,0.25 0.13541,0.10417 0.23437,0.23958 0.29687,0.40625 0.0729,0.15625 0.10938,0.34375 0.10938,0.5625 l 0,2.70312 z m -0.0625,-1.78125 -0.875,0 c -0.16666,0 -0.3125,0.0156 -0.4375,0.0469 -0.11458,0.0312 -0.21354,0.0781 -0.29687,0.14062 -0.0729,0.0625 -0.13021,0.14063 -0.17188,0.23438 -0.0417,0.0833 -0.0625,0.17708 -0.0625,0.28125 0,0.0833 0.0104,0.16146 0.0312,0.23437 0.0312,0.0625 0.0729,0.1198 0.125,0.17188 0.0521,0.0521 0.11979,0.0937 0.20313,0.125 0.0833,0.0312 0.18229,0.0469 0.29687,0.0469 0.15625,0 0.33334,-0.0469 0.53125,-0.14062 0.20834,-0.0937 0.42709,-0.24479 0.65625,-0.45313 z m 1.58594,-2.14062 0.76562,0 0.96875,2.59375 0.20313,0.625 0.21875,-0.64063 0.95312,-2.57812 0.73438,0 -1.53125,3.92187 -0.78125,0 z m 7.27344,3.92187 -0.0156,-0.53125 c -0.20833,0.20834 -0.42187,0.36459 -0.64062,0.46875 -0.21875,0.0937 -0.45313,0.14063 -0.70313,0.14063 -0.21875,0 -0.41146,-0.0312 -0.57812,-0.0937 -0.15625,-0.0625 -0.28646,-0.14063 -0.39063,-0.23438 -0.0937,-0.10416 -0.16666,-0.22395 -0.21875,-0.35937 -0.0521,-0.13542 -0.0781,-0.28125 -0.0781,-0.4375 0,-0.39583 0.14583,-0.70313 0.4375,-0.92188 0.30208,-0.22916 0.73958,-0.34375 1.3125,-0.34375 l 0.8125,0 0,-0.34375 c 0,-0.22916 -0.0781,-0.41145 -0.23438,-0.54687 -0.14583,-0.14583 -0.36979,-0.21875 -0.67187,-0.21875 -0.21875,0 -0.4375,0.026 -0.65625,0.0781 -0.21875,0.0521 -0.44271,0.125 -0.67188,0.21875 l 0,-0.625 c 0.0937,-0.0312 0.19271,-0.0573 0.29688,-0.0781 0.10416,-0.0312 0.21354,-0.0573 0.32812,-0.0781 0.11459,-0.0312 0.23438,-0.0521 0.35938,-0.0625 0.13541,-0.0208 0.26562,-0.0312 0.39062,-0.0312 0.23959,0 0.45313,0.026 0.64063,0.0781 0.19791,0.0521 0.35937,0.13542 0.48437,0.25 0.13542,0.10417 0.23438,0.23958 0.29688,0.40625 0.0729,0.15625 0.10937,0.34375 0.10937,0.5625 l 0,2.70312 z m -0.0625,-1.78125 -0.875,0 c -0.16667,0 -0.3125,0.0156 -0.4375,0.0469 -0.11459,0.0312 -0.21354,0.0781 -0.29688,0.14062 -0.0729,0.0625 -0.13021,0.14063 -0.17187,0.23438 -0.0417,0.0833 -0.0625,0.17708 -0.0625,0.28125 0,0.0833 0.0104,0.16146 0.0312,0.23437 0.0312,0.0625 0.0729,0.1198 0.125,0.17188 0.0521,0.0521 0.11979,0.0937 0.20312,0.125 0.0833,0.0312 0.18229,0.0469 0.29688,0.0469 0.15625,0 0.33333,-0.0469 0.53125,-0.14062 0.20833,-0.0937 0.42708,-0.24479 0.65625,-0.45313 z m 4.99218,1.64063 c -0.17708,0.0625 -0.35937,0.10937 -0.54687,0.14062 -0.1875,0.0417 -0.38021,0.0625 -0.57813,0.0625 -0.61458,0 -1.08854,-0.16666 -1.42187,-0.5 -0.33333,-0.34375 -0.5,-0.83854 -0.5,-1.48437 0,-0.3125 0.0469,-0.59375 0.14062,-0.84375 0.0937,-0.25 0.22917,-0.46354 0.40625,-0.64063 0.17709,-0.1875 0.38542,-0.32812 0.625,-0.42187 0.23959,-0.10417 0.50521,-0.15625 0.79688,-0.15625 0.20833,0 0.40104,0.0156 0.57812,0.0469 0.17709,0.0312 0.34375,0.0781 0.5,0.14063 l 0,0.65625 c -0.16666,-0.0937 -0.33854,-0.16146 -0.51562,-0.20313 -0.17708,-0.0417 -0.35938,-0.0625 -0.54688,-0.0625 -0.17708,0 -0.34375,0.0365 -0.5,0.10938 -0.14583,0.0625 -0.28125,0.15625 -0.40625,0.28125 -0.11458,0.125 -0.20833,0.28125 -0.28125,0.46875 -0.0625,0.17708 -0.0937,0.375 -0.0937,0.59375 0,0.47917 0.11459,0.83854 0.34375,1.07812 0.22917,0.22917 0.55209,0.34375 0.96875,0.34375 0.17709,0 0.35417,-0.0208 0.53125,-0.0625 0.17709,-0.0417 0.34375,-0.10416 0.5,-0.1875 z m 8.90625,0.14062 -0.6875,0 0,-2.5 c 0,-0.30208 -0.0573,-0.52604 -0.17187,-0.67187 -0.10417,-0.15625 -0.26563,-0.23438 -0.48438,-0.23438 -0.0833,0 -0.16666,0.0156 -0.25,0.0469 -0.0833,0.0208 -0.16666,0.0625 -0.25,0.125 -0.0833,0.0521 -0.17708,0.13021 -0.28125,0.23437 -0.10416,0.10417 -0.21875,0.23438 -0.34375,0.39063 l 0,2.60937 -0.6875,0 0,-5.51562 0.6875,0 0,1.59375 -0.0312,0.60937 c 0.10417,-0.125 0.20834,-0.22916 0.3125,-0.3125 0.10417,-0.0937 0.20834,-0.16666 0.3125,-0.21875 0.10417,-0.0521 0.20834,-0.0885 0.3125,-0.10937 0.10417,-0.0312 0.21355,-0.0469 0.32813,-0.0469 0.39583,0 0.69792,0.1198 0.90625,0.35938 0.21875,0.23958 0.32812,0.59896 0.32812,1.07812 z m 2.58594,-3.35937 -1.17187,0 0,-0.5625 1.85937,0 0,3.35937 1.15625,0 0,0.5625 -3.14062,0 0,-0.5625 1.29687,0 z m 0.23438,-2.20313 c 0.0729,0 0.14062,0.0156 0.20312,0.0469 0.0729,0.0208 0.13021,0.0573 0.17188,0.10937 0.0521,0.0417 0.0885,0.099 0.10937,0.17188 0.0312,0.0625 0.0469,0.13021 0.0469,0.20312 0,0.0729 -0.0156,0.14063 -0.0469,0.20313 -0.0208,0.0625 -0.0573,0.11979 -0.10937,0.17187 -0.0417,0.0521 -0.099,0.0937 -0.17188,0.125 -0.0625,0.0208 -0.13021,0.0312 -0.20312,0.0312 -0.0729,0 -0.14584,-0.0104 -0.21875,-0.0312 -0.0625,-0.0312 -0.11979,-0.0729 -0.17188,-0.125 -0.0417,-0.0521 -0.0781,-0.10937 -0.10937,-0.17187 -0.0208,-0.0625 -0.0312,-0.13021 -0.0312,-0.20313 0,-0.0729 0.0104,-0.14062 0.0312,-0.20312 0.0312,-0.0729 0.0677,-0.13021 0.10937,-0.17188 0.0521,-0.0521 0.10938,-0.0885 0.17188,-0.10937 0.0729,-0.0312 0.14583,-0.0469 0.21875,-0.0469 z m 5.97656,5.5 c -0.14583,0.0417 -0.30208,0.0729 -0.46875,0.0937 -0.16667,0.0208 -0.33333,0.0312 -0.5,0.0312 -0.48958,0 -0.85938,-0.10937 -1.10938,-0.32812 -0.23958,-0.22917 -0.35937,-0.57813 -0.35937,-1.04688 l 0,-2.04687 -1.09375,0 0,-0.5625 1.09375,0 0,-1.07813 0.6875,-0.17187 0,1.25 1.75,0 0,0.5625 -1.75,0 0,2 c 0,0.28125 0.0729,0.49479 0.21875,0.64062 0.14583,0.13542 0.36458,0.20313 0.65625,0.20313 0.125,0 0.26042,-0.0104 0.40625,-0.0312 0.15625,-0.0208 0.3125,-0.0521 0.46875,-0.0937 z m 4.39844,0.0625 -0.6875,0 0,-2.5 c 0,-0.30208 -0.0573,-0.52604 -0.17188,-0.67187 -0.10416,-0.15625 -0.26562,-0.23438 -0.48437,-0.23438 -0.0833,0 -0.16667,0.0156 -0.25,0.0469 -0.0833,0.0208 -0.16667,0.0625 -0.25,0.125 -0.0833,0.0521 -0.17709,0.13021 -0.28125,0.23437 -0.10417,0.10417 -0.21875,0.23438 -0.34375,0.39063 l 0,2.60937 -0.6875,0 0,-5.51562 0.6875,0 0,1.59375 -0.0312,0.60937 c 0.10416,-0.125 0.20833,-0.22916 0.3125,-0.3125 0.10416,-0.0937 0.20833,-0.16666 0.3125,-0.21875 0.10416,-0.0521 0.20833,-0.0885 0.3125,-0.10937 0.10416,-0.0312 0.21354,-0.0469 0.32812,-0.0469 0.39584,0 0.69792,0.1198 0.90625,0.35938 0.21875,0.23958 0.32813,0.59896 0.32813,1.07812 z m 4.55468,-2.17187 0,0.25 c 0,0.0625 -0.005,0.11979 -0.0156,0.17187 l -2.75,0 c 0,0.40625 0.10937,0.71875 0.32812,0.9375 0.22917,0.20834 0.55209,0.3125 0.96875,0.3125 0.11459,0 0.22917,-0.005 0.34375,-0.0156 0.11459,-0.0104 0.22396,-0.0208 0.32813,-0.0312 0.11458,-0.0208 0.21875,-0.0365 0.3125,-0.0469 0.10417,-0.0208 0.19792,-0.0469 0.28125,-0.0781 l 0,0.5625 c -0.1875,0.0521 -0.40104,0.0937 -0.64063,0.125 -0.22916,0.0417 -0.46875,0.0625 -0.71875,0.0625 -0.33333,0 -0.625,-0.0469 -0.875,-0.14063 -0.23958,-0.0937 -0.4375,-0.22395 -0.59375,-0.39062 -0.14583,-0.17708 -0.26041,-0.39063 -0.34375,-0.64063 -0.0729,-0.26041 -0.10937,-0.54687 -0.10937,-0.85937 0,-0.28125 0.0417,-0.54167 0.125,-0.78125 0.0833,-0.25 0.19792,-0.46875 0.34375,-0.65625 0.15625,-0.1875 0.34375,-0.33333 0.5625,-0.4375 0.21875,-0.11458 0.46875,-0.17188 0.75,-0.17188 0.28125,0 0.52604,0.0469 0.73437,0.14063 0.20834,0.0833 0.38542,0.20312 0.53125,0.35937 0.14584,0.15625 0.25521,0.34896 0.32813,0.57813 0.0729,0.21875 0.10937,0.46875 0.10937,0.75 z m -0.70312,-0.0937 c 0.0104,-0.17708 -0.005,-0.33854 -0.0469,-0.48438 -0.0417,-0.14583 -0.10937,-0.27083 -0.20312,-0.375 -0.0833,-0.10416 -0.19271,-0.18229 -0.32813,-0.23437 -0.125,-0.0625 -0.27604,-0.0937 -0.45312,-0.0937 -0.14583,0 -0.28125,0.0312 -0.40625,0.0937 -0.11458,0.0521 -0.21875,0.13021 -0.3125,0.23437 -0.0833,0.10417 -0.15625,0.22917 -0.21875,0.375 -0.0521,0.14584 -0.0833,0.3073 -0.0937,0.48438 z m 1.94531,-1.65625 0.625,0 0.0156,0.71875 c 0.23958,-0.28125 0.46875,-0.48438 0.6875,-0.60938 0.22916,-0.125 0.45833,-0.1875 0.6875,-0.1875 0.40625,0 0.71354,0.13542 0.92187,0.40625 0.20834,0.26042 0.30729,0.65105 0.29688,1.17188 l -0.6875,0 c 0,-0.34375 -0.0521,-0.59375 -0.15625,-0.75 -0.10417,-0.15625 -0.26042,-0.23438 -0.46875,-0.23438 -0.0937,0 -0.1875,0.0156 -0.28125,0.0469 -0.0937,0.0312 -0.19271,0.0833 -0.29688,0.15625 -0.0937,0.0729 -0.19791,0.16667 -0.3125,0.28125 -0.10416,0.10417 -0.21875,0.23958 -0.34375,0.40625 l 0,2.51562 -0.6875,0 z m 7.55469,1.75 0,0.25 c 0,0.0625 -0.005,0.11979 -0.0156,0.17187 l -2.75,0 c 0,0.40625 0.10938,0.71875 0.32813,0.9375 0.22917,0.20834 0.55208,0.3125 0.96875,0.3125 0.11458,0 0.22917,-0.005 0.34375,-0.0156 0.11458,-0.0104 0.22396,-0.0208 0.32812,-0.0312 0.11459,-0.0208 0.21875,-0.0365 0.3125,-0.0469 0.10417,-0.0208 0.19792,-0.0469 0.28125,-0.0781 l 0,0.5625 c -0.1875,0.0521 -0.40104,0.0937 -0.64062,0.125 -0.22917,0.0417 -0.46875,0.0625 -0.71875,0.0625 -0.33333,0 -0.625,-0.0469 -0.875,-0.14063 -0.23958,-0.0937 -0.4375,-0.22395 -0.59375,-0.39062 -0.14583,-0.17708 -0.26042,-0.39063 -0.34375,-0.64063 -0.0729,-0.26041 -0.10938,-0.54687 -0.10938,-0.85937 0,-0.28125 0.0417,-0.54167 0.125,-0.78125 0.0833,-0.25 0.19792,-0.46875 0.34375,-0.65625 0.15625,-0.1875 0.34375,-0.33333 0.5625,-0.4375 0.21875,-0.11458 0.46875,-0.17188 0.75,-0.17188 0.28125,0 0.52605,0.0469 0.73438,0.14063 0.20833,0.0833 0.38542,0.20312 0.53125,0.35937 0.14583,0.15625 0.25521,0.34896 0.32812,0.57813 0.0729,0.21875 0.10938,0.46875 0.10938,0.75 z m -0.70313,-0.0937 c 0.0104,-0.17708 -0.005,-0.33854 -0.0469,-0.48438 -0.0417,-0.14583 -0.10938,-0.27083 -0.20313,-0.375 -0.0833,-0.10416 -0.1927,-0.18229 -0.32812,-0.23437 -0.125,-0.0625 -0.27604,-0.0937 -0.45313,-0.0937 -0.14583,0 -0.28125,0.0312 -0.40625,0.0937 -0.11458,0.0521 -0.21875,0.13021 -0.3125,0.23437 -0.0833,0.10417 -0.15625,0.22917 -0.21875,0.375 -0.0521,0.14584 -0.0833,0.3073 -0.0937,0.48438 z m 3.33594,1.03125 c 0.0833,0 0.16667,0.0208 0.25,0.0625 0.0833,0.0312 0.15104,0.0781 0.20313,0.14062 0.0625,0.0521 0.10937,0.1198 0.14062,0.20313 0.0312,0.0729 0.0469,0.15625 0.0469,0.25 0,0.0937 -0.0156,0.18229 -0.0469,0.26562 -0.0312,0.0729 -0.0781,0.14063 -0.14062,0.20313 -0.0521,0.0521 -0.11979,0.0937 -0.20313,0.125 -0.0833,0.0417 -0.16666,0.0625 -0.25,0.0625 -0.0937,0 -0.18229,-0.0208 -0.26562,-0.0625 -0.0729,-0.0312 -0.14063,-0.0729 -0.20313,-0.125 -0.0521,-0.0625 -0.099,-0.13021 -0.14062,-0.20313 -0.0312,-0.0833 -0.0469,-0.17187 -0.0469,-0.26562 0,-0.0937 0.0156,-0.17708 0.0469,-0.25 0.0417,-0.0833 0.0885,-0.15104 0.14062,-0.20313 0.0625,-0.0625 0.13021,-0.10937 0.20313,-0.14062 0.0833,-0.0417 0.17187,-0.0625 0.26562,-0.0625 z m 5.50781,-2.6875 0,3.84375 c 0,0.28125 -0.0417,0.52604 -0.125,0.73437 -0.0729,0.21875 -0.18229,0.40105 -0.32812,0.54688 -0.14583,0.14583 -0.32813,0.25521 -0.54688,0.32812 -0.20833,0.0729 -0.4427,0.10938 -0.70312,0.10938 -0.19792,0 -0.39063,-0.0208 -0.57813,-0.0625 -0.17708,-0.0312 -0.33854,-0.0781 -0.48437,-0.14063 l 0,-0.64062 c 0.0833,0.0417 0.16667,0.0781 0.25,0.10937 0.0937,0.0312 0.1875,0.0573 0.28125,0.0781 0.10417,0.0312 0.20312,0.0521 0.29687,0.0625 0.10417,0.0104 0.20313,0.0156 0.29688,0.0156 0.30208,0 0.53646,-0.0937 0.70312,-0.28125 0.16667,-0.1875 0.25,-0.46354 0.25,-0.82812 l 0,-3.3125 -1.92187,0 0,-0.5625 z m -0.40625,-1.64063 c 0.0729,0 0.14063,0.0156 0.20313,0.0469 0.0729,0.0208 0.13021,0.0573 0.17187,0.10937 0.0521,0.0417 0.0885,0.099 0.10938,0.17188 0.0312,0.0625 0.0469,0.13021 0.0469,0.20312 0,0.0729 -0.0156,0.14063 -0.0469,0.20313 -0.0208,0.0625 -0.0573,0.11979 -0.10938,0.17187 -0.0417,0.0521 -0.099,0.0937 -0.17187,0.125 -0.0625,0.0208 -0.13021,0.0312 -0.20313,0.0312 -0.0729,0 -0.14583,-0.0104 -0.21875,-0.0312 -0.0625,-0.0312 -0.11979,-0.0729 -0.17187,-0.125 -0.0417,-0.0521 -0.0781,-0.10937 -0.10938,-0.17187 -0.0208,-0.0625 -0.0312,-0.13021 -0.0312,-0.20313 0,-0.0729 0.0104,-0.14062 0.0312,-0.20312 0.0312,-0.0729 0.0677,-0.13021 0.10938,-0.17188 0.0521,-0.0521 0.10937,-0.0885 0.17187,-0.10937 0.0729,-0.0312 0.14584,-0.0469 0.21875,-0.0469 z m 4.66405,5.5625 -0.0156,-0.53125 c -0.20834,0.20834 -0.42188,0.36459 -0.64063,0.46875 -0.21875,0.0937 -0.45312,0.14063 -0.70312,0.14063 -0.21875,0 -0.41146,-0.0312 -0.57813,-0.0937 -0.15625,-0.0625 -0.28646,-0.14063 -0.39062,-0.23438 -0.0937,-0.10416 -0.16667,-0.22395 -0.21875,-0.35937 -0.0521,-0.13542 -0.0781,-0.28125 -0.0781,-0.4375 0,-0.39583 0.14584,-0.70313 0.4375,-0.92188 0.30209,-0.22916 0.73959,-0.34375 1.3125,-0.34375 l 0.8125,0 0,-0.34375 c 0,-0.22916 -0.0781,-0.41145 -0.23437,-0.54687 -0.14584,-0.14583 -0.36979,-0.21875 -0.67188,-0.21875 -0.21875,0 -0.4375,0.026 -0.65625,0.0781 -0.21875,0.0521 -0.44271,0.125 -0.67187,0.21875 l 0,-0.625 c 0.0937,-0.0312 0.19271,-0.0573 0.29687,-0.0781 0.10417,-0.0312 0.21354,-0.0573 0.32813,-0.0781 0.11458,-0.0312 0.23437,-0.0521 0.35937,-0.0625 0.13542,-0.0208 0.26563,-0.0312 0.39063,-0.0312 0.23958,0 0.45312,0.026 0.64062,0.0781 0.19792,0.0521 0.35938,0.13542 0.48438,0.25 0.13541,0.10417 0.23437,0.23958 0.29687,0.40625 0.0729,0.15625 0.10938,0.34375 0.10938,0.5625 l 0,2.70312 z m -0.0625,-1.78125 -0.875,0 c -0.16666,0 -0.3125,0.0156 -0.4375,0.0469 -0.11458,0.0312 -0.21354,0.0781 -0.29687,0.14062 -0.0729,0.0625 -0.13021,0.14063 -0.17188,0.23438 -0.0417,0.0833 -0.0625,0.17708 -0.0625,0.28125 0,0.0833 0.0104,0.16146 0.0312,0.23437 0.0312,0.0625 0.0729,0.1198 0.125,0.17188 0.0521,0.0521 0.11979,0.0937 0.20313,0.125 0.0833,0.0312 0.18229,0.0469 0.29687,0.0469 0.15625,0 0.33334,-0.0469 0.53125,-0.14062 0.20834,-0.0937 0.42709,-0.24479 0.65625,-0.45313 z m 1.58594,-2.14062 0.76562,0 0.96875,2.59375 0.20313,0.625 0.21875,-0.64063 0.95312,-2.57812 0.73438,0 -1.53125,3.92187 -0.78125,0 z m 7.27344,3.92187 -0.0156,-0.53125 c -0.20833,0.20834 -0.42187,0.36459 -0.64062,0.46875 -0.21875,0.0937 -0.45313,0.14063 -0.70313,0.14063 -0.21875,0 -0.41146,-0.0312 -0.57812,-0.0937 -0.15625,-0.0625 -0.28646,-0.14063 -0.39063,-0.23438 -0.0937,-0.10416 -0.16666,-0.22395 -0.21875,-0.35937 -0.0521,-0.13542 -0.0781,-0.28125 -0.0781,-0.4375 0,-0.39583 0.14583,-0.70313 0.4375,-0.92188 0.30208,-0.22916 0.73958,-0.34375 1.3125,-0.34375 l 0.8125,0 0,-0.34375 c 0,-0.22916 -0.0781,-0.41145 -0.23438,-0.54687 -0.14583,-0.14583 -0.36979,-0.21875 -0.67187,-0.21875 -0.21875,0 -0.4375,0.026 -0.65625,0.0781 -0.21875,0.0521 -0.44271,0.125 -0.67188,0.21875 l 0,-0.625 c 0.0937,-0.0312 0.19271,-0.0573 0.29688,-0.0781 0.10416,-0.0312 0.21354,-0.0573 0.32812,-0.0781 0.11459,-0.0312 0.23438,-0.0521 0.35938,-0.0625 0.13541,-0.0208 0.26562,-0.0312 0.39062,-0.0312 0.23959,0 0.45313,0.026 0.64063,0.0781 0.19791,0.0521 0.35937,0.13542 0.48437,0.25 0.13542,0.10417 0.23438,0.23958 0.29688,0.40625 0.0729,0.15625 0.10937,0.34375 0.10937,0.5625 l 0,2.70312 z m -0.0625,-1.78125 -0.875,0 c -0.16667,0 -0.3125,0.0156 -0.4375,0.0469 -0.11459,0.0312 -0.21354,0.0781 -0.29688,0.14062 -0.0729,0.0625 -0.13021,0.14063 -0.17187,0.23438 -0.0417,0.0833 -0.0625,0.17708 -0.0625,0.28125 0,0.0833 0.0104,0.16146 0.0312,0.23437 0.0312,0.0625 0.0729,0.1198 0.125,0.17188 0.0521,0.0521 0.11979,0.0937 0.20312,0.125 0.0833,0.0312 0.18229,0.0469 0.29688,0.0469 0.15625,0 0.33333,-0.0469 0.53125,-0.14062 0.20833,-0.0937 0.42708,-0.24479 0.65625,-0.45313 z"
       id="path93"
       inkscape:connector-curvature="0"
       style="fill:#000000;fill-rule:nonzero"
       sodipodi:nodetypes="cscscsccccccsssccccscccscccscccscscscccsccsscscscsscccccscccscccscccscsssccccccccccccccccsccsscscscsscccccscccscccscccscssscccccscssccssccsscccscssccccscsccsccccccccscscsccccccccccccscccscccscccscscscsscsccccccccccscscccccscsccsccccccccscscsccscccsscccccscccscccscscsccccsccccccsccscccssscsccccsscccsscccccscccscccscscscsccscccccscscscscscccscscscscscsccccccsssccccscccscccscccscscsccssccsscscscsscccccscccscccscccscssscccccccccccccccssccsscscscsscccccscccscccscccscsssccccc" />
    <path
       d="m 176.5538,269.8819 113.66931,0 0,66.29919 -113.66931,0 z"
       id="path95"
       inkscape:connector-curvature="0"
       style="fill:#cccccc;fill-rule:nonzero"
       sodipodi:nodetypes="ccccc" />
    <path
       d="m 176.5538,269.8819 113.66931,0 0,66.29919 -113.66931,0 z"
       id="path97"
       inkscape:connector-curvature="0"
       style="stroke:#666666;stroke-width:2;stroke-linecap:butt;stroke-linejoin:round"
       sodipodi:nodetypes="ccccc" />
    <path
       d="m 149.83989,361.16797 28.07664,-24.98688 112.30658,0 -28.07666,24.98688 z"
       id="path99"
       inkscape:connector-curvature="0"
       style="fill:#cccccc;fill-rule:nonzero"
       sodipodi:nodetypes="ccccc" />
    <path
       d="m 149.83989,361.16797 28.07664,-24.98688 112.30658,0 -28.07666,24.98688 z"
       id="path101"
       inkscape:connector-curvature="0"
       style="stroke:#666666;stroke-width:2;stroke-linecap:butt;stroke-linejoin:round"
       sodipodi:nodetypes="ccccc" />
    <path
       d="m 181.72179,276.76642 104.22047,0 0,45.66928 -104.22047,0 z"
       id="path103"
       inkscape:connector-curvature="0"
       style="fill:#434343;fill-rule:nonzero"
       sodipodi:nodetypes="ccccc" />
    <path
       d="m 181.72179,276.76642 104.22047,0 0,45.66928 -104.22047,0 z"
       id="path105"
       inkscape:connector-curvature="0"
       style="stroke:#666666;stroke-width:2;stroke-linecap:butt;stroke-linejoin:round"
       sodipodi:nodetypes="ccccc" />
    <path
       d="m 181.72179,280.2126 104.22047,0 0,38.77167 -104.22047,0 z"
       id="path107"
       inkscape:connector-curvature="0"
       style="fill:#000000;fill-opacity:0;fill-rule:nonzero"
       sodipodi:nodetypes="ccccc" />
    <path
       d="m 194.45616,295.81448 c 0,0.14583 -0.026,0.27604 -0.0781,0.39062 -0.0417,0.10417 -0.10416,0.19792 -0.1875,0.28125 -0.0833,0.0833 -0.17708,0.15625 -0.28125,0.21875 -0.10416,0.0521 -0.21874,0.099 -0.34375,0.14063 -0.11458,0.0417 -0.23958,0.0729 -0.375,0.0937 -0.12499,0.0208 -0.24999,0.0312 -0.375,0.0312 -0.26041,0 -0.5052,-0.0156 -0.73437,-0.0469 -0.21875,-0.0208 -0.43229,-0.0573 -0.64063,-0.10937 l 0,-0.625 c 0.22917,0.0625 0.45313,0.11458 0.67188,0.15625 0.22917,0.0312 0.45833,0.0469 0.6875,0.0469 0.32292,0 0.5625,-0.0417 0.71875,-0.125 0.15625,-0.0937 0.23438,-0.22395 0.23437,-0.39062 1e-5,-0.0729 -0.0156,-0.13542 -0.0469,-0.1875 -0.0208,-0.0625 -0.0625,-0.11458 -0.125,-0.15625 -0.0625,-0.0521 -0.16667,-0.10417 -0.3125,-0.15625 -0.13542,-0.0625 -0.31771,-0.13021 -0.54688,-0.20313 -0.17708,-0.0521 -0.34374,-0.10937 -0.5,-0.17187 -0.14583,-0.0625 -0.27604,-0.14063 -0.39062,-0.23438 -0.10417,-0.0937 -0.1875,-0.19791 -0.25,-0.3125 -0.0625,-0.125 -0.0937,-0.27083 -0.0937,-0.4375 0,-0.11458 0.026,-0.23437 0.0781,-0.35937 0.0521,-0.13542 0.13542,-0.25521 0.25,-0.35938 0.12501,-0.11458 0.29167,-0.20833 0.5,-0.28125 0.20834,-0.0833 0.46876,-0.125 0.78125,-0.125 0.15626,0 0.32813,0.0104 0.51563,0.0312 0.1875,0.0208 0.38021,0.0521 0.57812,0.0937 l 0,0.59375 c -0.20833,-0.0521 -0.41145,-0.0885 -0.60937,-0.10937 -0.1875,-0.0208 -0.34896,-0.0312 -0.48438,-0.0312 -0.17708,0 -0.32291,0.0156 -0.4375,0.0469 -0.11458,0.0208 -0.20833,0.0521 -0.28125,0.0937 -0.0729,0.0417 -0.12499,0.0937 -0.15625,0.15625 -0.0312,0.0625 -0.0469,0.13021 -0.0469,0.20313 0,0.0729 0.0156,0.14062 0.0469,0.20312 0.0313,0.0521 0.0833,0.10417 0.15625,0.15625 0.0729,0.0521 0.17188,0.10417 0.29688,0.15625 0.13542,0.0521 0.3125,0.10938 0.53125,0.17188 0.22917,0.0729 0.42188,0.14583 0.57812,0.21875 0.16667,0.0729 0.29688,0.15625 0.39063,0.25 0.10417,0.0833 0.17708,0.18229 0.21875,0.29687 0.0417,0.11459 0.0625,0.2448 0.0625,0.39063 z m 0.92969,-2.84375 0.76562,0 0.96875,2.59375 0.20313,0.625 0.21875,-0.64063 0.95312,-2.57812 0.73438,0 -1.53125,3.92187 -0.78125,0 z m 4.75781,0 0.60937,0 0.0312,0.625 c 0.11459,-0.13542 0.22396,-0.24479 0.32813,-0.32813 0.10417,-0.0937 0.20833,-0.16666 0.3125,-0.21875 0.10417,-0.0521 0.20833,-0.0885 0.3125,-0.10937 0.10417,-0.0312 0.21354,-0.0469 0.32812,-0.0469 0.40626,0 0.71355,0.1198 0.92188,0.35938 0.20833,0.23958 0.3125,0.59896 0.3125,1.07812 l 0,2.5625 -0.6875,0 0,-2.5 c 0,-0.3125 -0.0573,-0.54166 -0.17188,-0.6875 -0.11458,-0.14583 -0.28124,-0.21875 -0.5,-0.21875 -0.0833,0 -0.16666,0.0156 -0.25,0.0469 -0.0833,0.0208 -0.16666,0.0625 -0.25,0.125 -0.0833,0.0521 -0.17708,0.13021 -0.28125,0.23437 -0.0937,0.10417 -0.20312,0.23438 -0.32812,0.39063 l 0,2.60937 -0.6875,0 z m 11.84375,3.78125 c -0.17708,0.0625 -0.35937,0.10937 -0.54688,0.14062 -0.18749,0.0417 -0.3802,0.0625 -0.57812,0.0625 -0.61458,0 -1.08854,-0.16666 -1.42188,-0.5 -0.33333,-0.34375 -0.49999,-0.83854 -0.5,-1.48437 1e-5,-0.3125 0.0469,-0.59375 0.14063,-0.84375 0.0937,-0.25 0.22917,-0.46354 0.40625,-0.64063 0.17708,-0.1875 0.38542,-0.32812 0.625,-0.42187 0.23958,-0.10417 0.50521,-0.15625 0.79687,-0.15625 0.20834,0 0.40105,0.0156 0.57813,0.0469 0.17708,0.0312 0.34375,0.0781 0.5,0.14063 l 0,0.65625 c -0.16667,-0.0937 -0.33854,-0.16146 -0.51563,-0.20313 -0.17708,-0.0417 -0.35937,-0.0625 -0.54687,-0.0625 -0.17708,0 -0.34375,0.0365 -0.5,0.10938 -0.14583,0.0625 -0.28125,0.15625 -0.40625,0.28125 -0.11458,0.125 -0.20833,0.28125 -0.28125,0.46875 -0.0625,0.17708 -0.0937,0.375 -0.0937,0.59375 0,0.47917 0.11458,0.83854 0.34375,1.07812 0.22917,0.22917 0.55208,0.34375 0.96875,0.34375 0.17708,0 0.35417,-0.0208 0.53125,-0.0625 0.17708,-0.0417 0.34375,-0.10416 0.5,-0.1875 z m 4.77344,-1.85938 c 0,0.3125 -0.0469,0.59375 -0.14063,0.84375 -0.0833,0.25 -0.20833,0.46875 -0.375,0.65625 -0.15625,0.17709 -0.34896,0.31771 -0.57812,0.42188 -0.22917,0.10417 -0.49479,0.15625 -0.79688,0.15625 -0.28125,0 -0.53125,-0.0417 -0.75,-0.125 -0.21875,-0.0937 -0.40625,-0.22396 -0.5625,-0.39063 -0.15625,-0.17708 -0.27604,-0.39062 -0.35937,-0.64062 -0.0833,-0.25 -0.125,-0.53646 -0.125,-0.85938 0,-0.30208 0.0417,-0.57812 0.125,-0.82812 0.0937,-0.26042 0.21875,-0.47917 0.375,-0.65625 0.16666,-0.17708 0.36458,-0.31771 0.59375,-0.42188 0.22916,-0.10416 0.48958,-0.15625 0.78125,-0.15625 0.28125,0 0.53125,0.0469 0.75,0.14063 0.22916,0.0833 0.42187,0.20833 0.57812,0.375 0.15625,0.16667 0.27604,0.375 0.35938,0.625 0.0833,0.25 0.125,0.53646 0.125,0.85937 z m -0.70313,0.0312 c 0,-0.23958 -0.026,-0.44791 -0.0781,-0.625 -0.0521,-0.1875 -0.13021,-0.33854 -0.23438,-0.45312 -0.0937,-0.125 -0.21354,-0.21875 -0.35937,-0.28125 -0.13542,-0.0625 -0.29167,-0.0937 -0.46875,-0.0937 -0.20834,0 -0.38542,0.0417 -0.53125,0.125 -0.13542,0.0833 -0.25,0.19271 -0.34375,0.32812 -0.0937,0.125 -0.16146,0.27605 -0.20313,0.45313 -0.0417,0.17708 -0.0625,0.35937 -0.0625,0.54687 0,0.25 0.026,0.46875 0.0781,0.65625 0.0521,0.17709 0.125,0.32813 0.21875,0.45313 0.10416,0.11458 0.22396,0.20312 0.35937,0.26562 0.14584,0.0625 0.30729,0.0937 0.48438,0.0937 0.19791,0 0.36979,-0.0417 0.51562,-0.125 0.14584,-0.0833 0.26563,-0.1875 0.35938,-0.3125 0.0937,-0.13541 0.16146,-0.29166 0.20312,-0.46875 0.0417,-0.17708 0.0625,-0.36458 0.0625,-0.5625 z m 4.47656,1.96875 0,-2.8125 c 1e-5,-0.125 -0.005,-0.22395 -0.0156,-0.29687 -0.0104,-0.0833 -0.026,-0.14583 -0.0469,-0.1875 -0.0104,-0.0521 -0.0312,-0.0833 -0.0625,-0.0937 -0.0312,-0.0208 -0.0677,-0.0312 -0.10937,-0.0312 -0.0521,0 -0.10417,0.0156 -0.15625,0.0469 -0.0417,0.0312 -0.0885,0.0833 -0.14063,0.15625 -0.0521,0.0625 -0.10937,0.15105 -0.17187,0.26563 -0.0521,0.11458 -0.11979,0.26042 -0.20313,0.4375 l 0,2.51562 -0.625,0 0,-2.75 c 1e-5,-0.13541 -0.005,-0.24479 -0.0156,-0.32812 -0.0104,-0.0937 -0.026,-0.16667 -0.0469,-0.21875 -0.0208,-0.0521 -0.0469,-0.0833 -0.0781,-0.0937 -0.0312,-0.0208 -0.0677,-0.0312 -0.10938,-0.0312 -0.0417,0 -0.0833,0.0156 -0.125,0.0469 -0.0417,0.0208 -0.0885,0.0677 -0.14062,0.14063 -0.0521,0.0625 -0.10937,0.15104 -0.17188,0.26562 -0.0625,0.11459 -0.13541,0.26563 -0.21875,0.45313 l 0,2.51562 -0.625,0 0,-3.92187 0.51563,0 0.0312,0.75 c 0.0625,-0.15625 0.125,-0.28646 0.1875,-0.39063 0.0729,-0.10416 0.14063,-0.1875 0.20312,-0.25 0.0729,-0.0625 0.14584,-0.10937 0.21875,-0.14062 0.0729,-0.0312 0.15626,-0.0469 0.25,-0.0469 0.21876,0 0.38021,0.0729 0.48438,0.21875 0.11458,0.13542 0.17188,0.34896 0.17187,0.64063 0.0625,-0.13542 0.1198,-0.25521 0.17188,-0.35938 0.0625,-0.11458 0.125,-0.20312 0.1875,-0.26562 0.0729,-0.0729 0.15104,-0.13021 0.23437,-0.17188 0.0833,-0.0417 0.1823,-0.0625 0.29688,-0.0625 0.48958,0 0.73438,0.38021 0.73437,1.14063 l 0,2.85937 z m 4.39844,0 0,-2.8125 c 0,-0.125 -0.005,-0.22395 -0.0156,-0.29687 -0.0104,-0.0833 -0.026,-0.14583 -0.0469,-0.1875 -0.0104,-0.0521 -0.0312,-0.0833 -0.0625,-0.0937 -0.0312,-0.0208 -0.0677,-0.0312 -0.10937,-0.0312 -0.0521,0 -0.10417,0.0156 -0.15625,0.0469 -0.0417,0.0312 -0.0885,0.0833 -0.14063,0.15625 -0.0521,0.0625 -0.10937,0.15105 -0.17187,0.26563 -0.0521,0.11458 -0.11979,0.26042 -0.20313,0.4375 l 0,2.51562 -0.625,0 0,-2.75 c 0,-0.13541 -0.005,-0.24479 -0.0156,-0.32812 -0.0104,-0.0937 -0.026,-0.16667 -0.0469,-0.21875 -0.0208,-0.0521 -0.0469,-0.0833 -0.0781,-0.0937 -0.0312,-0.0208 -0.0677,-0.0312 -0.10938,-0.0312 -0.0417,0 -0.0833,0.0156 -0.125,0.0469 -0.0417,0.0208 -0.0885,0.0677 -0.14062,0.14063 -0.0521,0.0625 -0.10938,0.15104 -0.17188,0.26562 -0.0625,0.11459 -0.13541,0.26563 -0.21875,0.45313 l 0,2.51562 -0.625,0 0,-3.92187 0.51563,0 0.0312,0.75 c 0.0625,-0.15625 0.125,-0.28646 0.1875,-0.39063 0.0729,-0.10416 0.14062,-0.1875 0.20312,-0.25 0.0729,-0.0625 0.14584,-0.10937 0.21875,-0.14062 0.0729,-0.0312 0.15625,-0.0469 0.25,-0.0469 0.21875,0 0.38021,0.0729 0.48438,0.21875 0.11458,0.13542 0.17187,0.34896 0.17187,0.64063 0.0625,-0.13542 0.11979,-0.25521 0.17188,-0.35938 0.0625,-0.11458 0.125,-0.20312 0.1875,-0.26562 0.0729,-0.0729 0.15104,-0.13021 0.23437,-0.17188 0.0833,-0.0417 0.18229,-0.0625 0.29688,-0.0625 0.48958,0 0.73437,0.38021 0.73437,1.14063 l 0,2.85937 z m 2.94531,-3.35937 -1.17187,0 0,-0.5625 1.85937,0 0,3.35937 1.15625,0 0,0.5625 -3.14062,0 0,-0.5625 1.29687,0 z m 0.23438,-2.20313 c 0.0729,0 0.14063,0.0156 0.20312,0.0469 0.0729,0.0208 0.13021,0.0573 0.17188,0.10937 0.0521,0.0417 0.0885,0.099 0.10937,0.17188 0.0313,0.0625 0.0469,0.13021 0.0469,0.20312 0,0.0729 -0.0156,0.14063 -0.0469,0.20313 -0.0208,0.0625 -0.0573,0.11979 -0.10937,0.17187 -0.0417,0.0521 -0.099,0.0937 -0.17188,0.125 -0.0625,0.0208 -0.1302,0.0312 -0.20312,0.0312 -0.0729,0 -0.14583,-0.0104 -0.21875,-0.0312 -0.0625,-0.0312 -0.11979,-0.0729 -0.17188,-0.125 -0.0417,-0.0521 -0.0781,-0.10937 -0.10937,-0.17187 -0.0208,-0.0625 -0.0312,-0.13021 -0.0312,-0.20313 0,-0.0729 0.0104,-0.14062 0.0312,-0.20312 0.0312,-0.0729 0.0677,-0.13021 0.10937,-0.17188 0.0521,-0.0521 0.10938,-0.0885 0.17188,-0.10937 0.0729,-0.0312 0.14583,-0.0469 0.21875,-0.0469 z m 5.97656,5.5 c -0.14583,0.0417 -0.30208,0.0729 -0.46875,0.0937 -0.16666,0.0208 -0.33333,0.0312 -0.5,0.0312 -0.48958,0 -0.85937,-0.10937 -1.10937,-0.32812 -0.23959,-0.22917 -0.35938,-0.57813 -0.35938,-1.04688 l 0,-2.04687 -1.09375,0 0,-0.5625 1.09375,0 0,-1.07813 0.6875,-0.17187 0,1.25 1.75,0 0,0.5625 -1.75,0 0,2 c 0,0.28125 0.0729,0.49479 0.21875,0.64062 0.14584,0.13542 0.36459,0.20313 0.65625,0.20313 0.125,0 0.26042,-0.0104 0.40625,-0.0312 0.15625,-0.0208 0.3125,-0.0521 0.46875,-0.0937 z"
       id="path109"
       inkscape:connector-curvature="0"
       style="fill:#000000;fill-rule:nonzero"
       sodipodi:nodetypes="ccscccsccccscscccccccscccsscccscssscsccccssccccccccccccccscsssccsssccccccccsscssccssccsscccscssccsscssccssccsscsssssccsccsscccsscsscssccsccccccscscsccsccccccccsscccsssscccscccsccccccscscsccsccccccccsscccsssscccccccccccccscscscccscccscscscsccsccccccccccscsccccc" />
    <path
       d="m 213.59843,183.021 450.41992,67.59317"
       id="path111"
       inkscape:connector-curvature="0"
       style="fill:#000000;fill-opacity:0;fill-rule:nonzero"
       sodipodi:nodetypes="cc" />
    <path
       d="m 213.59842,183.021 438.55283,65.81232"
       id="path113"
       inkscape:connector-curvature="0"
       style="stroke:#666666;stroke-width:2;stroke-linecap:butt;stroke-linejoin:round"
       sodipodi:nodetypes="cc" />
    <path
       d="m 651.661,252.10019 9.46594,-1.91992 -8.48547,-4.61385 z"
       id="path115"
       inkscape:connector-curvature="0"
       style="fill:#666666;fill-rule:evenodd;stroke:#666666;stroke-width:2;stroke-linecap:butt"
       sodipodi:nodetypes="cccc" />
    <path
       d="M 290.22833,303.02362 726.95276,268.6929"
       id="path117"
       inkscape:connector-curvature="0"
       style="fill:#000000;fill-opacity:0;fill-rule:nonzero"
       sodipodi:nodetypes="cc" />
    <path
       d="M 290.22833,303.02362 714.98968,269.63333"
       id="path119"
       inkscape:connector-curvature="0"
       style="stroke:#666666;stroke-width:2;stroke-linecap:butt;stroke-linejoin:round"
       sodipodi:nodetypes="cc" />
    <path
       d="m 715.24854,272.92664 8.78943,-4.00458 -9.30719,-2.58203 z"
       id="path121"
       inkscape:connector-curvature="0"
       style="fill:#666666;fill-rule:evenodd;stroke:#666666;stroke-width:2;stroke-linecap:butt"
       sodipodi:nodetypes="cccc" />
    <path
       d="m 217.86615,186.4567 491.43304,64.15747"
       id="path123"
       inkscape:connector-curvature="0"
       style="fill:#000000;fill-opacity:0;fill-rule:nonzero"
       sodipodi:nodetypes="cc" />
    <path
       d="m 217.86613,186.4567 479.53406,62.60403"
       id="path125"
       inkscape:connector-curvature="0"
       style="stroke:#666666;stroke-width:2;stroke-linecap:butt;stroke-linejoin:round"
       sodipodi:nodetypes="cc" />
    <path
       d="m 696.97253,252.3364 9.42749,-2.10072 -8.57221,-4.45061 z"
       id="path127"
       inkscape:connector-curvature="0"
       style="fill:#666666;fill-rule:evenodd;stroke:#666666;stroke-width:2;stroke-linecap:butt"
       sodipodi:nodetypes="cccc" />
    <path
       d="m 290.22308,419.62204 373.7953,-73.63779"
       id="path129"
       inkscape:connector-curvature="0"
       style="fill:#000000;fill-opacity:0;fill-rule:nonzero"
       sodipodi:nodetypes="cc" />
    <path
       d="m 290.22308,419.62204 362.0216,-71.31836"
       id="path131"
       inkscape:connector-curvature="0"
       style="stroke:#666666;stroke-width:2;stroke-linecap:butt;stroke-linejoin:round"
       sodipodi:nodetypes="cc" />
    <path
       d="m 652.8832,351.54486 8.26654,-4.99548 -9.54358,-1.48688 z"
       id="path133"
       inkscape:connector-curvature="0"
       style="fill:#666666;fill-rule:evenodd;stroke:#666666;stroke-width:2;stroke-linecap:butt"
       sodipodi:nodetypes="cccc" />
    <path
       d="M 290.21783,419.62204 772.23358,268.6929"
       id="path135"
       inkscape:connector-curvature="0"
       style="fill:#000000;fill-opacity:0;fill-rule:nonzero"
       sodipodi:nodetypes="cc" />
    <path
       d="M 290.21783,419.62204 760.78179,272.27869"
       id="path137"
       inkscape:connector-curvature="0"
       style="stroke:#666666;stroke-width:2;stroke-linecap:butt;stroke-linejoin:round"
       sodipodi:nodetypes="cc" />
    <path
       d="m 761.769,275.4312 7.67438,-5.86462 -9.64862,-0.44043 z"
       id="path139"
       inkscape:connector-curvature="0"
       style="fill:#666666;fill-rule:evenodd;stroke:#666666;stroke-width:2;stroke-linecap:butt"
       sodipodi:nodetypes="cccc" />
    <path
       d="M 290.2231,303.0315 780.68767,437.40684"
       id="path141"
       inkscape:connector-curvature="0"
       style="fill:#000000;fill-opacity:0;fill-rule:nonzero"
       sodipodi:nodetypes="cc" />
    <path
       d="m 290.22308,303.0315 478.8911,131.20447"
       id="path143"
       inkscape:connector-curvature="0"
       style="stroke:#666666;stroke-width:2;stroke-linecap:butt;stroke-linejoin:round"
       sodipodi:nodetypes="cc" />
    <path
       d="m 768.2413,437.42203 9.62653,-0.78778 -7.88074,-5.58432 z"
       id="path145"
       inkscape:connector-curvature="0"
       style="fill:#666666;fill-rule:evenodd;stroke:#666666;stroke-width:2;stroke-linecap:butt"
       sodipodi:nodetypes="cccc" />
  </g>
</svg>
