<?xml version="1.0" encoding="UTF-8" standalone="no"?>
<svg
   xmlns:dc="http://purl.org/dc/elements/1.1/"
   xmlns:cc="http://creativecommons.org/ns#"
   xmlns:rdf="http://www.w3.org/1999/02/22-rdf-syntax-ns#"
   xmlns:svg="http://www.w3.org/2000/svg"
   xmlns="http://www.w3.org/2000/svg"
   xmlns:sodipodi="http://sodipodi.sourceforge.net/DTD/sodipodi-0.dtd"
   xmlns:inkscape="http://www.inkscape.org/namespaces/inkscape"
   version="1.1"
   viewBox="0.0 0.0 960.0 540.0"
   fill="none"
   stroke="none"
   stroke-linecap="square"
   stroke-miterlimit="10"
   id="svg21023"
   inkscape:version="0.48.4 r9939"
   width="100%"
   height="100%"
   sodipodi:docname="dvcs.svg">
  <metadata
     id="metadata21208">
    <rdf:RDF>
      <cc:Work
         rdf:about="">
        <dc:format>image/svg+xml</dc:format>
        <dc:type
           rdf:resource="http://purl.org/dc/dcmitype/StillImage" />
      </cc:Work>
    </rdf:RDF>
  </metadata>
  <defs
     id="defs21206" />
  <sodipodi:namedview
     pagecolor="#ffffff"
     bordercolor="#666666"
     borderopacity="1"
     objecttolerance="10"
     gridtolerance="10"
     guidetolerance="10"
     inkscape:pageopacity="0"
     inkscape:pageshadow="2"
     inkscape:window-width="1598"
     inkscape:window-height="866"
     id="namedview21204"
     showgrid="false"
     inkscape:zoom="0.88766276"
     inkscape:cx="480"
     inkscape:cy="270"
     inkscape:window-x="0"
     inkscape:window-y="32"
     inkscape:window-maximized="0"
     inkscape:current-layer="g21028" />
  <clipPath
     id="g358aeef41_0104.0">
    <path
       d="m0 0l960.0 0l0 540.0l-960.0 0l0 -540.0z"
       clip-rule="nonzero"
       id="path21026" />
  </clipPath>
  <g
     clip-path="url(#g358aeef41_0104.0)"
     id="g21028">
    <path
       fill="#ffffff"
       d="m0 0l960.0 0l0 540.0l-960.0 0z"
       fill-rule="nonzero"
       id="path21030" />
    <path
       fill="#000000"
       fill-opacity="0.0"
       d="m48.0 21.625038l864.0 0l0 90.015755l-864.0 0z"
       fill-rule="nonzero"
       id="path21032" />
    <path
       fill="#cccccc"
       d="m124.538055 197.26772l113.6693 0l0 66.29921l-113.6693 0z"
       fill-rule="nonzero"
       id="path21036" />
    <path
       stroke="#666666"
       stroke-width="2.0"
       stroke-linejoin="round"
       stroke-linecap="butt"
       d="m124.538055 197.26772l113.6693 0l0 66.29921l-113.6693 0z"
       fill-rule="nonzero"
       id="path21038" />
    <path
       fill="#cccccc"
       d="m97.82415 288.5538l28.076637 -24.986877l112.306564 0l-28.076645 24.986877z"
       fill-rule="nonzero"
       id="path21040" />
    <path
       stroke="#666666"
       stroke-width="2.0"
       stroke-linejoin="round"
       stroke-linecap="butt"
       d="m97.82415 288.5538l28.076637 -24.986877l112.306564 0l-28.076645 24.986877z"
       fill-rule="nonzero"
       id="path21042" />
    <path
       fill="#434343"
       d="m129.70604 204.15224l104.220474 0l0 45.66928l-104.220474 0z"
       fill-rule="nonzero"
       id="path21044" />
    <path
       stroke="#666666"
       stroke-width="2.0"
       stroke-linejoin="round"
       stroke-linecap="butt"
       d="m129.70604 204.15224l104.220474 0l0 45.66928l-104.220474 0z"
       fill-rule="nonzero"
       id="path21046" />
    <path
       fill="#000000"
       fill-opacity="0.0"
       d="m129.70604 207.59842l104.220474 0l0 38.771652l-104.220474 0z"
       fill-rule="nonzero"
       id="path21048" />
    <path
       fill="#000000"
       d="m138.97166 220.35655l0.765625 0l0.96875 2.59375l0.203125 0.625l0.21875 -0.640625l0.953125 -2.578125l0.734375 0l-1.53125 3.921875l-0.78125 0l-1.53125 -3.921875zm6.1015625 0.5625l-1.171875 0l0 -0.5625l1.859375 0l0 3.359375l1.15625 0l0 0.5625l-3.140625 0l0 -0.5625l1.296875 0l0 -2.796875zm0.234375 -2.203125q0.109375 0 0.203125 0.046875q0.109375 0.03125 0.171875 0.109375q0.078125 0.0625 0.109375 0.171875q0.046875 0.09375 0.046875 0.203125q0 0.109375 -0.046875 0.203125q-0.03125 0.09375 -0.109375 0.171875q-0.0625 0.078125 -0.171875 0.125q-0.09375 0.03125 -0.203125 0.03125q-0.109375 0 -0.21875 -0.03125q-0.09375 -0.046875 -0.171875 -0.125q-0.0625 -0.078125 -0.109375 -0.171875q-0.03125 -0.09375 -0.03125 -0.203125q0 -0.109375 0.03125 -0.203125q0.046875 -0.109375 0.109375 -0.171875q0.078125 -0.078125 0.171875 -0.109375q0.109375 -0.046875 0.21875 -0.046875zm10.375 0.046875l-2.6875 6.359375l-0.640625 0l2.671875 -6.359375l0.65625 0zm4.0703125 2.140625q0.109375 0.140625 0.171875 0.328125q0.0625 0.171875 0.0625 0.390625q0 0.296875 -0.125 0.5625q-0.109375 0.25 -0.3125 0.4375q-0.203125 0.171875 -0.484375 0.265625q-0.28125 0.09375 -0.625 0.09375q-0.234375 0 -0.453125 -0.046875q-0.21875 -0.046875 -0.34375 -0.125q-0.078125 0.109375 -0.125 0.203125q-0.046875 0.09375 -0.046875 0.21875q0 0.140625 0.140625 0.25q0.140625 0.09375 0.375 0.09375l1.03125 0.046875q0.296875 0 0.546875 0.078125q0.25 0.0625 0.421875 0.1875q0.171875 0.125 0.265625 0.3125q0.109375 0.1875 0.109375 0.421875q0 0.265625 -0.109375 0.5q-0.109375 0.234375 -0.359375 0.40625q-0.234375 0.1875 -0.59375 0.28125q-0.359375 0.109375 -0.859375 0.109375q-0.484375 0 -0.8125 -0.078125q-0.328125 -0.078125 -0.546875 -0.21875q-0.21875 -0.125 -0.3125 -0.3125q-0.09375 -0.1875 -0.09375 -0.40625q0 -0.28125 0.125 -0.5q0.140625 -0.21875 0.40625 -0.421875q-0.09375 -0.046875 -0.171875 -0.109375q-0.078125 -0.078125 -0.125 -0.15625q-0.046875 -0.078125 -0.078125 -0.171875q-0.015625 -0.09375 -0.015625 -0.1875q0 -0.25 0.125 -0.453125q0.125 -0.21875 0.28125 -0.40625q-0.078125 -0.09375 -0.140625 -0.171875q-0.046875 -0.09375 -0.09375 -0.1875q-0.03125 -0.109375 -0.0625 -0.21875q-0.015625 -0.125 -0.015625 -0.265625q0 -0.3125 0.109375 -0.5625q0.109375 -0.25 0.3125 -0.421875q0.203125 -0.1875 0.484375 -0.28125q0.28125 -0.109375 0.625 -0.109375q0.15625 0 0.28125 0.03125q0.140625 0.015625 0.234375 0.046875l1.421875 0l0 0.546875l-0.625 0zm-2.359375 3.9375q0 0.28125 0.28125 0.40625q0.296875 0.125 0.8125 0.125q0.328125 0 0.546875 -0.0625q0.21875 -0.046875 0.34375 -0.140625q0.140625 -0.09375 0.203125 -0.21875q0.0625 -0.125 0.0625 -0.25q0 -0.25 -0.203125 -0.359375q-0.1875 -0.109375 -0.59375 -0.140625l-1.03125 -0.03125q-0.125 0.09375 -0.21875 0.171875q-0.078125 0.078125 -0.125 0.15625q-0.046875 0.09375 -0.0625 0.171875q-0.015625 0.09375 -0.015625 0.171875zm0.203125 -3.203125q0 0.1875 0.0625 0.34375q0.0625 0.15625 0.171875 0.265625q0.125 0.109375 0.265625 0.171875q0.15625 0.0625 0.34375 0.0625q0.203125 0 0.359375 -0.0625q0.171875 -0.078125 0.265625 -0.1875q0.109375 -0.125 0.171875 -0.28125q0.0625 -0.15625 0.0625 -0.3125q0 -0.1875 -0.0625 -0.34375q-0.0625 -0.15625 -0.1875 -0.265625q-0.109375 -0.109375 -0.265625 -0.171875q-0.15625 -0.0625 -0.34375 -0.0625q-0.203125 0 -0.359375 0.078125q-0.15625 0.0625 -0.265625 0.1875q-0.109375 0.109375 -0.171875 0.265625q-0.046875 0.140625 -0.046875 0.3125zm3.8828125 -1.28125l0.625 0l0.015625 0.71875q0.359375 -0.421875 0.6875 -0.609375q0.34375 -0.1875 0.6875 -0.1875q0.609375 0 0.921875 0.40625q0.3125 0.390625 0.296875 1.171875l-0.6875 0q0 -0.515625 -0.15625 -0.75q-0.15625 -0.234375 -0.46875 -0.234375q-0.140625 0 -0.28125 0.046875q-0.140625 0.046875 -0.296875 0.15625q-0.140625 0.109375 -0.3125 0.28125q-0.15625 0.15625 -0.34375 0.40625l0 2.515625l-0.6875 0l0 -3.921875zm7.5546875 1.75q0 0.140625 0 0.25q0 0.09375 -0.015625 0.171875l-2.75 0q0 0.609375 0.328125 0.9375q0.34375 0.3125 0.96875 0.3125q0.171875 0 0.34375 -0.015625q0.171875 -0.015625 0.328125 -0.03125q0.171875 -0.03125 0.3125 -0.046875q0.15625 -0.03125 0.28125 -0.078125l0 0.5625q-0.28125 0.078125 -0.640625 0.125q-0.34375 0.0625 -0.71875 0.0625q-0.5 0 -0.875 -0.140625q-0.359375 -0.140625 -0.59375 -0.390625q-0.21875 -0.265625 -0.34375 -0.640625q-0.109375 -0.390625 -0.109375 -0.859375q0 -0.421875 0.125 -0.78125q0.125 -0.375 0.34375 -0.65625q0.234375 -0.28125 0.5625 -0.4375q0.328125 -0.171875 0.75 -0.171875q0.421875 0 0.734375 0.140625q0.3125 0.125 0.53125 0.359375q0.21875 0.234375 0.328125 0.578125q0.109375 0.328125 0.109375 0.75zm-0.703125 -0.09375q0.015625 -0.265625 -0.046875 -0.484375q-0.0625 -0.21875 -0.203125 -0.375q-0.125 -0.15625 -0.328125 -0.234375q-0.1875 -0.09375 -0.453125 -0.09375q-0.21875 0 -0.40625 0.09375q-0.171875 0.078125 -0.3125 0.234375q-0.125 0.15625 -0.21875 0.375q-0.078125 0.21875 -0.09375 0.484375l2.0625 0zm4.3046875 2.265625l-0.015625 -0.53125q-0.3125 0.3125 -0.640625 0.46875q-0.328125 0.140625 -0.703125 0.140625q-0.328125 0 -0.578125 -0.09375q-0.234375 -0.09375 -0.390625 -0.234375q-0.140625 -0.15625 -0.21875 -0.359375q-0.078125 -0.203125 -0.078125 -0.4375q0 -0.59375 0.4375 -0.921875q0.453125 -0.34375 1.3125 -0.34375l0.8125 0l0 -0.34375q0 -0.34375 -0.234375 -0.546875q-0.21875 -0.21875 -0.671875 -0.21875q-0.328125 0 -0.65625 0.078125q-0.328125 0.078125 -0.671875 0.21875l0 -0.625q0.140625 -0.046875 0.296875 -0.078125q0.15625 -0.046875 0.328125 -0.078125q0.171875 -0.046875 0.359375 -0.0625q0.203125 -0.03125 0.390625 -0.03125q0.359375 0 0.640625 0.078125q0.296875 0.078125 0.484375 0.25q0.203125 0.15625 0.296875 0.40625q0.109375 0.234375 0.109375 0.5625l0 2.703125l-0.609375 0zm-0.0625 -1.78125l-0.875 0q-0.25 0 -0.4375 0.046875q-0.171875 0.046875 -0.296875 0.140625q-0.109375 0.09375 -0.171875 0.234375q-0.0625 0.125 -0.0625 0.28125q0 0.125 0.03125 0.234375q0.046875 0.09375 0.125 0.171875q0.078125 0.078125 0.203125 0.125q0.125 0.046875 0.296875 0.046875q0.234375 0 0.53125 -0.140625q0.3125 -0.140625 0.65625 -0.453125l0 -0.6875zm5.1015625 1.71875q-0.21875 0.0625 -0.46875 0.09375q-0.25 0.03125 -0.5 0.03125q-0.734375 0 -1.109375 -0.328125q-0.359375 -0.34375 -0.359375 -1.046875l0 -2.046875l-1.09375 0l0 -0.5625l1.09375 0l0 -1.078125l0.6875 -0.171875l0 1.25l1.75 0l0 0.5625l-1.75 0l0 2.0q0 0.421875 0.21875 0.640625q0.21875 0.203125 0.65625 0.203125q0.1875 0 0.40625 -0.03125q0.234375 -0.03125 0.46875 -0.09375l0 0.578125zm4.3984375 -5.453125l-2.6875 6.359375l-0.640625 0l2.671875 -6.359375l0.65625 0zm4.6015625 3.484375q0 0.515625 -0.15625 0.90625q-0.140625 0.390625 -0.40625 0.65625q-0.25 0.25 -0.609375 0.390625q-0.34375 0.125 -0.75 0.125q-0.1875 0 -0.375 -0.015625q-0.1875 -0.015625 -0.375 -0.078125l0 1.65625l-0.6875 0l0 -5.53125l0.609375 0l0.046875 0.65625q0.28125 -0.40625 0.609375 -0.5625q0.34375 -0.171875 0.734375 -0.171875q0.328125 0 0.578125 0.140625q0.265625 0.140625 0.4375 0.40625q0.171875 0.25 0.25 0.609375q0.09375 0.359375 0.09375 0.8125zm-0.703125 0.03125q0 -0.3125 -0.046875 -0.5625q-0.046875 -0.265625 -0.140625 -0.4375q-0.09375 -0.1875 -0.25 -0.296875q-0.15625 -0.109375 -0.359375 -0.109375q-0.125 0 -0.265625 0.046875q-0.125 0.046875 -0.28125 0.140625q-0.140625 0.09375 -0.296875 0.25q-0.15625 0.15625 -0.328125 0.390625l0 1.90625q0.1875 0.078125 0.390625 0.125q0.203125 0.046875 0.40625 0.046875q0.546875 0 0.859375 -0.375q0.3125 -0.375 0.3125 -1.125zm1.8984375 -1.921875l0.625 0l0.015625 0.71875q0.359375 -0.421875 0.6875 -0.609375q0.34375 -0.1875 0.6875 -0.1875q0.609375 0 0.921875 0.40625q0.3125 0.390625 0.296875 1.171875l-0.6875 0q0 -0.515625 -0.15625 -0.75q-0.15625 -0.234375 -0.46875 -0.234375q-0.140625 0 -0.28125 0.046875q-0.140625 0.046875 -0.296875 0.15625q-0.140625 0.109375 -0.3125 0.28125q-0.15625 0.15625 -0.34375 0.40625l0 2.515625l-0.6875 0l0 -3.921875zm7.6640625 1.921875q0 0.46875 -0.140625 0.84375q-0.125 0.375 -0.375 0.65625q-0.234375 0.265625 -0.578125 0.421875q-0.34375 0.15625 -0.796875 0.15625q-0.421875 0 -0.75 -0.125q-0.328125 -0.140625 -0.5625 -0.390625q-0.234375 -0.265625 -0.359375 -0.640625q-0.125 -0.375 -0.125 -0.859375q0 -0.453125 0.125 -0.828125q0.140625 -0.390625 0.375 -0.65625q0.25 -0.265625 0.59375 -0.421875q0.34375 -0.15625 0.78125 -0.15625q0.421875 0 0.75 0.140625q0.34375 0.125 0.578125 0.375q0.234375 0.25 0.359375 0.625q0.125 0.375 0.125 0.859375zm-0.703125 0.03125q0 -0.359375 -0.078125 -0.625q-0.078125 -0.28125 -0.234375 -0.453125q-0.140625 -0.1875 -0.359375 -0.28125q-0.203125 -0.09375 -0.46875 -0.09375q-0.3125 0 -0.53125 0.125q-0.203125 0.125 -0.34375 0.328125q-0.140625 0.1875 -0.203125 0.453125q-0.0625 0.265625 -0.0625 0.546875q0 0.375 0.078125 0.65625q0.078125 0.265625 0.21875 0.453125q0.15625 0.171875 0.359375 0.265625q0.21875 0.09375 0.484375 0.09375q0.296875 0 0.515625 -0.125q0.21875 -0.125 0.359375 -0.3125q0.140625 -0.203125 0.203125 -0.46875q0.0625 -0.265625 0.0625 -0.5625zm4.3359375 -1.953125l0 3.84375q0 0.421875 -0.125 0.734375q-0.109375 0.328125 -0.328125 0.546875q-0.21875 0.21875 -0.546875 0.328125q-0.3125 0.109375 -0.703125 0.109375q-0.296875 0 -0.578125 -0.0625q-0.265625 -0.046875 -0.484375 -0.140625l0 -0.640625q0.125 0.0625 0.25 0.109375q0.140625 0.046875 0.28125 0.078125q0.15625 0.046875 0.296875 0.0625q0.15625 0.015625 0.296875 0.015625q0.453125 0 0.703125 -0.28125q0.25 -0.28125 0.25 -0.828125l0 -3.3125l-1.921875 0l0 -0.5625l2.609375 0zm-0.40625 -1.640625q0.109375 0 0.203125 0.046875q0.109375 0.03125 0.171875 0.109375q0.078125 0.0625 0.109375 0.171875q0.046875 0.09375 0.046875 0.203125q0 0.109375 -0.046875 0.203125q-0.03125 0.09375 -0.109375 0.171875q-0.0625 0.078125 -0.171875 0.125q-0.09375 0.03125 -0.203125 0.03125q-0.109375 0 -0.21875 -0.03125q-0.09375 -0.046875 -0.171875 -0.125q-0.0625 -0.078125 -0.109375 -0.171875q-0.03125 -0.09375 -0.03125 -0.203125q0 -0.109375 0.03125 -0.203125q0.046875 -0.109375 0.109375 -0.171875q0.078125 -0.078125 0.171875 -0.109375q0.109375 -0.046875 0.21875 -0.046875zm5.4609375 3.390625q0 0.140625 0 0.25q0 0.09375 -0.015625 0.171875l-2.75 0q0 0.609375 0.328125 0.9375q0.34375 0.3125 0.96875 0.3125q0.171875 0 0.34375 -0.015625q0.171875 -0.015625 0.328125 -0.03125q0.171875 -0.03125 0.3125 -0.046875q0.15625 -0.03125 0.28125 -0.078125l0 0.5625q-0.28125 0.078125 -0.640625 0.125q-0.34375 0.0625 -0.71875 0.0625q-0.5 0 -0.875 -0.140625q-0.359375 -0.140625 -0.59375 -0.390625q-0.21875 -0.265625 -0.34375 -0.640625q-0.109375 -0.390625 -0.109375 -0.859375q0 -0.421875 0.125 -0.78125q0.125 -0.375 0.34375 -0.65625q0.234375 -0.28125 0.5625 -0.4375q0.328125 -0.171875 0.75 -0.171875q0.421875 0 0.734375 0.140625q0.3125 0.125 0.53125 0.359375q0.21875 0.234375 0.328125 0.578125q0.109375 0.328125 0.109375 0.75zm-0.703125 -0.09375q0.015625 -0.265625 -0.046875 -0.484375q-0.0625 -0.21875 -0.203125 -0.375q-0.125 -0.15625 -0.328125 -0.234375q-0.1875 -0.09375 -0.453125 -0.09375q-0.21875 0 -0.40625 0.09375q-0.171875 0.078125 -0.3125 0.234375q-0.125 0.15625 -0.21875 0.375q-0.078125 0.21875 -0.09375 0.484375l2.0625 0zm4.8359375 2.125q-0.265625 0.09375 -0.546875 0.140625q-0.28125 0.0625 -0.578125 0.0625q-0.921875 0 -1.421875 -0.5q-0.5 -0.515625 -0.5 -1.484375q0 -0.46875 0.140625 -0.84375q0.140625 -0.375 0.40625 -0.640625q0.265625 -0.28125 0.625 -0.421875q0.359375 -0.15625 0.796875 -0.15625q0.3125 0 0.578125 0.046875q0.265625 0.046875 0.5 0.140625l0 0.65625q-0.25 -0.140625 -0.515625 -0.203125q-0.265625 -0.0625 -0.546875 -0.0625q-0.265625 0 -0.5 0.109375q-0.21875 0.09375 -0.40625 0.28125q-0.171875 0.1875 -0.28125 0.46875q-0.09375 0.265625 -0.09375 0.59375q0 0.71875 0.34375 1.078125q0.34375 0.34375 0.96875 0.34375q0.265625 0 0.53125 -0.0625q0.265625 -0.0625 0.5 -0.1875l0 0.640625zm4.5078125 0.078125q-0.21875 0.0625 -0.46875 0.09375q-0.25 0.03125 -0.5 0.03125q-0.734375 0 -1.109375 -0.328125q-0.359375 -0.34375 -0.359375 -1.046875l0 -2.046875l-1.09375 0l0 -0.5625l1.09375 0l0 -1.078125l0.6875 -0.171875l0 1.25l1.75 0l0 0.5625l-1.75 0l0 2.0q0 0.421875 0.21875 0.640625q0.21875 0.203125 0.65625 0.203125q0.1875 0 0.40625 -0.03125q0.234375 -0.03125 0.46875 -0.09375l0 0.578125z"
       fill-rule="nonzero"
       id="path21050" />
    <path
       fill="#cccccc"
       d="m391.42477 182.95029l177.15091 0l0 222.21088l-177.15091 0z"
       fill-rule="nonzero"
       id="path21052" />
    <path
       stroke="#666666"
       stroke-width="2.0"
       stroke-linejoin="round"
       stroke-linecap="butt"
       d="m391.42477 182.95029l177.15091 0l0 222.21088l-177.15091 0z"
       fill-rule="nonzero"
       id="path21054" />
    <path
       fill="#d9d9d9"
       d="m402.53455 205.17175l154.31061 0l0 57.403717l-154.31061 0z"
       fill-rule="nonzero"
       id="path21056" />
    <path
       stroke="#666666"
       stroke-width="2.0"
       stroke-linejoin="round"
       stroke-linecap="butt"
       d="m402.53455 205.17175l154.31061 0l0 57.403717l-154.31061 0z"
       fill-rule="nonzero"
       id="path21058" />
    <path
       fill="#d9d9d9"
       d="m402.53455 273.49338l154.31061 0l0 57.403748l-154.31061 0z"
       fill-rule="nonzero"
       id="path21060" />
    <path
       stroke="#666666"
       stroke-width="2.0"
       stroke-linejoin="round"
       stroke-linecap="butt"
       d="m402.53455 273.49338l154.31061 0l0 57.403748l-154.31061 0z"
       fill-rule="nonzero"
       id="path21062" />
    <path
       fill="#d9d9d9"
       d="m402.84494 341.81503l154.31058 0l0 57.403717l-154.31058 0z"
       fill-rule="nonzero"
       id="path21064" />
    <path
       stroke="#666666"
       stroke-width="2.0"
       stroke-linejoin="round"
       stroke-linecap="butt"
       d="m402.84494 341.81503l154.31058 0l0 57.403717l-154.31058 0z"
       fill-rule="nonzero"
       id="path21066" />
    <path
       fill="#a4c2f4"
       d="m406.85544 212.57765l25.304596 0l0 25.914062l-25.304596 0z"
       fill-rule="nonzero"
       id="path21068" />
    <path
       stroke="#666666"
       stroke-width="2.0"
       stroke-linejoin="round"
       stroke-linecap="butt"
       d="m406.85544 212.57765l25.304596 0l0 25.914062l-25.304596 0z"
       fill-rule="nonzero"
       id="path21070" />
    <path
       fill="#f9cb9c"
       d="m439.30823 212.57765l25.304596 0l0 25.914062l-25.304596 0z"
       fill-rule="nonzero"
       id="path21072" />
    <path
       stroke="#666666"
       stroke-width="2.0"
       stroke-linejoin="round"
       stroke-linecap="butt"
       d="m439.30823 212.57765l25.304596 0l0 25.914062l-25.304596 0z"
       fill-rule="nonzero"
       id="path21074" />
    <path
       fill="#b6d7a8"
       d="m471.76102 212.57765l25.304596 0l0 25.914062l-25.304596 0z"
       fill-rule="nonzero"
       id="path21076" />
    <path
       stroke="#666666"
       stroke-width="2.0"
       stroke-linejoin="round"
       stroke-linecap="butt"
       d="m471.76102 212.57765l25.304596 0l0 25.914062l-25.304596 0z"
       fill-rule="nonzero"
       id="path21078" />
    <path
       fill="#ea9999"
       d="m406.85544 280.92938l25.304596 0l0 25.914062l-25.304596 0z"
       fill-rule="nonzero"
       id="path21080" />
    <path
       stroke="#666666"
       stroke-width="2.0"
       stroke-linejoin="round"
       stroke-linecap="butt"
       d="m406.85544 280.92938l25.304596 0l0 25.914062l-25.304596 0z"
       fill-rule="nonzero"
       id="path21082" />
    <path
       fill="#d5a6bd"
       d="m439.30823 280.92938l25.304596 0l0 25.914062l-25.304596 0z"
       fill-rule="nonzero"
       id="path21084" />
    <path
       stroke="#666666"
       stroke-width="2.0"
       stroke-linejoin="round"
       stroke-linecap="butt"
       d="m439.30823 280.92938l25.304596 0l0 25.914062l-25.304596 0z"
       fill-rule="nonzero"
       id="path21086" />
    <path
       fill="#a2c4c9"
       d="m525.30096 346.45193l25.304565 0l0 25.914093l-25.304565 0z"
       fill-rule="nonzero"
       id="path21088" />
    <path
       stroke="#666666"
       stroke-width="2.0"
       stroke-linejoin="round"
       stroke-linecap="butt"
       d="m525.30096 346.45193l25.304565 0l0 25.914093l-25.304565 0z"
       fill-rule="nonzero"
       id="path21090" />
    <path
       fill="#ffe599"
       d="m490.47235 346.45193l25.304565 0l0 25.914093l-25.304565 0z"
       fill-rule="nonzero"
       id="path21092" />
    <path
       stroke="#666666"
       stroke-width="2.0"
       stroke-linejoin="round"
       stroke-linecap="butt"
       d="m490.47235 346.45193l25.304565 0l0 25.914093l-25.304565 0z"
       fill-rule="nonzero"
       id="path21094" />
    <path
       fill="#cccccc"
       d="m694.4593 397.06824l113.66931 0l0 66.299225l-113.66931 0z"
       fill-rule="nonzero"
       id="path21096" />
    <path
       stroke="#666666"
       stroke-width="2.0"
       stroke-linejoin="round"
       stroke-linecap="butt"
       d="m694.4593 397.06824l113.66931 0l0 66.299225l-113.66931 0z"
       fill-rule="nonzero"
       id="path21098" />
    <path
       fill="#cccccc"
       d="m667.7454 488.35434l28.0766 -24.986877l112.30658 0l-28.07666 24.986877z"
       fill-rule="nonzero"
       id="path21100" />
    <path
       stroke="#666666"
       stroke-width="2.0"
       stroke-linejoin="round"
       stroke-linecap="butt"
       d="m667.7454 488.35434l28.0766 -24.986877l112.30658 0l-28.07666 24.986877z"
       fill-rule="nonzero"
       id="path21102" />
    <path
       fill="#434343"
       d="m699.6273 403.95276l104.22046 0l0 45.66928l-104.22046 0z"
       fill-rule="nonzero"
       id="path21104" />
    <path
       stroke="#666666"
       stroke-width="2.0"
       stroke-linejoin="round"
       stroke-linecap="butt"
       d="m699.6273 403.95276l104.22046 0l0 45.66928l-104.22046 0z"
       fill-rule="nonzero"
       id="path21106" />
    <path
       fill="#000000"
       fill-opacity="0.0"
       d="m699.6273 407.39896l104.22046 0l0 38.771637l-104.22046 0z"
       fill-rule="nonzero"
       id="path21108" />
    <path
       fill="#000000"
       d="m711.90857 420.15707l0 3.84375q0 0.421875 -0.125 0.734375q-0.109375 0.328125 -0.328125 0.546875q-0.21875 0.21875 -0.546875 0.328125q-0.3125 0.109375 -0.703125 0.109375q-0.296875 0 -0.578125 -0.0625q-0.265625 -0.046875 -0.484375 -0.140625l0 -0.640625q0.125 0.0625 0.25 0.109375q0.140625 0.046875 0.28125 0.078125q0.15625 0.046875 0.296875 0.0625q0.15625 0.015625 0.296875 0.015625q0.453125 0 0.703125 -0.28125q0.25 -0.28125 0.25 -0.828125l0 -3.3125l-1.921875 0l0 -0.5625l2.609375 0zm-0.40625 -1.640625q0.109375 0 0.203125 0.046875q0.109375 0.03125 0.171875 0.109375q0.078125 0.0625 0.109375 0.171875q0.046875 0.09375 0.046875 0.203125q0 0.109375 -0.046875 0.203125q-0.03125 0.09375 -0.109375 0.171875q-0.0625 0.078125 -0.171875 0.125q-0.09375 0.03125 -0.203125 0.03125q-0.109375 0 -0.21875 -0.03125q-0.09375 -0.046875 -0.171875 -0.125q-0.0625 -0.078125 -0.109375 -0.171875q-0.03125 -0.09375 -0.03125 -0.203125q0 -0.109375 0.03125 -0.203125q0.046875 -0.109375 0.109375 -0.171875q0.078125 -0.078125 0.171875 -0.109375q0.109375 -0.046875 0.21875 -0.046875zm4.6640625 5.5625l-0.015625 -0.53125q-0.3125 0.3125 -0.640625 0.46875q-0.328125 0.140625 -0.703125 0.140625q-0.328125 0 -0.578125 -0.09375q-0.234375 -0.09375 -0.390625 -0.234375q-0.140625 -0.15625 -0.21875 -0.359375q-0.078125 -0.203125 -0.078125 -0.4375q0 -0.59375 0.4375 -0.921875q0.453125 -0.34375 1.3125 -0.34375l0.8125 0l0 -0.34375q0 -0.34375 -0.234375 -0.546875q-0.21875 -0.21875 -0.671875 -0.21875q-0.328125 0 -0.65625 0.078125q-0.328125 0.078125 -0.671875 0.21875l0 -0.625q0.140625 -0.046875 0.296875 -0.078125q0.15625 -0.046875 0.328125 -0.078125q0.171875 -0.046875 0.359375 -0.0625q0.203125 -0.03125 0.390625 -0.03125q0.359375 0 0.640625 0.078125q0.296875 0.078125 0.484375 0.25q0.203125 0.15625 0.296875 0.40625q0.109375 0.234375 0.109375 0.5625l0 2.703125l-0.609375 0zm-0.0625 -1.78125l-0.875 0q-0.25 0 -0.4375 0.046875q-0.171875 0.046875 -0.296875 0.140625q-0.109375 0.09375 -0.171875 0.234375q-0.0625 0.125 -0.0625 0.28125q0 0.125 0.03125 0.234375q0.046875 0.09375 0.125 0.171875q0.078125 0.078125 0.203125 0.125q0.125 0.046875 0.296875 0.046875q0.234375 0 0.53125 -0.140625q0.3125 -0.140625 0.65625 -0.453125l0 -0.6875zm1.5859375 -2.140625l0.765625 0l0.96875 2.59375l0.203125 0.625l0.21875 -0.640625l0.953125 -2.578125l0.734375 0l-1.53125 3.921875l-0.78125 0l-1.53125 -3.921875zm7.2734375 3.921875l-0.015625 -0.53125q-0.3125 0.3125 -0.640625 0.46875q-0.328125 0.140625 -0.703125 0.140625q-0.328125 0 -0.578125 -0.09375q-0.234375 -0.09375 -0.390625 -0.234375q-0.140625 -0.15625 -0.21875 -0.359375q-0.078125 -0.203125 -0.078125 -0.4375q0 -0.59375 0.4375 -0.921875q0.453125 -0.34375 1.3125 -0.34375l0.8125 0l0 -0.34375q0 -0.34375 -0.234375 -0.546875q-0.21875 -0.21875 -0.671875 -0.21875q-0.328125 0 -0.65625 0.078125q-0.328125 0.078125 -0.671875 0.21875l0 -0.625q0.140625 -0.046875 0.296875 -0.078125q0.15625 -0.046875 0.328125 -0.078125q0.171875 -0.046875 0.359375 -0.0625q0.203125 -0.03125 0.390625 -0.03125q0.359375 0 0.640625 0.078125q0.296875 0.078125 0.484375 0.25q0.203125 0.15625 0.296875 0.40625q0.109375 0.234375 0.109375 0.5625l0 2.703125l-0.609375 0zm-0.0625 -1.78125l-0.875 0q-0.25 0 -0.4375 0.046875q-0.171875 0.046875 -0.296875 0.140625q-0.109375 0.09375 -0.171875 0.234375q-0.0625 0.125 -0.0625 0.28125q0 0.125 0.03125 0.234375q0.046875 0.09375 0.125 0.171875q0.078125 0.078125 0.203125 0.125q0.125 0.046875 0.296875 0.046875q0.234375 0 0.53125 -0.140625q0.3125 -0.140625 0.65625 -0.453125l0 -0.6875zm4.9921875 1.640625q-0.265625 0.09375 -0.546875 0.140625q-0.28125 0.0625 -0.578125 0.0625q-0.921875 0 -1.421875 -0.5q-0.5 -0.515625 -0.5 -1.484375q0 -0.46875 0.140625 -0.84375q0.140625 -0.375 0.40625 -0.640625q0.265625 -0.28125 0.625 -0.421875q0.359375 -0.15625 0.796875 -0.15625q0.3125 0 0.578125 0.046875q0.265625 0.046875 0.5 0.140625l0 0.65625q-0.25 -0.140625 -0.515625 -0.203125q-0.265625 -0.0625 -0.546875 -0.0625q-0.265625 0 -0.5 0.109375q-0.21875 0.09375 -0.40625 0.28125q-0.171875 0.1875 -0.28125 0.46875q-0.09375 0.265625 -0.09375 0.59375q0 0.71875 0.34375 1.078125q0.34375 0.34375 0.96875 0.34375q0.265625 0 0.53125 -0.0625q0.265625 -0.0625 0.5 -0.1875l0 0.640625zm8.90625 0.140625l-0.6875 0l0 -2.5q0 -0.453125 -0.171875 -0.671875q-0.15625 -0.234375 -0.484375 -0.234375q-0.125 0 -0.25 0.046875q-0.125 0.03125 -0.25 0.125q-0.125 0.078125 -0.28125 0.234375q-0.15625 0.15625 -0.34375 0.390625l0 2.609375l-0.6875 0l0 -5.515625l0.6875 0l0 1.59375l-0.03125 0.609375q0.15625 -0.1875 0.3125 -0.3125q0.15625 -0.140625 0.3125 -0.21875q0.15625 -0.078125 0.3125 -0.109375q0.15625 -0.046875 0.328125 -0.046875q0.59375 0 0.90625 0.359375q0.328125 0.359375 0.328125 1.078125l0 2.5625zm2.5859375 -3.359375l-1.171875 0l0 -0.5625l1.859375 0l0 3.359375l1.15625 0l0 0.5625l-3.140625 0l0 -0.5625l1.296875 0l0 -2.796875zm0.234375 -2.203125q0.109375 0 0.203125 0.046875q0.109375 0.03125 0.171875 0.109375q0.078125 0.0625 0.109375 0.171875q0.046875 0.09375 0.046875 0.203125q0 0.109375 -0.046875 0.203125q-0.03125 0.09375 -0.109375 0.171875q-0.0625 0.078125 -0.171875 0.125q-0.09375 0.03125 -0.203125 0.03125q-0.109375 0 -0.21875 -0.03125q-0.09375 -0.046875 -0.171875 -0.125q-0.0625 -0.078125 -0.109375 -0.171875q-0.03125 -0.09375 -0.03125 -0.203125q0 -0.109375 0.03125 -0.203125q0.046875 -0.109375 0.109375 -0.171875q0.078125 -0.078125 0.171875 -0.109375q0.109375 -0.046875 0.21875 -0.046875zm5.9765625 5.5q-0.21875 0.0625 -0.46875 0.09375q-0.25 0.03125 -0.5 0.03125q-0.734375 0 -1.109375 -0.328125q-0.359375 -0.34375 -0.359375 -1.046875l0 -2.046875l-1.09375 0l0 -0.5625l1.09375 0l0 -1.078125l0.6875 -0.171875l0 1.25l1.75 0l0 0.5625l-1.75 0l0 2.0q0 0.421875 0.21875 0.640625q0.21875 0.203125 0.65625 0.203125q0.1875 0 0.40625 -0.03125q0.234375 -0.03125 0.46875 -0.09375l0 0.578125zm4.3984375 0.0625l-0.6875 0l0 -2.5q0 -0.453125 -0.171875 -0.671875q-0.15625 -0.234375 -0.484375 -0.234375q-0.125 0 -0.25 0.046875q-0.125 0.03125 -0.25 0.125q-0.125 0.078125 -0.28125 0.234375q-0.15625 0.15625 -0.34375 0.390625l0 2.609375l-0.6875 0l0 -5.515625l0.6875 0l0 1.59375l-0.03125 0.609375q0.15625 -0.1875 0.3125 -0.3125q0.15625 -0.140625 0.3125 -0.21875q0.15625 -0.078125 0.3125 -0.109375q0.15625 -0.046875 0.328125 -0.046875q0.59375 0 0.90625 0.359375q0.328125 0.359375 0.328125 1.078125l0 2.5625zm4.5546875 -2.171875q0 0.140625 0 0.25q0 0.09375 -0.015625 0.171875l-2.75 0q0 0.609375 0.328125 0.9375q0.34375 0.3125 0.96875 0.3125q0.171875 0 0.34375 -0.015625q0.171875 -0.015625 0.328125 -0.03125q0.171875 -0.03125 0.3125 -0.046875q0.15625 -0.03125 0.28125 -0.078125l0 0.5625q-0.28125 0.078125 -0.640625 0.125q-0.34375 0.0625 -0.71875 0.0625q-0.5 0 -0.875 -0.140625q-0.359375 -0.140625 -0.59375 -0.390625q-0.21875 -0.265625 -0.34375 -0.640625q-0.109375 -0.390625 -0.109375 -0.859375q0 -0.421875 0.125 -0.78125q0.125 -0.375 0.34375 -0.65625q0.234375 -0.28125 0.5625 -0.4375q0.328125 -0.171875 0.75 -0.171875q0.421875 0 0.734375 0.140625q0.3125 0.125 0.53125 0.359375q0.21875 0.234375 0.328125 0.578125q0.109375 0.328125 0.109375 0.75zm-0.703125 -0.09375q0.015625 -0.265625 -0.046875 -0.484375q-0.0625 -0.21875 -0.203125 -0.375q-0.125 -0.15625 -0.328125 -0.234375q-0.1875 -0.09375 -0.453125 -0.09375q-0.21875 0 -0.40625 0.09375q-0.171875 0.078125 -0.3125 0.234375q-0.125 0.15625 -0.21875 0.375q-0.078125 0.21875 -0.09375 0.484375l2.0625 0zm1.9453125 -1.65625l0.625 0l0.015625 0.71875q0.359375 -0.421875 0.6875 -0.609375q0.34375 -0.1875 0.6875 -0.1875q0.609375 0 0.921875 0.40625q0.3125 0.390625 0.296875 1.171875l-0.6875 0q0 -0.515625 -0.15625 -0.75q-0.15625 -0.234375 -0.46875 -0.234375q-0.140625 0 -0.28125 0.046875q-0.140625 0.046875 -0.296875 0.15625q-0.140625 0.109375 -0.3125 0.28125q-0.15625 0.15625 -0.34375 0.40625l0 2.515625l-0.6875 0l0 -3.921875zm7.5546875 1.75q0 0.140625 0 0.25q0 0.09375 -0.015625 0.171875l-2.75 0q0 0.609375 0.328125 0.9375q0.34375 0.3125 0.96875 0.3125q0.171875 0 0.34375 -0.015625q0.171875 -0.015625 0.328125 -0.03125q0.171875 -0.03125 0.3125 -0.046875q0.15625 -0.03125 0.28125 -0.078125l0 0.5625q-0.28125 0.078125 -0.640625 0.125q-0.34375 0.0625 -0.71875 0.0625q-0.5 0 -0.875 -0.140625q-0.359375 -0.140625 -0.59375 -0.390625q-0.21875 -0.265625 -0.34375 -0.640625q-0.109375 -0.390625 -0.109375 -0.859375q0 -0.421875 0.125 -0.78125q0.125 -0.375 0.34375 -0.65625q0.234375 -0.28125 0.5625 -0.4375q0.328125 -0.171875 0.75 -0.171875q0.421875 0 0.734375 0.140625q0.3125 0.125 0.53125 0.359375q0.21875 0.234375 0.328125 0.578125q0.109375 0.328125 0.109375 0.75zm-0.703125 -0.09375q0.015625 -0.265625 -0.046875 -0.484375q-0.0625 -0.21875 -0.203125 -0.375q-0.125 -0.15625 -0.328125 -0.234375q-0.1875 -0.09375 -0.453125 -0.09375q-0.21875 0 -0.40625 0.09375q-0.171875 0.078125 -0.3125 0.234375q-0.125 0.15625 -0.21875 0.375q-0.078125 0.21875 -0.09375 0.484375l2.0625 0zm3.3359375 1.03125q0.125 0 0.25 0.0625q0.125 0.046875 0.203125 0.140625q0.09375 0.078125 0.140625 0.203125q0.046875 0.109375 0.046875 0.25q0 0.140625 -0.046875 0.265625q-0.046875 0.109375 -0.140625 0.203125q-0.078125 0.078125 -0.203125 0.125q-0.125 0.0625 -0.25 0.0625q-0.140625 0 -0.265625 -0.0625q-0.109375 -0.046875 -0.203125 -0.125q-0.078125 -0.09375 -0.140625 -0.203125q-0.046875 -0.125 -0.046875 -0.265625q0 -0.140625 0.046875 -0.25q0.0625 -0.125 0.140625 -0.203125q0.09375 -0.09375 0.203125 -0.140625q0.125 -0.0625 0.265625 -0.0625zm5.5078125 -2.6875l0 3.84375q0 0.421875 -0.125 0.734375q-0.109375 0.328125 -0.328125 0.546875q-0.21875 0.21875 -0.546875 0.328125q-0.3125 0.109375 -0.703125 0.109375q-0.296875 0 -0.578125 -0.0625q-0.265625 -0.046875 -0.484375 -0.140625l0 -0.640625q0.125 0.0625 0.25 0.109375q0.140625 0.046875 0.28125 0.078125q0.15625 0.046875 0.296875 0.0625q0.15625 0.015625 0.296875 0.015625q0.453125 0 0.703125 -0.28125q0.25 -0.28125 0.25 -0.828125l0 -3.3125l-1.921875 0l0 -0.5625l2.609375 0zm-0.40625 -1.640625q0.109375 0 0.203125 0.046875q0.109375 0.03125 0.171875 0.109375q0.078125 0.0625 0.109375 0.171875q0.046875 0.09375 0.046875 0.203125q0 0.109375 -0.046875 0.203125q-0.03125 0.09375 -0.109375 0.171875q-0.0625 0.078125 -0.171875 0.125q-0.09375 0.03125 -0.203125 0.03125q-0.109375 0 -0.21875 -0.03125q-0.09375 -0.046875 -0.171875 -0.125q-0.0625 -0.078125 -0.109375 -0.171875q-0.03125 -0.09375 -0.03125 -0.203125q0 -0.109375 0.03125 -0.203125q0.046875 -0.109375 0.109375 -0.171875q0.078125 -0.078125 0.171875 -0.109375q0.109375 -0.046875 0.21875 -0.046875zm4.6640625 5.5625l-0.015625 -0.53125q-0.3125 0.3125 -0.640625 0.46875q-0.328125 0.140625 -0.703125 0.140625q-0.328125 0 -0.578125 -0.09375q-0.234375 -0.09375 -0.390625 -0.234375q-0.140625 -0.15625 -0.21875 -0.359375q-0.078125 -0.203125 -0.078125 -0.4375q0 -0.59375 0.4375 -0.921875q0.453125 -0.34375 1.3125 -0.34375l0.8125 0l0 -0.34375q0 -0.34375 -0.234375 -0.546875q-0.21875 -0.21875 -0.671875 -0.21875q-0.328125 0 -0.65625 0.078125q-0.328125 0.078125 -0.671875 0.21875l0 -0.625q0.140625 -0.046875 0.296875 -0.078125q0.15625 -0.046875 0.328125 -0.078125q0.171875 -0.046875 0.359375 -0.0625q0.203125 -0.03125 0.390625 -0.03125q0.359375 0 0.640625 0.078125q0.296875 0.078125 0.484375 0.25q0.203125 0.15625 0.296875 0.40625q0.109375 0.234375 0.109375 0.5625l0 2.703125l-0.609375 0zm-0.0625 -1.78125l-0.875 0q-0.25 0 -0.4375 0.046875q-0.171875 0.046875 -0.296875 0.140625q-0.109375 0.09375 -0.171875 0.234375q-0.0625 0.125 -0.0625 0.28125q0 0.125 0.03125 0.234375q0.046875 0.09375 0.125 0.171875q0.078125 0.078125 0.203125 0.125q0.125 0.046875 0.296875 0.046875q0.234375 0 0.53125 -0.140625q0.3125 -0.140625 0.65625 -0.453125l0 -0.6875zm1.5859375 -2.140625l0.765625 0l0.96875 2.59375l0.203125 0.625l0.21875 -0.640625l0.953125 -2.578125l0.734375 0l-1.53125 3.921875l-0.78125 0l-1.53125 -3.921875zm7.2734375 3.921875l-0.015625 -0.53125q-0.3125 0.3125 -0.640625 0.46875q-0.328125 0.140625 -0.703125 0.140625q-0.328125 0 -0.578125 -0.09375q-0.234375 -0.09375 -0.390625 -0.234375q-0.140625 -0.15625 -0.21875 -0.359375q-0.078125 -0.203125 -0.078125 -0.4375q0 -0.59375 0.4375 -0.921875q0.453125 -0.34375 1.3125 -0.34375l0.8125 0l0 -0.34375q0 -0.34375 -0.234375 -0.546875q-0.21875 -0.21875 -0.671875 -0.21875q-0.328125 0 -0.65625 0.078125q-0.328125 0.078125 -0.671875 0.21875l0 -0.625q0.140625 -0.046875 0.296875 -0.078125q0.15625 -0.046875 0.328125 -0.078125q0.171875 -0.046875 0.359375 -0.0625q0.203125 -0.03125 0.390625 -0.03125q0.359375 0 0.640625 0.078125q0.296875 0.078125 0.484375 0.25q0.203125 0.15625 0.296875 0.40625q0.109375 0.234375 0.109375 0.5625l0 2.703125l-0.609375 0zm-0.0625 -1.78125l-0.875 0q-0.25 0 -0.4375 0.046875q-0.171875 0.046875 -0.296875 0.140625q-0.109375 0.09375 -0.171875 0.234375q-0.0625 0.125 -0.0625 0.28125q0 0.125 0.03125 0.234375q0.046875 0.09375 0.125 0.171875q0.078125 0.078125 0.203125 0.125q0.125 0.046875 0.296875 0.046875q0.234375 0 0.53125 -0.140625q0.3125 -0.140625 0.65625 -0.453125l0 -0.6875z"
       fill-rule="nonzero"
       id="path21110" />
    <path
       fill="#cccccc"
       d="m728.92914 188.57217l113.66931 0l0 66.299225l-113.66931 0z"
       fill-rule="nonzero"
       id="path21112" />
    <path
       stroke="#666666"
       stroke-width="2.0"
       stroke-linejoin="round"
       stroke-linecap="butt"
       d="m728.92914 188.57217l113.66931 0l0 66.299225l-113.66931 0z"
       fill-rule="nonzero"
       id="path21114" />
    <path
       fill="#cccccc"
       d="m702.2152 279.85828l28.07666 -24.986893l112.30658 0l-28.07666 24.986893z"
       fill-rule="nonzero"
       id="path21116" />
    <path
       stroke="#666666"
       stroke-width="2.0"
       stroke-linejoin="round"
       stroke-linecap="butt"
       d="m702.2152 279.85828l28.07666 -24.986893l112.30658 0l-28.07666 24.986893z"
       fill-rule="nonzero"
       id="path21118" />
    <path
       fill="#434343"
       d="m734.0971 195.4567l104.22046 0l0 45.66928l-104.22046 0z"
       fill-rule="nonzero"
       id="path21120" />
    <path
       stroke="#666666"
       stroke-width="2.0"
       stroke-linejoin="round"
       stroke-linecap="butt"
       d="m734.0971 195.4567l104.22046 0l0 45.66928l-104.22046 0z"
       fill-rule="nonzero"
       id="path21122" />
    <path
       fill="#000000"
       fill-opacity="0.0"
       d="m734.0971 198.9029l104.22046 0l0 38.771652l-104.22046 0z"
       fill-rule="nonzero"
       id="path21124" />
    <path
       fill="#000000"
       d="m746.55023 212.20789q0.109375 0.140625 0.171875 0.328125q0.0625 0.171875 0.0625 0.390625q0 0.296875 -0.125 0.5625q-0.109375 0.25 -0.3125 0.4375q-0.203125 0.171875 -0.484375 0.265625q-0.28125 0.09375 -0.625 0.09375q-0.234375 0 -0.453125 -0.046875q-0.21875 -0.046875 -0.34375 -0.125q-0.078125 0.109375 -0.125 0.203125q-0.046875 0.09375 -0.046875 0.21875q0 0.140625 0.140625 0.25q0.140625 0.09375 0.375 0.09375l1.03125 0.046875q0.296875 0 0.546875 0.078125q0.25 0.0625 0.421875 0.1875q0.171875 0.125 0.265625 0.3125q0.109375 0.1875 0.109375 0.421875q0 0.265625 -0.109375 0.5q-0.109375 0.234375 -0.359375 0.40625q-0.234375 0.1875 -0.59375 0.28125q-0.359375 0.109375 -0.859375 0.109375q-0.484375 0 -0.8125 -0.078125q-0.328125 -0.078125 -0.546875 -0.21875q-0.21875 -0.125 -0.3125 -0.3125q-0.09375 -0.1875 -0.09375 -0.40625q0 -0.28125 0.125 -0.5q0.140625 -0.21875 0.40625 -0.421875q-0.09375 -0.046875 -0.171875 -0.109375q-0.078125 -0.078125 -0.125 -0.15625q-0.046875 -0.078125 -0.078125 -0.171875q-0.015625 -0.09375 -0.015625 -0.1875q0 -0.25 0.125 -0.453125q0.125 -0.21875 0.28125 -0.40625q-0.078125 -0.09375 -0.140625 -0.171875q-0.046875 -0.09375 -0.09375 -0.1875q-0.03125 -0.109375 -0.0625 -0.21875q-0.015625 -0.125 -0.015625 -0.265625q0 -0.3125 0.109375 -0.5625q0.109375 -0.25 0.3125 -0.421875q0.203125 -0.1875 0.484375 -0.28125q0.28125 -0.109375 0.625 -0.109375q0.15625 0 0.28125 0.03125q0.140625 0.015625 0.234375 0.046875l1.421875 0l0 0.546875l-0.625 0zm-2.359375 3.9375q0 0.28125 0.28125 0.40625q0.296875 0.125 0.8125 0.125q0.328125 0 0.546875 -0.0625q0.21875 -0.046875 0.34375 -0.140625q0.140625 -0.09375 0.203125 -0.21875q0.0625 -0.125 0.0625 -0.25q0 -0.25 -0.203125 -0.359375q-0.1875 -0.109375 -0.59375 -0.140625l-1.03125 -0.03125q-0.125 0.09375 -0.21875 0.171875q-0.078125 0.078125 -0.125 0.15625q-0.046875 0.09375 -0.0625 0.171875q-0.015625 0.09375 -0.015625 0.171875zm0.203125 -3.203125q0 0.1875 0.0625 0.34375q0.0625 0.15625 0.171875 0.265625q0.125 0.109375 0.265625 0.171875q0.15625 0.0625 0.34375 0.0625q0.203125 0 0.359375 -0.0625q0.171875 -0.078125 0.265625 -0.1875q0.109375 -0.125 0.171875 -0.28125q0.0625 -0.15625 0.0625 -0.3125q0 -0.1875 -0.0625 -0.34375q-0.0625 -0.15625 -0.1875 -0.265625q-0.109375 -0.109375 -0.265625 -0.171875q-0.15625 -0.0625 -0.34375 -0.0625q-0.203125 0 -0.359375 0.078125q-0.15625 0.0625 -0.265625 0.1875q-0.109375 0.109375 -0.171875 0.265625q-0.046875 0.140625 -0.046875 0.3125zm5.0703125 -0.71875l-1.171875 0l0 -0.5625l1.859375 0l0 3.359375l1.15625 0l0 0.5625l-3.140625 0l0 -0.5625l1.296875 0l0 -2.796875zm0.234375 -2.203125q0.109375 0 0.203125 0.046875q0.109375 0.03125 0.171875 0.109375q0.078125 0.0625 0.109375 0.171875q0.046875 0.09375 0.046875 0.203125q0 0.109375 -0.046875 0.203125q-0.03125 0.09375 -0.109375 0.171875q-0.0625 0.078125 -0.171875 0.125q-0.09375 0.03125 -0.203125 0.03125q-0.109375 0 -0.21875 -0.03125q-0.09375 -0.046875 -0.171875 -0.125q-0.0625 -0.078125 -0.109375 -0.171875q-0.03125 -0.09375 -0.03125 -0.203125q0 -0.109375 0.03125 -0.203125q0.046875 -0.109375 0.109375 -0.171875q0.078125 -0.078125 0.171875 -0.109375q0.109375 -0.046875 0.21875 -0.046875zm5.9765625 5.5q-0.21875 0.0625 -0.46875 0.09375q-0.25 0.03125 -0.5 0.03125q-0.734375 0 -1.109375 -0.328125q-0.359375 -0.34375 -0.359375 -1.046875l0 -2.046875l-1.09375 0l0 -0.5625l1.09375 0l0 -1.078125l0.6875 -0.171875l0 1.25l1.75 0l0 0.5625l-1.75 0l0 2.0q0 0.421875 0.21875 0.640625q0.21875 0.203125 0.65625 0.203125q0.1875 0 0.40625 -0.03125q0.234375 -0.03125 0.46875 -0.09375l0 0.578125zm8.6875 -0.078125q-0.265625 0.09375 -0.546875 0.140625q-0.28125 0.0625 -0.578125 0.0625q-0.921875 0 -1.421875 -0.5q-0.5 -0.515625 -0.5 -1.484375q0 -0.46875 0.140625 -0.84375q0.140625 -0.375 0.40625 -0.640625q0.265625 -0.28125 0.625 -0.421875q0.359375 -0.15625 0.796875 -0.15625q0.3125 0 0.578125 0.046875q0.265625 0.046875 0.5 0.140625l0 0.65625q-0.25 -0.140625 -0.515625 -0.203125q-0.265625 -0.0625 -0.546875 -0.0625q-0.265625 0 -0.5 0.109375q-0.21875 0.09375 -0.40625 0.28125q-0.171875 0.1875 -0.28125 0.46875q-0.09375 0.265625 -0.09375 0.59375q0 0.71875 0.34375 1.078125q0.34375 0.34375 0.96875 0.34375q0.265625 0 0.53125 -0.0625q0.265625 -0.0625 0.5 -0.1875l0 0.640625zm4.7734375 -1.859375q0 0.46875 -0.140625 0.84375q-0.125 0.375 -0.375 0.65625q-0.234375 0.265625 -0.578125 0.421875q-0.34375 0.15625 -0.796875 0.15625q-0.421875 0 -0.75 -0.125q-0.328125 -0.140625 -0.5625 -0.390625q-0.234375 -0.265625 -0.359375 -0.640625q-0.125 -0.375 -0.125 -0.859375q0 -0.453125 0.125 -0.828125q0.140625 -0.390625 0.375 -0.65625q0.25 -0.265625 0.59375 -0.421875q0.34375 -0.15625 0.78125 -0.15625q0.421875 0 0.75 0.140625q0.34375 0.125 0.578125 0.375q0.234375 0.25 0.359375 0.625q0.125 0.375 0.125 0.859375zm-0.703125 0.03125q0 -0.359375 -0.078125 -0.625q-0.078125 -0.28125 -0.234375 -0.453125q-0.140625 -0.1875 -0.359375 -0.28125q-0.203125 -0.09375 -0.46875 -0.09375q-0.3125 0 -0.53125 0.125q-0.203125 0.125 -0.34375 0.328125q-0.140625 0.1875 -0.203125 0.453125q-0.0625 0.265625 -0.0625 0.546875q0 0.375 0.078125 0.65625q0.078125 0.265625 0.21875 0.453125q0.15625 0.171875 0.359375 0.265625q0.21875 0.09375 0.484375 0.09375q0.296875 0 0.515625 -0.125q0.21875 -0.125 0.359375 -0.3125q0.140625 -0.203125 0.203125 -0.46875q0.0625 -0.265625 0.0625 -0.5625zm4.4765625 1.96875l0 -2.8125q0 -0.1875 -0.015625 -0.296875q-0.015625 -0.125 -0.046875 -0.1875q-0.015625 -0.078125 -0.0625 -0.09375q-0.046875 -0.03125 -0.109375 -0.03125q-0.078125 0 -0.15625 0.046875q-0.0625 0.046875 -0.140625 0.15625q-0.078125 0.09375 -0.171875 0.265625q-0.078125 0.171875 -0.203125 0.4375l0 2.515625l-0.625 0l0 -2.75q0 -0.203125 -0.015625 -0.328125q-0.015625 -0.140625 -0.046875 -0.21875q-0.03125 -0.078125 -0.078125 -0.09375q-0.046875 -0.03125 -0.109375 -0.03125q-0.0625 0 -0.125 0.046875q-0.0625 0.03125 -0.140625 0.140625q-0.078125 0.09375 -0.171875 0.265625q-0.09375 0.171875 -0.21875 0.453125l0 2.515625l-0.625 0l0 -3.921875l0.515625 0l0.03125 0.75q0.09375 -0.234375 0.1875 -0.390625q0.109375 -0.15625 0.203125 -0.25q0.109375 -0.09375 0.21875 -0.140625q0.109375 -0.046875 0.25 -0.046875q0.328125 0 0.484375 0.21875q0.171875 0.203125 0.171875 0.640625q0.09375 -0.203125 0.171875 -0.359375q0.09375 -0.171875 0.1875 -0.265625q0.109375 -0.109375 0.234375 -0.171875q0.125 -0.0625 0.296875 -0.0625q0.734375 0 0.734375 1.140625l0 2.859375l-0.625 0zm4.3984375 0l0 -2.8125q0 -0.1875 -0.015625 -0.296875q-0.015625 -0.125 -0.046875 -0.1875q-0.015625 -0.078125 -0.0625 -0.09375q-0.046875 -0.03125 -0.109375 -0.03125q-0.078125 0 -0.15625 0.046875q-0.0625 0.046875 -0.140625 0.15625q-0.078125 0.09375 -0.171875 0.265625q-0.078125 0.171875 -0.203125 0.4375l0 2.515625l-0.625 0l0 -2.75q0 -0.203125 -0.015625 -0.328125q-0.015625 -0.140625 -0.046875 -0.21875q-0.03125 -0.078125 -0.078125 -0.09375q-0.046875 -0.03125 -0.109375 -0.03125q-0.0625 0 -0.125 0.046875q-0.0625 0.03125 -0.140625 0.140625q-0.078125 0.09375 -0.171875 0.265625q-0.09375 0.171875 -0.21875 0.453125l0 2.515625l-0.625 0l0 -3.921875l0.515625 0l0.03125 0.75q0.09375 -0.234375 0.1875 -0.390625q0.109375 -0.15625 0.203125 -0.25q0.109375 -0.09375 0.21875 -0.140625q0.109375 -0.046875 0.25 -0.046875q0.328125 0 0.484375 0.21875q0.171875 0.203125 0.171875 0.640625q0.09375 -0.203125 0.171875 -0.359375q0.09375 -0.171875 0.1875 -0.265625q0.109375 -0.109375 0.234375 -0.171875q0.125 -0.0625 0.296875 -0.0625q0.734375 0 0.734375 1.140625l0 2.859375l-0.625 0zm2.9453125 -3.359375l-1.171875 0l0 -0.5625l1.859375 0l0 3.359375l1.15625 0l0 0.5625l-3.140625 0l0 -0.5625l1.296875 0l0 -2.796875zm0.234375 -2.203125q0.109375 0 0.203125 0.046875q0.109375 0.03125 0.171875 0.109375q0.078125 0.0625 0.109375 0.171875q0.046875 0.09375 0.046875 0.203125q0 0.109375 -0.046875 0.203125q-0.03125 0.09375 -0.109375 0.171875q-0.0625 0.078125 -0.171875 0.125q-0.09375 0.03125 -0.203125 0.03125q-0.109375 0 -0.21875 -0.03125q-0.09375 -0.046875 -0.171875 -0.125q-0.0625 -0.078125 -0.109375 -0.171875q-0.03125 -0.09375 -0.03125 -0.203125q0 -0.109375 0.03125 -0.203125q0.046875 -0.109375 0.109375 -0.171875q0.078125 -0.078125 0.171875 -0.109375q0.109375 -0.046875 0.21875 -0.046875zm5.9765625 5.5q-0.21875 0.0625 -0.46875 0.09375q-0.25 0.03125 -0.5 0.03125q-0.734375 0 -1.109375 -0.328125q-0.359375 -0.34375 -0.359375 -1.046875l0 -2.046875l-1.09375 0l0 -0.5625l1.09375 0l0 -1.078125l0.6875 -0.171875l0 1.25l1.75 0l0 0.5625l-1.75 0l0 2.0q0 0.421875 0.21875 0.640625q0.21875 0.203125 0.65625 0.203125q0.1875 0 0.40625 -0.03125q0.234375 -0.03125 0.46875 -0.09375l0 0.578125z"
       fill-rule="nonzero"
       id="path21126" />
    <path
       fill="#cccccc"
       d="m172.22835 374.1811l113.6693 0l0 66.299225l-113.6693 0z"
       fill-rule="nonzero"
       id="path21128" />
    <path
       stroke="#666666"
       stroke-width="2.0"
       stroke-linejoin="round"
       stroke-linecap="butt"
       d="m172.22835 374.1811l113.6693 0l0 66.299225l-113.6693 0z"
       fill-rule="nonzero"
       id="path21130" />
    <path
       fill="#cccccc"
       d="m145.51443 465.4672l28.076645 -24.986877l112.306564 0l-28.07663 24.986877z"
       fill-rule="nonzero"
       id="path21132" />
    <path
       stroke="#666666"
       stroke-width="2.0"
       stroke-linejoin="round"
       stroke-linecap="butt"
       d="m145.51443 465.4672l28.076645 -24.986877l112.306564 0l-28.07663 24.986877z"
       fill-rule="nonzero"
       id="path21134" />
    <path
       fill="#434343"
       d="m177.39633 381.0656l104.22046 0l0 45.66928l-104.22046 0z"
       fill-rule="nonzero"
       id="path21136" />
    <path
       stroke="#666666"
       stroke-width="2.0"
       stroke-linejoin="round"
       stroke-linecap="butt"
       d="m177.39633 381.0656l104.22046 0l0 45.66928l-104.22046 0z"
       fill-rule="nonzero"
       id="path21138" />
    <path
       fill="#000000"
       fill-opacity="0.0"
       d="m177.39633 384.5118l104.22046 0l0 38.771667l-104.22046 0z"
       fill-rule="nonzero"
       id="path21140" />
    <path
       fill="#000000"
       d="m189.67758 397.26993l0 3.84375q0 0.421875 -0.125 0.734375q-0.109375 0.328125 -0.328125 0.546875q-0.21875 0.21875 -0.546875 0.328125q-0.3125 0.109375 -0.703125 0.109375q-0.296875 0 -0.578125 -0.0625q-0.265625 -0.046875 -0.484375 -0.140625l0 -0.640625q0.125 0.0625 0.25 0.109375q0.140625 0.046875 0.28125 0.078125q0.15625 0.046875 0.296875 0.0625q0.15625 0.015625 0.296875 0.015625q0.453125 0 0.703125 -0.28125q0.25 -0.28125 0.25 -0.828125l0 -3.3125l-1.921875 0l0 -0.5625l2.609375 0zm-0.40625 -1.640625q0.109375 0 0.203125 0.046875q0.109375 0.03125 0.171875 0.109375q0.078125 0.0625 0.109375 0.171875q0.046875 0.09375 0.046875 0.203125q0 0.109375 -0.046875 0.203125q-0.03125 0.09375 -0.109375 0.171875q-0.0625 0.078125 -0.171875 0.125q-0.09375 0.03125 -0.203125 0.03125q-0.109375 0 -0.21875 -0.03125q-0.09375 -0.046875 -0.171875 -0.125q-0.0625 -0.078125 -0.109375 -0.171875q-0.03125 -0.09375 -0.03125 -0.203125q0 -0.109375 0.03125 -0.203125q0.046875 -0.109375 0.109375 -0.171875q0.078125 -0.078125 0.171875 -0.109375q0.109375 -0.046875 0.21875 -0.046875zm4.6640625 5.5625l-0.015625 -0.53125q-0.3125 0.3125 -0.640625 0.46875q-0.328125 0.140625 -0.703125 0.140625q-0.328125 0 -0.578125 -0.09375q-0.234375 -0.09375 -0.390625 -0.234375q-0.140625 -0.15625 -0.21875 -0.359375q-0.078125 -0.203125 -0.078125 -0.4375q0 -0.59375 0.4375 -0.921875q0.453125 -0.34375 1.3125 -0.34375l0.8125 0l0 -0.34375q0 -0.34375 -0.234375 -0.546875q-0.21875 -0.21875 -0.671875 -0.21875q-0.328125 0 -0.65625 0.078125q-0.328125 0.078125 -0.671875 0.21875l0 -0.625q0.140625 -0.046875 0.296875 -0.078125q0.15625 -0.046875 0.328125 -0.078125q0.171875 -0.046875 0.359375 -0.0625q0.203125 -0.03125 0.390625 -0.03125q0.359375 0 0.640625 0.078125q0.296875 0.078125 0.484375 0.25q0.203125 0.15625 0.296875 0.40625q0.109375 0.234375 0.109375 0.5625l0 2.703125l-0.609375 0zm-0.0625 -1.78125l-0.875 0q-0.25 0 -0.4375 0.046875q-0.171875 0.046875 -0.296875 0.140625q-0.109375 0.09375 -0.171875 0.234375q-0.0625 0.125 -0.0625 0.28125q0 0.125 0.03125 0.234375q0.046875 0.09375 0.125 0.171875q0.078125 0.078125 0.203125 0.125q0.125 0.046875 0.296875 0.046875q0.234375 0 0.53125 -0.140625q0.3125 -0.140625 0.65625 -0.453125l0 -0.6875zm1.5859375 -2.140625l0.765625 0l0.96875 2.59375l0.203125 0.625l0.21875 -0.640625l0.953125 -2.578125l0.734375 0l-1.53125 3.921875l-0.78125 0l-1.53125 -3.921875zm7.2734375 3.921875l-0.015625 -0.53125q-0.3125 0.3125 -0.640625 0.46875q-0.328125 0.140625 -0.703125 0.140625q-0.328125 0 -0.578125 -0.09375q-0.234375 -0.09375 -0.390625 -0.234375q-0.140625 -0.15625 -0.21875 -0.359375q-0.078125 -0.203125 -0.078125 -0.4375q0 -0.59375 0.4375 -0.921875q0.453125 -0.34375 1.3125 -0.34375l0.8125 0l0 -0.34375q0 -0.34375 -0.234375 -0.546875q-0.21875 -0.21875 -0.671875 -0.21875q-0.328125 0 -0.65625 0.078125q-0.328125 0.078125 -0.671875 0.21875l0 -0.625q0.140625 -0.046875 0.296875 -0.078125q0.15625 -0.046875 0.328125 -0.078125q0.171875 -0.046875 0.359375 -0.0625q0.203125 -0.03125 0.390625 -0.03125q0.359375 0 0.640625 0.078125q0.296875 0.078125 0.484375 0.25q0.203125 0.15625 0.296875 0.40625q0.109375 0.234375 0.109375 0.5625l0 2.703125l-0.609375 0zm-0.0625 -1.78125l-0.875 0q-0.25 0 -0.4375 0.046875q-0.171875 0.046875 -0.296875 0.140625q-0.109375 0.09375 -0.171875 0.234375q-0.0625 0.125 -0.0625 0.28125q0 0.125 0.03125 0.234375q0.046875 0.09375 0.125 0.171875q0.078125 0.078125 0.203125 0.125q0.125 0.046875 0.296875 0.046875q0.234375 0 0.53125 -0.140625q0.3125 -0.140625 0.65625 -0.453125l0 -0.6875zm4.9921875 1.640625q-0.265625 0.09375 -0.546875 0.140625q-0.28125 0.0625 -0.578125 0.0625q-0.921875 0 -1.421875 -0.5q-0.5 -0.515625 -0.5 -1.484375q0 -0.46875 0.140625 -0.84375q0.140625 -0.375 0.40625 -0.640625q0.265625 -0.28125 0.625 -0.421875q0.359375 -0.15625 0.796875 -0.15625q0.3125 0 0.578125 0.046875q0.265625 0.046875 0.5 0.140625l0 0.65625q-0.25 -0.140625 -0.515625 -0.203125q-0.265625 -0.0625 -0.546875 -0.0625q-0.265625 0 -0.5 0.109375q-0.21875 0.09375 -0.40625 0.28125q-0.171875 0.1875 -0.28125 0.46875q-0.09375 0.265625 -0.09375 0.59375q0 0.71875 0.34375 1.078125q0.34375 0.34375 0.96875 0.34375q0.265625 0 0.53125 -0.0625q0.265625 -0.0625 0.5 -0.1875l0 0.640625zm7.09375 -3.21875l-1.171875 0l0 -0.5625l1.859375 0l0 3.359375l1.15625 0l0 0.5625l-3.140625 0l0 -0.5625l1.296875 0l0 -2.796875zm0.234375 -2.203125q0.109375 0 0.203125 0.046875q0.109375 0.03125 0.171875 0.109375q0.078125 0.0625 0.109375 0.171875q0.046875 0.09375 0.046875 0.203125q0 0.109375 -0.046875 0.203125q-0.03125 0.09375 -0.109375 0.171875q-0.0625 0.078125 -0.171875 0.125q-0.09375 0.03125 -0.203125 0.03125q-0.109375 0 -0.21875 -0.03125q-0.09375 -0.046875 -0.171875 -0.125q-0.0625 -0.078125 -0.109375 -0.171875q-0.03125 -0.09375 -0.03125 -0.203125q0 -0.109375 0.03125 -0.203125q0.046875 -0.109375 0.109375 -0.171875q0.078125 -0.078125 0.171875 -0.109375q0.109375 -0.046875 0.21875 -0.046875zm5.6171875 5.5625l0 -2.8125q0 -0.1875 -0.015625 -0.296875q-0.015625 -0.125 -0.046875 -0.1875q-0.015625 -0.078125 -0.0625 -0.09375q-0.046875 -0.03125 -0.109375 -0.03125q-0.078125 0 -0.15625 0.046875q-0.0625 0.046875 -0.140625 0.15625q-0.078125 0.09375 -0.171875 0.265625q-0.078125 0.171875 -0.203125 0.4375l0 2.515625l-0.625 0l0 -2.75q0 -0.203125 -0.015625 -0.328125q-0.015625 -0.140625 -0.046875 -0.21875q-0.03125 -0.078125 -0.078125 -0.09375q-0.046875 -0.03125 -0.109375 -0.03125q-0.0625 0 -0.125 0.046875q-0.0625 0.03125 -0.140625 0.140625q-0.078125 0.09375 -0.171875 0.265625q-0.09375 0.171875 -0.21875 0.453125l0 2.515625l-0.625 0l0 -3.921875l0.515625 0l0.03125 0.75q0.09375 -0.234375 0.1875 -0.390625q0.109375 -0.15625 0.203125 -0.25q0.109375 -0.09375 0.21875 -0.140625q0.109375 -0.046875 0.25 -0.046875q0.328125 0 0.484375 0.21875q0.171875 0.203125 0.171875 0.640625q0.09375 -0.203125 0.171875 -0.359375q0.09375 -0.171875 0.1875 -0.265625q0.109375 -0.109375 0.234375 -0.171875q0.125 -0.0625 0.296875 -0.0625q0.734375 0 0.734375 1.140625l0 2.859375l-0.625 0zm4.4296875 -3.375q0.109375 0.140625 0.171875 0.328125q0.0625 0.171875 0.0625 0.390625q0 0.296875 -0.125 0.5625q-0.109375 0.25 -0.3125 0.4375q-0.203125 0.171875 -0.484375 0.265625q-0.28125 0.09375 -0.625 0.09375q-0.234375 0 -0.453125 -0.046875q-0.21875 -0.046875 -0.34375 -0.125q-0.078125 0.109375 -0.125 0.203125q-0.046875 0.09375 -0.046875 0.21875q0 0.140625 0.140625 0.25q0.140625 0.09375 0.375 0.09375l1.03125 0.046875q0.296875 0 0.546875 0.078125q0.25 0.0625 0.421875 0.1875q0.171875 0.125 0.265625 0.3125q0.109375 0.1875 0.109375 0.421875q0 0.265625 -0.109375 0.5q-0.109375 0.234375 -0.359375 0.40625q-0.234375 0.1875 -0.59375 0.28125q-0.359375 0.109375 -0.859375 0.109375q-0.484375 0 -0.8125 -0.078125q-0.328125 -0.078125 -0.546875 -0.21875q-0.21875 -0.125 -0.3125 -0.3125q-0.09375 -0.1875 -0.09375 -0.40625q0 -0.28125 0.125 -0.5q0.140625 -0.21875 0.40625 -0.421875q-0.09375 -0.046875 -0.171875 -0.109375q-0.078125 -0.078125 -0.125 -0.15625q-0.046875 -0.078125 -0.078125 -0.171875q-0.015625 -0.09375 -0.015625 -0.1875q0 -0.25 0.125 -0.453125q0.125 -0.21875 0.28125 -0.40625q-0.078125 -0.09375 -0.140625 -0.171875q-0.046875 -0.09375 -0.09375 -0.1875q-0.03125 -0.109375 -0.0625 -0.21875q-0.015625 -0.125 -0.015625 -0.265625q0 -0.3125 0.109375 -0.5625q0.109375 -0.25 0.3125 -0.421875q0.203125 -0.1875 0.484375 -0.28125q0.28125 -0.109375 0.625 -0.109375q0.15625 0 0.28125 0.03125q0.140625 0.015625 0.234375 0.046875l1.421875 0l0 0.546875l-0.625 0zm-2.359375 3.9375q0 0.28125 0.28125 0.40625q0.296875 0.125 0.8125 0.125q0.328125 0 0.546875 -0.0625q0.21875 -0.046875 0.34375 -0.140625q0.140625 -0.09375 0.203125 -0.21875q0.0625 -0.125 0.0625 -0.25q0 -0.25 -0.203125 -0.359375q-0.1875 -0.109375 -0.59375 -0.140625l-1.03125 -0.03125q-0.125 0.09375 -0.21875 0.171875q-0.078125 0.078125 -0.125 0.15625q-0.046875 0.09375 -0.0625 0.171875q-0.015625 0.09375 -0.015625 0.171875zm0.203125 -3.203125q0 0.1875 0.0625 0.34375q0.0625 0.15625 0.171875 0.265625q0.125 0.109375 0.265625 0.171875q0.15625 0.0625 0.34375 0.0625q0.203125 0 0.359375 -0.0625q0.171875 -0.078125 0.265625 -0.1875q0.109375 -0.125 0.171875 -0.28125q0.0625 -0.15625 0.0625 -0.3125q0 -0.1875 -0.0625 -0.34375q-0.0625 -0.15625 -0.1875 -0.265625q-0.109375 -0.109375 -0.265625 -0.171875q-0.15625 -0.0625 -0.34375 -0.0625q-0.203125 0 -0.359375 0.078125q-0.15625 0.0625 -0.265625 0.1875q-0.109375 0.109375 -0.171875 0.265625q-0.046875 0.140625 -0.046875 0.3125zm3.8828125 -1.28125l0.625 0l0.015625 0.71875q0.359375 -0.421875 0.6875 -0.609375q0.34375 -0.1875 0.6875 -0.1875q0.609375 0 0.921875 0.40625q0.3125 0.390625 0.296875 1.171875l-0.6875 0q0 -0.515625 -0.15625 -0.75q-0.15625 -0.234375 -0.46875 -0.234375q-0.140625 0 -0.28125 0.046875q-0.140625 0.046875 -0.296875 0.15625q-0.140625 0.109375 -0.3125 0.28125q-0.15625 0.15625 -0.34375 0.40625l0 2.515625l-0.6875 0l0 -3.921875zm7.5546875 1.75q0 0.140625 0 0.25q0 0.09375 -0.015625 0.171875l-2.75 0q0 0.609375 0.328125 0.9375q0.34375 0.3125 0.96875 0.3125q0.171875 0 0.34375 -0.015625q0.171875 -0.015625 0.328125 -0.03125q0.171875 -0.03125 0.3125 -0.046875q0.15625 -0.03125 0.28125 -0.078125l0 0.5625q-0.28125 0.078125 -0.640625 0.125q-0.34375 0.0625 -0.71875 0.0625q-0.5 0 -0.875 -0.140625q-0.359375 -0.140625 -0.59375 -0.390625q-0.21875 -0.265625 -0.34375 -0.640625q-0.109375 -0.390625 -0.109375 -0.859375q0 -0.421875 0.125 -0.78125q0.125 -0.375 0.34375 -0.65625q0.234375 -0.28125 0.5625 -0.4375q0.328125 -0.171875 0.75 -0.171875q0.421875 0 0.734375 0.140625q0.3125 0.125 0.53125 0.359375q0.21875 0.234375 0.328125 0.578125q0.109375 0.328125 0.109375 0.75zm-0.703125 -0.09375q0.015625 -0.265625 -0.046875 -0.484375q-0.0625 -0.21875 -0.203125 -0.375q-0.125 -0.15625 -0.328125 -0.234375q-0.1875 -0.09375 -0.453125 -0.09375q-0.21875 0 -0.40625 0.09375q-0.171875 0.078125 -0.3125 0.234375q-0.125 0.15625 -0.21875 0.375q-0.078125 0.21875 -0.09375 0.484375l2.0625 0zm4.3046875 2.265625l-0.015625 -0.53125q-0.3125 0.3125 -0.640625 0.46875q-0.328125 0.140625 -0.703125 0.140625q-0.328125 0 -0.578125 -0.09375q-0.234375 -0.09375 -0.390625 -0.234375q-0.140625 -0.15625 -0.21875 -0.359375q-0.078125 -0.203125 -0.078125 -0.4375q0 -0.59375 0.4375 -0.921875q0.453125 -0.34375 1.3125 -0.34375l0.8125 0l0 -0.34375q0 -0.34375 -0.234375 -0.546875q-0.21875 -0.21875 -0.671875 -0.21875q-0.328125 0 -0.65625 0.078125q-0.328125 0.078125 -0.671875 0.21875l0 -0.625q0.140625 -0.046875 0.296875 -0.078125q0.15625 -0.046875 0.328125 -0.078125q0.171875 -0.046875 0.359375 -0.0625q0.203125 -0.03125 0.390625 -0.03125q0.359375 0 0.640625 0.078125q0.296875 0.078125 0.484375 0.25q0.203125 0.15625 0.296875 0.40625q0.109375 0.234375 0.109375 0.5625l0 2.703125l-0.609375 0zm-0.0625 -1.78125l-0.875 0q-0.25 0 -0.4375 0.046875q-0.171875 0.046875 -0.296875 0.140625q-0.109375 0.09375 -0.171875 0.234375q-0.0625 0.125 -0.0625 0.28125q0 0.125 0.03125 0.234375q0.046875 0.09375 0.125 0.171875q0.078125 0.078125 0.203125 0.125q0.125 0.046875 0.296875 0.046875q0.234375 0 0.53125 -0.140625q0.3125 -0.140625 0.65625 -0.453125l0 -0.6875zm5.1015625 1.71875q-0.21875 0.0625 -0.46875 0.09375q-0.25 0.03125 -0.5 0.03125q-0.734375 0 -1.109375 -0.328125q-0.359375 -0.34375 -0.359375 -1.046875l0 -2.046875l-1.09375 0l0 -0.5625l1.09375 0l0 -1.078125l0.6875 -0.171875l0 1.25l1.75 0l0 0.5625l-1.75 0l0 2.0q0 0.421875 0.21875 0.640625q0.21875 0.203125 0.65625 0.203125q0.1875 0 0.40625 -0.03125q0.234375 -0.03125 0.46875 -0.09375l0 0.578125zm2.7890625 -1.171875q0.125 0 0.25 0.0625q0.125 0.046875 0.203125 0.140625q0.09375 0.078125 0.140625 0.203125q0.046875 0.109375 0.046875 0.25q0 0.140625 -0.046875 0.265625q-0.046875 0.109375 -0.140625 0.203125q-0.078125 0.078125 -0.203125 0.125q-0.125 0.0625 -0.25 0.0625q-0.140625 0 -0.265625 -0.0625q-0.109375 -0.046875 -0.203125 -0.125q-0.078125 -0.09375 -0.140625 -0.203125q-0.046875 -0.125 -0.046875 -0.265625q0 -0.140625 0.046875 -0.25q0.0625 -0.125 0.140625 -0.203125q0.09375 -0.09375 0.203125 -0.140625q0.125 -0.0625 0.265625 -0.0625zm5.5078125 -2.6875l0 3.84375q0 0.421875 -0.125 0.734375q-0.109375 0.328125 -0.328125 0.546875q-0.21875 0.21875 -0.546875 0.328125q-0.3125 0.109375 -0.703125 0.109375q-0.296875 0 -0.578125 -0.0625q-0.265625 -0.046875 -0.484375 -0.140625l0 -0.640625q0.125 0.0625 0.25 0.109375q0.140625 0.046875 0.28125 0.078125q0.15625 0.046875 0.296875 0.0625q0.15625 0.015625 0.296875 0.015625q0.453125 0 0.703125 -0.28125q0.25 -0.28125 0.25 -0.828125l0 -3.3125l-1.921875 0l0 -0.5625l2.609375 0zm-0.40625 -1.640625q0.109375 0 0.203125 0.046875q0.109375 0.03125 0.171875 0.109375q0.078125 0.0625 0.109375 0.171875q0.046875 0.09375 0.046875 0.203125q0 0.109375 -0.046875 0.203125q-0.03125 0.09375 -0.109375 0.171875q-0.0625 0.078125 -0.171875 0.125q-0.09375 0.03125 -0.203125 0.03125q-0.109375 0 -0.21875 -0.03125q-0.09375 -0.046875 -0.171875 -0.125q-0.0625 -0.078125 -0.109375 -0.171875q-0.03125 -0.09375 -0.03125 -0.203125q0 -0.109375 0.03125 -0.203125q0.046875 -0.109375 0.109375 -0.171875q0.078125 -0.078125 0.171875 -0.109375q0.109375 -0.046875 0.21875 -0.046875zm4.6640625 5.5625l-0.015625 -0.53125q-0.3125 0.3125 -0.640625 0.46875q-0.328125 0.140625 -0.703125 0.140625q-0.328125 0 -0.578125 -0.09375q-0.234375 -0.09375 -0.390625 -0.234375q-0.140625 -0.15625 -0.21875 -0.359375q-0.078125 -0.203125 -0.078125 -0.4375q0 -0.59375 0.4375 -0.921875q0.453125 -0.34375 1.3125 -0.34375l0.8125 0l0 -0.34375q0 -0.34375 -0.234375 -0.546875q-0.21875 -0.21875 -0.671875 -0.21875q-0.328125 0 -0.65625 0.078125q-0.328125 0.078125 -0.671875 0.21875l0 -0.625q0.140625 -0.046875 0.296875 -0.078125q0.15625 -0.046875 0.328125 -0.078125q0.171875 -0.046875 0.359375 -0.0625q0.203125 -0.03125 0.390625 -0.03125q0.359375 0 0.640625 0.078125q0.296875 0.078125 0.484375 0.25q0.203125 0.15625 0.296875 0.40625q0.109375 0.234375 0.109375 0.5625l0 2.703125l-0.609375 0zm-0.0625 -1.78125l-0.875 0q-0.25 0 -0.4375 0.046875q-0.171875 0.046875 -0.296875 0.140625q-0.109375 0.09375 -0.171875 0.234375q-0.0625 0.125 -0.0625 0.28125q0 0.125 0.03125 0.234375q0.046875 0.09375 0.125 0.171875q0.078125 0.078125 0.203125 0.125q0.125 0.046875 0.296875 0.046875q0.234375 0 0.53125 -0.140625q0.3125 -0.140625 0.65625 -0.453125l0 -0.6875zm1.5859375 -2.140625l0.765625 0l0.96875 2.59375l0.203125 0.625l0.21875 -0.640625l0.953125 -2.578125l0.734375 0l-1.53125 3.921875l-0.78125 0l-1.53125 -3.921875zm7.2734375 3.921875l-0.015625 -0.53125q-0.3125 0.3125 -0.640625 0.46875q-0.328125 0.140625 -0.703125 0.140625q-0.328125 0 -0.578125 -0.09375q-0.234375 -0.09375 -0.390625 -0.234375q-0.140625 -0.15625 -0.21875 -0.359375q-0.078125 -0.203125 -0.078125 -0.4375q0 -0.59375 0.4375 -0.921875q0.453125 -0.34375 1.3125 -0.34375l0.8125 0l0 -0.34375q0 -0.34375 -0.234375 -0.546875q-0.21875 -0.21875 -0.671875 -0.21875q-0.328125 0 -0.65625 0.078125q-0.328125 0.078125 -0.671875 0.21875l0 -0.625q0.140625 -0.046875 0.296875 -0.078125q0.15625 -0.046875 0.328125 -0.078125q0.171875 -0.046875 0.359375 -0.0625q0.203125 -0.03125 0.390625 -0.03125q0.359375 0 0.640625 0.078125q0.296875 0.078125 0.484375 0.25q0.203125 0.15625 0.296875 0.40625q0.109375 0.234375 0.109375 0.5625l0 2.703125l-0.609375 0zm-0.0625 -1.78125l-0.875 0q-0.25 0 -0.4375 0.046875q-0.171875 0.046875 -0.296875 0.140625q-0.109375 0.09375 -0.171875 0.234375q-0.0625 0.125 -0.0625 0.28125q0 0.125 0.03125 0.234375q0.046875 0.09375 0.125 0.171875q0.078125 0.078125 0.203125 0.125q0.125 0.046875 0.296875 0.046875q0.234375 0 0.53125 -0.140625q0.3125 -0.140625 0.65625 -0.453125l0 -0.6875z"
       fill-rule="nonzero"
       id="path21142" />
    <path
       fill="#000000"
       fill-opacity="0.0"
       d="m153.7787 289.00262c-5.449692 18.265106 -35.64435 88.82153 -32.69816 109.590546c2.9461975 20.769043 41.97944 12.519684 50.375328 15.023621"
       fill-rule="nonzero"
       id="path21144" />
    <path
       stroke="#666666"
       stroke-width="2.0"
       stroke-linejoin="round"
       stroke-linecap="butt"
       d="m149.87221 300.34897l-0.2395935 0.6559448c-0.36779785 1.0035706 -0.7509155 2.042633 -1.1475983 3.1140442c-0.79338074 2.1428528 -1.6410217 4.4151917 -2.5287933 6.792145c-3.5510864 9.50769 -7.7442474 20.68863 -11.675049 31.947815c-7.861603 22.518372 -14.673729 45.34973 -13.20063 55.734253c2.9461975 20.769043 41.97944 12.519684 50.375328 15.023621"
       fill-rule="evenodd"
       id="path21146" />
    <path
       fill="#666666"
       stroke="#666666"
       stroke-width="2.0"
       stroke-linecap="butt"
       d="m152.99571 301.42438l-0.16882324 -9.657227l-6.0782013 7.506378z"
       fill-rule="evenodd"
       id="path21148" />
    <path
       fill="#000000"
       fill-opacity="0.0"
       d="m114.62737 289.00262c-4.81102 23.940186 -38.337234 119.55112 -28.866104 143.64105c9.47113 24.089935 71.41074 0.7487488 85.692894 0.89849854"
       fill-rule="nonzero"
       id="path21150" />
    <path
       stroke="#666666"
       stroke-width="2.0"
       stroke-linejoin="round"
       stroke-linecap="butt"
       d="m114.627365 289.00262c-4.8110123 23.940155 -38.337227 119.55115 -28.866096 143.64102c4.735573 12.045013 22.588257 12.232178 41.04232 9.426849c9.22702 -1.4026794 18.6044 -3.5534668 26.567657 -5.3442383c1.9908142 -0.4477234 3.8932343 -0.8729248 5.682846 -1.2583008l0.53756714 -0.11450195"
       fill-rule="evenodd"
       id="path21152" />
    <path
       fill="#666666"
       stroke="#666666"
       stroke-width="2.0"
       stroke-linecap="butt"
       d="m160.09029 438.6191l8.473572 -4.63562l-9.47084 -1.8956299z"
       fill-rule="evenodd"
       id="path21154" />
    <path
       fill="#000000"
       fill-opacity="0.0"
       d="m286.3515 385.35098l120.50394 -91.46457"
       fill-rule="nonzero"
       id="path21156" />
    <path
       stroke="#666666"
       stroke-width="2.0"
       stroke-linejoin="round"
       stroke-linecap="butt"
       d="m286.35153 385.35098l110.945435 -84.2095"
       fill-rule="evenodd"
       id="path21158" />
    <path
       fill="#666666"
       stroke="#666666"
       stroke-width="2.0"
       stroke-linecap="butt"
       d="m399.2942 303.7728l5.2323303 -8.118683l-9.226776 2.856018z"
       fill-rule="evenodd"
       id="path21160" />
    <path
       fill="#000000"
       fill-opacity="0.0"
       d="m419.50775 306.84344l280.11957 119.941345"
       fill-rule="nonzero"
       id="path21162" />
    <path
       stroke="#666666"
       stroke-width="2.0"
       stroke-linejoin="round"
       stroke-linecap="butt"
       d="m419.50775 306.84348l269.0882 115.217926"
       fill-rule="evenodd"
       id="path21164" />
    <path
       fill="#666666"
       stroke="#666666"
       stroke-width="2.0"
       stroke-linecap="butt"
       d="m687.2957 425.0982l9.643799 0.53570557l-7.043213 -6.609314z"
       fill-rule="evenodd"
       id="path21166" />
    <path
       fill="#000000"
       fill-opacity="0.0"
       d="m432.16003 293.8864l301.93707 -75.5977"
       fill-rule="nonzero"
       id="path21168" />
    <path
       stroke="#666666"
       stroke-width="2.0"
       stroke-linejoin="round"
       stroke-linecap="butt"
       d="m432.16003 293.8864l290.2964 -72.68317"
       fill-rule="evenodd"
       id="path21170" />
    <path
       fill="#666666"
       stroke="#666666"
       stroke-width="2.0"
       stroke-linecap="butt"
       d="m723.2588 224.4078l8.002075 -5.408966l-9.6067505 -1.0001373z"
       fill-rule="evenodd"
       id="path21172" />
    <path
       fill="#000000"
       fill-opacity="0.0"
       d="m734.0971 218.28871l-269.48428 7.2459717"
       fill-rule="nonzero"
       id="path21174" />
    <path
       stroke="#666666"
       stroke-width="2.0"
       stroke-linejoin="round"
       stroke-linecap="butt"
       d="m734.0971 218.28871l-257.48865 6.923416"
       fill-rule="evenodd"
       id="path21176" />
    <path
       fill="#666666"
       stroke="#666666"
       stroke-width="2.0"
       stroke-linecap="butt"
       d="m476.51968 221.90987l-8.984131 3.5462189l9.161713 3.058319z"
       fill-rule="evenodd"
       id="path21178" />
    <path
       fill="#000000"
       fill-opacity="0.0"
       d="m402.5223 233.8819l-164.31496 -3.464569"
       fill-rule="nonzero"
       id="path21180" />
    <path
       stroke="#666666"
       stroke-width="2.0"
       stroke-linejoin="round"
       stroke-linecap="butt"
       d="m402.5223 233.8819l-152.31763 -3.2116241"
       fill-rule="evenodd"
       id="path21182" />
    <path
       fill="#666666"
       stroke="#666666"
       stroke-width="2.0"
       stroke-linecap="butt"
       d="m250.27432 227.36755l-9.143814 3.1114044l9.004532 3.4940643z"
       fill-rule="evenodd"
       id="path21184" />
    <path
       fill="#000000"
       fill-opacity="0.0"
       d="m348.37796 116.65092l263.2441 0l0 66.29922l-263.2441 0z"
       fill-rule="nonzero"
       id="path21186" />
    <path
       fill="#000000"
       d="m387.01172 138.64467q0.15625 0.34375 0.15625 0.515625q0 0.109375 -0.078125 0.3125q-1.71875 0.859375 -2.203125 1.28125q-1.03125 0.8125 -1.53125 1.65625q-0.328125 0.578125 -0.328125 1.203125q0 0.609375 0.3125 1.0q0.203125 0.28125 0.46875 0.28125q0.09375 0 1.0 -0.0625q0.09375 -0.015625 0.21875 -0.015625q0.71875 0 1.1875 0.453125q0.46875 0.453125 0.46875 1.1875q0 0.75 -0.59375 1.3125q-0.59375 0.5625 -1.40625 0.5625q-0.8125 0 -1.59375 -0.40625q-0.765625 -0.421875 -1.265625 -1.3125q-0.5 -0.90625 -0.5 -1.796875q0 -1.296875 0.71875 -2.625q0.734375 -1.34375 1.84375 -2.03125q1.875 -1.125 3.125 -1.515625zm9.3125 0.03125q0.03125 0.234375 0.03125 0.4375q0 0.15625 -0.078125 0.40625q-2.1875 1.015625 -3.125 2.125q-0.921875 1.109375 -0.921875 2.078125q0 0.3125 0.109375 0.59375q0.125 0.28125 0.359375 0.53125q0.3125 0.09375 0.453125 0.09375q0.09375 0 0.515625 -0.09375q0.234375 -0.0625 0.515625 -0.0625q0.796875 0 1.234375 0.421875q0.4375 0.421875 0.4375 1.140625q0 0.859375 -0.5625 1.4375q-0.546875 0.578125 -1.390625 0.578125q-1.40625 0 -2.359375 -0.984375q-0.953125 -0.984375 -0.953125 -2.796875q0 -1.328125 0.90625 -2.703125q0.921875 -1.390625 2.296875 -2.171875q1.890625 -1.046875 2.4375 -1.046875l0.09375 0.015625zm1.8789062 3.296875l0.796875 -2.9375q0.078125 -0.59375 0.21875 -0.75q0.140625 -0.171875 0.3125 -0.171875q0.359375 0 0.796875 0.84375q0.34375 0.59375 0.546875 0.765625q0.21875 0.171875 0.625 0.21875l0.203125 -0.015625l0.84375 0.078125l4.609375 0.0625l5.4375 -0.015625l1.609375 0l3.03125 -0.0625q0.1875 0 0.484375 0.03125q1.328125 0.125 1.640625 0.125q0.296875 0 0.46875 -0.203125q0.0625 -0.078125 0.640625 -1.328125q0.25 -0.5625 0.625 -0.5625q0.15625 0 0.390625 0.078125q0.09375 0.390625 0.09375 0.703125l-0.015625 0.78125l0.015625 1.65625q0 0.609375 -0.09375 3.90625q0 0.21875 -0.078125 0.390625q-0.21875 0.140625 -0.375 0.140625q-0.15625 0 -0.28125 -0.140625q-0.109375 -0.15625 -0.28125 -0.90625q-0.390625 -1.765625 -0.96875 -2.53125q-0.390625 -0.484375 -1.125 -0.6875q-0.734375 -0.21875 -3.515625 -0.21875q-2.21875 0 -3.296875 0.078125q-0.03125 0.78125 -0.03125 1.421875l0.15625 12.125q0 0.71875 -0.078125 2.734375l0.015625 2.59375l-0.015625 1.453125q0 0.6875 0.234375 0.984375q0.234375 0.28125 1.265625 0.5625q1.796875 0.4375 2.40625 0.546875q0.359375 0.03125 0.59375 0.15625l0 0.578125l-2.765625 -0.078125q-2.28125 -0.015625 -3.4375 -0.09375l-2.859375 0.140625l-2.078125 0.109375q-0.890625 0 -1.078125 -0.03125l-0.28125 -0.125q0.046875 -0.453125 0.171875 -0.578125q0.140625 -0.125 0.734375 -0.203125q0.8125 -0.109375 1.921875 -0.40625q1.125 -0.3125 1.46875 -0.625q0.203125 -0.171875 0.28125 -0.59375q0.171875 -0.859375 0.171875 -3.375l0 -3.3125l-0.078125 -7.25l-0.078125 -1.5625l-0.015625 -5.21875q-1.234375 -0.140625 -3.140625 -0.140625q-2.8125 0 -3.421875 0.359375q-0.953125 0.546875 -2.859375 3.203125q-0.625 1.0 -1.09375 1.0l-0.171875 -0.046875q-0.078125 -0.109375 -0.078125 -0.21875q0 -0.234375 0.3125 -1.40625q0.390625 -1.5 0.46875 -2.03125zm24.636719 21.609375q2.28125 -0.40625 2.625 -0.625q0.21875 -0.140625 0.21875 -0.625l-0.015625 -1.296875l0.015625 -2.28125l-0.03125 -5.8125l0.015625 -2.171875l0 -1.546875l0.0625 -1.890625q0 -4.453125 -0.09375 -5.3125q-0.09375 -0.875 -0.34375 -1.09375q-0.46875 -0.453125 -2.578125 -0.9375l0 -0.09375q0 -0.140625 0.046875 -0.390625q0.265625 -0.046875 0.515625 -0.09375q0.265625 -0.0625 0.5 -0.09375q2.3125 -0.65625 3.375 -1.28125l0.953125 0q0.046875 0.546875 0.046875 3.453125l-0.03125 2.484375l0.03125 3.203125l-0.078125 3.9375q0 0.359375 0.03125 0.78125q1.234375 -1.421875 1.796875 -1.890625q1.015625 -0.8125 2.171875 -1.296875q1.15625 -0.484375 2.421875 -0.484375q2.40625 0 3.921875 2.03125q0.875 1.203125 0.875 3.390625l-0.046875 1.984375l0.015625 1.109375l-0.078125 1.9375q-0.078125 2.40625 -0.078125 2.859375q0 0.5 0.03125 1.359375l1.125 0.25q1.109375 0.234375 1.71875 0.4375l-0.03125 0.609375l-4.15625 -0.125q-0.34375 0 -1.90625 0.078125q-0.96875 0.046875 -1.125 0.046875l-0.421875 0q-0.09375 -0.1875 -0.09375 -0.296875l0 -0.171875q0.265625 -0.359375 1.015625 -0.46875l1.171875 -0.28125q0.234375 -0.1875 0.265625 -0.40625q0.078125 -0.515625 0.171875 -5.046875l0.046875 -1.4375q0.078125 -2.28125 -0.359375 -3.796875q-0.265625 -1.03125 -1.234375 -1.640625q-0.96875 -0.625 -2.234375 -0.625q-1.0625 0 -2.0 0.453125q-0.640625 0.328125 -1.546875 1.15625q-0.890625 0.8125 -1.234375 1.40625q-0.234375 0.390625 -0.234375 1.28125l0.015625 1.375l-0.046875 1.421875q0 0.171875 0.0625 2.4375l-0.015625 1.25l0.03125 1.375q0.03125 0.296875 0.0625 0.421875l2.75 0.671875q0.21875 0.0625 0.65625 0.234375l0.046875 0.21875q0 0.09375 -0.09375 0.3125q-0.5625 0.015625 -0.859375 0.015625l-1.515625 -0.015625l-3.359375 0.03125l-2.53125 0.078125q-0.1875 -0.015625 -0.578125 -0.03125l-0.015625 -0.140625q0 -0.15625 0.15625 -0.390625zm35.128906 -9.84375l-7.828125 0.0625l-1.484375 0q-0.90625 0 -1.84375 0.078125q-0.171875 0.578125 -0.171875 0.796875l0.015625 0.1875l0 0.203125l-0.015625 0.953125q0 1.1875 0.75 2.921875q0.75 1.734375 2.140625 2.640625q1.40625 0.90625 3.5 0.96875q1.109375 -0.0625 1.765625 -0.28125q0.671875 -0.21875 1.890625 -1.0l1.40625 -1.140625l0.109375 0.78125q0 0.125 -0.015625 0.28125q-0.875 1.125 -2.234375 1.96875q-1.34375 0.828125 -2.734375 1.21875q-0.65625 0.1875 -2.1875 0.1875q-1.375 0 -2.734375 -0.578125q-1.984375 -0.859375 -3.125 -2.765625q-1.140625 -1.90625 -1.140625 -4.609375q0 -0.859375 0.3125 -2.203125q0.328125 -1.359375 1.171875 -2.875q0.5625 -1.046875 1.375 -1.703125q1.171875 -0.9375 2.0625 -1.3125q1.265625 -0.53125 2.9375 -0.53125q1.828125 0 2.96875 0.671875q1.5625 0.875 2.328125 2.265625q0.78125 1.390625 0.78125 2.53125l0 0.28125zm-10.890625 -0.703125l0.90625 0q1.0 0 5.9375 -0.3125q0.78125 -0.046875 0.96875 -0.15625q0.34375 -0.375 0.34375 -0.671875q0 -0.59375 -0.390625 -1.359375q-0.390625 -0.78125 -1.203125 -1.203125q-0.8125 -0.421875 -1.875 -0.421875q-2.265625 0 -3.640625 1.703125q-1.046875 1.28125 -1.046875 2.421875zm24.910156 6.046875q0.734375 1.859375 1.09375 2.40625q0.75 1.109375 1.78125 1.734375q1.03125 0.609375 2.25 0.609375q1.109375 0 2.203125 -0.953125q0.78125 -0.71875 0.78125 -1.6875q0 -1.265625 -0.921875 -2.34375q-0.90625 -1.046875 -3.484375 -2.015625q-2.5625 -0.96875 -3.4375 -2.0625q-0.890625 -1.09375 -0.890625 -2.5q0 -1.328125 0.71875 -2.34375q0.734375 -1.015625 2.0 -1.53125q1.265625 -0.515625 2.34375 -0.515625q1.390625 0 2.484375 0.21875q1.109375 0.203125 1.90625 0.65625q0.15625 1.0 0.265625 2.9375l0.03125 0.625q-0.25 0.015625 -0.421875 0.015625l-0.28125 0q-0.578125 -1.625 -1.78125 -2.5625q-1.203125 -0.953125 -2.375 -0.953125q-1.171875 0 -1.90625 0.71875q-0.71875 0.703125 -0.71875 1.859375q0 0.875 0.59375 1.5625q0.578125 0.6875 2.734375 1.5625q2.171875 0.875 3.15625 1.625q0.984375 0.75 1.453125 1.828125q0.46875 1.078125 0.46875 2.046875q0 1.359375 -0.890625 2.53125q-0.890625 1.171875 -2.234375 1.640625q-1.328125 0.484375 -2.390625 0.484375q-2.46875 0 -4.5625 -0.921875q-0.203125 -0.15625 -0.21875 -0.578125q0 -0.1875 -0.03125 -0.578125q-0.3125 -2.625 -0.3125 -3.125q0 -0.234375 0.09375 -0.3125q0.09375 -0.078125 0.5 -0.078125zm27.230469 -5.34375l-7.828125 0.0625l-1.484375 0q-0.90625 0 -1.84375 0.078125q-0.171875 0.578125 -0.171875 0.796875l0.015625 0.1875l0 0.203125l-0.015625 0.953125q0 1.1875 0.75 2.921875q0.75 1.734375 2.140625 2.640625q1.40625 0.90625 3.5 0.96875q1.109375 -0.0625 1.765625 -0.28125q0.671875 -0.21875 1.890625 -1.0l1.40625 -1.140625l0.109375 0.78125q0 0.125 -0.015625 0.28125q-0.875 1.125 -2.234375 1.96875q-1.34375 0.828125 -2.734375 1.21875q-0.65625 0.1875 -2.1875 0.1875q-1.375 0 -2.734375 -0.578125q-1.984375 -0.859375 -3.125 -2.765625q-1.140625 -1.90625 -1.140625 -4.609375q0 -0.859375 0.3125 -2.203125q0.328125 -1.359375 1.171875 -2.875q0.5625 -1.046875 1.375 -1.703125q1.171875 -0.9375 2.0625 -1.3125q1.265625 -0.53125 2.9375 -0.53125q1.828125 0 2.96875 0.671875q1.5625 0.875 2.328125 2.265625q0.78125 1.390625 0.78125 2.53125l0 0.28125zm-10.890625 -0.703125l0.90625 0q1.0 0 5.9375 -0.3125q0.78125 -0.046875 0.96875 -0.15625q0.34375 -0.375 0.34375 -0.671875q0 -0.59375 -0.390625 -1.359375q-0.390625 -0.78125 -1.203125 -1.203125q-0.8125 -0.421875 -1.875 -0.421875q-2.265625 0 -3.640625 1.703125q-1.046875 1.28125 -1.046875 2.421875zm12.878906 11.078125l-0.078125 -0.265625q0 -0.125 0.1875 -0.40625l1.140625 -0.234375l1.625 -0.296875q0.203125 -0.09375 0.28125 -0.265625q0.109375 -0.25 0.109375 -1.5q0 -6.640625 -0.078125 -7.671875q-0.078125 -1.03125 -0.359375 -1.296875q-0.265625 -0.28125 -1.390625 -0.4375q-0.671875 -0.09375 -1.0625 -0.25l0.078125 -0.578125q2.046875 -0.84375 2.75 -1.453125q0.984375 -0.875 1.671875 -2.296875l0.65625 0.015625q0.125 0.96875 0.125 4.328125l-0.03125 0.34375q0 0.109375 0.046875 0.359375q0.734375 -1.34375 1.859375 -2.46875l0.4375 -0.453125q0.28125 -0.3125 0.53125 -0.484375q1.375 -0.828125 2.03125 -0.828125q0.859375 0 1.40625 0.578125q0.546875 0.578125 0.546875 1.421875q0 0.65625 -0.390625 1.03125q-0.53125 0.484375 -1.203125 0.484375q-0.3125 0 -1.234375 -0.328125q-0.921875 -0.328125 -1.21875 -0.328125q-0.546875 0 -0.75 0.171875q-0.546875 0.421875 -1.328125 1.75q-0.609375 1.0 -0.609375 1.84375l0.09375 3.21875l0.046875 3.875q0.046875 0.65625 0.15625 0.859375q0.078125 0.125 0.390625 0.328125q2.109375 0.171875 2.5 0.25q0.265625 0.015625 0.40625 0.046875q0.84375 0.015625 1.171875 0.234375q0.171875 0.09375 0.171875 0.28125q0 0.125 -0.15625 0.3125l-2.171875 -0.015625l-0.8125 -0.015625l-1.1875 0.015625l-2.0 0l-1.078125 0.0625l-3.28125 0.0625zm12.324219 -15.578125q2.171875 0.03125 3.796875 0.140625q1.15625 0 1.671875 -0.03125q0.375 -0.03125 0.46875 -0.03125l2.1875 0.03125q0.453125 0.078125 0.734375 0.09375q0.109375 0.03125 0.203125 0.21875q0 0.1875 -0.109375 0.40625q-0.328125 0.09375 -0.6875 0.109375q-1.46875 0.15625 -2.453125 0.453125q-0.140625 0.09375 -0.140625 0.203125q0 0.1875 0.1875 0.59375q0.046875 0.109375 0.1875 0.46875l1.953125 4.6875q1.296875 3.234375 2.421875 5.4375q0.75 -1.453125 1.390625 -2.984375q0.65625 -1.546875 1.90625 -4.875q0.34375 -0.9375 0.65625 -2.3125q0.0625 -0.28125 0.0625 -0.46875q0 -0.234375 -0.265625 -0.515625q-0.265625 -0.296875 -0.890625 -0.46875q-0.125 -0.015625 -1.765625 -0.296875q-0.140625 -0.078125 -0.265625 -0.203125l0 -0.15625q0 -0.109375 0.03125 -0.265625q0.46875 -0.046875 0.671875 -0.046875l2.3125 0.015625q0.234375 0 1.109375 -0.0625q3.109375 0 3.734375 0.0625q0.109375 0.03125 0.21875 0.234375q0 0.171875 -0.125 0.390625l-0.609375 0.15625q-0.234375 0.015625 -0.359375 0.03125q-1.6875 0.15625 -2.078125 0.46875q-0.296875 0.21875 -0.921875 2.015625q-0.28125 0.875 -0.859375 2.234375l-1.015625 2.453125q-0.203125 0.53125 -0.46875 1.15625l-3.015625 7.0l-0.59375 0q-0.171875 -0.46875 -0.421875 -0.984375l-1.484375 -3.140625l-3.5 -8.1875q-1.0625 -2.390625 -1.28125 -2.578125q-0.203125 -0.203125 -2.5 -0.828125q-0.109375 -0.3125 -0.109375 -0.4375l0.015625 -0.1875zm34.4375 5.203125l-7.828125 0.0625l-1.484375 0q-0.90625 0 -1.84375 0.078125q-0.171875 0.578125 -0.171875 0.796875l0.015625 0.1875l0 0.203125l-0.015625 0.953125q0 1.1875 0.75 2.921875q0.75 1.734375 2.140625 2.640625q1.40625 0.90625 3.5 0.96875q1.109375 -0.0625 1.765625 -0.28125q0.671875 -0.21875 1.890625 -1.0l1.40625 -1.140625l0.109375 0.78125q0 0.125 -0.015625 0.28125q-0.875 1.125 -2.234375 1.96875q-1.34375 0.828125 -2.734375 1.21875q-0.65625 0.1875 -2.1875 0.1875q-1.375 0 -2.734375 -0.578125q-1.984375 -0.859375 -3.125 -2.765625q-1.140625 -1.90625 -1.140625 -4.609375q0 -0.859375 0.3125 -2.203125q0.328125 -1.359375 1.171875 -2.875q0.5625 -1.046875 1.375 -1.703125q1.171875 -0.9375 2.0625 -1.3125q1.265625 -0.53125 2.9375 -0.53125q1.828125 0 2.96875 0.671875q1.5625 0.875 2.328125 2.265625q0.78125 1.390625 0.78125 2.53125l0 0.28125zm-10.890625 -0.703125l0.90625 0q1.0 0 5.9375 -0.3125q0.78125 -0.046875 0.96875 -0.15625q0.34375 -0.375 0.34375 -0.671875q0 -0.59375 -0.390625 -1.359375q-0.390625 -0.78125 -1.203125 -1.203125q-0.8125 -0.421875 -1.875 -0.421875q-2.265625 0 -3.640625 1.703125q-1.046875 1.28125 -1.046875 2.421875zm12.878906 11.078125l-0.078125 -0.265625q0 -0.125 0.1875 -0.40625l1.140625 -0.234375l1.625 -0.296875q0.203125 -0.09375 0.28125 -0.265625q0.109375 -0.25 0.109375 -1.5q0 -6.640625 -0.078125 -7.671875q-0.078125 -1.03125 -0.359375 -1.296875q-0.265625 -0.28125 -1.390625 -0.4375q-0.671875 -0.09375 -1.0625 -0.25l0.078125 -0.578125q2.046875 -0.84375 2.75 -1.453125q0.984375 -0.875 1.671875 -2.296875l0.65625 0.015625q0.125 0.96875 0.125 4.328125l-0.03125 0.34375q0 0.109375 0.046875 0.359375q0.734375 -1.34375 1.859375 -2.46875l0.4375 -0.453125q0.28125 -0.3125 0.53125 -0.484375q1.375 -0.828125 2.03125 -0.828125q0.859375 0 1.40625 0.578125q0.546875 0.578125 0.546875 1.421875q0 0.65625 -0.390625 1.03125q-0.53125 0.484375 -1.203125 0.484375q-0.3125 0 -1.234375 -0.328125q-0.921875 -0.328125 -1.21875 -0.328125q-0.546875 0 -0.75 0.171875q-0.546875 0.421875 -1.328125 1.75q-0.609375 1.0 -0.609375 1.84375l0.09375 3.21875l0.046875 3.875q0.046875 0.65625 0.15625 0.859375q0.078125 0.125 0.390625 0.328125q2.109375 0.171875 2.5 0.25q0.265625 0.015625 0.40625 0.046875q0.84375 0.015625 1.171875 0.234375q0.171875 0.09375 0.171875 0.28125q0 0.125 -0.15625 0.3125l-2.171875 -0.015625l-0.8125 -0.015625l-1.1875 0.015625l-2.0 0l-1.078125 0.0625l-3.28125 0.0625zm23.449219 -16.796875l2.21875 -1.640625q0.6875 -0.625 1.046875 -1.3125q0.375 -0.703125 0.375 -1.46875q0 -0.609375 -0.25 -0.9375q-0.171875 -0.234375 -0.46875 -0.234375q-0.140625 0 -0.34375 0.015625q-0.421875 0.03125 -0.828125 0.03125q-0.34375 0 -0.640625 -0.109375q-0.296875 -0.109375 -0.546875 -0.328125q-0.390625 -0.625 -0.390625 -1.234375q0 -0.796875 0.515625 -1.28125q0.515625 -0.484375 1.296875 -0.484375q1.5625 0 2.578125 1.0q1.03125 0.984375 1.03125 2.40625q0 1.21875 -0.515625 2.34375q-0.515625 1.125 -2.078125 2.421875q-0.96875 0.8125 -2.828125 1.703125l-0.171875 -0.890625zm-9.5 0q2.25 -1.5625 3.140625 -2.765625q0.515625 -0.671875 0.515625 -1.578125q0 -0.609375 -0.28125 -1.0q-0.203125 -0.28125 -0.46875 -0.28125q-0.09375 0 -0.828125 0.125q-0.140625 0.03125 -0.296875 0.03125q-0.671875 0 -1.125 -0.484375q-0.453125 -0.484375 -0.453125 -1.1875q0 -0.75 0.53125 -1.28125q0.53125 -0.53125 1.515625 -0.53125q1.421875 0 2.40625 0.984375q0.984375 0.984375 0.984375 2.5q0 1.0625 -0.59375 2.296875q-0.578125 1.21875 -2.046875 2.375q-1.453125 1.15625 -2.796875 1.6875l-0.203125 -0.890625z"
       fill-rule="nonzero"
       id="path21188" />
    <path
       fill="#000000"
       fill-opacity="0.0"
       d="m671.68066 482.5538c-69.2536 4.124237 -339.9077 27.249786 -415.52145 24.745422c-75.61372 -2.5043945 -31.80075 -33.143066 -38.160904 -39.771667"
       fill-rule="nonzero"
       id="path21190" />
    <path
       stroke="#666666"
       stroke-width="2.0"
       stroke-linejoin="round"
       stroke-linecap="butt"
       d="m659.7051 483.31842l-3.2728271 0.22045898c-5.8050537 0.3952942 -12.299927 0.8539734 -19.388062 1.3650208c-14.176147 1.0221558 -30.724854 2.2540283 -48.87195 3.608429c-36.294067 2.7088928 -78.98126 5.9079895 -121.86725 8.899902c-85.77194 5.9838867 -172.3389 11.139191 -210.14578 9.886993c-37.806854 -1.2522278 -45.757034 -9.537994 -45.050537 -18.339264c0.17663574 -2.2003174 0.89430237 -4.4328613 1.8217773 -6.5957947c0.4637146 -1.0814514 0.9799042 -2.1455078 1.5071259 -3.1794128l0.088012695 -0.17068481"
       fill-rule="evenodd"
       id="path21192" />
    <path
       fill="#666666"
       stroke="#666666"
       stroke-width="2.0"
       stroke-linecap="butt"
       d="m659.9155 486.61517l8.84729 -3.875061l-9.2682495 -2.7184448z"
       fill-rule="evenodd"
       id="path21194" />
    <path
       fill="#666666"
       stroke="#666666"
       stroke-width="2.0"
       stroke-linecap="butt"
       d="m217.6877 479.9701l-0.5355072 -9.643829l-5.7887115 7.7318115z"
       fill-rule="evenodd"
       id="path21196" />
    <path
       fill="#000000"
       fill-opacity="0.0"
       d="m224.17313 276.0704l266.29922 83.33856"
       fill-rule="nonzero"
       id="path21198" />
    <path
       stroke="#666666"
       stroke-width="2.0"
       stroke-linejoin="round"
       stroke-linecap="butt"
       d="m224.17313 276.0704l254.8469 79.75461"
       fill-rule="evenodd"
       id="path21200" />
    <path
       fill="#666666"
       stroke="#666666"
       stroke-width="2.0"
       stroke-linecap="butt"
       d="m478.0334 358.9777l9.64859 -0.44192505l-7.6753235 -5.8634644z"
       fill-rule="evenodd"
       id="path21202" />
  </g>
</svg>
