<?xml version="1.0" encoding="UTF-8" standalone="no"?>
<svg
   xmlns:dc="http://purl.org/dc/elements/1.1/"
   xmlns:cc="http://creativecommons.org/ns#"
   xmlns:rdf="http://www.w3.org/1999/02/22-rdf-syntax-ns#"
   xmlns:svg="http://www.w3.org/2000/svg"
   xmlns="http://www.w3.org/2000/svg"
   xmlns:sodipodi="http://sodipodi.sourceforge.net/DTD/sodipodi-0.dtd"
   xmlns:inkscape="http://www.inkscape.org/namespaces/inkscape"
   version="1.1"
   viewBox="0 0 760.51741 326.56471"
   stroke-miterlimit="10"
   id="svg21023"
   inkscape:version="0.48.4 r9939"
   width="100%"
   height="100%"
   sodipodi:docname="dvcs.svg"
   style="fill:none;stroke:none">
  <metadata
     id="metadata21208">
    <rdf:RDF>
      <cc:Work
         rdf:about="">
        <dc:format>image/svg+xml</dc:format>
        <dc:type
           rdf:resource="http://purl.org/dc/dcmitype/StillImage" />
      </cc:Work>
    </rdf:RDF>
  </metadata>
  <defs
     id="defs21206" />
  <sodipodi:namedview
     pagecolor="#ffffff"
     bordercolor="#666666"
     borderopacity="1"
     objecttolerance="10"
     gridtolerance="10"
     guidetolerance="10"
     inkscape:pageopacity="0"
     inkscape:pageshadow="2"
     inkscape:window-width="1598"
     inkscape:window-height="866"
     id="namedview21204"
     showgrid="false"
     inkscape:zoom="0.64"
     inkscape:cx="874.61132"
     inkscape:cy="70.479982"
     inkscape:window-x="0"
     inkscape:window-y="32"
     inkscape:window-maximized="0"
     inkscape:current-layer="g21028"
     fit-margin-top="0"
     fit-margin-left="0"
     fit-margin-right="0"
     fit-margin-bottom="0" />
  <clipPath
     id="g358aeef41_0104.0">
    <path
       d="M 0,0 960,0 960,540 0,540 0,0 z"
       clip-rule="nonzero"
       id="path21026"
       inkscape:connector-curvature="0" />
  </clipPath>
  <g
     clip-path="url(#g358aeef41_0104.0)"
     id="g21028"
     transform="translate(-83.076342,-181.9375)">
    <path
       d="m 124.53806,197.26772 113.66929,0 0,66.29921 -113.66929,0 z"
       id="path21036"
       inkscape:connector-curvature="0"
       style="fill:#cccccc;fill-rule:nonzero"
       sodipodi:nodetypes="ccccc" />
    <path
       d="m 124.53806,197.26772 113.66929,0 0,66.29921 -113.66929,0 z"
       id="path21038"
       inkscape:connector-curvature="0"
       style="stroke:#666666;stroke-width:2;stroke-linecap:butt;stroke-linejoin:round"
       sodipodi:nodetypes="ccccc" />
    <path
       d="m 97.82415,288.5538 28.07664,-24.98688 112.30656,0 -28.07664,24.98688 z"
       id="path21040"
       inkscape:connector-curvature="0"
       style="fill:#cccccc;fill-rule:nonzero"
       sodipodi:nodetypes="ccccc" />
    <path
       d="m 97.82415,288.5538 28.07664,-24.98688 112.30656,0 -28.07664,24.98688 z"
       id="path21042"
       inkscape:connector-curvature="0"
       style="stroke:#666666;stroke-width:2;stroke-linecap:butt;stroke-linejoin:round"
       sodipodi:nodetypes="ccccc" />
    <path
       d="m 129.70604,204.15224 104.22047,0 0,45.66928 -104.22047,0 z"
       id="path21044"
       inkscape:connector-curvature="0"
       style="fill:#434343;fill-rule:nonzero"
       sodipodi:nodetypes="ccccc" />
    <path
       d="m 129.70604,204.15224 104.22047,0 0,45.66928 -104.22047,0 z"
       id="path21046"
       inkscape:connector-curvature="0"
       style="stroke:#666666;stroke-width:2;stroke-linecap:butt;stroke-linejoin:round"
       sodipodi:nodetypes="ccccc" />
    <path
       d="m 129.70604,207.59842 104.22047,0 0,38.77165 -104.22047,0 z"
       id="path21048"
       inkscape:connector-curvature="0"
       style="fill:#000000;fill-opacity:0;fill-rule:nonzero"
       sodipodi:nodetypes="ccccc" />
    <path
       d="m 138.97166,220.35655 0.76563,0 0.96875,2.59375 0.20312,0.625 0.21875,-0.64063 0.95313,-2.57812 0.73437,0 -1.53125,3.92187 -0.78125,0 z m 6.10156,0.5625 -1.17187,0 0,-0.5625 1.85937,0 0,3.35937 1.15625,0 0,0.5625 -3.14062,0 0,-0.5625 1.29687,0 z m 0.23438,-2.20313 c 0.0729,0 0.14062,0.0156 0.20312,0.0469 0.0729,0.0208 0.13021,0.0573 0.17188,0.10937 0.0521,0.0417 0.0885,0.099 0.10937,0.17188 0.0312,0.0625 0.0469,0.13021 0.0469,0.20312 0,0.0729 -0.0156,0.14063 -0.0469,0.20313 -0.0208,0.0625 -0.0573,0.11979 -0.10937,0.17187 -0.0417,0.0521 -0.099,0.0937 -0.17188,0.125 -0.0625,0.0208 -0.13021,0.0312 -0.20312,0.0312 -0.0729,0 -0.14584,-0.0104 -0.21875,-0.0312 -0.0625,-0.0312 -0.11979,-0.0729 -0.17188,-0.125 -0.0417,-0.0521 -0.0781,-0.10937 -0.10937,-0.17187 -0.0208,-0.0625 -0.0312,-0.13021 -0.0312,-0.20313 0,-0.0729 0.0104,-0.14062 0.0312,-0.20312 0.0312,-0.0729 0.0677,-0.13021 0.10937,-0.17188 0.0521,-0.0521 0.10938,-0.0885 0.17188,-0.10937 0.0729,-0.0312 0.14583,-0.0469 0.21875,-0.0469 z m 10.375,0.0469 -2.6875,6.35937 -0.64063,0 2.67188,-6.35937 z m 4.07031,2.14062 c 0.0729,0.0937 0.13021,0.20313 0.17188,0.32813 0.0417,0.11458 0.0625,0.24479 0.0625,0.39062 0,0.19792 -0.0417,0.38542 -0.125,0.5625 -0.0729,0.16667 -0.17709,0.3125 -0.3125,0.4375 -0.13542,0.11459 -0.29688,0.20313 -0.48438,0.26563 -0.1875,0.0625 -0.39583,0.0937 -0.625,0.0937 -0.15625,0 -0.30729,-0.0156 -0.45312,-0.0469 -0.14584,-0.0312 -0.26042,-0.0729 -0.34375,-0.125 -0.0521,0.0729 -0.0937,0.14063 -0.125,0.20313 -0.0312,0.0625 -0.0469,0.13542 -0.0469,0.21875 0,0.0937 0.0469,0.17708 0.14063,0.25 0.0937,0.0625 0.21875,0.0937 0.375,0.0937 l 1.03125,0.0469 c 0.19791,0 0.3802,0.026 0.54687,0.0781 0.16667,0.0417 0.30729,0.10417 0.42188,0.1875 0.11458,0.0833 0.20312,0.1875 0.26562,0.3125 0.0729,0.125 0.10938,0.26562 0.10938,0.42187 0,0.17709 -0.0365,0.34375 -0.10938,0.5 -0.0729,0.15625 -0.19271,0.29167 -0.35937,0.40625 -0.15625,0.125 -0.35417,0.21875 -0.59375,0.28125 -0.23959,0.0729 -0.52605,0.10938 -0.85938,0.10938 -0.32292,0 -0.59375,-0.026 -0.8125,-0.0781 -0.21875,-0.0521 -0.40104,-0.125 -0.54687,-0.21875 -0.14584,-0.0833 -0.25,-0.1875 -0.3125,-0.3125 -0.0625,-0.125 -0.0937,-0.26041 -0.0937,-0.40625 0,-0.1875 0.0417,-0.35416 0.125,-0.5 0.0937,-0.14583 0.22916,-0.28645 0.40625,-0.42187 -0.0625,-0.0312 -0.1198,-0.0677 -0.17188,-0.10938 -0.0521,-0.0521 -0.0937,-0.10416 -0.125,-0.15625 -0.0312,-0.0521 -0.0573,-0.10937 -0.0781,-0.17187 -0.0104,-0.0625 -0.0156,-0.125 -0.0156,-0.1875 0,-0.16667 0.0417,-0.31771 0.125,-0.45313 0.0833,-0.14583 0.17708,-0.28125 0.28125,-0.40625 -0.0521,-0.0625 -0.099,-0.11979 -0.14062,-0.17187 l -0.0937,-0.1875 -0.0625,-0.21875 c -0.0104,-0.0833 -0.0156,-0.17188 -0.0156,-0.26563 0,-0.20833 0.0365,-0.39583 0.10938,-0.5625 0.0729,-0.16666 0.17708,-0.30729 0.3125,-0.42187 0.13541,-0.125 0.29687,-0.21875 0.48437,-0.28125 0.1875,-0.0729 0.39583,-0.10938 0.625,-0.10938 0.10417,0 0.19792,0.0104 0.28125,0.0312 0.0937,0.0104 0.17188,0.026 0.23438,0.0469 l 1.42187,0 0,0.54687 z m -2.35937,3.9375 c 0,0.1875 0.0937,0.32292 0.28125,0.40625 0.19791,0.0833 0.46875,0.125 0.8125,0.125 0.21875,0 0.40104,-0.0208 0.54687,-0.0625 0.14583,-0.0312 0.26042,-0.0781 0.34375,-0.14062 0.0937,-0.0625 0.16146,-0.13542 0.20313,-0.21875 0.0417,-0.0833 0.0625,-0.16667 0.0625,-0.25 0,-0.16667 -0.0677,-0.28646 -0.20313,-0.35938 -0.125,-0.0729 -0.32292,-0.11979 -0.59375,-0.14062 l -1.03125,-0.0312 c -0.0833,0.0625 -0.15625,0.11979 -0.21875,0.17187 -0.0521,0.0521 -0.0937,0.10417 -0.125,0.15625 -0.0312,0.0625 -0.0521,0.1198 -0.0625,0.17188 -0.0104,0.0625 -0.0156,0.11979 -0.0156,0.17187 z m 0.20312,-3.20312 c 0,0.125 0.0208,0.23958 0.0625,0.34375 0.0417,0.10417 0.099,0.19271 0.17188,0.26562 0.0833,0.0729 0.17187,0.13021 0.26562,0.17188 0.10417,0.0417 0.21875,0.0625 0.34375,0.0625 0.13542,0 0.25521,-0.0208 0.35938,-0.0625 0.11458,-0.0521 0.20312,-0.11458 0.26562,-0.1875 0.0729,-0.0833 0.13021,-0.17708 0.17188,-0.28125 0.0417,-0.10417 0.0625,-0.20833 0.0625,-0.3125 0,-0.125 -0.0208,-0.23958 -0.0625,-0.34375 -0.0417,-0.10417 -0.10417,-0.19271 -0.1875,-0.26563 -0.0729,-0.0729 -0.16146,-0.1302 -0.26563,-0.17187 -0.10417,-0.0417 -0.21875,-0.0625 -0.34375,-0.0625 -0.13542,0 -0.25521,0.026 -0.35937,0.0781 -0.10417,0.0417 -0.19271,0.10417 -0.26563,0.1875 -0.0729,0.0729 -0.13021,0.16146 -0.17187,0.26563 -0.0312,0.0937 -0.0469,0.19792 -0.0469,0.3125 z m 3.88281,-1.28125 0.625,0 0.0156,0.71875 c 0.23958,-0.28125 0.46875,-0.48438 0.6875,-0.60938 0.22916,-0.125 0.45833,-0.1875 0.6875,-0.1875 0.40625,0 0.71354,0.13542 0.92187,0.40625 0.20834,0.26042 0.30729,0.65105 0.29688,1.17188 l -0.6875,0 c 0,-0.34375 -0.0521,-0.59375 -0.15625,-0.75 -0.10417,-0.15625 -0.26042,-0.23438 -0.46875,-0.23438 -0.0937,0 -0.1875,0.0156 -0.28125,0.0469 -0.0937,0.0312 -0.19271,0.0833 -0.29688,0.15625 -0.0937,0.0729 -0.19791,0.16667 -0.3125,0.28125 -0.10416,0.10417 -0.21875,0.23958 -0.34375,0.40625 l 0,2.51562 -0.6875,0 z m 7.55469,1.75 0,0.25 c 0,0.0625 -0.005,0.11979 -0.0156,0.17187 l -2.75,0 c 0,0.40625 0.10937,0.71875 0.32812,0.9375 0.22917,0.20834 0.55208,0.3125 0.96875,0.3125 0.11458,0 0.22917,-0.005 0.34375,-0.0156 0.11458,-0.0104 0.22396,-0.0208 0.32813,-0.0312 0.11458,-0.0208 0.21875,-0.0365 0.3125,-0.0469 0.10416,-0.0208 0.19791,-0.0469 0.28125,-0.0781 l 0,0.5625 c -0.1875,0.0521 -0.40105,0.0937 -0.64063,0.125 -0.22917,0.0417 -0.46875,0.0625 -0.71875,0.0625 -0.33333,0 -0.625,-0.0469 -0.875,-0.14063 -0.23958,-0.0937 -0.4375,-0.22395 -0.59375,-0.39062 -0.14583,-0.17708 -0.26042,-0.39063 -0.34375,-0.64063 -0.0729,-0.26041 -0.10937,-0.54687 -0.10937,-0.85937 0,-0.28125 0.0417,-0.54167 0.125,-0.78125 0.0833,-0.25 0.19791,-0.46875 0.34375,-0.65625 0.15625,-0.1875 0.34375,-0.33333 0.5625,-0.4375 0.21875,-0.11458 0.46875,-0.17188 0.75,-0.17188 0.28125,0 0.52604,0.0469 0.73437,0.14063 0.20833,0.0833 0.38542,0.20312 0.53125,0.35937 0.14583,0.15625 0.25521,0.34896 0.32813,0.57813 0.0729,0.21875 0.10937,0.46875 0.10937,0.75 z m -0.70312,-0.0937 c 0.0104,-0.17708 -0.005,-0.33854 -0.0469,-0.48438 -0.0417,-0.14583 -0.10937,-0.27083 -0.20312,-0.375 -0.0833,-0.10416 -0.19271,-0.18229 -0.32813,-0.23437 -0.125,-0.0625 -0.27604,-0.0937 -0.45312,-0.0937 -0.14584,0 -0.28125,0.0312 -0.40625,0.0937 -0.11459,0.0521 -0.21875,0.13021 -0.3125,0.23437 -0.0833,0.10417 -0.15625,0.22917 -0.21875,0.375 -0.0521,0.14584 -0.0833,0.3073 -0.0937,0.48438 z m 4.30468,2.26562 -0.0156,-0.53125 c -0.20834,0.20834 -0.42188,0.36459 -0.64063,0.46875 -0.21875,0.0937 -0.45312,0.14063 -0.70312,0.14063 -0.21875,0 -0.41146,-0.0312 -0.57813,-0.0937 -0.15625,-0.0625 -0.28646,-0.14063 -0.39062,-0.23438 -0.0937,-0.10416 -0.16667,-0.22395 -0.21875,-0.35937 -0.0521,-0.13542 -0.0781,-0.28125 -0.0781,-0.4375 0,-0.39583 0.14584,-0.70313 0.4375,-0.92188 0.30209,-0.22916 0.73959,-0.34375 1.3125,-0.34375 l 0.8125,0 0,-0.34375 c 0,-0.22916 -0.0781,-0.41145 -0.23437,-0.54687 -0.14584,-0.14583 -0.36979,-0.21875 -0.67188,-0.21875 -0.21875,0 -0.4375,0.026 -0.65625,0.0781 -0.21875,0.0521 -0.44271,0.125 -0.67187,0.21875 l 0,-0.625 c 0.0937,-0.0312 0.19271,-0.0573 0.29687,-0.0781 0.10417,-0.0312 0.21354,-0.0573 0.32813,-0.0781 0.11458,-0.0312 0.23437,-0.0521 0.35937,-0.0625 0.13542,-0.0208 0.26563,-0.0312 0.39063,-0.0312 0.23958,0 0.45312,0.026 0.64062,0.0781 0.19792,0.0521 0.35938,0.13542 0.48438,0.25 0.13541,0.10417 0.23437,0.23958 0.29687,0.40625 0.0729,0.15625 0.10938,0.34375 0.10938,0.5625 l 0,2.70312 z m -0.0625,-1.78125 -0.875,0 c -0.16666,0 -0.3125,0.0156 -0.4375,0.0469 -0.11458,0.0312 -0.21354,0.0781 -0.29687,0.14062 -0.0729,0.0625 -0.13021,0.14063 -0.17188,0.23438 -0.0417,0.0833 -0.0625,0.17708 -0.0625,0.28125 0,0.0833 0.0104,0.16146 0.0312,0.23437 0.0312,0.0625 0.0729,0.1198 0.125,0.17188 0.0521,0.0521 0.11979,0.0937 0.20313,0.125 0.0833,0.0312 0.18229,0.0469 0.29687,0.0469 0.15625,0 0.33334,-0.0469 0.53125,-0.14062 0.20834,-0.0937 0.42709,-0.24479 0.65625,-0.45313 z m 5.10157,1.71875 c -0.14584,0.0417 -0.30209,0.0729 -0.46875,0.0937 -0.16667,0.0208 -0.33334,0.0312 -0.5,0.0312 -0.48959,0 -0.85938,-0.10937 -1.10938,-0.32812 -0.23958,-0.22917 -0.35937,-0.57813 -0.35937,-1.04688 l 0,-2.04687 -1.09375,0 0,-0.5625 1.09375,0 0,-1.07813 0.6875,-0.17187 0,1.25 1.75,0 0,0.5625 -1.75,0 0,2 c 0,0.28125 0.0729,0.49479 0.21875,0.64062 0.14583,0.13542 0.36458,0.20313 0.65625,0.20313 0.125,0 0.26041,-0.0104 0.40625,-0.0312 0.15625,-0.0208 0.3125,-0.0521 0.46875,-0.0937 z m 4.39843,-5.45312 -2.6875,6.35937 -0.64062,0 2.67187,-6.35937 z m 4.60157,3.48437 c 0,0.34375 -0.0521,0.64584 -0.15625,0.90625 -0.0937,0.26042 -0.22917,0.47917 -0.40625,0.65625 -0.16667,0.16667 -0.3698,0.29688 -0.60938,0.39063 -0.22917,0.0833 -0.47917,0.125 -0.75,0.125 -0.125,0 -0.25,-0.005 -0.375,-0.0156 -0.125,-0.0104 -0.25,-0.0365 -0.375,-0.0781 l 0,1.65625 -0.6875,0 0,-5.53125 0.60938,0 0.0469,0.65625 c 0.1875,-0.27083 0.39063,-0.45833 0.60938,-0.5625 0.22916,-0.11458 0.47395,-0.17188 0.73437,-0.17188 0.21875,0 0.41146,0.0469 0.57813,0.14063 0.17708,0.0937 0.32291,0.22917 0.4375,0.40625 0.11458,0.16667 0.19791,0.36979 0.25,0.60937 0.0625,0.23959 0.0937,0.51042 0.0937,0.8125 z m -0.70313,0.0312 c 0,-0.20833 -0.0156,-0.39583 -0.0469,-0.5625 -0.0312,-0.17708 -0.0781,-0.32291 -0.14063,-0.4375 -0.0625,-0.125 -0.14583,-0.22395 -0.25,-0.29687 -0.10417,-0.0729 -0.22396,-0.10938 -0.35937,-0.10938 -0.0833,0 -0.17188,0.0156 -0.26563,0.0469 -0.0833,0.0312 -0.17708,0.0781 -0.28125,0.14062 -0.0937,0.0625 -0.19271,0.14584 -0.29687,0.25 -0.10417,0.10417 -0.21355,0.23438 -0.32813,0.39063 l 0,1.90625 c 0.125,0.0521 0.25521,0.0937 0.39063,0.125 0.13541,0.0312 0.27083,0.0469 0.40625,0.0469 0.36458,0 0.65104,-0.125 0.85937,-0.375 0.20833,-0.25 0.3125,-0.625 0.3125,-1.125 z m 1.89844,-1.92187 0.625,0 0.0156,0.71875 c 0.23959,-0.28125 0.46875,-0.48438 0.6875,-0.60938 0.22917,-0.125 0.45834,-0.1875 0.6875,-0.1875 0.40625,0 0.71354,0.13542 0.92188,0.40625 0.20833,0.26042 0.30729,0.65105 0.29687,1.17188 l -0.6875,0 c 0,-0.34375 -0.0521,-0.59375 -0.15625,-0.75 -0.10416,-0.15625 -0.26041,-0.23438 -0.46875,-0.23438 -0.0937,0 -0.1875,0.0156 -0.28125,0.0469 -0.0937,0.0312 -0.19271,0.0833 -0.29687,0.15625 -0.0937,0.0729 -0.19792,0.16667 -0.3125,0.28125 -0.10417,0.10417 -0.21875,0.23958 -0.34375,0.40625 l 0,2.51562 -0.6875,0 z m 7.66406,1.92187 c 0,0.3125 -0.0469,0.59375 -0.14062,0.84375 -0.0833,0.25 -0.20834,0.46875 -0.375,0.65625 -0.15625,0.17709 -0.34896,0.31771 -0.57813,0.42188 -0.22917,0.10417 -0.49479,0.15625 -0.79687,0.15625 -0.28125,0 -0.53125,-0.0417 -0.75,-0.125 -0.21875,-0.0937 -0.40625,-0.22396 -0.5625,-0.39063 -0.15625,-0.17708 -0.27605,-0.39062 -0.35938,-0.64062 -0.0833,-0.25 -0.125,-0.53646 -0.125,-0.85938 0,-0.30208 0.0417,-0.57812 0.125,-0.82812 0.0937,-0.26042 0.21875,-0.47917 0.375,-0.65625 0.16667,-0.17708 0.36458,-0.31771 0.59375,-0.42188 0.22917,-0.10416 0.48958,-0.15625 0.78125,-0.15625 0.28125,0 0.53125,0.0469 0.75,0.14063 0.22917,0.0833 0.42188,0.20833 0.57813,0.375 0.15625,0.16667 0.27604,0.375 0.35937,0.625 0.0833,0.25 0.125,0.53646 0.125,0.85937 z m -0.70312,0.0312 c 0,-0.23958 -0.026,-0.44791 -0.0781,-0.625 -0.0521,-0.1875 -0.13021,-0.33854 -0.23437,-0.45312 -0.0937,-0.125 -0.21355,-0.21875 -0.35938,-0.28125 -0.13542,-0.0625 -0.29167,-0.0937 -0.46875,-0.0937 -0.20833,0 -0.38542,0.0417 -0.53125,0.125 -0.13542,0.0833 -0.25,0.19271 -0.34375,0.32812 -0.0937,0.125 -0.16146,0.27605 -0.20312,0.45313 -0.0417,0.17708 -0.0625,0.35937 -0.0625,0.54687 0,0.25 0.026,0.46875 0.0781,0.65625 0.0521,0.17709 0.125,0.32813 0.21875,0.45313 0.10417,0.11458 0.22396,0.20312 0.35938,0.26562 0.14583,0.0625 0.30729,0.0937 0.48437,0.0937 0.19792,0 0.36979,-0.0417 0.51563,-0.125 0.14583,-0.0833 0.26562,-0.1875 0.35937,-0.3125 0.0937,-0.13541 0.16146,-0.29166 0.20313,-0.46875 0.0417,-0.17708 0.0625,-0.36458 0.0625,-0.5625 z m 4.33593,-1.95312 0,3.84375 c 0,0.28125 -0.0417,0.52604 -0.125,0.73437 -0.0729,0.21875 -0.18229,0.40105 -0.32812,0.54688 -0.14584,0.14583 -0.32813,0.25521 -0.54688,0.32812 -0.20833,0.0729 -0.44271,0.10938 -0.70312,0.10938 -0.19792,0 -0.39063,-0.0208 -0.57813,-0.0625 -0.17708,-0.0312 -0.33854,-0.0781 -0.48437,-0.14063 l 0,-0.64062 c 0.0833,0.0417 0.16666,0.0781 0.25,0.10937 0.0937,0.0312 0.1875,0.0573 0.28125,0.0781 0.10416,0.0312 0.20312,0.0521 0.29687,0.0625 0.10417,0.0104 0.20313,0.0156 0.29688,0.0156 0.30208,0 0.53646,-0.0937 0.70312,-0.28125 0.16667,-0.1875 0.25,-0.46354 0.25,-0.82812 l 0,-3.3125 -1.92187,0 0,-0.5625 z m -0.40625,-1.64063 c 0.0729,0 0.14063,0.0156 0.20313,0.0469 0.0729,0.0208 0.13021,0.0573 0.17187,0.10937 0.0521,0.0417 0.0885,0.099 0.10938,0.17188 0.0312,0.0625 0.0469,0.13021 0.0469,0.20312 0,0.0729 -0.0156,0.14063 -0.0469,0.20313 -0.0208,0.0625 -0.0573,0.11979 -0.10938,0.17187 -0.0417,0.0521 -0.099,0.0937 -0.17187,0.125 -0.0625,0.0208 -0.13021,0.0312 -0.20313,0.0312 -0.0729,0 -0.14583,-0.0104 -0.21875,-0.0312 -0.0625,-0.0312 -0.11979,-0.0729 -0.17187,-0.125 -0.0417,-0.0521 -0.0781,-0.10937 -0.10938,-0.17187 -0.0208,-0.0625 -0.0312,-0.13021 -0.0312,-0.20313 0,-0.0729 0.0104,-0.14062 0.0312,-0.20312 0.0312,-0.0729 0.0677,-0.13021 0.10938,-0.17188 0.0521,-0.0521 0.10937,-0.0885 0.17187,-0.10937 0.0729,-0.0312 0.14584,-0.0469 0.21875,-0.0469 z m 5.46094,3.39063 0,0.25 c 0,0.0625 -0.005,0.11979 -0.0156,0.17187 l -2.75,0 c 0,0.40625 0.10937,0.71875 0.32812,0.9375 0.22917,0.20834 0.55208,0.3125 0.96875,0.3125 0.11458,0 0.22917,-0.005 0.34375,-0.0156 0.11458,-0.0104 0.22396,-0.0208 0.32813,-0.0312 0.11458,-0.0208 0.21875,-0.0365 0.3125,-0.0469 0.10416,-0.0208 0.19791,-0.0469 0.28125,-0.0781 l 0,0.5625 c -0.1875,0.0521 -0.40105,0.0937 -0.64063,0.125 -0.22917,0.0417 -0.46875,0.0625 -0.71875,0.0625 -0.33333,0 -0.625,-0.0469 -0.875,-0.14063 -0.23958,-0.0937 -0.4375,-0.22395 -0.59375,-0.39062 -0.14583,-0.17708 -0.26042,-0.39063 -0.34375,-0.64063 -0.0729,-0.26041 -0.10937,-0.54687 -0.10937,-0.85937 0,-0.28125 0.0417,-0.54167 0.125,-0.78125 0.0833,-0.25 0.19791,-0.46875 0.34375,-0.65625 0.15625,-0.1875 0.34375,-0.33333 0.5625,-0.4375 0.21875,-0.11458 0.46875,-0.17188 0.75,-0.17188 0.28125,0 0.52604,0.0469 0.73437,0.14063 0.20833,0.0833 0.38542,0.20312 0.53125,0.35937 0.14583,0.15625 0.25521,0.34896 0.32813,0.57813 0.0729,0.21875 0.10937,0.46875 0.10937,0.75 z m -0.70312,-0.0937 c 0.0104,-0.17708 -0.005,-0.33854 -0.0469,-0.48438 -0.0417,-0.14583 -0.10937,-0.27083 -0.20312,-0.375 -0.0833,-0.10416 -0.19271,-0.18229 -0.32813,-0.23437 -0.125,-0.0625 -0.27604,-0.0937 -0.45312,-0.0937 -0.14584,0 -0.28125,0.0312 -0.40625,0.0937 -0.11459,0.0521 -0.21875,0.13021 -0.3125,0.23437 -0.0833,0.10417 -0.15625,0.22917 -0.21875,0.375 -0.0521,0.14584 -0.0833,0.3073 -0.0937,0.48438 z m 4.83593,2.125 c -0.17708,0.0625 -0.35937,0.10937 -0.54687,0.14062 -0.1875,0.0417 -0.38021,0.0625 -0.57813,0.0625 -0.61458,0 -1.08854,-0.16666 -1.42187,-0.5 -0.33334,-0.34375 -0.5,-0.83854 -0.5,-1.48437 0,-0.3125 0.0469,-0.59375 0.14062,-0.84375 0.0937,-0.25 0.22917,-0.46354 0.40625,-0.64063 0.17709,-0.1875 0.38542,-0.32812 0.625,-0.42187 0.23959,-0.10417 0.50521,-0.15625 0.79688,-0.15625 0.20833,0 0.40104,0.0156 0.57812,0.0469 0.17709,0.0312 0.34375,0.0781 0.5,0.14063 l 0,0.65625 c -0.16666,-0.0937 -0.33854,-0.16146 -0.51562,-0.20313 -0.17709,-0.0417 -0.35938,-0.0625 -0.54688,-0.0625 -0.17708,0 -0.34375,0.0365 -0.5,0.10938 -0.14583,0.0625 -0.28125,0.15625 -0.40625,0.28125 -0.11458,0.125 -0.20833,0.28125 -0.28125,0.46875 -0.0625,0.17708 -0.0937,0.375 -0.0937,0.59375 0,0.47917 0.11459,0.83854 0.34375,1.07812 0.22917,0.22917 0.55209,0.34375 0.96875,0.34375 0.17709,0 0.35417,-0.0208 0.53125,-0.0625 0.17709,-0.0417 0.34375,-0.10416 0.5,-0.1875 z m 4.50782,0.0781 c -0.14584,0.0417 -0.30209,0.0729 -0.46875,0.0937 -0.16667,0.0208 -0.33334,0.0312 -0.5,0.0312 -0.48959,0 -0.85938,-0.10937 -1.10938,-0.32812 -0.23958,-0.22917 -0.35937,-0.57813 -0.35937,-1.04688 l 0,-2.04687 -1.09375,0 0,-0.5625 1.09375,0 0,-1.07813 0.6875,-0.17187 0,1.25 1.75,0 0,0.5625 -1.75,0 0,2 c 0,0.28125 0.0729,0.49479 0.21875,0.64062 0.14583,0.13542 0.36458,0.20313 0.65625,0.20313 0.125,0 0.26041,-0.0104 0.40625,-0.0312 0.15625,-0.0208 0.3125,-0.0521 0.46875,-0.0937 z"
       id="path21050"
       inkscape:connector-curvature="0"
       style="fill:#000000;fill-rule:nonzero"
       sodipodi:nodetypes="cccccccccccccccccccccscccscccscccscscscccccccsccssscssccccscssccsscsscccscscccccssccscccccscsccssccccccsssccsccssscsscccsccccscccssscsccccsscccsscccccscccscccscscscsccsccccccccsccsscscscsscccccscccscccscccscsssccccsscsccccccccccscsccccccccscscsscccccccscccssccssccsccssssccccscccssscsccccsccssccssccsscsssscccsccsscccsscsscscscsccccccsssccccscccscccscccscscssscccsscccccscccscccscscscsccscccccccscssccssccsscccscsscccsscsccccccccccscsccc" />
    <path
       d="m 391.42477,182.95029 177.15091,0 0,222.21088 -177.15091,0 z"
       id="path21052"
       inkscape:connector-curvature="0"
       style="fill:#cccccc;fill-rule:nonzero"
       sodipodi:nodetypes="ccccc" />
    <path
       d="m 391.42477,182.95029 177.15091,0 0,222.21088 -177.15091,0 z"
       id="path21054"
       inkscape:connector-curvature="0"
       style="stroke:#666666;stroke-width:2;stroke-linecap:butt;stroke-linejoin:round"
       sodipodi:nodetypes="ccccc" />
    <path
       d="m 402.53455,205.17175 154.31061,0 0,57.40372 -154.31061,0 z"
       id="path21056"
       inkscape:connector-curvature="0"
       style="fill:#d9d9d9;fill-rule:nonzero"
       sodipodi:nodetypes="ccccc" />
    <path
       d="m 402.53455,205.17175 154.31061,0 0,57.40372 -154.31061,0 z"
       id="path21058"
       inkscape:connector-curvature="0"
       style="stroke:#666666;stroke-width:2;stroke-linecap:butt;stroke-linejoin:round"
       sodipodi:nodetypes="ccccc" />
    <path
       d="m 402.53455,273.49338 154.31061,0 0,57.40375 -154.31061,0 z"
       id="path21060"
       inkscape:connector-curvature="0"
       style="fill:#d9d9d9;fill-rule:nonzero"
       sodipodi:nodetypes="ccccc" />
    <path
       d="m 402.53455,273.49338 154.31061,0 0,57.40375 -154.31061,0 z"
       id="path21062"
       inkscape:connector-curvature="0"
       style="stroke:#666666;stroke-width:2;stroke-linecap:butt;stroke-linejoin:round"
       sodipodi:nodetypes="ccccc" />
    <path
       d="m 402.84494,341.81503 154.31058,0 0,57.40372 -154.31058,0 z"
       id="path21064"
       inkscape:connector-curvature="0"
       style="fill:#d9d9d9;fill-rule:nonzero"
       sodipodi:nodetypes="ccccc" />
    <path
       d="m 402.84494,341.81503 154.31058,0 0,57.40372 -154.31058,0 z"
       id="path21066"
       inkscape:connector-curvature="0"
       style="stroke:#666666;stroke-width:2;stroke-linecap:butt;stroke-linejoin:round"
       sodipodi:nodetypes="ccccc" />
    <path
       d="m 406.85544,212.57765 25.3046,0 0,25.91406 -25.3046,0 z"
       id="path21068"
       inkscape:connector-curvature="0"
       style="fill:#a4c2f4;fill-rule:nonzero"
       sodipodi:nodetypes="ccccc" />
    <path
       d="m 406.85544,212.57765 25.3046,0 0,25.91406 -25.3046,0 z"
       id="path21070"
       inkscape:connector-curvature="0"
       style="stroke:#666666;stroke-width:2;stroke-linecap:butt;stroke-linejoin:round"
       sodipodi:nodetypes="ccccc" />
    <path
       d="m 439.30823,212.57765 25.3046,0 0,25.91406 -25.3046,0 z"
       id="path21072"
       inkscape:connector-curvature="0"
       style="fill:#f9cb9c;fill-rule:nonzero"
       sodipodi:nodetypes="ccccc" />
    <path
       d="m 439.30823,212.57765 25.3046,0 0,25.91406 -25.3046,0 z"
       id="path21074"
       inkscape:connector-curvature="0"
       style="stroke:#666666;stroke-width:2;stroke-linecap:butt;stroke-linejoin:round"
       sodipodi:nodetypes="ccccc" />
    <path
       d="m 471.76102,212.57765 25.3046,0 0,25.91406 -25.3046,0 z"
       id="path21076"
       inkscape:connector-curvature="0"
       style="fill:#b6d7a8;fill-rule:nonzero"
       sodipodi:nodetypes="ccccc" />
    <path
       d="m 471.76102,212.57765 25.3046,0 0,25.91406 -25.3046,0 z"
       id="path21078"
       inkscape:connector-curvature="0"
       style="stroke:#666666;stroke-width:2;stroke-linecap:butt;stroke-linejoin:round"
       sodipodi:nodetypes="ccccc" />
    <path
       d="m 406.85544,280.92938 25.3046,0 0,25.91406 -25.3046,0 z"
       id="path21080"
       inkscape:connector-curvature="0"
       style="fill:#ea9999;fill-rule:nonzero"
       sodipodi:nodetypes="ccccc" />
    <path
       d="m 406.85544,280.92938 25.3046,0 0,25.91406 -25.3046,0 z"
       id="path21082"
       inkscape:connector-curvature="0"
       style="stroke:#666666;stroke-width:2;stroke-linecap:butt;stroke-linejoin:round"
       sodipodi:nodetypes="ccccc" />
    <path
       d="m 439.30823,280.92938 25.3046,0 0,25.91406 -25.3046,0 z"
       id="path21084"
       inkscape:connector-curvature="0"
       style="fill:#d5a6bd;fill-rule:nonzero"
       sodipodi:nodetypes="ccccc" />
    <path
       d="m 439.30823,280.92938 25.3046,0 0,25.91406 -25.3046,0 z"
       id="path21086"
       inkscape:connector-curvature="0"
       style="stroke:#666666;stroke-width:2;stroke-linecap:butt;stroke-linejoin:round"
       sodipodi:nodetypes="ccccc" />
    <path
       d="m 525.30096,346.45193 25.30457,0 0,25.91409 -25.30457,0 z"
       id="path21088"
       inkscape:connector-curvature="0"
       style="fill:#a2c4c9;fill-rule:nonzero"
       sodipodi:nodetypes="ccccc" />
    <path
       d="m 525.30096,346.45193 25.30457,0 0,25.91409 -25.30457,0 z"
       id="path21090"
       inkscape:connector-curvature="0"
       style="stroke:#666666;stroke-width:2;stroke-linecap:butt;stroke-linejoin:round"
       sodipodi:nodetypes="ccccc" />
    <path
       d="m 490.47235,346.45193 25.30457,0 0,25.91409 -25.30457,0 z"
       id="path21092"
       inkscape:connector-curvature="0"
       style="fill:#ffe599;fill-rule:nonzero"
       sodipodi:nodetypes="ccccc" />
    <path
       d="m 490.47235,346.45193 25.30457,0 0,25.91409 -25.30457,0 z"
       id="path21094"
       inkscape:connector-curvature="0"
       style="stroke:#666666;stroke-width:2;stroke-linecap:butt;stroke-linejoin:round"
       sodipodi:nodetypes="ccccc" />
    <path
       d="m 694.4593,397.06824 113.66931,0 0,66.29923 -113.66931,0 z"
       id="path21096"
       inkscape:connector-curvature="0"
       style="fill:#cccccc;fill-rule:nonzero"
       sodipodi:nodetypes="ccccc" />
    <path
       d="m 694.4593,397.06824 113.66931,0 0,66.29923 -113.66931,0 z"
       id="path21098"
       inkscape:connector-curvature="0"
       style="stroke:#666666;stroke-width:2;stroke-linecap:butt;stroke-linejoin:round"
       sodipodi:nodetypes="ccccc" />
    <path
       d="m 667.7454,488.35434 28.0766,-24.98688 112.30658,0 -28.07666,24.98688 z"
       id="path21100"
       inkscape:connector-curvature="0"
       style="fill:#cccccc;fill-rule:nonzero"
       sodipodi:nodetypes="ccccc" />
    <path
       d="m 667.7454,488.35434 28.0766,-24.98688 112.30658,0 -28.07666,24.98688 z"
       id="path21102"
       inkscape:connector-curvature="0"
       style="stroke:#666666;stroke-width:2;stroke-linecap:butt;stroke-linejoin:round"
       sodipodi:nodetypes="ccccc" />
    <path
       d="m 699.6273,403.95276 104.22046,0 0,45.66928 -104.22046,0 z"
       id="path21104"
       inkscape:connector-curvature="0"
       style="fill:#434343;fill-rule:nonzero"
       sodipodi:nodetypes="ccccc" />
    <path
       d="m 699.6273,403.95276 104.22046,0 0,45.66928 -104.22046,0 z"
       id="path21106"
       inkscape:connector-curvature="0"
       style="stroke:#666666;stroke-width:2;stroke-linecap:butt;stroke-linejoin:round"
       sodipodi:nodetypes="ccccc" />
    <path
       d="m 699.6273,407.39896 104.22046,0 0,38.77164 -104.22046,0 z"
       id="path21108"
       inkscape:connector-curvature="0"
       style="fill:#000000;fill-opacity:0;fill-rule:nonzero"
       sodipodi:nodetypes="ccccc" />
    <path
       d="m 711.90857,420.15707 0,3.84375 c 0,0.28125 -0.0417,0.52604 -0.125,0.73437 -0.0729,0.21875 -0.18229,0.40105 -0.32812,0.54688 -0.14584,0.14583 -0.32813,0.25521 -0.54688,0.32812 -0.20833,0.0729 -0.44271,0.10938 -0.70312,0.10938 -0.19792,0 -0.39063,-0.0208 -0.57813,-0.0625 -0.17708,-0.0312 -0.33854,-0.0781 -0.48437,-0.14063 l 0,-0.64062 c 0.0833,0.0417 0.16666,0.0781 0.25,0.10937 0.0937,0.0312 0.1875,0.0573 0.28125,0.0781 0.10416,0.0312 0.20312,0.0521 0.29687,0.0625 0.10417,0.0104 0.20313,0.0156 0.29688,0.0156 0.30208,0 0.53645,-0.0937 0.70312,-0.28125 0.16667,-0.1875 0.25,-0.46354 0.25,-0.82812 l 0,-3.3125 -1.92187,0 0,-0.5625 z m -0.40625,-1.64063 c 0.0729,0 0.14063,0.0156 0.20313,0.0469 0.0729,0.0208 0.1302,0.0573 0.17187,0.10937 0.0521,0.0417 0.0885,0.099 0.10938,0.17188 0.0312,0.0625 0.0469,0.13021 0.0469,0.20312 0,0.0729 -0.0156,0.14063 -0.0469,0.20313 -0.0208,0.0625 -0.0573,0.11979 -0.10938,0.17187 -0.0417,0.0521 -0.099,0.0937 -0.17187,0.125 -0.0625,0.0208 -0.13021,0.0312 -0.20313,0.0312 -0.0729,0 -0.14583,-0.0104 -0.21875,-0.0312 -0.0625,-0.0312 -0.11979,-0.0729 -0.17187,-0.125 -0.0417,-0.0521 -0.0781,-0.10937 -0.10938,-0.17187 -0.0208,-0.0625 -0.0312,-0.13021 -0.0312,-0.20313 0,-0.0729 0.0104,-0.14062 0.0312,-0.20312 0.0312,-0.0729 0.0677,-0.13021 0.10938,-0.17188 0.0521,-0.0521 0.10937,-0.0885 0.17187,-0.10937 0.0729,-0.0312 0.14583,-0.0469 0.21875,-0.0469 z m 4.66406,5.5625 -0.0156,-0.53125 c -0.20834,0.20834 -0.42188,0.36459 -0.64063,0.46875 -0.21875,0.0937 -0.45312,0.14063 -0.70312,0.14063 -0.21875,0 -0.41146,-0.0312 -0.57813,-0.0937 -0.15625,-0.0625 -0.28646,-0.14063 -0.39062,-0.23438 -0.0937,-0.10416 -0.16667,-0.22395 -0.21875,-0.35937 -0.0521,-0.13542 -0.0781,-0.28125 -0.0781,-0.4375 0,-0.39583 0.14584,-0.70313 0.4375,-0.92188 0.30209,-0.22916 0.73959,-0.34375 1.3125,-0.34375 l 0.8125,0 0,-0.34375 c 0,-0.22916 -0.0781,-0.41145 -0.23437,-0.54687 -0.14584,-0.14583 -0.36979,-0.21875 -0.67188,-0.21875 -0.21875,0 -0.4375,0.026 -0.65625,0.0781 -0.21875,0.0521 -0.44271,0.125 -0.67187,0.21875 l 0,-0.625 c 0.0937,-0.0312 0.19271,-0.0573 0.29687,-0.0781 0.10417,-0.0312 0.21354,-0.0573 0.32813,-0.0781 0.11458,-0.0312 0.23437,-0.0521 0.35937,-0.0625 0.13542,-0.0208 0.26563,-0.0312 0.39063,-0.0312 0.23958,0 0.45312,0.026 0.64062,0.0781 0.19792,0.0521 0.35938,0.13542 0.48438,0.25 0.13541,0.10417 0.23437,0.23958 0.29687,0.40625 0.0729,0.15625 0.10938,0.34375 0.10938,0.5625 l 0,2.70312 z m -0.0625,-1.78125 -0.875,0 c -0.16666,0 -0.3125,0.0156 -0.4375,0.0469 -0.11458,0.0312 -0.21354,0.0781 -0.29687,0.14062 -0.0729,0.0625 -0.13021,0.14063 -0.17188,0.23438 -0.0417,0.0833 -0.0625,0.17708 -0.0625,0.28125 0,0.0833 0.0104,0.16146 0.0312,0.23437 0.0312,0.0625 0.0729,0.1198 0.125,0.17188 0.0521,0.0521 0.11979,0.0937 0.20313,0.125 0.0833,0.0312 0.18229,0.0469 0.29687,0.0469 0.15625,0 0.33334,-0.0469 0.53125,-0.14062 0.20834,-0.0937 0.42709,-0.24479 0.65625,-0.45313 z m 1.58594,-2.14062 0.76563,0 0.96875,2.59375 0.20312,0.625 0.21875,-0.64063 0.95313,-2.57812 0.73437,0 -1.53125,3.92187 -0.78125,0 z m 7.27344,3.92187 -0.0156,-0.53125 c -0.20833,0.20834 -0.42187,0.36459 -0.64062,0.46875 -0.21875,0.0937 -0.45313,0.14063 -0.70313,0.14063 -0.21875,0 -0.41146,-0.0312 -0.57812,-0.0937 -0.15625,-0.0625 -0.28646,-0.14063 -0.39063,-0.23438 -0.0937,-0.10416 -0.16666,-0.22395 -0.21875,-0.35937 -0.0521,-0.13542 -0.0781,-0.28125 -0.0781,-0.4375 0,-0.39583 0.14583,-0.70313 0.4375,-0.92188 0.30208,-0.22916 0.73958,-0.34375 1.3125,-0.34375 l 0.8125,0 0,-0.34375 c 0,-0.22916 -0.0781,-0.41145 -0.23438,-0.54687 -0.14583,-0.14583 -0.36979,-0.21875 -0.67187,-0.21875 -0.21875,0 -0.4375,0.026 -0.65625,0.0781 -0.21875,0.0521 -0.44271,0.125 -0.67188,0.21875 l 0,-0.625 c 0.0937,-0.0312 0.19271,-0.0573 0.29688,-0.0781 0.10416,-0.0312 0.21354,-0.0573 0.32812,-0.0781 0.11459,-0.0312 0.23438,-0.0521 0.35938,-0.0625 0.13541,-0.0208 0.26562,-0.0312 0.39062,-0.0312 0.23959,0 0.45313,0.026 0.64063,0.0781 0.19791,0.0521 0.35937,0.13542 0.48437,0.25 0.13542,0.10417 0.23438,0.23958 0.29688,0.40625 0.0729,0.15625 0.10937,0.34375 0.10937,0.5625 l 0,2.70312 z m -0.0625,-1.78125 -0.875,0 c -0.16667,0 -0.3125,0.0156 -0.4375,0.0469 -0.11459,0.0312 -0.21354,0.0781 -0.29688,0.14062 -0.0729,0.0625 -0.13021,0.14063 -0.17187,0.23438 -0.0417,0.0833 -0.0625,0.17708 -0.0625,0.28125 0,0.0833 0.0104,0.16146 0.0312,0.23437 0.0312,0.0625 0.0729,0.1198 0.125,0.17188 0.0521,0.0521 0.11979,0.0937 0.20312,0.125 0.0833,0.0312 0.18229,0.0469 0.29688,0.0469 0.15625,0 0.33333,-0.0469 0.53125,-0.14062 0.20833,-0.0937 0.42708,-0.24479 0.65625,-0.45313 z m 4.99219,1.64063 c -0.17709,0.0625 -0.35938,0.10937 -0.54688,0.14062 -0.1875,0.0417 -0.38021,0.0625 -0.57812,0.0625 -0.61459,0 -1.08855,-0.16666 -1.42188,-0.5 -0.33333,-0.34375 -0.5,-0.83854 -0.5,-1.48437 0,-0.3125 0.0469,-0.59375 0.14063,-0.84375 0.0937,-0.25 0.22916,-0.46354 0.40625,-0.64063 0.17708,-0.1875 0.38541,-0.32812 0.625,-0.42187 0.23958,-0.10417 0.5052,-0.15625 0.79687,-0.15625 0.20833,0 0.40104,0.0156 0.57813,0.0469 0.17708,0.0312 0.34375,0.0781 0.5,0.14063 l 0,0.65625 c -0.16667,-0.0937 -0.33855,-0.16146 -0.51563,-0.20313 -0.17708,-0.0417 -0.35937,-0.0625 -0.54687,-0.0625 -0.17709,0 -0.34375,0.0365 -0.5,0.10938 -0.14584,0.0625 -0.28125,0.15625 -0.40625,0.28125 -0.11459,0.125 -0.20834,0.28125 -0.28125,0.46875 -0.0625,0.17708 -0.0937,0.375 -0.0937,0.59375 0,0.47917 0.11458,0.83854 0.34375,1.07812 0.22916,0.22917 0.55208,0.34375 0.96875,0.34375 0.17708,0 0.35416,-0.0208 0.53125,-0.0625 0.17708,-0.0417 0.34375,-0.10416 0.5,-0.1875 z m 8.90625,0.14062 -0.6875,0 0,-2.5 c 0,-0.30208 -0.0573,-0.52604 -0.17188,-0.67187 -0.10417,-0.15625 -0.26562,-0.23438 -0.48437,-0.23438 -0.0833,0 -0.16667,0.0156 -0.25,0.0469 -0.0833,0.0208 -0.16667,0.0625 -0.25,0.125 -0.0833,0.0521 -0.17709,0.13021 -0.28125,0.23437 -0.10417,0.10417 -0.21875,0.23438 -0.34375,0.39063 l 0,2.60937 -0.6875,0 0,-5.51562 0.6875,0 0,1.59375 -0.0312,0.60937 c 0.10416,-0.125 0.20833,-0.22916 0.3125,-0.3125 0.10416,-0.0937 0.20833,-0.16666 0.3125,-0.21875 0.10416,-0.0521 0.20833,-0.0885 0.3125,-0.10937 0.10416,-0.0312 0.21354,-0.0469 0.32812,-0.0469 0.39583,0 0.69792,0.1198 0.90625,0.35938 0.21875,0.23958 0.32813,0.59896 0.32813,1.07812 z m 2.58593,-3.35937 -1.17187,0 0,-0.5625 1.85937,0 0,3.35937 1.15625,0 0,0.5625 -3.14062,0 0,-0.5625 1.29687,0 z m 0.23438,-2.20313 c 0.0729,0 0.14062,0.0156 0.20312,0.0469 0.0729,0.0208 0.13021,0.0573 0.17188,0.10937 0.0521,0.0417 0.0885,0.099 0.10937,0.17188 0.0312,0.0625 0.0469,0.13021 0.0469,0.20312 0,0.0729 -0.0156,0.14063 -0.0469,0.20313 -0.0208,0.0625 -0.0573,0.11979 -0.10937,0.17187 -0.0417,0.0521 -0.099,0.0937 -0.17188,0.125 -0.0625,0.0208 -0.13021,0.0312 -0.20312,0.0312 -0.0729,0 -0.14584,-0.0104 -0.21875,-0.0312 -0.0625,-0.0312 -0.11979,-0.0729 -0.17188,-0.125 -0.0417,-0.0521 -0.0781,-0.10937 -0.10937,-0.17187 -0.0208,-0.0625 -0.0312,-0.13021 -0.0312,-0.20313 0,-0.0729 0.0104,-0.14062 0.0312,-0.20312 0.0312,-0.0729 0.0677,-0.13021 0.10937,-0.17188 0.0521,-0.0521 0.10938,-0.0885 0.17188,-0.10937 0.0729,-0.0312 0.14583,-0.0469 0.21875,-0.0469 z m 5.97656,5.5 c -0.14583,0.0417 -0.30208,0.0729 -0.46875,0.0937 -0.16667,0.0208 -0.33333,0.0312 -0.5,0.0312 -0.48958,0 -0.85937,-0.10937 -1.10937,-0.32812 -0.23959,-0.22917 -0.35938,-0.57813 -0.35938,-1.04688 l 0,-2.04687 -1.09375,0 0,-0.5625 1.09375,0 0,-1.07813 0.6875,-0.17187 0,1.25 1.75,0 0,0.5625 -1.75,0 0,2 c 0,0.28125 0.0729,0.49479 0.21875,0.64062 0.14583,0.13542 0.36458,0.20313 0.65625,0.20313 0.125,0 0.26042,-0.0104 0.40625,-0.0312 0.15625,-0.0208 0.3125,-0.0521 0.46875,-0.0937 z m 4.39844,0.0625 -0.6875,0 0,-2.5 c 0,-0.30208 -0.0573,-0.52604 -0.17188,-0.67187 -0.10416,-0.15625 -0.26562,-0.23438 -0.48437,-0.23438 -0.0833,0 -0.16667,0.0156 -0.25,0.0469 -0.0833,0.0208 -0.16667,0.0625 -0.25,0.125 -0.0833,0.0521 -0.17709,0.13021 -0.28125,0.23437 -0.10417,0.10417 -0.21875,0.23438 -0.34375,0.39063 l 0,2.60937 -0.6875,0 0,-5.51562 0.6875,0 0,1.59375 -0.0312,0.60937 c 0.10416,-0.125 0.20833,-0.22916 0.3125,-0.3125 0.10416,-0.0937 0.20833,-0.16666 0.3125,-0.21875 0.10416,-0.0521 0.20833,-0.0885 0.3125,-0.10937 0.10416,-0.0312 0.21354,-0.0469 0.32812,-0.0469 0.39584,0 0.69792,0.1198 0.90625,0.35938 0.21875,0.23958 0.32813,0.59896 0.32813,1.07812 z m 4.55469,-2.17187 0,0.25 c 0,0.0625 -0.005,0.11979 -0.0156,0.17187 l -2.75,0 c 0,0.40625 0.10938,0.71875 0.32813,0.9375 0.22916,0.20834 0.55208,0.3125 0.96875,0.3125 0.11458,0 0.22916,-0.005 0.34375,-0.0156 0.11458,-0.0104 0.22395,-0.0208 0.32812,-0.0312 0.11458,-0.0208 0.21875,-0.0365 0.3125,-0.0469 0.10417,-0.0208 0.19792,-0.0469 0.28125,-0.0781 l 0,0.5625 c -0.1875,0.0521 -0.40104,0.0937 -0.64062,0.125 -0.22917,0.0417 -0.46875,0.0625 -0.71875,0.0625 -0.33334,0 -0.625,-0.0469 -0.875,-0.14063 -0.23959,-0.0937 -0.4375,-0.22395 -0.59375,-0.39062 -0.14584,-0.17708 -0.26042,-0.39063 -0.34375,-0.64063 -0.0729,-0.26041 -0.10938,-0.54687 -0.10938,-0.85937 0,-0.28125 0.0417,-0.54167 0.125,-0.78125 0.0833,-0.25 0.19792,-0.46875 0.34375,-0.65625 0.15625,-0.1875 0.34375,-0.33333 0.5625,-0.4375 0.21875,-0.11458 0.46875,-0.17188 0.75,-0.17188 0.28125,0 0.52604,0.0469 0.73438,0.14063 0.20833,0.0833 0.38541,0.20312 0.53125,0.35937 0.14583,0.15625 0.2552,0.34896 0.32812,0.57813 0.0729,0.21875 0.10938,0.46875 0.10938,0.75 z m -0.70313,-0.0937 c 0.0104,-0.17708 -0.005,-0.33854 -0.0469,-0.48438 -0.0417,-0.14583 -0.10938,-0.27083 -0.20313,-0.375 -0.0833,-0.10416 -0.19271,-0.18229 -0.32812,-0.23437 -0.125,-0.0625 -0.27605,-0.0937 -0.45313,-0.0937 -0.14583,0 -0.28125,0.0312 -0.40625,0.0937 -0.11458,0.0521 -0.21875,0.13021 -0.3125,0.23437 -0.0833,0.10417 -0.15625,0.22917 -0.21875,0.375 -0.0521,0.14584 -0.0833,0.3073 -0.0937,0.48438 z m 1.94531,-1.65625 0.625,0 0.0156,0.71875 c 0.23958,-0.28125 0.46875,-0.48438 0.6875,-0.60938 0.22916,-0.125 0.45833,-0.1875 0.6875,-0.1875 0.40625,0 0.71354,0.13542 0.92187,0.40625 0.20834,0.26042 0.30729,0.65105 0.29688,1.17188 l -0.6875,0 c 0,-0.34375 -0.0521,-0.59375 -0.15625,-0.75 -0.10417,-0.15625 -0.26042,-0.23438 -0.46875,-0.23438 -0.0937,0 -0.1875,0.0156 -0.28125,0.0469 -0.0937,0.0312 -0.19271,0.0833 -0.29688,0.15625 -0.0937,0.0729 -0.19791,0.16667 -0.3125,0.28125 -0.10416,0.10417 -0.21875,0.23958 -0.34375,0.40625 l 0,2.51562 -0.6875,0 z m 7.55469,1.75 0,0.25 c 0,0.0625 -0.005,0.11979 -0.0156,0.17187 l -2.75,0 c 0,0.40625 0.10937,0.71875 0.32812,0.9375 0.22917,0.20834 0.55208,0.3125 0.96875,0.3125 0.11458,0 0.22917,-0.005 0.34375,-0.0156 0.11458,-0.0104 0.22396,-0.0208 0.32813,-0.0312 0.11458,-0.0208 0.21875,-0.0365 0.3125,-0.0469 0.10416,-0.0208 0.19791,-0.0469 0.28125,-0.0781 l 0,0.5625 c -0.1875,0.0521 -0.40105,0.0937 -0.64063,0.125 -0.22917,0.0417 -0.46875,0.0625 -0.71875,0.0625 -0.33333,0 -0.625,-0.0469 -0.875,-0.14063 -0.23958,-0.0937 -0.4375,-0.22395 -0.59375,-0.39062 -0.14583,-0.17708 -0.26042,-0.39063 -0.34375,-0.64063 -0.0729,-0.26041 -0.10937,-0.54687 -0.10937,-0.85937 0,-0.28125 0.0417,-0.54167 0.125,-0.78125 0.0833,-0.25 0.19791,-0.46875 0.34375,-0.65625 0.15625,-0.1875 0.34375,-0.33333 0.5625,-0.4375 0.21875,-0.11458 0.46875,-0.17188 0.75,-0.17188 0.28125,0 0.52604,0.0469 0.73437,0.14063 0.20833,0.0833 0.38542,0.20312 0.53125,0.35937 0.14583,0.15625 0.25521,0.34896 0.32813,0.57813 0.0729,0.21875 0.10937,0.46875 0.10937,0.75 z m -0.70312,-0.0937 c 0.0104,-0.17708 -0.005,-0.33854 -0.0469,-0.48438 -0.0417,-0.14583 -0.10937,-0.27083 -0.20312,-0.375 -0.0833,-0.10416 -0.19271,-0.18229 -0.32813,-0.23437 -0.125,-0.0625 -0.27604,-0.0937 -0.45312,-0.0937 -0.14584,0 -0.28125,0.0312 -0.40625,0.0937 -0.11459,0.0521 -0.21875,0.13021 -0.3125,0.23437 -0.0833,0.10417 -0.15625,0.22917 -0.21875,0.375 -0.0521,0.14584 -0.0833,0.3073 -0.0937,0.48438 z m 3.33593,1.03125 c 0.0833,0 0.16667,0.0208 0.25,0.0625 0.0833,0.0312 0.15104,0.0781 0.20313,0.14062 0.0625,0.0521 0.10937,0.1198 0.14062,0.20313 0.0312,0.0729 0.0469,0.15625 0.0469,0.25 0,0.0937 -0.0156,0.18229 -0.0469,0.26562 -0.0312,0.0729 -0.0781,0.14063 -0.14062,0.20313 -0.0521,0.0521 -0.11979,0.0937 -0.20313,0.125 -0.0833,0.0417 -0.16666,0.0625 -0.25,0.0625 -0.0937,0 -0.18229,-0.0208 -0.26562,-0.0625 -0.0729,-0.0312 -0.14063,-0.0729 -0.20313,-0.125 -0.0521,-0.0625 -0.099,-0.13021 -0.14062,-0.20313 -0.0312,-0.0833 -0.0469,-0.17187 -0.0469,-0.26562 0,-0.0937 0.0156,-0.17708 0.0469,-0.25 0.0417,-0.0833 0.0885,-0.15104 0.14062,-0.20313 0.0625,-0.0625 0.13021,-0.10937 0.20313,-0.14062 0.0833,-0.0417 0.17187,-0.0625 0.26562,-0.0625 z m 5.50782,-2.6875 0,3.84375 c 0,0.28125 -0.0417,0.52604 -0.125,0.73437 -0.0729,0.21875 -0.1823,0.40105 -0.32813,0.54688 -0.14583,0.14583 -0.32812,0.25521 -0.54687,0.32812 -0.20834,0.0729 -0.44271,0.10938 -0.70313,0.10938 -0.19792,0 -0.39062,-0.0208 -0.57812,-0.0625 -0.17709,-0.0312 -0.33855,-0.0781 -0.48438,-0.14063 l 0,-0.64062 c 0.0833,0.0417 0.16667,0.0781 0.25,0.10937 0.0937,0.0312 0.1875,0.0573 0.28125,0.0781 0.10417,0.0312 0.20313,0.0521 0.29688,0.0625 0.10416,0.0104 0.20312,0.0156 0.29687,0.0156 0.30208,0 0.53646,-0.0937 0.70313,-0.28125 0.16666,-0.1875 0.25,-0.46354 0.25,-0.82812 l 0,-3.3125 -1.92188,0 0,-0.5625 z m -0.40625,-1.64063 c 0.0729,0 0.14062,0.0156 0.20312,0.0469 0.0729,0.0208 0.13021,0.0573 0.17188,0.10937 0.0521,0.0417 0.0885,0.099 0.10937,0.17188 0.0312,0.0625 0.0469,0.13021 0.0469,0.20312 0,0.0729 -0.0156,0.14063 -0.0469,0.20313 -0.0208,0.0625 -0.0573,0.11979 -0.10937,0.17187 -0.0417,0.0521 -0.099,0.0937 -0.17188,0.125 -0.0625,0.0208 -0.13021,0.0312 -0.20312,0.0312 -0.0729,0 -0.14584,-0.0104 -0.21875,-0.0312 -0.0625,-0.0312 -0.1198,-0.0729 -0.17188,-0.125 -0.0417,-0.0521 -0.0781,-0.10937 -0.10937,-0.17187 -0.0208,-0.0625 -0.0312,-0.13021 -0.0312,-0.20313 0,-0.0729 0.0104,-0.14062 0.0312,-0.20312 0.0312,-0.0729 0.0677,-0.13021 0.10937,-0.17188 0.0521,-0.0521 0.10938,-0.0885 0.17188,-0.10937 0.0729,-0.0312 0.14583,-0.0469 0.21875,-0.0469 z m 4.66406,5.5625 -0.0156,-0.53125 c -0.20833,0.20834 -0.42187,0.36459 -0.64062,0.46875 -0.21875,0.0937 -0.45313,0.14063 -0.70313,0.14063 -0.21875,0 -0.41146,-0.0312 -0.57812,-0.0937 -0.15625,-0.0625 -0.28646,-0.14063 -0.39063,-0.23438 -0.0937,-0.10416 -0.16666,-0.22395 -0.21875,-0.35937 -0.0521,-0.13542 -0.0781,-0.28125 -0.0781,-0.4375 0,-0.39583 0.14583,-0.70313 0.4375,-0.92188 0.30208,-0.22916 0.73958,-0.34375 1.3125,-0.34375 l 0.8125,0 0,-0.34375 c 0,-0.22916 -0.0781,-0.41145 -0.23438,-0.54687 -0.14583,-0.14583 -0.36979,-0.21875 -0.67187,-0.21875 -0.21875,0 -0.4375,0.026 -0.65625,0.0781 -0.21875,0.0521 -0.44271,0.125 -0.67188,0.21875 l 0,-0.625 c 0.0937,-0.0312 0.19271,-0.0573 0.29688,-0.0781 0.10416,-0.0312 0.21354,-0.0573 0.32812,-0.0781 0.11459,-0.0312 0.23438,-0.0521 0.35938,-0.0625 0.13541,-0.0208 0.26562,-0.0312 0.39062,-0.0312 0.23959,0 0.45313,0.026 0.64063,0.0781 0.19791,0.0521 0.35937,0.13542 0.48437,0.25 0.13542,0.10417 0.23438,0.23958 0.29688,0.40625 0.0729,0.15625 0.10937,0.34375 0.10937,0.5625 l 0,2.70312 z m -0.0625,-1.78125 -0.875,0 c -0.16667,0 -0.3125,0.0156 -0.4375,0.0469 -0.11459,0.0312 -0.21354,0.0781 -0.29688,0.14062 -0.0729,0.0625 -0.13021,0.14063 -0.17187,0.23438 -0.0417,0.0833 -0.0625,0.17708 -0.0625,0.28125 0,0.0833 0.0104,0.16146 0.0312,0.23437 0.0312,0.0625 0.0729,0.1198 0.125,0.17188 0.0521,0.0521 0.11979,0.0937 0.20312,0.125 0.0833,0.0312 0.18229,0.0469 0.29688,0.0469 0.15625,0 0.33333,-0.0469 0.53125,-0.14062 0.20833,-0.0937 0.42708,-0.24479 0.65625,-0.45313 z m 1.58594,-2.14062 0.76562,0 0.96875,2.59375 0.20313,0.625 0.21875,-0.64063 0.95312,-2.57812 0.73438,0 -1.53125,3.92187 -0.78125,0 z m 7.27343,3.92187 -0.0156,-0.53125 c -0.20834,0.20834 -0.42188,0.36459 -0.64063,0.46875 -0.21875,0.0937 -0.45312,0.14063 -0.70312,0.14063 -0.21875,0 -0.41146,-0.0312 -0.57813,-0.0937 -0.15625,-0.0625 -0.28646,-0.14063 -0.39062,-0.23438 -0.0937,-0.10416 -0.16667,-0.22395 -0.21875,-0.35937 -0.0521,-0.13542 -0.0781,-0.28125 -0.0781,-0.4375 0,-0.39583 0.14584,-0.70313 0.4375,-0.92188 0.30209,-0.22916 0.73959,-0.34375 1.3125,-0.34375 l 0.8125,0 0,-0.34375 c 0,-0.22916 -0.0781,-0.41145 -0.23437,-0.54687 -0.14584,-0.14583 -0.36979,-0.21875 -0.67188,-0.21875 -0.21875,0 -0.4375,0.026 -0.65625,0.0781 -0.21875,0.0521 -0.44271,0.125 -0.67187,0.21875 l 0,-0.625 c 0.0937,-0.0312 0.19271,-0.0573 0.29687,-0.0781 0.10417,-0.0312 0.21354,-0.0573 0.32813,-0.0781 0.11458,-0.0312 0.23437,-0.0521 0.35937,-0.0625 0.13542,-0.0208 0.26563,-0.0312 0.39063,-0.0312 0.23958,0 0.45312,0.026 0.64062,0.0781 0.19792,0.0521 0.35938,0.13542 0.48438,0.25 0.13541,0.10417 0.23437,0.23958 0.29687,0.40625 0.0729,0.15625 0.10938,0.34375 0.10938,0.5625 l 0,2.70312 z m -0.0625,-1.78125 -0.875,0 c -0.16666,0 -0.3125,0.0156 -0.4375,0.0469 -0.11458,0.0312 -0.21354,0.0781 -0.29687,0.14062 -0.0729,0.0625 -0.13021,0.14063 -0.17188,0.23438 -0.0417,0.0833 -0.0625,0.17708 -0.0625,0.28125 0,0.0833 0.0104,0.16146 0.0312,0.23437 0.0312,0.0625 0.0729,0.1198 0.125,0.17188 0.0521,0.0521 0.11979,0.0937 0.20313,0.125 0.0833,0.0312 0.18229,0.0469 0.29687,0.0469 0.15625,0 0.33334,-0.0469 0.53125,-0.14062 0.20834,-0.0937 0.42709,-0.24479 0.65625,-0.45313 z"
       id="path21110"
       inkscape:connector-curvature="0"
       style="fill:#000000;fill-rule:nonzero"
       sodipodi:nodetypes="cscscsccccccsssccccscccscccscccscscscccsccsscscscsscccccscccscccscccscsssccccccccccccccccsccsscscscsscccccscccscccscccscssscccccscssccssccsscccscssccccscsccsccccccccscscsccccccccccccscccscccscccscscscsscsccccccccccscscccccscsccsccccccccscscscsscccsscccccscccscccscscscsccscccccccccscccssscsccccsscccsscccccscccscccscscscsccscccccscccscscscccscscscscscsccccccsssccccscccscccscccscscscccsccsscscscsscccccscccscccscccscsssccccccccccccccccsccsscscscsscccccscccscccscccscsssccc" />
    <path
       d="m 728.92914,188.57217 113.66931,0 0,66.29922 -113.66931,0 z"
       id="path21112"
       inkscape:connector-curvature="0"
       style="fill:#cccccc;fill-rule:nonzero"
       sodipodi:nodetypes="ccccc" />
    <path
       d="m 728.92914,188.57217 113.66931,0 0,66.29922 -113.66931,0 z"
       id="path21114"
       inkscape:connector-curvature="0"
       style="stroke:#666666;stroke-width:2;stroke-linecap:butt;stroke-linejoin:round"
       sodipodi:nodetypes="ccccc" />
    <path
       d="m 702.2152,279.85828 28.07666,-24.98689 112.30658,0 -28.07666,24.98689 z"
       id="path21116"
       inkscape:connector-curvature="0"
       style="fill:#cccccc;fill-rule:nonzero"
       sodipodi:nodetypes="ccccc" />
    <path
       d="m 702.2152,279.85828 28.07666,-24.98689 112.30658,0 -28.07666,24.98689 z"
       id="path21118"
       inkscape:connector-curvature="0"
       style="stroke:#666666;stroke-width:2;stroke-linecap:butt;stroke-linejoin:round"
       sodipodi:nodetypes="ccccc" />
    <path
       d="m 734.0971,195.4567 104.22046,0 0,45.66928 -104.22046,0 z"
       id="path21120"
       inkscape:connector-curvature="0"
       style="fill:#434343;fill-rule:nonzero"
       sodipodi:nodetypes="ccccc" />
    <path
       d="m 734.0971,195.4567 104.22046,0 0,45.66928 -104.22046,0 z"
       id="path21122"
       inkscape:connector-curvature="0"
       style="stroke:#666666;stroke-width:2;stroke-linecap:butt;stroke-linejoin:round"
       sodipodi:nodetypes="ccccc" />
    <path
       d="m 734.0971,198.9029 104.22046,0 0,38.77165 -104.22046,0 z"
       id="path21124"
       inkscape:connector-curvature="0"
       style="fill:#000000;fill-opacity:0;fill-rule:nonzero"
       sodipodi:nodetypes="ccccc" />
    <path
       d="m 746.55023,212.20789 c 0.0729,0.0937 0.13021,0.20313 0.17188,0.32813 0.0417,0.11458 0.0625,0.24479 0.0625,0.39062 0,0.19792 -0.0417,0.38542 -0.125,0.5625 -0.0729,0.16667 -0.17709,0.3125 -0.3125,0.4375 -0.13542,0.11458 -0.29688,0.20313 -0.48438,0.26563 -0.1875,0.0625 -0.39583,0.0937 -0.625,0.0937 -0.15625,0 -0.30729,-0.0156 -0.45312,-0.0469 -0.14584,-0.0312 -0.26042,-0.0729 -0.34375,-0.125 -0.0521,0.0729 -0.0937,0.14063 -0.125,0.20313 -0.0312,0.0625 -0.0469,0.13541 -0.0469,0.21875 0,0.0937 0.0469,0.17708 0.14063,0.25 0.0937,0.0625 0.21875,0.0937 0.375,0.0937 l 1.03125,0.0469 c 0.19791,0 0.3802,0.026 0.54687,0.0781 0.16667,0.0417 0.30729,0.10416 0.42188,0.1875 0.11458,0.0833 0.20312,0.1875 0.26562,0.3125 0.0729,0.125 0.10938,0.26562 0.10938,0.42187 0,0.17708 -0.0365,0.34375 -0.10938,0.5 -0.0729,0.15625 -0.19271,0.29167 -0.35937,0.40625 -0.15625,0.125 -0.35417,0.21875 -0.59375,0.28125 -0.23959,0.0729 -0.52605,0.10938 -0.85938,0.10938 -0.32292,0 -0.59375,-0.026 -0.8125,-0.0781 -0.21875,-0.0521 -0.40104,-0.125 -0.54687,-0.21875 -0.14584,-0.0833 -0.25,-0.1875 -0.3125,-0.3125 -0.0625,-0.125 -0.0937,-0.26042 -0.0937,-0.40625 0,-0.1875 0.0417,-0.35417 0.125,-0.5 0.0937,-0.14583 0.22916,-0.28646 0.40625,-0.42187 -0.0625,-0.0312 -0.1198,-0.0677 -0.17188,-0.10938 -0.0521,-0.0521 -0.0937,-0.10417 -0.125,-0.15625 -0.0312,-0.0521 -0.0573,-0.10937 -0.0781,-0.17187 -0.0104,-0.0625 -0.0156,-0.125 -0.0156,-0.1875 0,-0.16667 0.0417,-0.31771 0.125,-0.45313 0.0833,-0.14583 0.17708,-0.28125 0.28125,-0.40625 -0.0521,-0.0625 -0.099,-0.11979 -0.14062,-0.17187 l -0.0937,-0.1875 -0.0625,-0.21875 c -0.0104,-0.0833 -0.0156,-0.17188 -0.0156,-0.26563 0,-0.20833 0.0365,-0.39583 0.10938,-0.5625 0.0729,-0.16667 0.17708,-0.30729 0.3125,-0.42187 0.13541,-0.125 0.29687,-0.21875 0.48437,-0.28125 0.1875,-0.0729 0.39583,-0.10938 0.625,-0.10938 0.10417,0 0.19792,0.0104 0.28125,0.0312 0.0937,0.0104 0.17188,0.026 0.23438,0.0469 l 1.42187,0 0,0.54687 z m -2.35937,3.9375 c 0,0.1875 0.0937,0.32292 0.28125,0.40625 0.19791,0.0833 0.46875,0.125 0.8125,0.125 0.21875,0 0.40104,-0.0208 0.54687,-0.0625 0.14583,-0.0312 0.26042,-0.0781 0.34375,-0.14062 0.0937,-0.0625 0.16146,-0.13542 0.20313,-0.21875 0.0417,-0.0833 0.0625,-0.16667 0.0625,-0.25 0,-0.16667 -0.0677,-0.28646 -0.20313,-0.35938 -0.125,-0.0729 -0.32292,-0.11979 -0.59375,-0.14062 l -1.03125,-0.0312 c -0.0833,0.0625 -0.15625,0.11979 -0.21875,0.17187 -0.0521,0.0521 -0.0937,0.10417 -0.125,0.15625 -0.0312,0.0625 -0.0521,0.11979 -0.0625,0.17188 -0.0104,0.0625 -0.0156,0.11979 -0.0156,0.17187 z m 0.20312,-3.20312 c 0,0.125 0.0208,0.23958 0.0625,0.34375 0.0417,0.10416 0.099,0.1927 0.17188,0.26562 0.0833,0.0729 0.17187,0.13021 0.26562,0.17188 0.10417,0.0417 0.21875,0.0625 0.34375,0.0625 0.13542,0 0.25521,-0.0208 0.35938,-0.0625 0.11458,-0.0521 0.20312,-0.11459 0.26562,-0.1875 0.0729,-0.0833 0.13021,-0.17709 0.17188,-0.28125 0.0417,-0.10417 0.0625,-0.20834 0.0625,-0.3125 0,-0.125 -0.0208,-0.23959 -0.0625,-0.34375 -0.0417,-0.10417 -0.10417,-0.19271 -0.1875,-0.26563 -0.0729,-0.0729 -0.16146,-0.13021 -0.26563,-0.17187 -0.10417,-0.0417 -0.21875,-0.0625 -0.34375,-0.0625 -0.13542,0 -0.25521,0.026 -0.35937,0.0781 -0.10417,0.0417 -0.19271,0.10417 -0.26563,0.1875 -0.0729,0.0729 -0.13021,0.16146 -0.17187,0.26563 -0.0312,0.0937 -0.0469,0.19791 -0.0469,0.3125 z m 5.07031,-0.71875 -1.17187,0 0,-0.5625 1.85937,0 0,3.35937 1.15625,0 0,0.5625 -3.14062,0 0,-0.5625 1.29687,0 z m 0.23438,-2.20313 c 0.0729,0 0.14062,0.0156 0.20312,0.0469 0.0729,0.0208 0.13021,0.0573 0.17188,0.10937 0.0521,0.0417 0.0885,0.099 0.10937,0.17188 0.0312,0.0625 0.0469,0.1302 0.0469,0.20312 0,0.0729 -0.0156,0.14063 -0.0469,0.20313 -0.0208,0.0625 -0.0573,0.11979 -0.10937,0.17187 -0.0417,0.0521 -0.099,0.0937 -0.17188,0.125 -0.0625,0.0208 -0.13021,0.0312 -0.20312,0.0312 -0.0729,0 -0.14584,-0.0104 -0.21875,-0.0312 -0.0625,-0.0312 -0.11979,-0.0729 -0.17188,-0.125 -0.0417,-0.0521 -0.0781,-0.10937 -0.10937,-0.17187 -0.0208,-0.0625 -0.0312,-0.13021 -0.0312,-0.20313 0,-0.0729 0.0104,-0.14062 0.0312,-0.20312 0.0312,-0.0729 0.0677,-0.13021 0.10937,-0.17188 0.0521,-0.0521 0.10938,-0.0885 0.17188,-0.10937 0.0729,-0.0312 0.14583,-0.0469 0.21875,-0.0469 z m 5.97656,5.5 c -0.14583,0.0417 -0.30208,0.0729 -0.46875,0.0937 -0.16667,0.0208 -0.33333,0.0312 -0.5,0.0312 -0.48958,0 -0.85937,-0.10937 -1.10937,-0.32812 -0.23959,-0.22917 -0.35938,-0.57813 -0.35938,-1.04688 l 0,-2.04687 -1.09375,0 0,-0.5625 1.09375,0 0,-1.07813 0.6875,-0.17187 0,1.25 1.75,0 0,0.5625 -1.75,0 0,2 c 0,0.28125 0.0729,0.49479 0.21875,0.64062 0.14583,0.13542 0.36458,0.20313 0.65625,0.20313 0.125,0 0.26042,-0.0104 0.40625,-0.0312 0.15625,-0.0208 0.3125,-0.0521 0.46875,-0.0937 z m 8.6875,-0.0781 c -0.17708,0.0625 -0.35937,0.10937 -0.54687,0.14062 -0.1875,0.0417 -0.38021,0.0625 -0.57813,0.0625 -0.61458,0 -1.08854,-0.16667 -1.42187,-0.5 -0.33334,-0.34375 -0.5,-0.83854 -0.5,-1.48437 0,-0.3125 0.0469,-0.59375 0.14062,-0.84375 0.0937,-0.25 0.22917,-0.46355 0.40625,-0.64063 0.17708,-0.1875 0.38542,-0.32812 0.625,-0.42187 0.23958,-0.10417 0.50521,-0.15625 0.79688,-0.15625 0.20833,0 0.40104,0.0156 0.57812,0.0469 0.17708,0.0312 0.34375,0.0781 0.5,0.14063 l 0,0.65625 c -0.16667,-0.0937 -0.33854,-0.16146 -0.51562,-0.20313 -0.17709,-0.0417 -0.35938,-0.0625 -0.54688,-0.0625 -0.17708,0 -0.34375,0.0365 -0.5,0.10938 -0.14583,0.0625 -0.28125,0.15625 -0.40625,0.28125 -0.11458,0.125 -0.20833,0.28125 -0.28125,0.46875 -0.0625,0.17708 -0.0937,0.375 -0.0937,0.59375 0,0.47916 0.11458,0.83854 0.34375,1.07812 0.22917,0.22917 0.55208,0.34375 0.96875,0.34375 0.17708,0 0.35417,-0.0208 0.53125,-0.0625 0.17708,-0.0417 0.34375,-0.10417 0.5,-0.1875 z m 4.77344,-1.85938 c 0,0.3125 -0.0469,0.59375 -0.14063,0.84375 -0.0833,0.25 -0.20833,0.46875 -0.375,0.65625 -0.15625,0.17708 -0.34896,0.31771 -0.57812,0.42188 -0.22917,0.10416 -0.49479,0.15625 -0.79688,0.15625 -0.28125,0 -0.53125,-0.0417 -0.75,-0.125 -0.21875,-0.0937 -0.40625,-0.22396 -0.5625,-0.39063 -0.15625,-0.17708 -0.27604,-0.39062 -0.35937,-0.64062 -0.0833,-0.25 -0.125,-0.53646 -0.125,-0.85938 0,-0.30208 0.0417,-0.57812 0.125,-0.82812 0.0937,-0.26042 0.21875,-0.47917 0.375,-0.65625 0.16666,-0.17709 0.36458,-0.31771 0.59375,-0.42188 0.22916,-0.10417 0.48958,-0.15625 0.78125,-0.15625 0.28125,0 0.53125,0.0469 0.75,0.14063 0.22916,0.0833 0.42187,0.20833 0.57812,0.375 0.15625,0.16666 0.27604,0.375 0.35938,0.625 0.0833,0.25 0.125,0.53645 0.125,0.85937 z m -0.70313,0.0312 c 0,-0.23958 -0.026,-0.44792 -0.0781,-0.625 -0.0521,-0.1875 -0.13021,-0.33854 -0.23438,-0.45312 -0.0937,-0.125 -0.21354,-0.21875 -0.35937,-0.28125 -0.13542,-0.0625 -0.29167,-0.0937 -0.46875,-0.0937 -0.20834,0 -0.38542,0.0417 -0.53125,0.125 -0.13542,0.0833 -0.25,0.1927 -0.34375,0.32812 -0.0937,0.125 -0.16146,0.27604 -0.20313,0.45313 -0.0417,0.17708 -0.0625,0.35937 -0.0625,0.54687 0,0.25 0.026,0.46875 0.0781,0.65625 0.0521,0.17708 0.125,0.32813 0.21875,0.45313 0.10416,0.11458 0.22396,0.20312 0.35937,0.26562 0.14584,0.0625 0.30729,0.0937 0.48438,0.0937 0.19791,0 0.36979,-0.0417 0.51562,-0.125 0.14584,-0.0833 0.26563,-0.1875 0.35938,-0.3125 0.0937,-0.13542 0.16146,-0.29167 0.20312,-0.46875 0.0417,-0.17708 0.0625,-0.36458 0.0625,-0.5625 z m 4.47657,1.96875 0,-2.8125 c 0,-0.125 -0.005,-0.22396 -0.0156,-0.29687 -0.0104,-0.0833 -0.026,-0.14584 -0.0469,-0.1875 -0.0104,-0.0521 -0.0312,-0.0833 -0.0625,-0.0937 -0.0312,-0.0208 -0.0677,-0.0312 -0.10938,-0.0312 -0.0521,0 -0.10417,0.0156 -0.15625,0.0469 -0.0417,0.0312 -0.0885,0.0833 -0.14062,0.15625 -0.0521,0.0625 -0.10938,0.15104 -0.17188,0.26563 -0.0521,0.11458 -0.11979,0.26041 -0.20312,0.4375 l 0,2.51562 -0.625,0 0,-2.75 c 0,-0.13542 -0.005,-0.24479 -0.0156,-0.32812 -0.0104,-0.0937 -0.026,-0.16667 -0.0469,-0.21875 -0.0208,-0.0521 -0.0469,-0.0833 -0.0781,-0.0937 -0.0312,-0.0208 -0.0677,-0.0312 -0.10937,-0.0312 -0.0417,0 -0.0833,0.0156 -0.125,0.0469 -0.0417,0.0208 -0.0886,0.0677 -0.14063,0.14063 -0.0521,0.0625 -0.10937,0.15104 -0.17187,0.26562 -0.0625,0.11458 -0.13542,0.26563 -0.21875,0.45313 l 0,2.51562 -0.625,0 0,-3.92187 0.51562,0 0.0312,0.75 c 0.0625,-0.15625 0.125,-0.28646 0.1875,-0.39063 0.0729,-0.10417 0.14063,-0.1875 0.20313,-0.25 0.0729,-0.0625 0.14583,-0.10937 0.21875,-0.14062 0.0729,-0.0312 0.15625,-0.0469 0.25,-0.0469 0.21875,0 0.3802,0.0729 0.48437,0.21875 0.11458,0.13542 0.17188,0.34896 0.17188,0.64063 0.0625,-0.13542 0.11979,-0.25521 0.17187,-0.35938 0.0625,-0.11458 0.125,-0.20312 0.1875,-0.26562 0.0729,-0.0729 0.15104,-0.13021 0.23438,-0.17188 0.0833,-0.0417 0.18229,-0.0625 0.29687,-0.0625 0.48958,0 0.73438,0.38021 0.73438,1.14063 l 0,2.85937 z m 4.39843,0 0,-2.8125 c 0,-0.125 -0.005,-0.22396 -0.0156,-0.29687 -0.0104,-0.0833 -0.026,-0.14584 -0.0469,-0.1875 -0.0104,-0.0521 -0.0312,-0.0833 -0.0625,-0.0937 -0.0312,-0.0208 -0.0677,-0.0312 -0.10937,-0.0312 -0.0521,0 -0.10417,0.0156 -0.15625,0.0469 -0.0417,0.0312 -0.0885,0.0833 -0.14063,0.15625 -0.0521,0.0625 -0.10937,0.15104 -0.17187,0.26563 -0.0521,0.11458 -0.11979,0.26041 -0.20313,0.4375 l 0,2.51562 -0.625,0 0,-2.75 c 0,-0.13542 -0.005,-0.24479 -0.0156,-0.32812 -0.0104,-0.0937 -0.026,-0.16667 -0.0469,-0.21875 -0.0208,-0.0521 -0.0469,-0.0833 -0.0781,-0.0937 -0.0312,-0.0208 -0.0677,-0.0312 -0.10938,-0.0312 -0.0417,0 -0.0833,0.0156 -0.125,0.0469 -0.0417,0.0208 -0.0885,0.0677 -0.14062,0.14063 -0.0521,0.0625 -0.10938,0.15104 -0.17188,0.26562 -0.0625,0.11458 -0.13541,0.26563 -0.21875,0.45313 l 0,2.51562 -0.625,0 0,-3.92187 0.51563,0 0.0312,0.75 c 0.0625,-0.15625 0.125,-0.28646 0.1875,-0.39063 0.0729,-0.10417 0.14062,-0.1875 0.20312,-0.25 0.0729,-0.0625 0.14584,-0.10937 0.21875,-0.14062 0.0729,-0.0312 0.15625,-0.0469 0.25,-0.0469 0.21875,0 0.38021,0.0729 0.48438,0.21875 0.11458,0.13542 0.17187,0.34896 0.17187,0.64063 0.0625,-0.13542 0.11979,-0.25521 0.17188,-0.35938 0.0625,-0.11458 0.125,-0.20312 0.1875,-0.26562 0.0729,-0.0729 0.15104,-0.13021 0.23437,-0.17188 0.0833,-0.0417 0.18229,-0.0625 0.29688,-0.0625 0.48958,0 0.73437,0.38021 0.73437,1.14063 l 0,2.85937 z m 2.94532,-3.35937 -1.17188,0 0,-0.5625 1.85938,0 0,3.35937 1.15625,0 0,0.5625 -3.14063,0 0,-0.5625 1.29688,0 z m 0.23437,-2.20313 c 0.0729,0 0.14063,0.0156 0.20313,0.0469 0.0729,0.0208 0.1302,0.0573 0.17187,0.10937 0.0521,0.0417 0.0885,0.099 0.10938,0.17188 0.0312,0.0625 0.0469,0.1302 0.0469,0.20312 0,0.0729 -0.0156,0.14063 -0.0469,0.20313 -0.0208,0.0625 -0.0573,0.11979 -0.10938,0.17187 -0.0417,0.0521 -0.099,0.0937 -0.17187,0.125 -0.0625,0.0208 -0.13021,0.0312 -0.20313,0.0312 -0.0729,0 -0.14583,-0.0104 -0.21875,-0.0312 -0.0625,-0.0312 -0.11979,-0.0729 -0.17187,-0.125 -0.0417,-0.0521 -0.0781,-0.10937 -0.10938,-0.17187 -0.0208,-0.0625 -0.0312,-0.13021 -0.0312,-0.20313 0,-0.0729 0.0104,-0.14062 0.0312,-0.20312 0.0312,-0.0729 0.0677,-0.13021 0.10938,-0.17188 0.0521,-0.0521 0.10937,-0.0885 0.17187,-0.10937 0.0729,-0.0312 0.14583,-0.0469 0.21875,-0.0469 z m 5.97656,5.5 c -0.14583,0.0417 -0.30208,0.0729 -0.46875,0.0937 -0.16666,0.0208 -0.33333,0.0312 -0.5,0.0312 -0.48958,0 -0.85937,-0.10937 -1.10937,-0.32812 -0.23959,-0.22917 -0.35938,-0.57813 -0.35938,-1.04688 l 0,-2.04687 -1.09375,0 0,-0.5625 1.09375,0 0,-1.07813 0.6875,-0.17187 0,1.25 1.75,0 0,0.5625 -1.75,0 0,2 c 0,0.28125 0.0729,0.49479 0.21875,0.64062 0.14584,0.13542 0.36459,0.20313 0.65625,0.20313 0.125,0 0.26042,-0.0104 0.40625,-0.0312 0.15625,-0.0208 0.3125,-0.0521 0.46875,-0.0937 z"
       id="path21126"
       inkscape:connector-curvature="0"
       style="fill:#000000;fill-rule:nonzero"
       sodipodi:nodetypes="ccsccssscssccccscssccsscsscccscscccccssccscccccscsccssccccccsssccsccssscsscccscccccccccccscccscccscccscscscsscsccccccccccscscccccscssccssccsscccscssccsccssccssccsscsssscccsccsscccsscsscscccsccccccscscsccsccccccccsscccsssscccscccsccccccscscsccsccccccccsscccsssscccccccccccccscccscccscccscscscsscsccccccccccscsccc" />
    <path
       d="m 172.22835,374.1811 113.6693,0 0,66.29922 -113.6693,0 z"
       id="path21128"
       inkscape:connector-curvature="0"
       style="fill:#cccccc;fill-rule:nonzero"
       sodipodi:nodetypes="ccccc" />
    <path
       d="m 172.22835,374.1811 113.6693,0 0,66.29922 -113.6693,0 z"
       id="path21130"
       inkscape:connector-curvature="0"
       style="stroke:#666666;stroke-width:2;stroke-linecap:butt;stroke-linejoin:round"
       sodipodi:nodetypes="ccccc" />
    <path
       d="m 145.51443,465.4672 28.07664,-24.98688 112.30657,0 -28.07663,24.98688 z"
       id="path21132"
       inkscape:connector-curvature="0"
       style="fill:#cccccc;fill-rule:nonzero"
       sodipodi:nodetypes="ccccc" />
    <path
       d="m 145.51443,465.4672 28.07664,-24.98688 112.30657,0 -28.07663,24.98688 z"
       id="path21134"
       inkscape:connector-curvature="0"
       style="stroke:#666666;stroke-width:2;stroke-linecap:butt;stroke-linejoin:round"
       sodipodi:nodetypes="ccccc" />
    <path
       d="m 177.39633,381.0656 104.22046,0 0,45.66928 -104.22046,0 z"
       id="path21136"
       inkscape:connector-curvature="0"
       style="fill:#434343;fill-rule:nonzero"
       sodipodi:nodetypes="ccccc" />
    <path
       d="m 177.39633,381.0656 104.22046,0 0,45.66928 -104.22046,0 z"
       id="path21138"
       inkscape:connector-curvature="0"
       style="stroke:#666666;stroke-width:2;stroke-linecap:butt;stroke-linejoin:round"
       sodipodi:nodetypes="ccccc" />
    <path
       d="m 177.39633,384.5118 104.22046,0 0,38.77167 -104.22046,0 z"
       id="path21140"
       inkscape:connector-curvature="0"
       style="fill:#000000;fill-opacity:0;fill-rule:nonzero"
       sodipodi:nodetypes="ccccc" />
    <path
       d="m 189.67758,397.26993 0,3.84375 c 0,0.28125 -0.0417,0.52604 -0.125,0.73437 -0.0729,0.21875 -0.18229,0.40105 -0.32813,0.54688 -0.14583,0.14583 -0.32812,0.25521 -0.54687,0.32812 -0.20833,0.0729 -0.44271,0.10938 -0.70313,0.10938 -0.19791,0 -0.39062,-0.0208 -0.57812,-0.0625 -0.17708,-0.0312 -0.33854,-0.0781 -0.48438,-0.14063 l 0,-0.64062 c 0.0833,0.0417 0.16667,0.0781 0.25,0.10937 0.0937,0.0312 0.1875,0.0573 0.28125,0.0781 0.10417,0.0312 0.20313,0.0521 0.29688,0.0625 0.10417,0.0104 0.20312,0.0156 0.29687,0.0156 0.30209,0 0.53646,-0.0937 0.70313,-0.28125 0.16667,-0.1875 0.25,-0.46354 0.25,-0.82812 l 0,-3.3125 -1.92188,0 0,-0.5625 z m -0.40625,-1.64063 c 0.0729,0 0.14062,0.0156 0.20312,0.0469 0.0729,0.0208 0.13021,0.0573 0.17188,0.10937 0.0521,0.0417 0.0885,0.099 0.10937,0.17188 0.0312,0.0625 0.0469,0.13021 0.0469,0.20312 0,0.0729 -0.0156,0.14063 -0.0469,0.20313 -0.0208,0.0625 -0.0573,0.11979 -0.10937,0.17187 -0.0417,0.0521 -0.099,0.0937 -0.17188,0.125 -0.0625,0.0208 -0.1302,0.0312 -0.20312,0.0312 -0.0729,0 -0.14583,-0.0104 -0.21875,-0.0312 -0.0625,-0.0312 -0.11979,-0.0729 -0.17188,-0.125 -0.0417,-0.0521 -0.0781,-0.10937 -0.10937,-0.17187 -0.0208,-0.0625 -0.0312,-0.13021 -0.0312,-0.20313 0,-0.0729 0.0104,-0.14062 0.0312,-0.20312 0.0312,-0.0729 0.0677,-0.13021 0.10937,-0.17188 0.0521,-0.0521 0.10938,-0.0885 0.17188,-0.10937 0.0729,-0.0312 0.14583,-0.0469 0.21875,-0.0469 z m 4.66406,5.5625 -0.0156,-0.53125 c -0.20834,0.20834 -0.42188,0.36459 -0.64063,0.46875 -0.21875,0.0937 -0.45312,0.14063 -0.70312,0.14063 -0.21875,0 -0.41146,-0.0312 -0.57813,-0.0937 -0.15625,-0.0625 -0.28646,-0.14063 -0.39062,-0.23438 -0.0937,-0.10416 -0.16667,-0.22395 -0.21875,-0.35937 -0.0521,-0.13542 -0.0781,-0.28125 -0.0781,-0.4375 0,-0.39583 0.14584,-0.70313 0.4375,-0.92188 0.30209,-0.22916 0.73959,-0.34375 1.3125,-0.34375 l 0.8125,0 0,-0.34375 c 0,-0.22916 -0.0781,-0.41145 -0.23437,-0.54687 -0.14584,-0.14583 -0.36979,-0.21875 -0.67188,-0.21875 -0.21875,0 -0.4375,0.026 -0.65625,0.0781 -0.21875,0.0521 -0.44271,0.125 -0.67187,0.21875 l 0,-0.625 c 0.0937,-0.0312 0.19271,-0.0573 0.29687,-0.0781 0.10417,-0.0312 0.21354,-0.0573 0.32813,-0.0781 0.11458,-0.0312 0.23437,-0.0521 0.35937,-0.0625 0.13542,-0.0208 0.26563,-0.0312 0.39063,-0.0312 0.23958,0 0.45312,0.026 0.64062,0.0781 0.19792,0.0521 0.35938,0.13542 0.48438,0.25 0.13541,0.10417 0.23437,0.23958 0.29687,0.40625 0.0729,0.15625 0.10938,0.34375 0.10938,0.5625 l 0,2.70312 z m -0.0625,-1.78125 -0.875,0 c -0.16666,0 -0.3125,0.0156 -0.4375,0.0469 -0.11458,0.0312 -0.21354,0.0781 -0.29687,0.14062 -0.0729,0.0625 -0.13021,0.14063 -0.17188,0.23438 -0.0417,0.0833 -0.0625,0.17708 -0.0625,0.28125 0,0.0833 0.0104,0.16146 0.0312,0.23437 0.0312,0.0625 0.0729,0.1198 0.125,0.17188 0.0521,0.0521 0.11979,0.0937 0.20313,0.125 0.0833,0.0312 0.18229,0.0469 0.29687,0.0469 0.15625,0 0.33334,-0.0469 0.53125,-0.14062 0.20834,-0.0937 0.42709,-0.24479 0.65625,-0.45313 z m 1.58594,-2.14062 0.76562,0 0.96875,2.59375 0.20313,0.625 0.21875,-0.64063 0.95312,-2.57812 0.73438,0 -1.53125,3.92187 -0.78125,0 z m 7.27344,3.92187 -0.0156,-0.53125 c -0.20833,0.20834 -0.42187,0.36459 -0.64062,0.46875 -0.21875,0.0937 -0.45313,0.14063 -0.70313,0.14063 -0.21875,0 -0.41146,-0.0312 -0.57812,-0.0937 -0.15625,-0.0625 -0.28646,-0.14063 -0.39063,-0.23438 -0.0937,-0.10416 -0.16666,-0.22395 -0.21875,-0.35937 -0.0521,-0.13542 -0.0781,-0.28125 -0.0781,-0.4375 0,-0.39583 0.14583,-0.70313 0.4375,-0.92188 0.30208,-0.22916 0.73958,-0.34375 1.3125,-0.34375 l 0.8125,0 0,-0.34375 c 0,-0.22916 -0.0781,-0.41145 -0.23438,-0.54687 -0.14583,-0.14583 -0.36979,-0.21875 -0.67187,-0.21875 -0.21875,0 -0.4375,0.026 -0.65625,0.0781 -0.21875,0.0521 -0.44271,0.125 -0.67188,0.21875 l 0,-0.625 c 0.0937,-0.0312 0.19271,-0.0573 0.29688,-0.0781 0.10416,-0.0312 0.21354,-0.0573 0.32812,-0.0781 0.11459,-0.0312 0.23438,-0.0521 0.35938,-0.0625 0.13541,-0.0208 0.26562,-0.0312 0.39062,-0.0312 0.23959,0 0.45313,0.026 0.64063,0.0781 0.19791,0.0521 0.35937,0.13542 0.48437,0.25 0.13542,0.10417 0.23438,0.23958 0.29688,0.40625 0.0729,0.15625 0.10937,0.34375 0.10937,0.5625 l 0,2.70312 z m -0.0625,-1.78125 -0.875,0 c -0.16667,0 -0.3125,0.0156 -0.4375,0.0469 -0.11459,0.0312 -0.21354,0.0781 -0.29688,0.14062 -0.0729,0.0625 -0.13021,0.14063 -0.17187,0.23438 -0.0417,0.0833 -0.0625,0.17708 -0.0625,0.28125 0,0.0833 0.0104,0.16146 0.0312,0.23437 0.0312,0.0625 0.0729,0.1198 0.125,0.17188 0.0521,0.0521 0.11979,0.0937 0.20312,0.125 0.0833,0.0312 0.18229,0.0469 0.29688,0.0469 0.15625,0 0.33333,-0.0469 0.53125,-0.14062 0.20833,-0.0937 0.42708,-0.24479 0.65625,-0.45313 z m 4.99218,1.64063 c -0.17708,0.0625 -0.35937,0.10937 -0.54687,0.14062 -0.1875,0.0417 -0.38021,0.0625 -0.57813,0.0625 -0.61458,0 -1.08854,-0.16666 -1.42187,-0.5 -0.33333,-0.34375 -0.5,-0.83854 -0.5,-1.48437 0,-0.3125 0.0469,-0.59375 0.14062,-0.84375 0.0937,-0.25 0.22917,-0.46354 0.40625,-0.64063 0.17709,-0.1875 0.38542,-0.32812 0.625,-0.42187 0.23959,-0.10417 0.50521,-0.15625 0.79688,-0.15625 0.20833,0 0.40104,0.0156 0.57812,0.0469 0.17709,0.0312 0.34375,0.0781 0.5,0.14063 l 0,0.65625 c -0.16666,-0.0937 -0.33854,-0.16146 -0.51562,-0.20313 -0.17708,-0.0417 -0.35938,-0.0625 -0.54688,-0.0625 -0.17708,0 -0.34375,0.0365 -0.5,0.10938 -0.14583,0.0625 -0.28125,0.15625 -0.40625,0.28125 -0.11458,0.125 -0.20833,0.28125 -0.28125,0.46875 -0.0625,0.17708 -0.0937,0.375 -0.0937,0.59375 0,0.47917 0.11459,0.83854 0.34375,1.07812 0.22917,0.22917 0.55209,0.34375 0.96875,0.34375 0.17709,0 0.35417,-0.0208 0.53125,-0.0625 0.17709,-0.0417 0.34375,-0.10416 0.5,-0.1875 z m 7.09375,-3.21875 -1.17187,0 0,-0.5625 1.85937,0 0,3.35937 1.15625,0 0,0.5625 -3.14062,0 0,-0.5625 1.29687,0 z m 0.23438,-2.20313 c 0.0729,0 0.14062,0.0156 0.20312,0.0469 0.0729,0.0208 0.13021,0.0573 0.17188,0.10937 0.0521,0.0417 0.0885,0.099 0.10937,0.17188 0.0312,0.0625 0.0469,0.13021 0.0469,0.20312 0,0.0729 -0.0156,0.14063 -0.0469,0.20313 -0.0208,0.0625 -0.0573,0.11979 -0.10937,0.17187 -0.0417,0.0521 -0.099,0.0937 -0.17188,0.125 -0.0625,0.0208 -0.1302,0.0312 -0.20312,0.0312 -0.0729,0 -0.14583,-0.0104 -0.21875,-0.0312 -0.0625,-0.0312 -0.11979,-0.0729 -0.17188,-0.125 -0.0417,-0.0521 -0.0781,-0.10937 -0.10937,-0.17187 -0.0208,-0.0625 -0.0312,-0.13021 -0.0312,-0.20313 0,-0.0729 0.0104,-0.14062 0.0312,-0.20312 0.0312,-0.0729 0.0677,-0.13021 0.10937,-0.17188 0.0521,-0.0521 0.10938,-0.0885 0.17188,-0.10937 0.0729,-0.0312 0.14583,-0.0469 0.21875,-0.0469 z m 5.61719,5.5625 0,-2.8125 c 0,-0.125 -0.005,-0.22395 -0.0156,-0.29687 -0.0104,-0.0833 -0.026,-0.14583 -0.0469,-0.1875 -0.0104,-0.0521 -0.0312,-0.0833 -0.0625,-0.0937 -0.0312,-0.0208 -0.0677,-0.0312 -0.10938,-0.0312 -0.0521,0 -0.10416,0.0156 -0.15625,0.0469 -0.0417,0.0312 -0.0885,0.0833 -0.14062,0.15625 -0.0521,0.0625 -0.10938,0.15105 -0.17188,0.26563 -0.0521,0.11458 -0.11979,0.26042 -0.20312,0.4375 l 0,2.51562 -0.625,0 0,-2.75 c 0,-0.13541 -0.005,-0.24479 -0.0156,-0.32812 -0.0104,-0.0937 -0.026,-0.16667 -0.0469,-0.21875 -0.0208,-0.0521 -0.0469,-0.0833 -0.0781,-0.0937 -0.0312,-0.0208 -0.0677,-0.0312 -0.10937,-0.0312 -0.0417,0 -0.0833,0.0156 -0.125,0.0469 -0.0417,0.0208 -0.0885,0.0677 -0.14063,0.14063 -0.0521,0.0625 -0.10937,0.15104 -0.17187,0.26562 -0.0625,0.11459 -0.13542,0.26563 -0.21875,0.45313 l 0,2.51562 -0.625,0 0,-3.92187 0.51562,0 0.0312,0.75 c 0.0625,-0.15625 0.125,-0.28646 0.1875,-0.39063 0.0729,-0.10416 0.14063,-0.1875 0.20313,-0.25 0.0729,-0.0625 0.14583,-0.10937 0.21875,-0.14062 0.0729,-0.0312 0.15625,-0.0469 0.25,-0.0469 0.21875,0 0.38021,0.0729 0.48437,0.21875 0.11459,0.13542 0.17188,0.34896 0.17188,0.64063 0.0625,-0.13542 0.11979,-0.25521 0.17187,-0.35938 0.0625,-0.11458 0.125,-0.20312 0.1875,-0.26562 0.0729,-0.0729 0.15104,-0.13021 0.23438,-0.17188 0.0833,-0.0417 0.18229,-0.0625 0.29687,-0.0625 0.48959,0 0.73438,0.38021 0.73438,1.14063 l 0,2.85937 z m 4.42968,-3.375 c 0.0729,0.0937 0.13021,0.20313 0.17188,0.32813 0.0417,0.11458 0.0625,0.24479 0.0625,0.39062 0,0.19792 -0.0417,0.38542 -0.125,0.5625 -0.0729,0.16667 -0.17708,0.3125 -0.3125,0.4375 -0.13542,0.11459 -0.29688,0.20313 -0.48438,0.26563 -0.1875,0.0625 -0.39583,0.0937 -0.625,0.0937 -0.15625,0 -0.30729,-0.0156 -0.45312,-0.0469 -0.14583,-0.0312 -0.26042,-0.0729 -0.34375,-0.125 -0.0521,0.0729 -0.0937,0.14063 -0.125,0.20313 -0.0312,0.0625 -0.0469,0.13542 -0.0469,0.21875 0,0.0937 0.0469,0.17708 0.14063,0.25 0.0937,0.0625 0.21875,0.0937 0.375,0.0937 l 1.03125,0.0469 c 0.19792,0 0.38021,0.026 0.54687,0.0781 0.16667,0.0417 0.3073,0.10417 0.42188,0.1875 0.11458,0.0833 0.20312,0.1875 0.26562,0.3125 0.0729,0.125 0.10938,0.26562 0.10938,0.42187 0,0.17709 -0.0365,0.34375 -0.10938,0.5 -0.0729,0.15625 -0.1927,0.29167 -0.35937,0.40625 -0.15625,0.125 -0.35417,0.21875 -0.59375,0.28125 -0.23958,0.0729 -0.52604,0.10938 -0.85938,0.10938 -0.32291,0 -0.59375,-0.026 -0.8125,-0.0781 -0.21875,-0.0521 -0.40104,-0.125 -0.54687,-0.21875 -0.14583,-0.0833 -0.25,-0.1875 -0.3125,-0.3125 -0.0625,-0.125 -0.0937,-0.26041 -0.0937,-0.40625 0,-0.1875 0.0417,-0.35416 0.125,-0.5 0.0937,-0.14583 0.22917,-0.28645 0.40625,-0.42187 -0.0625,-0.0312 -0.11979,-0.0677 -0.17188,-0.10938 -0.0521,-0.0521 -0.0937,-0.10416 -0.125,-0.15625 -0.0312,-0.0521 -0.0573,-0.10937 -0.0781,-0.17187 -0.0104,-0.0625 -0.0156,-0.125 -0.0156,-0.1875 0,-0.16667 0.0417,-0.31771 0.125,-0.45313 0.0833,-0.14583 0.17709,-0.28125 0.28125,-0.40625 -0.0521,-0.0625 -0.099,-0.11979 -0.14062,-0.17187 l -0.0937,-0.1875 -0.0625,-0.21875 c -0.0104,-0.0833 -0.0156,-0.17188 -0.0156,-0.26563 0,-0.20833 0.0365,-0.39583 0.10938,-0.5625 0.0729,-0.16666 0.17708,-0.30729 0.3125,-0.42187 0.13542,-0.125 0.29687,-0.21875 0.48437,-0.28125 0.1875,-0.0729 0.39584,-0.10938 0.625,-0.10938 0.10417,0 0.19792,0.0104 0.28125,0.0312 0.0937,0.0104 0.17188,0.026 0.23438,0.0469 l 1.42187,0 0,0.54687 z m -2.35937,3.9375 c 0,0.1875 0.0937,0.32292 0.28125,0.40625 0.19792,0.0833 0.46875,0.125 0.8125,0.125 0.21875,0 0.40104,-0.0208 0.54687,-0.0625 0.14584,-0.0312 0.26042,-0.0781 0.34375,-0.14062 0.0937,-0.0625 0.16146,-0.13542 0.20313,-0.21875 0.0417,-0.0833 0.0625,-0.16667 0.0625,-0.25 0,-0.16667 -0.0677,-0.28646 -0.20313,-0.35938 -0.125,-0.0729 -0.32291,-0.11979 -0.59375,-0.14062 l -1.03125,-0.0312 c -0.0833,0.0625 -0.15625,0.11979 -0.21875,0.17187 -0.0521,0.0521 -0.0937,0.10417 -0.125,0.15625 -0.0312,0.0625 -0.0521,0.1198 -0.0625,0.17188 -0.0104,0.0625 -0.0156,0.11979 -0.0156,0.17187 z m 0.20312,-3.20312 c 0,0.125 0.0208,0.23958 0.0625,0.34375 0.0417,0.10417 0.099,0.19271 0.17188,0.26562 0.0833,0.0729 0.17187,0.13021 0.26562,0.17188 0.10417,0.0417 0.21875,0.0625 0.34375,0.0625 0.13542,0 0.25521,-0.0208 0.35938,-0.0625 0.11458,-0.0521 0.20312,-0.11458 0.26562,-0.1875 0.0729,-0.0833 0.13021,-0.17708 0.17188,-0.28125 0.0417,-0.10417 0.0625,-0.20833 0.0625,-0.3125 0,-0.125 -0.0208,-0.23958 -0.0625,-0.34375 -0.0417,-0.10417 -0.10417,-0.19271 -0.1875,-0.26563 -0.0729,-0.0729 -0.16146,-0.1302 -0.26563,-0.17187 -0.10416,-0.0417 -0.21875,-0.0625 -0.34375,-0.0625 -0.13541,0 -0.2552,0.026 -0.35937,0.0781 -0.10417,0.0417 -0.19271,0.10417 -0.26563,0.1875 -0.0729,0.0729 -0.1302,0.16146 -0.17187,0.26563 -0.0312,0.0937 -0.0469,0.19792 -0.0469,0.3125 z m 3.88282,-1.28125 0.625,0 0.0156,0.71875 c 0.23959,-0.28125 0.46875,-0.48438 0.6875,-0.60938 0.22917,-0.125 0.45834,-0.1875 0.6875,-0.1875 0.40625,0 0.71354,0.13542 0.92188,0.40625 0.20833,0.26042 0.30729,0.65105 0.29687,1.17188 l -0.6875,0 c 0,-0.34375 -0.0521,-0.59375 -0.15625,-0.75 -0.10416,-0.15625 -0.26041,-0.23438 -0.46875,-0.23438 -0.0937,0 -0.1875,0.0156 -0.28125,0.0469 -0.0937,0.0312 -0.19271,0.0833 -0.29687,0.15625 -0.0937,0.0729 -0.19792,0.16667 -0.3125,0.28125 -0.10417,0.10417 -0.21875,0.23958 -0.34375,0.40625 l 0,2.51562 -0.6875,0 z m 7.55468,1.75 0,0.25 c 0,0.0625 -0.005,0.11979 -0.0156,0.17187 l -2.75,0 c 0,0.40625 0.10937,0.71875 0.32812,0.9375 0.22917,0.20834 0.55209,0.3125 0.96875,0.3125 0.11459,0 0.22917,-0.005 0.34375,-0.0156 0.11459,-0.0104 0.22396,-0.0208 0.32813,-0.0312 0.11458,-0.0208 0.21875,-0.0365 0.3125,-0.0469 0.10417,-0.0208 0.19792,-0.0469 0.28125,-0.0781 l 0,0.5625 c -0.1875,0.0521 -0.40104,0.0937 -0.64063,0.125 -0.22916,0.0417 -0.46875,0.0625 -0.71875,0.0625 -0.33333,0 -0.625,-0.0469 -0.875,-0.14063 -0.23958,-0.0937 -0.4375,-0.22395 -0.59375,-0.39062 -0.14583,-0.17708 -0.26041,-0.39063 -0.34375,-0.64063 -0.0729,-0.26041 -0.10937,-0.54687 -0.10937,-0.85937 0,-0.28125 0.0417,-0.54167 0.125,-0.78125 0.0833,-0.25 0.19792,-0.46875 0.34375,-0.65625 0.15625,-0.1875 0.34375,-0.33333 0.5625,-0.4375 0.21875,-0.11458 0.46875,-0.17188 0.75,-0.17188 0.28125,0 0.52604,0.0469 0.73437,0.14063 0.20834,0.0833 0.38542,0.20312 0.53125,0.35937 0.14584,0.15625 0.25521,0.34896 0.32813,0.57813 0.0729,0.21875 0.10937,0.46875 0.10937,0.75 z m -0.70312,-0.0937 c 0.0104,-0.17708 -0.005,-0.33854 -0.0469,-0.48438 -0.0417,-0.14583 -0.10937,-0.27083 -0.20312,-0.375 -0.0833,-0.10416 -0.19271,-0.18229 -0.32813,-0.23437 -0.125,-0.0625 -0.27604,-0.0937 -0.45312,-0.0937 -0.14583,0 -0.28125,0.0312 -0.40625,0.0937 -0.11458,0.0521 -0.21875,0.13021 -0.3125,0.23437 -0.0833,0.10417 -0.15625,0.22917 -0.21875,0.375 -0.0521,0.14584 -0.0833,0.3073 -0.0937,0.48438 z m 4.30469,2.26562 -0.0156,-0.53125 c -0.20833,0.20834 -0.42187,0.36459 -0.64062,0.46875 -0.21875,0.0937 -0.45313,0.14063 -0.70313,0.14063 -0.21875,0 -0.41146,-0.0312 -0.57812,-0.0937 -0.15625,-0.0625 -0.28646,-0.14063 -0.39063,-0.23438 -0.0937,-0.10416 -0.16666,-0.22395 -0.21875,-0.35937 -0.0521,-0.13542 -0.0781,-0.28125 -0.0781,-0.4375 0,-0.39583 0.14583,-0.70313 0.4375,-0.92188 0.30208,-0.22916 0.73958,-0.34375 1.3125,-0.34375 l 0.8125,0 0,-0.34375 c 0,-0.22916 -0.0781,-0.41145 -0.23438,-0.54687 -0.14583,-0.14583 -0.36979,-0.21875 -0.67187,-0.21875 -0.21875,0 -0.4375,0.026 -0.65625,0.0781 -0.21875,0.0521 -0.44271,0.125 -0.67188,0.21875 l 0,-0.625 c 0.0937,-0.0312 0.19271,-0.0573 0.29688,-0.0781 0.10416,-0.0312 0.21354,-0.0573 0.32812,-0.0781 0.11459,-0.0312 0.23438,-0.0521 0.35938,-0.0625 0.13541,-0.0208 0.26562,-0.0312 0.39062,-0.0312 0.23959,0 0.45313,0.026 0.64063,0.0781 0.19791,0.0521 0.35937,0.13542 0.48437,0.25 0.13542,0.10417 0.23438,0.23958 0.29688,0.40625 0.0729,0.15625 0.10937,0.34375 0.10937,0.5625 l 0,2.70312 z m -0.0625,-1.78125 -0.875,0 c -0.16667,0 -0.3125,0.0156 -0.4375,0.0469 -0.11459,0.0312 -0.21354,0.0781 -0.29688,0.14062 -0.0729,0.0625 -0.13021,0.14063 -0.17187,0.23438 -0.0417,0.0833 -0.0625,0.17708 -0.0625,0.28125 0,0.0833 0.0104,0.16146 0.0312,0.23437 0.0312,0.0625 0.0729,0.1198 0.125,0.17188 0.0521,0.0521 0.11979,0.0937 0.20312,0.125 0.0833,0.0312 0.18229,0.0469 0.29688,0.0469 0.15625,0 0.33333,-0.0469 0.53125,-0.14062 0.20833,-0.0937 0.42708,-0.24479 0.65625,-0.45313 z m 5.10156,1.71875 c -0.14583,0.0417 -0.30208,0.0729 -0.46875,0.0937 -0.16667,0.0208 -0.33333,0.0312 -0.5,0.0312 -0.48958,0 -0.85938,-0.10937 -1.10938,-0.32812 -0.23958,-0.22917 -0.35937,-0.57813 -0.35937,-1.04688 l 0,-2.04687 -1.09375,0 0,-0.5625 1.09375,0 0,-1.07813 0.6875,-0.17187 0,1.25 1.75,0 0,0.5625 -1.75,0 0,2 c 0,0.28125 0.0729,0.49479 0.21875,0.64062 0.14583,0.13542 0.36458,0.20313 0.65625,0.20313 0.125,0 0.26042,-0.0104 0.40625,-0.0312 0.15625,-0.0208 0.3125,-0.0521 0.46875,-0.0937 z m 2.78906,-1.17187 c 0.0833,0 0.16667,0.0208 0.25,0.0625 0.0833,0.0312 0.15104,0.0781 0.20313,0.14062 0.0625,0.0521 0.10937,0.1198 0.14062,0.20313 0.0312,0.0729 0.0469,0.15625 0.0469,0.25 0,0.0937 -0.0156,0.18229 -0.0469,0.26562 -0.0312,0.0729 -0.0781,0.14063 -0.14062,0.20313 -0.0521,0.0521 -0.11979,0.0937 -0.20313,0.125 -0.0833,0.0417 -0.16666,0.0625 -0.25,0.0625 -0.0937,0 -0.18229,-0.0208 -0.26562,-0.0625 -0.0729,-0.0312 -0.14063,-0.0729 -0.20313,-0.125 -0.0521,-0.0625 -0.099,-0.13021 -0.14062,-0.20313 -0.0312,-0.0833 -0.0469,-0.17187 -0.0469,-0.26562 0,-0.0937 0.0156,-0.17708 0.0469,-0.25 0.0417,-0.0833 0.0885,-0.15104 0.14062,-0.20313 0.0625,-0.0625 0.13021,-0.10937 0.20313,-0.14062 0.0833,-0.0417 0.17187,-0.0625 0.26562,-0.0625 z m 5.50781,-2.6875 0,3.84375 c 0,0.28125 -0.0417,0.52604 -0.125,0.73437 -0.0729,0.21875 -0.18229,0.40105 -0.32812,0.54688 -0.14583,0.14583 -0.32813,0.25521 -0.54688,0.32812 -0.20833,0.0729 -0.4427,0.10938 -0.70312,0.10938 -0.19792,0 -0.39063,-0.0208 -0.57813,-0.0625 -0.17708,-0.0312 -0.33854,-0.0781 -0.48437,-0.14063 l 0,-0.64062 c 0.0833,0.0417 0.16667,0.0781 0.25,0.10937 0.0937,0.0312 0.1875,0.0573 0.28125,0.0781 0.10417,0.0312 0.20312,0.0521 0.29687,0.0625 0.10417,0.0104 0.20313,0.0156 0.29688,0.0156 0.30208,0 0.53646,-0.0937 0.70312,-0.28125 0.16667,-0.1875 0.25,-0.46354 0.25,-0.82812 l 0,-3.3125 -1.92187,0 0,-0.5625 z m -0.40625,-1.64063 c 0.0729,0 0.14063,0.0156 0.20313,0.0469 0.0729,0.0208 0.13021,0.0573 0.17187,0.10937 0.0521,0.0417 0.0885,0.099 0.10938,0.17188 0.0312,0.0625 0.0469,0.13021 0.0469,0.20312 0,0.0729 -0.0156,0.14063 -0.0469,0.20313 -0.0208,0.0625 -0.0573,0.11979 -0.10938,0.17187 -0.0417,0.0521 -0.099,0.0937 -0.17187,0.125 -0.0625,0.0208 -0.13021,0.0312 -0.20313,0.0312 -0.0729,0 -0.14583,-0.0104 -0.21875,-0.0312 -0.0625,-0.0312 -0.11979,-0.0729 -0.17187,-0.125 -0.0417,-0.0521 -0.0781,-0.10937 -0.10938,-0.17187 -0.0208,-0.0625 -0.0312,-0.13021 -0.0312,-0.20313 0,-0.0729 0.0104,-0.14062 0.0312,-0.20312 0.0312,-0.0729 0.0677,-0.13021 0.10938,-0.17188 0.0521,-0.0521 0.10937,-0.0885 0.17187,-0.10937 0.0729,-0.0312 0.14584,-0.0469 0.21875,-0.0469 z m 4.66407,5.5625 -0.0156,-0.53125 c -0.20833,0.20834 -0.42187,0.36459 -0.64062,0.46875 -0.21875,0.0937 -0.45313,0.14063 -0.70313,0.14063 -0.21875,0 -0.41146,-0.0312 -0.57812,-0.0937 -0.15625,-0.0625 -0.28646,-0.14063 -0.39063,-0.23438 -0.0937,-0.10416 -0.16666,-0.22395 -0.21875,-0.35937 -0.0521,-0.13542 -0.0781,-0.28125 -0.0781,-0.4375 0,-0.39583 0.14583,-0.70313 0.4375,-0.92188 0.30208,-0.22916 0.73958,-0.34375 1.3125,-0.34375 l 0.8125,0 0,-0.34375 c 0,-0.22916 -0.0781,-0.41145 -0.23438,-0.54687 -0.14583,-0.14583 -0.36979,-0.21875 -0.67187,-0.21875 -0.21875,0 -0.4375,0.026 -0.65625,0.0781 -0.21875,0.0521 -0.44271,0.125 -0.67188,0.21875 l 0,-0.625 c 0.0937,-0.0312 0.19271,-0.0573 0.29688,-0.0781 0.10416,-0.0312 0.21354,-0.0573 0.32812,-0.0781 0.11459,-0.0312 0.23438,-0.0521 0.35938,-0.0625 0.13541,-0.0208 0.26562,-0.0312 0.39062,-0.0312 0.23959,0 0.45313,0.026 0.64063,0.0781 0.19791,0.0521 0.35937,0.13542 0.48437,0.25 0.13542,0.10417 0.23438,0.23958 0.29688,0.40625 0.0729,0.15625 0.10937,0.34375 0.10937,0.5625 l 0,2.70312 z m -0.0625,-1.78125 -0.875,0 c -0.16667,0 -0.3125,0.0156 -0.4375,0.0469 -0.11459,0.0312 -0.21354,0.0781 -0.29688,0.14062 -0.0729,0.0625 -0.13021,0.14063 -0.17187,0.23438 -0.0417,0.0833 -0.0625,0.17708 -0.0625,0.28125 0,0.0833 0.0104,0.16146 0.0312,0.23437 0.0312,0.0625 0.0729,0.1198 0.125,0.17188 0.0521,0.0521 0.11979,0.0937 0.20312,0.125 0.0833,0.0312 0.18229,0.0469 0.29688,0.0469 0.15625,0 0.33333,-0.0469 0.53125,-0.14062 0.20833,-0.0937 0.42708,-0.24479 0.65625,-0.45313 z m 1.58594,-2.14062 0.76562,0 0.96875,2.59375 0.20313,0.625 0.21875,-0.64063 0.95312,-2.57812 0.73438,0 -1.53125,3.92187 -0.78125,0 z m 7.27343,3.92187 -0.0156,-0.53125 c -0.20834,0.20834 -0.42188,0.36459 -0.64063,0.46875 -0.21875,0.0937 -0.45312,0.14063 -0.70312,0.14063 -0.21875,0 -0.41146,-0.0312 -0.57813,-0.0937 -0.15625,-0.0625 -0.28646,-0.14063 -0.39062,-0.23438 -0.0937,-0.10416 -0.16667,-0.22395 -0.21875,-0.35937 -0.0521,-0.13542 -0.0781,-0.28125 -0.0781,-0.4375 0,-0.39583 0.14584,-0.70313 0.4375,-0.92188 0.30209,-0.22916 0.73959,-0.34375 1.3125,-0.34375 l 0.8125,0 0,-0.34375 c 0,-0.22916 -0.0781,-0.41145 -0.23437,-0.54687 -0.14584,-0.14583 -0.36979,-0.21875 -0.67188,-0.21875 -0.21875,0 -0.4375,0.026 -0.65625,0.0781 -0.21875,0.0521 -0.44271,0.125 -0.67187,0.21875 l 0,-0.625 c 0.0937,-0.0312 0.19271,-0.0573 0.29687,-0.0781 0.10417,-0.0312 0.21354,-0.0573 0.32813,-0.0781 0.11458,-0.0312 0.23437,-0.0521 0.35937,-0.0625 0.13542,-0.0208 0.26563,-0.0312 0.39063,-0.0312 0.23958,0 0.45312,0.026 0.64062,0.0781 0.19792,0.0521 0.35938,0.13542 0.48438,0.25 0.13541,0.10417 0.23437,0.23958 0.29687,0.40625 0.0729,0.15625 0.10938,0.34375 0.10938,0.5625 l 0,2.70312 z m -0.0625,-1.78125 -0.875,0 c -0.16666,0 -0.3125,0.0156 -0.4375,0.0469 -0.11458,0.0312 -0.21354,0.0781 -0.29687,0.14062 -0.0729,0.0625 -0.13021,0.14063 -0.17188,0.23438 -0.0417,0.0833 -0.0625,0.17708 -0.0625,0.28125 0,0.0833 0.0104,0.16146 0.0312,0.23437 0.0312,0.0625 0.0729,0.1198 0.125,0.17188 0.0521,0.0521 0.11979,0.0937 0.20313,0.125 0.0833,0.0312 0.18229,0.0469 0.29687,0.0469 0.15625,0 0.33334,-0.0469 0.53125,-0.14062 0.20834,-0.0937 0.42709,-0.24479 0.65625,-0.45313 z"
       id="path21142"
       inkscape:connector-curvature="0"
       style="fill:#000000;fill-rule:nonzero"
       sodipodi:nodetypes="cscscsccccccsssccccscccscccscccscscscccsccsscscscsscccccscccscccscccscsssccccccccccccccccsccsscscscsscccccscccscccscccscssscccccscssccssccsscccscsscccccccccccccscccscccscccscscscscccsccccccscscsccsccccccccsscccssssccccsccssscssccccscssccsscsscccscscccccssccscccccscsccssccccccsssccsccssscsscccsccccscccssscsccccsscccsscccccscccscccscscscsccsccccccccsccsscscscsscccccscccscccscccscsssccccsscsccccccccccscscccscccscscscccscscscscscsccccccsssccccscccscccscccscscscccsccsscscscsscccccscccscccscccscsssccccccccccccccccsccsscscscsscccccscccscccscccscsssccc" />
    <path
       d="m 153.7787,289.00262 c -5.44969,18.26511 -35.64435,88.82153 -32.69816,109.59055 2.9462,20.76904 41.97944,12.51968 50.37533,15.02362"
       id="path21144"
       inkscape:connector-curvature="0"
       style="fill:#000000;fill-opacity:0;fill-rule:nonzero"
       sodipodi:nodetypes="csc" />
    <path
       d="m 149.87221,300.34897 -0.23959,0.65594 c -0.3678,1.00358 -0.75092,2.04264 -1.1476,3.11405 -0.79338,2.14285 -1.64102,4.41519 -2.5288,6.79214 -3.55108,9.50769 -7.74424,20.68863 -11.67504,31.94782 -7.86161,22.51837 -14.67373,45.34973 -13.20063,55.73425 2.94619,20.76905 41.97944,12.51969 50.37532,15.02362"
       id="path21146"
       inkscape:connector-curvature="0"
       style="stroke:#666666;stroke-width:2;stroke-linecap:butt;stroke-linejoin:round"
       sodipodi:nodetypes="ccssssc" />
    <path
       d="m 152.99571,301.42438 -0.16882,-9.65723 -6.0782,7.50638 z"
       id="path21148"
       inkscape:connector-curvature="0"
       style="fill:#666666;fill-rule:evenodd;stroke:#666666;stroke-width:2;stroke-linecap:butt"
       sodipodi:nodetypes="cccc" />
    <path
       d="m 114.62737,289.00262 c -4.81102,23.94019 -38.337234,119.55112 -28.866104,143.64105 9.47113,24.08993 71.410744,0.74875 85.692894,0.8985"
       id="path21150"
       inkscape:connector-curvature="0"
       style="fill:#000000;fill-opacity:0;fill-rule:nonzero"
       sodipodi:nodetypes="csc" />
    <path
       d="m 114.62736,289.00262 c -4.81101,23.94015 -38.337222,119.55115 -28.866091,143.64102 4.735573,12.04501 22.588261,12.23218 41.042321,9.42685 9.22702,-1.40268 18.6044,-3.55347 26.56766,-5.34424 1.99081,-0.44772 3.89323,-0.87292 5.68284,-1.2583 l 0.53757,-0.1145"
       id="path21152"
       inkscape:connector-curvature="0"
       style="stroke:#666666;stroke-width:2;stroke-linecap:butt;stroke-linejoin:round"
       sodipodi:nodetypes="cssccc" />
    <path
       d="m 160.09029,438.6191 8.47357,-4.63562 -9.47084,-1.89563 z"
       id="path21154"
       inkscape:connector-curvature="0"
       style="fill:#666666;fill-rule:evenodd;stroke:#666666;stroke-width:2;stroke-linecap:butt"
       sodipodi:nodetypes="cccc" />
    <path
       d="M 286.3515,385.35098 406.85544,293.88641"
       id="path21156"
       inkscape:connector-curvature="0"
       style="fill:#000000;fill-opacity:0;fill-rule:nonzero"
       sodipodi:nodetypes="cc" />
    <path
       d="m 286.35153,385.35098 110.94543,-84.2095"
       id="path21158"
       inkscape:connector-curvature="0"
       style="stroke:#666666;stroke-width:2;stroke-linecap:butt;stroke-linejoin:round"
       sodipodi:nodetypes="cc" />
    <path
       d="m 399.2942,303.7728 5.23233,-8.11868 -9.22678,2.85602 z"
       id="path21160"
       inkscape:connector-curvature="0"
       style="fill:#666666;fill-rule:evenodd;stroke:#666666;stroke-width:2;stroke-linecap:butt"
       sodipodi:nodetypes="cccc" />
    <path
       d="M 419.50775,306.84344 699.62732,426.78478"
       id="path21162"
       inkscape:connector-curvature="0"
       style="fill:#000000;fill-opacity:0;fill-rule:nonzero"
       sodipodi:nodetypes="cc" />
    <path
       d="m 419.50775,306.84348 269.0882,115.21793"
       id="path21164"
       inkscape:connector-curvature="0"
       style="stroke:#666666;stroke-width:2;stroke-linecap:butt;stroke-linejoin:round"
       sodipodi:nodetypes="cc" />
    <path
       d="m 687.2957,425.0982 9.6438,0.53571 -7.04321,-6.60932 z"
       id="path21166"
       inkscape:connector-curvature="0"
       style="fill:#666666;fill-rule:evenodd;stroke:#666666;stroke-width:2;stroke-linecap:butt"
       sodipodi:nodetypes="cccc" />
    <path
       d="M 432.16003,293.8864 734.0971,218.2887"
       id="path21168"
       inkscape:connector-curvature="0"
       style="fill:#000000;fill-opacity:0;fill-rule:nonzero"
       sodipodi:nodetypes="cc" />
    <path
       d="m 432.16003,293.8864 290.2964,-72.68317"
       id="path21170"
       inkscape:connector-curvature="0"
       style="stroke:#666666;stroke-width:2;stroke-linecap:butt;stroke-linejoin:round"
       sodipodi:nodetypes="cc" />
    <path
       d="m 723.2588,224.4078 8.00207,-5.40897 -9.60675,-1.00013 z"
       id="path21172"
       inkscape:connector-curvature="0"
       style="fill:#666666;fill-rule:evenodd;stroke:#666666;stroke-width:2;stroke-linecap:butt"
       sodipodi:nodetypes="cccc" />
    <path
       d="m 734.0971,218.28871 -269.48428,7.24597"
       id="path21174"
       inkscape:connector-curvature="0"
       style="fill:#000000;fill-opacity:0;fill-rule:nonzero"
       sodipodi:nodetypes="cc" />
    <path
       d="m 734.0971,218.28871 -257.48865,6.92342"
       id="path21176"
       inkscape:connector-curvature="0"
       style="stroke:#666666;stroke-width:2;stroke-linecap:butt;stroke-linejoin:round"
       sodipodi:nodetypes="cc" />
    <path
       d="m 476.51968,221.90987 -8.98413,3.54622 9.16171,3.05832 z"
       id="path21178"
       inkscape:connector-curvature="0"
       style="fill:#666666;fill-rule:evenodd;stroke:#666666;stroke-width:2;stroke-linecap:butt"
       sodipodi:nodetypes="cccc" />
    <path
       d="M 402.5223,233.8819 238.20734,230.41733"
       id="path21180"
       inkscape:connector-curvature="0"
       style="fill:#000000;fill-opacity:0;fill-rule:nonzero"
       sodipodi:nodetypes="cc" />
    <path
       d="M 402.5223,233.8819 250.20467,230.67028"
       id="path21182"
       inkscape:connector-curvature="0"
       style="stroke:#666666;stroke-width:2;stroke-linecap:butt;stroke-linejoin:round"
       sodipodi:nodetypes="cc" />
    <path
       d="m 250.27432,227.36755 -9.14381,3.1114 9.00453,3.49407 z"
       id="path21184"
       inkscape:connector-curvature="0"
       style="fill:#666666;fill-rule:evenodd;stroke:#666666;stroke-width:2;stroke-linecap:butt"
       sodipodi:nodetypes="cccc" />
    <path
       d="m 671.68066,482.5538 c -69.2536,4.12424 -339.9077,27.24979 -415.52145,24.74542 -75.61372,-2.50439 -31.80075,-33.14306 -38.1609,-39.77166"
       id="path21190"
       inkscape:connector-curvature="0"
       style="fill:#000000;fill-opacity:0;fill-rule:nonzero"
       sodipodi:nodetypes="csc" />
    <path
       d="m 659.7051,483.31842 -3.27283,0.22046 c -5.80505,0.39529 -12.29992,0.85397 -19.38806,1.36502 -14.17615,1.02216 -30.72485,2.25403 -48.87195,3.60843 -36.29407,2.70889 -78.98126,5.90799 -121.86725,8.8999 -85.77194,5.98389 -172.3389,11.13919 -210.14578,9.88699 -37.80685,-1.25222 -45.75703,-9.53799 -45.05054,-18.33926 0.17664,-2.20032 0.89431,-4.43286 1.82178,-6.59579 0.46372,-1.08146 0.97991,-2.14551 1.50713,-3.17942 l 0.088,-0.17068"
       id="path21192"
       inkscape:connector-curvature="0"
       style="stroke:#666666;stroke-width:2;stroke-linecap:butt;stroke-linejoin:round"
       sodipodi:nodetypes="ccsssssccc" />
    <path
       d="m 659.9155,486.61517 8.84729,-3.87506 -9.26825,-2.71845 z"
       id="path21194"
       inkscape:connector-curvature="0"
       style="fill:#666666;fill-rule:evenodd;stroke:#666666;stroke-width:2;stroke-linecap:butt"
       sodipodi:nodetypes="cccc" />
    <path
       d="m 217.6877,479.9701 -0.53551,-9.64383 -5.78871,7.73181 z"
       id="path21196"
       inkscape:connector-curvature="0"
       style="fill:#666666;fill-rule:evenodd;stroke:#666666;stroke-width:2;stroke-linecap:butt"
       sodipodi:nodetypes="cccc" />
    <path
       d="m 224.17313,276.0704 266.29922,83.33856"
       id="path21198"
       inkscape:connector-curvature="0"
       style="fill:#000000;fill-opacity:0;fill-rule:nonzero"
       sodipodi:nodetypes="cc" />
    <path
       d="m 224.17313,276.0704 254.8469,79.75461"
       id="path21200"
       inkscape:connector-curvature="0"
       style="stroke:#666666;stroke-width:2;stroke-linecap:butt;stroke-linejoin:round"
       sodipodi:nodetypes="cc" />
    <path
       d="m 478.0334,358.9777 9.64859,-0.44193 -7.67532,-5.86346 z"
       id="path21202"
       inkscape:connector-curvature="0"
       style="fill:#666666;fill-rule:evenodd;stroke:#666666;stroke-width:2;stroke-linecap:butt"
       sodipodi:nodetypes="cccc" />
  </g>
</svg>
