<?xml version="1.0" standalone="yes"?>

<svg version="1.1" viewBox="0.0 0.0 960.0 540.0" fill="none" stroke="none" stroke-linecap="square" stroke-miterlimit="10" xmlns="http://www.w3.org/2000/svg" xmlns:xlink="http://www.w3.org/1999/xlink"><clipPath id="g35ed4dc66_0117.0"><path d="m0 0l960.0 0l0 540.0l-960.0 0l0 -540.0z" clip-rule="nonzero"></path></clipPath><g clip-path="url(#g35ed4dc66_0117.0)"><path fill="#ffffff" d="m0 0l960.0 0l0 540.0l-960.0 0z" fill-rule="nonzero"></path><path shape-rendering="crispEdges" fill="#ffffff" d="m47.897636 205.71626l864.2047 0l0 128.56694l-864.2047 0l0 -128.56694z" fill-rule="nonzero"></path><path shape-rendering="crispEdges" fill="#bbeebb" d="m380.8294 248.38293l131.75592 0l0 43.23358l-131.75592 0l0 -43.23358z" fill-rule="nonzero"></path><path shape-rendering="crispEdges" fill="#eeeebb" d="m380.8294 291.61652l131.75592 0l0 42.666687l-131.75592 0l0 -42.666687z" fill-rule="nonzero"></path><path shape-rendering="crispEdges" fill="#eeeebb" d="m776.0971 291.61652l136.00525 0l0 42.666687l-136.00525 0l0 -42.666687z" fill-rule="nonzero"></path><path fill="#ffffff" d="m385.8294 215.89772l15.550781 0l0 15.125l-15.550781 0l0 -15.125z" fill-rule="nonzero"></path><path fill="#222222" d="m390.42316 218.80397q1.53125 0 2.5 0.734375q0.96875 0.71875 1.1875 2.09375l-1.140625 0q-0.171875 -0.90625 -0.84375 -1.390625q-0.65625 -0.484375 -1.703125 -0.484375q-1.375 0 -2.15625 1.015625q-0.78125 1.015625 -0.78125 2.625q0 1.46875 0.8125 2.453125q0.8125 0.96875 2.125 0.96875q1.234375 0 1.984375 -0.734375q0.765625 -0.75 0.765625 -1.9375l0 -0.125l-2.734375 0l0 -0.96875l3.75 0l0 4.515625l-0.71875 0l-0.296875 -1.0625q-0.46875 0.609375 -1.1875 0.9375q-0.71875 0.328125 -1.5625 0.328125q-1.75 0 -2.921875 -1.25q-1.15625 -1.265625 -1.15625 -3.078125q0 -2.015625 1.09375 -3.328125q1.109375 -1.3125 2.984375 -1.3125zm6.3554688 0.203125l0 1.25l-1.015625 0l0 -1.25l1.015625 0zm0 2.359375l0 6.203125l-1.015625 0l0 -6.203125l1.015625 0zm3.0097656 -1.859375l0 1.859375l1.234375 0l0 0.90625l-1.234375 0l0 3.875q0 0.46875 0.296875 0.5q0.3125 0.015625 0.65625 0.015625l0.28125 0l0 0.90625l-0.84375 0q-0.84375 0 -1.125 -0.296875q-0.28125 -0.296875 -0.28125 -1.0l0 -4.0l-1.0625 0l0 -0.90625l1.0625 0l0 -1.859375l1.015625 0z" fill-rule="nonzero"></path><path fill="#ffffff" d="m517.5853 215.89772l15.556641 0l0 15.125l-15.556641 0l0 -15.125z" fill-rule="nonzero"></path><path fill="#222222" d="m519.66345 219.0071l0 3.671875l4.515625 0l0 -3.671875l1.140625 0l0 8.5625l-1.140625 0l0 -3.921875l-4.515625 0l0 3.921875l-1.140625 0l0 -8.5625l1.140625 0zm9.884766 2.21875q0.640625 0 1.109375 0.28125q0.484375 0.28125 0.75 0.75l0 0l0 -0.890625l0.96875 0l0 5.734375q0 1.46875 -0.703125 2.21875q-0.703125 0.765625 -2.171875 0.765625q-1.0625 0 -1.796875 -0.46875q-0.734375 -0.46875 -0.78125 -1.34375l1.015625 0q0.03125 0.46875 0.515625 0.734375q0.484375 0.265625 1.09375 0.265625q0.90625 0 1.375 -0.59375q0.484375 -0.59375 0.484375 -1.78125l0 -0.390625l-0.015625 0q-0.234375 0.515625 -0.765625 0.828125q-0.515625 0.3125 -1.171875 0.3125q-1.265625 0 -2.015625 -0.875q-0.75 -0.875 -0.75 -2.28125q0 -1.421875 0.75 -2.34375q0.75 -0.921875 2.109375 -0.921875zm-1.78125 3.15625q0 1.09375 0.453125 1.734375q0.46875 0.625 1.296875 0.625q0.84375 0 1.34375 -0.65625q0.5 -0.65625 0.5 -1.75q0 -0.984375 -0.46875 -1.59375q-0.453125 -0.625 -1.3125 -0.625q-0.84375 0 -1.328125 0.625q-0.484375 0.609375 -0.484375 1.640625z" fill-rule="nonzero"></path><path fill="#ffffff" d="m649.3412 215.89772l17.976562 0l0 15.125l-17.976562 0l0 -15.125z" fill-rule="nonzero"></path><path fill="#222222" d="m653.93494 219.0071q1.59375 0 2.15625 0.640625q0.5625 0.640625 0.5625 1.453125q0 0.671875 -0.328125 1.171875q-0.328125 0.5 -0.9375 0.75l0 0.015625q0.796875 0.171875 1.21875 0.734375q0.421875 0.546875 0.421875 1.328125q0 1.0625 -0.734375 1.765625q-0.734375 0.703125 -1.828125 0.703125l-4.1875 0l0 -8.5625l3.65625 0zm-0.1875 3.671875q0.859375 0 1.3125 -0.3125q0.46875 -0.328125 0.46875 -1.046875q0 -0.6875 -0.390625 -1.015625q-0.375 -0.34375 -1.375 -0.34375l-2.34375 0l0 2.71875l2.328125 0zm0.5625 3.921875q0.703125 0 1.140625 -0.40625q0.4375 -0.40625 0.4375 -1.125q0 -0.71875 -0.5 -1.0625q-0.484375 -0.359375 -1.40625 -0.359375l-2.5625 0l0 2.953125l2.890625 0zm8.580078 -5.234375l0 0.6875l-3.796875 4.609375l3.96875 0l0 0.90625l-5.234375 0l0 -0.78125l3.75 -4.515625l-3.515625 0l0 -0.90625l4.828125 0zm4.2910156 -0.15625q0.03125 0 0.0625 0q0.03125 0 0.078125 0.015625l0 1.078125q-1.15625 0 -1.703125 0.609375q-0.546875 0.609375 -0.546875 1.875l0 2.78125l-1.015625 0l0 -6.203125l0.953125 0l0 1.296875l0.03125 0q0.359375 -0.734375 0.875 -1.09375q0.53125 -0.359375 1.265625 -0.359375z" fill-rule="nonzero"></path><path fill="#ffffff" d="m781.0971 215.89772l23.771484 0l0 15.125l-23.771484 0l0 -15.125z" fill-rule="nonzero"></path><path fill="#222222" d="m784.9096 218.80397q1.4375 0 2.265625 0.6875q0.84375 0.6875 0.890625 2.015625l-1.078125 0q-0.09375 -0.875 -0.625 -1.3125q-0.53125 -0.4375 -1.5 -0.4375q-0.90625 0 -1.421875 0.375q-0.5 0.375 -0.5 1.078125q0 0.515625 0.421875 0.84375q0.4375 0.3125 2.328125 0.6875q1.375 0.28125 2.046875 0.875q0.6875 0.578125 0.6875 1.609375q0 1.1875 -0.984375 1.875q-0.96875 0.671875 -2.359375 0.671875q-1.5625 0 -2.546875 -0.78125q-0.984375 -0.78125 -0.984375 -2.234375l1.078125 0q0 0.96875 0.6875 1.515625q0.6875 0.546875 1.796875 0.546875q1.046875 0 1.609375 -0.40625q0.5625 -0.40625 0.5625 -1.15625q0 -0.609375 -0.515625 -0.96875q-0.515625 -0.375 -1.890625 -0.640625q-1.828125 -0.34375 -2.453125 -0.890625q-0.625 -0.5625 -0.625 -1.453125q0 -1.15625 0.875 -1.828125q0.890625 -0.671875 2.234375 -0.671875zm5.1816406 0.203125l2.453125 7.421875l0.03125 0l2.46875 -7.421875l1.1875 0l-3.046875 8.5625l-1.296875 0l-3.03125 -8.5625l1.234375 0zm8.251953 0l4.515625 6.9375l0.015625 0l0 -6.9375l1.078125 0l0 8.5625l-1.25 0l-4.46875 -6.875l-0.03125 0l0 6.875l-1.078125 0l0 -8.5625l1.21875 0z" fill-rule="nonzero"></path><path fill="#ffffff" d="m52.897636 258.84787l62.45508 0l0 15.125l-62.45508 0l0 -15.125z" fill-rule="nonzero"></path><path fill="#222222" d="m57.91326 261.95724q1.125 0 1.84375 0.59375q0.71875 0.578125 0.71875 1.640625q0 0.84375 -0.375 1.40625q-0.375 0.5625 -1.125 0.765625l0 0.03125q0.65625 0.125 0.953125 0.609375q0.3125 0.46875 0.359375 1.625q0.03125 0.75 0.140625 1.1875q0.109375 0.421875 0.34375 0.703125l-1.28125 0q-0.09375 -0.140625 -0.140625 -0.28125q-0.03125 -0.140625 -0.046875 -0.375l-0.046875 -0.9375q-0.03125 -0.671875 -0.296875 -1.359375q-0.265625 -0.6875 -1.171875 -0.703125l-2.8125 0l0 3.65625l-1.140625 0l0 -8.5625l4.078125 0zm-0.5 3.9375q0.953125 0 1.4375 -0.359375q0.484375 -0.375 0.484375 -1.15625q0 -0.703125 -0.390625 -1.078125q-0.390625 -0.390625 -1.09375 -0.390625l-2.875 0l0 2.984375l2.4375 0zm7.048828 -1.71875q1.34375 0 2.078125 0.96875q0.734375 0.953125 0.734375 2.453125l0 0.125l-4.640625 0l0 0.078125q0 0.890625 0.515625 1.4375q0.515625 0.53125 1.421875 0.53125q0.671875 0 1.0625 -0.3125q0.40625 -0.328125 0.53125 -0.90625l1.015625 0q-0.203125 1.03125 -0.90625 1.578125q-0.703125 0.53125 -1.75 0.53125q-0.96875 0 -1.65625 -0.4375q-0.671875 -0.4375 -1.0 -1.21875q-0.3125 -0.796875 -0.3125 -1.625q0 -1.375 0.828125 -2.28125q0.828125 -0.921875 2.078125 -0.921875zm-1.828125 2.640625l3.5625 0q-0.046875 -0.75 -0.546875 -1.25q-0.5 -0.5 -1.25 -0.5q-0.703125 0 -1.203125 0.484375q-0.5 0.46875 -0.5625 1.265625zm8.7578125 -2.640625q1.328125 0 2.09375 0.921875q0.765625 0.90625 0.765625 2.34375q0 1.4375 -0.765625 2.328125q-0.765625 0.890625 -2.0625 0.890625q-0.578125 0 -1.140625 -0.234375q-0.546875 -0.234375 -0.875 -0.734375l-0.015625 0l0 3.203125l-1.03125 0l0 -8.578125l1.03125 0l0 0.84375l0.015625 0q0.25 -0.484375 0.765625 -0.734375q0.515625 -0.25 1.21875 -0.25zm-2.046875 3.234375q0 1.078125 0.515625 1.71875q0.53125 0.640625 1.453125 0.640625q0.875 0 1.359375 -0.625q0.5 -0.640625 0.5 -1.78125q0 -1.0 -0.515625 -1.640625q-0.515625 -0.65625 -1.421875 -0.65625q-0.890625 0 -1.390625 0.65625q-0.5 0.65625 -0.5 1.6875zm8.785156 -3.234375q1.40625 0 2.203125 0.90625q0.796875 0.90625 0.796875 2.34375q0 1.453125 -0.828125 2.34375q-0.8125 0.890625 -2.171875 0.890625q-1.359375 0 -2.1875 -0.875q-0.828125 -0.890625 -0.828125 -2.359375q0 -1.484375 0.8125 -2.359375q0.8125 -0.890625 2.203125 -0.890625zm-1.9375 3.25q0 1.0625 0.546875 1.703125q0.546875 0.640625 1.390625 0.640625q0.828125 0 1.375 -0.640625q0.546875 -0.640625 0.546875 -1.703125q0 -1.0625 -0.546875 -1.703125q-0.53125 -0.65625 -1.390625 -0.65625q-0.828125 0 -1.375 0.640625q-0.546875 0.640625 -0.546875 1.71875zm13.240234 -5.46875l3.34375 8.5625l-1.265625 0l-0.9375 -2.578125l-3.625 0l-0.953125 2.578125l-1.171875 0l3.34375 -8.5625l1.265625 0zm-0.671875 1.03125l-1.4375 3.984375l2.890625 0l-1.421875 -3.984375l-0.03125 0zm5.7597656 -1.03125l0 8.5625l-1.015625 0l0 -8.5625l1.015625 0zm4.2753906 2.21875q1.40625 0 2.203125 0.90625q0.796875 0.90625 0.796875 2.34375q0 1.453125 -0.828125 2.34375q-0.8125 0.890625 -2.171875 0.890625q-1.359375 0 -2.1875 -0.875q-0.828125 -0.890625 -0.828125 -2.359375q0 -1.484375 0.8125 -2.359375q0.8125 -0.890625 2.203125 -0.890625zm-1.9375 3.25q0 1.0625 0.546875 1.703125q0.546875 0.640625 1.390625 0.640625q0.828125 0 1.375 -0.640625q0.546875 -0.640625 0.546875 -1.703125q0 -1.0625 -0.546875 -1.703125q-0.53125 -0.65625 -1.390625 -0.65625q-0.828125 0 -1.375 0.640625q-0.546875 0.640625 -0.546875 1.71875zm9.15625 -3.25q1.109375 0 1.609375 0.578125q0.515625 0.5625 0.515625 1.640625l0 4.125l-1.015625 0l0 -4.234375q0 -0.53125 -0.34375 -0.875q-0.328125 -0.34375 -0.9375 -0.34375q-0.859375 0 -1.34375 0.53125q-0.484375 0.53125 -0.484375 1.375l0 3.546875l-1.015625 0l0 -6.203125l0.96875 0l0 0.984375l0.015625 0q0.34375 -0.578125 0.828125 -0.84375q0.5 -0.28125 1.203125 -0.28125zm6.236328 0q1.34375 0 2.078125 0.96875q0.734375 0.953125 0.734375 2.453125l0 0.125l-4.640625 0l0 0.078125q0 0.890625 0.515625 1.4375q0.515625 0.53125 1.421875 0.53125q0.671875 0 1.0625 -0.3125q0.40625 -0.328125 0.53125 -0.90625l1.015625 0q-0.203125 1.03125 -0.90625 1.578125q-0.703125 0.53125 -1.75 0.53125q-0.96875 0 -1.65625 -0.4375q-0.671875 -0.4375 -1.0 -1.21875q-0.3125 -0.796875 -0.3125 -1.625q0 -1.375 0.828125 -2.28125q0.828125 -0.921875 2.078125 -0.921875zm-1.828125 2.640625l3.5625 0q-0.046875 -0.75 -0.546875 -1.25q-0.5 -0.5 -1.25 -0.5q-0.703125 0 -1.203125 0.484375q-0.5 0.46875 -0.5625 1.265625z" fill-rule="nonzero"></path><path fill="#ffffff" d="m385.8294 258.84787l23.800781 0l0 15.125l-23.800781 0l0 -15.125z" fill-rule="nonzero"></path><path fill="#336633" d="m389.09503 262.00412q1.171875 0 1.921875 0.671875q0.75 0.671875 0.75 1.78125q0 0.875 -0.5 1.59375q-0.484375 0.703125 -2.078125 1.625q-0.984375 0.5625 -1.390625 1.015625q-0.40625 0.4375 -0.484375 0.921875l4.359375 0l0 0.90625l-5.5625 0q0.09375 -1.0625 0.546875 -1.859375q0.46875 -0.796875 1.734375 -1.546875q1.484375 -0.90625 1.875 -1.421875q0.40625 -0.515625 0.40625 -1.234375q0 -0.671875 -0.46875 -1.109375q-0.46875 -0.4375 -1.171875 -0.4375q-0.765625 0 -1.21875 0.578125q-0.4375 0.5625 -0.4375 1.453125l0 0.078125l-1.015625 0l-0.015625 -0.203125q0 -1.265625 0.75 -2.03125q0.75 -0.78125 2.0 -0.78125zm8.439453 0l0 5.625l1.15625 0l0 0.890625l-1.15625 0l0 2.0l-0.96875 0l0 -2.0l-3.734375 0l0 -0.984375l3.890625 -5.53125l0.8125 0zm-0.984375 1.453125l-2.828125 4.171875l2.84375 0l0 -4.171875l-0.015625 0zm5.142578 -1.5l2.703125 7.1875l2.71875 -7.1875l1.5625 0l0 8.5625l-1.078125 0l0 -7.125l-0.03125 0l-2.671875 7.125l-0.984375 0l-2.671875 -7.125l-0.015625 0l0 7.125l-1.078125 0l0 -8.5625l1.546875 0z" fill-rule="nonzero"></path><path fill="#ffffff" d="m517.5853 258.84787l23.800781 0l0 15.125l-23.800781 0l0 -15.125z" fill-rule="nonzero"></path><path fill="#222222" d="m520.7572 262.00412q1.21875 0 1.890625 0.609375q0.6875 0.609375 0.6875 1.671875q0 0.515625 -0.296875 0.96875q-0.296875 0.453125 -0.875 0.734375l0 0.015625q0.75 0.171875 1.140625 0.71875q0.390625 0.53125 0.390625 1.34375q0 1.1875 -0.8125 1.890625q-0.8125 0.703125 -2.109375 0.703125q-1.28125 0 -2.0625 -0.703125q-0.765625 -0.71875 -0.765625 -2.03125l0 -0.03125l1.015625 0q0.03125 0.90625 0.515625 1.390625q0.484375 0.484375 1.296875 0.484375q0.796875 0 1.3125 -0.46875q0.53125 -0.46875 0.53125 -1.1875q0 -0.75 -0.5 -1.1875q-0.5 -0.4375 -1.34375 -0.4375q-0.125 0 -0.28125 0.015625q-0.140625 0 -0.296875 0.015625l0 -0.859375q0.140625 0.015625 0.375 0.015625q0.59375 0 0.9375 -0.1875q0.359375 -0.203125 0.546875 -0.484375q0.203125 -0.296875 0.203125 -0.71875q0 -0.640625 -0.40625 -1.0q-0.40625 -0.375 -1.09375 -0.375q-0.75 0 -1.171875 0.484375q-0.421875 0.484375 -0.453125 1.359375l-1.015625 0q0.0625 -1.328125 0.75 -2.03125q0.6875 -0.71875 1.890625 -0.71875zm8.533203 0l0 5.625l1.15625 0l0 0.890625l-1.15625 0l0 2.0l-0.96875 0l0 -2.0l-3.734375 0l0 -0.984375l3.890625 -5.53125l0.8125 0zm-0.984375 1.453125l-2.828125 4.171875l2.84375 0l0 -4.171875l-0.015625 0zm5.142578 -1.5l2.703125 7.1875l2.71875 -7.1875l1.5625 0l0 8.5625l-1.078125 0l0 -7.125l-0.03125 0l-2.671875 7.125l-0.984375 0l-2.671875 -7.125l-0.015625 0l0 7.125l-1.078125 0l0 -8.5625l1.546875 0z" fill-rule="nonzero"></path><path fill="#ffffff" d="m649.3412 258.84787l23.800781 0l0 15.125l-23.800781 0l0 -15.125z" fill-rule="nonzero"></path><path fill="#222222" d="m654.37244 262.00412l0 5.625l1.15625 0l0 0.890625l-1.15625 0l0 2.0l-0.96875 0l0 -2.0l-3.734375 0l0 -0.984375l3.890625 -5.53125l0.8125 0zm-0.984375 1.453125l-2.828125 4.171875l2.84375 0l0 -4.171875l-0.015625 0zm8.267578 -1.296875l0 0.890625l-3.4375 0l-0.453125 2.453125l0.03125 0.015625q0.265625 -0.28125 0.671875 -0.4375q0.40625 -0.171875 0.90625 -0.171875q1.234375 0 1.984375 0.78125q0.765625 0.765625 0.765625 2.125q0 1.234375 -0.828125 2.046875q-0.8125 0.796875 -2.140625 0.796875q-1.140625 0 -1.921875 -0.65625q-0.765625 -0.65625 -0.796875 -1.765625l0 -0.015625l1.015625 0q0.046875 0.6875 0.546875 1.125q0.5 0.421875 1.25 0.421875q0.78125 0 1.28125 -0.53125q0.515625 -0.546875 0.515625 -1.484375q0 -0.875 -0.5625 -1.40625q-0.546875 -0.53125 -1.359375 -0.53125q-0.453125 0 -0.859375 0.203125q-0.390625 0.203125 -0.71875 0.59375l-0.875 -0.046875l0.78125 -4.40625l4.203125 0zm3.5488281 -0.203125l2.703125 7.1875l2.71875 -7.1875l1.5625 0l0 8.5625l-1.078125 0l0 -7.125l-0.03125 0l-2.671875 7.125l-0.984375 0l-2.671875 -7.125l-0.015625 0l0 7.125l-1.078125 0l0 -8.5625l1.546875 0z" fill-rule="nonzero"></path><path fill="#ffffff" d="m52.897636 301.79797l82.892586 0l0 15.125l-82.892586 0l0 -15.125z" fill-rule="nonzero"></path><path fill="#222222" d="m59.741386 304.90735l0 0.953125l-4.765625 0l0 2.71875l4.453125 0l0 0.96875l-4.453125 0l0 2.953125l4.8125 0l0 0.96875l-5.953125 0l0 -8.5625l5.90625 0zm4.267578 2.21875q1.109375 0 1.609375 0.578125q0.515625 0.5625 0.515625 1.640625l0 4.125l-1.015625 0l0 -4.234375q0 -0.53125 -0.34375 -0.875q-0.328125 -0.34375 -0.9375 -0.34375q-0.859375 0 -1.34375 0.53125q-0.484375 0.53125 -0.484375 1.375l0 3.546875l-1.015625 0l0 -6.203125l0.96875 0l0 0.984375l0.015625 0q0.34375 -0.578125 0.828125 -0.84375q0.5 -0.28125 1.203125 -0.28125zm5.080078 -1.71875l0 1.859375l1.234375 0l0 0.90625l-1.234375 0l0 3.875q0 0.46875 0.296875 0.5q0.3125 0.015625 0.65625 0.015625l0.28125 0l0 0.90625l-0.84375 0q-0.84375 0 -1.125 -0.296875q-0.28125 -0.296875 -0.28125 -1.0l0 -4.0l-1.0625 0l0 -0.90625l1.0625 0l0 -1.859375l1.015625 0zm3.4355469 -0.5l0 1.25l-1.015625 0l0 -1.25l1.015625 0zm0 2.359375l0 6.203125l-1.015625 0l0 -6.203125l1.015625 0zm4.6816406 -0.15625q0.03125 0 0.0625 0q0.03125 0 0.078125 0.015625l0 1.078125q-1.15625 0 -1.703125 0.609375q-0.546875 0.609375 -0.546875 1.875l0 2.78125l-1.015625 0l0 -6.203125l0.953125 0l0 1.296875l0.03125 0q0.359375 -0.734375 0.875 -1.09375q0.53125 -0.359375 1.265625 -0.359375zm3.4804688 0.015625q1.34375 0 2.078125 0.96875q0.734375 0.953125 0.734375 2.453125l0 0.125l-4.640625 0l0 0.078125q0 0.890625 0.515625 1.4375q0.515625 0.53125 1.421875 0.53125q0.671875 0 1.0625 -0.3125q0.40625 -0.328125 0.53125 -0.90625l1.015625 0q-0.203125 1.03125 -0.90625 1.578125q-0.703125 0.53125 -1.75 0.53125q-0.96875 0 -1.65625 -0.4375q-0.671875 -0.4375 -1.0 -1.21875q-0.3125 -0.796875 -0.3125 -1.625q0 -1.375 0.828125 -2.28125q0.828125 -0.921875 2.078125 -0.921875zm-1.828125 2.640625l3.5625 0q-0.046875 -0.75 -0.546875 -1.25q-0.5 -0.5 -1.25 -0.5q-0.703125 0 -1.203125 0.484375q-0.5 0.46875 -0.5625 1.265625zm12.201172 -4.859375q1.953125 0 3.0 1.03125q1.0625 1.03125 1.0625 3.046875q0 2.265625 -1.046875 3.375q-1.046875 1.109375 -3.015625 1.109375l-3.0 0l0 -8.5625l3.0 0zm0.078125 7.59375q1.28125 0 2.046875 -0.828125q0.78125 -0.84375 0.78125 -2.53125q0 -1.703125 -0.703125 -2.484375q-0.703125 -0.796875 -2.078125 -0.796875l-1.984375 0l0 6.640625l1.9375 0zm6.2773438 -7.59375l0 1.25l-1.015625 0l0 -1.25l1.015625 0zm0 2.359375l0 6.203125l-1.015625 0l0 -6.203125l1.015625 0zm4.6816406 -0.15625q0.03125 0 0.0625 0q0.03125 0 0.078125 0.015625l0 1.078125q-1.15625 0 -1.703125 0.609375q-0.546875 0.609375 -0.546875 1.875l0 2.78125l-1.015625 0l0 -6.203125l0.953125 0l0 1.296875l0.03125 0q0.359375 -0.734375 0.875 -1.09375q0.53125 -0.359375 1.265625 -0.359375zm3.4804688 0.015625q1.34375 0 2.078125 0.96875q0.734375 0.953125 0.734375 2.453125l0 0.125l-4.640625 0l0 0.078125q0 0.890625 0.515625 1.4375q0.515625 0.53125 1.421875 0.53125q0.671875 0 1.0625 -0.3125q0.40625 -0.328125 0.53125 -0.90625l1.015625 0q-0.203125 1.03125 -0.90625 1.578125q-0.703125 0.53125 -1.75 0.53125q-0.96875 0 -1.65625 -0.4375q-0.671875 -0.4375 -1.0 -1.21875q-0.3125 -0.796875 -0.3125 -1.625q0 -1.375 0.828125 -2.28125q0.828125 -0.921875 2.078125 -0.921875zm-1.828125 2.640625l3.5625 0q-0.046875 -0.75 -0.546875 -1.25q-0.5 -0.5 -1.25 -0.5q-0.703125 0 -1.203125 0.484375q-0.5 0.46875 -0.5625 1.265625zm8.2890625 -2.640625q1.140625 0 1.84375 0.546875q0.703125 0.53125 0.828125 1.578125l-1.046875 0q-0.125 -0.59375 -0.53125 -0.90625q-0.390625 -0.328125 -1.0 -0.328125q-0.953125 0 -1.453125 0.640625q-0.484375 0.640625 -0.484375 1.78125q0 1.03125 0.484375 1.65625q0.484375 0.625 1.328125 0.625q0.734375 0 1.15625 -0.40625q0.4375 -0.40625 0.546875 -1.109375l1.046875 0q-0.171875 1.15625 -0.875 1.78125q-0.703125 0.625 -1.875 0.625q-1.34375 0 -2.125 -0.84375q-0.765625 -0.859375 -0.765625 -2.328125q0 -1.515625 0.78125 -2.40625q0.78125 -0.90625 2.140625 -0.90625zm5.2734375 -1.71875l0 1.859375l1.234375 0l0 0.90625l-1.234375 0l0 3.875q0 0.46875 0.296875 0.5q0.3125 0.015625 0.65625 0.015625l0.28125 0l0 0.90625l-0.84375 0q-0.84375 0 -1.125 -0.296875q-0.28125 -0.296875 -0.28125 -1.0l0 -4.0l-1.0625 0l0 -0.90625l1.0625 0l0 -1.859375l1.015625 0zm5.044922 1.71875q1.40625 0 2.203125 0.90625q0.796875 0.90625 0.796875 2.34375q0 1.453125 -0.828125 2.34375q-0.8125 0.890625 -2.171875 0.890625q-1.359375 0 -2.1875 -0.875q-0.828125 -0.890625 -0.828125 -2.359375q0 -1.484375 0.8125 -2.359375q0.8125 -0.890625 2.203125 -0.890625zm-1.9375 3.25q0 1.0625 0.546875 1.703125q0.546875 0.640625 1.390625 0.640625q0.828125 0 1.375 -0.640625q0.546875 -0.640625 0.546875 -1.703125q0 -1.0625 -0.546875 -1.703125q-0.53125 -0.65625 -1.390625 -0.65625q-0.828125 0 -1.375 0.640625q-0.546875 0.640625 -0.546875 1.71875zm9.234383 -3.265625q0.03125 0 0.0625 0q0.03125 0 0.078125 0.015625l0 1.078125q-1.15625 0 -1.703125 0.609375q-0.5468826 0.609375 -0.5468826 1.875l0 2.78125l-1.015625 0l0 -6.203125l0.953125 0l0 1.296875l0.03125 0q0.359375 -0.734375 0.8750076 -1.09375q0.53125 -0.359375 1.265625 -0.359375zm1.3867188 0.15625l1.8125 5.078125l0.015625 0l1.75 -5.078125l1.078125 0l-2.640625 6.859375q-0.40625 1.078125 -0.796875 1.453125q-0.375 0.375 -1.0625 0.375q-0.1875 0 -0.359375 -0.03125q-0.171875 -0.015625 -0.34375 -0.078125l0 -0.9375q0.140625 0.046875 0.28125 0.09375q0.15625 0.046875 0.3125 0.046875q0.625 0 0.859375 -0.625q0.25 -0.609375 0.40625 -0.984375l-2.46875 -6.171875l1.15625 0z" fill-rule="nonzero"></path><path fill="#ffffff" d="m385.8294 301.79797l23.800781 0l0 15.125l-23.800781 0l0 -15.125z" fill-rule="nonzero"></path><path fill="#666633" d="m390.86066 304.95422l0 5.625l1.15625 0l0 0.890625l-1.15625 0l0 2.0l-0.96875 0l0 -2.0l-3.734375 0l0 -0.984375l3.890625 -5.53125l0.8125 0zm-0.984375 1.453125l-2.828125 4.171875l2.84375 0l0 -4.171875l-0.015625 0zm5.798828 -1.453125q1.21875 0 1.890625 0.609375q0.6875 0.609375 0.6875 1.671875q0 0.515625 -0.296875 0.96875q-0.296875 0.453125 -0.875 0.734375l0 0.015625q0.75 0.171875 1.140625 0.71875q0.390625 0.53125 0.390625 1.34375q0 1.1875 -0.8125 1.890625q-0.8125 0.703125 -2.109375 0.703125q-1.28125 0 -2.0625 -0.703125q-0.765625 -0.71875 -0.765625 -2.03125l0 -0.03125l1.015625 0q0.03125 0.90625 0.515625 1.390625q0.484375 0.484375 1.296875 0.484375q0.796875 0 1.3125 -0.46875q0.53125 -0.46875 0.53125 -1.1875q0 -0.75 -0.5 -1.1875q-0.5 -0.4375 -1.34375 -0.4375q-0.125 0 -0.28125 0.015625q-0.140625 0 -0.296875 0.015625l0 -0.859375q0.140625 0.015625 0.375 0.015625q0.59375 0 0.9375 -0.1875q0.359375 -0.203125 0.546875 -0.484375q0.203125 -0.296875 0.203125 -0.71875q0 -0.640625 -0.40625 -1.0q-0.40625 -0.375 -1.09375 -0.375q-0.75 0 -1.171875 0.484375q-0.421875 0.484375 -0.453125 1.359375l-1.015625 0q0.0625 -1.328125 0.75 -2.03125q0.6875 -0.71875 1.890625 -0.71875zm6.017578 -0.046875l2.703125 7.1875l2.71875 -7.1875l1.5625 0l0 8.5625l-1.078125 0l0 -7.125l-0.03125 0l-2.671875 7.125l-0.984375 0l-2.671875 -7.125l-0.015625 0l0 7.125l-1.078125 0l0 -8.5625l1.546875 0z" fill-rule="nonzero"></path><path fill="#ffffff" d="m517.5853 301.79797l23.800781 0l0 15.125l-23.800781 0l0 -15.125z" fill-rule="nonzero"></path><path fill="#222222" d="m523.22595 305.11047l0 0.890625l-3.4375 0l-0.453125 2.453125l0.03125 0.015625q0.265625 -0.28125 0.671875 -0.4375q0.40625 -0.171875 0.90625 -0.171875q1.234375 0 1.984375 0.78125q0.765625 0.765625 0.765625 2.125q0 1.234375 -0.828125 2.046875q-0.8125 0.796875 -2.140625 0.796875q-1.140625 0 -1.921875 -0.65625q-0.765625 -0.65625 -0.796875 -1.765625l0 -0.015625l1.015625 0q0.046875 0.6875 0.546875 1.125q0.5 0.421875 1.25 0.421875q0.78125 0 1.28125 -0.53125q0.515625 -0.546875 0.515625 -1.484375q0 -0.875 -0.5625 -1.40625q-0.546875 -0.53125 -1.359375 -0.53125q-0.453125 0 -0.859375 0.203125q-0.390625 0.203125 -0.71875 0.59375l-0.875 -0.046875l0.78125 -4.40625l4.203125 0zm4.205078 -0.15625q1.21875 0 1.890625 0.609375q0.6875 0.609375 0.6875 1.671875q0 0.515625 -0.296875 0.96875q-0.296875 0.453125 -0.875 0.734375l0 0.015625q0.75 0.171875 1.140625 0.71875q0.390625 0.53125 0.390625 1.34375q0 1.1875 -0.8125 1.890625q-0.8125 0.703125 -2.109375 0.703125q-1.28125 0 -2.0625 -0.703125q-0.765625 -0.71875 -0.765625 -2.03125l0 -0.03125l1.015625 0q0.03125 0.90625 0.515625 1.390625q0.484375 0.484375 1.296875 0.484375q0.796875 0 1.3125 -0.46875q0.53125 -0.46875 0.53125 -1.1875q0 -0.75 -0.5 -1.1875q-0.5 -0.4375 -1.34375 -0.4375q-0.125 0 -0.28125 0.015625q-0.140625 0 -0.296875 0.015625l0 -0.859375q0.140625 0.015625 0.375 0.015625q0.59375 0 0.9375 -0.1875q0.359375 -0.203125 0.546875 -0.484375q0.203125 -0.296875 0.203125 -0.71875q0 -0.640625 -0.40625 -1.0q-0.40625 -0.375 -1.09375 -0.375q-0.75 0 -1.171875 0.484375q-0.421875 0.484375 -0.453125 1.359375l-1.015625 0q0.0625 -1.328125 0.75 -2.03125q0.6875 -0.71875 1.890625 -0.71875zm6.017578 -0.046875l2.703125 7.1875l2.71875 -7.1875l1.5625 0l0 8.5625l-1.078125 0l0 -7.125l-0.03125 0l-2.671875 7.125l-0.984375 0l-2.671875 -7.125l-0.015625 0l0 7.125l-1.078125 0l0 -8.5625l1.546875 0z" fill-rule="nonzero"></path><path fill="#ffffff" d="m649.3412 301.79797l23.800781 0l0 15.125l-23.800781 0l0 -15.125z" fill-rule="nonzero"></path><path fill="#222222" d="m652.93494 304.95422q1.046875 0 1.671875 0.578125q0.625 0.5625 0.71875 1.609375l-1.015625 0q-0.078125 -0.609375 -0.46875 -0.9375q-0.375 -0.34375 -0.953125 -0.34375q-0.984375 0 -1.515625 0.828125q-0.515625 0.8125 -0.546875 2.390625l0.015625 0.03125q0.34375 -0.5625 0.859375 -0.828125q0.53125 -0.28125 1.265625 -0.28125q1.15625 0 1.875 0.765625q0.734375 0.765625 0.734375 1.984375q0 1.21875 -0.75 2.046875q-0.75 0.8125 -2.09375 0.8125q-1.453125 0 -2.203125 -1.015625q-0.734375 -1.015625 -0.734375 -3.078125q0 -2.203125 0.796875 -3.375q0.796875 -1.1875 2.34375 -1.1875zm-1.921875 5.859375q0 0.84375 0.484375 1.375q0.484375 0.53125 1.28125 0.53125q0.75 0 1.234375 -0.53125q0.484375 -0.546875 0.484375 -1.359375q0 -0.875 -0.46875 -1.40625q-0.46875 -0.53125 -1.265625 -0.53125q-0.796875 0 -1.28125 0.546875q-0.46875 0.53125 -0.46875 1.375zm10.033203 -5.859375l0 5.625l1.15625 0l0 0.890625l-1.15625 0l0 2.0l-0.96875 0l0 -2.0l-3.734375 0l0 -0.984375l3.890625 -5.53125l0.8125 0zm-0.984375 1.453125l-2.828125 4.171875l2.84375 0l0 -4.171875l-0.015625 0zm5.142578 -1.5l2.703125 7.1875l2.71875 -7.1875l1.5625 0l0 8.5625l-1.078125 0l0 -7.125l-0.03125 0l-2.671875 7.125l-0.984375 0l-2.671875 -7.125l-0.015625 0l0 7.125l-1.078125 0l0 -8.5625l1.546875 0z" fill-rule="nonzero"></path><path fill="#ffffff" d="m781.0971 301.79797l23.800781 0l0 15.125l-23.800781 0l0 -15.125z" fill-rule="nonzero"></path><path fill="#666633" d="m784.69086 304.95422q1.046875 0 1.671875 0.578125q0.625 0.5625 0.71875 1.609375l-1.015625 0q-0.078125 -0.609375 -0.46875 -0.9375q-0.375 -0.34375 -0.953125 -0.34375q-0.984375 0 -1.515625 0.828125q-0.515625 0.8125 -0.546875 2.390625l0.015625 0.03125q0.34375 -0.5625 0.859375 -0.828125q0.53125 -0.28125 1.265625 -0.28125q1.15625 0 1.875 0.765625q0.734375 0.765625 0.734375 1.984375q0 1.21875 -0.75 2.046875q-0.75 0.8125 -2.09375 0.8125q-1.453125 0 -2.203125 -1.015625q-0.734375 -1.015625 -0.734375 -3.078125q0 -2.203125 0.796875 -3.375q0.796875 -1.1875 2.34375 -1.1875zm-1.921875 5.859375q0 0.84375 0.484375 1.375q0.484375 0.53125 1.28125 0.53125q0.75 0 1.234375 -0.53125q0.484375 -0.546875 0.484375 -1.359375q0 -0.875 -0.46875 -1.40625q-0.46875 -0.53125 -1.265625 -0.53125q-0.796875 0 -1.28125 0.546875q-0.46875 0.53125 -0.46875 1.375zm9.267578 -5.859375l0 8.515625l-1.015625 0l0 -6.09375l-2.203125 0l0 -0.828125l0.03125 0q1.078125 0 1.671875 -0.375q0.59375 -0.390625 0.75 -1.21875l0.765625 0zm4.923828 -0.046875l2.703125 7.1875l2.71875 -7.1875l1.5625 0l0 8.5625l-1.078125 0l0 -7.125l-0.03125 0l-2.671875 7.125l-0.984375 0l-2.671875 -7.125l-0.015625 0l0 7.125l-1.078125 0l0 -8.5625l1.546875 0z" fill-rule="nonzero"></path></g></svg>

