<?xml version="1.0" encoding="UTF-8" standalone="no"?>
<svg
   xmlns:dc="http://purl.org/dc/elements/1.1/"
   xmlns:cc="http://creativecommons.org/ns#"
   xmlns:rdf="http://www.w3.org/1999/02/22-rdf-syntax-ns#"
   xmlns:svg="http://www.w3.org/2000/svg"
   xmlns="http://www.w3.org/2000/svg"
   xmlns:sodipodi="http://sodipodi.sourceforge.net/DTD/sodipodi-0.dtd"
   xmlns:inkscape="http://www.inkscape.org/namespaces/inkscape"
   version="1.1"
   viewBox="0.0 0.0 960.0 540.0"
   fill="none"
   stroke="none"
   stroke-linecap="square"
   stroke-miterlimit="10"
   id="svg13886"
   inkscape:version="0.48.4 r9939"
   width="100%"
   height="100%"
   sodipodi:docname="gitflow-hotfix.svg">
  <metadata
     id="metadata13989">
    <rdf:RDF>
      <cc:Work
         rdf:about="">
        <dc:format>image/svg+xml</dc:format>
        <dc:type
           rdf:resource="http://purl.org/dc/dcmitype/StillImage" />
      </cc:Work>
    </rdf:RDF>
  </metadata>
  <defs
     id="defs13987" />
  <sodipodi:namedview
     pagecolor="#ffffff"
     bordercolor="#666666"
     borderopacity="1"
     objecttolerance="10"
     gridtolerance="10"
     guidetolerance="10"
     inkscape:pageopacity="0"
     inkscape:pageshadow="2"
     inkscape:window-width="1598"
     inkscape:window-height="866"
     id="namedview13985"
     showgrid="false"
     inkscape:zoom="0.98567708"
     inkscape:cx="480"
     inkscape:cy="270"
     inkscape:window-x="0"
     inkscape:window-y="32"
     inkscape:window-maximized="0"
     inkscape:current-layer="svg13886" />
  <clipPath
     id="g3593cc936_0139.0">
    <path
       d="m0 0l960.0 0l0 540.0l-960.0 0l0 -540.0z"
       clip-rule="nonzero"
       id="path13889" />
  </clipPath>
  <path
     style="fill:#93c47d;fill-rule:nonzero"
     inkscape:connector-curvature="0"
     id="path13895"
     d="m 49.614174,486.18634 0,0 c 0,-19.03861 15.433838,-34.47244 34.472443,-34.47244 l 0,0 c 9.142654,0 17.910853,3.63192 24.375693,10.09677 6.46484,6.46481 10.09674,15.23303 10.09674,24.37567 l 0,0 c 0,19.0386 -15.43384,34.47247 -34.472433,34.47247 l 0,0 c -19.038605,0 -34.472443,-15.43387 -34.472443,-34.47247 z" />
  <path
     style="stroke:#666666;stroke-width:2;stroke-linecap:butt;stroke-linejoin:round"
     inkscape:connector-curvature="0"
     id="path13897"
     d="m 49.614174,486.18634 0,0 c 0,-19.03861 15.433838,-34.47244 34.472443,-34.47244 l 0,0 c 9.142654,0 17.910853,3.63192 24.375693,10.09677 6.46484,6.46481 10.09674,15.23303 10.09674,24.37567 l 0,0 c 0,19.0386 -15.43384,34.47247 -34.472433,34.47247 l 0,0 c -19.038605,0 -34.472443,-15.43387 -34.472443,-34.47247 z" />
  <path
     style="fill:#6d9eeb;fill-rule:nonzero"
     inkscape:connector-curvature="0"
     id="path13899"
     d="m 190.00787,179.4147 0,0 c 0,-19.0386 15.43384,-34.47244 34.47244,-34.47244 l 0,0 c 9.14266,0 17.91086,3.63189 24.37569,10.09674 6.46484,6.46484 10.09676,15.23303 10.09676,24.3757 l 0,0 c 0,19.03859 -15.43384,34.47243 -34.47245,34.47243 l 0,0 c -19.0386,0 -34.47244,-15.43384 -34.47244,-34.47243 z" />
  <path
     style="stroke:#666666;stroke-width:2;stroke-linecap:butt;stroke-linejoin:round"
     inkscape:connector-curvature="0"
     id="path13901"
     d="m 190.00787,179.4147 0,0 c 0,-19.0386 15.43384,-34.47244 34.47244,-34.47244 l 0,0 c 9.14266,0 17.91086,3.63189 24.37569,10.09674 6.46484,6.46484 10.09676,15.23303 10.09676,24.3757 l 0,0 c 0,19.03859 -15.43384,34.47243 -34.47245,34.47243 l 0,0 c -19.0386,0 -34.47244,-15.43384 -34.47244,-34.47243 z" />
  <path
     style="fill:#000000;fill-opacity:0;fill-rule:nonzero"
     inkscape:connector-curvature="0"
     id="path13903"
     d="m -0.00787402,179.4147 190.01575402,0" />
  <path
     style="stroke:#666666;stroke-width:2;stroke-linecap:butt;stroke-linejoin:round"
     inkscape:connector-curvature="0"
     id="path13905"
     d="m -0.00787402,179.4147 178.01575402,0" />
  <path
     style="fill:#666666;fill-rule:evenodd;stroke:#666666;stroke-width:2;stroke-linecap:butt"
     inkscape:connector-curvature="0"
     id="path13907"
     d="m 178.00787,182.71817 9.0762,-3.30347 -9.0762,-3.30346 z" />
  <path
     style="fill:#000000;fill-opacity:0;fill-rule:nonzero"
     inkscape:connector-curvature="0"
     id="path13909"
     d="m 26.03412,124.61942 138.92914,0 0,40.66141 -138.92914,0 z" />
  <path
     style="fill:#434343;fill-rule:nonzero"
     inkscape:connector-curvature="0"
     id="path13911"
     d="m 46.299747,147.35504 q 1.84375,0 3.046875,0.71875 1.203125,0.70312 1.78125,2.03125 0.9375,-1.32813 2.21875,-2.03125 1.28125,-0.71875 2.796875,-0.71875 3,0 4.515625,1.53125 1.515625,1.53125 1.515625,4.23437 l 0,11.21875 -4.546875,0 0,-9.5625 q 0,-2.26562 -0.671875,-3.04687 -0.65625,-0.79688 -2.109375,-0.79688 -1.53125,0 -2.296875,1.03125 -0.75,1.03125 -0.75,3.01563 l 0,9.35937 -4.546875,0 0,-10.1875 q 0,-1.64062 -0.625,-2.42187 -0.625,-0.79688 -2.109375,-0.79688 -1.296875,0 -2.1875,1 -0.890625,1 -0.890625,2.70313 l 0,9.70312 -4.546875,0 0,-16.54687 4.28125,0 0,2.25 0.0625,0 q 0.96875,-1.35938 2.234375,-2.01563 1.28125,-0.67187 2.828125,-0.67187 z m 27.046871,0 q 3.671875,0 5.453125,1.20312 1.796875,1.20313 1.796875,3.39063 l 0,8.875 q 0,1 0.125,2 0.140625,1 0.453125,1.51562 l -4.609375,0 q -0.125,-0.375 -0.21875,-0.76562 -0.07813,-0.40625 -0.109375,-0.8125 -0.953125,0.98437 -2.375,1.51562 -1.40625,0.51563 -3.1875,0.51563 -2.5625,0 -4.09375,-1.28125 -1.53125,-1.29688 -1.53125,-3.6875 0,-2.3125 1.4375,-3.53125 1.4375,-1.23438 5.234375,-1.65625 2.640625,-0.25 3.484375,-0.64063 0.84375,-0.40625 0.84375,-1.39062 0,-1.10938 -0.65625,-1.65625 -0.640625,-0.5625 -2.265625,-0.5625 -1.40625,0 -2.15625,0.60937 -0.75,0.59375 -0.875,1.89063 l -4.546875,0 q 0.1875,-2.71875 2.234375,-4.125 2.0625,-1.40625 5.5625,-1.40625 z m -3.765625,12.28125 q 0,0.98437 0.671875,1.54687 0.671875,0.5625 2.125,0.5625 1.8125,0 2.734375,-0.95312 0.9375,-0.95313 0.9375,-2.78125 l 0,-1.76563 q -0.40625,0.32813 -1.078125,0.5 -0.65625,0.15625 -2.390625,0.40625 -1.546875,0.20313 -2.28125,0.8125 -0.71875,0.59375 -0.71875,1.67188 z m 21.328125,-12.28125 q 3.375,0 5.203125,1.34375 1.84375,1.32812 2.09375,3.92187 l -4.328125,0 q -0.09375,-1.17187 -0.875,-1.70312 -0.78125,-0.53125 -2.234375,-0.53125 -1.3125,0 -1.921875,0.39062 -0.59375,0.39063 -0.59375,1.14063 0,0.76562 0.78125,1.26562 0.796875,0.48438 3.1875,0.9375 3.8125,0.73438 5.109375,1.89063 1.3125,1.15625 1.3125,3.03125 0,2.8125 -2.0625,4.28125 -2.046875,1.46875 -5.484375,1.46875 -3.4375,0 -5.546875,-1.45313 -2.09375,-1.46875 -2.234375,-4.375 l 4.328125,0 q 0,1.3125 0.984375,2.04688 1,0.73437 2.5,0.73437 1.328125,0 2.15625,-0.5625 0.828125,-0.57812 0.828125,-1.54687 0,-0.85938 -1.078125,-1.40625 -1.078125,-0.54688 -3.953125,-1.14063 -2.84375,-0.5625 -4.109375,-1.60937 -1.265625,-1.04688 -1.265625,-2.82813 0,-2.625 1.859375,-3.95312 1.859375,-1.34375 5.34375,-1.34375 z m 16.156252,-4.51563 0,4.95313 3.32812,0 0,3.04687 -3.32812,0 0,8.29688 q 0,1.01562 0.375,1.42187 0.39062,0.39063 1.54687,0.39063 0.39063,0 0.75,-0.0312 0.35938,-0.0312 0.65625,-0.0937 l 0,3.54687 q -0.5625,0.0937 -1.26562,0.125 -0.6875,0.0312 -1.35938,0.0312 -2.95312,0 -4.10937,-1 -1.14063,-1.01562 -1.14063,-2.82812 l 0,-9.85938 -2.749997,0 0,-3.04687 2.749997,0 0,-4.95313 4.54688,0 z m 13.15625,4.51563 q 3.67187,0 5.85937,2.53125 2.20313,2.51562 2.20313,6.4375 l -0.0312,0.84375 -11.9375,0 q 0.0937,2.14062 1.10937,3.17187 1.03125,1.03125 2.9375,1.03125 1.23438,0 2.28125,-0.625 1.04688,-0.64062 1.32813,-1.53125 l 4,0 q -0.92188,2.8125 -2.84375,4.20313 -1.92188,1.375 -4.90625,1.375 -3.82813,0 -6.14063,-2.42188 -2.3125,-2.42187 -2.3125,-6.28125 0,-3.70312 2.35938,-6.21875 2.375,-2.51562 6.09375,-2.51562 z m -3.90625,6.9375 7.39062,0 q -0.32812,-1.82813 -1.1875,-2.67188 -0.84375,-0.84375 -2.45312,-0.84375 -1.65625,0 -2.625,0.9375 -0.96875,0.9375 -1.125,2.57813 z m 24.28125,-6.9375 q 0.29687,0 0.54687,0.0469 0.25,0.0312 0.46875,0.10938 l 0,4.21875 q -0.39062,-0.0781 -0.76562,-0.10938 -0.35938,-0.0469 -0.85938,-0.0469 -2.29687,0 -3.40625,1.40625 -1.09375,1.40625 -1.09375,3.76562 l 0,7.59375 -4.53125,0 0,-16.54687 4.3125,0 0,3.07812 0.0625,0 q 0.71875,-1.625 2.14063,-2.5625 1.4375,-0.95312 3.125,-0.95312 z" />
  <path
     style="fill:#cccccc;fill-rule:nonzero"
     inkscape:connector-curvature="0"
     id="path13913"
     d="m 206.5748,68.05249 7.95276,0 0,0 11.92914,0 27.83464,0 0,32.99738 0,0 0,14.14173 0,9.42782 -27.83464,0 -4.54579,17.67208 -7.38335,-17.67208 -7.95276,0 0,-9.42782 0,-14.14173 0,0 z" />
  <path
     style="stroke:#666666;stroke-width:2;stroke-linecap:butt;stroke-linejoin:round"
     inkscape:connector-curvature="0"
     id="path13915"
     d="m 206.5748,68.05249 7.95276,0 0,0 11.92914,0 27.83464,0 0,32.99738 0,0 0,14.14173 0,9.42782 -27.83464,0 -4.54579,17.67208 -7.38335,-17.67208 -7.95276,0 0,-9.42782 0,-14.14173 0,0 z" />
  <path
     style="fill:#000000;fill-rule:nonzero"
     inkscape:connector-curvature="0"
     id="path13917"
     d="m 216.35605,96.552826 q 0,-2.421875 0.5,-3.890625 0.5,-1.46875 1.46875,-2.265625 0.98437,-0.796875 2.46875,-0.796875 1.09375,0 1.92187,0.4375 0.82813,0.4375 1.35938,1.28125 0.54687,0.828125 0.84375,2.015625 0.3125,1.1875 0.3125,3.21875 0,2.390625 -0.5,3.859374 -0.48438,1.46875 -1.46875,2.28125 -0.96875,0.79688 -2.46875,0.79688 -1.96875,0 -3.07813,-1.40625 -1.35937,-1.70313 -1.35937,-5.531254 z m 1.71875,0 q 0,3.34375 0.78125,4.453124 0.79687,1.10938 1.9375,1.10938 1.15625,0 1.9375,-1.10938 0.78125,-1.124999 0.78125,-4.453124 0,-3.359375 -0.78125,-4.46875 -0.78125,-1.109375 -1.95313,-1.109375 -1.15625,0 -1.82812,0.984375 -0.875,1.234375 -0.875,4.59375 z m 9.59447,6.703124 0,-1.90625 1.90625,0 0,1.90625 -1.90625,0 z m 9.60518,0 0,-3.25 -5.90625,0 0,-1.531249 6.21875,-8.8125 1.35937,0 0,8.8125 1.84375,0 0,1.531249 -1.84375,0 0,3.25 -1.67187,0 z m 0,-4.781249 0,-6.140625 -4.25,6.140625 4.25,0 z" />
  <path
     style="fill:#000000;fill-opacity:0;fill-rule:nonzero"
     inkscape:connector-curvature="0"
     id="path13919"
     d="m 49.614174,486.18634 -49.6063,0" />
  <path
     style="stroke:#666666;stroke-width:2;stroke-linecap:butt;stroke-linejoin:round"
     inkscape:connector-curvature="0"
     id="path13921"
     d="m 37.614174,486.18634 -37.6063,0" />
  <path
     style="fill:#666666;fill-rule:evenodd;stroke:#666666;stroke-width:2;stroke-linecap:butt"
     inkscape:connector-curvature="0"
     id="path13923"
     d="m 37.614174,489.4898 9.076195,-3.30347 -9.076195,-3.30346 z" />
  <path
     style="fill:#000000;fill-opacity:0;fill-rule:nonzero"
     inkscape:connector-curvature="0"
     id="path13925"
     d="m 108.46231,461.81067 91.6423,-258.02026" />
  <path
     style="stroke:#666666;stroke-width:2;stroke-linecap:butt;stroke-linejoin:round"
     inkscape:connector-curvature="0"
     id="path13927"
     d="M 108.46231,461.81067 196.08832,215.09833" />
  <path
     style="fill:#666666;fill-rule:evenodd;stroke:#666666;stroke-width:2;stroke-linecap:butt"
     inkscape:connector-curvature="0"
     id="path13929"
     d="m 199.20126,216.20396 -0.0752,-9.65839 -6.15068,7.44712 z" />
  <path
     style="fill:#e06666;fill-rule:nonzero"
     inkscape:connector-curvature="0"
     id="path13931"
     d="m 342.24146,343.10498 0,0 c 0,-19.03861 15.43384,-34.47244 34.47244,-34.47244 l 0,0 c 9.14267,0 17.91086,3.63192 24.3757,10.09674 6.46485,6.46484 10.09675,15.23306 10.09675,24.3757 l 0,0 c 0,19.03861 -15.43384,34.47244 -34.47245,34.47244 l 0,0 c -19.0386,0 -34.47244,-15.43383 -34.47244,-34.47244 z" />
  <path
     style="stroke:#666666;stroke-width:2;stroke-linecap:butt;stroke-linejoin:round"
     inkscape:connector-curvature="0"
     id="path13933"
     d="m 342.24146,343.10498 0,0 c 0,-19.03861 15.43384,-34.47244 34.47244,-34.47244 l 0,0 c 9.14267,0 17.91086,3.63192 24.3757,10.09674 6.46485,6.46484 10.09675,15.23306 10.09675,24.3757 l 0,0 c 0,19.03861 -15.43384,34.47244 -34.47245,34.47244 l 0,0 c -19.0386,0 -34.47244,-15.43383 -34.47244,-34.47244 z" />
  <path
     style="fill:#000000;fill-opacity:0;fill-rule:nonzero"
     inkscape:connector-curvature="0"
     id="path13935"
     d="M 248.856,203.79039 352.33822,318.72928" />
  <path
     style="stroke:#666666;stroke-width:2;stroke-linecap:butt;stroke-linejoin:round"
     inkscape:connector-curvature="0"
     id="path13937"
     d="m 248.85602,203.79039 95.45303,106.0208" />
  <path
     style="fill:#666666;fill-rule:evenodd;stroke:#666666;stroke-width:2;stroke-linecap:butt"
     inkscape:connector-curvature="0"
     id="path13939"
     d="m 341.854,312.02155 8.52789,4.53485 -3.61779,-8.95554 z" />
  <path
     style="fill:#6d9eeb;fill-rule:nonzero"
     inkscape:connector-curvature="0"
     id="path13941"
     d="m 596.126,179.4147 0,0 c 0,-19.0386 15.43384,-34.47244 34.47247,-34.47244 l 0,0 c 9.14264,0 17.91083,3.63189 24.37567,10.09674 6.46485,6.46484 10.09674,15.23303 10.09674,24.3757 l 0,0 c 0,19.03859 -15.43383,34.47243 -34.47241,34.47243 l 0,0 c -19.03863,0 -34.47247,-15.43384 -34.47247,-34.47243 z" />
  <path
     style="stroke:#666666;stroke-width:2;stroke-linecap:butt;stroke-linejoin:round"
     inkscape:connector-curvature="0"
     id="path13943"
     d="m 596.126,179.4147 0,0 c 0,-19.0386 15.43384,-34.47244 34.47247,-34.47244 l 0,0 c 9.14264,0 17.91083,3.63189 24.37567,10.09674 6.46485,6.46484 10.09674,15.23303 10.09674,24.3757 l 0,0 c 0,19.03859 -15.43383,34.47243 -34.47241,34.47243 l 0,0 c -19.03863,0 -34.47247,-15.43384 -34.47247,-34.47243 z" />
  <path
     style="fill:#000000;fill-opacity:0;fill-rule:nonzero"
     inkscape:connector-curvature="0"
     id="path13945"
     d="m 258.95276,179.4147 337.17322,0" />
  <path
     style="stroke:#666666;stroke-width:2;stroke-linecap:butt;stroke-linejoin:round"
     inkscape:connector-curvature="0"
     id="path13947"
     d="m 258.95276,179.4147 325.17322,0" />
  <path
     style="fill:#666666;fill-rule:evenodd;stroke:#666666;stroke-width:2;stroke-linecap:butt"
     inkscape:connector-curvature="0"
     id="path13949"
     d="m 584.126,182.71817 9.07623,-3.30347 -9.07623,-3.30346 z" />
  <path
     style="fill:#000000;fill-opacity:0;fill-rule:nonzero"
     inkscape:connector-curvature="0"
     id="path13951"
     d="m 411.18634,343.10498 60.18899,0" />
  <path
     style="stroke:#666666;stroke-width:2;stroke-linecap:butt;stroke-linejoin:round"
     inkscape:connector-curvature="0"
     id="path13953"
     d="m 411.18634,343.10498 48.18899,0" />
  <path
     style="fill:#666666;fill-rule:evenodd;stroke:#666666;stroke-width:2;stroke-linecap:butt"
     inkscape:connector-curvature="0"
     id="path13955"
     d="m 459.37534,346.40845 9.0762,-3.30347 -9.0762,-3.30346 z" />
  <path
     style="fill:#e06666;fill-rule:nonzero"
     inkscape:connector-curvature="0"
     id="path13957"
     d="m 471.37534,343.10498 0,0 c 0,-19.03861 15.43384,-34.47244 34.47244,-34.47244 l 0,0 c 9.14264,0 17.91083,3.63192 24.37567,10.09674 6.46485,6.46484 10.09674,15.23306 10.09674,24.3757 l 0,0 c 0,19.03861 -15.43383,34.47244 -34.47241,34.47244 l 0,0 c -19.0386,0 -34.47244,-15.43383 -34.47244,-34.47244 z" />
  <path
     style="stroke:#666666;stroke-width:2;stroke-linecap:butt;stroke-linejoin:round"
     inkscape:connector-curvature="0"
     id="path13959"
     d="m 471.37534,343.10498 0,0 c 0,-19.03861 15.43384,-34.47244 34.47244,-34.47244 l 0,0 c 9.14264,0 17.91083,3.63192 24.37567,10.09674 6.46485,6.46484 10.09674,15.23306 10.09674,24.3757 l 0,0 c 0,19.03861 -15.43383,34.47244 -34.47241,34.47244 l 0,0 c -19.0386,0 -34.47244,-15.43383 -34.47244,-34.47244 z" />
  <path
     style="fill:#000000;fill-opacity:0;fill-rule:nonzero"
     inkscape:connector-curvature="0"
     id="path13961"
     d="M 530.22345,318.72928 606.22272,203.79039" />
  <path
     style="stroke:#666666;stroke-width:2;stroke-linecap:butt;stroke-linejoin:round"
     inkscape:connector-curvature="0"
     id="path13963"
     d="M 530.22345,318.72928 599.60419,213.80011" />
  <path
     style="fill:#666666;fill-rule:evenodd;stroke:#666666;stroke-width:2;stroke-linecap:butt"
     inkscape:connector-curvature="0"
     id="path13965"
     d="m 602.35974,215.62213 2.25037,-9.39287 -7.76154,5.74884 z" />
  <path
     style="fill:#cccccc;fill-rule:nonzero"
     inkscape:connector-curvature="0"
     id="path13967"
     d="m 606.7402,68.05249 11.49078,0 0,0 17.23621,0 40.2179,0 0,32.99738 0,0 0,14.14173 0,9.42782 -40.2179,0 -6.56812,17.67208 -10.66809,-17.67208 -11.49078,0 0,-9.42782 0,-14.14173 0,0 z" />
  <path
     style="stroke:#666666;stroke-width:2;stroke-linecap:butt;stroke-linejoin:round"
     inkscape:connector-curvature="0"
     id="path13969"
     d="m 606.7402,68.05249 11.49078,0 0,0 17.23621,0 40.2179,0 0,32.99738 0,0 0,14.14173 0,9.42782 -40.2179,0 -6.56812,17.67208 -10.66809,-17.67208 -11.49078,0 0,-9.42782 0,-14.14173 0,0 z" />
  <path
     style="fill:#000000;fill-rule:nonzero"
     inkscape:connector-curvature="0"
     id="path13971"
     d="m 616.5214,96.552826 q 0,-2.421875 0.5,-3.890625 0.5,-1.46875 1.46875,-2.265625 0.98437,-0.796875 2.46875,-0.796875 1.09375,0 1.92187,0.4375 0.82813,0.4375 1.35938,1.28125 0.54687,0.828125 0.84375,2.015625 0.3125,1.1875 0.3125,3.21875 0,2.390625 -0.5,3.859374 -0.48438,1.46875 -1.46875,2.28125 -0.96875,0.79688 -2.46875,0.79688 -1.96875,0 -3.07813,-1.40625 -1.35937,-1.70313 -1.35937,-5.531254 z m 1.71875,0 q 0,3.34375 0.78125,4.453124 0.79687,1.10938 1.9375,1.10938 1.15625,0 1.9375,-1.10938 0.78125,-1.124999 0.78125,-4.453124 0,-3.359375 -0.78125,-4.46875 -0.78125,-1.109375 -1.95313,-1.109375 -1.15625,0 -1.82812,0.984375 -0.875,1.234375 -0.875,4.59375 z m 9.59442,6.703124 0,-1.90625 1.90625,0 0,1.90625 -1.90625,0 z m 9.60523,0 0,-3.25 -5.90625,0 0,-1.531249 6.21875,-8.8125 1.35937,0 0,8.8125 1.84375,0 0,1.531249 -1.84375,0 0,3.25 -1.67187,0 z m 0,-4.781249 0,-6.140625 -4.25,6.140625 4.25,0 z m 5.95379,4.781249 0,-1.90625 1.90625,0 0,1.90625 -1.90625,0 z m 10.54273,0 -1.67188,0 0,-10.640624 q -0.59375,0.578125 -1.57812,1.15625 -0.98438,0.5625 -1.76563,0.859375 l 0,-1.625 q 1.40625,-0.65625 2.45313,-1.59375 1.04687,-0.9375 1.48437,-1.8125 l 1.07813,0 0,13.656249 z" />
  <path
     style="fill:#000000;fill-opacity:0;fill-rule:nonzero"
     inkscape:connector-curvature="0"
     id="path13973"
     d="m 665.07086,179.4147 296.50397,0" />
  <path
     style="stroke:#666666;stroke-width:2;stroke-linecap:butt;stroke-linejoin:round"
     inkscape:connector-curvature="0"
     id="path13975"
     d="m 665.07086,179.4147 296.50397,0" />
  <path
     style="fill:#000000;fill-opacity:0;fill-rule:nonzero"
     inkscape:connector-curvature="0"
     id="path13977"
     d="m 535.5906,382.12073 207.6535,0 0,40.66144 -207.6535,0 z" />
  <path
     style="fill:#434343;fill-rule:nonzero"
     inkscape:connector-curvature="0"
     id="path13979"
     d="m 570.4316,398.99698 0,8.60937 0.10937,0 q 0.71875,-1.23437 2.03125,-1.98437 1.32813,-0.76563 2.82813,-0.76563 3.15625,0 4.57812,1.60938 1.4375,1.60937 1.4375,5.03125 l 0,10.34375 -4.54687,0 0,-9.48438 q 0,-1.9375 -0.67188,-2.92187 -0.65625,-1 -2.23437,-1 -1.89063,0 -2.71875,1.125 -0.8125,1.125 -0.8125,3.45312 l 0,8.82813 -4.53125,0 0,-22.84375 4.53125,0 z m 22.46875,5.85937 q 3.89062,0 6.23437,2.40625 2.34375,2.39063 2.34375,6.32813 0,3.95312 -2.375,6.32812 -2.35937,2.375 -6.20312,2.375 -3.84375,0 -6.20313,-2.39062 -2.34375,-2.39063 -2.34375,-6.3125 0,-3.92188 2.3125,-6.32813 2.3125,-2.40625 6.23438,-2.40625 z m -4,8.73438 q 0,2.60937 1.0625,3.95312 1.07812,1.32813 2.9375,1.32813 1.9375,0 2.98437,-1.375 1.04688,-1.39063 1.04688,-3.90625 0,-2.46875 -1.01563,-3.89063 -1.01562,-1.42187 -3.04687,-1.42187 -1.82813,0 -2.90625,1.32812 -1.0625,1.3125 -1.0625,3.98438 z m 21.26562,-13.25 0,4.95312 3.32813,0 0,3.04688 -3.32813,0 0,8.29687 q 0,1.01563 0.375,1.42188 0.39063,0.39062 1.54688,0.39062 0.39062,0 0.75,-0.0312 0.35937,-0.0312 0.65625,-0.0937 l 0,3.54688 q -0.5625,0.0937 -1.26563,0.125 -0.6875,0.0312 -1.35937,0.0312 -2.95313,0 -4.10938,-1 -1.14062,-1.01563 -1.14062,-2.82813 l 0,-9.85937 -2.75,0 0,-3.04688 2.75,0 0,-4.95312 4.54687,0 z m 12.03125,-1.34375 q 0.46875,0 1.25,0.0469 0.78125,0.0469 1.15625,0.0781 l 0,3.39062 q -0.45312,-0.0469 -0.875,-0.0625 -0.40625,-0.0312 -0.76562,-0.0312 -0.95313,0 -1.35938,0.42188 -0.39062,0.40625 -0.39062,1.6875 l 0,0.76562 3.14062,0 0,3.04688 -3.14062,0 0,13.5 -4.54688,0 0,-13.5 -2.71875,0 0,-3.04688 2.71875,0 0,-1.14062 q 0,-2.57813 1.48438,-3.85938 1.5,-1.29687 4.04687,-1.29687 z m 8.8125,0 0,3.73437 -4.54687,0 0,-3.73437 4.54687,0 z m 0,6.29687 0,16.54688 -4.54687,0 0,-16.54688 4.54687,0 z m 7.54688,0 2.90625,4.32813 2.875,-4.32813 5.03125,0 -5.4375,7.75 6.10937,8.79688 -5.1875,0 -3.45312,-5.21875 -3.45313,5.21875 -5.09375,0 5.95313,-8.70313 -5.4375,-7.84375 5.1875,0 z m 22.8125,5.85938 0,3.90625 -9.625,0 0,-3.90625 9.625,0 z m 10.5625,-12.15625 q 4.01562,0 6.14062,2.9375 2.125,2.92187 2.125,8.60937 0,5.76563 -2.10937,8.76563 -2.10938,2.98437 -6.15625,2.98437 -4,0 -6.09375,-2.96875 -2.09375,-2.98437 -2.09375,-8.78125 0,-5.65625 2.07812,-8.59375 2.09375,-2.95312 6.10938,-2.95312 z m -3.64063,11.57812 q 0,3.46875 0.46875,5.04688 0.48438,1.5625 1.28125,2.25 0.79688,0.67187 1.89063,0.67187 1.79687,0 2.75,-1.75 0.96875,-1.76562 0.96875,-6.23437 0,-4.29688 -0.96875,-6.0625 -0.95313,-1.76563 -2.76563,-1.76563 -1.71875,0 -2.67187,1.70313 -0.95313,1.70312 -0.95313,6.14062 z m 19.51563,6.34375 0,4.92188 -5.01563,0 0,-4.92188 5.01563,0 z m 16.25,-17.48437 0,13.48437 2.98437,0 0,3.73438 -2.98437,0 0,5.1875 -4.3125,0 0,-5.1875 -9.46875,0 0,-4.15625 9.71875,-13.0625 4.0625,0 z m -4.40625,5.70312 -5.79688,7.78125 5.89063,0 0,-7.78125 -0.0937,0 z m 14.84375,11.78125 0,4.92188 -5.01563,0 0,-4.92188 5.01563,0 z m 14.5,-17.48437 0,22.40625 -4.54688,0 0,-14.53125 -5.625,0 0,-3.42188 0.29688,0 q 2.75,0 4.32812,-1.125 1.59375,-1.14062 1.92188,-3.32812 l 3.625,0 z" />
  <path
     style="fill:#000000;fill-opacity:0;fill-rule:nonzero"
     inkscape:connector-curvature="0"
     id="path13981"
     d="m 123.8189,491.55118 190.01572,0 0,40.66141 -190.01572,0 z" />
  <path
     style="fill:#434343;fill-rule:nonzero"
     inkscape:connector-curvature="0"
     id="path13983"
     d="m 144.2598,440.22603 q 0.29687,0 0.54687,0.0469 0.25,0.0312 0.46875,0.10938 l 0,4.21875 q -0.39062,-0.0781 -0.76562,-0.10938 -0.35938,-0.0469 -0.85938,-0.0469 -2.29687,0 -3.40625,1.40625 -1.09375,1.40625 -1.09375,3.76562 l 0,7.59375 -4.53125,0 0,-16.54687 4.3125,0 0,3.07812 0.0625,0 q 0.71875,-1.625 2.14063,-2.5625 1.4375,-0.95312 3.125,-0.95312 z m 10.45312,0 q 3.67188,0 5.85938,2.53125 2.20312,2.51562 2.20312,6.4375 l -0.0312,0.84375 -11.9375,0 q 0.0937,2.14062 1.10938,3.17187 1.03125,1.03125 2.9375,1.03125 1.23437,0 2.28125,-0.625 1.04687,-0.64062 1.32812,-1.53125 l 4,0 q -0.92187,2.8125 -2.84375,4.20313 -1.92187,1.375 -4.90625,1.375 -3.82812,0 -6.14062,-2.42188 -2.3125,-2.42187 -2.3125,-6.28125 0,-3.70312 2.35937,-6.21875 2.375,-2.51562 6.09375,-2.51562 z m -3.90625,6.9375 7.39063,0 q -0.32813,-1.82813 -1.1875,-2.67188 -0.84375,-0.84375 -2.45313,-0.84375 -1.65625,0 -2.625,0.9375 -0.96875,0.9375 -1.125,2.57813 z m 19.3125,-12.79688 0,22.84375 -4.54687,0 0,-22.84375 4.54687,0 z m 11.21875,5.85938 q 3.67188,0 5.85938,2.53125 2.20312,2.51562 2.20312,6.4375 l -0.0312,0.84375 -11.9375,0 q 0.0937,2.14062 1.10938,3.17187 1.03125,1.03125 2.9375,1.03125 1.23437,0 2.28125,-0.625 1.04687,-0.64062 1.32812,-1.53125 l 4,0 q -0.92187,2.8125 -2.84375,4.20313 -1.92187,1.375 -4.90625,1.375 -3.82812,0 -6.14062,-2.42188 -2.3125,-2.42187 -2.3125,-6.28125 0,-3.70312 2.35937,-6.21875 2.375,-2.51562 6.09375,-2.51562 z m -3.90625,6.9375 7.39063,0 q -0.32813,-1.82813 -1.1875,-2.67188 -0.84375,-0.84375 -2.45313,-0.84375 -1.65625,0 -2.625,0.9375 -0.96875,0.9375 -1.125,2.57813 z m 22.23438,-6.9375 q 3.67187,0 5.45312,1.20312 1.79688,1.20313 1.79688,3.39063 l 0,8.875 q 0,1 0.125,2 0.14062,1 0.45312,1.51562 l -4.60937,0 q -0.125,-0.375 -0.21875,-0.76562 -0.0781,-0.40625 -0.10938,-0.8125 -0.95312,0.98437 -2.375,1.51562 -1.40625,0.51563 -3.1875,0.51563 -2.5625,0 -4.09375,-1.28125 -1.53125,-1.29688 -1.53125,-3.6875 0,-2.3125 1.4375,-3.53125 1.4375,-1.23438 5.23438,-1.65625 2.64062,-0.25 3.48437,-0.64063 0.84375,-0.40625 0.84375,-1.39062 0,-1.10938 -0.65625,-1.65625 -0.64062,-0.5625 -2.26562,-0.5625 -1.40625,0 -2.15625,0.60937 -0.75,0.59375 -0.875,1.89063 l -4.54688,0 q 0.1875,-2.71875 2.23438,-4.125 2.0625,-1.40625 5.5625,-1.40625 z m -3.76563,12.28125 q 0,0.98437 0.67188,1.54687 0.67187,0.5625 2.125,0.5625 1.8125,0 2.73437,-0.95312 0.9375,-0.95313 0.9375,-2.78125 l 0,-1.76563 q -0.40625,0.32813 -1.07812,0.5 -0.65625,0.15625 -2.39063,0.40625 -1.54687,0.20313 -2.28125,0.8125 -0.71875,0.59375 -0.71875,1.67188 z m 21.32813,-12.28125 q 3.375,0 5.20312,1.34375 1.84375,1.32812 2.09375,3.92187 l -4.32812,0 q -0.0937,-1.17187 -0.875,-1.70312 -0.78125,-0.53125 -2.23438,-0.53125 -1.3125,0 -1.92187,0.39062 -0.59375,0.39063 -0.59375,1.14063 0,0.76562 0.78125,1.26562 0.79687,0.48438 3.1875,0.9375 3.8125,0.73438 5.10937,1.89063 1.3125,1.15625 1.3125,3.03125 0,2.8125 -2.0625,4.28125 -2.04687,1.46875 -5.48437,1.46875 -3.4375,0 -5.54688,-1.45313 -2.09375,-1.46875 -2.23437,-4.375 l 4.32812,0 q 0,1.3125 0.98438,2.04688 1,0.73437 2.5,0.73437 1.32812,0 2.15625,-0.5625 0.82812,-0.57812 0.82812,-1.54687 0,-0.85938 -1.07812,-1.40625 -1.07813,-0.54688 -3.95313,-1.14063 -2.84375,-0.5625 -4.10937,-1.60937 -1.26563,-1.04688 -1.26563,-2.82813 0,-2.625 1.85938,-3.95312 1.85937,-1.34375 5.34375,-1.34375 z m 18.04687,0 q 3.67188,0 5.85938,2.53125 2.20312,2.51562 2.20312,6.4375 l -0.0312,0.84375 -11.9375,0 q 0.0937,2.14062 1.10938,3.17187 1.03125,1.03125 2.9375,1.03125 1.23437,0 2.28125,-0.625 1.04687,-0.64062 1.32812,-1.53125 l 4,0 q -0.92187,2.8125 -2.84375,4.20313 -1.92187,1.375 -4.90625,1.375 -3.82812,0 -6.14062,-2.42188 -2.3125,-2.42187 -2.3125,-6.28125 0,-3.70312 2.35937,-6.21875 2.375,-2.51562 6.09375,-2.51562 z m -3.90625,6.9375 7.39063,0 q -0.32813,-1.82813 -1.1875,-2.67188 -0.84375,-0.84375 -2.45313,-0.84375 -1.65625,0 -2.625,0.9375 -0.96875,0.9375 -1.125,2.57813 z m 24.23439,-0.64063 0,3.90625 -9.62501,0 0,-3.90625 9.62501,0 z m 10.5625,-12.15625 q 4.01563,0 6.14063,2.9375 2.125,2.92188 2.125,8.60938 0,5.76562 -2.10938,8.76562 -2.10937,2.98438 -6.15625,2.98438 -4,0 -6.09375,-2.96875 -2.09375,-2.98438 -2.09375,-8.78125 0,-5.65625 2.07813,-8.59375 2.09375,-2.95313 6.10937,-2.95313 z m -3.64062,11.57813 q 0,3.46875 0.46875,5.04687 0.48437,1.5625 1.28125,2.25 0.79687,0.67188 1.89062,0.67188 1.79688,0 2.75,-1.75 0.96875,-1.76563 0.96875,-6.23438 0,-4.29687 -0.96875,-6.0625 -0.95312,-1.76562 -2.76562,-1.76562 -1.71875,0 -2.67188,1.70312 -0.95312,1.70313 -0.95312,6.14063 z m 19.51562,6.34375 0,4.92187 -5.01562,0 0,-4.92187 5.01562,0 z m 16.25,-17.48438 0,13.48438 2.98438,0 0,3.73437 -2.98438,0 0,5.1875 -4.3125,0 0,-5.1875 -9.46875,0 0,-4.15625 9.71875,-13.0625 4.0625,0 z m -4.40625,5.70313 -5.79687,7.78125 5.89062,0 0,-7.78125 -0.0937,0 z" />
</svg>
