<?xml version="1.0" encoding="UTF-8" standalone="no"?>
<svg
   xmlns:dc="http://purl.org/dc/elements/1.1/"
   xmlns:cc="http://creativecommons.org/ns#"
   xmlns:rdf="http://www.w3.org/1999/02/22-rdf-syntax-ns#"
   xmlns:svg="http://www.w3.org/2000/svg"
   xmlns="http://www.w3.org/2000/svg"
   xmlns:sodipodi="http://sodipodi.sourceforge.net/DTD/sodipodi-0.dtd"
   xmlns:inkscape="http://www.inkscape.org/namespaces/inkscape"
   version="1.1"
   viewBox="0.0 0.0 960.0 540.0"
   fill="none"
   stroke="none"
   stroke-linecap="square"
   stroke-miterlimit="10"
   id="svg13255"
   inkscape:version="0.48.4 r9939"
   width="100%"
   height="100%"
   sodipodi:docname="gitflow-release.svg">
  <metadata
     id="metadata13372">
    <rdf:RDF>
      <cc:Work
         rdf:about="">
        <dc:format>image/svg+xml</dc:format>
        <dc:type
           rdf:resource="http://purl.org/dc/dcmitype/StillImage" />
      </cc:Work>
    </rdf:RDF>
  </metadata>
  <defs
     id="defs13370" />
  <sodipodi:namedview
     pagecolor="#ffffff"
     bordercolor="#666666"
     borderopacity="1"
     objecttolerance="10"
     gridtolerance="10"
     guidetolerance="10"
     inkscape:pageopacity="0"
     inkscape:pageshadow="2"
     inkscape:window-width="1598"
     inkscape:window-height="866"
     id="namedview13368"
     showgrid="false"
     inkscape:zoom="0.98567708"
     inkscape:cx="480"
     inkscape:cy="270"
     inkscape:window-x="0"
     inkscape:window-y="32"
     inkscape:window-maximized="0"
     inkscape:current-layer="svg13255" />
  <clipPath
     id="g3593cc936_056.0">
    <path
       d="m0 0l960.0 0l0 540.0l-960.0 0l0 -540.0z"
       clip-rule="nonzero"
       id="path13258" />
  </clipPath>
  <path
     style="fill:#000000;fill-opacity:0;fill-rule:nonzero"
     inkscape:connector-curvature="0"
     id="path13264"
     d="m 46.165356,206.80052 150.740164,0 0,40.66142 -150.740164,0 z" />
  <path
     style="fill:#434343;fill-rule:nonzero"
     inkscape:connector-curvature="0"
     id="path13266"
     d="m 73.02473,223.67677 0,22.84375 -4.328125,0 0,-2.10938 -0.0625,0 q -0.734375,1.26563 -2.03125,1.92188 -1.28125,0.64062 -2.984371,0.64062 -3.390625,0 -5.40625,-2.48437 -2.015625,-2.5 -2.015625,-6.39063 0,-3.6875 1.984375,-6.125 1.984375,-2.4375 5.34375,-2.4375 1.546871,0 2.828121,0.625 1.28125,0.625 2.0625,1.82813 l 0.0625,0 0,-8.3125 4.546875,0 z m -12.296871,14.54687 q 0,2.3125 1.078125,3.82813 1.078125,1.5 2.921871,1.5 1.890625,0 2.890625,-1.39063 1.015625,-1.40625 1.015625,-3.95312 0,-2.42188 -0.984375,-3.82813 -0.984375,-1.42187 -2.9375,-1.42187 -1.890621,0 -2.937496,1.42187 -1.046875,1.40625 -1.046875,3.84375 z m 23.359371,-8.6875 q 3.671875,0 5.859375,2.53125 2.203125,2.51563 2.203125,6.4375 l -0.03125,0.84375 -11.9375,0 q 0.09375,2.14063 1.109375,3.17188 1.03125,1.03125 2.9375,1.03125 1.234375,0 2.28125,-0.625 1.046875,-0.64063 1.328125,-1.53125 l 4,0 q -0.921875,2.8125 -2.84375,4.20312 -1.921875,1.375 -4.90625,1.375 -3.828125,0 -6.140625,-2.42187 -2.3125,-2.42188 -2.3125,-6.28125 0,-3.70313 2.359375,-6.21875 2.375,-2.51563 6.09375,-2.51563 z m -3.90625,6.9375 7.390625,0 q -0.328125,-1.82812 -1.1875,-2.67187 -0.84375,-0.84375 -2.453125,-0.84375 -1.65625,0 -2.625,0.9375 -0.96875,0.9375 -1.125,2.57812 z m 17.828125,-6.5 3.500005,11.29688 0.0625,0 3.48437,-11.29688 4.51563,0 -5.60938,16.54688 -5.046875,0 -5.671875,-16.54688 4.765625,0 z m 21.093755,-0.4375 q 3.67187,0 5.85937,2.53125 2.20313,2.51563 2.20313,6.4375 l -0.0312,0.84375 -11.9375,0 q 0.0937,2.14063 1.10937,3.17188 1.03125,1.03125 2.9375,1.03125 1.23438,0 2.28125,-0.625 1.04688,-0.64063 1.32813,-1.53125 l 4,0 q -0.92188,2.8125 -2.84375,4.20312 -1.92188,1.375 -4.90625,1.375 -3.82813,0 -6.14063,-2.42187 -2.3125,-2.42188 -2.3125,-6.28125 0,-3.70313 2.35938,-6.21875 2.375,-2.51563 6.09375,-2.51563 z m -3.90625,6.9375 7.39062,0 q -0.32812,-1.82812 -1.1875,-2.67187 -0.84375,-0.84375 -2.45312,-0.84375 -1.65625,0 -2.625,0.9375 -0.96875,0.9375 -1.125,2.57812 z m 19.3125,-12.79687 0,22.84375 -4.54687,0 0,-22.84375 4.54687,0 z m 11.60938,5.85937 q 3.89062,0 6.23437,2.40625 2.34375,2.39063 2.34375,6.32813 0,3.95312 -2.375,6.32812 -2.35937,2.375 -6.20312,2.375 -3.84375,0 -6.20313,-2.39062 -2.34375,-2.39063 -2.34375,-6.3125 0,-3.92188 2.3125,-6.32813 2.3125,-2.40625 6.23438,-2.40625 z m -4,8.73438 q 0,2.60937 1.0625,3.95312 1.07812,1.32813 2.9375,1.32813 1.9375,0 2.98437,-1.375 1.04688,-1.39063 1.04688,-3.90625 0,-2.46875 -1.01563,-3.89063 -1.01562,-1.42187 -3.04687,-1.42187 -1.82813,0 -2.90625,1.32812 -1.0625,1.3125 -1.0625,3.98438 z m 24.82812,-8.73438 q 3.51563,0 5.51563,2.46875 2,2.45313 2,6.42188 0,3.67187 -1.96875,6.10937 -1.96875,2.4375 -5.29688,2.4375 -1.51562,0 -2.82812,-0.64062 -1.3125,-0.65625 -2.125,-1.85938 l -0.0781,0 0,7.875 -4.53125,0 0,-22.375 4.3125,0 0,2.10938 0.0625,0 q 0.8125,-1.29688 2.0625,-1.92188 1.26563,-0.625 2.875,-0.625 z m -4.9375,8.76563 q 0,2.375 1.01563,3.8125 1.01562,1.4375 2.95312,1.4375 1.89063,0 2.90625,-1.375 1.03125,-1.375 1.03125,-3.875 0,-2.375 -1.01562,-3.85938 -1.01563,-1.48437 -2.98438,-1.48437 -1.875,0 -2.89062,1.40625 -1.01563,1.40625 -1.01563,3.9375 z" />
  <path
     style="fill:#ffd966;fill-rule:nonzero"
     inkscape:connector-curvature="0"
     id="path13268"
     d="m 258.0761,263.37534 0,0 c 0,-19.03861 15.43384,-34.47244 34.47244,-34.47244 l 0,0 c 9.14267,0 17.91086,3.63189 24.3757,10.09674 6.46485,6.46483 10.09675,15.23303 10.09675,24.3757 l 0,0 c 0,19.0386 -15.43384,34.47244 -34.47245,34.47244 l 0,0 c -19.0386,0 -34.47244,-15.43384 -34.47244,-34.47244 z" />
  <path
     style="stroke:#666666;stroke-width:2;stroke-linecap:butt;stroke-linejoin:round"
     inkscape:connector-curvature="0"
     id="path13270"
     d="m 258.0761,263.37534 0,0 c 0,-19.03861 15.43384,-34.47244 34.47244,-34.47244 l 0,0 c 9.14267,0 17.91086,3.63189 24.3757,10.09674 6.46485,6.46483 10.09675,15.23303 10.09675,24.3757 l 0,0 c 0,19.0386 -15.43384,34.47244 -34.47245,34.47244 l 0,0 c -19.0386,0 -34.47244,-15.43384 -34.47244,-34.47244 z" />
  <path
     style="fill:#c27ba0;fill-rule:nonzero"
     inkscape:connector-curvature="0"
     id="path13272"
     d="m 46.165356,432.27298 0,0 c 0,-19.03861 15.433834,-34.47244 34.47244,-34.47244 l 0,0 c 9.142662,0 17.910858,3.63189 24.375694,10.09674 6.46484,6.46481 10.09675,15.23303 10.09675,24.3757 l 0,0 c 0,19.03857 -15.43384,34.47241 -34.472445,34.47241 l 0,0 c -19.038605,0 -34.47244,-15.43384 -34.47244,-34.47241 z" />
  <path
     style="stroke:#666666;stroke-width:2;stroke-linecap:butt;stroke-linejoin:round"
     inkscape:connector-curvature="0"
     id="path13274"
     d="m 46.165356,432.27298 0,0 c 0,-19.03861 15.433834,-34.47244 34.47244,-34.47244 l 0,0 c 9.142662,0 17.910858,3.63189 24.375694,10.09674 6.46484,6.46481 10.09675,15.23303 10.09675,24.3757 l 0,0 c 0,19.03857 -15.43384,34.47241 -34.472445,34.47241 l 0,0 c -19.038605,0 -34.47244,-15.43384 -34.47244,-34.47241 z" />
  <path
     style="fill:#c27ba0;fill-rule:nonzero"
     inkscape:connector-curvature="0"
     id="path13276"
     d="m 175.29134,432.27298 0,0 c 0,-19.03861 15.43384,-34.47244 34.47244,-34.47244 l 0,0 c 9.14266,0 17.91086,3.63189 24.3757,10.09674 6.46483,6.46481 10.09675,15.23303 10.09675,24.3757 l 0,0 c 0,19.03857 -15.43384,34.47241 -34.47245,34.47241 l 0,0 c -19.0386,0 -34.47244,-15.43384 -34.47244,-34.47241 z" />
  <path
     style="stroke:#666666;stroke-width:2;stroke-linecap:butt;stroke-linejoin:round"
     inkscape:connector-curvature="0"
     id="path13278"
     d="m 175.29134,432.27298 0,0 c 0,-19.03861 15.43384,-34.47244 34.47244,-34.47244 l 0,0 c 9.14266,0 17.91086,3.63189 24.3757,10.09674 6.46483,6.46481 10.09675,15.23303 10.09675,24.3757 l 0,0 c 0,19.03857 -15.43384,34.47241 -34.47245,34.47241 l 0,0 c -19.0386,0 -34.47244,-15.43384 -34.47244,-34.47241 z" />
  <path
     style="fill:#000000;fill-opacity:0;fill-rule:nonzero"
     inkscape:connector-curvature="0"
     id="path13280"
     d="m -0.00787185,432.27298 46.17322985,0" />
  <path
     style="stroke:#666666;stroke-width:2;stroke-linecap:butt;stroke-linejoin:round"
     inkscape:connector-curvature="0"
     id="path13282"
     d="m -0.00787185,432.27298 34.17322985,0" />
  <path
     style="fill:#666666;fill-rule:evenodd;stroke:#666666;stroke-width:2;stroke-linecap:butt"
     inkscape:connector-curvature="0"
     id="path13284"
     d="m 34.165356,435.57642 9.076195,-3.30344 -9.076195,-3.30346 z" />
  <path
     style="fill:#000000;fill-opacity:0;fill-rule:nonzero"
     inkscape:connector-curvature="0"
     id="path13286"
     d="m 115.11024,432.27298 60.18897,0" />
  <path
     style="stroke:#666666;stroke-width:2;stroke-linecap:butt;stroke-linejoin:round"
     inkscape:connector-curvature="0"
     id="path13288"
     d="m 115.11024,432.27298 48.18897,0" />
  <path
     style="fill:#666666;fill-rule:evenodd;stroke:#666666;stroke-width:2;stroke-linecap:butt"
     inkscape:connector-curvature="0"
     id="path13290"
     d="m 163.29921,435.57642 9.0762,-3.30344 -9.0762,-3.30346 z" />
  <path
     style="fill:#000000;fill-opacity:0;fill-rule:nonzero"
     inkscape:connector-curvature="0"
     id="path13292"
     d="m 209.76378,397.80054 58.40907,-110.0495" />
  <path
     style="stroke:#666666;stroke-width:2;stroke-linecap:butt;stroke-linejoin:round"
     inkscape:connector-curvature="0"
     id="path13294"
     d="m 209.76378,397.80054 52.78331,-99.44995" />
  <path
     style="fill:#666666;fill-rule:evenodd;stroke:#666666;stroke-width:2;stroke-linecap:butt"
     inkscape:connector-curvature="0"
     id="path13296"
     d="m 265.46506,299.8993 1.3371,-9.56567 -7.17301,6.46826 z" />
  <path
     style="fill:#000000;fill-opacity:0;fill-rule:nonzero"
     inkscape:connector-curvature="0"
     id="path13298"
     d="m 258.0761,263.37534 -258.07874,0" />
  <path
     style="stroke:#666666;stroke-width:2;stroke-linecap:butt;stroke-linejoin:round"
     inkscape:connector-curvature="0"
     id="path13300"
     d="m 246.07611,263.37534 -246.07874,0" />
  <path
     style="fill:#666666;fill-rule:evenodd;stroke:#666666;stroke-width:2;stroke-linecap:butt"
     inkscape:connector-curvature="0"
     id="path13302"
     d="m 246.07611,266.6788 9.0762,-3.30347 -9.0762,-3.30346 z" />
  <path
     style="fill:#93c47d;fill-rule:nonzero"
     inkscape:connector-curvature="0"
     id="path13304"
     d="m 366.79266,123.82677 0,0 c 0,-19.0386 15.43384,-34.472438 34.47244,-34.472438 l 0,0 c 9.14264,0 17.91086,3.631905 24.37567,10.096741 6.46485,6.464837 10.09675,15.233037 10.09675,24.375697 l 0,0 c 0,19.0386 -15.43384,34.47244 -34.47242,34.47244 l 0,0 c -19.0386,0 -34.47244,-15.43384 -34.47244,-34.47244 z" />
  <path
     style="stroke:#666666;stroke-width:2;stroke-linecap:butt;stroke-linejoin:round"
     inkscape:connector-curvature="0"
     id="path13306"
     d="m 366.79266,123.82677 0,0 c 0,-19.0386 15.43384,-34.472438 34.47244,-34.472438 l 0,0 c 9.14264,0 17.91086,3.631905 24.37567,10.096741 6.46485,6.464837 10.09675,15.233037 10.09675,24.375697 l 0,0 c 0,19.0386 -15.43384,34.47244 -34.47242,34.47244 l 0,0 c -19.0386,0 -34.47244,-15.43384 -34.47244,-34.47244 z" />
  <path
     style="fill:#000000;fill-opacity:0;fill-rule:nonzero"
     inkscape:connector-curvature="0"
     id="path13308"
     d="m 316.92426,238.99963 59.96515,-90.79717" />
  <path
     style="stroke:#666666;stroke-width:2;stroke-linecap:butt;stroke-linejoin:round"
     inkscape:connector-curvature="0"
     id="path13310"
     d="M 316.92426,238.99963 370.27628,158.2158" />
  <path
     style="fill:#666666;fill-rule:evenodd;stroke:#666666;stroke-width:2;stroke-linecap:butt"
     inkscape:connector-curvature="0"
     id="path13312"
     d="m 373.03284,160.03632 2.24527,-9.39409 -7.75836,5.75307 z" />
  <path
     style="fill:#000000;fill-opacity:0;fill-rule:nonzero"
     inkscape:connector-curvature="0"
     id="path13314"
     d="m 83.96063,48.692913 292.9449,0 0,40.66142 -292.9449,0 z" />
  <path
     style="fill:#434343;fill-rule:nonzero"
     inkscape:connector-curvature="0"
     id="path13316"
     d="m 210.37427,71.42854 q 0.29687,0 0.54687,0.04687 0.25,0.03125 0.46875,0.109375 l 0,4.21875 q -0.39062,-0.07813 -0.76562,-0.109375 -0.35938,-0.04687 -0.85938,-0.04687 -2.29687,0 -3.40625,1.40625 -1.09375,1.40625 -1.09375,3.765625 l 0,7.59375 -4.53125,0 0,-16.546875 4.3125,0 0,3.078125 0.0625,0 q 0.71875,-1.625 2.14063,-2.5625 1.4375,-0.953125 3.125,-0.953125 z m 10.45312,0 q 3.67188,0 5.85938,2.53125 2.20312,2.515625 2.20312,6.4375 l -0.0312,0.84375 -11.9375,0 q 0.0937,2.140625 1.10938,3.171875 1.03125,1.03125 2.9375,1.03125 1.23437,0 2.28125,-0.625 1.04687,-0.640625 1.32812,-1.53125 l 4,0 q -0.92187,2.8125 -2.84375,4.203125 -1.92187,1.375 -4.90625,1.375 -3.82812,0 -6.14062,-2.421875 -2.3125,-2.421875 -2.3125,-6.28125 0,-3.703125 2.35937,-6.21875 2.375,-2.515625 6.09375,-2.515625 z m -3.90625,6.9375 7.39063,0 q -0.32813,-1.828125 -1.1875,-2.671875 -0.84375,-0.84375 -2.45313,-0.84375 -1.65625,0 -2.625,0.9375 -0.96875,0.9375 -1.125,2.578125 z m 19.3125,-12.796875 0,22.84375 -4.54687,0 0,-22.84375 4.54687,0 z m 11.21875,5.859375 q 3.67188,0 5.85938,2.53125 2.20312,2.515625 2.20312,6.4375 l -0.0312,0.84375 -11.9375,0 q 0.0937,2.140625 1.10938,3.171875 1.03125,1.03125 2.9375,1.03125 1.23437,0 2.28125,-0.625 1.04687,-0.640625 1.32812,-1.53125 l 4,0 q -0.92187,2.8125 -2.84375,4.203125 -1.92187,1.375 -4.90625,1.375 -3.82812,0 -6.14062,-2.421875 -2.3125,-2.421875 -2.3125,-6.28125 0,-3.703125 2.35937,-6.21875 2.375,-2.515625 6.09375,-2.515625 z m -3.90625,6.9375 7.39063,0 q -0.32813,-1.828125 -1.1875,-2.671875 -0.84375,-0.84375 -2.45313,-0.84375 -1.65625,0 -2.625,0.9375 -0.96875,0.9375 -1.125,2.578125 z m 22.23438,-6.9375 q 3.67188,0 5.45313,1.203125 1.79687,1.203125 1.79687,3.390625 l 0,8.875 q 0,1 0.125,2 0.14063,1 0.45313,1.515625 l -4.60938,0 q -0.125,-0.375 -0.21875,-0.765625 -0.0781,-0.40625 -0.10937,-0.8125 -0.95313,0.984375 -2.375,1.515625 -1.40625,0.515625 -3.1875,0.515625 -2.5625,0 -4.09375,-1.28125 -1.53125,-1.296875 -1.53125,-3.6875 0,-2.3125 1.4375,-3.53125 1.4375,-1.234375 5.23437,-1.65625 2.64063,-0.25 3.48438,-0.640625 0.84375,-0.40625 0.84375,-1.390625 0,-1.109375 -0.65625,-1.65625 -0.64063,-0.5625 -2.26563,-0.5625 -1.40625,0 -2.15625,0.609375 -0.75,0.59375 -0.875,1.890625 l -4.54687,0 q 0.1875,-2.71875 2.23437,-4.125 2.0625,-1.40625 5.5625,-1.40625 z m -3.76562,12.28125 q 0,0.984375 0.67187,1.546875 0.67188,0.5625 2.125,0.5625 1.8125,0 2.73438,-0.953125 0.9375,-0.953125 0.9375,-2.78125 l 0,-1.765625 q -0.40625,0.328125 -1.07813,0.5 -0.65625,0.15625 -2.39062,0.40625 -1.54688,0.203125 -2.28125,0.8125 -0.71875,0.59375 -0.71875,1.671875 z m 21.32812,-12.28125 q 3.375,0 5.20313,1.34375 1.84375,1.328125 2.09375,3.921875 l -4.32813,0 q -0.0937,-1.171875 -0.875,-1.703125 -0.78125,-0.53125 -2.23437,-0.53125 -1.3125,0 -1.92188,0.390625 -0.59375,0.390625 -0.59375,1.140625 0,0.765625 0.78125,1.265625 0.79688,0.484375 3.1875,0.9375 3.8125,0.734375 5.10938,1.890625 1.3125,1.15625 1.3125,3.03125 0,2.8125 -2.0625,4.28125 -2.04688,1.46875 -5.48438,1.46875 -3.4375,0 -5.54687,-1.453125 -2.09375,-1.46875 -2.23438,-4.375 l 4.32813,0 q 0,1.3125 0.98437,2.046875 1,0.734375 2.5,0.734375 1.32813,0 2.15625,-0.5625 0.82813,-0.578125 0.82813,-1.546875 0,-0.859375 -1.07813,-1.40625 -1.07812,-0.546875 -3.95312,-1.140625 -2.84375,-0.5625 -4.10938,-1.609375 -1.26562,-1.046875 -1.26562,-2.828125 0,-2.625 1.85937,-3.953125 1.85938,-1.34375 5.34375,-1.34375 z m 18.04688,0 q 3.67187,0 5.85937,2.53125 2.20313,2.515625 2.20313,6.4375 l -0.0312,0.84375 -11.9375,0 q 0.0937,2.140625 1.10937,3.171875 1.03125,1.03125 2.9375,1.03125 1.23438,0 2.28125,-0.625 1.04688,-0.640625 1.32813,-1.53125 l 4,0 q -0.92188,2.8125 -2.84375,4.203125 -1.92188,1.375 -4.90625,1.375 -3.82813,0 -6.14063,-2.421875 -2.3125,-2.421875 -2.3125,-6.28125 0,-3.703125 2.35938,-6.21875 2.375,-2.515625 6.09375,-2.515625 z m -3.90625,6.9375 7.39062,0 q -0.32812,-1.828125 -1.1875,-2.671875 -0.84375,-0.84375 -2.45312,-0.84375 -1.65625,0 -2.625,0.9375 -0.96875,0.9375 -1.125,2.578125 z m 24.23437,-0.640625 0,3.90625 -9.625,0 0,-3.90625 9.625,0 z m 10.5625,-12.15625 q 4.01563,0 6.14063,2.9375 2.125,2.921875 2.125,8.609375 0,5.765625 -2.10938,8.765625 -2.10937,2.984375 -6.15625,2.984375 -4,0 -6.09375,-2.96875 -2.09375,-2.984375 -2.09375,-8.78125 0,-5.65625 2.07813,-8.59375 2.09375,-2.953125 6.10937,-2.953125 z M 328.6399,77.14729 q 0,3.46875 0.46875,5.046875 0.48437,1.5625 1.28125,2.25 0.79687,0.671875 1.89062,0.671875 1.79688,0 2.75,-1.75 0.96875,-1.765625 0.96875,-6.234375 0,-4.296875 -0.96875,-6.0625 -0.95312,-1.765625 -2.76562,-1.765625 -1.71875,0 -2.67188,1.703125 -0.95312,1.703125 -0.95312,6.140625 z m 19.51562,6.34375 0,4.921875 -5.01562,0 0,-4.921875 5.01562,0 z m 16.25,-17.484375 0,13.484375 2.98438,0 0,3.734375 -2.98438,0 0,5.1875 -4.3125,0 0,-5.1875 -9.46875,0 0,-4.15625 9.71875,-13.0625 4.0625,0 z m -4.40625,5.703125 -5.79687,7.78125 5.89062,0 0,-7.78125 -0.0937,0 z" />
  <path
     style="fill:#000000;fill-opacity:0;fill-rule:nonzero"
     inkscape:connector-curvature="0"
     id="path13318"
     d="m 435.73752,123.82677 60.18899,0" />
  <path
     style="stroke:#666666;stroke-width:2;stroke-linecap:butt;stroke-linejoin:round"
     inkscape:connector-curvature="0"
     id="path13320"
     d="m 435.73752,123.82677 48.18899,0" />
  <path
     style="fill:#666666;fill-rule:evenodd;stroke:#666666;stroke-width:2;stroke-linecap:butt"
     inkscape:connector-curvature="0"
     id="path13322"
     d="m 483.9265,127.13023 9.0762,-3.30346 -9.0762,-3.30347 z" />
  <path
     style="fill:#93c47d;fill-rule:nonzero"
     inkscape:connector-curvature="0"
     id="path13324"
     d="m 495.9265,123.82677 0,0 c 0,-19.0386 15.43384,-34.472438 34.47241,-34.472438 l 0,0 c 9.1427,0 17.91089,3.631905 24.37573,10.096741 6.46485,6.464837 10.09674,15.233037 10.09674,24.375697 l 0,0 c 0,19.0386 -15.43383,34.47244 -34.47247,34.47244 l 0,0 c -19.03857,0 -34.47241,-15.43384 -34.47241,-34.47244 z" />
  <path
     style="stroke:#666666;stroke-width:2;stroke-linecap:butt;stroke-linejoin:round"
     inkscape:connector-curvature="0"
     id="path13326"
     d="m 495.9265,123.82677 0,0 c 0,-19.0386 15.43384,-34.472438 34.47241,-34.472438 l 0,0 c 9.1427,0 17.91089,3.631905 24.37573,10.096741 6.46485,6.464837 10.09674,15.233037 10.09674,24.375697 l 0,0 c 0,19.0386 -15.43383,34.47244 -34.47247,34.47244 l 0,0 c -19.03857,0 -34.47241,-15.43384 -34.47241,-34.47244 z" />
  <path
     style="fill:#93c47d;fill-rule:nonzero"
     inkscape:connector-curvature="0"
     id="path13328"
     d="m 625.06036,123.82677 0,0 c 0,-19.0386 15.43384,-34.472438 34.47247,-34.472438 l 0,0 c 9.14264,0 17.91083,3.631905 24.37567,10.096741 6.46485,6.464837 10.09674,15.233037 10.09674,24.375697 l 0,0 c 0,19.0386 -15.43383,34.47244 -34.47241,34.47244 l 0,0 c -19.03863,0 -34.47247,-15.43384 -34.47247,-34.47244 z" />
  <path
     style="stroke:#666666;stroke-width:2;stroke-linecap:butt;stroke-linejoin:round"
     inkscape:connector-curvature="0"
     id="path13330"
     d="m 625.06036,123.82677 0,0 c 0,-19.0386 15.43384,-34.472438 34.47247,-34.472438 l 0,0 c 9.14264,0 17.91083,3.631905 24.37567,10.096741 6.46485,6.464837 10.09674,15.233037 10.09674,24.375697 l 0,0 c 0,19.0386 -15.43383,34.47244 -34.47241,34.47244 l 0,0 c -19.03863,0 -34.47247,-15.43384 -34.47247,-34.47244 z" />
  <path
     style="fill:#000000;fill-opacity:0;fill-rule:nonzero"
     inkscape:connector-curvature="0"
     id="path13332"
     d="m 564.8714,123.82677 60.18897,0" />
  <path
     style="stroke:#666666;stroke-width:2;stroke-linecap:butt;stroke-linejoin:round"
     inkscape:connector-curvature="0"
     id="path13334"
     d="m 564.8714,123.82677 48.18897,0" />
  <path
     style="fill:#666666;fill-rule:evenodd;stroke:#666666;stroke-width:2;stroke-linecap:butt"
     inkscape:connector-curvature="0"
     id="path13336"
     d="m 613.06036,127.13023 9.07617,-3.30346 -9.07617,-3.30347 z" />
  <path
     style="fill:#ffd966;fill-rule:nonzero"
     inkscape:connector-curvature="0"
     id="path13338"
     d="m 414.60104,263.37534 0,0 c 0,-19.03861 15.43384,-34.47244 34.47244,-34.47244 l 0,0 c 9.14267,0 17.91086,3.63189 24.3757,10.09674 6.46485,6.46483 10.09675,15.23303 10.09675,24.3757 l 0,0 c 0,19.0386 -15.43384,34.47244 -34.47245,34.47244 l 0,0 c -19.0386,0 -34.47244,-15.43384 -34.47244,-34.47244 z" />
  <path
     style="stroke:#666666;stroke-width:2;stroke-linecap:butt;stroke-linejoin:round"
     inkscape:connector-curvature="0"
     id="path13340"
     d="m 414.60104,263.37534 0,0 c 0,-19.03861 15.43384,-34.47244 34.47244,-34.47244 l 0,0 c 9.14267,0 17.91086,3.63189 24.3757,10.09674 6.46485,6.46483 10.09675,15.23303 10.09675,24.3757 l 0,0 c 0,19.0386 -15.43384,34.47244 -34.47245,34.47244 l 0,0 c -19.0386,0 -34.47244,-15.43384 -34.47244,-34.47244 z" />
  <path
     style="fill:#000000;fill-opacity:0;fill-rule:nonzero"
     inkscape:connector-curvature="0"
     id="path13342"
     d="m 327.0105,263.37534 87.59055,0" />
  <path
     style="stroke:#666666;stroke-width:2;stroke-linecap:butt;stroke-linejoin:round"
     inkscape:connector-curvature="0"
     id="path13344"
     d="m 327.0105,263.37534 75.59055,0" />
  <path
     style="fill:#666666;fill-rule:evenodd;stroke:#666666;stroke-width:2;stroke-linecap:butt"
     inkscape:connector-curvature="0"
     id="path13346"
     d="m 402.60104,266.6788 9.0762,-3.30347 -9.0762,-3.30346 z" />
  <path
     style="fill:#ffd966;fill-rule:nonzero"
     inkscape:connector-curvature="0"
     id="path13348"
     d="m 765.5617,263.37534 0,0 c 0,-19.03861 15.43384,-34.47244 34.47241,-34.47244 l 0,0 c 9.14264,0 17.91089,3.63189 24.37567,10.09674 6.46485,6.46483 10.09674,15.23303 10.09674,24.3757 l 0,0 c 0,19.0386 -15.43383,34.47244 -34.47241,34.47244 l 0,0 c -19.03857,0 -34.47241,-15.43384 -34.47241,-34.47244 z" />
  <path
     style="stroke:#666666;stroke-width:2;stroke-linecap:butt;stroke-linejoin:round"
     inkscape:connector-curvature="0"
     id="path13350"
     d="m 765.5617,263.37534 0,0 c 0,-19.03861 15.43384,-34.47244 34.47241,-34.47244 l 0,0 c 9.14264,0 17.91089,3.63189 24.37567,10.09674 6.46485,6.46483 10.09674,15.23303 10.09674,24.3757 l 0,0 c 0,19.0386 -15.43383,34.47244 -34.47241,34.47244 l 0,0 c -19.03857,0 -34.47241,-15.43384 -34.47241,-34.47244 z" />
  <path
     style="fill:#000000;fill-opacity:0;fill-rule:nonzero"
     inkscape:connector-curvature="0"
     id="path13352"
     d="m 483.54593,263.37534 282.01578,0" />
  <path
     style="stroke:#666666;stroke-width:2;stroke-linecap:butt;stroke-linejoin:round"
     inkscape:connector-curvature="0"
     id="path13354"
     d="m 483.54593,263.37534 270.01578,0" />
  <path
     style="fill:#666666;fill-rule:evenodd;stroke:#666666;stroke-width:2;stroke-linecap:butt"
     inkscape:connector-curvature="0"
     id="path13356"
     d="m 753.5617,266.6788 9.07617,-3.30347 -9.07617,-3.30346 z" />
  <path
     style="fill:#000000;fill-opacity:0;fill-rule:nonzero"
     inkscape:connector-curvature="0"
     id="path13358"
     d="m 834.50653,263.37534 126.17328,0" />
  <path
     style="stroke:#666666;stroke-width:2;stroke-linecap:butt;stroke-linejoin:round"
     inkscape:connector-curvature="0"
     id="path13360"
     d="m 834.50653,263.37534 126.17328,0" />
  <path
     style="fill:#000000;fill-opacity:0;fill-rule:nonzero"
     inkscape:connector-curvature="0"
     id="path13362"
     d="m 683.9104,148.19647 91.74805,90.80316" />
  <path
     style="stroke:#666666;stroke-width:2;stroke-linecap:butt;stroke-linejoin:round"
     inkscape:connector-curvature="0"
     id="path13364"
     d="m 683.9104,148.19649 83.21893,82.36189" />
  <path
     style="fill:#666666;fill-rule:evenodd;stroke:#666666;stroke-width:2;stroke-linecap:butt"
     inkscape:connector-curvature="0"
     id="path13366"
     d="m 764.8056,232.90634 8.77472,4.03658 -4.12714,-8.7325 z" />
</svg>
