<?xml version="1.0" encoding="UTF-8" standalone="no"?>
<svg
   xmlns:dc="http://purl.org/dc/elements/1.1/"
   xmlns:cc="http://creativecommons.org/ns#"
   xmlns:rdf="http://www.w3.org/1999/02/22-rdf-syntax-ns#"
   xmlns:svg="http://www.w3.org/2000/svg"
   xmlns="http://www.w3.org/2000/svg"
   xmlns:sodipodi="http://sodipodi.sourceforge.net/DTD/sodipodi-0.dtd"
   xmlns:inkscape="http://www.inkscape.org/namespaces/inkscape"
   version="1.1"
   viewBox="0.0 0.0 960.0 540.0"
   fill="none"
   stroke="none"
   stroke-linecap="square"
   stroke-miterlimit="10"
   id="svg12984"
   inkscape:version="0.48.4 r9939"
   width="100%"
   height="100%"
   sodipodi:docname="gitflow-develop.svg">
  <metadata
     id="metadata13075">
    <rdf:RDF>
      <cc:Work
         rdf:about="">
        <dc:format>image/svg+xml</dc:format>
        <dc:type
           rdf:resource="http://purl.org/dc/dcmitype/StillImage" />
      </cc:Work>
    </rdf:RDF>
  </metadata>
  <defs
     id="defs13073" />
  <sodipodi:namedview
     pagecolor="#ffffff"
     bordercolor="#666666"
     borderopacity="1"
     objecttolerance="10"
     gridtolerance="10"
     guidetolerance="10"
     inkscape:pageopacity="0"
     inkscape:pageshadow="2"
     inkscape:window-width="1598"
     inkscape:window-height="866"
     id="namedview13071"
     showgrid="false"
     inkscape:zoom="0.98567708"
     inkscape:cx="480"
     inkscape:cy="270"
     inkscape:window-x="0"
     inkscape:window-y="32"
     inkscape:window-maximized="0"
     inkscape:current-layer="svg12984" />
  <clipPath
     id="g3593cc936_025.0">
    <path
       d="m0 0l960.0 0l0 540.0l-960.0 0l0 -540.0z"
       clip-rule="nonzero"
       id="path12987" />
  </clipPath>
  <path
     style="fill:#ffd966;fill-rule:nonzero"
     inkscape:connector-curvature="0"
     id="path12993"
     d="m 221.83464,179.4147 0,0 c 0,-19.0386 15.43384,-34.47244 34.47246,-34.47244 l 0,0 c 9.14264,0 17.91086,3.63189 24.37567,10.09674 6.46484,6.46484 10.09677,15.23303 10.09677,24.3757 l 0,0 c 0,19.03859 -15.43384,34.47243 -34.47244,34.47243 l 0,0 c -19.03862,0 -34.47246,-15.43384 -34.47246,-34.47243 z" />
  <path
     style="stroke:#666666;stroke-width:2;stroke-linecap:butt;stroke-linejoin:round"
     inkscape:connector-curvature="0"
     id="path12995"
     d="m 221.83464,179.4147 0,0 c 0,-19.0386 15.43384,-34.47244 34.47246,-34.47244 l 0,0 c 9.14264,0 17.91086,3.63189 24.37567,10.09674 6.46484,6.46484 10.09677,15.23303 10.09677,24.3757 l 0,0 c 0,19.03859 -15.43384,34.47243 -34.47244,34.47243 l 0,0 c -19.03862,0 -34.47246,-15.43384 -34.47246,-34.47243 z" />
  <path
     style="fill:#ffd966;fill-rule:nonzero"
     inkscape:connector-curvature="0"
     id="path12997"
     d="m 363.25198,179.4147 0,0 c 0,-19.0386 15.43381,-34.47244 34.47241,-34.47244 l 0,0 c 9.14267,0 17.91086,3.63189 24.3757,10.09674 6.46485,6.46484 10.09675,15.23303 10.09675,24.3757 l 0,0 c 0,19.03859 -15.43384,34.47243 -34.47245,34.47243 l 0,0 c -19.0386,0 -34.47241,-15.43384 -34.47241,-34.47243 z" />
  <path
     style="stroke:#666666;stroke-width:2;stroke-linecap:butt;stroke-linejoin:round"
     inkscape:connector-curvature="0"
     id="path12999"
     d="m 363.25198,179.4147 0,0 c 0,-19.0386 15.43381,-34.47244 34.47241,-34.47244 l 0,0 c 9.14267,0 17.91086,3.63189 24.3757,10.09674 6.46485,6.46484 10.09675,15.23303 10.09675,24.3757 l 0,0 c 0,19.03859 -15.43384,34.47243 -34.47245,34.47243 l 0,0 c -19.0386,0 -34.47241,-15.43384 -34.47241,-34.47243 z" />
  <path
     style="fill:#000000;fill-opacity:0;fill-rule:nonzero"
     inkscape:connector-curvature="0"
     id="path13001"
     d="m 290.77954,179.4147 72.47244,0" />
  <path
     style="stroke:#666666;stroke-width:2;stroke-linecap:butt;stroke-linejoin:round"
     inkscape:connector-curvature="0"
     id="path13003"
     d="m 290.77954,179.4147 60.47244,0" />
  <path
     style="fill:#666666;fill-rule:evenodd;stroke:#666666;stroke-width:2;stroke-linecap:butt"
     inkscape:connector-curvature="0"
     id="path13005"
     d="m 351.25198,182.71817 9.07617,-3.30347 -9.07617,-3.30346 z" />
  <path
     style="fill:#000000;fill-opacity:0;fill-rule:nonzero"
     inkscape:connector-curvature="0"
     id="path13007"
     d="m 221.83464,179.4147 -221.82677,0" />
  <path
     style="stroke:#666666;stroke-width:2;stroke-linecap:butt;stroke-linejoin:round"
     inkscape:connector-curvature="0"
     id="path13009"
     d="m 209.83464,179.4147 -209.82677,0" />
  <path
     style="fill:#666666;fill-rule:evenodd;stroke:#666666;stroke-width:2;stroke-linecap:butt"
     inkscape:connector-curvature="0"
     id="path13011"
     d="m 209.83464,182.71817 9.0762,-3.30347 -9.0762,-3.30346 z" />
  <path
     style="fill:#000000;fill-opacity:0;fill-rule:nonzero"
     inkscape:connector-curvature="0"
     id="path13013"
     d="m 28.68504,104.28084 150.74016,0 0,40.66142 -150.74016,0 z" />
  <path
     style="fill:#434343;fill-rule:nonzero"
     inkscape:connector-curvature="0"
     id="path13015"
     d="m 55.544415,121.15709 0,22.84375 -4.328125,0 0,-2.10938 -0.0625,0 q -0.734375,1.26563 -2.03125,1.92188 -1.28125,0.64062 -2.984375,0.64062 -3.390625,0 -5.40625,-2.48437 -2.015625,-2.5 -2.015625,-6.39063 0,-3.6875 1.984375,-6.125 1.984375,-2.4375 5.34375,-2.4375 1.546875,0 2.828125,0.625 1.28125,0.625 2.0625,1.82813 l 0.0625,0 0,-8.3125 4.546875,0 z M 43.24754,135.70396 q 0,2.3125 1.078125,3.82813 1.078125,1.5 2.921875,1.5 1.890625,0 2.890625,-1.39063 1.015625,-1.40625 1.015625,-3.95312 0,-2.42188 -0.984375,-3.82813 -0.984375,-1.42187 -2.9375,-1.42187 -1.890625,0 -2.9375,1.42187 -1.046875,1.40625 -1.046875,3.84375 z m 23.359371,-8.6875 q 3.671875,0 5.859375,2.53125 2.203125,2.51563 2.203125,6.4375 l -0.03125,0.84375 -11.937496,0 q 0.09375,2.14063 1.109375,3.17188 1.031246,1.03125 2.937496,1.03125 1.234375,0 2.28125,-0.625 1.046875,-0.64063 1.328125,-1.53125 l 4,0 q -0.921875,2.8125 -2.84375,4.20312 -1.921875,1.375 -4.90625,1.375 -3.828121,0 -6.140621,-2.42187 -2.3125,-2.42188 -2.3125,-6.28125 0,-3.70313 2.359375,-6.21875 2.375,-2.51563 6.093746,-2.51563 z m -3.906246,6.9375 7.390621,0 q -0.328125,-1.82812 -1.1875,-2.67187 -0.84375,-0.84375 -2.453125,-0.84375 -1.65625,0 -2.624996,0.9375 -0.96875,0.9375 -1.125,2.57812 z m 17.828121,-6.5 3.5,11.29688 0.0625,0 3.484375,-11.29688 4.515625,0 -5.609375,16.54688 -5.046875,0 -5.671875,-16.54688 4.765625,0 z m 21.093754,-0.4375 q 3.67187,0 5.85937,2.53125 2.20313,2.51563 2.20313,6.4375 l -0.0312,0.84375 -11.937504,0 q 0.09375,2.14063 1.109375,3.17188 1.03125,1.03125 2.937499,1.03125 1.23438,0 2.28125,-0.625 1.04688,-0.64063 1.32813,-1.53125 l 4,0 q -0.92188,2.8125 -2.84375,4.20312 -1.92188,1.375 -4.90625,1.375 -3.828129,0 -6.140629,-2.42187 -2.3125,-2.42188 -2.3125,-6.28125 0,-3.70313 2.359375,-6.21875 2.375,-2.51563 6.093754,-2.51563 z m -3.906254,6.9375 7.390624,0 q -0.32812,-1.82812 -1.1875,-2.67187 -0.84375,-0.84375 -2.45312,-0.84375 -1.656254,0 -2.625004,0.9375 -0.96875,0.9375 -1.125,2.57812 z m 19.312504,-12.79687 0,22.84375 -4.54688,0 0,-22.84375 4.54688,0 z m 11.60938,5.85937 q 3.89062,0 6.23437,2.40625 2.34375,2.39063 2.34375,6.32813 0,3.95312 -2.375,6.32812 -2.35937,2.375 -6.20312,2.375 -3.84376,0 -6.20313,-2.39062 -2.34375,-2.39063 -2.34375,-6.3125 0,-3.92188 2.3125,-6.32813 2.3125,-2.40625 6.23438,-2.40625 z m -4.00001,8.73438 q 0,2.60937 1.0625,3.95312 1.07813,1.32813 2.93751,1.32813 1.9375,0 2.98437,-1.375 1.04688,-1.39063 1.04688,-3.90625 0,-2.46875 -1.01563,-3.89063 -1.01562,-1.42187 -3.04687,-1.42187 -1.82813,0 -2.90626,1.32812 -1.0625,1.3125 -1.0625,3.98438 z m 24.82813,-8.73438 q 3.51563,0 5.51563,2.46875 2,2.45313 2,6.42188 0,3.67187 -1.96875,6.10937 -1.96875,2.4375 -5.29688,2.4375 -1.51562,0 -2.82812,-0.64062 -1.3125,-0.65625 -2.125,-1.85938 l -0.0781,0 0,7.875 -4.53125,0 0,-22.375 4.3125,0 0,2.10938 0.0625,0 q 0.8125,-1.29688 2.0625,-1.92188 1.26563,-0.625 2.875,-0.625 z m -4.9375,8.76563 q 0,2.375 1.01563,3.8125 1.01562,1.4375 2.95312,1.4375 1.89063,0 2.90625,-1.375 1.03125,-1.375 1.03125,-3.875 0,-2.375 -1.01562,-3.85938 -1.01563,-1.48437 -2.98438,-1.48437 -1.875,0 -2.89062,1.40625 -1.01563,1.40625 -1.01563,3.9375 z" />
  <path
     style="fill:#ffd966;fill-rule:nonzero"
     inkscape:connector-curvature="0"
     id="path13017"
     d="m 830.7769,179.4147 0,0 c 0,-19.0386 15.43384,-34.47244 34.47241,-34.47244 l 0,0 c 9.1427,0 17.91089,3.63189 24.37573,10.09674 6.46485,6.46484 10.09674,15.23303 10.09674,24.3757 l 0,0 c 0,19.03859 -15.43383,34.47243 -34.47247,34.47243 l 0,0 c -19.03857,0 -34.47241,-15.43384 -34.47241,-34.47243 z" />
  <path
     style="stroke:#666666;stroke-width:2;stroke-linecap:butt;stroke-linejoin:round"
     inkscape:connector-curvature="0"
     id="path13019"
     d="m 830.7769,179.4147 0,0 c 0,-19.0386 15.43384,-34.47244 34.47241,-34.47244 l 0,0 c 9.1427,0 17.91089,3.63189 24.37573,10.09674 6.46485,6.46484 10.09674,15.23303 10.09674,24.3757 l 0,0 c 0,19.03859 -15.43383,34.47243 -34.47247,34.47243 l 0,0 c -19.03857,0 -34.47241,-15.43384 -34.47241,-34.47243 z" />
  <path
     style="fill:#c27ba0;fill-rule:nonzero"
     inkscape:connector-curvature="0"
     id="path13021"
     d="m 478.24933,342.12598 0,0 c 0,-19.03861 15.43384,-34.47244 34.47247,-34.47244 l 0,0 c 9.14264,0 17.91083,3.63192 24.37567,10.09674 6.46485,6.46484 10.09674,15.23306 10.09674,24.3757 l 0,0 c 0,19.03861 -15.43383,34.47244 -34.47241,34.47244 l 0,0 c -19.03863,0 -34.47247,-15.43383 -34.47247,-34.47244 z" />
  <path
     style="stroke:#666666;stroke-width:2;stroke-linecap:butt;stroke-linejoin:round"
     inkscape:connector-curvature="0"
     id="path13023"
     d="m 478.24933,342.12598 0,0 c 0,-19.03861 15.43384,-34.47244 34.47247,-34.47244 l 0,0 c 9.14264,0 17.91083,3.63192 24.37567,10.09674 6.46485,6.46484 10.09674,15.23306 10.09674,24.3757 l 0,0 c 0,19.03861 -15.43383,34.47244 -34.47241,34.47244 l 0,0 c -19.03863,0 -34.47247,-15.43383 -34.47247,-34.47244 z" />
  <path
     style="fill:#c27ba0;fill-rule:nonzero"
     inkscape:connector-curvature="0"
     id="path13025"
     d="m 607.3753,342.12598 0,0 c 0,-19.03861 15.43384,-34.47244 34.47247,-34.47244 l 0,0 c 9.14264,0 17.91083,3.63192 24.37567,10.09674 6.46485,6.46484 10.09675,15.23306 10.09675,24.3757 l 0,0 c 0,19.03861 -15.43384,34.47244 -34.47242,34.47244 l 0,0 c -19.03863,0 -34.47247,-15.43383 -34.47247,-34.47244 z" />
  <path
     style="stroke:#666666;stroke-width:2;stroke-linecap:butt;stroke-linejoin:round"
     inkscape:connector-curvature="0"
     id="path13027"
     d="m 607.3753,342.12598 0,0 c 0,-19.03861 15.43384,-34.47244 34.47247,-34.47244 l 0,0 c 9.14264,0 17.91083,3.63192 24.37567,10.09674 6.46485,6.46484 10.09675,15.23306 10.09675,24.3757 l 0,0 c 0,19.03861 -15.43384,34.47244 -34.47242,34.47244 l 0,0 c -19.03863,0 -34.47247,-15.43383 -34.47247,-34.47244 z" />
  <path
     style="fill:#c27ba0;fill-rule:nonzero"
     inkscape:connector-curvature="0"
     id="path13029"
     d="m 736.50134,342.12598 0,0 c 0,-19.03861 15.43378,-34.47244 34.47241,-34.47244 l 0,0 c 9.14264,0 17.91083,3.63192 24.37567,10.09674 6.46485,6.46484 10.09674,15.23306 10.09674,24.3757 l 0,0 c 0,19.03861 -15.43383,34.47244 -34.47241,34.47244 l 0,0 c -19.03863,0 -34.47241,-15.43383 -34.47241,-34.47244 z" />
  <path
     style="stroke:#666666;stroke-width:2;stroke-linecap:butt;stroke-linejoin:round"
     inkscape:connector-curvature="0"
     id="path13031"
     d="m 736.50134,342.12598 0,0 c 0,-19.03861 15.43378,-34.47244 34.47241,-34.47244 l 0,0 c 9.14264,0 17.91083,3.63192 24.37567,10.09674 6.46485,6.46484 10.09674,15.23306 10.09674,24.3757 l 0,0 c 0,19.03861 -15.43383,34.47244 -34.47241,34.47244 l 0,0 c -19.03863,0 -34.47241,-15.43383 -34.47241,-34.47244 z" />
  <path
     style="fill:#000000;fill-opacity:0;fill-rule:nonzero"
     inkscape:connector-curvature="0"
     id="path13033"
     d="m 422.1001,203.79039 66.246,113.95988" />
  <path
     style="stroke:#666666;stroke-width:2;stroke-linecap:butt;stroke-linejoin:round"
     inkscape:connector-curvature="0"
     id="path13035"
     d="m 422.1001,203.79039 60.21518,103.58543" />
  <path
     style="fill:#666666;fill-rule:evenodd;stroke:#666666;stroke-width:2;stroke-linecap:butt"
     inkscape:connector-curvature="0"
     id="path13037"
     d="m 479.45932,309.036 7.41736,6.18652 -1.70538,-9.50692 z" />
  <path
     style="fill:#000000;fill-opacity:0;fill-rule:nonzero"
     inkscape:connector-curvature="0"
     id="path13039"
     d="m 547.18634,342.12598 60.18897,0" />
  <path
     style="stroke:#666666;stroke-width:2;stroke-linecap:butt;stroke-linejoin:round"
     inkscape:connector-curvature="0"
     id="path13041"
     d="m 547.18634,342.12598 48.18897,0" />
  <path
     style="fill:#666666;fill-rule:evenodd;stroke:#666666;stroke-width:2;stroke-linecap:butt"
     inkscape:connector-curvature="0"
     id="path13043"
     d="m 595.3753,345.42944 9.07623,-3.30347 -9.07623,-3.30346 z" />
  <path
     style="fill:#000000;fill-opacity:0;fill-rule:nonzero"
     inkscape:connector-curvature="0"
     id="path13045"
     d="m 676.3202,342.12598 60.18897,0" />
  <path
     style="stroke:#666666;stroke-width:2;stroke-linecap:butt;stroke-linejoin:round"
     inkscape:connector-curvature="0"
     id="path13047"
     d="m 676.3202,342.12598 48.18903,0" />
  <path
     style="fill:#666666;fill-rule:evenodd;stroke:#666666;stroke-width:2;stroke-linecap:butt"
     inkscape:connector-curvature="0"
     id="path13049"
     d="m 724.5092,345.42944 9.07617,-3.30347 -9.07617,-3.30346 z" />
  <path
     style="fill:#000000;fill-opacity:0;fill-rule:nonzero"
     inkscape:connector-curvature="0"
     id="path13051"
     d="M 795.3494,317.75027 840.87363,203.79039" />
  <path
     style="stroke:#666666;stroke-width:2;stroke-linecap:butt;stroke-linejoin:round"
     inkscape:connector-curvature="0"
     id="path13053"
     d="M 795.3494,317.75027 836.42197,214.93411" />
  <path
     style="fill:#666666;fill-rule:evenodd;stroke:#666666;stroke-width:2;stroke-linecap:butt"
     inkscape:connector-curvature="0"
     id="path13055"
     d="m 839.48975,216.15962 0.29932,-9.65405 -6.43476,7.20306 z" />
  <path
     style="fill:#000000;fill-opacity:0;fill-rule:nonzero"
     inkscape:connector-curvature="0"
     id="path13057"
     d="m 432.19684,179.4147 398.58008,0" />
  <path
     style="stroke:#666666;stroke-width:2;stroke-linecap:butt;stroke-linejoin:round"
     inkscape:connector-curvature="0"
     id="path13059"
     d="m 432.19684,179.4147 386.58008,0" />
  <path
     style="fill:#666666;fill-rule:evenodd;stroke:#666666;stroke-width:2;stroke-linecap:butt"
     inkscape:connector-curvature="0"
     id="path13061"
     d="m 818.7769,182.71817 9.07617,-3.30347 -9.07617,-3.30346 z" />
  <path
     style="fill:#000000;fill-opacity:0;fill-rule:nonzero"
     inkscape:connector-curvature="0"
     id="path13063"
     d="m 899.7218,179.4147 60.97638,0" />
  <path
     style="stroke:#666666;stroke-width:2;stroke-linecap:butt;stroke-linejoin:round"
     inkscape:connector-curvature="0"
     id="path13065"
     d="m 899.7218,179.4147 60.97638,0" />
  <path
     style="fill:#000000;fill-opacity:0;fill-rule:nonzero"
     inkscape:connector-curvature="0"
     id="path13067"
     d="m 169.69029,376.59842 308.56696,0 0,40.66141 -308.56696,0 z" />
  <path
     style="fill:#434343;fill-rule:nonzero"
     inkscape:connector-curvature="0"
     id="path13069"
     d="m 200.71034,393.47467 q 0.46875,0 1.25,0.0469 0.78125,0.0469 1.15625,0.0781 l 0,3.39062 q -0.45313,-0.0469 -0.875,-0.0625 -0.40625,-0.0312 -0.76563,-0.0312 -0.95312,0 -1.35937,0.42188 -0.39063,0.40625 -0.39063,1.6875 l 0,0.76562 3.14063,0 0,3.04688 -3.14063,0 0,13.5 -4.54687,0 0,-13.5 -2.71875,0 0,-3.04688 2.71875,0 0,-1.14062 q 0,-2.57813 1.48437,-3.85938 1.5,-1.29687 4.04688,-1.29687 z m 11.78125,5.85937 q 3.67187,0 5.85937,2.53125 2.20313,2.51563 2.20313,6.4375 l -0.0312,0.84375 -11.9375,0 q 0.0937,2.14063 1.10937,3.17188 1.03125,1.03125 2.9375,1.03125 1.23438,0 2.28125,-0.625 1.04688,-0.64063 1.32813,-1.53125 l 4,0 q -0.92188,2.8125 -2.84375,4.20312 -1.92188,1.375 -4.90625,1.375 -3.82813,0 -6.14063,-2.42187 -2.3125,-2.42188 -2.3125,-6.28125 0,-3.70313 2.35938,-6.21875 2.375,-2.51563 6.09375,-2.51563 z m -3.90625,6.9375 7.39062,0 q -0.32812,-1.82812 -1.1875,-2.67187 -0.84375,-0.84375 -2.45312,-0.84375 -1.65625,0 -2.625,0.9375 -0.96875,0.9375 -1.125,2.57812 z m 22.23437,-6.9375 q 3.67188,0 5.45313,1.20313 1.79687,1.20312 1.79687,3.39062 l 0,8.875 q 0,1 0.125,2 0.14063,1 0.45313,1.51563 l -4.60938,0 q -0.125,-0.375 -0.21875,-0.76563 -0.0781,-0.40625 -0.10937,-0.8125 -0.95313,0.98438 -2.375,1.51563 -1.40625,0.51562 -3.1875,0.51562 -2.5625,0 -4.09375,-1.28125 -1.53125,-1.29687 -1.53125,-3.6875 0,-2.3125 1.4375,-3.53125 1.4375,-1.23437 5.23437,-1.65625 2.64063,-0.25 3.48438,-0.64062 0.84375,-0.40625 0.84375,-1.39063 0,-1.10937 -0.65625,-1.65625 -0.64063,-0.5625 -2.26563,-0.5625 -1.40625,0 -2.15625,0.60938 -0.75,0.59375 -0.875,1.89062 l -4.54687,0 q 0.1875,-2.71875 2.23437,-4.125 2.0625,-1.40625 5.5625,-1.40625 z m -3.76562,12.28125 q 0,0.98438 0.67187,1.54688 0.67188,0.5625 2.125,0.5625 1.8125,0 2.73438,-0.95313 0.9375,-0.95312 0.9375,-2.78125 l 0,-1.76562 q -0.40625,0.32812 -1.07813,0.5 -0.65625,0.15625 -2.39062,0.40625 -1.54688,0.20312 -2.28125,0.8125 -0.71875,0.59375 -0.71875,1.67187 z m 20.29687,-16.79687 0,4.95312 3.32813,0 0,3.04688 -3.32813,0 0,8.29687 q 0,1.01563 0.375,1.42188 0.39063,0.39062 1.54688,0.39062 0.39062,0 0.75,-0.0312 0.35937,-0.0312 0.65625,-0.0937 l 0,3.54688 q -0.5625,0.0937 -1.26563,0.125 -0.6875,0.0312 -1.35937,0.0312 -2.95313,0 -4.10938,-1 -1.14062,-1.01563 -1.14062,-2.82813 l 0,-9.85937 -2.75,0 0,-3.04688 2.75,0 0,-4.95312 4.54687,0 z m 10.04686,4.95312 0,9.48438 q 0,1.875 0.65625,2.90625 0.65625,1.01562 2.26563,1.01562 1.875,0 2.6875,-1.125 0.82812,-1.14062 0.82812,-3.45312 l 0,-8.82813 4.54688,0 0,16.54688 -4.32813,0 0,-2.29688 -0.0937,0 q -0.85937,1.375 -2.21875,2.0625 -1.35937,0.6875 -2.85937,0.6875 -3.07811,0 -4.54686,-1.5625 -1.46875,-1.57812 -1.46875,-5.07812 l 0,-10.35938 4.53123,0 z m 24.07813,-0.4375 q 0.29687,0 0.54687,0.0469 0.25,0.0312 0.46875,0.10937 l 0,4.21875 q -0.39062,-0.0781 -0.76562,-0.10937 -0.35938,-0.0469 -0.85938,-0.0469 -2.29687,0 -3.40625,1.40625 -1.09375,1.40625 -1.09375,3.76563 l 0,7.59375 -4.53125,0 0,-16.54688 4.3125,0 0,3.07813 0.0625,0 q 0.71875,-1.625 2.14063,-2.5625 1.4375,-0.95313 3.125,-0.95313 z m 10.45312,0 q 3.67188,0 5.85938,2.53125 2.20312,2.51563 2.20312,6.4375 l -0.0312,0.84375 -11.9375,0 q 0.0937,2.14063 1.10938,3.17188 1.03125,1.03125 2.9375,1.03125 1.23437,0 2.28125,-0.625 1.04687,-0.64063 1.32812,-1.53125 l 4,0 q -0.92187,2.8125 -2.84375,4.20312 -1.92187,1.375 -4.90625,1.375 -3.82812,0 -6.14062,-2.42187 -2.3125,-2.42188 -2.3125,-6.28125 0,-3.70313 2.35937,-6.21875 2.375,-2.51563 6.09375,-2.51563 z m -3.90625,6.9375 7.39063,0 q -0.32813,-1.82812 -1.1875,-2.67187 -0.84375,-0.84375 -2.45313,-0.84375 -1.65625,0 -2.625,0.9375 -0.96875,0.9375 -1.125,2.57812 z m 25.125,-13.34375 -8.92187,23.9375 -3.65625,0 8.9375,-23.9375 3.64062,0 z m 7.96875,6.40625 q 1.8125,0 3,0.67188 1.1875,0.67187 1.9375,1.96875 l 0.0625,0 0,-2.20313 4.3125,0 0,15.625 q 0,3.32813 -2.125,5.25 -2.10937,1.9375 -6.42187,1.9375 -2.92188,0 -5.01563,-1.40625 -2.09375,-1.39062 -2.29687,-3.90625 l 4.5,0 q 0.3125,1.20313 1.1875,1.73438 0.875,0.54687 2.20312,0.54687 1.75,0 2.70313,-1.0625 0.95312,-1.04687 0.95312,-2.92187 l 0,-2.29688 -0.0625,0 q -0.67187,1.21875 -1.98437,1.89063 -1.29688,0.67187 -2.98438,0.67187 -3.34375,0 -5.20312,-2.21875 -1.85938,-2.21875 -1.85938,-6.09375 0,-3.5 1.9375,-5.84375 1.95313,-2.34375 5.15625,-2.34375 z m -2.54687,8.125 q 0,2.32813 0.95312,3.64063 0.96875,1.3125 2.71875,1.3125 1.79688,0 2.82813,-1.3125 1.04687,-1.3125 1.04687,-3.28125 0,-2.42188 -0.98437,-3.73438 -0.98438,-1.32812 -2.90625,-1.32812 -1.6875,0 -2.67188,1.28125 -0.98437,1.28125 -0.98437,3.42187 z m 23.15625,-8.125 q 3.67187,0 5.85937,2.53125 2.20313,2.51563 2.20313,6.4375 l -0.0312,0.84375 -11.9375,0 q 0.0937,2.14063 1.10937,3.17188 1.03125,1.03125 2.9375,1.03125 1.23438,0 2.28125,-0.625 1.04688,-0.64063 1.32813,-1.53125 l 4,0 q -0.92188,2.8125 -2.84375,4.20312 -1.92188,1.375 -4.90625,1.375 -3.82813,0 -6.14063,-2.42187 -2.3125,-2.42188 -2.3125,-6.28125 0,-3.70313 2.35938,-6.21875 2.375,-2.51563 6.09375,-2.51563 z m -3.90625,6.9375 7.39062,0 q -0.32812,-1.82812 -1.1875,-2.67187 -0.84375,-0.84375 -2.45312,-0.84375 -1.65625,0 -2.625,0.9375 -0.96875,0.9375 -1.125,2.57812 z m 22.67187,-6.9375 q 3.89063,0 6.23438,2.40625 2.34375,2.39063 2.34375,6.32813 0,3.95312 -2.375,6.32812 -2.35938,2.375 -6.20313,2.375 -3.84375,0 -6.20312,-2.39062 -2.34375,-2.39063 -2.34375,-6.3125 0,-3.92188 2.3125,-6.32813 2.3125,-2.40625 6.23437,-2.40625 z m -4,8.73438 q 0,2.60937 1.0625,3.95312 1.07813,1.32813 2.9375,1.32813 1.9375,0 2.98438,-1.375 1.04687,-1.39063 1.04687,-3.90625 0,-2.46875 -1.01562,-3.89063 -1.01563,-1.42187 -3.04688,-1.42187 -1.82812,0 -2.90625,1.32812 -1.0625,1.3125 -1.0625,3.98438 z m 25.10938,-2.4375 0,3.90625 -9.625,0 0,-3.90625 9.625,0 z m 10.15625,-6.29688 q 1.6875,0 3,0.65625 1.3125,0.64063 2.01562,1.89063 l 0.0625,0 0,-2.10938 4.32813,0 0,22.375 -4.54688,0 0,-7.90625 -0.0625,0 q -0.75,1.25 -2.15625,1.89063 -1.39062,0.64062 -3.0625,0.64062 -2.89062,0 -4.95312,-2.25 -2.04688,-2.25 -2.04688,-6.34375 0,-3.875 2,-6.35937 2.01563,-2.48438 5.42188,-2.48438 z m -2.89063,8.73438 q 0,2.51562 1.04688,3.90625 1.04687,1.375 2.89062,1.375 1.90625,0 2.9375,-1.375 1.03125,-1.375 1.03125,-3.84375 0,-2.34375 -1,-3.85938 -1,-1.51562 -2.90625,-1.51562 -1.92187,0 -2.96875,1.46875 -1.03125,1.45312 -1.03125,3.84375 z m 20.25,-8.29688 0,9.48438 q 0,1.875 0.65625,2.90625 0.65625,1.01562 2.26563,1.01562 1.875,0 2.6875,-1.125 0.82812,-1.14062 0.82812,-3.45312 l 0,-8.82813 4.54688,0 0,16.54688 -4.32813,0 0,-2.29688 -0.0937,0 q -0.85937,1.375 -2.21875,2.0625 -1.35937,0.6875 -2.85937,0.6875 -3.07813,0 -4.54688,-1.5625 -1.46875,-1.57812 -1.46875,-5.07812 l 0,-10.35938 4.53125,0 z m 22.07813,-0.4375 q 3.67187,0 5.85937,2.53125 2.20313,2.51563 2.20313,6.4375 l -0.0312,0.84375 -11.9375,0 q 0.0937,2.14063 1.10937,3.17188 1.03125,1.03125 2.9375,1.03125 1.23438,0 2.28125,-0.625 1.04688,-0.64063 1.32813,-1.53125 l 4,0 q -0.92188,2.8125 -2.84375,4.20312 -1.92188,1.375 -4.90625,1.375 -3.82813,0 -6.14063,-2.42187 -2.3125,-2.42188 -2.3125,-6.28125 0,-3.70313 2.35938,-6.21875 2.375,-2.51563 6.09375,-2.51563 z m -3.90625,6.9375 7.39062,0 q -0.32812,-1.82812 -1.1875,-2.67187 -0.84375,-0.84375 -2.45312,-0.84375 -1.65625,0 -2.625,0.9375 -0.96875,0.9375 -1.125,2.57812 z m 24.28125,-6.9375 q 0.29687,0 0.54687,0.0469 0.25,0.0312 0.46875,0.10937 l 0,4.21875 q -0.39062,-0.0781 -0.76562,-0.10937 -0.35938,-0.0469 -0.85938,-0.0469 -2.29687,0 -3.40625,1.40625 -1.09375,1.40625 -1.09375,3.76563 l 0,7.59375 -4.53125,0 0,-16.54688 4.3125,0 0,3.07813 0.0625,0 q 0.71875,-1.625 2.14063,-2.5625 1.4375,-0.95313 3.125,-0.95313 z m 5.75,0.4375 3.75,11.32813 0.0625,0 3.60937,-11.32813 4.70313,0 -7.03125,18.9375 q -0.625,1.65625 -1.92188,2.54688 -1.29687,0.89062 -3.35937,0.89062 -0.98438,0 -1.67188,-0.0469 -0.67187,-0.0469 -1.39062,-0.125 l 0,-3.73438 q 0.82812,0.0937 1.35937,0.125 0.53125,0.0312 1.01563,0.0312 0.96875,0 1.5,-0.59375 0.53125,-0.59375 0.53125,-1.48437 0,-0.23438 -0.0312,-0.45313 -0.0312,-0.23437 -0.17188,-0.57812 l -5.82812,-15.51563 4.875,0 z" />
</svg>
