<?xml version="1.0" standalone="yes"?>

<svg version="1.1" viewBox="0.0 0.0 960.0 540.0" fill="none" stroke="none" stroke-linecap="square" stroke-miterlimit="10" xmlns="http://www.w3.org/2000/svg" xmlns:xlink="http://www.w3.org/1999/xlink"><clipPath id="g3593cc936_0177.0"><path d="m0 0l960.0 0l0 540.0l-960.0 0l0 -540.0z" clip-rule="nonzero"></path></clipPath><g clip-path="url(#g3593cc936_0177.0)"><path fill="#ffffff" d="m0 0l960.0 0l0 540.0l-960.0 0z" fill-rule="nonzero"></path><path fill="#ffd966" d="m154.4567 292.54068l0 0c0 -19.038605 15.433838 -34.472443 34.472443 -34.472443l0 0c9.142654 0 17.910858 3.631897 24.375687 10.096741c6.4648438 6.4648438 10.096756 15.233032 10.096756 24.375702l0 0c0 19.038605 -15.433838 34.472443 -34.472443 34.472443l0 0c-19.038605 0 -34.472443 -15.433838 -34.472443 -34.472443z" fill-rule="nonzero"></path><path stroke="#666666" stroke-width="2.0" stroke-linejoin="round" stroke-linecap="butt" d="m154.4567 292.54068l0 0c0 -19.038605 15.433838 -34.472443 34.472443 -34.472443l0 0c9.142654 0 17.910858 3.631897 24.375687 10.096741c6.4648438 6.4648438 10.096756 15.233032 10.096756 24.375702l0 0c0 19.038605 -15.433838 34.472443 -34.472443 34.472443l0 0c-19.038605 0 -34.472443 -15.433838 -34.472443 -34.472443z" fill-rule="nonzero"></path><path fill="#c27ba0" d="m60.181103 455.25195l0 0c0 -19.038574 15.433834 -34.472412 34.47244 -34.472412l0 0c9.142662 0 17.910858 3.631897 24.375694 10.096741c6.464836 6.464813 10.096741 15.233032 10.096741 24.375671l0 0c0 19.038605 -15.43383 34.472443 -34.472435 34.472443l0 0c-19.038605 0 -34.47244 -15.433838 -34.47244 -34.472443z" fill-rule="nonzero"></path><path stroke="#666666" stroke-width="2.0" stroke-linejoin="round" stroke-linecap="butt" d="m60.181103 455.25195l0 0c0 -19.038574 15.433834 -34.472412 34.47244 -34.472412l0 0c9.142662 0 17.910858 3.631897 24.375694 10.096741c6.464836 6.464813 10.096741 15.233032 10.096741 24.375671l0 0c0 19.038605 -15.43383 34.472443 -34.472435 34.472443l0 0c-19.038605 0 -34.47244 -15.433838 -34.47244 -34.472443z" fill-rule="nonzero"></path><path fill="#000000" fill-opacity="0.0" d="m0 455.25198l60.188976 0" fill-rule="nonzero"></path><path stroke="#666666" stroke-width="2.0" stroke-linejoin="round" stroke-linecap="butt" d="m0 455.25198l48.188976 0" fill-rule="evenodd"></path><path fill="#666666" stroke="#666666" stroke-width="2.0" stroke-linecap="butt" d="m48.188976 458.55542l9.076195 -3.3034363l-9.076195 -3.3034668z" fill-rule="evenodd"></path><path fill="#000000" fill-opacity="0.0" d="m119.029236 430.87628l45.5242 -113.9599" fill-rule="nonzero"></path><path stroke="#666666" stroke-width="2.0" stroke-linejoin="round" stroke-linecap="butt" d="m119.02924 430.87628l41.072548 -102.81616" fill-rule="evenodd"></path><path fill="#666666" stroke="#666666" stroke-width="2.0" stroke-linecap="butt" d="m163.16953 329.2856l0.29927063 -9.654053l-6.4347534 7.203064z" fill-rule="evenodd"></path><path fill="#000000" fill-opacity="0.0" d="m154.4567 292.54068l-154.4567 0" fill-rule="nonzero"></path><path stroke="#666666" stroke-width="2.0" stroke-linejoin="round" stroke-linecap="butt" d="m142.4567 292.54068l-142.4567 0" fill-rule="evenodd"></path><path fill="#666666" stroke="#666666" stroke-width="2.0" stroke-linecap="butt" d="m142.4567 295.84415l9.076187 -3.3034668l-9.076187 -3.3034668z" fill-rule="evenodd"></path><path fill="#e06666" d="m93.39895 139.30446l0 0c0 -19.038597 15.433838 -34.472435 34.472443 -34.472435l0 0c9.142662 0 17.910866 3.6319046 24.375694 10.096741c6.4648438 6.464836 10.096741 15.23304 10.096741 24.375694l0 0c0 19.038605 -15.433838 34.472443 -34.472435 34.472443l0 0c-19.038605 0 -34.472443 -15.433838 -34.472443 -34.472443z" fill-rule="nonzero"></path><path stroke="#666666" stroke-width="2.0" stroke-linejoin="round" stroke-linecap="butt" d="m93.39895 139.30446l0 0c0 -19.038597 15.433838 -34.472435 34.472443 -34.472435l0 0c9.142662 0 17.910866 3.6319046 24.375694 10.096741c6.4648438 6.464836 10.096741 15.23304 10.096741 24.375694l0 0c0 19.038605 -15.433838 34.472443 -34.472435 34.472443l0 0c-19.038605 0 -34.472443 -15.433838 -34.472443 -34.472443z" fill-rule="nonzero"></path><path fill="#000000" fill-opacity="0.0" d="m-3.6556463E-4 -3.66676E-4l103.49606 114.92913" fill-rule="nonzero"></path><path stroke="#666666" stroke-width="2.0" stroke-linejoin="round" stroke-linecap="butt" d="m-3.6556463E-4 -3.6667602E-4l95.46592 106.01191" fill-rule="evenodd"></path><path fill="#666666" stroke="#666666" stroke-width="2.0" stroke-linecap="butt" d="m93.01074 108.22215l8.528404 4.533928l-3.618782 -8.955147z" fill-rule="evenodd"></path><path fill="#000000" fill-opacity="0.0" d="m162.34383 139.30446l60.18898 0" fill-rule="nonzero"></path><path stroke="#666666" stroke-width="2.0" stroke-linejoin="round" stroke-linecap="butt" d="m162.34383 139.30446l48.18898 0" fill-rule="evenodd"></path><path fill="#666666" stroke="#666666" stroke-width="2.0" stroke-linecap="butt" d="m210.5328 142.60793l9.076202 -3.3034668l-9.076202 -3.3034668z" fill-rule="evenodd"></path><path fill="#e06666" d="m222.5328 139.30446l0 0c0 -19.038597 15.433838 -34.472435 34.472443 -34.472435l0 0c9.14267 0 17.910858 3.6319046 24.375702 10.096741c6.4648438 6.464836 10.096741 15.23304 10.096741 24.375694l0 0c0 19.038605 -15.433838 34.472443 -34.472443 34.472443l0 0c-19.038605 0 -34.472443 -15.433838 -34.472443 -34.472443z" fill-rule="nonzero"></path><path stroke="#666666" stroke-width="2.0" stroke-linejoin="round" stroke-linecap="butt" d="m222.5328 139.30446l0 0c0 -19.038597 15.433838 -34.472435 34.472443 -34.472435l0 0c9.14267 0 17.910858 3.6319046 24.375702 10.096741c6.4648438 6.464836 10.096741 15.23304 10.096741 24.375694l0 0c0 19.038605 -15.433838 34.472443 -34.472443 34.472443l0 0c-19.038605 0 -34.472443 -15.433838 -34.472443 -34.472443z" fill-rule="nonzero"></path><path fill="#000000" fill-opacity="0.0" d="m281.38095 114.928764l76.0 -114.92913" fill-rule="nonzero"></path><path stroke="#666666" stroke-width="2.0" stroke-linejoin="round" stroke-linecap="butt" d="m281.38095 114.928764l69.38098 -104.9197" fill-rule="evenodd"></path><path fill="#666666" stroke="#666666" stroke-width="2.0" stroke-linecap="butt" d="m353.51743 11.831203l2.2507935 -9.392768l-7.7617493 5.7484913z" fill-rule="evenodd"></path><path fill="#ffd966" d="m425.87402 292.54068l0 0c0 -19.038605 15.433838 -34.472443 34.472443 -34.472443l0 0c9.142639 0 17.910858 3.631897 24.375671 10.096741c6.4648438 6.4648438 10.096771 15.233032 10.096771 24.375702l0 0c0 19.038605 -15.433838 34.472443 -34.472443 34.472443l0 0c-19.038605 0 -34.472443 -15.433838 -34.472443 -34.472443z" fill-rule="nonzero"></path><path stroke="#666666" stroke-width="2.0" stroke-linejoin="round" stroke-linecap="butt" d="m425.87402 292.54068l0 0c0 -19.038605 15.433838 -34.472443 34.472443 -34.472443l0 0c9.142639 0 17.910858 3.631897 24.375671 10.096741c6.4648438 6.4648438 10.096771 15.233032 10.096771 24.375702l0 0c0 19.038605 -15.433838 34.472443 -34.472443 34.472443l0 0c-19.038605 0 -34.472443 -15.433838 -34.472443 -34.472443z" fill-rule="nonzero"></path><path fill="#000000" fill-opacity="0.0" d="m223.38583 292.54068l202.48819 0" fill-rule="nonzero"></path><path stroke="#666666" stroke-width="2.0" stroke-linejoin="round" stroke-linecap="butt" d="m223.38583 292.54068l190.48819 0" fill-rule="evenodd"></path><path fill="#666666" stroke="#666666" stroke-width="2.0" stroke-linecap="butt" d="m413.87402 295.84415l9.076202 -3.3034668l-9.076202 -3.3034668z" fill-rule="evenodd"></path><path fill="#000000" fill-opacity="0.0" d="m281.3881 163.69255l154.58267 104.47243" fill-rule="nonzero"></path><path stroke="#666666" stroke-width="2.0" stroke-linejoin="round" stroke-linecap="butt" d="m281.3881 163.69255l144.64032 97.75304" fill-rule="evenodd"></path><path fill="#666666" stroke="#666666" stroke-width="2.0" stroke-linecap="butt" d="m424.17865 264.18262l9.369659 2.3451843l-5.670105 -7.819214z" fill-rule="evenodd"></path><path fill="#000000" fill-opacity="0.0" d="m84.48819 37.133858l202.48819 0l0 40.661415l-202.48819 0z" fill-rule="nonzero"></path><path fill="#434343" d="m114.16388 54.01011l0 8.609375l0.109375 0q0.71875 -1.234375 2.03125 -1.984375q1.328125 -0.765625 2.828125 -0.765625q3.15625 0 4.578125 1.609375q1.4375 1.609375 1.4375 5.03125l0 10.34375l-4.546875 0l0 -9.484375q0 -1.9375 -0.671875 -2.921875q-0.65625 -1.0 -2.234375 -1.0q-1.890625 0 -2.71875 1.125q-0.8125 1.125 -0.8125 3.453125l0 8.828125l-4.53125 0l0 -22.84375l4.53125 0zm22.46875 5.859375q3.890625 0 6.234375 2.40625q2.34375 2.390625 2.34375 6.328125q0 3.953125 -2.375 6.328125q-2.359375 2.375 -6.203125 2.375q-3.84375 0 -6.203125 -2.390625q-2.34375 -2.390625 -2.34375 -6.3125q0 -3.921875 2.3125 -6.328125q2.3125 -2.40625 6.234375 -2.40625zm-4.0 8.734375q0 2.609375 1.0625 3.953125q1.078125 1.328125 2.9375 1.328125q1.9375 0 2.984375 -1.375q1.046875 -1.390625 1.046875 -3.90625q0 -2.46875 -1.015625 -3.890625q-1.015625 -1.421875 -3.046875 -1.421875q-1.828125 0 -2.90625 1.328125q-1.0625 1.3125 -1.0625 3.984375zm21.265625 -13.25l0 4.953125l3.328125 0l0 3.046875l-3.328125 0l0 8.296875q0 1.015625 0.375 1.421875q0.390625 0.390625 1.546875 0.390625q0.390625 0 0.75 -0.03125q0.359375 -0.03125 0.65625 -0.09375l0 3.546875q-0.5625 0.09375 -1.265625 0.125q-0.6875 0.03125 -1.359375 0.03125q-2.953125 0 -4.109375 -1.0q-1.140625 -1.015625 -1.140625 -2.828125l0 -9.859375l-2.75 0l0 -3.046875l2.75 0l0 -4.953125l4.546875 0zm12.03125 -1.34375q0.46875 0 1.25 0.046875q0.78125 0.046875 1.15625 0.078125l0 3.390625q-0.453125 -0.046875 -0.875 -0.0625q-0.40625 -0.03125 -0.765625 -0.03125q-0.953125 0 -1.359375 0.421875q-0.390625 0.40625 -0.390625 1.6875l0 0.765625l3.140625 0l0 3.046875l-3.140625 0l0 13.5l-4.546875 0l0 -13.5l-2.71875 0l0 -3.046875l2.71875 0l0 -1.140625q0 -2.578125 1.484375 -3.859375q1.5 -1.296875 4.046875 -1.296875zm8.8125 0l0 3.734375l-4.546875 0l0 -3.734375l4.546875 0zm0 6.296875l0 16.546875l-4.546875 0l0 -16.546875l4.546875 0zm7.546875 0l2.90625 4.328125l2.875 -4.328125l5.03125 0l-5.4375 7.75l6.109375 8.796875l-5.1875 0l-3.453125 -5.21875l-3.453125 5.21875l-5.09375 0l5.953125 -8.703125l-5.4375 -7.84375l5.1875 0zm22.8125 5.859375l0 3.90625l-9.625 0l0 -3.90625l9.625 0zm10.5625 -12.15625q4.015625 0 6.140625 2.9375q2.125 2.921875 2.125 8.609375q0 5.765625 -2.109375 8.765625q-2.109375 2.984375 -6.15625 2.984375q-4.0 0 -6.09375 -2.96875q-2.09375 -2.984375 -2.09375 -8.78125q0 -5.65625 2.078125 -8.59375q2.09375 -2.953125 6.109375 -2.953125zm-3.640625 11.578125q0 3.46875 0.46875 5.046875q0.484375 1.5625 1.28125 2.25q0.796875 0.671875 1.890625 0.671875q1.796875 0 2.75 -1.75q0.96875 -1.765625 0.96875 -6.234375q0 -4.296875 -0.96875 -6.0625q-0.953125 -1.765625 -2.765625 -1.765625q-1.71875 0 -2.671875 1.703125q-0.953125 1.703125 -0.953125 6.140625zm19.515625 6.34375l0 4.921875l-5.015625 0l0 -4.921875l5.015625 0zm16.25 -17.484375l0 13.484375l2.984375 0l0 3.734375l-2.984375 0l0 5.1875l-4.3125 0l0 -5.1875l-9.46875 0l0 -4.15625l9.71875 -13.0625l4.0625 0zm-4.40625 5.703125l-5.796875 7.78125l5.890625 0l0 -7.78125l-0.09375 0zm14.84375 11.78125l0 4.921875l-5.015625 0l0 -4.921875l5.015625 0zm14.5 -17.484375l0 22.40625l-4.546875 0l0 -14.53125l-5.625 0l0 -3.421875l0.296875 0q2.75 0 4.328125 -1.125q1.59375 -1.140625 1.921875 -3.328125l3.625 0z" fill-rule="nonzero"></path><path fill="#ffd966" d="m600.0735 292.54068l0 0c0 -19.038605 15.433838 -34.472443 34.472473 -34.472443l0 0c9.142639 0 17.910828 3.631897 24.375671 10.096741c6.4648438 6.4648438 10.096741 15.233032 10.096741 24.375702l0 0c0 19.038605 -15.433838 34.472443 -34.472412 34.472443l0 0c-19.038635 0 -34.472473 -15.433838 -34.472473 -34.472443z" fill-rule="nonzero"></path><path stroke="#666666" stroke-width="2.0" stroke-linejoin="round" stroke-linecap="butt" d="m600.0735 292.54068l0 0c0 -19.038605 15.433838 -34.472443 34.472473 -34.472443l0 0c9.142639 0 17.910828 3.631897 24.375671 10.096741c6.4648438 6.4648438 10.096741 15.233032 10.096741 24.375702l0 0c0 19.038605 -15.433838 34.472443 -34.472412 34.472443l0 0c-19.038635 0 -34.472473 -15.433838 -34.472473 -34.472443z" fill-rule="nonzero"></path><path fill="#000000" fill-opacity="0.0" d="m494.8189 292.54068l105.25458 0" fill-rule="nonzero"></path><path stroke="#666666" stroke-width="2.0" stroke-linejoin="round" stroke-linecap="butt" d="m494.8189 292.54068l93.25458 0" fill-rule="evenodd"></path><path fill="#666666" stroke="#666666" stroke-width="2.0" stroke-linecap="butt" d="m588.0735 295.84415l9.076172 -3.3034668l-9.076172 -3.3034668z" fill-rule="evenodd"></path><path fill="#ffd966" d="m774.27295 292.54068l0 0c0 -19.038605 15.433838 -34.472443 34.472473 -34.472443l0 0c9.142639 0 17.910828 3.631897 24.375671 10.096741c6.4648438 6.4648438 10.096741 15.233032 10.096741 24.375702l0 0c0 19.038605 -15.433838 34.472443 -34.472412 34.472443l0 0c-19.038635 0 -34.472473 -15.433838 -34.472473 -34.472443z" fill-rule="nonzero"></path><path stroke="#666666" stroke-width="2.0" stroke-linejoin="round" stroke-linecap="butt" d="m774.27295 292.54068l0 0c0 -19.038605 15.433838 -34.472443 34.472473 -34.472443l0 0c9.142639 0 17.910828 3.631897 24.375671 10.096741c6.4648438 6.4648438 10.096741 15.233032 10.096741 24.375702l0 0c0 19.038605 -15.433838 34.472443 -34.472412 34.472443l0 0c-19.038635 0 -34.472473 -15.433838 -34.472473 -34.472443z" fill-rule="nonzero"></path><path fill="#000000" fill-opacity="0.0" d="m669.0184 292.54068l105.25983 0" fill-rule="nonzero"></path><path stroke="#666666" stroke-width="2.0" stroke-linejoin="round" stroke-linecap="butt" d="m669.0184 292.54068l93.25983 0" fill-rule="evenodd"></path><path fill="#666666" stroke="#666666" stroke-width="2.0" stroke-linecap="butt" d="m762.2782 295.84415l9.076233 -3.3034668l-9.076233 -3.3034668z" fill-rule="evenodd"></path><path fill="#000000" fill-opacity="0.0" d="m843.21783 292.54068l116.59845 0" fill-rule="nonzero"></path><path stroke="#666666" stroke-width="2.0" stroke-linejoin="round" stroke-linecap="butt" d="m843.21783 292.54068l116.59845 0" fill-rule="nonzero"></path><path fill="#000000" fill-opacity="0.0" d="m-0.35433072 225.01968l190.01573 0l0 40.661407l-190.01573 0z" fill-rule="nonzero"></path><path fill="#434343" d="m26.505045 241.89594l0 22.84375l-4.328125 0l0 -2.109375l-0.0625 0q-0.734375 1.265625 -2.03125 1.921875q-1.28125 0.640625 -2.984375 0.640625q-3.390626 0 -5.406251 -2.484375q-2.015625 -2.5 -2.015625 -6.390625q0 -3.6875 1.984375 -6.125q1.984375 -2.4375 5.343751 -2.4375q1.546875 0 2.828125 0.625q1.28125 0.625 2.0625 1.828125l0.0625 0l0 -8.3125l4.546875 0zm-12.296876 14.546875q0 2.3125 1.078125 3.828125q1.078126 1.5 2.921876 1.5q1.890625 0 2.890625 -1.390625q1.015625 -1.40625 1.015625 -3.953125q0 -2.421875 -0.984375 -3.828125q-0.984375 -1.421875 -2.9375 -1.421875q-1.890625 0 -2.937501 1.421875q-1.046875 1.40625 -1.046875 3.84375zm23.359375 -8.6875q3.671875 0 5.859375 2.53125q2.203125 2.515625 2.203125 6.4375l-0.03125 0.84375l-11.9375 0q0.09375 2.140625 1.109375 3.171875q1.03125 1.03125 2.9375 1.03125q1.234375 0 2.28125 -0.625q1.046875 -0.640625 1.328125 -1.53125l4.0 0q-0.921875 2.8125 -2.84375 4.203125q-1.921875 1.375 -4.90625 1.375q-3.828125 0 -6.140623 -2.421875q-2.3125 -2.421875 -2.3125 -6.28125q0 -3.703125 2.359375 -6.21875q2.374998 -2.515625 6.093748 -2.515625zm-3.90625 6.9375l7.390625 0q-0.328125 -1.828125 -1.1875 -2.671875q-0.84375 -0.84375 -2.453125 -0.84375q-1.65625 0 -2.625 0.9375q-0.96875 0.9375 -1.125 2.578125zm17.828125 -6.5l3.5 11.296875l0.0625 0l3.484375 -11.296875l4.515625 0l-5.609375 16.546875l-5.046875 0l-5.671875 -16.546875l4.765625 0zm21.09375 -0.4375q3.671875 0 5.859375 2.53125q2.203125 2.515625 2.203125 6.4375l-0.03125 0.84375l-11.9375 0q0.09375 2.140625 1.109375 3.171875q1.03125 1.03125 2.9375 1.03125q1.234375 0 2.28125 -0.625q1.046875 -0.640625 1.328125 -1.53125l4.0 0q-0.921875 2.8125 -2.84375 4.203125q-1.921875 1.375 -4.90625 1.375q-3.828125 0 -6.140625 -2.421875q-2.3125 -2.421875 -2.3125 -6.28125q0 -3.703125 2.359375 -6.21875q2.375 -2.515625 6.09375 -2.515625zm-3.90625 6.9375l7.390625 0q-0.328125 -1.828125 -1.1875 -2.671875q-0.84375 -0.84375 -2.453125 -0.84375q-1.65625 0 -2.625 0.9375q-0.96875 0.9375 -1.125 2.578125zm19.3125 -12.796875l0 22.84375l-4.546875 0l0 -22.84375l4.546875 0zm11.609375 5.859375q3.890625 0 6.234375 2.40625q2.34375 2.390625 2.34375 6.328125q0 3.953125 -2.375 6.328125q-2.359375 2.375 -6.203125 2.375q-3.84375 0 -6.203125 -2.390625q-2.34375 -2.390625 -2.34375 -6.3125q0 -3.921875 2.3125 -6.328125q2.3125 -2.40625 6.234375 -2.40625zm-4.0 8.734375q0 2.609375 1.0625 3.953125q1.078125 1.328125 2.9375 1.328125q1.9375 0 2.984375 -1.375q1.046875 -1.390625 1.046875 -3.90625q0 -2.46875 -1.015625 -3.890625q-1.015625 -1.421875 -3.046875 -1.421875q-1.828125 0 -2.90625 1.328125q-1.0625 1.3125 -1.0625 3.984375zm24.828125 -8.734375q3.515625 0 5.515625 2.46875q2.0 2.453125 2.0 6.421875q0 3.671875 -1.96875 6.109375q-1.96875 2.4375 -5.296875 2.4375q-1.515625 0 -2.828125 -0.640625q-1.3125 -0.65625 -2.125 -1.859375l-0.078125 0l0 7.875l-4.53125 0l0 -22.375l4.3125 0l0 2.109375l0.0625 0q0.8125 -1.296875 2.0625 -1.921875q1.265625 -0.625 2.875 -0.625zm-4.9375 8.765625q0 2.375 1.015625 3.8125q1.015625 1.4375 2.953125 1.4375q1.890625 0 2.90625 -1.375q1.03125 -1.375 1.03125 -3.875q0 -2.375 -1.015625 -3.859375q-1.015625 -1.484375 -2.984375 -1.484375q-1.875 0 -2.890625 1.40625q-1.015625 1.40625 -1.015625 3.9375z" fill-rule="nonzero"></path></g></svg>

