<?xml version="1.0" encoding="UTF-8" standalone="no"?>
<svg
   xmlns:dc="http://purl.org/dc/elements/1.1/"
   xmlns:cc="http://creativecommons.org/ns#"
   xmlns:rdf="http://www.w3.org/1999/02/22-rdf-syntax-ns#"
   xmlns:svg="http://www.w3.org/2000/svg"
   xmlns="http://www.w3.org/2000/svg"
   xmlns:sodipodi="http://sodipodi.sourceforge.net/DTD/sodipodi-0.dtd"
   xmlns:inkscape="http://www.inkscape.org/namespaces/inkscape"
   version="1.1"
   viewBox="0.0 0.0 960.0 540.0"
   fill="none"
   stroke="none"
   stroke-linecap="square"
   stroke-miterlimit="10"
   id="svg12738"
   inkscape:version="0.48.4 r9939"
   width="100%"
   height="100%"
   sodipodi:docname="gitflow-master-tag.svg">
  <metadata
     id="metadata12807">
    <rdf:RDF>
      <cc:Work
         rdf:about="">
        <dc:format>image/svg+xml</dc:format>
        <dc:type
           rdf:resource="http://purl.org/dc/dcmitype/StillImage" />
      </cc:Work>
    </rdf:RDF>
  </metadata>
  <defs
     id="defs12805" />
  <sodipodi:namedview
     pagecolor="#ffffff"
     bordercolor="#666666"
     borderopacity="1"
     objecttolerance="10"
     gridtolerance="10"
     guidetolerance="10"
     inkscape:pageopacity="0"
     inkscape:pageshadow="2"
     inkscape:window-width="1598"
     inkscape:window-height="866"
     id="namedview12803"
     showgrid="false"
     inkscape:zoom="0.98567708"
     inkscape:cx="480"
     inkscape:cy="270"
     inkscape:window-x="0"
     inkscape:window-y="32"
     inkscape:window-maximized="0"
     inkscape:current-layer="svg12738" />
  <clipPath
     id="g3593cc936_01.0">
    <path
       d="m0 0l960.0 0l0 540.0l-960.0 0l0 -540.0z"
       clip-rule="nonzero"
       id="path12741" />
  </clipPath>
  <path
     style="fill:#6d9eeb;fill-rule:nonzero"
     inkscape:connector-curvature="0"
     id="path12747"
     d="m 221.83464,179.4147 0,0 c 0,-19.0386 15.43384,-34.47244 34.47246,-34.47244 l 0,0 c 9.14264,0 17.91086,3.63189 24.37567,10.09674 6.46484,6.46484 10.09677,15.23303 10.09677,24.3757 l 0,0 c 0,19.03859 -15.43384,34.47243 -34.47244,34.47243 l 0,0 c -19.03862,0 -34.47246,-15.43384 -34.47246,-34.47243 z" />
  <path
     style="stroke:#666666;stroke-width:2;stroke-linecap:butt;stroke-linejoin:round"
     inkscape:connector-curvature="0"
     id="path12749"
     d="m 221.83464,179.4147 0,0 c 0,-19.0386 15.43384,-34.47244 34.47246,-34.47244 l 0,0 c 9.14264,0 17.91086,3.63189 24.37567,10.09674 6.46484,6.46484 10.09677,15.23303 10.09677,24.3757 l 0,0 c 0,19.03859 -15.43384,34.47243 -34.47244,34.47243 l 0,0 c -19.03862,0 -34.47246,-15.43384 -34.47246,-34.47243 z" />
  <path
     style="fill:#6d9eeb;fill-rule:nonzero"
     inkscape:connector-curvature="0"
     id="path12751"
     d="m 455.24933,179.4147 0,0 c 0,-19.0386 15.43384,-34.47244 34.47244,-34.47244 l 0,0 c 9.14267,0 17.91086,3.63189 24.37571,10.09674 6.46484,6.46484 10.09674,15.23303 10.09674,24.3757 l 0,0 c 0,19.03859 -15.43384,34.47243 -34.47245,34.47243 l 0,0 c -19.0386,0 -34.47244,-15.43384 -34.47244,-34.47243 z" />
  <path
     style="stroke:#666666;stroke-width:2;stroke-linecap:butt;stroke-linejoin:round"
     inkscape:connector-curvature="0"
     id="path12753"
     d="m 455.24933,179.4147 0,0 c 0,-19.0386 15.43384,-34.47244 34.47244,-34.47244 l 0,0 c 9.14267,0 17.91086,3.63189 24.37571,10.09674 6.46484,6.46484 10.09674,15.23303 10.09674,24.3757 l 0,0 c 0,19.03859 -15.43384,34.47243 -34.47245,34.47243 l 0,0 c -19.0386,0 -34.47244,-15.43384 -34.47244,-34.47243 z" />
  <path
     style="fill:#6d9eeb;fill-rule:nonzero"
     inkscape:connector-curvature="0"
     id="path12755"
     d="m 771.7402,179.4147 0,0 c 0,-19.0386 15.43384,-34.47244 34.47241,-34.47244 l 0,0 c 9.1427,0 17.91089,3.63189 24.37573,10.09674 6.46479,6.46484 10.09674,15.23303 10.09674,24.3757 l 0,0 c 0,19.03859 -15.43383,34.47243 -34.47247,34.47243 l 0,0 c -19.03857,0 -34.47241,-15.43384 -34.47241,-34.47243 z" />
  <path
     style="stroke:#666666;stroke-width:2;stroke-linecap:butt;stroke-linejoin:round"
     inkscape:connector-curvature="0"
     id="path12757"
     d="m 771.7402,179.4147 0,0 c 0,-19.0386 15.43384,-34.47244 34.47241,-34.47244 l 0,0 c 9.1427,0 17.91089,3.63189 24.37573,10.09674 6.46479,6.46484 10.09674,15.23303 10.09674,24.3757 l 0,0 c 0,19.03859 -15.43383,34.47243 -34.47247,34.47243 l 0,0 c -19.03857,0 -34.47241,-15.43384 -34.47241,-34.47243 z" />
  <path
     style="fill:#000000;fill-opacity:0;fill-rule:nonzero"
     inkscape:connector-curvature="0"
     id="path12759"
     d="m 290.77954,179.4147 164.46979,0" />
  <path
     style="stroke:#666666;stroke-width:2;stroke-linecap:butt;stroke-linejoin:round"
     inkscape:connector-curvature="0"
     id="path12761"
     d="m 290.77954,179.4147 152.46979,0" />
  <path
     style="fill:#666666;fill-rule:evenodd;stroke:#666666;stroke-width:2;stroke-linecap:butt"
     inkscape:connector-curvature="0"
     id="path12763"
     d="m 443.24936,182.71817 9.07617,-3.30347 -9.07617,-3.30346 z" />
  <path
     style="fill:#000000;fill-opacity:0;fill-rule:nonzero"
     inkscape:connector-curvature="0"
     id="path12765"
     d="m 524.1942,179.4147 247.54596,0" />
  <path
     style="stroke:#666666;stroke-width:2;stroke-linecap:butt;stroke-linejoin:round"
     inkscape:connector-curvature="0"
     id="path12767"
     d="m 524.1942,179.4147 235.54596,0" />
  <path
     style="fill:#666666;fill-rule:evenodd;stroke:#666666;stroke-width:2;stroke-linecap:butt"
     inkscape:connector-curvature="0"
     id="path12769"
     d="m 759.7402,182.71817 9.07617,-3.30347 -9.07617,-3.30346 z" />
  <path
     style="fill:#cccccc;fill-rule:nonzero"
     inkscape:connector-curvature="0"
     id="path12771"
     d="m 232.44882,68.05249 7.95276,0 0,0 11.92912,0 27.83464,0 0,32.99738 0,0 0,14.14173 0,9.42782 -27.83464,0 -4.54579,17.67208 -7.38333,-17.67208 -7.95276,0 0,-9.42782 0,-14.14173 0,0 z" />
  <path
     style="stroke:#666666;stroke-width:2;stroke-linecap:butt;stroke-linejoin:round"
     inkscape:connector-curvature="0"
     id="path12773"
     d="m 232.44882,68.05249 7.95276,0 0,0 11.92912,0 27.83464,0 0,32.99738 0,0 0,14.14173 0,9.42782 -27.83464,0 -4.54579,17.67208 -7.38333,-17.67208 -7.95276,0 0,-9.42782 0,-14.14173 0,0 z" />
  <path
     style="fill:#000000;fill-rule:nonzero"
     inkscape:connector-curvature="0"
     id="path12775"
     d="m 242.23007,96.552826 q 0,-2.421875 0.5,-3.890625 0.5,-1.46875 1.46875,-2.265625 0.98437,-0.796875 2.46875,-0.796875 1.09375,0 1.92187,0.4375 0.82813,0.4375 1.35938,1.28125 0.54687,0.828125 0.84375,2.015625 0.3125,1.1875 0.3125,3.21875 0,2.390625 -0.5,3.859374 -0.48438,1.46875 -1.46875,2.28125 -0.96875,0.79688 -2.46875,0.79688 -1.96875,0 -3.07813,-1.40625 -1.35937,-1.70313 -1.35937,-5.531254 z m 1.71875,0 q 0,3.34375 0.78125,4.453124 0.79687,1.10938 1.9375,1.10938 1.15625,0 1.9375,-1.10938 0.78125,-1.124999 0.78125,-4.453124 0,-3.359375 -0.78125,-4.46875 -0.78125,-1.109375 -1.95313,-1.109375 -1.15625,0 -1.82812,0.984375 -0.875,1.234375 -0.875,4.59375 z m 9.59447,6.703124 0,-1.90625 1.90625,0 0,1.90625 -1.90625,0 z m 10.54268,0 -1.67188,0 0,-10.640624 q -0.59375,0.578125 -1.57812,1.15625 -0.98438,0.5625 -1.76563,0.859375 l 0,-1.625 q 1.40625,-0.65625 2.45313,-1.59375 1.04687,-0.9375 1.48437,-1.8125 l 1.07813,0 0,13.656249 z" />
  <path
     style="fill:#000000;fill-opacity:0;fill-rule:nonzero"
     inkscape:connector-curvature="0"
     id="path12777"
     d="m 840.68506,179.4147 119.1181,0" />
  <path
     style="stroke:#666666;stroke-width:2;stroke-linecap:butt;stroke-linejoin:round"
     inkscape:connector-curvature="0"
     id="path12779"
     d="m 840.68506,179.4147 119.1181,0" />
  <path
     style="fill:#000000;fill-opacity:0;fill-rule:nonzero"
     inkscape:connector-curvature="0"
     id="path12781"
     d="m 221.83464,179.4147 -221.82677,0" />
  <path
     style="stroke:#666666;stroke-width:2;stroke-linecap:butt;stroke-linejoin:round"
     inkscape:connector-curvature="0"
     id="path12783"
     d="m 209.83464,179.4147 -209.82677,0" />
  <path
     style="fill:#666666;fill-rule:evenodd;stroke:#666666;stroke-width:2;stroke-linecap:butt"
     inkscape:connector-curvature="0"
     id="path12785"
     d="m 209.83464,182.71817 9.0762,-3.30347 -9.0762,-3.30346 z" />
  <path
     style="fill:#000000;fill-opacity:0;fill-rule:nonzero"
     inkscape:connector-curvature="0"
     id="path12787"
     d="m 28.68504,104.28084 134.58267,0 0,40.66142 -134.58267,0 z" />
  <path
     style="fill:#434343;fill-rule:nonzero"
     inkscape:connector-curvature="0"
     id="path12789"
     d="m 48.950665,127.01646 q 1.84375,0 3.046875,0.71875 1.203125,0.70313 1.78125,2.03125 0.9375,-1.32812 2.21875,-2.03125 1.28125,-0.71875 2.796875,-0.71875 3,0 4.515625,1.53125 1.515621,1.53125 1.515621,4.23438 l 0,11.21875 -4.546871,0 0,-9.5625 q 0,-2.26563 -0.671875,-3.04688 -0.65625,-0.79687 -2.109375,-0.79687 -1.53125,0 -2.296875,1.03125 -0.75,1.03125 -0.75,3.01562 l 0,9.35938 -4.546875,0 0,-10.1875 q 0,-1.64063 -0.625,-2.42188 -0.625,-0.79687 -2.109375,-0.79687 -1.296875,0 -2.1875,1 -0.890625,1 -0.890625,2.70312 l 0,9.70313 -4.546875,0 0,-16.54688 4.28125,0 0,2.25 0.0625,0 q 0.96875,-1.35937 2.234375,-2.01562 1.28125,-0.67188 2.828125,-0.67188 z m 27.046871,0 q 3.671875,0 5.453125,1.20313 1.796875,1.20312 1.796875,3.39062 l 0,8.875 q 0,1 0.125,2 0.140625,1 0.453125,1.51563 l -4.609375,0 q -0.125,-0.375 -0.21875,-0.76563 -0.07813,-0.40625 -0.109375,-0.8125 -0.953125,0.98438 -2.375,1.51563 -1.40625,0.51562 -3.1875,0.51562 -2.5625,0 -4.09375,-1.28125 -1.53125,-1.29687 -1.53125,-3.6875 0,-2.3125 1.4375,-3.53125 1.4375,-1.23437 5.234375,-1.65625 2.640625,-0.25 3.484375,-0.64062 0.84375,-0.40625 0.84375,-1.39063 0,-1.10937 -0.65625,-1.65625 -0.640625,-0.5625 -2.265625,-0.5625 -1.40625,0 -2.15625,0.60938 -0.75,0.59375 -0.875,1.89062 l -4.546875,0 q 0.1875,-2.71875 2.234375,-4.125 2.0625,-1.40625 5.5625,-1.40625 z m -3.765625,12.28125 q 0,0.98438 0.671875,1.54688 0.671875,0.5625 2.125,0.5625 1.8125,0 2.734375,-0.95313 0.9375,-0.95312 0.9375,-2.78125 l 0,-1.76562 q -0.40625,0.32812 -1.078125,0.5 -0.65625,0.15625 -2.390625,0.40625 -1.546875,0.20312 -2.28125,0.8125 -0.71875,0.59375 -0.71875,1.67187 z m 21.328125,-12.28125 q 3.375,0 5.203125,1.34375 1.843749,1.32813 2.093749,3.92188 l -4.328124,0 q -0.09375,-1.17188 -0.875,-1.70313 -0.78125,-0.53125 -2.234375,-0.53125 -1.3125,0 -1.921875,0.39063 -0.59375,0.39062 -0.59375,1.14062 0,0.76563 0.78125,1.26563 0.796875,0.48437 3.1875,0.9375 3.8125,0.73437 5.109375,1.89062 1.312499,1.15625 1.312499,3.03125 0,2.8125 -2.062499,4.28125 -2.046875,1.46875 -5.484375,1.46875 -3.4375,0 -5.546875,-1.45312 -2.09375,-1.46875 -2.234375,-4.375 l 4.328125,0 q 0,1.3125 0.984375,2.04687 1,0.73438 2.5,0.73438 1.328125,0 2.15625,-0.5625 0.828125,-0.57813 0.828125,-1.54688 0,-0.85937 -1.078125,-1.40625 -1.078125,-0.54687 -3.953125,-1.14062 -2.84375,-0.5625 -4.109375,-1.60938 -1.265625,-1.04687 -1.265625,-2.82812 0,-2.625 1.859375,-3.95313 1.859375,-1.34375 5.34375,-1.34375 z m 16.156254,-4.51562 0,4.95312 3.32812,0 0,3.04688 -3.32812,0 0,8.29687 q 0,1.01563 0.375,1.42188 0.39062,0.39062 1.54687,0.39062 0.39063,0 0.75,-0.0312 0.35938,-0.0312 0.65625,-0.0937 l 0,3.54688 q -0.5625,0.0937 -1.26562,0.125 -0.6875,0.0312 -1.35938,0.0312 -2.95312,0 -4.10937,-1 -1.14063,-1.01563 -1.14063,-2.82813 l 0,-9.85937 -2.75,0 0,-3.04688 2.75,0 0,-4.95312 4.54688,0 z m 13.15625,4.51562 q 3.67187,0 5.85938,2.53125 2.20312,2.51563 2.20312,6.4375 l -0.0312,0.84375 -11.9375,0 q 0.0937,2.14063 1.10937,3.17188 1.03125,1.03125 2.9375,1.03125 1.23438,0 2.28125,-0.625 1.04688,-0.64063 1.32813,-1.53125 l 4,0 q -0.92187,2.8125 -2.84375,4.20312 -1.92188,1.375 -4.90625,1.375 -3.82813,0 -6.14063,-2.42187 -2.3125,-2.42188 -2.3125,-6.28125 0,-3.70313 2.35938,-6.21875 2.375,-2.51563 6.09375,-2.51563 z m -3.90625,6.9375 7.39062,0 q -0.32812,-1.82812 -1.1875,-2.67187 -0.84375,-0.84375 -2.45312,-0.84375 -1.65625,0 -2.625,0.9375 -0.96875,0.9375 -1.125,2.57812 z m 24.28125,-6.9375 q 0.29688,0 0.54688,0.0469 0.25,0.0312 0.46875,0.10937 l 0,4.21875 q -0.39063,-0.0781 -0.76563,-0.10937 -0.35937,-0.0469 -0.85937,-0.0469 -2.29688,0 -3.40625,1.40625 -1.09375,1.40625 -1.09375,3.76563 l 0,7.59375 -4.53125,0 0,-16.54688 4.3125,0 0,3.07813 0.0625,0 q 0.71875,-1.625 2.14062,-2.5625 1.4375,-0.95313 3.125,-0.95313 z" />
  <path
     style="fill:#cccccc;fill-rule:nonzero"
     inkscape:connector-curvature="0"
     id="path12791"
     d="m 465.86353,68.05249 7.95276,0 0,0 11.92911,0 27.83468,0 0,32.99738 0,0 0,14.14173 0,9.42782 -27.83468,0 -4.54578,17.67208 -7.38333,-17.67208 -7.95276,0 0,-9.42782 0,-14.14173 0,0 z" />
  <path
     style="stroke:#666666;stroke-width:2;stroke-linecap:butt;stroke-linejoin:round"
     inkscape:connector-curvature="0"
     id="path12793"
     d="m 465.86353,68.05249 7.95276,0 0,0 11.92911,0 27.83468,0 0,32.99738 0,0 0,14.14173 0,9.42782 -27.83468,0 -4.54578,17.67208 -7.38333,-17.67208 -7.95276,0 0,-9.42782 0,-14.14173 0,0 z" />
  <path
     style="fill:#000000;fill-rule:nonzero"
     inkscape:connector-curvature="0"
     id="path12795"
     d="m 475.64478,96.552826 q 0,-2.421875 0.5,-3.890625 0.5,-1.46875 1.46875,-2.265625 0.98438,-0.796875 2.46875,-0.796875 1.09375,0 1.92188,0.4375 0.82812,0.4375 1.35937,1.28125 0.54688,0.828125 0.84375,2.015625 0.3125,1.1875 0.3125,3.21875 0,2.390625 -0.5,3.859374 -0.48437,1.46875 -1.46875,2.28125 -0.96875,0.79688 -2.46875,0.79688 -1.96875,0 -3.07812,-1.40625 -1.35938,-1.70313 -1.35938,-5.531254 z m 1.71875,0 q 0,3.34375 0.78125,4.453124 0.79688,1.10938 1.9375,1.10938 1.15625,0 1.9375,-1.10938 0.78125,-1.124999 0.78125,-4.453124 0,-3.359375 -0.78125,-4.46875 -0.78125,-1.109375 -1.95312,-1.109375 -1.15625,0 -1.82813,0.984375 -0.875,1.234375 -0.875,4.59375 z m 9.59445,6.703124 0,-1.90625 1.90625,0 0,1.90625 -1.90625,0 z m 13.02707,-1.60937 0,1.60937 -8.98437,0 q -0.0156,-0.60937 0.1875,-1.15625 0.34375,-0.92187 1.09375,-1.8125 0.76562,-0.890624 2.1875,-2.062499 2.21875,-1.8125 3,-2.875 0.78125,-1.0625 0.78125,-2.015625 0,-0.984375 -0.71875,-1.671875 -0.70313,-0.6875 -1.84375,-0.6875 -1.20313,0 -1.9375,0.734375 -0.71875,0.71875 -0.71875,2 l -1.71875,-0.171875 q 0.17187,-1.921875 1.32812,-2.921875 1.15625,-1.015625 3.09375,-1.015625 1.95313,0 3.09375,1.09375 1.14063,1.078125 1.14063,2.6875 0,0.8125 -0.34375,1.609375 -0.32813,0.78125 -1.10938,1.65625 -0.76562,0.859375 -2.5625,2.390625 -1.5,1.265629 -1.9375,1.718749 -0.42187,0.4375 -0.70312,0.89063 l 6.67187,0 z" />
  <path
     style="fill:#cccccc;fill-rule:nonzero"
     inkscape:connector-curvature="0"
     id="path12797"
     d="m 782.3543,68.05249 7.95276,0 0,0 11.92914,0 27.83465,0 0,32.99738 0,0 0,14.14173 0,9.42782 -27.83465,0 -4.54578,17.67208 -7.38336,-17.67208 -7.95276,0 0,-9.42782 0,-14.14173 0,0 z" />
  <path
     style="stroke:#666666;stroke-width:2;stroke-linecap:butt;stroke-linejoin:round"
     inkscape:connector-curvature="0"
     id="path12799"
     d="m 782.3543,68.05249 7.95276,0 0,0 11.92914,0 27.83465,0 0,32.99738 0,0 0,14.14173 0,9.42782 -27.83465,0 -4.54578,17.67208 -7.38336,-17.67208 -7.95276,0 0,-9.42782 0,-14.14173 0,0 z" />
  <path
     style="fill:#000000;fill-rule:nonzero"
     inkscape:connector-curvature="0"
     id="path12801"
     d="m 792.13556,96.552826 q 0,-2.421875 0.5,-3.890625 0.5,-1.46875 1.46875,-2.265625 0.98438,-0.796875 2.46875,-0.796875 1.09375,0 1.92188,0.4375 0.82812,0.4375 1.35937,1.28125 0.54688,0.828125 0.84375,2.015625 0.3125,1.1875 0.3125,3.21875 0,2.390625 -0.5,3.859374 -0.48437,1.46875 -1.46875,2.28125 -0.96875,0.79688 -2.46875,0.79688 -1.96875,0 -3.07812,-1.40625 -1.35938,-1.70313 -1.35938,-5.531254 z m 1.71875,0 q 0,3.34375 0.78125,4.453124 0.79688,1.10938 1.9375,1.10938 1.15625,0 1.9375,-1.10938 0.78125,-1.124999 0.78125,-4.453124 0,-3.359375 -0.78125,-4.46875 -0.78125,-1.109375 -1.95312,-1.109375 -1.15625,0 -1.82813,0.984375 -0.875,1.234375 -0.875,4.59375 z m 9.59448,6.703124 0,-1.90625 1.90625,0 0,1.90625 -1.90625,0 z m 4.26142,-3.593749 1.67187,-0.21875 q 0.28125,1.421879 0.96875,2.046879 0.70313,0.625 1.6875,0.625 1.1875,0 2,-0.8125 0.8125,-0.82813 0.8125,-2.031254 0,-1.140625 -0.76562,-1.890625 -0.75,-0.75 -1.90625,-0.75 -0.46875,0 -1.17188,0.1875 l 0.1875,-1.46875 q 0.15625,0.01563 0.26563,0.01563 1.0625,0 1.90625,-0.546875 0.85937,-0.5625 0.85937,-1.71875 0,-0.921875 -0.625,-1.515625 -0.60937,-0.609375 -1.59375,-0.609375 -0.96875,0 -1.625,0.609375 -0.64062,0.609375 -0.82812,1.84375 l -1.67188,-0.296875 q 0.29688,-1.6875 1.375,-2.609375 1.09375,-0.921875 2.71875,-0.921875 1.10938,0 2.04688,0.484375 0.9375,0.46875 1.42187,1.296875 0.5,0.828125 0.5,1.75 0,0.890625 -0.46875,1.609375 -0.46875,0.71875 -1.40625,1.15625 1.21875,0.265625 1.875,1.15625 0.67188,0.875 0.67188,2.1875 0,1.781259 -1.29688,3.015629 -1.29687,1.23438 -3.28125,1.23438 -1.79687,0 -2.98437,-1.0625 -1.17188,-1.0625 -1.34375,-2.765634 z" />
</svg>
