<?xml version="1.0" encoding="UTF-8" standalone="no"?>
<svg
   xmlns:dc="http://purl.org/dc/elements/1.1/"
   xmlns:cc="http://creativecommons.org/ns#"
   xmlns:rdf="http://www.w3.org/1999/02/22-rdf-syntax-ns#"
   xmlns:svg="http://www.w3.org/2000/svg"
   xmlns="http://www.w3.org/2000/svg"
   xmlns:sodipodi="http://sodipodi.sourceforge.net/DTD/sodipodi-0.dtd"
   xmlns:inkscape="http://www.inkscape.org/namespaces/inkscape"
   version="1.1"
   viewBox="0 0 745.33722 70.9375"
   stroke-miterlimit="10"
   id="svg12535"
   inkscape:version="0.48.4 r9939"
   width="100%"
   height="100%"
   sodipodi:docname="gitflow-master.svg"
   style="fill:none;stroke:none">
  <metadata
     id="metadata12596">
    <rdf:RDF>
      <cc:Work
         rdf:about="">
        <dc:format>image/svg+xml</dc:format>
        <dc:type
           rdf:resource="http://purl.org/dc/dcmitype/StillImage" />
      </cc:Work>
    </rdf:RDF>
  </metadata>
  <defs
     id="defs12594" />
  <sodipodi:namedview
     pagecolor="#ffffff"
     bordercolor="#666666"
     borderopacity="1"
     objecttolerance="10"
     gridtolerance="10"
     guidetolerance="10"
     inkscape:pageopacity="0"
     inkscape:pageshadow="2"
     inkscape:window-width="1598"
     inkscape:window-height="882"
     id="namedview12592"
     showgrid="false"
     inkscape:zoom="0.98567708"
     inkscape:cx="383.64185"
     inkscape:cy="-55.125408"
     inkscape:window-x="0"
     inkscape:window-y="16"
     inkscape:window-maximized="0"
     inkscape:current-layer="svg12535"
     fit-margin-top="0"
     fit-margin-left="0"
     fit-margin-right="0"
     fit-margin-bottom="0" />
  <clipPath
     id="g35ed4dc66_018.0">
    <path
       d="M 0,0 960,0 960,540 0,540 0,0 z"
       clip-rule="nonzero"
       id="path12538"
       inkscape:connector-curvature="0" />
  </clipPath>
  <path
     style="fill:#6d9eeb;fill-rule:nonzero"
     inkscape:connector-curvature="0"
     id="path12544"
     d="m 125.47649,35.477608 0,0 c 0,-19.0386 15.43384,-34.4724397 34.47246,-34.4724397 l 0,0 c 9.14264,0 17.91086,3.63189 24.37567,10.0967397 6.46484,6.46484 10.09677,15.23303 10.09677,24.3757 l 0,0 c 0,19.03859 -15.43384,34.472431 -34.47244,34.472431 l 0,0 c -19.03862,0 -34.47246,-15.433841 -34.47246,-34.472431 z"
     sodipodi:nodetypes="ccccsccccc" />
  <path
     style="stroke:#666666;stroke-width:2;stroke-linecap:butt;stroke-linejoin:round"
     inkscape:connector-curvature="0"
     id="path12546"
     d="m 125.47649,35.477608 0,0 c 0,-19.0386 15.43384,-34.4724397 34.47246,-34.4724397 l 0,0 c 9.14264,0 17.91086,3.63189 24.37567,10.0967397 6.46484,6.46484 10.09677,15.23303 10.09677,24.3757 l 0,0 c 0,19.03859 -15.43384,34.472431 -34.47244,34.472431 l 0,0 c -19.03862,0 -34.47246,-15.433841 -34.47246,-34.472431 z"
     sodipodi:nodetypes="ccccsccccc" />
  <path
     style="fill:#6d9eeb;fill-rule:nonzero"
     inkscape:connector-curvature="0"
     id="path12548"
     d="m 358.89118,35.477608 0,0 c 0,-19.0386 15.43384,-34.4724397 34.47244,-34.4724397 l 0,0 c 9.14267,0 17.91086,3.63189 24.37571,10.0967397 6.46484,6.46484 10.09674,15.23303 10.09674,24.3757 l 0,0 c 0,19.03859 -15.43384,34.472431 -34.47245,34.472431 l 0,0 c -19.0386,0 -34.47244,-15.433841 -34.47244,-34.472431 z"
     sodipodi:nodetypes="ccccsccccc" />
  <path
     style="stroke:#666666;stroke-width:2;stroke-linecap:butt;stroke-linejoin:round"
     inkscape:connector-curvature="0"
     id="path12550"
     d="m 358.89118,35.477608 0,0 c 0,-19.0386 15.43384,-34.4724397 34.47244,-34.4724397 l 0,0 c 9.14267,0 17.91086,3.63189 24.37571,10.0967397 6.46484,6.46484 10.09674,15.23303 10.09674,24.3757 l 0,0 c 0,19.03859 -15.43384,34.472431 -34.47245,34.472431 l 0,0 c -19.0386,0 -34.47244,-15.433841 -34.47244,-34.472431 z"
     sodipodi:nodetypes="ccccsccccc" />
  <path
     style="fill:#6d9eeb;fill-rule:nonzero"
     inkscape:connector-curvature="0"
     id="path12552"
     d="m 675.38205,35.477608 0,0 c 0,-19.0386 15.43384,-34.4724397 34.47241,-34.4724397 l 0,0 c 9.1427,0 17.91089,3.63189 24.37573,10.0967397 6.46479,6.46484 10.09674,15.23303 10.09674,24.3757 l 0,0 c 0,19.03859 -15.43383,34.472431 -34.47247,34.472431 l 0,0 c -19.03857,0 -34.47241,-15.433841 -34.47241,-34.472431 z"
     sodipodi:nodetypes="ccccsccccc" />
  <path
     style="stroke:#666666;stroke-width:2;stroke-linecap:butt;stroke-linejoin:round"
     inkscape:connector-curvature="0"
     id="path12554"
     d="m 675.38205,35.477608 0,0 c 0,-19.0386 15.43384,-34.4724397 34.47241,-34.4724397 l 0,0 c 9.1427,0 17.91089,3.63189 24.37573,10.0967397 6.46479,6.46484 10.09674,15.23303 10.09674,24.3757 l 0,0 c 0,19.03859 -15.43383,34.472431 -34.47247,34.472431 l 0,0 c -19.03857,0 -34.47241,-15.433841 -34.47241,-34.472431 z"
     sodipodi:nodetypes="ccccsccccc" />
  <path
     style="fill:#000000;fill-opacity:0;fill-rule:nonzero"
     inkscape:connector-curvature="0"
     id="path12556"
     d="m 194.42139,35.477608 164.46979,0"
     sodipodi:nodetypes="cc" />
  <path
     style="stroke:#666666;stroke-width:2;stroke-linecap:butt;stroke-linejoin:round"
     inkscape:connector-curvature="0"
     id="path12558"
     d="m 194.42139,35.477608 152.46979,0"
     sodipodi:nodetypes="cc" />
  <path
     style="fill:#666666;fill-rule:evenodd;stroke:#666666;stroke-width:2;stroke-linecap:butt"
     inkscape:connector-curvature="0"
     id="path12560"
     d="m 346.89121,38.781078 9.07617,-3.30347 -9.07617,-3.30346 z"
     sodipodi:nodetypes="cccc" />
  <path
     style="fill:#000000;fill-opacity:0;fill-rule:nonzero"
     inkscape:connector-curvature="0"
     id="path12562"
     d="m 427.83605,35.477608 247.54596,0"
     sodipodi:nodetypes="cc" />
  <path
     style="stroke:#666666;stroke-width:2;stroke-linecap:butt;stroke-linejoin:round"
     inkscape:connector-curvature="0"
     id="path12564"
     d="m 427.83605,35.477608 235.54596,0"
     sodipodi:nodetypes="cc" />
  <path
     style="fill:#666666;fill-rule:evenodd;stroke:#666666;stroke-width:2;stroke-linecap:butt"
     inkscape:connector-curvature="0"
     id="path12566"
     d="m 663.38205,38.781078 9.07617,-3.30347 -9.07617,-3.30346 z"
     sodipodi:nodetypes="cccc" />
  <path
     style="fill:#434343;fill-rule:nonzero"
     inkscape:connector-curvature="0"
     id="path12580"
     d="m 9.406249,28.733268 c 1.22917,0 2.24479,0.239583 3.04688,0.71875 0.80208,0.468753 1.39583,1.145837 1.78125,2.03125 0.625,-0.885413 1.36458,-1.562497 2.21875,-2.03125 0.85417,-0.479167 1.78646,-0.71875 2.79687,-0.71875 2,0 3.50521,0.510417 4.51563,1.53125 1.01041,1.020833 1.51562,2.432293 1.51562,4.23438 l 0,11.21875 -4.54687,0 0,-9.5625 c 0,-1.51042 -0.22396,-2.526047 -0.67188,-3.04688 -0.4375,-0.531247 -1.14062,-0.79687 -2.10937,-0.79687 -1.02083,0 -1.78646,0.34375 -2.29688,1.03125 -0.5,0.6875 -0.75,1.692707 -0.75,3.01562 l 0,9.35938 -4.54687,0 0,-10.1875 c 0,-1.093753 -0.20833,-1.901047 -0.625,-2.42188 -0.41667,-0.531247 -1.11979,-0.79687 -2.10938,-0.79687 -0.86458,0 -1.59375,0.333333 -2.1875,1 -0.59375,0.666667 -0.89062,1.567707 -0.89062,2.70312 l 0,9.70313 -4.546879,0 0,-16.54688 4.281249,0 0,2.25 0.0625,0 c 0.64583,-0.906247 1.39063,-1.57812 2.23438,-2.01562 0.85417,-0.44792 1.79687,-0.67188 2.82812,-0.67188 z m 27.04687,0 c 2.44792,0 4.26563,0.401043 5.45313,1.20313 1.19791,0.80208 1.79687,1.932287 1.79687,3.39062 l 0,8.875 c 0,0.666667 0.0417,1.333333 0.125,2 0.0937,0.666667 0.2448,1.171877 0.45313,1.51563 l -4.60938,0 c -0.0833,-0.25 -0.15625,-0.50521 -0.21875,-0.76563 -0.0521,-0.270833 -0.0885,-0.541667 -0.10937,-0.8125 -0.63542,0.656253 -1.42709,1.161463 -2.375,1.51563 -0.9375,0.343747 -2,0.51562 -3.1875,0.51562 -1.70833,0 -3.07292,-0.427083 -4.09375,-1.28125 -1.02083,-0.86458 -1.53125,-2.093747 -1.53125,-3.6875 0,-1.541667 0.47917,-2.71875 1.4375,-3.53125 0.95833,-0.822913 2.70312,-1.374997 5.23437,-1.65625 1.76042,-0.166667 2.92188,-0.380207 3.48438,-0.64062 0.5625,-0.270833 0.84375,-0.734377 0.84375,-1.39063 0,-0.73958 -0.21875,-1.291663 -0.65625,-1.65625 -0.42709,-0.375 -1.1823,-0.5625 -2.26563,-0.5625 -0.9375,0 -1.65625,0.203127 -2.15625,0.60938 -0.5,0.395833 -0.79167,1.02604 -0.875,1.89062 l -4.54687,0 c 0.125,-1.8125 0.86979,-3.1875 2.23437,-4.125 1.375,-0.9375 3.22917,-1.40625 5.5625,-1.40625 z m -3.76562,12.28125 c 0,0.656253 0.22396,1.17188 0.67187,1.54688 0.44792,0.375 1.15625,0.5625 2.125,0.5625 1.20833,0 2.11979,-0.31771 2.73438,-0.95313 0.625,-0.635413 0.9375,-1.562497 0.9375,-2.78125 l 0,-1.76562 c -0.27083,0.218747 -0.63021,0.385413 -1.07813,0.5 -0.4375,0.104167 -1.23437,0.239583 -2.39062,0.40625 -1.03125,0.135413 -1.79167,0.406247 -2.28125,0.8125 -0.47917,0.395833 -0.71875,0.953123 -0.71875,1.67187 z m 21.32812,-12.28125 c 2.25,0 3.98438,0.447917 5.20313,1.34375 1.22917,0.88542 1.92708,2.192713 2.09375,3.92188 l -4.32813,0 c -0.0625,-0.781253 -0.35413,-1.348963 -0.875,-1.70313 -0.52083,-0.354167 -1.26562,-0.53125 -2.23437,-0.53125 -0.875,0 -1.51563,0.13021 -1.92188,0.39063 -0.39583,0.260413 -0.59375,0.64062 -0.59375,1.14062 0,0.51042 0.26042,0.932297 0.78125,1.26563 0.53125,0.322913 1.59375,0.635413 3.1875,0.9375 2.54167,0.48958 4.24479,1.119787 5.10938,1.89062 0.875,0.770833 1.3125,1.78125 1.3125,3.03125 0,1.875 -0.6875,3.302083 -2.0625,4.28125 -1.36459,0.979167 -3.19271,1.46875 -5.48438,1.46875 -2.29167,0 -4.14062,-0.484373 -5.54687,-1.45312 -1.39583,-0.979167 -2.14063,-2.4375 -2.23438,-4.375 l 4.32813,0 c 0,0.875 0.32812,1.55729 0.98437,2.04687 0.66667,0.489587 1.5,0.73438 2.5,0.73438 0.88542,0 1.60417,-0.1875 2.15625,-0.5625 0.55209,-0.38542 0.82813,-0.901047 0.82813,-1.54688 0,-0.572913 -0.35938,-1.041663 -1.07813,-1.40625 -0.71875,-0.36458 -2.03645,-0.744787 -3.95312,-1.14062 -1.89583,-0.375 -3.26563,-0.91146 -4.10938,-1.60938 -0.84375,-0.697913 -1.26562,-1.64062 -1.26562,-2.82812 0,-1.75 0.61979,-3.06771 1.85937,-3.95313 1.23959,-0.895833 3.02084,-1.34375 5.34375,-1.34375 z m 16.15626,-4.51562 0,4.95312 3.32812,0 0,3.04688 -3.32812,0 0,8.29687 c 0,0.677087 0.125,1.151047 0.375,1.42188 0.26041,0.260413 0.77604,0.39062 1.54687,0.39062 0.26042,0 0.51042,-0.0104 0.75,-0.0312 0.23959,-0.0208 0.45834,-0.05203 0.65625,-0.0937 l 0,3.54688 c -0.375,0.06247 -0.79687,0.104133 -1.26562,0.125 -0.45833,0.0208 -0.91146,0.0312 -1.35938,0.0312 -1.96875,0 -3.33854,-0.333333 -4.10937,-1 -0.76042,-0.677087 -1.14063,-1.619797 -1.14063,-2.82813 l 0,-9.85937 -2.75,0 0,-3.04688 2.75,0 0,-4.95312 4.54688,0 z m 13.15625,4.51562 c 2.44791,0 4.40104,0.84375 5.85938,2.53125 1.46875,1.677087 2.20312,3.82292 2.20312,6.4375 l -0.0312,0.84375 -11.9375,0 c 0.0625,1.427087 0.43226,2.48438 1.10937,3.17188 0.6875,0.6875 1.66667,1.03125 2.9375,1.03125 0.82292,0 1.58334,-0.208333 2.28125,-0.625 0.69792,-0.427087 1.14063,-0.937503 1.32813,-1.53125 l 4,0 c -0.61458,1.875 -1.5625,3.27604 -2.84375,4.20312 -1.28125,0.916667 -2.91667,1.375 -4.90625,1.375 -2.55209,0 -4.59896,-0.80729 -6.14063,-2.42187 -1.54167,-1.614587 -2.3125,-3.708337 -2.3125,-6.28125 0,-2.468753 0.78646,-4.54167 2.35938,-6.21875 1.58333,-1.677087 3.61458,-2.51563 6.09375,-2.51563 z m -3.90625,6.9375 7.39062,0 c -0.21875,-1.218747 -0.61458,-2.10937 -1.1875,-2.67187 -0.5625,-0.5625 -1.38021,-0.84375 -2.45312,-0.84375 -1.10417,0 -1.97917,0.3125 -2.625,0.9375 -0.64583,0.625 -1.02083,1.484373 -1.125,2.57812 z m 24.281251,-6.9375 c 0.19792,0 0.38021,0.01563 0.54688,0.0469 0.16667,0.0208 0.32292,0.05726 0.46875,0.10937 l 0,4.21875 c -0.26042,-0.05207 -0.51563,-0.08852 -0.76563,-0.10937 -0.23958,-0.03127 -0.52604,-0.0469 -0.85937,-0.0469 -1.53125,0 -2.66667,0.46875 -3.406251,1.40625 -0.72917,0.9375 -1.09375,2.19271 -1.09375,3.76563 l 0,7.59375 -4.53125,0 0,-16.54688 4.3125,0 0,3.07813 0.0625,0 c 0.47917,-1.083333 1.19271,-1.9375 2.140621,-2.5625 0.95833,-0.63542 2,-0.95313 3.125,-0.95313 z"
     sodipodi:nodetypes="scccsssccscscsccscssscccccccsscssccccccscscccscsccccsssscsccccssccccscscccscsccccscsscsscscccccscsscccscscccccccccccccsccccsssccccccsscsccccscscccccccs" />
</svg>
