<?xml version="1.0" encoding="UTF-8" standalone="no"?>
<svg
   xmlns:dc="http://purl.org/dc/elements/1.1/"
   xmlns:cc="http://creativecommons.org/ns#"
   xmlns:rdf="http://www.w3.org/1999/02/22-rdf-syntax-ns#"
   xmlns:svg="http://www.w3.org/2000/svg"
   xmlns="http://www.w3.org/2000/svg"
   xmlns:sodipodi="http://sodipodi.sourceforge.net/DTD/sodipodi-0.dtd"
   xmlns:inkscape="http://www.inkscape.org/namespaces/inkscape"
   version="1.1"
   viewBox="0.0 0.0 960.0 540.0"
   fill="none"
   stroke="none"
   stroke-linecap="square"
   stroke-miterlimit="10"
   id="svg13575"
   inkscape:version="0.48.4 r9939"
   width="100%"
   height="100%"
   sodipodi:docname="gitflow-release-merge.svg">
  <metadata
     id="metadata13702">
    <rdf:RDF>
      <cc:Work
         rdf:about="">
        <dc:format>image/svg+xml</dc:format>
        <dc:type
           rdf:resource="http://purl.org/dc/dcmitype/StillImage" />
      </cc:Work>
    </rdf:RDF>
  </metadata>
  <defs
     id="defs13700" />
  <sodipodi:namedview
     pagecolor="#ffffff"
     bordercolor="#666666"
     borderopacity="1"
     objecttolerance="10"
     gridtolerance="10"
     guidetolerance="10"
     inkscape:pageopacity="0"
     inkscape:pageshadow="2"
     inkscape:window-width="1598"
     inkscape:window-height="866"
     id="namedview13698"
     showgrid="false"
     inkscape:zoom="0.98567708"
     inkscape:cx="480"
     inkscape:cy="270"
     inkscape:window-x="0"
     inkscape:window-y="32"
     inkscape:window-maximized="0"
     inkscape:current-layer="svg13575" />
  <clipPath
     id="g3593cc936_096.0">
    <path
       d="m0 0l960.0 0l0 540.0l-960.0 0l0 -540.0z"
       clip-rule="nonzero"
       id="path13578" />
  </clipPath>
  <path
     style="fill:#ffd966;fill-rule:nonzero"
     inkscape:connector-curvature="0"
     id="path13584"
     d="m 258.0761,482.55643 0,0 c 0,-19.03861 15.43384,-34.47244 34.47244,-34.47244 l 0,0 c 9.14267,0 17.91086,3.63192 24.3757,10.09674 6.46485,6.46484 10.09675,15.23303 10.09675,24.3757 l 0,0 c 0,19.0386 -15.43384,34.47244 -34.47245,34.47244 l 0,0 c -19.0386,0 -34.47244,-15.43384 -34.47244,-34.47244 z" />
  <path
     style="stroke:#666666;stroke-width:2;stroke-linecap:butt;stroke-linejoin:round"
     inkscape:connector-curvature="0"
     id="path13586"
     d="m 258.0761,482.55643 0,0 c 0,-19.03861 15.43384,-34.47244 34.47244,-34.47244 l 0,0 c 9.14267,0 17.91086,3.63192 24.3757,10.09674 6.46485,6.46484 10.09675,15.23303 10.09675,24.3757 l 0,0 c 0,19.0386 -15.43384,34.47244 -34.47245,34.47244 l 0,0 c -19.0386,0 -34.47244,-15.43384 -34.47244,-34.47244 z" />
  <path
     style="fill:#000000;fill-opacity:0;fill-rule:nonzero"
     inkscape:connector-curvature="0"
     id="path13588"
     d="m 258.0761,482.55643 -258.07874,0" />
  <path
     style="stroke:#666666;stroke-width:2;stroke-linecap:butt;stroke-linejoin:round"
     inkscape:connector-curvature="0"
     id="path13590"
     d="m 246.07611,482.55643 -246.07874,0" />
  <path
     style="fill:#666666;fill-rule:evenodd;stroke:#666666;stroke-width:2;stroke-linecap:butt"
     inkscape:connector-curvature="0"
     id="path13592"
     d="m 246.07611,485.8599 9.0762,-3.30347 -9.0762,-3.30346 z" />
  <path
     style="fill:#93c47d;fill-rule:nonzero"
     inkscape:connector-curvature="0"
     id="path13594"
     d="m 366.79266,343.00787 0,0 c 0,-19.03861 15.43384,-34.47244 34.47244,-34.47244 l 0,0 c 9.14264,0 17.91086,3.63189 24.37567,10.09674 6.46485,6.46484 10.09675,15.23303 10.09675,24.3757 l 0,0 c 0,19.03861 -15.43384,34.47244 -34.47242,34.47244 l 0,0 c -19.0386,0 -34.47244,-15.43383 -34.47244,-34.47244 z" />
  <path
     style="stroke:#666666;stroke-width:2;stroke-linecap:butt;stroke-linejoin:round"
     inkscape:connector-curvature="0"
     id="path13596"
     d="m 366.79266,343.00787 0,0 c 0,-19.03861 15.43384,-34.47244 34.47244,-34.47244 l 0,0 c 9.14264,0 17.91086,3.63189 24.37567,10.09674 6.46485,6.46484 10.09675,15.23303 10.09675,24.3757 l 0,0 c 0,19.03861 -15.43384,34.47244 -34.47242,34.47244 l 0,0 c -19.0386,0 -34.47244,-15.43383 -34.47244,-34.47244 z" />
  <path
     style="fill:#000000;fill-opacity:0;fill-rule:nonzero"
     inkscape:connector-curvature="0"
     id="path13598"
     d="m 316.92426,458.18073 59.96515,-90.79715" />
  <path
     style="stroke:#666666;stroke-width:2;stroke-linecap:butt;stroke-linejoin:round"
     inkscape:connector-curvature="0"
     id="path13600"
     d="m 316.92426,458.18073 53.35202,-80.78381" />
  <path
     style="fill:#666666;fill-rule:evenodd;stroke:#666666;stroke-width:2;stroke-linecap:butt"
     inkscape:connector-curvature="0"
     id="path13602"
     d="m 373.03284,379.2174 2.24527,-9.39407 -7.75836,5.75305 z" />
  <path
     style="fill:#000000;fill-opacity:0;fill-rule:nonzero"
     inkscape:connector-curvature="0"
     id="path13604"
     d="m 83.96063,267.87402 292.9449,0 0,40.66141 -292.9449,0 z" />
  <path
     style="fill:#434343;fill-rule:nonzero"
     inkscape:connector-curvature="0"
     id="path13606"
     d="m 210.37427,290.60965 q 0.29687,0 0.54687,0.0469 0.25,0.0312 0.46875,0.10938 l 0,4.21875 q -0.39062,-0.0781 -0.76562,-0.10938 -0.35938,-0.0469 -0.85938,-0.0469 -2.29687,0 -3.40625,1.40625 -1.09375,1.40625 -1.09375,3.76562 l 0,7.59375 -4.53125,0 0,-16.54687 4.3125,0 0,3.07812 0.0625,0 q 0.71875,-1.625 2.14063,-2.5625 1.4375,-0.95312 3.125,-0.95312 z m 10.45312,0 q 3.67188,0 5.85938,2.53125 2.20312,2.51562 2.20312,6.4375 l -0.0312,0.84375 -11.9375,0 q 0.0937,2.14062 1.10938,3.17187 1.03125,1.03125 2.9375,1.03125 1.23437,0 2.28125,-0.625 1.04687,-0.64062 1.32812,-1.53125 l 4,0 q -0.92187,2.8125 -2.84375,4.20313 -1.92187,1.375 -4.90625,1.375 -3.82812,0 -6.14062,-2.42188 -2.3125,-2.42187 -2.3125,-6.28125 0,-3.70312 2.35937,-6.21875 2.375,-2.51562 6.09375,-2.51562 z m -3.90625,6.9375 7.39063,0 q -0.32813,-1.82813 -1.1875,-2.67188 -0.84375,-0.84375 -2.45313,-0.84375 -1.65625,0 -2.625,0.9375 -0.96875,0.9375 -1.125,2.57813 z m 19.3125,-12.79688 0,22.84375 -4.54687,0 0,-22.84375 4.54687,0 z m 11.21875,5.85938 q 3.67188,0 5.85938,2.53125 2.20312,2.51562 2.20312,6.4375 l -0.0312,0.84375 -11.9375,0 q 0.0937,2.14062 1.10938,3.17187 1.03125,1.03125 2.9375,1.03125 1.23437,0 2.28125,-0.625 1.04687,-0.64062 1.32812,-1.53125 l 4,0 q -0.92187,2.8125 -2.84375,4.20313 -1.92187,1.375 -4.90625,1.375 -3.82812,0 -6.14062,-2.42188 -2.3125,-2.42187 -2.3125,-6.28125 0,-3.70312 2.35937,-6.21875 2.375,-2.51562 6.09375,-2.51562 z m -3.90625,6.9375 7.39063,0 q -0.32813,-1.82813 -1.1875,-2.67188 -0.84375,-0.84375 -2.45313,-0.84375 -1.65625,0 -2.625,0.9375 -0.96875,0.9375 -1.125,2.57813 z m 22.23438,-6.9375 q 3.67188,0 5.45313,1.20312 1.79687,1.20313 1.79687,3.39063 l 0,8.875 q 0,1 0.125,2 0.14063,1 0.45313,1.51562 l -4.60938,0 q -0.125,-0.375 -0.21875,-0.76562 -0.0781,-0.40625 -0.10937,-0.8125 -0.95313,0.98437 -2.375,1.51562 -1.40625,0.51563 -3.1875,0.51563 -2.5625,0 -4.09375,-1.28125 -1.53125,-1.29688 -1.53125,-3.6875 0,-2.3125 1.4375,-3.53125 1.4375,-1.23438 5.23437,-1.65625 2.64063,-0.25 3.48438,-0.64063 0.84375,-0.40625 0.84375,-1.39062 0,-1.10938 -0.65625,-1.65625 -0.64063,-0.5625 -2.26563,-0.5625 -1.40625,0 -2.15625,0.60937 -0.75,0.59375 -0.875,1.89063 l -4.54687,0 q 0.1875,-2.71875 2.23437,-4.125 2.0625,-1.40625 5.5625,-1.40625 z m -3.76562,12.28125 q 0,0.98437 0.67187,1.54687 0.67188,0.5625 2.125,0.5625 1.8125,0 2.73438,-0.95312 0.9375,-0.95313 0.9375,-2.78125 l 0,-1.76563 q -0.40625,0.32813 -1.07813,0.5 -0.65625,0.15625 -2.39062,0.40625 -1.54688,0.20313 -2.28125,0.8125 -0.71875,0.59375 -0.71875,1.67188 z m 21.32812,-12.28125 q 3.375,0 5.20313,1.34375 1.84375,1.32812 2.09375,3.92187 l -4.32813,0 q -0.0937,-1.17187 -0.875,-1.70312 -0.78125,-0.53125 -2.23437,-0.53125 -1.3125,0 -1.92188,0.39062 -0.59375,0.39063 -0.59375,1.14063 0,0.76562 0.78125,1.26562 0.79688,0.48438 3.1875,0.9375 3.8125,0.73438 5.10938,1.89063 1.3125,1.15625 1.3125,3.03125 0,2.8125 -2.0625,4.28125 -2.04688,1.46875 -5.48438,1.46875 -3.4375,0 -5.54687,-1.45313 -2.09375,-1.46875 -2.23438,-4.375 l 4.32813,0 q 0,1.3125 0.98437,2.04688 1,0.73437 2.5,0.73437 1.32813,0 2.15625,-0.5625 0.82813,-0.57812 0.82813,-1.54687 0,-0.85938 -1.07813,-1.40625 -1.07812,-0.54688 -3.95312,-1.14063 -2.84375,-0.5625 -4.10938,-1.60937 -1.26562,-1.04688 -1.26562,-2.82813 0,-2.625 1.85937,-3.95312 1.85938,-1.34375 5.34375,-1.34375 z m 18.04688,0 q 3.67187,0 5.85937,2.53125 2.20313,2.51562 2.20313,6.4375 l -0.0312,0.84375 -11.9375,0 q 0.0937,2.14062 1.10937,3.17187 1.03125,1.03125 2.9375,1.03125 1.23438,0 2.28125,-0.625 1.04688,-0.64062 1.32813,-1.53125 l 4,0 q -0.92188,2.8125 -2.84375,4.20313 -1.92188,1.375 -4.90625,1.375 -3.82813,0 -6.14063,-2.42188 -2.3125,-2.42187 -2.3125,-6.28125 0,-3.70312 2.35938,-6.21875 2.375,-2.51562 6.09375,-2.51562 z m -3.90625,6.9375 7.39062,0 q -0.32812,-1.82813 -1.1875,-2.67188 -0.84375,-0.84375 -2.45312,-0.84375 -1.65625,0 -2.625,0.9375 -0.96875,0.9375 -1.125,2.57813 z m 24.23437,-0.64063 0,3.90625 -9.625,0 0,-3.90625 9.625,0 z m 10.5625,-12.15625 q 4.01563,0 6.14063,2.9375 2.125,2.92188 2.125,8.60938 0,5.76562 -2.10938,8.76562 -2.10937,2.98438 -6.15625,2.98438 -4,0 -6.09375,-2.96875 -2.09375,-2.98438 -2.09375,-8.78125 0,-5.65625 2.07813,-8.59375 2.09375,-2.95313 6.10937,-2.95313 z m -3.64062,11.57813 q 0,3.46875 0.46875,5.04687 0.48437,1.5625 1.28125,2.25 0.79687,0.67188 1.89062,0.67188 1.79688,0 2.75,-1.75 0.96875,-1.76563 0.96875,-6.23438 0,-4.29687 -0.96875,-6.0625 -0.95312,-1.76562 -2.76562,-1.76562 -1.71875,0 -2.67188,1.70312 -0.95312,1.70313 -0.95312,6.14063 z m 19.51562,6.34375 0,4.92187 -5.01562,0 0,-4.92187 5.01562,0 z m 16.25,-17.48438 0,13.48438 2.98438,0 0,3.73437 -2.98438,0 0,5.1875 -4.3125,0 0,-5.1875 -9.46875,0 0,-4.15625 9.71875,-13.0625 4.0625,0 z m -4.40625,5.70313 -5.79687,7.78125 5.89062,0 0,-7.78125 -0.0937,0 z" />
  <path
     style="fill:#000000;fill-opacity:0;fill-rule:nonzero"
     inkscape:connector-curvature="0"
     id="path13608"
     d="m 435.73752,343.00787 60.18899,0" />
  <path
     style="stroke:#666666;stroke-width:2;stroke-linecap:butt;stroke-linejoin:round"
     inkscape:connector-curvature="0"
     id="path13610"
     d="m 435.73752,343.00787 48.18899,0" />
  <path
     style="fill:#666666;fill-rule:evenodd;stroke:#666666;stroke-width:2;stroke-linecap:butt"
     inkscape:connector-curvature="0"
     id="path13612"
     d="m 483.9265,346.31134 9.0762,-3.30347 -9.0762,-3.30346 z" />
  <path
     style="fill:#93c47d;fill-rule:nonzero"
     inkscape:connector-curvature="0"
     id="path13614"
     d="m 495.9265,343.00787 0,0 c 0,-19.03861 15.43384,-34.47244 34.47241,-34.47244 l 0,0 c 9.1427,0 17.91089,3.63189 24.37573,10.09674 6.46485,6.46484 10.09674,15.23303 10.09674,24.3757 l 0,0 c 0,19.03861 -15.43383,34.47244 -34.47247,34.47244 l 0,0 c -19.03857,0 -34.47241,-15.43383 -34.47241,-34.47244 z" />
  <path
     style="stroke:#666666;stroke-width:2;stroke-linecap:butt;stroke-linejoin:round"
     inkscape:connector-curvature="0"
     id="path13616"
     d="m 495.9265,343.00787 0,0 c 0,-19.03861 15.43384,-34.47244 34.47241,-34.47244 l 0,0 c 9.1427,0 17.91089,3.63189 24.37573,10.09674 6.46485,6.46484 10.09674,15.23303 10.09674,24.3757 l 0,0 c 0,19.03861 -15.43383,34.47244 -34.47247,34.47244 l 0,0 c -19.03857,0 -34.47241,-15.43383 -34.47241,-34.47244 z" />
  <path
     style="fill:#93c47d;fill-rule:nonzero"
     inkscape:connector-curvature="0"
     id="path13618"
     d="m 625.06036,343.00787 0,0 c 0,-19.03861 15.43384,-34.47244 34.47247,-34.47244 l 0,0 c 9.14264,0 17.91083,3.63189 24.37567,10.09674 6.46485,6.46484 10.09674,15.23303 10.09674,24.3757 l 0,0 c 0,19.03861 -15.43383,34.47244 -34.47241,34.47244 l 0,0 c -19.03863,0 -34.47247,-15.43383 -34.47247,-34.47244 z" />
  <path
     style="stroke:#666666;stroke-width:2;stroke-linecap:butt;stroke-linejoin:round"
     inkscape:connector-curvature="0"
     id="path13620"
     d="m 625.06036,343.00787 0,0 c 0,-19.03861 15.43384,-34.47244 34.47247,-34.47244 l 0,0 c 9.14264,0 17.91083,3.63189 24.37567,10.09674 6.46485,6.46484 10.09674,15.23303 10.09674,24.3757 l 0,0 c 0,19.03861 -15.43383,34.47244 -34.47241,34.47244 l 0,0 c -19.03863,0 -34.47247,-15.43383 -34.47247,-34.47244 z" />
  <path
     style="fill:#000000;fill-opacity:0;fill-rule:nonzero"
     inkscape:connector-curvature="0"
     id="path13622"
     d="m 564.8714,343.00787 60.18897,0" />
  <path
     style="stroke:#666666;stroke-width:2;stroke-linecap:butt;stroke-linejoin:round"
     inkscape:connector-curvature="0"
     id="path13624"
     d="m 564.8714,343.00787 48.18897,0" />
  <path
     style="fill:#666666;fill-rule:evenodd;stroke:#666666;stroke-width:2;stroke-linecap:butt"
     inkscape:connector-curvature="0"
     id="path13626"
     d="m 613.06036,346.31134 9.07617,-3.30347 -9.07617,-3.30346 z" />
  <path
     style="fill:#ffd966;fill-rule:nonzero"
     inkscape:connector-curvature="0"
     id="path13628"
     d="m 414.60104,482.55643 0,0 c 0,-19.03861 15.43384,-34.47244 34.47244,-34.47244 l 0,0 c 9.14267,0 17.91086,3.63192 24.3757,10.09674 6.46485,6.46484 10.09675,15.23303 10.09675,24.3757 l 0,0 c 0,19.0386 -15.43384,34.47244 -34.47245,34.47244 l 0,0 c -19.0386,0 -34.47244,-15.43384 -34.47244,-34.47244 z" />
  <path
     style="stroke:#666666;stroke-width:2;stroke-linecap:butt;stroke-linejoin:round"
     inkscape:connector-curvature="0"
     id="path13630"
     d="m 414.60104,482.55643 0,0 c 0,-19.03861 15.43384,-34.47244 34.47244,-34.47244 l 0,0 c 9.14267,0 17.91086,3.63192 24.3757,10.09674 6.46485,6.46484 10.09675,15.23303 10.09675,24.3757 l 0,0 c 0,19.0386 -15.43384,34.47244 -34.47245,34.47244 l 0,0 c -19.0386,0 -34.47244,-15.43384 -34.47244,-34.47244 z" />
  <path
     style="fill:#000000;fill-opacity:0;fill-rule:nonzero"
     inkscape:connector-curvature="0"
     id="path13632"
     d="m 327.0105,482.55643 87.59055,0" />
  <path
     style="stroke:#666666;stroke-width:2;stroke-linecap:butt;stroke-linejoin:round"
     inkscape:connector-curvature="0"
     id="path13634"
     d="m 327.0105,482.55643 75.59055,0" />
  <path
     style="fill:#666666;fill-rule:evenodd;stroke:#666666;stroke-width:2;stroke-linecap:butt"
     inkscape:connector-curvature="0"
     id="path13636"
     d="m 402.60104,485.8599 9.0762,-3.30347 -9.0762,-3.30346 z" />
  <path
     style="fill:#ffd966;fill-rule:nonzero"
     inkscape:connector-curvature="0"
     id="path13638"
     d="m 765.5617,482.55643 0,0 c 0,-19.03861 15.43384,-34.47244 34.47241,-34.47244 l 0,0 c 9.14264,0 17.91089,3.63192 24.37567,10.09674 6.46485,6.46484 10.09674,15.23303 10.09674,24.3757 l 0,0 c 0,19.0386 -15.43383,34.47244 -34.47241,34.47244 l 0,0 c -19.03857,0 -34.47241,-15.43384 -34.47241,-34.47244 z" />
  <path
     style="stroke:#666666;stroke-width:2;stroke-linecap:butt;stroke-linejoin:round"
     inkscape:connector-curvature="0"
     id="path13640"
     d="m 765.5617,482.55643 0,0 c 0,-19.03861 15.43384,-34.47244 34.47241,-34.47244 l 0,0 c 9.14264,0 17.91089,3.63192 24.37567,10.09674 6.46485,6.46484 10.09674,15.23303 10.09674,24.3757 l 0,0 c 0,19.0386 -15.43383,34.47244 -34.47241,34.47244 l 0,0 c -19.03857,0 -34.47241,-15.43384 -34.47241,-34.47244 z" />
  <path
     style="fill:#000000;fill-opacity:0;fill-rule:nonzero"
     inkscape:connector-curvature="0"
     id="path13642"
     d="m 483.54593,482.55643 282.01578,0" />
  <path
     style="stroke:#666666;stroke-width:2;stroke-linecap:butt;stroke-linejoin:round"
     inkscape:connector-curvature="0"
     id="path13644"
     d="m 483.54593,482.55643 270.01578,0" />
  <path
     style="fill:#666666;fill-rule:evenodd;stroke:#666666;stroke-width:2;stroke-linecap:butt"
     inkscape:connector-curvature="0"
     id="path13646"
     d="m 753.5617,485.8599 9.07617,-3.30347 -9.07617,-3.30346 z" />
  <path
     style="fill:#000000;fill-opacity:0;fill-rule:nonzero"
     inkscape:connector-curvature="0"
     id="path13648"
     d="m 834.50653,482.55643 126.17328,0" />
  <path
     style="stroke:#666666;stroke-width:2;stroke-linecap:butt;stroke-linejoin:round"
     inkscape:connector-curvature="0"
     id="path13650"
     d="m 834.50653,482.55643 126.17328,0" />
  <path
     style="fill:#000000;fill-opacity:0;fill-rule:nonzero"
     inkscape:connector-curvature="0"
     id="path13652"
     d="m 683.9104,367.3776 91.74805,90.80313" />
  <path
     style="stroke:#666666;stroke-width:2;stroke-linecap:butt;stroke-linejoin:round"
     inkscape:connector-curvature="0"
     id="path13654"
     d="m 683.9104,367.3776 83.21893,82.36191" />
  <path
     style="fill:#666666;fill-rule:evenodd;stroke:#666666;stroke-width:2;stroke-linecap:butt"
     inkscape:connector-curvature="0"
     id="path13656"
     d="m 764.8056,452.08746 8.77472,4.03656 -4.12714,-8.73251 z" />
  <path
     style="fill:#6d9eeb;fill-rule:nonzero"
     inkscape:connector-curvature="0"
     id="path13658"
     d="m 771.7402,179.4147 0,0 c 0,-19.0386 15.43384,-34.47244 34.47241,-34.47244 l 0,0 c 9.1427,0 17.91089,3.63189 24.37573,10.09674 6.46479,6.46484 10.09674,15.23303 10.09674,24.3757 l 0,0 c 0,19.03859 -15.43383,34.47243 -34.47247,34.47243 l 0,0 c -19.03857,0 -34.47241,-15.43384 -34.47241,-34.47243 z" />
  <path
     style="stroke:#666666;stroke-width:2;stroke-linecap:butt;stroke-linejoin:round"
     inkscape:connector-curvature="0"
     id="path13660"
     d="m 771.7402,179.4147 0,0 c 0,-19.0386 15.43384,-34.47244 34.47241,-34.47244 l 0,0 c 9.1427,0 17.91089,3.63189 24.37573,10.09674 6.46479,6.46484 10.09674,15.23303 10.09674,24.3757 l 0,0 c 0,19.03859 -15.43383,34.47243 -34.47247,34.47243 l 0,0 c -19.03857,0 -34.47241,-15.43384 -34.47241,-34.47243 z" />
  <path
     style="fill:#000000;fill-opacity:0;fill-rule:nonzero"
     inkscape:connector-curvature="0"
     id="path13662"
     d="m -0.00786717,179.4147 771.74804717,0" />
  <path
     style="stroke:#666666;stroke-width:2;stroke-linecap:butt;stroke-linejoin:round"
     inkscape:connector-curvature="0"
     id="path13664"
     d="m -0.00786717,179.4147 759.74804717,0" />
  <path
     style="fill:#666666;fill-rule:evenodd;stroke:#666666;stroke-width:2;stroke-linecap:butt"
     inkscape:connector-curvature="0"
     id="path13666"
     d="m 759.7402,182.71817 9.07617,-3.30347 -9.07617,-3.30346 z" />
  <path
     style="fill:#000000;fill-opacity:0;fill-rule:nonzero"
     inkscape:connector-curvature="0"
     id="path13668"
     d="m 840.68506,179.4147 119.1181,0" />
  <path
     style="stroke:#666666;stroke-width:2;stroke-linecap:butt;stroke-linejoin:round"
     inkscape:connector-curvature="0"
     id="path13670"
     d="m 840.68506,179.4147 119.1181,0" />
  <path
     style="fill:#000000;fill-opacity:0;fill-rule:nonzero"
     inkscape:connector-curvature="0"
     id="path13672"
     d="m 26.03412,124.61942 138.36221,0 0,40.66141 -138.36221,0 z" />
  <path
     style="fill:#434343;fill-rule:nonzero"
     inkscape:connector-curvature="0"
     id="path13674"
     d="m 46.299747,147.35504 q 1.84375,0 3.046875,0.71875 1.203125,0.70312 1.78125,2.03125 0.9375,-1.32813 2.21875,-2.03125 1.28125,-0.71875 2.796875,-0.71875 3,0 4.515625,1.53125 1.515625,1.53125 1.515625,4.23437 l 0,11.21875 -4.546875,0 0,-9.5625 q 0,-2.26562 -0.671875,-3.04687 -0.65625,-0.79688 -2.109375,-0.79688 -1.53125,0 -2.296875,1.03125 -0.75,1.03125 -0.75,3.01563 l 0,9.35937 -4.546875,0 0,-10.1875 q 0,-1.64062 -0.625,-2.42187 -0.625,-0.79688 -2.109375,-0.79688 -1.296875,0 -2.1875,1 -0.890625,1 -0.890625,2.70313 l 0,9.70312 -4.546875,0 0,-16.54687 4.28125,0 0,2.25 0.0625,0 q 0.96875,-1.35938 2.234375,-2.01563 1.28125,-0.67187 2.828125,-0.67187 z m 27.046871,0 q 3.671875,0 5.453125,1.20312 1.796875,1.20313 1.796875,3.39063 l 0,8.875 q 0,1 0.125,2 0.140625,1 0.453125,1.51562 l -4.609375,0 q -0.125,-0.375 -0.21875,-0.76562 -0.07813,-0.40625 -0.109375,-0.8125 -0.953125,0.98437 -2.375,1.51562 -1.40625,0.51563 -3.1875,0.51563 -2.5625,0 -4.09375,-1.28125 -1.53125,-1.29688 -1.53125,-3.6875 0,-2.3125 1.4375,-3.53125 1.4375,-1.23438 5.234375,-1.65625 2.640625,-0.25 3.484375,-0.64063 0.84375,-0.40625 0.84375,-1.39062 0,-1.10938 -0.65625,-1.65625 -0.640625,-0.5625 -2.265625,-0.5625 -1.40625,0 -2.15625,0.60937 -0.75,0.59375 -0.875,1.89063 l -4.546875,0 q 0.1875,-2.71875 2.234375,-4.125 2.0625,-1.40625 5.5625,-1.40625 z m -3.765625,12.28125 q 0,0.98437 0.671875,1.54687 0.671875,0.5625 2.125,0.5625 1.8125,0 2.734375,-0.95312 0.9375,-0.95313 0.9375,-2.78125 l 0,-1.76563 q -0.40625,0.32813 -1.078125,0.5 -0.65625,0.15625 -2.390625,0.40625 -1.546875,0.20313 -2.28125,0.8125 -0.71875,0.59375 -0.71875,1.67188 z m 21.328125,-12.28125 q 3.375,0 5.203125,1.34375 1.84375,1.32812 2.09375,3.92187 l -4.328125,0 q -0.09375,-1.17187 -0.875,-1.70312 -0.78125,-0.53125 -2.234375,-0.53125 -1.3125,0 -1.921875,0.39062 -0.59375,0.39063 -0.59375,1.14063 0,0.76562 0.78125,1.26562 0.796875,0.48438 3.1875,0.9375 3.8125,0.73438 5.109375,1.89063 1.3125,1.15625 1.3125,3.03125 0,2.8125 -2.0625,4.28125 -2.046875,1.46875 -5.484375,1.46875 -3.4375,0 -5.546875,-1.45313 -2.09375,-1.46875 -2.234375,-4.375 l 4.328125,0 q 0,1.3125 0.984375,2.04688 1,0.73437 2.5,0.73437 1.328125,0 2.15625,-0.5625 0.828125,-0.57812 0.828125,-1.54687 0,-0.85938 -1.078125,-1.40625 -1.078125,-0.54688 -3.953125,-1.14063 -2.84375,-0.5625 -4.109375,-1.60937 -1.265625,-1.04688 -1.265625,-2.82813 0,-2.625 1.859375,-3.95312 1.859375,-1.34375 5.34375,-1.34375 z m 16.156252,-4.51563 0,4.95313 3.32812,0 0,3.04687 -3.32812,0 0,8.29688 q 0,1.01562 0.375,1.42187 0.39062,0.39063 1.54687,0.39063 0.39063,0 0.75,-0.0312 0.35938,-0.0312 0.65625,-0.0937 l 0,3.54687 q -0.5625,0.0937 -1.26562,0.125 -0.6875,0.0312 -1.35938,0.0312 -2.95312,0 -4.10937,-1 -1.14063,-1.01562 -1.14063,-2.82812 l 0,-9.85938 -2.749997,0 0,-3.04687 2.749997,0 0,-4.95313 4.54688,0 z m 13.15625,4.51563 q 3.67187,0 5.85937,2.53125 2.20313,2.51562 2.20313,6.4375 l -0.0312,0.84375 -11.9375,0 q 0.0937,2.14062 1.10937,3.17187 1.03125,1.03125 2.9375,1.03125 1.23438,0 2.28125,-0.625 1.04688,-0.64062 1.32813,-1.53125 l 4,0 q -0.92188,2.8125 -2.84375,4.20313 -1.92188,1.375 -4.90625,1.375 -3.82813,0 -6.14063,-2.42188 -2.3125,-2.42187 -2.3125,-6.28125 0,-3.70312 2.35938,-6.21875 2.375,-2.51562 6.09375,-2.51562 z m -3.90625,6.9375 7.39062,0 q -0.32812,-1.82813 -1.1875,-2.67188 -0.84375,-0.84375 -2.45312,-0.84375 -1.65625,0 -2.625,0.9375 -0.96875,0.9375 -1.125,2.57813 z m 24.28125,-6.9375 q 0.29687,0 0.54687,0.0469 0.25,0.0312 0.46875,0.10938 l 0,4.21875 q -0.39062,-0.0781 -0.76562,-0.10938 -0.35938,-0.0469 -0.85938,-0.0469 -2.29687,0 -3.40625,1.40625 -1.09375,1.40625 -1.09375,3.76562 l 0,7.59375 -4.53125,0 0,-16.54687 4.3125,0 0,3.07812 0.0625,0 q 0.71875,-1.625 2.14063,-2.5625 1.4375,-0.95312 3.125,-0.95312 z" />
  <path
     style="fill:#cccccc;fill-rule:nonzero"
     inkscape:connector-curvature="0"
     id="path13676"
     d="m 782.3543,68.05249 7.95276,0 0,0 11.92914,0 27.83465,0 0,32.99738 0,0 0,14.14173 0,9.42782 -27.83465,0 -4.54578,17.67208 -7.38336,-17.67208 -7.95276,0 0,-9.42782 0,-14.14173 0,0 z" />
  <path
     style="stroke:#666666;stroke-width:2;stroke-linecap:butt;stroke-linejoin:round"
     inkscape:connector-curvature="0"
     id="path13678"
     d="m 782.3543,68.05249 7.95276,0 0,0 11.92914,0 27.83465,0 0,32.99738 0,0 0,14.14173 0,9.42782 -27.83465,0 -4.54578,17.67208 -7.38336,-17.67208 -7.95276,0 0,-9.42782 0,-14.14173 0,0 z" />
  <path
     style="fill:#000000;fill-rule:nonzero"
     inkscape:connector-curvature="0"
     id="path13680"
     d="m 792.13556,96.552826 q 0,-2.421875 0.5,-3.890625 0.5,-1.46875 1.46875,-2.265625 0.98438,-0.796875 2.46875,-0.796875 1.09375,0 1.92188,0.4375 0.82812,0.4375 1.35937,1.28125 0.54688,0.828125 0.84375,2.015625 0.3125,1.1875 0.3125,3.21875 0,2.390625 -0.5,3.859374 -0.48437,1.46875 -1.46875,2.28125 -0.96875,0.79688 -2.46875,0.79688 -1.96875,0 -3.07812,-1.40625 -1.35938,-1.70313 -1.35938,-5.531254 z m 1.71875,0 q 0,3.34375 0.78125,4.453124 0.79688,1.10938 1.9375,1.10938 1.15625,0 1.9375,-1.10938 0.78125,-1.124999 0.78125,-4.453124 0,-3.359375 -0.78125,-4.46875 -0.78125,-1.109375 -1.95312,-1.109375 -1.15625,0 -1.82813,0.984375 -0.875,1.234375 -0.875,4.59375 z m 9.59448,6.703124 0,-1.90625 1.90625,0 0,1.90625 -1.90625,0 z m 9.60517,0 0,-3.25 -5.90625,0 0,-1.531249 6.21875,-8.8125 1.35937,0 0,8.8125 1.84375,0 0,1.531249 -1.84375,0 0,3.25 -1.67187,0 z m 0,-4.781249 0,-6.140625 -4.25,6.140625 4.25,0 z" />
  <path
     style="fill:#000000;fill-opacity:0;fill-rule:nonzero"
     inkscape:connector-curvature="0"
     id="path13682"
     d="m 268.17285,506.93213 -15.40157,33.07086" />
  <path
     style="stroke:#666666;stroke-width:2;stroke-linecap:butt;stroke-linejoin:round"
     inkscape:connector-curvature="0"
     id="path13684"
     d="m 263.10675,517.8103 -10.33546,22.19269" />
  <path
     style="fill:#666666;fill-rule:evenodd;stroke:#666666;stroke-width:2;stroke-linecap:butt"
     inkscape:connector-curvature="0"
     id="path13686"
     d="m 266.10138,519.20496 0.83713,-9.62234 -6.82639,6.83303 z" />
  <path
     style="fill:#000000;fill-opacity:0;fill-rule:nonzero"
     inkscape:connector-curvature="0"
     id="path13688"
     d="M 683.91565,318.62503 781.83692,203.79039" />
  <path
     style="stroke:#666666;stroke-width:2;stroke-linecap:butt;stroke-linejoin:round"
     inkscape:connector-curvature="0"
     id="path13690"
     d="M 683.91565,318.62503 774.05078,212.92142" />
  <path
     style="fill:#666666;fill-rule:evenodd;stroke:#666666;stroke-width:2;stroke-linecap:butt"
     inkscape:connector-curvature="0"
     id="path13692"
     d="m 776.56445,215.06487 3.37537,-9.0497 -8.40271,4.7628 z" />
  <path
     style="fill:#000000;fill-opacity:0;fill-rule:nonzero"
     inkscape:connector-curvature="0"
     id="path13694"
     d="m 13.656168,430.3622 150.740142,0 0,40.66141 -150.740142,0 z" />
  <path
     style="fill:#434343;fill-rule:nonzero"
     inkscape:connector-curvature="0"
     id="path13696"
     d="m 40.51554,447.23846 0,22.84375 -4.328125,0 0,-2.10938 -0.0625,0 q -0.734375,1.26563 -2.03125,1.92188 -1.28125,0.64062 -2.984373,0.64062 -3.390625,0 -5.40625,-2.48437 -2.015625,-2.5 -2.015625,-6.39063 0,-3.6875 1.984375,-6.125 1.984375,-2.4375 5.34375,-2.4375 1.546873,0 2.828123,0.625 1.28125,0.625 2.0625,1.82813 l 0.0625,0 0,-8.3125 4.546875,0 z m -12.296873,14.54687 q 0,2.3125 1.078125,3.82813 1.078125,1.5 2.921873,1.5 1.890625,0 2.890625,-1.39063 1.015625,-1.40625 1.015625,-3.95312 0,-2.42188 -0.984375,-3.82813 -0.984375,-1.42187 -2.9375,-1.42187 -1.890623,0 -2.937498,1.42187 -1.046875,1.40625 -1.046875,3.84375 z m 23.359373,-8.6875 q 3.671875,0 5.859375,2.53125 2.203125,2.51563 2.203125,6.4375 l -0.03125,0.84375 -11.9375,0 q 0.09375,2.14063 1.109375,3.17188 1.03125,1.03125 2.9375,1.03125 1.234375,0 2.28125,-0.625 1.046875,-0.64063 1.328125,-1.53125 l 4,0 q -0.921875,2.8125 -2.84375,4.20312 -1.921875,1.375 -4.90625,1.375 -3.828125,0 -6.140625,-2.42187 -2.3125,-2.42188 -2.3125,-6.28125 0,-3.70313 2.359375,-6.21875 2.375,-2.51563 6.09375,-2.51563 z m -3.90625,6.9375 7.390625,0 q -0.328125,-1.82812 -1.1875,-2.67187 -0.84375,-0.84375 -2.453125,-0.84375 -1.65625,0 -2.625,0.9375 -0.96875,0.9375 -1.125,2.57812 z m 17.828125,-6.5 3.5,11.29688 0.0625,0 3.484375,-11.29688 4.515625,0 -5.609375,16.54688 -5.046875,0 -5.671875,-16.54688 4.765625,0 z m 21.09375,-0.4375 q 3.671875,0 5.859375,2.53125 2.203125,2.51563 2.203125,6.4375 l -0.03125,0.84375 -11.9375,0 q 0.09375,2.14063 1.109375,3.17188 1.03125,1.03125 2.9375,1.03125 1.234375,0 2.28125,-0.625 1.046875,-0.64063 1.328125,-1.53125 l 4,0 q -0.921875,2.8125 -2.84375,4.20312 -1.921875,1.375 -4.90625,1.375 -3.828125,0 -6.140625,-2.42187 -2.3125,-2.42188 -2.3125,-6.28125 0,-3.70313 2.359375,-6.21875 2.375,-2.51563 6.09375,-2.51563 z m -3.90625,6.9375 7.390625,0 q -0.328125,-1.82812 -1.1875,-2.67187 -0.84375,-0.84375 -2.453125,-0.84375 -1.65625,0 -2.625,0.9375 -0.96875,0.9375 -1.125,2.57812 z m 19.312505,-12.79687 0,22.84375 -4.54688,0 0,-22.84375 4.54688,0 z m 11.60937,5.85937 q 3.89063,0 6.23438,2.40625 2.34375,2.39063 2.34375,6.32813 0,3.95312 -2.375,6.32812 -2.35938,2.375 -6.20313,2.375 -3.84375,0 -6.20312,-2.39062 -2.34375,-2.39063 -2.34375,-6.3125 0,-3.92188 2.3125,-6.32813 2.3125,-2.40625 6.23437,-2.40625 z m -4,8.73438 q 0,2.60937 1.0625,3.95312 1.07813,1.32813 2.9375,1.32813 1.9375,0 2.98438,-1.375 1.04687,-1.39063 1.04687,-3.90625 0,-2.46875 -1.01562,-3.89063 -1.01563,-1.42187 -3.04688,-1.42187 -1.82812,0 -2.90625,1.32812 -1.0625,1.3125 -1.0625,3.98438 z m 24.82813,-8.73438 q 3.51563,0 5.51563,2.46875 2,2.45313 2,6.42188 0,3.67187 -1.96875,6.10937 -1.96875,2.4375 -5.29688,2.4375 -1.51562,0 -2.82812,-0.64062 -1.3125,-0.65625 -2.125,-1.85938 l -0.0781,0 0,7.875 -4.53125,0 0,-22.375 4.3125,0 0,2.10938 0.0625,0 q 0.8125,-1.29688 2.0625,-1.92188 1.26563,-0.625 2.875,-0.625 z m -4.9375,8.76563 q 0,2.375 1.01563,3.8125 1.01562,1.4375 2.95312,1.4375 1.89063,0 2.90625,-1.375 1.03125,-1.375 1.03125,-3.875 0,-2.375 -1.01562,-3.85938 -1.01563,-1.48437 -2.98438,-1.48437 -1.875,0 -2.89062,1.40625 -1.01563,1.40625 -1.01563,3.9375 z" />
</svg>
