<?xml version="1.0" encoding="UTF-8" standalone="no"?>
<svg
   xmlns:dc="http://purl.org/dc/elements/1.1/"
   xmlns:cc="http://creativecommons.org/ns#"
   xmlns:rdf="http://www.w3.org/1999/02/22-rdf-syntax-ns#"
   xmlns:svg="http://www.w3.org/2000/svg"
   xmlns="http://www.w3.org/2000/svg"
   xmlns:sodipodi="http://sodipodi.sourceforge.net/DTD/sodipodi-0.dtd"
   xmlns:inkscape="http://www.inkscape.org/namespaces/inkscape"
   version="1.1"
   viewBox="0 0 807.8184 305.14958"
   stroke-miterlimit="10"
   id="svg7009"
   inkscape:version="0.48.4 r9939"
   width="100%"
   height="100%"
   sodipodi:docname="log-transition.svg"
   style="fill:none;stroke:none"
   inkscape:export-filename="/home/nathan/devel/nasa/git-talk/img/log-transition.png"
   inkscape:export-xdpi="300"
   inkscape:export-ydpi="300">
  <metadata
     id="metadata7070">
    <rdf:RDF>
      <cc:Work
         rdf:about="">
        <dc:format>image/svg+xml</dc:format>
        <dc:type
           rdf:resource="http://purl.org/dc/dcmitype/StillImage" />
        <dc:title></dc:title>
      </cc:Work>
    </rdf:RDF>
  </metadata>
  <defs
     id="defs7068" />
  <sodipodi:namedview
     pagecolor="#ffffff"
     bordercolor="#666666"
     borderopacity="1"
     objecttolerance="10"
     gridtolerance="10"
     guidetolerance="10"
     inkscape:pageopacity="0"
     inkscape:pageshadow="2"
     inkscape:window-width="1598"
     inkscape:window-height="866"
     id="namedview7066"
     showgrid="false"
     fit-margin-top="0"
     fit-margin-left="0"
     fit-margin-right="0"
     fit-margin-bottom="0"
     inkscape:zoom="0.88766276"
     inkscape:cx="394.37927"
     inkscape:cy="240.84775"
     inkscape:window-x="0"
     inkscape:window-y="32"
     inkscape:window-maximized="0"
     inkscape:current-layer="svg7009" />
  <clipPath
     id="g3593cc936_0296.0">
    <path
       d="M 0,0 960,0 960,540 0,540 0,0 z"
       clip-rule="nonzero"
       id="path7012"
       inkscape:connector-curvature="0" />
  </clipPath>
  <path
     style="fill:#fff2cc;fill-rule:nonzero"
     inkscape:connector-curvature="0"
     id="path7018"
     d="m 0.5,0.57742 261.82677,0 0,303.1496 -261.82677,0 z" />
  <path
     style="stroke:#434343;stroke-width:1;stroke-linecap:butt;stroke-linejoin:round"
     inkscape:connector-curvature="0"
     id="path7020"
     d="m 0.5,0.57742 261.82677,0 0,303.1496 -261.82677,0 z" />
  <path
     style="fill:#434343;fill-rule:nonzero"
     inkscape:connector-curvature="0"
     id="path7022"
     d="m 20.140625,26.74304 q 4.21875,0 6.51562,1.67187 2.29688,1.67188 2.60938,4.90625 l -5.40625,0 q -0.125,-1.45312 -1.10938,-2.10937 -0.96875,-0.67188 -2.78125,-0.67188 -1.64062,0 -2.39062,0.48438 -0.75,0.48437 -0.75,1.42187 0,0.95313 0.98437,1.57813 0.98438,0.60937 3.96875,1.17187 4.76563,0.92188 6.39063,2.375 1.64062,1.4375 1.64062,3.78125 0,3.51563 -2.57812,5.35938 -2.5625,1.82812 -6.85938,1.82812 -4.29687,0 -6.92187,-1.82812 -2.625,-1.82813 -2.796875,-5.45313 l 5.406245,0 q 0,1.64063 1.23438,2.5625 1.25,0.90625 3.125,0.90625 1.65625,0 2.6875,-0.70312 1.04687,-0.71875 1.04687,-1.92188 0,-1.07812 -1.35937,-1.76562 -1.34375,-0.6875 -4.9375,-1.42188 -3.546875,-0.70312 -5.140625,-2.01562 -1.578125,-1.3125 -1.578125,-3.53125 0,-3.28125 2.328125,-4.95313 2.328125,-1.67187 6.671875,-1.67187 z m 20.20312,-5.64063 0,6.1875 4.15625,0 0,3.8125 -4.15625,0 0,10.375 q 0,1.26563 0.46875,1.76563 0.48438,0.5 1.9375,0.5 0.48437,0 0.92187,-0.0312 0.45313,-0.0469 0.82813,-0.125 l 0,4.4375 q -0.70313,0.10937 -1.57813,0.14062 -0.85937,0.0469 -1.70312,0.0469 -3.6875,0 -5.125,-1.25 -1.4375,-1.26563 -1.4375,-3.53125 l 0,-12.32813 -3.4375,0 0,-3.8125 3.4375,0 0,-6.1875 5.6875,0 z m 16.3789,5.64063 q 4.59375,0 6.82813,1.51562 2.23437,1.5 2.23437,4.23438 l 0,11.09375 q 0,1.25 0.17188,2.5 0.17187,1.25 0.5625,1.89062 l -5.76563,0 q -0.15625,-0.46875 -0.26562,-0.96875 -0.10938,-0.5 -0.14063,-1 -1.20312,1.21875 -2.96875,1.875 -1.76562,0.65625 -3.98437,0.65625 -3.20313,0 -5.125,-1.60937 -1.90625,-1.60938 -1.90625,-4.59375 0,-2.89063 1.79687,-4.42188 1.79688,-1.54687 6.53125,-2.0625 3.3125,-0.3125 4.35938,-0.8125 1.0625,-0.5 1.0625,-1.73437 0,-1.39063 -0.8125,-2.07813 -0.8125,-0.6875 -2.84375,-0.6875 -1.76563,0 -2.70313,0.75 -0.9375,0.75 -1.09375,2.375 l -5.67187,0 q 0.23437,-3.40625 2.79687,-5.15625 2.5625,-1.76562 6.9375,-1.76562 z m -4.70312,15.35937 q 0,1.21875 0.84375,1.92188 0.84375,0.70312 2.65625,0.70312 2.26562,0 3.42187,-1.1875 1.17188,-1.1875 1.17188,-3.46875 l 0,-2.21875 q -0.51563,0.42188 -1.34375,0.625 -0.82813,0.20313 -3,0.51563 -1.9375,0.25 -2.84375,1 -0.90625,0.75 -0.90625,2.10937 z m 26.40625,-15.35937 q 2.26562,0 3.75,0.84375 1.48437,0.84375 2.42187,2.45312 l 0.0781,0 0,-2.75 5.39062,0 0,19.53125 q 0,4.1719 -2.65625,6.57815 -2.64062,2.40625 -8.03125,2.40625 -3.64062,0 -6.26562,-1.75 -2.60938,-1.73438 -2.875,-4.89065 l 5.625,0 q 0.39062,1.51565 1.48437,2.18752 1.09375,0.67188 2.76563,0.67188 2.1875,0 3.375,-1.32813 1.1875,-1.31252 1.1875,-3.65627 l 0,-2.875 -0.0781,0 q -0.84375,1.53125 -2.46875,2.375 -1.625,0.82813 -3.73437,0.82813 -4.1875,0 -6.51563,-2.76563 -2.3125,-2.78125 -2.3125,-7.625 0,-4.375 2.42188,-7.29687 2.4375,-2.9375 6.4375,-2.9375 z m -3.1875,10.15625 q 0,2.90625 1.20312,4.54687 1.20313,1.64063 3.39063,1.64063 2.25,0 3.54687,-1.64063 1.29688,-1.64062 1.29688,-4.09375 0,-3.03125 -1.23438,-4.67187 -1.21875,-1.65625 -3.625,-1.65625 -2.10937,0 -3.34375,1.60937 -1.23437,1.59375 -1.23437,4.26563 z m 25.246095,-17.48438 0,4.67188 -5.687505,0 0,-4.67188 5.687505,0 z m 0,7.875 0,20.6875 -5.687505,0 0,-20.6875 5.687505,0 z m 16.32813,-0.54687 q 3.95312,0 5.73437,2 1.79688,2 1.79688,6.29687 l 0,12.9375 -5.6875,0 0,-11.85937 q 0,-2.42188 -0.82813,-3.65625 -0.82812,-1.25 -2.79687,-1.25 -2.35938,0 -3.39063,1.40625 -1.03125,1.40625 -1.03125,4.32812 l 0,11.03125 -5.65625,0 0,-20.6875 5.39063,0 0,2.89063 0.10937,0 q 1.04688,-1.65625 2.70313,-2.54688 1.65625,-0.89062 3.65625,-0.89062 z m 20.07031,0 q 2.26562,0 3.75,0.84375 1.48437,0.84375 2.42187,2.45312 l 0.0781,0 0,-2.75 5.39062,0 0,19.53125 q 0,4.1719 -2.65625,6.57815 -2.64062,2.40625 -8.03125,2.40625 -3.64062,0 -6.26562,-1.75 -2.60938,-1.73438 -2.875,-4.89065 l 5.625,0 q 0.39062,1.51565 1.48437,2.18752 1.09375,0.67188 2.76563,0.67188 2.1875,0 3.375,-1.32813 1.1875,-1.31252 1.1875,-3.65627 l 0,-2.875 -0.0781,0 q -0.84375,1.53125 -2.46875,2.375 -1.625,0.82813 -3.73437,0.82813 -4.1875,0 -6.51563,-2.76563 -2.3125,-2.78125 -2.3125,-7.625 0,-4.375 2.42188,-7.29687 2.4375,-2.9375 6.4375,-2.9375 z m -3.1875,10.15625 q 0,2.90625 1.20312,4.54687 1.20313,1.64063 3.39063,1.64063 2.25,0 3.54687,-1.64063 1.29688,-1.64062 1.29688,-4.09375 0,-3.03125 -1.23438,-4.67187 -1.21875,-1.65625 -3.625,-1.65625 -2.10937,0 -3.34375,1.60937 -1.23437,1.59375 -1.23437,4.26563 z m 40,-10.15625 q 4.59375,0 6.82812,1.51562 2.23438,1.5 2.23438,4.23438 l 0,11.09375 q 0,1.25 0.17187,2.5 0.17188,1.25 0.5625,1.89062 l -5.76562,0 q -0.15625,-0.46875 -0.26563,-0.96875 -0.10937,-0.5 -0.14062,-1 -1.20313,1.21875 -2.96875,1.875 -1.76563,0.65625 -3.98438,0.65625 -3.20312,0 -5.125,-1.60937 -1.90625,-1.60938 -1.90625,-4.59375 0,-2.89063 1.79688,-4.42188 1.79687,-1.54687 6.53125,-2.0625 3.3125,-0.3125 4.35937,-0.8125 1.0625,-0.5 1.0625,-1.73437 0,-1.39063 -0.8125,-2.07813 -0.8125,-0.6875 -2.84375,-0.6875 -1.76562,0 -2.70312,0.75 -0.9375,0.75 -1.09375,2.375 l -5.67188,0 q 0.23438,-3.40625 2.79688,-5.15625 2.5625,-1.76562 6.9375,-1.76562 z m -4.70313,15.35937 q 0,1.21875 0.84375,1.92188 0.84375,0.70312 2.65625,0.70312 2.26563,0 3.42188,-1.1875 1.17187,-1.1875 1.17187,-3.46875 l 0,-2.21875 q -0.51562,0.42188 -1.34375,0.625 -0.82812,0.20313 -3,0.51563 -1.9375,0.25 -2.84375,1 -0.90625,0.75 -0.90625,2.10937 z m 30.23438,-15.35937 q 0.375,0 0.6875,0.0469 0.3125,0.0469 0.57812,0.15625 l 0,5.26563 q -0.48437,-0.0937 -0.95312,-0.14063 -0.45313,-0.0469 -1.07813,-0.0469 -2.85937,0 -4.25,1.76562 -1.375,1.75 -1.375,4.6875 l 0,9.5 -5.65625,0 0,-20.6875 5.39063,0 0,3.84375 0.0781,0 q 0.89062,-2.03125 2.67187,-3.20312 1.79688,-1.1875 3.90625,-1.1875 z m 13.06641,0 q 4.59375,0 7.32812,3.15625 2.75,3.15625 2.75,8.0625 l -0.0312,1.04687 -14.92187,0 q 0.10937,2.67188 1.39062,3.96875 1.28125,1.28125 3.65625,1.28125 1.54688,0 2.85938,-0.78125 1.3125,-0.79687 1.65625,-1.90625 l 5,0 q -1.15625,3.51563 -3.5625,5.25 -2.39063,1.71875 -6.125,1.71875 -4.78125,0 -7.67188,-3.01562 -2.89062,-3.03125 -2.89062,-7.85938 0,-4.625 2.95312,-7.76562 2.96875,-3.15625 7.60938,-3.15625 z m -4.875,8.67187 9.23437,0 q -0.40625,-2.28125 -1.48437,-3.32812 -1.0625,-1.0625 -3.0625,-1.0625 -2.07813,0 -3.29688,1.17187 -1.20312,1.17188 -1.39062,3.21875 z m 27.78125,-8.67187 q 4.59375,0 6.82812,1.51562 2.23438,1.5 2.23438,4.23438 l 0,11.09375 q 0,1.25 0.17187,2.5 0.17188,1.25 0.5625,1.89062 l -5.76562,0 q -0.15625,-0.46875 -0.26563,-0.96875 -0.10937,-0.5 -0.14062,-1 -1.20313,1.21875 -2.96875,1.875 -1.76563,0.65625 -3.98438,0.65625 -3.20312,0 -5.125,-1.60937 -1.90625,-1.60938 -1.90625,-4.59375 0,-2.89063 1.79688,-4.42188 1.79687,-1.54687 6.53125,-2.0625 3.3125,-0.3125 4.35937,-0.8125 1.0625,-0.5 1.0625,-1.73437 0,-1.39063 -0.8125,-2.07813 -0.8125,-0.6875 -2.84375,-0.6875 -1.76562,0 -2.70312,0.75 -0.9375,0.75 -1.09375,2.375 l -5.67188,0 q 0.23438,-3.40625 2.79688,-5.15625 2.5625,-1.76562 6.9375,-1.76562 z m -4.70313,15.35937 q 0,1.21875 0.84375,1.92188 0.84375,0.70312 2.65625,0.70312 2.26563,0 3.42188,-1.1875 1.17187,-1.1875 1.17187,-3.46875 l 0,-2.21875 q -0.51562,0.42188 -1.34375,0.625 -0.82812,0.20313 -3,0.51563 -1.9375,0.25 -2.84375,1 -0.90625,0.75 -0.90625,2.10937 z" />
  <path
     style="fill:#000000;fill-opacity:0;fill-rule:nonzero"
     inkscape:connector-curvature="0"
     id="path7024"
     d="m 1.363515,71.62468 261.826775,0" />
  <path
     style="stroke:#666666;stroke-width:2;stroke-linecap:butt;stroke-linejoin:round"
     inkscape:connector-curvature="0"
     id="path7026"
     d="m 1.363515,71.62468 261.826775,0" />
  <path
     style="fill:#fff2cc;fill-rule:nonzero"
     inkscape:connector-curvature="0"
     id="path7028"
     d="m 332.9562,0.57742 474.36219,0 0,303.1496 -474.36219,0 z" />
  <path
     style="stroke:#434343;stroke-width:1;stroke-linecap:butt;stroke-linejoin:round"
     inkscape:connector-curvature="0"
     id="path7030"
     d="m 332.9562,0.57742 474.36219,0 0,303.1496 -474.36219,0 z" />
  <path
     style="fill:#000000;fill-rule:nonzero"
     inkscape:connector-curvature="0"
     id="path7032"
     d="m 361.08511,19.41491 0,28.5625 -5.6875,0 0,-28.5625 5.6875,0 z m 14.5,7.32812 q 4.875,0 7.79688,3 2.9375,3 2.9375,7.92188 0,4.9375 -2.96875,7.90625 -2.95313,2.96875 -7.76563,2.96875 -4.79687,0 -7.73437,-2.98438 -2.9375,-2.98437 -2.9375,-7.89062 0,-4.90625 2.89062,-7.90625 2.89063,-3.01563 7.78125,-3.01563 z m -5,10.92188 q 0,3.26562 1.34375,4.9375 1.34375,1.65625 3.65625,1.65625 2.42188,0 3.73438,-1.71875 1.3125,-1.73438 1.3125,-4.875 0,-3.09375 -1.28125,-4.85938 -1.26563,-1.78125 -3.79688,-1.78125 -2.28125,0 -3.625,1.65625 -1.34375,1.64063 -1.34375,4.98438 z M 398.2062,26.74303 q 2.26563,0 3.75,0.84375 1.48438,0.84375 2.42188,2.45313 l 0.0781,0 0,-2.75 5.39063,0 0,19.53125 q 0,4.17189 -2.65625,6.57814 -2.64063,2.40625 -8.03125,2.40625 -3.64063,0 -6.26563,-1.75 -2.60937,-1.73437 -2.875,-4.89064 l 5.625,0 q 0.39063,1.51564 1.48438,2.18752 1.09375,0.67187 2.76562,0.67187 2.1875,0 3.375,-1.32812 1.1875,-1.31252 1.1875,-3.65627 l 0,-2.875 -0.0781,0 q -0.84375,1.53125 -2.46875,2.375 -1.625,0.82812 -3.73438,0.82812 -4.1875,0 -6.51562,-2.76562 -2.3125,-2.78125 -2.3125,-7.625 0,-4.375 2.42187,-7.29688 2.4375,-2.9375 6.4375,-2.9375 z m -3.1875,10.15625 q 0,2.90625 1.20313,4.54688 1.20312,1.64062 3.39062,1.64062 2.25,0 3.54688,-1.64062 1.29687,-1.64063 1.29687,-4.09375 0,-3.03125 -1.23437,-4.67188 -1.21875,-1.65625 -3.625,-1.65625 -2.10938,0 -3.34375,1.60938 -1.23438,1.59375 -1.23438,4.26562 z" />
  <path
     style="fill:#b45f06;fill-rule:nonzero"
     inkscape:connector-curvature="0"
     id="path7034"
     d="m 414.42497,126.29743 -12.82813,0 0,-2.53125 5.25,0 0,-14.90625 -4.89062,2.65625 -1,-2.3125 6.5,-3.42187 2.40625,0 0,17.98437 4.5625,0 0,2.53125 z m 18.23441,-10.20312 q 0,2.34375 -0.46875,4.28125 -0.46875,1.92187 -1.42188,3.3125 -0.95312,1.375 -2.375,2.14062 -1.40625,0.75 -3.31253,0.75 -1.64062,0 -2.98437,-0.60937 -1.34375,-0.625 -2.29688,-1.90625 -0.95312,-1.28125 -1.46875,-3.26563 -0.51562,-1.98437 -0.51562,-4.70312 0,-2.34375 0.46875,-4.28125 0.48437,-1.9375 1.42187,-3.3125 0.95313,-1.39063 2.375,-2.14063 1.42188,-0.76562 3.3125,-0.76562 1.64066,0 2.98441,0.625 1.34375,0.60937 2.29687,1.90625 0.95313,1.28125 1.46875,3.26562 0.51563,1.98438 0.51563,4.70313 z m -2.75,0.0937 q 0,-0.53125 -0.0469,-1.04688 -0.0312,-0.53125 -0.0781,-1.03125 l -8.64066,6.42188 q 0.23438,0.8125 0.59375,1.5 0.35938,0.6875 0.85938,1.1875 0.51562,0.48437 1.15625,0.76562 0.65625,0.26563 1.48437,0.26563 1.0625,0 1.92191,-0.51563 0.875,-0.51562 1.48437,-1.53125 0.60938,-1.01562 0.9375,-2.51562 0.32813,-1.51563 0.32813,-3.5 z m -9.34378,-0.1875 q 0,0.48437 0,0.96875 0.0156,0.48437 0.0625,0.9375 l 8.64065,-6.39063 q -0.23437,-0.79687 -0.59375,-1.45312 -0.35937,-0.65625 -0.85937,-1.125 -0.5,-0.48438 -1.14063,-0.75 -0.64065,-0.26563 -1.43753,-0.26563 -1.0625,0 -1.9375,0.51563 -0.85937,0.51562 -1.46875,1.54687 -0.60937,1.01563 -0.9375,2.53125 -0.32812,1.5 -0.32812,3.48438 z m 30.2344,5.78125 -3.48437,0 0,4.51562 -2.78125,0 0,-4.51562 -9.82813,0 0,-2.39063 8.70313,-13.51562 3.90625,0 0,13.51562 3.48437,0 0,2.39063 z m -6.26562,-13.28125 -7.10938,10.89062 7.10938,0 0,-10.89062 z m 22.84375,9.125 q 0,0.57812 -0.0156,0.96875 -0.0156,0.39062 -0.0469,0.73437 l -11.01563,0 q 0,2.40625 1.34375,3.70313 1.34375,1.28125 3.875,1.28125 0.6875,0 1.375,-0.0469 0.6875,-0.0625 1.32813,-0.15625 0.64062,-0.0937 1.21875,-0.20312 0.59375,-0.125 1.09375,-0.26563 l 0,2.23438 q -1.10938,0.3125 -2.51563,0.5 -1.39062,0.20312 -2.89062,0.20312 -2.01563,0 -3.46875,-0.54687 -1.45313,-0.54688 -2.39063,-1.57813 -0.92187,-1.04687 -1.375,-2.54687 -0.4375,-1.51563 -0.4375,-3.42188 0,-1.65625 0.46875,-3.125 0.48438,-1.48437 1.39063,-2.59375 0.92187,-1.125 2.25,-1.78125 1.32812,-0.65625 3.01562,-0.65625 1.64063,0 2.90625,0.51563 1.26563,0.51562 2.125,1.46875 0.875,0.9375 1.3125,2.29687 0.45313,1.34375 0.45313,3.01563 z M 464.55,117.23488 q 0.0469,-1.04687 -0.20312,-1.90625 -0.25,-0.875 -0.78125,-1.5 -0.51563,-0.625 -1.29688,-0.96875 -0.78125,-0.35937 -1.8125,-0.35937 -0.89062,0 -1.625,0.34375 -0.73437,0.34375 -1.26562,0.96875 -0.53125,0.625 -0.85938,1.5 -0.32812,0.875 -0.40625,1.92187 l 8.25,0 z m 17.25,9.0625 -0.0625,-2.10937 q -1.28125,1.26562 -2.60937,1.82812 -1.3125,0.5625 -2.76563,0.5625 -1.34375,0 -2.29687,-0.34375 -0.95313,-0.34375 -1.57813,-0.9375 -0.60937,-0.60937 -0.90625,-1.42187 -0.28125,-0.8125 -0.28125,-1.76563 0,-2.35937 1.75,-3.6875 1.76563,-1.34375 5.20313,-1.34375 l 3.25,0 0,-1.375 q 0,-1.39062 -0.89063,-2.21875 -0.89062,-0.84375 -2.71875,-0.84375 -1.32812,0 -2.625,0.29688 -1.28125,0.29687 -2.65625,0.84375 l 0,-2.45313 q 0.51563,-0.1875 1.14063,-0.35937 0.64062,-0.1875 1.34375,-0.32813 0.70312,-0.14062 1.46875,-0.21875 0.76562,-0.0937 1.54687,-0.0937 1.42188,0 2.5625,0.3125 1.14063,0.3125 1.92188,0.95313 0.79687,0.64062 1.21875,1.60937 0.42187,0.96875 0.42187,2.28125 l 0,10.8125 -2.4375,0 z m -0.29687,-7.14062 -3.45313,0 q -1.01562,0 -1.75,0.20312 -0.73437,0.20313 -1.20312,0.57813 -0.46875,0.375 -0.70313,0.90625 -0.21875,0.51562 -0.21875,1.17187 0,0.45313 0.14063,0.875 0.14062,0.40625 0.45312,0.73438 0.3125,0.3125 0.8125,0.5 0.5,0.1875 1.21875,0.1875 0.9375,0 2.14063,-0.5625 1.21875,-0.57813 2.5625,-1.8125 l 0,-2.78125 z m 21.0625,2.01562 q 0,1.29688 -0.53125,2.3125 -0.53125,1 -1.48438,1.6875 -0.95312,0.6875 -2.25,1.04688 -1.29687,0.35937 -2.8125,0.35937 -1.67187,0 -2.95312,-0.375 -1.26563,-0.375 -2.125,-1.04687 -0.85938,-0.67188 -1.29688,-1.59375 -0.4375,-0.92188 -0.4375,-2.03125 0,-1.875 1.04688,-3.23438 1.04687,-1.35937 3.23437,-2.46875 -2,-1.01562 -2.92187,-2.25 -0.92188,-1.25 -0.92188,-2.85937 0,-0.98438 0.40625,-1.90625 0.40625,-0.92188 1.21875,-1.64063 0.82813,-0.71875 2.0625,-1.14062 1.23438,-0.4375 2.90625,-0.4375 1.57813,0 2.76563,0.34375 1.20312,0.32812 2.01562,0.95312 0.8125,0.625 1.21875,1.51563 0.40625,0.89062 0.40625,1.98437 0,1.78125 -1,3.03125 -0.98437,1.25 -2.8125,2.1875 0.90625,0.45313 1.6875,1 0.78125,0.54688 1.35938,1.21875 0.57812,0.67188 0.89062,1.5 0.32813,0.82813 0.32813,1.84375 z m -3.23438,-10.5625 q 0,-1.39062 -0.98437,-2.0625 -0.96875,-0.6875 -2.73438,-0.6875 -1.75,0 -2.73437,0.67188 -0.96875,0.67187 -0.96875,2.01562 0,0.60938 0.23437,1.125 0.23438,0.51563 0.71875,0.96875 0.5,0.45313 1.23438,0.89063 0.73437,0.4375 1.75,0.89062 1.76562,-0.82812 2.625,-1.71875 0.85937,-0.90625 0.85937,-2.09375 z m 0.28125,10.76563 q 0,-0.57813 -0.1875,-1.125 -0.1875,-0.54688 -0.67187,-1.07813 -0.48438,-0.53125 -1.29688,-1.0625 -0.8125,-0.53125 -2.0625,-1.09375 -1.0625,0.51563 -1.79687,1.03125 -0.71875,0.5 -1.17188,1.03125 -0.4375,0.51563 -0.625,1.07813 -0.1875,0.5625 -0.1875,1.1875 0,0.70312 0.29688,1.25 0.3125,0.53125 0.84375,0.90625 0.53125,0.375 1.26562,0.5625 0.73438,0.1875 1.59375,0.1875 0.82813,0 1.5625,-0.17188 0.73438,-0.17187 1.26563,-0.51562 0.54687,-0.35938 0.85937,-0.89063 0.3125,-0.54687 0.3125,-1.29687 z m 20.54688,-0.20313 q 0,1.29688 -0.53125,2.3125 -0.53125,1 -1.48438,1.6875 -0.95312,0.6875 -2.25,1.04688 -1.29687,0.35937 -2.8125,0.35937 -1.67187,0 -2.95312,-0.375 -1.26563,-0.375 -2.125,-1.04687 -0.85938,-0.67188 -1.29688,-1.59375 -0.4375,-0.92188 -0.4375,-2.03125 0,-1.875 1.04688,-3.23438 1.04687,-1.35937 3.23437,-2.46875 -2,-1.01562 -2.92187,-2.25 -0.92188,-1.25 -0.92188,-2.85937 0,-0.98438 0.40625,-1.90625 0.40625,-0.92188 1.21875,-1.64063 0.82813,-0.71875 2.0625,-1.14062 1.23438,-0.4375 2.90625,-0.4375 1.57813,0 2.76563,0.34375 1.20312,0.32812 2.01562,0.95312 0.8125,0.625 1.21875,1.51563 0.40625,0.89062 0.40625,1.98437 0,1.78125 -1,3.03125 -0.98437,1.25 -2.8125,2.1875 0.90625,0.45313 1.6875,1 0.78125,0.54688 1.35938,1.21875 0.57812,0.67188 0.89062,1.5 0.32813,0.82813 0.32813,1.84375 z m -3.23438,-10.5625 q 0,-1.39062 -0.98437,-2.0625 -0.96875,-0.6875 -2.73438,-0.6875 -1.75,0 -2.73437,0.67188 -0.96875,0.67187 -0.96875,2.01562 0,0.60938 0.23437,1.125 0.23438,0.51563 0.71875,0.96875 0.5,0.45313 1.23438,0.89063 0.73437,0.4375 1.75,0.89062 1.76562,-0.82812 2.625,-1.71875 0.85937,-0.90625 0.85937,-2.09375 z m 0.28125,10.76563 q 0,-0.57813 -0.1875,-1.125 -0.1875,-0.54688 -0.67187,-1.07813 -0.48438,-0.53125 -1.29688,-1.0625 -0.8125,-0.53125 -2.0625,-1.09375 -1.0625,0.51563 -1.79687,1.03125 -0.71875,0.5 -1.17188,1.03125 -0.4375,0.51563 -0.625,1.07813 -0.1875,0.5625 -0.1875,1.1875 0,0.70312 0.29688,1.25 0.3125,0.53125 0.84375,0.90625 0.53125,0.375 1.26562,0.5625 0.73438,0.1875 1.59375,0.1875 0.82813,0 1.5625,-0.17188 0.73438,-0.17187 1.26563,-0.51562 0.54687,-0.35938 0.85937,-0.89063 0.3125,-0.54687 0.3125,-1.29687 z" />
  <path
     style="fill:#000000;fill-rule:nonzero"
     inkscape:connector-curvature="0"
     id="path7036"
     d="m 541.79997,112.85993 -4.64063,0 0,-2.25 7.39063,0 0,13.42188 4.67187,0 0,2.26562 -12.57812,0 0,-2.26562 5.15625,0 0,-11.17188 z m 0.95312,-8.82812 q 0.45313,0 0.84375,0.17187 0.39063,0.15625 0.67188,0.45313 0.29687,0.29687 0.45312,0.6875 0.17188,0.375 0.17188,0.82812 0,0.4375 -0.17188,0.82813 -0.15625,0.39062 -0.45312,0.6875 -0.28125,0.29687 -0.67188,0.46875 -0.39062,0.15625 -0.84375,0.15625 -0.45312,0 -0.84375,-0.15625 -0.39062,-0.17188 -0.6875,-0.46875 -0.28125,-0.29688 -0.45312,-0.6875 -0.15625,-0.39063 -0.15625,-0.82813 0,-0.45312 0.15625,-0.82812 0.17187,-0.39063 0.45312,-0.6875 0.29688,-0.29688 0.6875,-0.45313 0.39063,-0.17187 0.84375,-0.17187 z m 11.29688,6.57812 2.42187,0 0.10938,2.53125 q 0.6875,-0.8125 1.32812,-1.34375 0.64063,-0.54687 1.25,-0.875 0.625,-0.32812 1.26563,-0.45312 0.64062,-0.14063 1.32812,-0.14063 2.42188,0 3.65625,1.4375 1.25,1.42188 1.25,4.29688 l 0,10.23437 -2.71875,0 0,-10.01562 q 0,-1.84375 -0.6875,-2.71875 -0.6875,-0.89063 -2.04687,-0.89063 -0.5,0 -0.98438,0.15625 -0.46875,0.14063 -0.98437,0.51563 -0.51563,0.35937 -1.125,0.98437 -0.59375,0.625 -1.34375,1.5625 l 0,10.40625 -2.71875,0 0,-15.6875 z m 22.9375,2.25 -4.64063,0 0,-2.25 7.39063,0 0,13.42188 4.67187,0 0,2.26562 -12.57812,0 0,-2.26562 5.15625,0 0,-11.17188 z m 0.95312,-8.82812 q 0.45313,0 0.84375,0.17187 0.39063,0.15625 0.67188,0.45313 0.29687,0.29687 0.45312,0.6875 0.17188,0.375 0.17188,0.82812 0,0.4375 -0.17188,0.82813 -0.15625,0.39062 -0.45312,0.6875 -0.28125,0.29687 -0.67188,0.46875 -0.39062,0.15625 -0.84375,0.15625 -0.45312,0 -0.84375,-0.15625 -0.39062,-0.17188 -0.6875,-0.46875 -0.28125,-0.29688 -0.45312,-0.6875 -0.15625,-0.39063 -0.15625,-0.82813 0,-0.45312 0.15625,-0.82812 0.17187,-0.39063 0.45312,-0.6875 0.29688,-0.29688 0.6875,-0.45313 0.39063,-0.17187 0.84375,-0.17187 z m 23.9375,22.04687 q -0.92187,0.23438 -1.90625,0.32813 -0.98437,0.10937 -2,0.10937 -2.95312,0 -4.40625,-1.32812 -1.45312,-1.34375 -1.45312,-4.10938 l 0,-8.1875 -4.39063,0 0,-2.28125 4.39063,0 0,-4.3125 2.71875,-0.70312 0,5.01562 7.04687,0 0,2.28125 -7.04687,0 0,7.96875 q 0,1.6875 0.89062,2.53125 0.90625,0.82813 2.65625,0.82813 0.75,0 1.64063,-0.10938 0.89062,-0.125 1.85937,-0.375 l 0,2.34375 z m 10.29688,-13.21875 -4.64063,0 0,-2.25 7.39063,0 0,13.42188 4.67187,0 0,2.26562 -12.57812,0 0,-2.26562 5.15625,0 0,-11.17188 z m 0.95312,-8.82812 q 0.45313,0 0.84375,0.17187 0.39063,0.15625 0.67188,0.45313 0.29687,0.29687 0.45312,0.6875 0.17188,0.375 0.17188,0.82812 0,0.4375 -0.17188,0.82813 -0.15625,0.39062 -0.45312,0.6875 -0.28125,0.29687 -0.67188,0.46875 -0.39062,0.15625 -0.84375,0.15625 -0.45312,0 -0.84375,-0.15625 -0.39062,-0.17188 -0.6875,-0.46875 -0.28125,-0.29688 -0.45312,-0.6875 -0.15625,-0.39063 -0.15625,-0.82813 0,-0.45312 0.15625,-0.82812 0.17187,-0.39063 0.45312,-0.6875 0.29688,-0.29688 0.6875,-0.45313 0.39063,-0.17187 0.84375,-0.17187 z m 21.375,22.26562 -0.0625,-2.10937 q -1.28125,1.26562 -2.60937,1.82812 -1.3125,0.5625 -2.76563,0.5625 -1.34375,0 -2.29687,-0.34375 -0.95313,-0.34375 -1.57813,-0.9375 -0.60937,-0.60937 -0.90625,-1.42187 -0.28125,-0.8125 -0.28125,-1.76563 0,-2.35937 1.75,-3.6875 1.76563,-1.34375 5.20313,-1.34375 l 3.25,0 0,-1.375 q 0,-1.39062 -0.89063,-2.21875 -0.89062,-0.84375 -2.71875,-0.84375 -1.32812,0 -2.625,0.29688 -1.28125,0.29687 -2.65625,0.84375 l 0,-2.45313 q 0.51563,-0.1875 1.14063,-0.35937 0.64062,-0.1875 1.34375,-0.32813 0.70312,-0.14062 1.46875,-0.21875 0.76562,-0.0937 1.54687,-0.0937 1.42188,0 2.5625,0.3125 1.14063,0.3125 1.92188,0.95313 0.79687,0.64062 1.21875,1.60937 0.42187,0.96875 0.42187,2.28125 l 0,10.8125 -2.4375,0 z m -0.29687,-7.14062 -3.45313,0 q -1.01562,0 -1.75,0.20312 -0.73437,0.20313 -1.20312,0.57813 -0.46875,0.375 -0.70313,0.90625 -0.21875,0.51562 -0.21875,1.17187 0,0.45313 0.14063,0.875 0.14062,0.40625 0.45312,0.73438 0.3125,0.3125 0.8125,0.5 0.5,0.1875 1.21875,0.1875 0.9375,0 2.14063,-0.5625 1.21875,-0.57813 2.5625,-1.8125 l 0,-2.78125 z m 13.15625,-12.70313 -4.64063,0 0,-2.23437 7.39063,0 0,19.8125 4.67187,0 0,2.26562 -12.57812,0 0,-2.26562 5.15625,0 0,-17.57813 z m 42.03125,19.26563 q -1.0625,0.40625 -2.1875,0.59375 -1.10938,0.20312 -2.29688,0.20312 -3.71875,0 -5.73437,-2.01562 -2,-2.01563 -2,-5.89063 0,-1.85937 0.57812,-3.375 0.57813,-1.51562 1.625,-2.59375 1.04688,-1.07812 2.5,-1.65625 1.45313,-0.59375 3.20313,-0.59375 1.21875,0 2.28125,0.17188 1.0625,0.17187 2.03125,0.5625 l 0,2.59375 q -1.01563,-0.53125 -2.07813,-0.76563 -1.04687,-0.25 -2.17187,-0.25 -1.04688,0 -1.98438,0.40625 -0.92187,0.39063 -1.625,1.14063 -0.70312,0.75 -1.10937,1.82812 -0.40625,1.07813 -0.40625,2.4375 0,2.84375 1.375,4.26563 1.39062,1.40625 3.84375,1.40625 1.10937,0 2.14062,-0.25 1.04688,-0.25 2.01563,-0.75 l 0,2.53125 z m 19.0625,-7.39063 q 0,1.82813 -0.51563,3.35938 -0.51562,1.51562 -1.48437,2.60937 -0.96875,1.07813 -2.35938,1.6875 -1.39062,0.59375 -3.15625,0.59375 -1.6875,0 -3.03125,-0.51562 -1.32812,-0.53125 -2.26562,-1.54688 -0.92188,-1.01562 -1.42188,-2.51562 -0.48437,-1.5 -0.48437,-3.45313 0,-1.82812 0.51562,-3.32812 0.51563,-1.51563 1.48438,-2.59375 0.96875,-1.09375 2.35937,-1.6875 1.39063,-0.60938 3.15625,-0.60938 1.6875,0 3.01563,0.53125 1.34375,0.51563 2.26562,1.53125 0.9375,1 1.42188,2.5 0.5,1.5 0.5,3.4375 z m -2.78125,0.125 q 0,-1.45312 -0.32813,-2.53125 -0.3125,-1.09375 -0.90625,-1.8125 -0.59375,-0.73437 -1.45312,-1.09375 -0.84375,-0.375 -1.89063,-0.375 -1.21875,0 -2.09375,0.48438 -0.85937,0.46875 -1.42187,1.26562 -0.54688,0.79688 -0.8125,1.85938 -0.25,1.04687 -0.25,2.20312 0,1.45313 0.3125,2.54688 0.32812,1.09375 0.92187,1.82812 0.59375,0.71875 1.4375,1.09375 0.84375,0.35938 1.90625,0.35938 1.21875,0 2.07813,-0.46875 0.875,-0.48438 1.42187,-1.28125 0.5625,-0.79688 0.8125,-1.84375 0.26563,-1.0625 0.26563,-2.23438 z m 17.90625,7.84375 0,-11.26562 q 0,-0.73438 -0.0625,-1.20313 -0.0469,-0.46875 -0.17188,-0.73437 -0.10937,-0.28125 -0.29687,-0.39063 -0.17188,-0.10937 -0.4375,-0.10937 -0.3125,0 -0.57813,0.1875 -0.26562,0.1875 -0.57812,0.60937 -0.29688,0.42188 -0.67188,1.125 -0.35937,0.6875 -0.85937,1.70313 l 0,10.07812 -2.48438,0 0,-10.96875 q 0,-0.85937 -0.0625,-1.39062 -0.0469,-0.53125 -0.17187,-0.82813 -0.10938,-0.29687 -0.29688,-0.40625 -0.1875,-0.10937 -0.45312,-0.10937 -0.28125,0 -0.53125,0.15625 -0.25,0.15625 -0.5625,0.5625 -0.29688,0.40625 -0.67188,1.10937 -0.375,0.70313 -0.89062,1.79688 l 0,10.07812 -2.5,0 0,-15.6875 2.07812,0 0.125,2.98438 q 0.40625,-0.89063 0.78125,-1.51563 0.39063,-0.625 0.79688,-1 0.40625,-0.39062 0.85937,-0.5625 0.46875,-0.1875 1.03125,-0.1875 1.26563,0 1.92188,0.82813 0.65625,0.82812 0.65625,2.5625 0.375,-0.8125 0.73437,-1.4375 0.35938,-0.64063 0.76563,-1.0625 0.42187,-0.4375 0.92187,-0.65625 0.5,-0.23438 1.15625,-0.23438 2.95313,0 2.95313,4.54688 l 0,11.42187 -2.5,0 z m 17.59375,0 0,-11.26562 q 0,-0.73438 -0.0625,-1.20313 -0.0469,-0.46875 -0.17188,-0.73437 -0.10937,-0.28125 -0.29687,-0.39063 -0.17188,-0.10937 -0.4375,-0.10937 -0.3125,0 -0.57813,0.1875 -0.26562,0.1875 -0.57812,0.60937 -0.29688,0.42188 -0.67188,1.125 -0.35937,0.6875 -0.85937,1.70313 l 0,10.07812 -2.48438,0 0,-10.96875 q 0,-0.85937 -0.0625,-1.39062 -0.0469,-0.53125 -0.17187,-0.82813 -0.10938,-0.29687 -0.29688,-0.40625 -0.1875,-0.10937 -0.45312,-0.10937 -0.28125,0 -0.53125,0.15625 -0.25,0.15625 -0.5625,0.5625 -0.29688,0.40625 -0.67188,1.10937 -0.375,0.70313 -0.89062,1.79688 l 0,10.07812 -2.5,0 0,-15.6875 2.07812,0 0.125,2.98438 q 0.40625,-0.89063 0.78125,-1.51563 0.39063,-0.625 0.79688,-1 0.40625,-0.39062 0.85937,-0.5625 0.46875,-0.1875 1.03125,-0.1875 1.26563,0 1.92188,0.82813 0.65625,0.82812 0.65625,2.5625 0.375,-0.8125 0.73437,-1.4375 0.35938,-0.64063 0.76563,-1.0625 0.42187,-0.4375 0.92187,-0.65625 0.5,-0.23438 1.15625,-0.23438 2.95313,0 2.95313,4.54688 l 0,11.42187 -2.5,0 z m 11.75,-13.4375 -4.64063,0 0,-2.25 7.39063,0 0,13.42188 4.67187,0 0,2.26562 -12.57812,0 0,-2.26562 5.15625,0 0,-11.17188 z m 0.95312,-8.82812 q 0.45313,0 0.84375,0.17187 0.39063,0.15625 0.67188,0.45313 0.29687,0.29687 0.45312,0.6875 0.17188,0.375 0.17188,0.82812 0,0.4375 -0.17188,0.82813 -0.15625,0.39062 -0.45312,0.6875 -0.28125,0.29687 -0.67188,0.46875 -0.39062,0.15625 -0.84375,0.15625 -0.45312,0 -0.84375,-0.15625 -0.39062,-0.17188 -0.6875,-0.46875 -0.28125,-0.29688 -0.45312,-0.6875 -0.15625,-0.39063 -0.15625,-0.82813 0,-0.45312 0.15625,-0.82812 0.17187,-0.39063 0.45312,-0.6875 0.29688,-0.29688 0.6875,-0.45313 0.39063,-0.17187 0.84375,-0.17187 z m 23.9375,22.04687 q -0.92187,0.23438 -1.90625,0.32813 -0.98437,0.10937 -2,0.10937 -2.95312,0 -4.40625,-1.32812 -1.45312,-1.34375 -1.45312,-4.10938 l 0,-8.1875 -4.39063,0 0,-2.28125 4.39063,0 0,-4.3125 2.71875,-0.70312 0,5.01562 7.04687,0 0,2.28125 -7.04687,0 0,7.96875 q 0,1.6875 0.89062,2.53125 0.90625,0.82813 2.65625,0.82813 0.75,0 1.64063,-0.10938 0.89062,-0.125 1.85937,-0.375 l 0,2.34375 z" />
  <path
     style="fill:#000000;fill-opacity:0;fill-rule:nonzero"
     inkscape:connector-curvature="0"
     id="path7038"
     d="m 332.95669,72.12073 473.66934,0" />
  <path
     style="stroke:#666666;stroke-width:2;stroke-linecap:butt;stroke-linejoin:round"
     inkscape:connector-curvature="0"
     id="path7040"
     d="m 332.95669,72.12073 473.66934,0" />
  <path
     style="fill:#6d9eeb;fill-rule:nonzero"
     inkscape:connector-curvature="0"
     id="path7042"
     d="m 352.74936,114.25196 0,0 c 0,-8.32342 6.74744,-15.07086 15.07086,-15.07086 l 0,0 c 3.99705,0 7.8304,1.5878 10.65671,4.41415 2.82632,2.82633 4.41415,6.65967 4.41415,10.65671 l 0,0 c 0,8.32339 -6.74746,15.07086 -15.07086,15.07086 l 0,0 c -8.32342,0 -15.07086,-6.74747 -15.07086,-15.07086 z" />
  <path
     style="stroke:#666666;stroke-width:2;stroke-linecap:butt;stroke-linejoin:round"
     inkscape:connector-curvature="0"
     id="path7044"
     d="m 352.74936,114.25196 0,0 c 0,-8.32342 6.74744,-15.07086 15.07086,-15.07086 l 0,0 c 3.99705,0 7.8304,1.5878 10.65671,4.41415 2.82632,2.82633 4.41415,6.65967 4.41415,10.65671 l 0,0 c 0,8.32339 -6.74746,15.07086 -15.07086,15.07086 l 0,0 c -8.32342,0 -15.07086,-6.74747 -15.07086,-15.07086 z" />
  <path
     style="fill:#000000;fill-opacity:0;fill-rule:nonzero"
     inkscape:connector-curvature="0"
     id="path7046"
     d="m 283.84647,114.68413 68.90289,-0.43216" />
  <path
     style="stroke:#434343;stroke-width:2;stroke-linecap:butt;stroke-linejoin:round"
     inkscape:connector-curvature="0"
     id="path7048"
     d="m 283.84647,114.68413 56.90314,-0.3569" />
  <path
     style="fill:#434343;fill-rule:evenodd;stroke:#434343;stroke-width:2;stroke-linecap:butt"
     inkscape:connector-curvature="0"
     id="path7050"
     d="m 340.77029,117.63063 9.0553,-3.36032 -9.09671,-3.24649 z" />
  <path
     style="fill:#000000;fill-opacity:0;fill-rule:nonzero"
     inkscape:connector-curvature="0"
     id="path7052"
     d="m 268.3504,1 0,0 c 4.27911,0 7.74802,0.57812 7.74802,1.29129 l 0,111.10155 c 0,0.71317 3.46893,1.29129 7.74804,1.29129 l 0,0 c -4.27911,0 -7.74804,0.57813 -7.74804,1.29129 l 0,186.8829 c 0,0.71314 -3.46891,1.29126 -7.74802,1.29126 z" />
  <path
     style="fill:#000000;fill-opacity:0;fill-rule:nonzero"
     inkscape:connector-curvature="0"
     id="path7054"
     d="m 268.3504,1 0,0 c 4.27911,0 7.74802,0.57812 7.74802,1.29129 l 0,111.10155 c 0,0.71317 3.46893,1.29129 7.74804,1.29129 l 0,0 c -4.27911,0 -7.74804,0.57813 -7.74804,1.29129 l 0,186.8829 c 0,0.71314 -3.46891,1.29126 -7.74802,1.29126" />
  <path
     style="stroke:#434343;stroke-width:2;stroke-linecap:butt;stroke-linejoin:round"
     inkscape:connector-curvature="0"
     id="path7056"
     d="m 268.3504,1 0,0 c 4.27911,0 7.74802,0.57812 7.74802,1.29129 l 0,111.10155 c 0,0.71317 3.46893,1.29129 7.74804,1.29129 l 0,0 c -4.27911,0 -7.74804,0.57813 -7.74804,1.29129 l 0,186.8829 c 0,0.71314 -3.46891,1.29126 -7.74802,1.29126" />
  <path
     style="fill:#000000;fill-opacity:0;fill-rule:nonzero"
     inkscape:connector-curvature="0"
     id="path7058"
     d="m 0.506565,83.3307 262.677205,0 0,52.47244 -262.677205,0 z" />
  <path
     style="fill:#999999;fill-rule:nonzero"
     inkscape:connector-curvature="0"
     id="path7060"
     d="m 25.928435,123.0507 -3.14062,0 -3.04688,-6.53125 q -0.34375,-0.75 -0.70312,-1.23438 -0.35938,-0.5 -0.78125,-0.78125 -0.40625,-0.29687 -0.90625,-0.42187 -0.48438,-0.125 -1.09375,-0.125 l -1.3125,0 0,9.09375 -2.781255,0 0,-20.42188 5.468755,0 q 1.78125,0 3.0625,0.39063 1.28125,0.39062 2.09375,1.09375 0.82812,0.70312 1.20312,1.70312 0.39063,0.98438 0.39063,2.1875 0,0.95313 -0.28125,1.8125 -0.28125,0.84375 -0.84375,1.54688 -0.54688,0.6875 -1.375,1.20312 -0.8125,0.5 -1.875,0.75 0.85937,0.29688 1.45312,1.04688 0.60938,0.73437 1.23438,1.96875 l 3.23437,6.71875 z m -4.45312,-14.8125 q 0,-1.64063 -1.03125,-2.45313 -1.01563,-0.8125 -2.875,-0.8125 l -2.625,0 0,6.75 2.25,0 q 0.98437,0 1.76562,-0.21875 0.79688,-0.23437 1.34375,-0.67187 0.5625,-0.45313 0.85938,-1.09375 0.3125,-0.65625 0.3125,-1.5 z m 20.375,14.8125 -11.60938,0 0,-20.42188 11.60938,0 0,2.34375 -8.82813,0 0,6.32813 8.48438,0 0,2.34375 -8.48438,0 0,7.03125 8.82813,0 0,2.375 z m 20.28125,0 -3.03125,0 -1.42187,-4.45313 -8.5,0 -1.4375,4.45313 -2.89063,0 6.78125,-20.42188 3.8125,0 6.6875,20.42188 z m -5.25,-6.9375 -3.45312,-10.92188 -3.45313,10.92188 6.90625,0 z m 21.85938,-3.5 q 0,1.46875 -0.23438,2.8125 -0.21875,1.34375 -0.71875,2.5 -0.5,1.15625 -1.29687,2.10937 -0.79688,0.9375 -1.95313,1.60938 -1.15625,0.67187 -2.6875,1.04687 -1.53125,0.35938 -3.48437,0.35938 l -4.375,0 0,-20.42188 5.26562,0 q 4.78125,0 7.125,2.46875 2.35938,2.45313 2.35938,7.51563 z m -2.92188,0.20312 q 0,-2.17187 -0.40625,-3.67187 -0.40625,-1.5 -1.23437,-2.42188 -0.82813,-0.92187 -2.07813,-1.32812 -1.25,-0.42188 -2.9375,-0.42188 l -2.39062,0 0,15.67188 2.07812,0 q 6.96875,0 6.96875,-7.82813 z m 20.89063,10.23438 -2.71875,0 -0.40625,-12.73438 -0.17188,-4.89062 -0.95312,2.84375 -3.01563,8.125 -1.92187,0 -2.875,-7.8125 -0.95313,-3.15625 -0.0625,5.10937 -0.35937,12.51563 -2.625,0 1,-20.42188 3.29687,0 2.75,7.6875 0.89063,2.59375 0.85937,-2.59375 2.89063,-7.6875 3.39062,0 0.98438,20.42188 z m 15.515625,0 -11.60937,0 0,-20.42188 11.60937,0 0,2.34375 -8.82812,0 0,6.32813 8.48437,0 0,2.34375 -8.48437,0 0,7.03125 8.82812,0 0,2.375 z m 11.51563,-4.92188 q 0.53125,0 1,0.20313 0.48437,0.20312 0.82812,0.5625 0.35938,0.35937 0.5625,0.84375 0.20313,0.46875 0.20313,1.01562 0,0.53125 -0.20313,1 -0.20312,0.46875 -0.5625,0.82813 -0.34375,0.34375 -0.82812,0.54687 -0.46875,0.20313 -1,0.20313 -0.54688,0 -1.01563,-0.20313 -0.46875,-0.20312 -0.82812,-0.54687 -0.34375,-0.35938 -0.54688,-0.82813 -0.20312,-0.46875 -0.20312,-1 0,-0.54687 0.20312,-1.01562 0.20313,-0.48438 0.54688,-0.84375 0.35937,-0.35938 0.82812,-0.5625 0.46875,-0.20313 1.01563,-0.20313 z m 22.60937,4.92188 0,-11.26563 q 0,-0.73437 -0.0625,-1.20312 -0.0469,-0.46875 -0.17188,-0.73438 -0.10937,-0.28125 -0.29687,-0.39062 -0.17188,-0.10938 -0.4375,-0.10938 -0.3125,0 -0.57813,0.1875 -0.26562,0.1875 -0.57812,0.60938 -0.29688,0.42187 -0.67188,1.125 -0.35937,0.6875 -0.85937,1.70312 l 0,10.07813 -2.48438,0 0,-10.96875 q 0,-0.85938 -0.0625,-1.39063 -0.0469,-0.53125 -0.17187,-0.82812 -0.10938,-0.29688 -0.29688,-0.40625 -0.1875,-0.10938 -0.45312,-0.10938 -0.28125,0 -0.53125,0.15625 -0.25,0.15625 -0.5625,0.5625 -0.29688,0.40625 -0.67188,1.10938 -0.375,0.70312 -0.89062,1.79687 l 0,10.07813 -2.5,0 0,-15.6875 2.07812,0 0.125,2.98437 q 0.40625,-0.89062 0.78125,-1.51562 0.39063,-0.625 0.79688,-1 0.40625,-0.39063 0.85937,-0.5625 0.46875,-0.1875 1.03125,-0.1875 1.26563,0 1.92188,0.82812 0.65625,0.82813 0.65625,2.5625 0.375,-0.8125 0.73437,-1.4375 0.35938,-0.64062 0.76563,-1.0625 0.42187,-0.4375 0.92187,-0.65625 0.5,-0.23437 1.15625,-0.23437 2.95313,0 2.95313,4.54687 l 0,11.42188 -2.5,0 z m 5.60937,-7.51563 q 0,-2 0.54688,-3.54687 0.54687,-1.5625 1.54687,-2.625 1.01563,-1.07813 2.42188,-1.625 1.42187,-0.5625 3.15625,-0.5625 0.75,0 1.46875,0.0937 0.73437,0.0937 1.4375,0.29687 l 0,-6.59375 2.73437,0 0,22.07813 -2.4375,0 -0.0937,-2.96875 q -1.14063,1.65625 -2.46875,2.45312 -1.32813,0.79688 -2.875,0.79688 -1.34375,0 -2.375,-0.5625 -1.01563,-0.5625 -1.70313,-1.57813 -0.67187,-1.03125 -1.01562,-2.46875 -0.34375,-1.4375 -0.34375,-3.1875 z m 2.78125,-0.17187 q 0,2.84375 0.82813,4.25 0.84375,1.39062 2.375,1.39062 1.03125,0 2.17187,-0.92187 1.15625,-0.92188 2.42188,-2.73438 l 0,-7.28125 q -0.67188,-0.3125 -1.48438,-0.46875 -0.8125,-0.17187 -1.60937,-0.17187 -2.21875,0 -3.46875,1.4375 -1.23438,1.4375 -1.23438,4.5 z" />
  <path
     style="fill:#000000;fill-opacity:0;fill-rule:nonzero"
     inkscape:connector-curvature="0"
     id="path7062"
     d="m 0.505249,83.3307 262.677201,0 0,52.47244 -262.677201,0 z" />
  <path
     style="fill:#000000;fill-rule:nonzero"
     inkscape:connector-curvature="0"
     id="path7064"
     d="m 25.927125,123.0507 -3.14062,0 -3.04688,-6.53125 q -0.34375,-0.75 -0.70312,-1.23438 -0.35938,-0.5 -0.78125,-0.78125 -0.40625,-0.29687 -0.90625,-0.42187 -0.48438,-0.125 -1.09375,-0.125 l -1.3125,0 0,9.09375 -2.781255,0 0,-20.42188 5.468755,0 q 1.78125,0 3.0625,0.39063 1.28125,0.39062 2.09375,1.09375 0.82812,0.70312 1.20312,1.70312 0.39063,0.98438 0.39063,2.1875 0,0.95313 -0.28125,1.8125 -0.28125,0.84375 -0.84375,1.54688 -0.54688,0.6875 -1.375,1.20312 -0.8125,0.5 -1.875,0.75 0.85937,0.29688 1.45312,1.04688 0.60938,0.73437 1.23438,1.96875 l 3.23437,6.71875 z m -4.45312,-14.8125 q 0,-1.64063 -1.03125,-2.45313 -1.01563,-0.8125 -2.875,-0.8125 l -2.625,0 0,6.75 2.25,0 q 0.98437,0 1.76562,-0.21875 0.79688,-0.23437 1.34375,-0.67187 0.5625,-0.45313 0.85938,-1.09375 0.3125,-0.65625 0.3125,-1.5 z m 20.375,14.8125 -11.60938,0 0,-20.42188 11.60938,0 0,2.34375 -8.82813,0 0,6.32813 8.48438,0 0,2.34375 -8.48438,0 0,7.03125 8.82813,0 0,2.375 z m 20.28125,0 -3.03125,0 -1.42187,-4.45313 -8.5,0 -1.4375,4.45313 -2.89063,0 6.78125,-20.42188 3.8125,0 6.6875,20.42188 z m -5.25,-6.9375 -3.45312,-10.92188 -3.45313,10.92188 6.90625,0 z m 21.85938,-3.5 q 0,1.46875 -0.23438,2.8125 -0.21875,1.34375 -0.71875,2.5 -0.5,1.15625 -1.29687,2.10937 -0.79688,0.9375 -1.95313,1.60938 -1.15625,0.67187 -2.6875,1.04687 -1.53125,0.35938 -3.48437,0.35938 l -4.375,0 0,-20.42188 5.26562,0 q 4.78125,0 7.125,2.46875 2.35938,2.45313 2.35938,7.51563 z m -2.92188,0.20312 q 0,-2.17187 -0.40625,-3.67187 -0.40625,-1.5 -1.23437,-2.42188 -0.82813,-0.92187 -2.07813,-1.32812 -1.25,-0.42188 -2.9375,-0.42188 l -2.39062,0 0,15.67188 2.07812,0 q 6.96875,0 6.96875,-7.82813 z m 20.89063,10.23438 -2.71875,0 -0.40625,-12.73438 -0.17188,-4.89062 -0.95312,2.84375 -3.01563,8.125 -1.92187,0 -2.875,-7.8125 -0.95313,-3.15625 -0.0625,5.10937 -0.35937,12.51563 -2.625,0 1,-20.42188 3.29687,0 2.75,7.6875 0.89063,2.59375 0.85937,-2.59375 2.89063,-7.6875 3.39062,0 0.98438,20.42188 z m 15.515625,0 -11.60937,0 0,-20.42188 11.60937,0 0,2.34375 -8.82812,0 0,6.32813 8.48437,0 0,2.34375 -8.48437,0 0,7.03125 8.82812,0 0,2.375 z m 11.51563,-4.92188 q 0.53125,0 1,0.20313 0.48437,0.20312 0.82812,0.5625 0.35938,0.35937 0.5625,0.84375 0.20313,0.46875 0.20313,1.01562 0,0.53125 -0.20313,1 -0.20312,0.46875 -0.5625,0.82813 -0.34375,0.34375 -0.82812,0.54687 -0.46875,0.20313 -1,0.20313 -0.54688,0 -1.01563,-0.20313 -0.46875,-0.20312 -0.82812,-0.54687 -0.34375,-0.35938 -0.54688,-0.82813 -0.20312,-0.46875 -0.20312,-1 0,-0.54687 0.20312,-1.01562 0.20313,-0.48438 0.54688,-0.84375 0.35937,-0.35938 0.82812,-0.5625 0.46875,-0.20313 1.01563,-0.20313 z m 22.60937,4.92188 0,-11.26563 q 0,-0.73437 -0.0625,-1.20312 -0.0469,-0.46875 -0.17187,-0.73438 -0.10938,-0.28125 -0.29688,-0.39062 -0.17187,-0.10938 -0.4375,-0.10938 -0.3125,0 -0.57812,0.1875 -0.26563,0.1875 -0.57813,0.60938 -0.29687,0.42187 -0.67187,1.125 -0.35938,0.6875 -0.85938,1.70312 l 0,10.07813 -2.48437,0 0,-10.96875 q 0,-0.85938 -0.0625,-1.39063 -0.0469,-0.53125 -0.17188,-0.82812 -0.10937,-0.29688 -0.29687,-0.40625 -0.1875,-0.10938 -0.45313,-0.10938 -0.28125,0 -0.53125,0.15625 -0.25,0.15625 -0.5625,0.5625 -0.29687,0.40625 -0.67187,1.10938 -0.375,0.70312 -0.89063,1.79687 l 0,10.07813 -2.5,0 0,-15.6875 2.07813,0 0.125,2.98437 q 0.40625,-0.89062 0.78125,-1.51562 0.39062,-0.625 0.79687,-1 0.40625,-0.39063 0.85938,-0.5625 0.46875,-0.1875 1.03125,-0.1875 1.26562,0 1.92187,0.82812 0.65625,0.82813 0.65625,2.5625 0.375,-0.8125 0.73438,-1.4375 0.35937,-0.64062 0.76562,-1.0625 0.42188,-0.4375 0.92188,-0.65625 0.5,-0.23437 1.15625,-0.23437 2.95312,0 2.95312,4.54687 l 0,11.42188 -2.5,0 z m 5.60938,-7.51563 q 0,-2 0.54687,-3.54687 0.54688,-1.5625 1.54688,-2.625 1.01562,-1.07813 2.42187,-1.625 1.42188,-0.5625 3.15625,-0.5625 0.75,0 1.46875,0.0937 0.73438,0.0937 1.4375,0.29687 l 0,-6.59375 2.73438,0 0,22.07813 -2.4375,0 -0.0937,-2.96875 q -1.14062,1.65625 -2.46875,2.45312 -1.32812,0.79688 -2.875,0.79688 -1.34375,0 -2.375,-0.5625 -1.01562,-0.5625 -1.70312,-1.57813 -0.67188,-1.03125 -1.01563,-2.46875 -0.34375,-1.4375 -0.34375,-3.1875 z m 2.78125,-0.17187 q 0,2.84375 0.82812,4.25 0.84375,1.39062 2.375,1.39062 1.03125,0 2.17188,-0.92187 1.15625,-0.92188 2.42187,-2.73438 l 0,-7.28125 q -0.67187,-0.3125 -1.48437,-0.46875 -0.8125,-0.17187 -1.60938,-0.17187 -2.21875,0 -3.46875,1.4375 -1.23437,1.4375 -1.23437,4.5 z" />
</svg>
