<?xml version="1.0" encoding="UTF-8" standalone="no"?>
<svg
   xmlns:dc="http://purl.org/dc/elements/1.1/"
   xmlns:cc="http://creativecommons.org/ns#"
   xmlns:rdf="http://www.w3.org/1999/02/22-rdf-syntax-ns#"
   xmlns:svg="http://www.w3.org/2000/svg"
   xmlns="http://www.w3.org/2000/svg"
   xmlns:sodipodi="http://sodipodi.sourceforge.net/DTD/sodipodi-0.dtd"
   xmlns:inkscape="http://www.inkscape.org/namespaces/inkscape"
   version="1.1"
   viewBox="0.0 0.0 960.0 540.0"
   fill="none"
   stroke="none"
   stroke-linecap="square"
   stroke-miterlimit="10"
   id="svg11010"
   inkscape:version="0.48.4 r9939"
   width="100%"
   height="100%"
   sodipodi:docname="merging-bg.svg">
  <metadata
     id="metadata11083">
    <rdf:RDF>
      <cc:Work
         rdf:about="">
        <dc:format>image/svg+xml</dc:format>
        <dc:type
           rdf:resource="http://purl.org/dc/dcmitype/StillImage" />
      </cc:Work>
    </rdf:RDF>
  </metadata>
  <defs
     id="defs11081" />
  <sodipodi:namedview
     pagecolor="#ffffff"
     bordercolor="#666666"
     borderopacity="1"
     objecttolerance="10"
     gridtolerance="10"
     guidetolerance="10"
     inkscape:pageopacity="0"
     inkscape:pageshadow="2"
     inkscape:window-width="1598"
     inkscape:window-height="866"
     id="namedview11079"
     showgrid="false"
     inkscape:zoom="0.88766276"
     inkscape:cx="480"
     inkscape:cy="270"
     inkscape:window-x="0"
     inkscape:window-y="32"
     inkscape:window-maximized="0"
     inkscape:current-layer="svg11010" />
  <clipPath
     id="g35ed4dc66_042.0">
    <path
       d="m0 0l960.0 0l0 540.0l-960.0 0l0 -540.0z"
       clip-rule="nonzero"
       id="path11013" />
  </clipPath>
  <path
     style="fill:#6d9eeb;fill-rule:nonzero"
     inkscape:connector-curvature="0"
     id="path11019"
     d="m 164.46982,402.40945 0,0 c 0,-19.03861 15.43384,-34.47244 34.47244,-34.47244 l 0,0 c 9.14266,0 17.91086,3.63189 24.37569,10.09674 6.46484,6.46484 10.09676,15.23303 10.09676,24.3757 l 0,0 c 0,19.0386 -15.43384,34.47244 -34.47245,34.47244 l 0,0 c -19.0386,0 -34.47244,-15.43384 -34.47244,-34.47244 z" />
  <path
     style="stroke:#666666;stroke-width:2;stroke-linecap:butt;stroke-linejoin:round"
     inkscape:connector-curvature="0"
     id="path11021"
     d="m 164.46982,402.40945 0,0 c 0,-19.03861 15.43384,-34.47244 34.47244,-34.47244 l 0,0 c 9.14266,0 17.91086,3.63189 24.37569,10.09674 6.46484,6.46484 10.09676,15.23303 10.09676,24.3757 l 0,0 c 0,19.0386 -15.43384,34.47244 -34.47245,34.47244 l 0,0 c -19.0386,0 -34.47244,-15.43384 -34.47244,-34.47244 z" />
  <path
     style="fill:#93c47d;fill-rule:nonzero"
     inkscape:connector-curvature="0"
     id="path11023"
     d="m 336.0656,216.37794 0,0 c 0,-19.03859 15.43384,-34.47243 34.47244,-34.47243 l 0,0 c 9.14267,0 17.91086,3.6319 24.3757,10.09674 6.46485,6.46483 10.09675,15.23304 10.09675,24.37569 l 0,0 c 0,19.03861 -15.43384,34.47244 -34.47245,34.47244 l 0,0 c -19.0386,0 -34.47244,-15.43383 -34.47244,-34.47244 z" />
  <path
     style="stroke:#666666;stroke-width:2;stroke-linecap:butt;stroke-linejoin:round"
     inkscape:connector-curvature="0"
     id="path11025"
     d="m 336.0656,216.37794 0,0 c 0,-19.03859 15.43384,-34.47243 34.47244,-34.47243 l 0,0 c 9.14267,0 17.91086,3.6319 24.3757,10.09674 6.46485,6.46483 10.09675,15.23304 10.09675,24.37569 l 0,0 c 0,19.03861 -15.43384,34.47244 -34.47245,34.47244 l 0,0 c -19.0386,0 -34.47244,-15.43383 -34.47244,-34.47244 z" />
  <path
     style="fill:#000000;fill-opacity:0;fill-rule:nonzero"
     inkscape:connector-curvature="0"
     id="path11027"
     d="m -0.00262101,402.40945 164.47244101,0" />
  <path
     style="stroke:#666666;stroke-width:2;stroke-linecap:butt;stroke-linejoin:round"
     inkscape:connector-curvature="0"
     id="path11029"
     d="m -0.00262101,402.40945 152.47244101,0" />
  <path
     style="fill:#666666;fill-rule:evenodd;stroke:#666666;stroke-width:2;stroke-linecap:butt"
     inkscape:connector-curvature="0"
     id="path11031"
     d="m 152.46982,405.71292 9.07619,-3.30347 -9.07619,-3.30346 z" />
  <path
     style="fill:#000000;fill-opacity:0;fill-rule:nonzero"
     inkscape:connector-curvature="0"
     id="path11033"
     d="M 223.31795,378.03375 346.16236,240.75365" />
  <path
     style="stroke:#666666;stroke-width:2;stroke-linecap:butt;stroke-linejoin:round"
     inkscape:connector-curvature="0"
     id="path11035"
     d="M 223.31795,378.03375 338.16028,249.69607" />
  <path
     style="fill:#666666;fill-rule:evenodd;stroke:#666666;stroke-width:2;stroke-linecap:butt"
     inkscape:connector-curvature="0"
     id="path11037"
     d="m 340.62204,251.89894 3.59061,-8.96646 -8.5141,4.5607 z" />
  <path
     style="fill:#000000;fill-opacity:0;fill-rule:nonzero"
     inkscape:connector-curvature="0"
     id="path11039"
     d="m 405.0105,216.37796 132.62994,0" />
  <path
     style="stroke:#666666;stroke-width:2;stroke-linecap:butt;stroke-linejoin:round"
     inkscape:connector-curvature="0"
     id="path11041"
     d="m 405.0105,216.37796 120.62994,0" />
  <path
     style="fill:#666666;fill-rule:evenodd;stroke:#666666;stroke-width:2;stroke-linecap:butt"
     inkscape:connector-curvature="0"
     id="path11043"
     d="m 525.64044,219.68141 9.07617,-3.30345 -9.07617,-3.30347 z" />
  <path
     style="fill:#93c47d;fill-rule:nonzero"
     inkscape:connector-curvature="0"
     id="path11045"
     d="m 537.64044,216.37794 0,0 c 0,-19.03859 15.43384,-34.47243 34.47241,-34.47243 l 0,0 c 9.14264,0 17.91089,3.6319 24.37573,10.09674 6.46479,6.46483 10.09674,15.23304 10.09674,24.37569 l 0,0 c 0,19.03861 -15.43383,34.47244 -34.47247,34.47244 l 0,0 c -19.03857,0 -34.47241,-15.43383 -34.47241,-34.47244 z" />
  <path
     style="stroke:#666666;stroke-width:2;stroke-linecap:butt;stroke-linejoin:round"
     inkscape:connector-curvature="0"
     id="path11047"
     d="m 537.64044,216.37794 0,0 c 0,-19.03859 15.43384,-34.47243 34.47241,-34.47243 l 0,0 c 9.14264,0 17.91089,3.6319 24.37573,10.09674 6.46479,6.46483 10.09674,15.23304 10.09674,24.37569 l 0,0 c 0,19.03861 -15.43383,34.47244 -34.47247,34.47244 l 0,0 c -19.03857,0 -34.47241,-15.43383 -34.47241,-34.47244 z" />
  <path
     style="fill:#000000;fill-opacity:0;fill-rule:nonzero"
     inkscape:connector-curvature="0"
     id="path11049"
     d="m 233.4147,402.40945 164.47244,0" />
  <path
     style="stroke:#666666;stroke-width:2;stroke-linecap:butt;stroke-linejoin:round"
     inkscape:connector-curvature="0"
     id="path11051"
     d="m 233.4147,402.40945 152.47244,0" />
  <path
     style="fill:#666666;fill-rule:evenodd;stroke:#666666;stroke-width:2;stroke-linecap:butt"
     inkscape:connector-curvature="0"
     id="path11053"
     d="m 385.88715,405.71292 9.0762,-3.30347 -9.0762,-3.30346 z" />
  <path
     style="fill:#6d9eeb;fill-rule:nonzero"
     inkscape:connector-curvature="0"
     id="path11055"
     d="m 397.88452,402.40945 0,0 c 0,-19.03861 15.43384,-34.47244 34.47244,-34.47244 l 0,0 c 9.14264,0 17.91086,3.63189 24.3757,10.09674 6.46482,6.46484 10.09675,15.23303 10.09675,24.3757 l 0,0 c 0,19.0386 -15.43384,34.47244 -34.47245,34.47244 l 0,0 c -19.0386,0 -34.47244,-15.43384 -34.47244,-34.47244 z" />
  <path
     style="stroke:#666666;stroke-width:2;stroke-linecap:butt;stroke-linejoin:round"
     inkscape:connector-curvature="0"
     id="path11057"
     d="m 397.88452,402.40945 0,0 c 0,-19.03861 15.43384,-34.47244 34.47244,-34.47244 l 0,0 c 9.14264,0 17.91086,3.63189 24.3757,10.09674 6.46482,6.46484 10.09675,15.23303 10.09675,24.3757 l 0,0 c 0,19.0386 -15.43384,34.47244 -34.47245,34.47244 l 0,0 c -19.0386,0 -34.47244,-15.43384 -34.47244,-34.47244 z" />
  <path
     style="fill:#000000;fill-opacity:0;fill-rule:nonzero"
     inkscape:connector-curvature="0"
     id="path11059"
     d="m 466.8294,402.40945 272.0315,0" />
  <path
     style="stroke:#666666;stroke-width:2;stroke-linecap:butt;stroke-linejoin:round"
     inkscape:connector-curvature="0"
     id="path11061"
     d="m 466.8294,402.40945 260.0315,0" />
  <path
     style="fill:#666666;fill-rule:evenodd;stroke:#666666;stroke-width:2;stroke-linecap:butt"
     inkscape:connector-curvature="0"
     id="path11063"
     d="m 726.8609,405.71292 9.07617,-3.30347 -9.07617,-3.30346 z" />
  <path
     style="fill:#6d9eeb;fill-rule:nonzero"
     inkscape:connector-curvature="0"
     id="path11065"
     d="m 738.8609,402.40945 0,0 c 0,-19.03861 15.43384,-34.47244 34.47241,-34.47244 l 0,0 c 9.1427,0 17.91089,3.63189 24.37573,10.09674 6.46485,6.46484 10.09674,15.23303 10.09674,24.3757 l 0,0 c 0,19.0386 -15.43383,34.47244 -34.47247,34.47244 l 0,0 c -19.03857,0 -34.47241,-15.43384 -34.47241,-34.47244 z" />
  <path
     style="stroke:#666666;stroke-width:2;stroke-linecap:butt;stroke-linejoin:round"
     inkscape:connector-curvature="0"
     id="path11067"
     d="m 738.8609,402.40945 0,0 c 0,-19.03861 15.43384,-34.47244 34.47241,-34.47244 l 0,0 c 9.1427,0 17.91089,3.63189 24.37573,10.09674 6.46485,6.46484 10.09674,15.23303 10.09674,24.3757 l 0,0 c 0,19.0386 -15.43383,34.47244 -34.47247,34.47244 l 0,0 c -19.03857,0 -34.47241,-15.43384 -34.47241,-34.47244 z" />
  <path
     style="fill:#000000;fill-opacity:0;fill-rule:nonzero"
     inkscape:connector-curvature="0"
     id="path11069"
     d="m 596.4886,240.75365 152.46906,137.2801" />
  <path
     style="stroke:#666666;stroke-width:2;stroke-linecap:butt;stroke-linejoin:round"
     inkscape:connector-curvature="0"
     id="path11071"
     d="M 596.4886,240.75365 740.03987,370.00431" />
  <path
     style="fill:#666666;fill-rule:evenodd;stroke:#666666;stroke-width:2;stroke-linecap:butt"
     inkscape:connector-curvature="0"
     id="path11073"
     d="m 737.8294,372.4593 8.95544,3.61807 -4.5346,-8.52804 z" />
  <path
     style="fill:#000000;fill-opacity:0;fill-rule:nonzero"
     inkscape:connector-curvature="0"
     id="path11075"
     d="m 807.8058,402.40945 154.83466,0" />
  <path
     style="stroke:#666666;stroke-width:2;stroke-linecap:butt;stroke-linejoin:round"
     inkscape:connector-curvature="0"
     id="path11077"
     d="m 807.8058,402.40945 154.83466,0" />
</svg>
