<?xml version="1.0" encoding="UTF-8" standalone="no"?>
<!-- Created with Inkscape (http://www.inkscape.org/) -->

<svg
   xmlns:dc="http://purl.org/dc/elements/1.1/"
   xmlns:cc="http://creativecommons.org/ns#"
   xmlns:rdf="http://www.w3.org/1999/02/22-rdf-syntax-ns#"
   xmlns:svg="http://www.w3.org/2000/svg"
   xmlns="http://www.w3.org/2000/svg"
   xmlns:sodipodi="http://sodipodi.sourceforge.net/DTD/sodipodi-0.dtd"
   xmlns:inkscape="http://www.inkscape.org/namespaces/inkscape"
   width="408.9726"
   height="264.99219"
   id="svg5993"
   version="1.1"
   inkscape:version="0.48.4 r9939"
   sodipodi:docname="remotes.svg">
  <defs
     id="defs5995">
    <marker
       inkscape:stockid="Arrow2Mend"
       orient="auto"
       refY="0"
       refX="0"
       id="Arrow2Mend"
       style="overflow:visible">
      <path
         id="path6954"
         style="fill-rule:evenodd;stroke-width:0.625;stroke-linejoin:round"
         d="M 8.7185878,4.0337352 -2.2072895,0.01601326 8.7185884,-4.0017078 c -1.7454984,2.3720609 -1.7354408,5.6174519 -6e-7,8.035443 z"
         transform="scale(-0.6,-0.6)"
         inkscape:connector-curvature="0" />
    </marker>
  </defs>
  <sodipodi:namedview
     id="base"
     pagecolor="#ffffff"
     bordercolor="#666666"
     borderopacity="1.0"
     inkscape:pageopacity="0.0"
     inkscape:pageshadow="2"
     inkscape:zoom="1.0349609"
     inkscape:cx="145.1751"
     inkscape:cy="-22.428568"
     inkscape:document-units="px"
     inkscape:current-layer="layer1"
     showgrid="false"
     inkscape:snap-bbox="true"
     inkscape:bbox-nodes="true"
     inkscape:bbox-paths="false"
     inkscape:snap-bbox-edge-midpoints="false"
     inkscape:snap-bbox-midpoints="true"
     inkscape:window-width="1598"
     inkscape:window-height="866"
     inkscape:window-x="0"
     inkscape:window-y="32"
     inkscape:window-maximized="0"
     fit-margin-top="0"
     fit-margin-left="0"
     fit-margin-right="0"
     fit-margin-bottom="0" />
  <metadata
     id="metadata5998">
    <rdf:RDF>
      <cc:Work
         rdf:about="">
        <dc:format>image/svg+xml</dc:format>
        <dc:type
           rdf:resource="http://purl.org/dc/dcmitype/StillImage" />
        <dc:title></dc:title>
      </cc:Work>
    </rdf:RDF>
  </metadata>
  <g
     inkscape:label="Layer 1"
     inkscape:groupmode="layer"
     id="layer1"
     transform="translate(-246.49146,-108.89125)">
    <path
       style="color:#000000;fill:#eeeeec;fill-opacity:1;fill-rule:nonzero;stroke:#d3d7cf;stroke-width:1.16134202;stroke-linecap:butt;stroke-linejoin:miter;stroke-miterlimit:4;stroke-opacity:1;stroke-dasharray:none;stroke-dashoffset:0;marker:none;visibility:visible;display:inline;overflow:visible;enable-background:accumulate"
       d="m 498.64979,109.47503 c -18.54547,0.29407 -34.74525,6.49909 -43.97374,15.71441 -5.06346,-1.69902 -10.58024,-2.62512 -16.35557,-2.62512 -17.55087,0 -32.73439,8.62075 -39.98161,21.1461 -4.7486,-2.74059 -10.33881,-4.31874 -16.31928,-4.31874 -17.24902,0 -31.22316,13.14403 -31.22316,29.36018 0,16.21615 13.97414,29.36018 31.22316,29.36018 3.4143,0 6.69937,-0.52389 9.77463,-1.47587 -1.12345,3.60177 -1.72992,7.43074 -1.72992,11.39566 0,21.38053 17.58959,38.71141 39.27998,38.71141 17.75462,0 32.75049,-11.61724 37.61055,-27.55768 0.74759,0.33631 1.50688,0.65152 2.27429,0.94359 -1.37502,3.16493 -2.11703,6.50713 -2.11703,9.96818 0,19.72793 23.95408,35.72337 53.49432,35.72337 29.54024,0 53.48222,-15.99544 53.48222,-35.72337 0,-4.79657 -1.41254,-9.37021 -3.98001,-13.54899 25.50274,-3.20971 45.002,-20.87332 45.002,-42.18333 0,-23.58516 -23.88869,-42.70351 -53.36125,-42.70351 -3.72314,0 -7.35526,0.31451 -10.86338,0.8952 -6.98457,-13.40223 -27.11179,-23.08167 -50.85711,-23.08167 -0.46156,0 -0.92033,-0.007 -1.37909,0 z"
       id="path6846"
       inkscape:connector-curvature="0" />
    <g
       id="g6835"
       transform="matrix(1.1328338,0,0,1.1328338,-86.216042,-36.9156)">
      <g
         transform="matrix(0.49544372,0,0,0.49544372,318.11572,81.942446)"
         style="fill:#fce94f;stroke:#edd400"
         id="g9044">
        <path
           style="color:#000000;fill:#fce94f;fill-opacity:1;fill-rule:nonzero;stroke:#edd400;stroke-width:1.66751659;stroke-linecap:butt;stroke-linejoin:miter;stroke-miterlimit:10;stroke-opacity:1;stroke-dasharray:none;stroke-dashoffset:0;marker:none;visibility:visible;display:inline;overflow:visible;enable-background:accumulate"
           d="m 598.00905,203.42202 -9.69939,12.57586 -88.48954,0 c -5.62317,0 -10.14406,4.53479 -10.14406,10.15795 l 0,90.032 c 0,5.62317 4.52089,10.14407 10.14406,10.14407 l 168.58592,0 c 5.62317,0 10.14406,-4.5209 10.14406,-10.14407 l 0,-90.032 c 0,-5.62316 -4.52089,-10.15795 -10.14406,-10.15795 l -11.47807,0 -7.94849,-12.57586 -50.97043,0 z"
           id="rect8395-2"
           inkscape:connector-curvature="0" />
      </g>
      <g
         transform="matrix(0.49544372,0,0,0.49544372,334.10915,86.462328)"
         style="line-height:125%;letter-spacing:0px;word-spacing:0px;color:#000000;fill:#000000;fill-opacity:1;fill-rule:nonzero;stroke:none;stroke-width:1px;marker:none;visibility:visible;display:inline;overflow:visible;enable-background:accumulate"
         id="flowRoot9036">
        <path
           inkscape:connector-curvature="0"
           d="m 511.90234,266.68658 c 0.4427,1e-5 0.85937,0.0847 1.25,0.25391 0.40364,0.16928 0.74869,0.40365 1.03516,0.70313 0.29947,0.29948 0.53384,0.65104 0.70312,1.05468 0.16926,0.39063 0.2539,0.81381 0.25391,1.26953 -10e-6,0.44272 -0.0847,0.85938 -0.25391,1.25 -0.16928,0.39063 -0.40365,0.73568 -0.70312,1.03516 -0.28647,0.28646 -0.63152,0.51432 -1.03516,0.68359 -0.39063,0.16928 -0.8073,0.25391 -1.25,0.25391 -0.45574,0 -0.87891,-0.0846 -1.26953,-0.25391 -0.39063,-0.16927 -0.73568,-0.39713 -1.03515,-0.68359 -0.28647,-0.29948 -0.51433,-0.64453 -0.6836,-1.03516 -0.16928,-0.39062 -0.25391,-0.80728 -0.2539,-1.25 -1e-5,-0.45572 0.0846,-0.8789 0.2539,-1.26953 0.16927,-0.40364 0.39713,-0.7552 0.6836,-1.05468 0.29947,-0.29948 0.64452,-0.53385 1.03515,-0.70313 0.39062,-0.16926 0.81379,-0.2539 1.26953,-0.25391"
           style="font-size:40px;font-style:normal;font-variant:normal;font-weight:normal;font-stretch:normal;marker:none;font-family:Consolas;-inkscape-font-specification:Consolas"
           id="path10324" />
        <path
           inkscape:connector-curvature="0"
           d="m 540.30078,256.00299 c 0.36457,0.45575 0.64451,0.9896 0.83984,1.60156 0.20832,0.59898 0.31249,1.25002 0.3125,1.95313 -10e-6,1.01564 -0.18882,1.94662 -0.5664,2.79297 -0.3646,0.83334 -0.88543,1.54949 -1.5625,2.14843 -0.6771,0.59897 -1.4909,1.06772 -2.44141,1.40625 -0.93751,0.32553 -1.97267,0.48829 -3.10547,0.48829 -0.82032,0 -1.58855,-0.0846 -2.30468,-0.25391 -0.71616,-0.18229 -1.28256,-0.40364 -1.69922,-0.66406 -0.2474,0.36459 -0.45574,0.70964 -0.625,1.03515 -0.16928,0.32553 -0.25391,0.69011 -0.25391,1.09375 0,0.4948 0.23437,0.90496 0.70313,1.23047 0.48176,0.32553 1.11327,0.50131 1.89453,0.52735 l 5.15625,0.19531 c 0.97655,0.026 1.87498,0.14974 2.69531,0.37109 0.83332,0.22136 1.54295,0.54037 2.12891,0.95703 0.59894,0.41667 1.06117,0.93099 1.38671,1.54297 0.33853,0.61198 0.5078,1.32162 0.50782,2.12891 -2e-5,0.87239 -0.18882,1.69921 -0.56641,2.48047 -0.37762,0.78124 -0.96356,1.46484 -1.75781,2.05078 -0.78127,0.59895 -1.77736,1.07421 -2.98828,1.42578 -1.21095,0.35155 -2.64975,0.52734 -4.31641,0.52734 -1.58855,0 -2.94271,-0.13021 -4.0625,-0.39062 -1.10678,-0.24741 -2.01823,-0.59897 -2.73437,-1.05469 -0.71615,-0.44271 -1.23699,-0.97657 -1.5625,-1.60156 -0.32553,-0.61199 -0.48829,-1.28907 -0.48829,-2.03125 0,-0.95052 0.22136,-1.78386 0.66407,-2.5 0.4427,-0.71615 1.1263,-1.40625 2.05078,-2.07031 -0.33855,-0.15625 -0.63152,-0.35156 -0.87891,-0.58594 -0.2474,-0.23437 -0.44922,-0.48828 -0.60547,-0.76172 -0.15625,-0.28646 -0.27344,-0.58593 -0.35156,-0.89844 -0.0781,-0.31249 -0.11719,-0.61848 -0.11719,-0.91797 0,-0.84635 0.19531,-1.62108 0.58594,-2.32422 0.40364,-0.70311 0.8789,-1.36717 1.42578,-1.99218 -0.2474,-0.29947 -0.46875,-0.59244 -0.66406,-0.87891 -0.1823,-0.28645 -0.34506,-0.59244 -0.48828,-0.91797 -0.13021,-0.33853 -0.23438,-0.6966 -0.3125,-1.07422 -0.0651,-0.39061 -0.0977,-0.83332 -0.0977,-1.32812 0,-1.01561 0.18229,-1.94009 0.54688,-2.77344 0.3776,-0.84634 0.89843,-1.56899 1.5625,-2.16797 0.67707,-0.59894 1.48437,-1.06118 2.42187,-1.38672 0.95051,-0.33852 1.99869,-0.50779 3.14453,-0.50781 0.48176,2e-5 0.944,0.0326 1.38672,0.0977 0.4427,0.0651 0.83332,0.14976 1.17188,0.2539 l 7.10937,0 0,2.77344 -3.14453,0 M 528.50387,275.671 c -10e-6,0.92447 0.48176,1.59505 1.44531,2.01172 0.96353,0.42968 2.30468,0.64452 4.02344,0.64453 1.08071,-10e-6 1.98566,-0.0977 2.71484,-0.29297 0.74217,-0.19532 1.33462,-0.45573 1.77734,-0.78125 0.45572,-0.3125 0.78124,-0.67709 0.97657,-1.09375 0.19529,-0.40365 0.29295,-0.82031 0.29296,-1.25 -10e-6,-0.79427 -0.32553,-1.38021 -0.97656,-1.75781 -0.65105,-0.37761 -1.64715,-0.59896 -2.98828,-0.66406 l -5.11719,-0.17579 c -0.42969,0.28646 -0.78776,0.56641 -1.07422,0.83985 -0.27344,0.27344 -0.48828,0.54687 -0.64453,0.82031 -0.15625,0.28646 -0.26693,0.56641 -0.33203,0.83984 -0.0651,0.28646 -0.0977,0.57292 -0.0976,0.85938 m 1.03515,-16.03516 c 0,0.62502 0.10416,1.19793 0.3125,1.71875 0.20833,0.52085 0.5013,0.96356 0.87891,1.32813 0.37759,0.36459 0.8203,0.65105 1.32812,0.85937 0.52083,0.19532 1.09374,0.29298 1.71875,0.29297 0.67708,10e-6 1.27603,-0.11067 1.79688,-0.33203 0.53384,-0.23436 0.97655,-0.54686 1.32812,-0.9375 0.36457,-0.39061 0.63801,-0.83983 0.82032,-1.34766 0.19529,-0.5078 0.29295,-1.03514 0.29296,-1.58203 -10e-6,-0.62498 -0.10418,-1.1979 -0.3125,-1.71875 -0.20834,-0.52081 -0.50131,-0.96352 -0.8789,-1.32812 -0.37762,-0.36457 -0.82684,-0.64452 -1.34766,-0.83985 -0.50782,-0.20831 -1.07423,-0.31248 -1.69922,-0.3125 -0.67709,2e-5 -1.28256,0.11721 -1.8164,0.35157 -0.52084,0.23439 -0.96355,0.54689 -1.32813,0.9375 -0.35157,0.37762 -0.625,0.82032 -0.82031,1.32812 -0.1823,0.50783 -0.27344,1.03517 -0.27344,1.58203"
           style="font-size:40px;font-style:normal;font-variant:normal;font-weight:normal;font-stretch:normal;marker:none;font-family:Consolas;-inkscape-font-specification:Consolas"
           id="path10326" />
        <path
           inkscape:connector-curvature="0"
           d="m 554.85156,256.04205 -5.80078,0 0,-2.8125 9.23828,0 0,16.77735 5.83985,0 0,2.83203 -15.72266,0 0,-2.83203 6.44531,0 0,-13.96485 m 1.19141,-11.03515 c 0.37759,2e-5 0.72915,0.0716 1.05469,0.21484 0.3255,0.13024 0.60545,0.31904 0.83984,0.56641 0.24738,0.24742 0.43618,0.53388 0.56641,0.85937 0.14321,0.31253 0.21483,0.65758 0.21484,1.03516 -10e-6,0.36461 -0.0716,0.70966 -0.21484,1.03515 -0.13023,0.32555 -0.31903,0.61201 -0.56641,0.85938 -0.23439,0.24742 -0.51434,0.44273 -0.83984,0.58594 -0.32554,0.13023 -0.6771,0.19533 -1.05469,0.19531 -0.37762,2e-5 -0.72918,-0.0651 -1.05469,-0.19531 -0.32553,-0.14321 -0.61199,-0.33852 -0.85937,-0.58594 -0.23439,-0.24737 -0.42319,-0.53383 -0.56641,-0.85938 -0.13022,-0.32549 -0.19532,-0.67054 -0.19531,-1.03515 -1e-5,-0.37758 0.0651,-0.72263 0.19531,-1.03516 0.14322,-0.32549 0.33202,-0.61195 0.56641,-0.85937 0.24738,-0.24737 0.53384,-0.43617 0.85937,-0.56641 0.32551,-0.1432 0.67707,-0.21482 1.05469,-0.21484"
           style="font-size:40px;font-style:normal;font-variant:normal;font-weight:normal;font-stretch:normal;marker:none;font-family:Consolas;-inkscape-font-specification:Consolas"
           id="path10328" />
        <path
           inkscape:connector-curvature="0"
           d="m 585.96484,272.56549 c -0.76824,0.19531 -1.56251,0.33203 -2.38281,0.41016 -0.82033,0.0911 -1.65366,0.13672 -2.5,0.13672 -2.46095,0 -4.29688,-0.55339 -5.50781,-1.66016 -1.21095,-1.11979 -1.81641,-2.83203 -1.81641,-5.13672 l 0,-10.23437 -5.48828,0 0,-2.85157 5.48828,0 0,-5.39062 3.39844,-0.87891 0,6.26953 8.80859,0 0,2.85157 -8.80859,0 0,9.96093 c -10e-6,1.40626 0.37108,2.46095 1.11328,3.16407 0.7552,0.6901 1.86197,1.03515 3.32031,1.03515 0.62499,0 1.30858,-0.0456 2.05078,-0.13672 0.74218,-0.10416 1.51691,-0.26041 2.32422,-0.46875 l 0,2.92969"
           style="font-size:40px;font-style:normal;font-variant:normal;font-weight:normal;font-stretch:normal;marker:none;font-family:Consolas;-inkscape-font-specification:Consolas"
           id="path10330" />
      </g>
    </g>
    <flowRoot
       xml:space="preserve"
       id="flowRoot6861"
       style="font-size:32px;line-height:125%;letter-spacing:0px;word-spacing:0px;color:#000000;fill:#000000;fill-opacity:1;fill-rule:nonzero;stroke:none;stroke-width:1px;marker:none;visibility:visible;display:inline;overflow:visible;enable-background:accumulate;font-family:CMU Serif;-inkscape-font-specification:CMU Serif"><flowRegion
         id="flowRegion6863"><rect
           id="rect6865"
           width="211.1152"
           height="73.787842"
           x="145.52602"
           y="235.23018"
           style="font-size:32px;font-family:CMU Serif;-inkscape-font-specification:CMU Serif" /></flowRegion><flowPara
         id="flowPara6867"></flowPara></flowRoot>    <g
       id="g6899"
       style="fill:#888a85;stroke:#555753;stroke-width:3;stroke-miterlimit:4;stroke-dasharray:none"
       transform="matrix(0.36038777,0,0,0.36038777,215.02287,224.55043)">
      <path
         sodipodi:nodetypes="cccc"
         inkscape:connector-curvature="0"
         id="path6897"
         d="m 95.992517,370.33708 46.800623,42.53049 160.55687,0 -54.14525,-42.93616"
         style="fill:#888a85;stroke:#555753;stroke-width:3;stroke-linecap:butt;stroke-linejoin:miter;stroke-miterlimit:4;stroke-opacity:1;stroke-dasharray:none" />
      <path
         sodipodi:nodetypes="ccccc"
         inkscape:connector-curvature="0"
         id="path6895"
         d="m 241.95664,280.83989 7.24812,89.09152 -153.212243,0.40567 -7.173818,-90.69756 z"
         style="fill:#888a85;stroke:#555753;stroke-width:3;stroke-linecap:butt;stroke-linejoin:miter;stroke-miterlimit:4;stroke-opacity:1;stroke-dasharray:none" />
    </g>
    <path
       sodipodi:nodetypes="ccccc"
       inkscape:connector-curvature="0"
       id="path6895-2"
       d="m 298.88921,329.13192 2.26548,25.41063 -47.8883,0.1157 -2.24227,-25.8687 z"
       style="fill:#2e3436;stroke:#2e3436;stroke-width:0.89573348;stroke-linecap:butt;stroke-linejoin:miter;stroke-miterlimit:4;stroke-opacity:1;stroke-dasharray:none" />
    <path
       style="fill:none;stroke:#000000;stroke-width:1px;stroke-linecap:round;stroke-linejoin:miter;stroke-opacity:1;marker-end:url(#Arrow2Mend)"
       d="M 276.94042,342.80483 558.19135,224.29864"
       id="path6921"
       inkscape:connector-curvature="0"
       sodipodi:nodetypes="cc" />
    <flowRoot
       xml:space="preserve"
       id="flowRoot7402"
       style="font-style:normal;font-variant:normal;font-weight:500;font-stretch:normal;line-height:125%;letter-spacing:0px;word-spacing:0px;color:#000000;fill:#000000;fill-opacity:1;fill-rule:nonzero;stroke:none;stroke-width:1px;marker:none;visibility:visible;display:inline;overflow:visible;enable-background:accumulate;font-family:CMU Typewriter Text Variable Width;-inkscape-font-specification:CMU Typewriter Text Variable Width Medium"><flowRegion
         id="flowRegion7404"><rect
           id="rect7406"
           width="149.7641"
           height="53.142101"
           x="113.04774"
           y="288.08212" /></flowRegion><flowPara
         id="flowPara7408"></flowPara></flowRoot>  </g>
</svg>
