<?xml version="1.0" encoding="UTF-8" standalone="no"?>
<!-- Created with Inkscape (http://www.inkscape.org/) -->

<svg
   xmlns:dc="http://purl.org/dc/elements/1.1/"
   xmlns:cc="http://creativecommons.org/ns#"
   xmlns:rdf="http://www.w3.org/1999/02/22-rdf-syntax-ns#"
   xmlns:svg="http://www.w3.org/2000/svg"
   xmlns="http://www.w3.org/2000/svg"
   xmlns:sodipodi="http://sodipodi.sourceforge.net/DTD/sodipodi-0.dtd"
   xmlns:inkscape="http://www.inkscape.org/namespaces/inkscape"
   width="567.50549"
   height="264.99219"
   id="svg5993"
   version="1.1"
   inkscape:version="0.48.4 r9939"
   sodipodi:docname="remotes-defn.svg">
  <defs
     id="defs5995">
    <marker
       inkscape:stockid="Arrow2Mend"
       orient="auto"
       refY="0"
       refX="0"
       id="Arrow2Mend"
       style="overflow:visible">
      <path
         id="path6954"
         style="fill-rule:evenodd;stroke-width:0.625;stroke-linejoin:round"
         d="M 8.7185878,4.0337352 -2.2072895,0.01601326 8.7185884,-4.0017078 c -1.7454984,2.3720609 -1.7354408,5.6174519 -6e-7,8.035443 z"
         transform="scale(-0.6,-0.6)"
         inkscape:connector-curvature="0" />
    </marker>
  </defs>
  <sodipodi:namedview
     id="base"
     pagecolor="#ffffff"
     bordercolor="#666666"
     borderopacity="1.0"
     inkscape:pageopacity="0.0"
     inkscape:pageshadow="2"
     inkscape:zoom="1.0349609"
     inkscape:cx="327.14108"
     inkscape:cy="161.46705"
     inkscape:document-units="px"
     inkscape:current-layer="layer1"
     showgrid="false"
     inkscape:snap-bbox="true"
     inkscape:bbox-nodes="true"
     inkscape:bbox-paths="false"
     inkscape:snap-bbox-edge-midpoints="false"
     inkscape:snap-bbox-midpoints="true"
     inkscape:window-width="1598"
     inkscape:window-height="866"
     inkscape:window-x="0"
     inkscape:window-y="32"
     inkscape:window-maximized="0"
     fit-margin-top="0"
     fit-margin-left="0"
     fit-margin-right="0"
     fit-margin-bottom="0" />
  <metadata
     id="metadata5998">
    <rdf:RDF>
      <cc:Work
         rdf:about="">
        <dc:format>image/svg+xml</dc:format>
        <dc:type
           rdf:resource="http://purl.org/dc/dcmitype/StillImage" />
        <dc:title></dc:title>
      </cc:Work>
    </rdf:RDF>
  </metadata>
  <g
     inkscape:label="Layer 1"
     inkscape:groupmode="layer"
     id="layer1"
     transform="translate(-246.49146,-108.89125)">
    <path
       style="color:#000000;fill:#eeeeec;fill-opacity:1;fill-rule:nonzero;stroke:#d3d7cf;stroke-width:1.16134202;stroke-linecap:butt;stroke-linejoin:miter;stroke-miterlimit:4;stroke-opacity:1;stroke-dasharray:none;stroke-dashoffset:0;marker:none;visibility:visible;display:inline;overflow:visible;enable-background:accumulate"
       d="m 498.64979,109.47503 c -18.54547,0.29407 -34.74525,6.49909 -43.97374,15.71441 -5.06346,-1.69902 -10.58024,-2.62512 -16.35557,-2.62512 -17.55087,0 -32.73439,8.62075 -39.98161,21.1461 -4.7486,-2.74059 -10.33881,-4.31874 -16.31928,-4.31874 -17.24902,0 -31.22316,13.14403 -31.22316,29.36018 0,16.21615 13.97414,29.36018 31.22316,29.36018 3.4143,0 6.69937,-0.52389 9.77463,-1.47587 -1.12345,3.60177 -1.72992,7.43074 -1.72992,11.39566 0,21.38053 17.58959,38.71141 39.27998,38.71141 17.75462,0 32.75049,-11.61724 37.61055,-27.55768 0.74759,0.33631 1.50688,0.65152 2.27429,0.94359 -1.37502,3.16493 -2.11703,6.50713 -2.11703,9.96818 0,19.72793 23.95408,35.72337 53.49432,35.72337 29.54024,0 53.48222,-15.99544 53.48222,-35.72337 0,-4.79657 -1.41254,-9.37021 -3.98001,-13.54899 25.50274,-3.20971 45.002,-20.87332 45.002,-42.18333 0,-23.58516 -23.88869,-42.70351 -53.36125,-42.70351 -3.72314,0 -7.35526,0.31451 -10.86338,0.8952 -6.98457,-13.40223 -27.11179,-23.08167 -50.85711,-23.08167 -0.46156,0 -0.92033,-0.007 -1.37909,0 z"
       id="path6846"
       inkscape:connector-curvature="0" />
    <g
       id="g6835"
       transform="matrix(1.1328338,0,0,1.1328338,-86.216042,-36.9156)">
      <g
         transform="matrix(0.49544372,0,0,0.49544372,318.11572,81.942446)"
         style="fill:#fce94f;stroke:#edd400"
         id="g9044">
        <path
           style="color:#000000;fill:#fce94f;fill-opacity:1;fill-rule:nonzero;stroke:#edd400;stroke-width:1.66751659;stroke-linecap:butt;stroke-linejoin:miter;stroke-miterlimit:10;stroke-opacity:1;stroke-dasharray:none;stroke-dashoffset:0;marker:none;visibility:visible;display:inline;overflow:visible;enable-background:accumulate"
           d="m 598.00905,203.42202 -9.69939,12.57586 -88.48954,0 c -5.62317,0 -10.14406,4.53479 -10.14406,10.15795 l 0,90.032 c 0,5.62317 4.52089,10.14407 10.14406,10.14407 l 168.58592,0 c 5.62317,0 10.14406,-4.5209 10.14406,-10.14407 l 0,-90.032 c 0,-5.62316 -4.52089,-10.15795 -10.14406,-10.15795 l -11.47807,0 -7.94849,-12.57586 -50.97043,0 z"
           id="rect8395-2"
           inkscape:connector-curvature="0" />
      </g>
      <g
         transform="matrix(0.49544372,0,0,0.49544372,334.10915,86.462328)"
         style="line-height:125%;letter-spacing:0px;word-spacing:0px;color:#000000;fill:#000000;fill-opacity:1;fill-rule:nonzero;stroke:none;stroke-width:1px;marker:none;visibility:visible;display:inline;overflow:visible;enable-background:accumulate"
         id="flowRoot9036">
        <path
           inkscape:connector-curvature="0"
           d="m 511.90234,266.68658 c 0.4427,1e-5 0.85937,0.0847 1.25,0.25391 0.40364,0.16928 0.74869,0.40365 1.03516,0.70313 0.29947,0.29948 0.53384,0.65104 0.70312,1.05468 0.16926,0.39063 0.2539,0.81381 0.25391,1.26953 -10e-6,0.44272 -0.0847,0.85938 -0.25391,1.25 -0.16928,0.39063 -0.40365,0.73568 -0.70312,1.03516 -0.28647,0.28646 -0.63152,0.51432 -1.03516,0.68359 -0.39063,0.16928 -0.8073,0.25391 -1.25,0.25391 -0.45574,0 -0.87891,-0.0846 -1.26953,-0.25391 -0.39063,-0.16927 -0.73568,-0.39713 -1.03515,-0.68359 -0.28647,-0.29948 -0.51433,-0.64453 -0.6836,-1.03516 -0.16928,-0.39062 -0.25391,-0.80728 -0.2539,-1.25 -1e-5,-0.45572 0.0846,-0.8789 0.2539,-1.26953 0.16927,-0.40364 0.39713,-0.7552 0.6836,-1.05468 0.29947,-0.29948 0.64452,-0.53385 1.03515,-0.70313 0.39062,-0.16926 0.81379,-0.2539 1.26953,-0.25391"
           style="font-size:40px;font-style:normal;font-variant:normal;font-weight:normal;font-stretch:normal;marker:none;font-family:Consolas;-inkscape-font-specification:Consolas"
           id="path10324" />
        <path
           inkscape:connector-curvature="0"
           d="m 540.30078,256.00299 c 0.36457,0.45575 0.64451,0.9896 0.83984,1.60156 0.20832,0.59898 0.31249,1.25002 0.3125,1.95313 -10e-6,1.01564 -0.18882,1.94662 -0.5664,2.79297 -0.3646,0.83334 -0.88543,1.54949 -1.5625,2.14843 -0.6771,0.59897 -1.4909,1.06772 -2.44141,1.40625 -0.93751,0.32553 -1.97267,0.48829 -3.10547,0.48829 -0.82032,0 -1.58855,-0.0846 -2.30468,-0.25391 -0.71616,-0.18229 -1.28256,-0.40364 -1.69922,-0.66406 -0.2474,0.36459 -0.45574,0.70964 -0.625,1.03515 -0.16928,0.32553 -0.25391,0.69011 -0.25391,1.09375 0,0.4948 0.23437,0.90496 0.70313,1.23047 0.48176,0.32553 1.11327,0.50131 1.89453,0.52735 l 5.15625,0.19531 c 0.97655,0.026 1.87498,0.14974 2.69531,0.37109 0.83332,0.22136 1.54295,0.54037 2.12891,0.95703 0.59894,0.41667 1.06117,0.93099 1.38671,1.54297 0.33853,0.61198 0.5078,1.32162 0.50782,2.12891 -2e-5,0.87239 -0.18882,1.69921 -0.56641,2.48047 -0.37762,0.78124 -0.96356,1.46484 -1.75781,2.05078 -0.78127,0.59895 -1.77736,1.07421 -2.98828,1.42578 -1.21095,0.35155 -2.64975,0.52734 -4.31641,0.52734 -1.58855,0 -2.94271,-0.13021 -4.0625,-0.39062 -1.10678,-0.24741 -2.01823,-0.59897 -2.73437,-1.05469 -0.71615,-0.44271 -1.23699,-0.97657 -1.5625,-1.60156 -0.32553,-0.61199 -0.48829,-1.28907 -0.48829,-2.03125 0,-0.95052 0.22136,-1.78386 0.66407,-2.5 0.4427,-0.71615 1.1263,-1.40625 2.05078,-2.07031 -0.33855,-0.15625 -0.63152,-0.35156 -0.87891,-0.58594 -0.2474,-0.23437 -0.44922,-0.48828 -0.60547,-0.76172 -0.15625,-0.28646 -0.27344,-0.58593 -0.35156,-0.89844 -0.0781,-0.31249 -0.11719,-0.61848 -0.11719,-0.91797 0,-0.84635 0.19531,-1.62108 0.58594,-2.32422 0.40364,-0.70311 0.8789,-1.36717 1.42578,-1.99218 -0.2474,-0.29947 -0.46875,-0.59244 -0.66406,-0.87891 -0.1823,-0.28645 -0.34506,-0.59244 -0.48828,-0.91797 -0.13021,-0.33853 -0.23438,-0.6966 -0.3125,-1.07422 -0.0651,-0.39061 -0.0977,-0.83332 -0.0977,-1.32812 0,-1.01561 0.18229,-1.94009 0.54688,-2.77344 0.3776,-0.84634 0.89843,-1.56899 1.5625,-2.16797 0.67707,-0.59894 1.48437,-1.06118 2.42187,-1.38672 0.95051,-0.33852 1.99869,-0.50779 3.14453,-0.50781 0.48176,2e-5 0.944,0.0326 1.38672,0.0977 0.4427,0.0651 0.83332,0.14976 1.17188,0.2539 l 7.10937,0 0,2.77344 -3.14453,0 M 528.50387,275.671 c -10e-6,0.92447 0.48176,1.59505 1.44531,2.01172 0.96353,0.42968 2.30468,0.64452 4.02344,0.64453 1.08071,-10e-6 1.98566,-0.0977 2.71484,-0.29297 0.74217,-0.19532 1.33462,-0.45573 1.77734,-0.78125 0.45572,-0.3125 0.78124,-0.67709 0.97657,-1.09375 0.19529,-0.40365 0.29295,-0.82031 0.29296,-1.25 -10e-6,-0.79427 -0.32553,-1.38021 -0.97656,-1.75781 -0.65105,-0.37761 -1.64715,-0.59896 -2.98828,-0.66406 l -5.11719,-0.17579 c -0.42969,0.28646 -0.78776,0.56641 -1.07422,0.83985 -0.27344,0.27344 -0.48828,0.54687 -0.64453,0.82031 -0.15625,0.28646 -0.26693,0.56641 -0.33203,0.83984 -0.0651,0.28646 -0.0977,0.57292 -0.0976,0.85938 m 1.03515,-16.03516 c 0,0.62502 0.10416,1.19793 0.3125,1.71875 0.20833,0.52085 0.5013,0.96356 0.87891,1.32813 0.37759,0.36459 0.8203,0.65105 1.32812,0.85937 0.52083,0.19532 1.09374,0.29298 1.71875,0.29297 0.67708,10e-6 1.27603,-0.11067 1.79688,-0.33203 0.53384,-0.23436 0.97655,-0.54686 1.32812,-0.9375 0.36457,-0.39061 0.63801,-0.83983 0.82032,-1.34766 0.19529,-0.5078 0.29295,-1.03514 0.29296,-1.58203 -10e-6,-0.62498 -0.10418,-1.1979 -0.3125,-1.71875 -0.20834,-0.52081 -0.50131,-0.96352 -0.8789,-1.32812 -0.37762,-0.36457 -0.82684,-0.64452 -1.34766,-0.83985 -0.50782,-0.20831 -1.07423,-0.31248 -1.69922,-0.3125 -0.67709,2e-5 -1.28256,0.11721 -1.8164,0.35157 -0.52084,0.23439 -0.96355,0.54689 -1.32813,0.9375 -0.35157,0.37762 -0.625,0.82032 -0.82031,1.32812 -0.1823,0.50783 -0.27344,1.03517 -0.27344,1.58203"
           style="font-size:40px;font-style:normal;font-variant:normal;font-weight:normal;font-stretch:normal;marker:none;font-family:Consolas;-inkscape-font-specification:Consolas"
           id="path10326" />
        <path
           inkscape:connector-curvature="0"
           d="m 554.85156,256.04205 -5.80078,0 0,-2.8125 9.23828,0 0,16.77735 5.83985,0 0,2.83203 -15.72266,0 0,-2.83203 6.44531,0 0,-13.96485 m 1.19141,-11.03515 c 0.37759,2e-5 0.72915,0.0716 1.05469,0.21484 0.3255,0.13024 0.60545,0.31904 0.83984,0.56641 0.24738,0.24742 0.43618,0.53388 0.56641,0.85937 0.14321,0.31253 0.21483,0.65758 0.21484,1.03516 -10e-6,0.36461 -0.0716,0.70966 -0.21484,1.03515 -0.13023,0.32555 -0.31903,0.61201 -0.56641,0.85938 -0.23439,0.24742 -0.51434,0.44273 -0.83984,0.58594 -0.32554,0.13023 -0.6771,0.19533 -1.05469,0.19531 -0.37762,2e-5 -0.72918,-0.0651 -1.05469,-0.19531 -0.32553,-0.14321 -0.61199,-0.33852 -0.85937,-0.58594 -0.23439,-0.24737 -0.42319,-0.53383 -0.56641,-0.85938 -0.13022,-0.32549 -0.19532,-0.67054 -0.19531,-1.03515 -1e-5,-0.37758 0.0651,-0.72263 0.19531,-1.03516 0.14322,-0.32549 0.33202,-0.61195 0.56641,-0.85937 0.24738,-0.24737 0.53384,-0.43617 0.85937,-0.56641 0.32551,-0.1432 0.67707,-0.21482 1.05469,-0.21484"
           style="font-size:40px;font-style:normal;font-variant:normal;font-weight:normal;font-stretch:normal;marker:none;font-family:Consolas;-inkscape-font-specification:Consolas"
           id="path10328" />
        <path
           inkscape:connector-curvature="0"
           d="m 585.96484,272.56549 c -0.76824,0.19531 -1.56251,0.33203 -2.38281,0.41016 -0.82033,0.0911 -1.65366,0.13672 -2.5,0.13672 -2.46095,0 -4.29688,-0.55339 -5.50781,-1.66016 -1.21095,-1.11979 -1.81641,-2.83203 -1.81641,-5.13672 l 0,-10.23437 -5.48828,0 0,-2.85157 5.48828,0 0,-5.39062 3.39844,-0.87891 0,6.26953 8.80859,0 0,2.85157 -8.80859,0 0,9.96093 c -10e-6,1.40626 0.37108,2.46095 1.11328,3.16407 0.7552,0.6901 1.86197,1.03515 3.32031,1.03515 0.62499,0 1.30858,-0.0456 2.05078,-0.13672 0.74218,-0.10416 1.51691,-0.26041 2.32422,-0.46875 l 0,2.92969"
           style="font-size:40px;font-style:normal;font-variant:normal;font-weight:normal;font-stretch:normal;marker:none;font-family:Consolas;-inkscape-font-specification:Consolas"
           id="path10330" />
      </g>
    </g>
    <g
       style="font-size:32px;line-height:125%;letter-spacing:0px;word-spacing:0px;color:#000000;fill:#000000;fill-opacity:1;fill-rule:nonzero;stroke:none;stroke-width:1px;marker:none;visibility:visible;display:inline;overflow:visible;enable-background:accumulate;font-family:CMU Serif;-inkscape-font-specification:CMU Serif"
       id="flowRoot6861" />
    <g
       id="g6899"
       style="fill:#888a85;stroke:#555753;stroke-width:3;stroke-miterlimit:4;stroke-dasharray:none"
       transform="matrix(0.36038777,0,0,0.36038777,215.02287,224.55043)">
      <path
         sodipodi:nodetypes="cccc"
         inkscape:connector-curvature="0"
         id="path6897"
         d="m 95.992517,370.33708 46.800623,42.53049 160.55687,0 -54.14525,-42.93616"
         style="fill:#888a85;stroke:#555753;stroke-width:3;stroke-linecap:butt;stroke-linejoin:miter;stroke-miterlimit:4;stroke-opacity:1;stroke-dasharray:none" />
      <path
         sodipodi:nodetypes="ccccc"
         inkscape:connector-curvature="0"
         id="path6895"
         d="m 241.95664,280.83989 7.24812,89.09152 -153.212243,0.40567 -7.173818,-90.69756 z"
         style="fill:#888a85;stroke:#555753;stroke-width:3;stroke-linecap:butt;stroke-linejoin:miter;stroke-miterlimit:4;stroke-opacity:1;stroke-dasharray:none" />
    </g>
    <path
       sodipodi:nodetypes="ccccc"
       inkscape:connector-curvature="0"
       id="path6895-2"
       d="m 298.88921,329.13192 2.26548,25.41063 -47.8883,0.1157 -2.24227,-25.8687 z"
       style="fill:#2e3436;stroke:#2e3436;stroke-width:0.89573348;stroke-linecap:butt;stroke-linejoin:miter;stroke-miterlimit:4;stroke-opacity:1;stroke-dasharray:none" />
    <path
       style="fill:none;stroke:#000000;stroke-width:1px;stroke-linecap:round;stroke-linejoin:miter;stroke-opacity:1;marker-end:url(#Arrow2Mend)"
       d="M 276.94042,342.80483 558.19135,224.29864"
       id="path6921"
       inkscape:connector-curvature="0"
       sodipodi:nodetypes="cc" />
    <g
       style="font-style:normal;font-variant:normal;font-weight:500;font-stretch:normal;line-height:125%;letter-spacing:0px;word-spacing:0px;color:#000000;fill:#000000;fill-opacity:1;fill-rule:nonzero;stroke:none;stroke-width:1px;marker:none;visibility:visible;display:inline;overflow:visible;enable-background:accumulate;font-family:CMU Typewriter Text Variable Width;-inkscape-font-specification:CMU Typewriter Text Variable Width Medium"
       id="flowRoot7402" />
    <g
       transform="matrix(3.63147,0,0,3.63147,56.589831,-1.5172692)"
       style="font-style:normal;font-variant:normal;font-weight:normal;font-stretch:normal;line-height:125%;letter-spacing:0px;word-spacing:0px;color:#000000;fill:#00000b;fill-opacity:1;fill-rule:nonzero;stroke:none;stroke-width:1px;marker:none;visibility:visible;display:inline;overflow:visible;enable-background:accumulate;font-family:Helvetica Neue;-inkscape-font-specification:Helvetica Neue"
       id="flowRoot7429">
      <path
         d="m 171.884,52.723238 c 0,-0.239999 0.16,-0.359999 0.48,-0.36 l 0.972,0 0,-3.708 -0.972,0 c -0.096,5e-6 -0.172,-0.004 -0.228,-0.012 -0.048,-0.008 -0.104,-0.03999 -0.168,-0.096 -0.056,-0.06399 -0.084,-0.151995 -0.084,-0.264 0,-0.239995 0.16,-0.359995 0.48,-0.36 l 1.32,0 c 0.2,5e-6 0.328,0.03601 0.384,0.108 0.064,0.06401 0.096,0.192005 0.096,0.384 l 0,0.408 c 0.568,-0.647995 1.248,-0.971995 2.04,-0.972 0.232,5e-6 0.42799,0.02801 0.588,0.084 0.16799,0.04801 0.28799,0.116005 0.36,0.204 0.072,0.08 0.11999,0.160005 0.144,0.24 0.032,0.072 0.048,0.144005 0.048,0.216 -1e-5,0.152004 -0.052,0.276004 -0.156,0.372 -0.096,0.096 -0.21201,0.144004 -0.348,0.144 -0.14401,4e-6 -0.26401,-0.052 -0.36,-0.156 -0.096,-0.103996 -0.148,-0.227996 -0.156,-0.372 -0.68,5e-6 -1.212,0.228004 -1.596,0.684 -0.376,0.448003 -0.564,0.980003 -0.564,1.596 l 0,1.5 1.332,0 c 0.328,10e-7 0.492,0.124001 0.492,0.372 0,0.24 -0.164,0.36 -0.492,0.36 l -3.132,0 c -0.096,0 -0.172,-0.004 -0.228,-0.012 -0.048,-0.008 -0.104,-0.04 -0.168,-0.096 -0.056,-0.064 -0.084,-0.152 -0.084,-0.264"
         style="font-weight:500;marker:none;font-family:CMU Typewriter Text;-inkscape-font-specification:CMU Typewriter Text Medium"
         id="path7539" />
      <path
         d="m 179.26393,52.387238 c -0.536,-0.527999 -0.804,-1.159998 -0.804,-1.896 0,-0.735997 0.252,-1.363996 0.756,-1.884 0.50399,-0.527995 1.11199,-0.791995 1.824,-0.792 0.74399,5e-6 1.31599,0.244005 1.716,0.732 0.40799,0.480004 0.61199,1.084004 0.612,1.812 -1e-5,0.104003 -0.012,0.188003 -0.036,0.252 -0.024,0.064 -0.064,0.112002 -0.12,0.144 -0.048,0.024 -0.096,0.04 -0.144,0.048 -0.04,2e-6 -0.10001,2e-6 -0.18,0 l -3.576,0 c 0.096,0.496002 0.33199,0.892001 0.708,1.188 0.38399,0.296001 0.81199,0.444001 1.284,0.444 0.62399,1e-6 1.03999,-0.239999 1.248,-0.72 0.04,-0.111998 0.088,-0.183998 0.144,-0.216 0.056,-0.032 0.13999,-0.048 0.252,-0.048 0.27999,2e-6 0.41999,0.112002 0.42,0.336 -1e-5,0.088 -0.04,0.204001 -0.12,0.348 -0.08,0.136001 -0.20001,0.288001 -0.36,0.456 -0.15201,0.16 -0.37601,0.296 -0.672,0.408 -0.29601,0.112 -0.62801,0.168 -0.996,0.168 -0.76801,0 -1.42001,-0.26 -1.956,-0.78 m 0.06,-2.304 3.192,0 c -0.048,-0.559996 -0.21201,-0.955996 -0.492,-1.188 -0.28001,-0.231995 -0.60801,-0.347995 -0.984,-0.348 -0.41601,5e-6 -0.78401,0.148004 -1.104,0.444 -0.32001,0.288004 -0.524,0.652004 -0.612,1.092"
         style="font-weight:500;marker:none;font-family:CMU Typewriter Text;-inkscape-font-specification:CMU Typewriter Text Medium"
         id="path7541" />
      <path
         d="m 184.05185,52.735238 c 0,-0.119999 0.032,-0.207999 0.096,-0.264 0.064,-0.056 0.132,-0.088 0.204,-0.096 0.08,-0.008 0.208,-0.012 0.384,-0.012 l 0,-3.708 c -0.176,5e-6 -0.304,-0.004 -0.384,-0.012 -0.072,-0.008 -0.14,-0.03999 -0.204,-0.096 -0.064,-0.056 -0.096,-0.143995 -0.096,-0.264 0,-0.239995 0.164,-0.359995 0.492,-0.36 l 0.384,0 c 0.096,5e-6 0.168,0.004 0.216,0.012 0.056,0.008 0.112,0.04001 0.168,0.096 0.056,0.056 0.088,0.140005 0.096,0.252 0.312,-0.287995 0.68,-0.431995 1.104,-0.432 0.424,5e-6 0.728,0.208005 0.912,0.624 0.152,-0.215995 0.344,-0.371995 0.576,-0.468 0.24,-0.103995 0.468,-0.155995 0.684,-0.156 0.248,5e-6 0.452,0.068 0.612,0.204 0.16,0.128005 0.268,0.304005 0.324,0.528 0.056,0.216004 0.092,0.384004 0.108,0.504 0.016,0.120004 0.024,0.244004 0.024,0.372 l 0,2.904 c 0.176,10e-7 0.3,0.004 0.372,0.012 0.08,0.008 0.152,0.04 0.216,0.096 0.064,0.056 0.096,0.144001 0.096,0.264 0,0.24 -0.164,0.36 -0.492,0.36 l -0.96,0 c -0.328,0 -0.492,-0.12 -0.492,-0.36 0,-0.111999 0.032,-0.195999 0.096,-0.252 0.072,-0.064 0.14,-0.1 0.204,-0.108 0.064,-0.008 0.16,-0.012 0.288,-0.012 l 0,-2.796 c 0,-0.367996 -0.036,-0.623996 -0.108,-0.768 -0.072,-0.143995 -0.184,-0.215995 -0.336,-0.216 -0.272,5e-6 -0.516,0.148004 -0.732,0.444 -0.216,0.288004 -0.324,0.684003 -0.324,1.188 l 0,2.148 c 0.176,10e-7 0.3,0.004 0.372,0.012 0.08,0.008 0.152,0.04 0.216,0.096 0.064,0.056 0.096,0.144001 0.096,0.264 0,0.24 -0.164,0.36 -0.492,0.36 l -0.96,0 c -0.328,0 -0.492,-0.12 -0.492,-0.36 0,-0.111999 0.032,-0.195999 0.096,-0.252 0.072,-0.064 0.14,-0.1 0.204,-0.108 0.064,-0.008 0.16,-0.012 0.288,-0.012 l 0,-2.796 c 0,-0.367996 -0.036,-0.623996 -0.108,-0.768 -0.072,-0.143995 -0.184,-0.215995 -0.336,-0.216 -0.272,5e-6 -0.516,0.148004 -0.732,0.444 -0.216,0.288004 -0.324,0.684003 -0.324,1.188 l 0,2.148 c 0.176,10e-7 0.3,0.004 0.372,0.012 0.08,0.008 0.152,0.04 0.216,0.096 0.064,0.056 0.096,0.144001 0.096,0.264 0,0.24 -0.164,0.36 -0.492,0.36 l -1.056,0 c -0.328,0 -0.492,-0.12 -0.492,-0.36"
         style="font-weight:500;marker:none;font-family:CMU Typewriter Text;-inkscape-font-specification:CMU Typewriter Text Medium"
         id="path7543" />
      <path
         d="m 191.08378,50.503238 c 0,-0.743997 0.24,-1.375996 0.72,-1.896 0.488,-0.527995 1.068,-0.791995 1.74,-0.792 0.672,5e-6 1.248,0.264005 1.728,0.792 0.48799,0.520004 0.73199,1.152003 0.732,1.896 -1e-5,0.744002 -0.24401,1.376001 -0.732,1.896 -0.48,0.512 -1.056,0.768 -1.728,0.768 -0.672,0 -1.252,-0.256 -1.74,-0.768 -0.48,-0.511999 -0.72,-1.143998 -0.72,-1.896 m 0.828,-0.084 c 0,0.552002 0.16,1.028002 0.48,1.428 0.32,0.392001 0.704,0.588001 1.152,0.588 0.448,1e-6 0.832,-0.195999 1.152,-0.588 0.32,-0.399998 0.48,-0.875998 0.48,-1.428 0,-0.535997 -0.164,-0.979996 -0.492,-1.332 -0.32,-0.359996 -0.7,-0.539995 -1.14,-0.54 -0.44,5e-6 -0.824,0.180004 -1.152,0.54 -0.32,0.352004 -0.48,0.796003 -0.48,1.332"
         style="font-weight:500;marker:none;font-family:CMU Typewriter Text;-inkscape-font-specification:CMU Typewriter Text Medium"
         id="path7545" />
      <path
         d="m 196.99971,48.295238 c 0,-0.247995 0.164,-0.371995 0.492,-0.372 l 1.044,0 0,-0.984 c 0,-0.103994 0.004,-0.183994 0.012,-0.24 0.008,-0.05599 0.044,-0.111993 0.108,-0.168 0.072,-0.05599 0.17199,-0.08399 0.3,-0.084 0.18399,7e-6 0.29599,0.04401 0.336,0.132 0.048,0.08001 0.072,0.200006 0.072,0.36 l 0,0.984 1.968,0 c 0.096,5e-6 0.16799,0.004 0.216,0.012 0.056,0.008 0.11199,0.044 0.168,0.108 0.064,0.056 0.096,0.140005 0.096,0.252 -1e-5,0.240005 -0.16001,0.360005 -0.48,0.36 l -1.968,0 0,2.856 c -1e-5,0.112002 0.004,0.208001 0.012,0.288 0.016,0.072 0.048,0.168001 0.096,0.288 0.056,0.112001 0.15199,0.200001 0.288,0.264 0.13599,0.056 0.31199,0.084 0.528,0.084 0.12799,1e-6 0.25599,-0.016 0.384,-0.048 0.12799,-0.04 0.25599,-0.127999 0.384,-0.264 0.13599,-0.143999 0.20399,-0.327999 0.204,-0.552 -1e-5,-0.088 0.004,-0.159998 0.012,-0.216 0.016,-0.056 0.056,-0.107998 0.12,-0.156 0.064,-0.056 0.15599,-0.084 0.276,-0.084 0.12799,2e-6 0.22399,0.028 0.288,0.084 0.072,0.056 0.11199,0.112002 0.12,0.168 0.008,0.048 0.012,0.120002 0.012,0.216 -10e-6,0.496001 -0.18801,0.884001 -0.564,1.164 -0.37601,0.28 -0.80801,0.42 -1.296,0.42 -0.48801,0 -0.89201,-0.128 -1.212,-0.384 -0.32,-0.263999 -0.48,-0.663999 -0.48,-1.2 l 0,-2.928 -1.056,0 c -0.32,5e-6 -0.48,-0.119995 -0.48,-0.36"
         style="font-weight:500;marker:none;font-family:CMU Typewriter Text;-inkscape-font-specification:CMU Typewriter Text Medium"
         id="path7547" />
      <path
         d="m 204.46363,52.387238 c -0.536,-0.527999 -0.804,-1.159998 -0.804,-1.896 0,-0.735997 0.252,-1.363996 0.756,-1.884 0.504,-0.527995 1.112,-0.791995 1.824,-0.792 0.744,5e-6 1.316,0.244005 1.716,0.732 0.408,0.480004 0.612,1.084004 0.612,1.812 0,0.104003 -0.012,0.188003 -0.036,0.252 -0.024,0.064 -0.064,0.112002 -0.12,0.144 -0.048,0.024 -0.096,0.04 -0.144,0.048 -0.04,2e-6 -0.1,2e-6 -0.18,0 l -3.576,0 c 0.096,0.496002 0.332,0.892001 0.708,1.188 0.384,0.296001 0.812,0.444001 1.284,0.444 0.624,1e-6 1.04,-0.239999 1.248,-0.72 0.04,-0.111998 0.088,-0.183998 0.144,-0.216 0.056,-0.032 0.14,-0.048 0.252,-0.048 0.28,2e-6 0.42,0.112002 0.42,0.336 0,0.088 -0.04,0.204001 -0.12,0.348 -0.08,0.136001 -0.2,0.288001 -0.36,0.456 -0.152,0.16 -0.376,0.296 -0.672,0.408 -0.296,0.112 -0.628,0.168 -0.996,0.168 -0.768,0 -1.42,-0.26 -1.956,-0.78 m 0.06,-2.304 3.192,0 c -0.048,-0.559996 -0.212,-0.955996 -0.492,-1.188 -0.28,-0.231995 -0.608,-0.347995 -0.984,-0.348 -0.416,5e-6 -0.784,0.148004 -1.104,0.444 -0.32,0.288004 -0.524,0.652004 -0.612,1.092"
         style="font-weight:500;marker:none;font-family:CMU Typewriter Text;-inkscape-font-specification:CMU Typewriter Text Medium"
         id="path7549" />
    </g>
    <g
       transform="matrix(3.63147,0,0,3.63147,-273.28694,166.92201)"
       style="font-style:normal;font-variant:normal;font-weight:normal;font-stretch:normal;line-height:125%;letter-spacing:0px;word-spacing:0px;color:#000000;fill:#00000b;fill-opacity:1;fill-rule:nonzero;stroke:none;stroke-width:1px;marker:none;visibility:visible;display:inline;overflow:visible;enable-background:accumulate;font-family:Helvetica Neue;-inkscape-font-specification:Helvetica Neue"
       id="flowRoot7429-58">
      <path
         d="m 172.196,52.735238 c 0,-0.247999 0.164,-0.371999 0.492,-0.372 l 1.548,0 0,-5.868 -1.56,0 c -0.32,7e-6 -0.48,-0.119993 -0.48,-0.36 0,-0.247993 0.164,-0.371993 0.492,-0.372 l 1.896,0 c 0.2,7e-6 0.328,0.03601 0.384,0.108 0.064,0.06401 0.096,0.192007 0.096,0.384 l 0,6.108 1.56,0 c 0.096,10e-7 0.16799,0.004 0.216,0.012 0.056,0.008 0.11199,0.044 0.168,0.108 0.064,0.056 0.096,0.140001 0.096,0.252 -1e-5,0.24 -0.16001,0.36 -0.48,0.36 l -3.948,0 c -0.32,0 -0.48,-0.12 -0.48,-0.36"
         style="font-weight:500;marker:none;font-family:CMU Typewriter Text;-inkscape-font-specification:CMU Typewriter Text Medium"
         id="path7552" />
      <path
         d="m 178.48393,50.503238 c 0,-0.743997 0.24,-1.375996 0.72,-1.896 0.48799,-0.527995 1.06799,-0.791995 1.74,-0.792 0.67199,5e-6 1.24799,0.264005 1.728,0.792 0.48799,0.520004 0.73199,1.152003 0.732,1.896 -1e-5,0.744002 -0.24401,1.376001 -0.732,1.896 -0.48001,0.512 -1.05601,0.768 -1.728,0.768 -0.67201,0 -1.25201,-0.256 -1.74,-0.768 -0.48,-0.511999 -0.72,-1.143998 -0.72,-1.896 m 0.828,-0.084 c 0,0.552002 0.16,1.028002 0.48,1.428 0.31999,0.392001 0.70399,0.588001 1.152,0.588 0.44799,1e-6 0.83199,-0.195999 1.152,-0.588 0.31999,-0.399998 0.47999,-0.875998 0.48,-1.428 -1e-5,-0.535997 -0.16401,-0.979996 -0.492,-1.332 -0.32001,-0.359996 -0.70001,-0.539995 -1.14,-0.54 -0.44001,5e-6 -0.82401,0.180004 -1.152,0.54 -0.32,0.352004 -0.48,0.796003 -0.48,1.332"
         style="font-weight:500;marker:none;font-family:CMU Typewriter Text;-inkscape-font-specification:CMU Typewriter Text Medium"
         id="path7554" />
      <path
         d="m 184.97585,50.503238 c 0,-0.287997 0.048,-0.575997 0.144,-0.864 0.104,-0.295996 0.26,-0.583996 0.468,-0.864 0.208,-0.287995 0.5,-0.519995 0.876,-0.696 0.376,-0.175995 0.808,-0.263995 1.296,-0.264 1.192,5e-6 1.788,0.292005 1.788,0.876 0,0.168004 -0.052,0.304004 -0.156,0.408 -0.104,0.096 -0.232,0.144004 -0.384,0.144 -0.344,4e-6 -0.52,-0.195996 -0.528,-0.588 0,-0.07199 -0.24,-0.107995 -0.72,-0.108 -0.376,5e-6 -0.704,0.072 -0.984,0.216 -0.272,0.144004 -0.476,0.328004 -0.612,0.552 -0.128,0.224004 -0.22,0.436003 -0.276,0.636 -0.056,0.192003 -0.084,0.376003 -0.084,0.552 0,0.544002 0.184,1.004002 0.552,1.38 0.376,0.368001 0.82,0.552001 1.332,0.552 0.568,1e-6 0.964,-0.239999 1.188,-0.72 0.04,-0.111998 0.088,-0.183998 0.144,-0.216 0.056,-0.032 0.14,-0.048 0.252,-0.048 0.28,2e-6 0.42,0.112002 0.42,0.336 0,0.072 -0.032,0.176001 -0.096,0.312 -0.064,0.128001 -0.168,0.280001 -0.312,0.456 -0.136,0.168 -0.352,0.312 -0.648,0.432 -0.296,0.12 -0.636,0.18 -1.02,0.18 -0.744,0 -1.372,-0.26 -1.884,-0.78 -0.504,-0.527999 -0.756,-1.155998 -0.756,-1.884"
         style="font-weight:500;marker:none;font-family:CMU Typewriter Text;-inkscape-font-specification:CMU Typewriter Text Medium"
         id="path7556" />
      <path
         d="m 191.05978,51.559238 c 0,-0.559998 0.324,-0.991997 0.972,-1.296 0.656,-0.311997 1.532,-0.475997 2.628,-0.492 0,-0.407996 -0.136,-0.711996 -0.408,-0.912 -0.272,-0.207995 -0.648,-0.311995 -1.128,-0.312 -0.176,5e-6 -0.32,0.004 -0.432,0.012 -0.12,0.008 -0.192,0.02 -0.216,0.036 -0.024,0.016 -0.036,0.048 -0.036,0.096 -0.008,0.200004 -0.068,0.344004 -0.18,0.432 -0.112,0.08 -0.228,0.120004 -0.348,0.12 -0.152,4e-6 -0.28,-0.048 -0.384,-0.144 -0.104,-0.096 -0.156,-0.231996 -0.156,-0.408 0,-0.583995 0.58,-0.875995 1.74,-0.876 0.792,5e-6 1.384,0.188005 1.776,0.564 0.4,0.376004 0.6,0.808004 0.6,1.296 l 0,2.592 c 0.168,0.064 0.40799,0.096 0.72,0.096 0.31999,10e-7 0.47999,0.120001 0.48,0.36 -1e-5,0.12 -0.032,0.208 -0.096,0.264 -0.056,0.056 -0.12001,0.088 -0.192,0.096 -0.064,0.008 -0.16801,0.012 -0.312,0.012 -0.68,0 -1.112,-0.128 -1.296,-0.384 -0.464,0.304 -1.048,0.456 -1.752,0.456 -0.592,0 -1.072,-0.16 -1.44,-0.48 -0.36,-0.319999 -0.54,-0.695999 -0.54,-1.128 m 0.828,0 c 0,0.240001 0.116,0.448001 0.348,0.624 0.232,0.168001 0.528,0.252001 0.888,0.252 0.424,1e-6 0.78,-0.068 1.068,-0.204 0.144,-0.064 0.252,-0.139999 0.324,-0.228 0.072,-0.096 0.112,-0.175999 0.12,-0.24 0.016,-0.064 0.024,-0.155998 0.024,-0.276 l 0,-1.008 c -0.856,0.024 -1.532,0.136003 -2.028,0.336 -0.496,0.200002 -0.744,0.448002 -0.744,0.744"
         style="font-weight:500;marker:none;font-family:CMU Typewriter Text;-inkscape-font-specification:CMU Typewriter Text Medium"
         id="path7558" />
      <path
         d="m 197.39571,52.735238 c 0,-0.247999 0.164,-0.371999 0.492,-0.372 l 1.548,0 0,-5.868 -1.56,0 c -0.32,7e-6 -0.48,-0.119993 -0.48,-0.36 0,-0.247993 0.164,-0.371993 0.492,-0.372 l 1.896,0 c 0.19999,7e-6 0.32799,0.03601 0.384,0.108 0.064,0.06401 0.096,0.192007 0.096,0.384 l 0,6.108 1.56,0 c 0.096,10e-7 0.16799,0.004 0.216,0.012 0.056,0.008 0.11199,0.044 0.168,0.108 0.064,0.056 0.096,0.140001 0.096,0.252 -1e-5,0.24 -0.16001,0.36 -0.48,0.36 l -3.948,0 c -0.32,0 -0.48,-0.12 -0.48,-0.36"
         style="font-weight:500;marker:none;font-family:CMU Typewriter Text;-inkscape-font-specification:CMU Typewriter Text Medium"
         id="path7560" />
    </g>
  </g>
</svg>
