<?xml version="1.0" encoding="UTF-8" standalone="no"?>
<!-- Created with Inkscape (http://www.inkscape.org/) -->

<svg
   xmlns:dc="http://purl.org/dc/elements/1.1/"
   xmlns:cc="http://creativecommons.org/ns#"
   xmlns:rdf="http://www.w3.org/1999/02/22-rdf-syntax-ns#"
   xmlns:svg="http://www.w3.org/2000/svg"
   xmlns="http://www.w3.org/2000/svg"
   xmlns:sodipodi="http://sodipodi.sourceforge.net/DTD/sodipodi-0.dtd"
   xmlns:inkscape="http://www.inkscape.org/namespaces/inkscape"
   width="617.67883"
   height="86.872932"
   id="svg7097"
   version="1.1"
   inkscape:version="0.48.4 r9939"
   sodipodi:docname="sha-hashes.svg">
  <sodipodi:namedview
     id="base"
     pagecolor="#ffffff"
     bordercolor="#666666"
     borderopacity="1.0"
     inkscape:pageopacity="0.0"
     inkscape:pageshadow="2"
     inkscape:zoom="1.4249859"
     inkscape:cx="394.48192"
     inkscape:cy="8.088503"
     inkscape:document-units="px"
     inkscape:current-layer="layer1"
     showgrid="false"
     inkscape:object-nodes="true"
     inkscape:snap-bbox="true"
     inkscape:window-width="1598"
     inkscape:window-height="866"
     inkscape:window-x="0"
     inkscape:window-y="32"
     inkscape:window-maximized="0"
     fit-margin-top="0"
     fit-margin-left="0"
     fit-margin-right="0"
     fit-margin-bottom="0" />
  <defs
     id="defs7099">
    <marker
       style="overflow:visible"
       id="Arrow1Mend"
       refX="0"
       refY="0"
       orient="auto"
       inkscape:stockid="Arrow1Mend">
      <path
         transform="matrix(-0.4,0,0,-0.4,-4,0)"
         style="fill-rule:evenodd;stroke:#000000;stroke-width:1pt"
         d="M 0,0 5,-5 -12.5,0 5,5 0,0 z"
         id="path7677"
         inkscape:connector-curvature="0" />
    </marker>
    <marker
       style="overflow:visible"
       id="Arrow1Mend8"
       refX="0"
       refY="0"
       orient="auto"
       inkscape:stockid="Arrow1Mend8">
      <path
         transform="matrix(-0.4,0,0,-0.4,-4,0)"
         style="fill:#babdb6;fill-rule:evenodd;stroke:#babdb6;stroke-width:1pt"
         d="M 0,0 5,-5 -12.5,0 5,5 0,0 z"
         id="path8217"
         inkscape:connector-curvature="0" />
    </marker>
    <marker
       style="overflow:visible"
       id="Arrow1MendX"
       refX="0"
       refY="0"
       orient="auto"
       inkscape:stockid="Arrow1MendX">
      <path
         transform="matrix(-0.4,0,0,-0.4,-4,0)"
         style="fill:#babdb6;fill-rule:evenodd;stroke:#babdb6;stroke-width:1pt"
         d="M 0,0 5,-5 -12.5,0 5,5 0,0 z"
         id="path8220"
         inkscape:connector-curvature="0" />
    </marker>
    <marker
       style="overflow:visible"
       id="Arrow1MendP"
       refX="0"
       refY="0"
       orient="auto"
       inkscape:stockid="Arrow1MendP">
      <path
         transform="matrix(-0.4,0,0,-0.4,-4,0)"
         style="fill:#babdb6;fill-rule:evenodd;stroke:#babdb6;stroke-width:1pt"
         d="M 0,0 5,-5 -12.5,0 5,5 0,0 z"
         id="path8223"
         inkscape:connector-curvature="0" />
    </marker>
  </defs>
  <metadata
     id="metadata7102">
    <rdf:RDF>
      <cc:Work
         rdf:about="">
        <dc:format>image/svg+xml</dc:format>
        <dc:type
           rdf:resource="http://purl.org/dc/dcmitype/StillImage" />
        <cc:license
           rdf:resource="" />
        <dc:title></dc:title>
      </cc:Work>
    </rdf:RDF>
  </metadata>
  <g
     id="layer1"
     inkscape:groupmode="layer"
     inkscape:label="Layer 1"
     transform="translate(-57.070736,-415.32533)">
    <path
       transform="matrix(0.64347166,0,0,0.64347166,23.792455,176.81258)"
       style="color:#000000;fill:#d3d7cf;fill-opacity:1;fill-rule:nonzero;stroke:#babdb6;stroke-width:3.75;stroke-linecap:butt;stroke-linejoin:miter;stroke-miterlimit:10;stroke-dashoffset:0;stroke-opacity:1;marker:none;visibility:visible;display:inline;overflow:visible;enable-background:accumulate"
       d="m 152.83582,422.16254 c 0,27.40548 -22.21654,49.62202 -49.62202,49.62202 -27.405487,0 -49.622022,-22.21654 -49.622022,-49.62202 0,-27.40549 22.216535,-49.62202 49.622022,-49.62202 27.40548,0 49.62202,22.21653 49.62202,49.62202 z"
       id="path7105" />
    <path
       transform="matrix(0.64347166,0,0,0.64347166,207.59416,176.81258)"
       style="color:#000000;fill:#d3d7cf;fill-opacity:1;fill-rule:nonzero;stroke:#babdb6;stroke-width:3.75;stroke-linecap:butt;stroke-linejoin:miter;stroke-miterlimit:10;stroke-dashoffset:0;stroke-opacity:1;marker:none;visibility:visible;display:inline;overflow:visible;enable-background:accumulate"
       d="m 152.83582,422.16254 c 0,27.40548 -22.21654,49.62202 -49.62202,49.62202 -27.405487,0 -49.622022,-22.21654 -49.622022,-49.62202 0,-27.40549 22.216535,-49.62202 49.622022,-49.62202 27.40548,0 49.62202,22.21653 49.62202,49.62202 z"
       id="path7105-9" />
    <path
       transform="matrix(0.64347166,0,0,0.64347166,391.39585,176.81258)"
       style="color:#000000;fill:#d3d7cf;fill-opacity:1;fill-rule:nonzero;stroke:#babdb6;stroke-width:3.75;stroke-linecap:butt;stroke-linejoin:miter;stroke-miterlimit:10;stroke-dashoffset:0;stroke-opacity:1;marker:none;visibility:visible;display:inline;overflow:visible;enable-background:accumulate"
       d="m 152.83582,422.16254 c 0,27.40548 -22.21654,49.62202 -49.62202,49.62202 -27.405487,0 -49.622022,-22.21654 -49.622022,-49.62202 0,-27.40549 22.216535,-49.62202 49.622022,-49.62202 27.40548,0 49.62202,22.21653 49.62202,49.62202 z"
       id="path7105-9-9" />
    <path
       transform="matrix(0.64347166,0,0,0.64347166,575.19755,176.81258)"
       style="color:#000000;fill:#d3d7cf;fill-opacity:1;fill-rule:nonzero;stroke:#babdb6;stroke-width:3.75;stroke-linecap:butt;stroke-linejoin:miter;stroke-miterlimit:10;stroke-dashoffset:0;stroke-opacity:1;marker:none;visibility:visible;display:inline;overflow:visible;enable-background:accumulate"
       d="m 152.83582,422.16254 c 0,27.40548 -22.21654,49.62202 -49.62202,49.62202 -27.405487,0 -49.622022,-22.21654 -49.622022,-49.62202 0,-27.40549 22.216535,-49.62202 49.622022,-49.62202 27.40548,0 49.62202,22.21653 49.62202,49.62202 z"
       id="path7105-9-8" />
    <path
       sodipodi:nodetypes="cc"
       inkscape:connector-curvature="0"
       id="path7150"
       d="m 122.13797,448.46221 119.94098,0"
       style="fill:#d3d7cf;stroke:#babdb6;stroke-width:1px;stroke-linecap:butt;stroke-linejoin:miter;stroke-opacity:1;marker-end:url(#Arrow1MendX)" />
    <path
       inkscape:connector-curvature="0"
       id="path7152"
       d="m 305.93968,448.46221 119.94096,0"
       style="fill:#d3d7cf;stroke:#babdb6;stroke-width:1px;stroke-linecap:butt;stroke-linejoin:miter;stroke-opacity:1;marker-end:url(#Arrow1Mend8)" />
    <path
       inkscape:connector-curvature="0"
       id="path7154"
       d="m 489.74137,448.46221 119.94097,0"
       style="fill:#d3d7cf;stroke:#babdb6;stroke-width:1px;stroke-linecap:butt;stroke-linejoin:miter;stroke-opacity:1;marker-end:url(#Arrow1MendP)" />
    <g
       style="line-height:125%;letter-spacing:0px;word-spacing:0px;color:#000000;fill:#000000;fill-opacity:1;fill-rule:nonzero;stroke:none;stroke-width:1px;marker:none;visibility:visible;display:inline;overflow:visible;enable-background:accumulate"
       id="flowRoot8108" />
    <g
       transform="translate(-9.5133213,-55.921379)"
       style="line-height:125%;letter-spacing:0px;word-spacing:0px;color:#000000;fill:#2e3436;fill-opacity:1;fill-rule:nonzero;stroke:none;stroke-width:1px;marker:none;visibility:visible;display:inline;overflow:visible;enable-background:accumulate"
       id="flowRoot8130">
      <path
         d="m 80.375,555.5884 c -6e-6,0.35156 -0.06446,0.68164 -0.193359,0.99023 -0.125006,0.3086 -0.304693,0.57813 -0.539063,0.8086 -0.23438,0.22656 -0.517583,0.40625 -0.849609,0.53906 -0.328129,0.1289 -0.693363,0.19336 -1.095703,0.19336 -0.421878,0 -0.794925,-0.0664 -1.119141,-0.19922 -0.324221,-0.13672 -0.595705,-0.34375 -0.814453,-0.6211 -0.218751,-0.28124 -0.384767,-0.63476 -0.498047,-1.06054 -0.113282,-0.42578 -0.169923,-0.92969 -0.169922,-1.51172 -10e-7,-0.39062 0.02539,-0.76953 0.07617,-1.13672 0.05078,-0.36718 0.134765,-0.71289 0.251953,-1.03711 0.117186,-0.32421 0.273436,-0.62109 0.46875,-0.89062 0.195311,-0.26953 0.437498,-0.5 0.726563,-0.69141 0.292966,-0.19531 0.636715,-0.3457 1.03125,-0.45117 0.394527,-0.10937 0.851558,-0.16406 1.371093,-0.16406 l 0.75586,0 0,0.89062 -0.820313,0 c -0.457035,1e-5 -0.853519,0.0547 -1.189453,0.16406 -0.33594,0.10938 -0.61719,0.26368 -0.84375,0.46289 -0.226565,0.19923 -0.400393,0.43946 -0.521484,0.72071 -0.121096,0.28125 -0.197268,0.5957 -0.228516,0.94336 l -0.02344,0.24023 c 0.246091,-0.14453 0.529294,-0.25976 0.849609,-0.3457 0.324216,-0.0898 0.673825,-0.13476 1.048828,-0.13477 0.386715,10e-6 0.724605,0.0566 1.013672,0.16992 0.292964,0.11329 0.535151,0.27149 0.726562,0.47461 0.195307,0.19923 0.341792,0.43946 0.439454,0.72071 0.09765,0.28125 0.146478,0.58984 0.146484,0.92578 m -1.066406,0.0644 c -5e-6,-0.23437 -0.0293,-0.44531 -0.08789,-0.63281 -0.05469,-0.19141 -0.142583,-0.35156 -0.263672,-0.48047 -0.121098,-0.13281 -0.275395,-0.23437 -0.46289,-0.30469 -0.183598,-0.0742 -0.404301,-0.11132 -0.66211,-0.11133 -0.148441,10e-6 -0.298831,0.0137 -0.451172,0.041 -0.152346,0.0273 -0.302737,0.0664 -0.451172,0.11719 -0.144533,0.0469 -0.283205,0.10156 -0.416015,0.16406 -0.132815,0.0625 -0.253908,0.12891 -0.363281,0.19922 -2e-6,0.50391 0.03515,0.92578 0.105468,1.26562 0.07031,0.33594 0.173826,0.60547 0.310547,0.8086 0.140623,0.20312 0.312498,0.34765 0.515625,0.43359 0.203122,0.0859 0.437497,0.12891 0.703125,0.12891 0.222653,0 0.425778,-0.0352 0.609375,-0.10547 0.187496,-0.0742 0.347652,-0.18164 0.480469,-0.32227 0.136714,-0.14062 0.242183,-0.31054 0.316406,-0.50976 0.07812,-0.20313 0.117183,-0.4336 0.117188,-0.69141"
         style="font-style:normal;font-variant:normal;font-weight:normal;font-stretch:normal;fill:#2e3436;marker:none;font-family:Consolas;-inkscape-font-specification:Consolas"
         id="path8320" />
      <path
         d="m 87.259766,556.32082 -1.306641,0 0,1.69336 -1.042969,0 0,-1.69336 -3.685547,0 0,-0.89649 3.263672,-5.06835 1.464844,0 0,5.06835 1.306641,0 0,0.89649 m -2.34961,-4.98047 -2.666015,4.08398 2.666015,0 0,-4.08398"
         style="font-style:normal;font-variant:normal;font-weight:normal;font-stretch:normal;fill:#2e3436;marker:none;font-family:Consolas;-inkscape-font-specification:Consolas"
         id="path8322" />
      <path
         d="m 93.476562,554.76223 c -5e-6,0.14453 -0.002,0.26562 -0.0059,0.36328 -0.0039,0.0977 -0.0098,0.18945 -0.01758,0.27539 l -4.130859,0 c -2e-6,0.60156 0.167966,1.06445 0.503906,1.38867 0.335935,0.32031 0.820309,0.48047 1.453125,0.48047 0.171871,0 0.343746,-0.006 0.515625,-0.0176 0.17187,-0.0156 0.337886,-0.0352 0.498047,-0.0586 0.160151,-0.0234 0.312495,-0.0488 0.457031,-0.0762 0.148432,-0.0312 0.285151,-0.0645 0.410156,-0.0996 l 0,0.8379 c -0.277349,0.0781 -0.591802,0.14062 -0.943359,0.1875 -0.347661,0.0508 -0.708988,0.0762 -1.083985,0.0762 -0.503909,0 -0.937502,-0.0684 -1.300781,-0.20508 -0.363283,-0.13672 -0.662111,-0.33398 -0.896484,-0.5918 -0.23047,-0.26172 -0.402345,-0.58007 -0.515625,-0.95508 -0.109376,-0.3789 -0.164063,-0.80663 -0.164063,-1.2832 0,-0.41406 0.05859,-0.80468 0.175782,-1.17187 0.121092,-0.37109 0.29492,-0.69531 0.521484,-0.97266 0.230467,-0.28124 0.511717,-0.5039 0.84375,-0.66797 0.332029,-0.16406 0.708981,-0.24609 1.130859,-0.24609 0.410153,0 0.773434,0.0645 1.089844,0.19336 0.316402,0.12891 0.582026,0.3125 0.796875,0.55078 0.218745,0.23438 0.382807,0.52149 0.492188,0.86133 0.113275,0.33594 0.169916,0.71289 0.169921,1.13086 m -1.060546,-0.14649 c 0.01171,-0.26171 -0.01368,-0.5 -0.07617,-0.71484 -0.06251,-0.21875 -0.160161,-0.40625 -0.292969,-0.5625 -0.128911,-0.15625 -0.29102,-0.27734 -0.486328,-0.36328 -0.195316,-0.0898 -0.421879,-0.13476 -0.679688,-0.13477 -0.222659,1e-5 -0.425784,0.043 -0.609375,0.12891 -0.183596,0.0859 -0.341799,0.20703 -0.474609,0.36328 -0.132815,0.15625 -0.240236,0.34375 -0.322266,0.5625 -0.08203,0.21875 -0.132814,0.45899 -0.152343,0.7207 l 3.09375,0"
         style="font-style:normal;font-variant:normal;font-weight:normal;font-stretch:normal;fill:#2e3436;marker:none;font-family:Consolas;-inkscape-font-specification:Consolas"
         id="path8324" />
      <path
         d="m 100.45508,556.32082 -1.306643,0 0,1.69336 -1.042968,0 0,-1.69336 -3.685547,0 0,-0.89649 3.263672,-5.06835 1.464843,0 0,5.06835 1.306643,0 0,0.89649 m -2.349611,-4.98047 -2.666016,4.08398 2.666016,0 0,-4.08398"
         style="font-style:normal;font-variant:normal;font-weight:normal;font-stretch:normal;fill:#2e3436;marker:none;font-family:Consolas;-inkscape-font-specification:Consolas"
         id="path8326" />
      <path
         d="m 106.92383,550.6841 c -0.53516,-0.11327 -0.9961,-0.16991 -1.38281,-0.16992 -0.91798,10e-6 -1.37696,0.48047 -1.37696,1.4414 l 0,1.03125 2.57813,0 0,0.84961 -2.57813,0 0,4.17774 -1.03711,0 0,-4.17774 -1.89257,0 0,-0.84961 1.89257,0 0,-0.97265 c 0,-1.5664 0.81641,-2.3496 2.44922,-2.34961 0.40625,10e-6 0.85546,0.0469 1.34766,0.14062 l 0,0.87891 m -6.1582,1.44727 0,0"
         style="font-style:normal;font-variant:normal;font-weight:normal;font-stretch:normal;fill:#2e3436;marker:none;font-family:Consolas;-inkscape-font-specification:Consolas"
         id="path8328" />
      <path
         d="m 112.08008,558.01418 -0.0234,-0.79102 c -0.32032,0.31641 -0.64649,0.54492 -0.97851,0.68555 -0.32813,0.14062 -0.67384,0.21094 -1.03711,0.21094 -0.33594,0 -0.62305,-0.043 -0.86133,-0.12891 -0.23829,-0.0859 -0.43555,-0.20312 -0.5918,-0.35156 -0.15234,-0.15234 -0.26563,-0.33008 -0.33984,-0.5332 -0.0703,-0.20313 -0.10547,-0.42383 -0.10547,-0.66211 0,-0.58985 0.21875,-1.05078 0.65625,-1.38282 0.4414,-0.33593 1.09179,-0.5039 1.95117,-0.5039 l 1.21875,0 0,-0.51563 c 0,-0.34765 -0.11133,-0.62499 -0.33398,-0.83203 -0.22266,-0.21093 -0.56251,-0.3164 -1.01954,-0.31641 -0.33203,10e-6 -0.66015,0.0371 -0.98437,0.11133 -0.32032,0.0742 -0.65235,0.1797 -0.99609,0.31641 l 0,-0.91992 c 0.1289,-0.0469 0.27148,-0.0918 0.42773,-0.13477 0.16015,-0.0469 0.32812,-0.0879 0.50391,-0.12305 0.17578,-0.0352 0.35937,-0.0625 0.55078,-0.082 0.1914,-0.0234 0.38476,-0.0352 0.58008,-0.0352 0.35546,0 0.67577,0.0391 0.96093,0.11718 0.28515,0.0781 0.52539,0.19728 0.72071,0.35743 0.19921,0.16016 0.35155,0.36133 0.45703,0.60351 0.10546,0.24219 0.15819,0.52735 0.1582,0.85547 l 0,4.05469 -0.91406,0 m -0.11133,-2.67774 -1.29492,0 c -0.25391,10e-6 -0.47266,0.0254 -0.65625,0.0762 -0.1836,0.0508 -0.33399,0.12305 -0.45117,0.21679 -0.11719,0.0938 -0.20508,0.20704 -0.26368,0.33985 -0.0547,0.1289 -0.082,0.27539 -0.082,0.43945 0,0.11328 0.0176,0.22266 0.0527,0.32812 0.0352,0.10157 0.0918,0.19337 0.16992,0.2754 0.0781,0.0781 0.17968,0.14062 0.30469,0.1875 0.12499,0.0469 0.27734,0.0703 0.45703,0.0703 0.23437,0 0.50195,-0.0703 0.80273,-0.21094 0.30469,-0.14453 0.625,-0.37109 0.96094,-0.67969 l 0,-1.04297"
         style="font-style:normal;font-variant:normal;font-weight:normal;font-stretch:normal;fill:#2e3436;marker:none;font-family:Consolas;-inkscape-font-specification:Consolas"
         id="path8330" />
      <path
         d="m 118.67773,558.01418 -0.0234,-0.79102 c -0.32032,0.31641 -0.64649,0.54492 -0.97852,0.68555 -0.32813,0.14062 -0.67383,0.21094 -1.03711,0.21094 -0.33594,0 -0.62305,-0.043 -0.86133,-0.12891 -0.23828,-0.0859 -0.43554,-0.20312 -0.59179,-0.35156 -0.15235,-0.15234 -0.26563,-0.33008 -0.33985,-0.5332 -0.0703,-0.20313 -0.10547,-0.42383 -0.10547,-0.66211 0,-0.58985 0.21875,-1.05078 0.65625,-1.38282 0.44141,-0.33593 1.0918,-0.5039 1.95118,-0.5039 l 1.21875,0 0,-0.51563 c -1e-5,-0.34765 -0.11134,-0.62499 -0.33399,-0.83203 -0.22266,-0.21093 -0.5625,-0.3164 -1.01953,-0.31641 -0.33203,10e-6 -0.66016,0.0371 -0.98437,0.11133 -0.32032,0.0742 -0.65235,0.1797 -0.9961,0.31641 l 0,-0.91992 c 0.12891,-0.0469 0.27148,-0.0918 0.42774,-0.13477 0.16015,-0.0469 0.32812,-0.0879 0.5039,-0.12305 0.17578,-0.0352 0.35937,-0.0625 0.55078,-0.082 0.19141,-0.0234 0.38477,-0.0352 0.58008,-0.0352 0.35547,0 0.67578,0.0391 0.96094,0.11718 0.28515,0.0781 0.52539,0.19728 0.7207,0.35743 0.19922,0.16016 0.35156,0.36133 0.45703,0.60351 0.10547,0.24219 0.1582,0.52735 0.15821,0.85547 l 0,4.05469 -0.91407,0 m -0.11132,-2.67774 -1.29493,0 c -0.2539,10e-6 -0.47265,0.0254 -0.65625,0.0762 -0.18359,0.0508 -0.33398,0.12305 -0.45117,0.21679 -0.11719,0.0938 -0.20508,0.20704 -0.26367,0.33985 -0.0547,0.1289 -0.082,0.27539 -0.082,0.43945 0,0.11328 0.0176,0.22266 0.0527,0.32812 0.0352,0.10157 0.0918,0.19337 0.16993,0.2754 0.0781,0.0781 0.17968,0.14062 0.30468,0.1875 0.125,0.0469 0.27734,0.0703 0.45703,0.0703 0.23438,0 0.50195,-0.0703 0.80274,-0.21094 0.30468,-0.14453 0.62499,-0.37109 0.96094,-0.67969 l 0,-1.04297"
         style="font-style:normal;font-variant:normal;font-weight:normal;font-stretch:normal;fill:#2e3436;marker:none;font-family:Consolas;-inkscape-font-specification:Consolas"
         id="path8332" />
      <path
         d="m 126.42383,551.30519 -3.21094,6.70899 -1.16601,0 3.33398,-6.70899 -4.13672,0 0,-0.94921 5.17969,0 0,0.94921"
         style="font-style:normal;font-variant:normal;font-weight:normal;font-stretch:normal;fill:#2e3436;marker:none;font-family:Consolas;-inkscape-font-specification:Consolas"
         id="path8334" />
    </g>
    <g
       transform="translate(173.40371,-55.921379)"
       style="line-height:125%;letter-spacing:0px;word-spacing:0px;color:#000000;fill:#2e3436;fill-opacity:1;fill-rule:nonzero;stroke:none;stroke-width:1px;marker:none;visibility:visible;display:inline;overflow:visible;enable-background:accumulate"
       id="flowRoot8130-6">
      <path
         d="m 80.240234,551.30519 -3.210937,6.70899 -1.166016,0 3.333985,-6.70899 -4.136719,0 0,-0.94921 5.179687,0 0,0.94921"
         style="font-style:normal;font-variant:normal;font-weight:normal;font-stretch:normal;fill:#2e3436;marker:none;font-family:Consolas;-inkscape-font-specification:Consolas"
         id="path8337" />
      <path
         d="m 86.878906,558.01418 -5.044922,0 0,-0.91406 1.980469,-1.96875 c 0.324216,-0.32031 0.587887,-0.59766 0.791016,-0.83204 0.203121,-0.23437 0.361324,-0.44726 0.474609,-0.63867 0.113277,-0.19531 0.189449,-0.3789 0.228516,-0.55078 0.03906,-0.17187 0.05859,-0.35742 0.05859,-0.55664 -4e-6,-0.18749 -0.02539,-0.36523 -0.07617,-0.5332 -0.05079,-0.17187 -0.128911,-0.32226 -0.234375,-0.45117 -0.105473,-0.1289 -0.242192,-0.23047 -0.410157,-0.30469 -0.167972,-0.0742 -0.369144,-0.11132 -0.603515,-0.11133 -0.324222,1e-5 -0.619143,0.0723 -0.884766,0.2168 -0.265627,0.14453 -0.509767,0.33203 -0.732422,0.5625 l -0.5625,-0.67383 c 0.289062,-0.30468 0.621092,-0.54882 0.996094,-0.73242 0.378904,-0.18359 0.818357,-0.27539 1.318359,-0.27539 0.339841,0 0.648434,0.0508 0.925782,0.15234 0.281245,0.10157 0.523432,0.24805 0.726562,0.43945 0.20312,0.19142 0.35937,0.42579 0.46875,0.70313 0.113276,0.27735 0.169917,0.58985 0.169922,0.9375 -5e-6,0.29297 -0.03907,0.56446 -0.117188,0.81445 -0.07813,0.25001 -0.19727,0.50001 -0.357421,0.75 -0.156255,0.2461 -0.355474,0.50196 -0.597657,0.76758 -0.238285,0.26563 -0.521488,0.55664 -0.849609,0.87305 l -1.388672,1.35351 3.720703,0 0,0.97266"
         style="font-style:normal;font-variant:normal;font-weight:normal;font-stretch:normal;fill:#2e3436;marker:none;font-family:Consolas;-inkscape-font-specification:Consolas"
         id="path8339" />
      <path
         d="m 93.728516,550.6841 c -0.535162,-0.11327 -0.996099,-0.16991 -1.382813,-0.16992 -0.917972,10e-6 -1.376956,0.48047 -1.376953,1.4414 l 0,1.03125 2.578125,0 0,0.84961 -2.578125,0 0,4.17774 -1.037109,0 0,-4.17774 -1.892579,0 0,-0.84961 1.892579,0 0,-0.97265 c -3e-6,-1.5664 0.816403,-2.3496 2.449218,-2.34961 0.406245,10e-6 0.855463,0.0469 1.347657,0.14062 l 0,0.87891 m -6.158204,1.44727 0,0"
         style="font-style:normal;font-variant:normal;font-weight:normal;font-stretch:normal;fill:#2e3436;marker:none;font-family:Consolas;-inkscape-font-specification:Consolas"
         id="path8341" />
      <path
         d="m 100.25,554.18801 c -1e-5,0.58594 -0.0586,1.12109 -0.17578,1.60547 -0.117195,0.48047 -0.294929,0.89453 -0.533204,1.24218 -0.238287,0.34375 -0.535161,0.61133 -0.890625,0.80274 -0.351567,0.1875 -0.765629,0.28125 -1.242188,0.28125 -0.410159,0 -0.783205,-0.0762 -1.119141,-0.22852 -0.335939,-0.15625 -0.623048,-0.39453 -0.861328,-0.71484 -0.238282,-0.32031 -0.421875,-0.72852 -0.550781,-1.22461 -0.128907,-0.49609 -0.19336,-1.08398 -0.193359,-1.76367 -10e-7,-0.58594 0.05859,-1.12109 0.175781,-1.60547 0.121093,-0.48437 0.298827,-0.89843 0.533203,-1.24219 0.23828,-0.34765 0.535155,-0.61523 0.890625,-0.80273 0.355466,-0.1914 0.769528,-0.28711 1.242188,-0.28711 0.410152,0 0.783199,0.0781 1.11914,0.23437 0.335933,0.15235 0.623042,0.39063 0.861328,0.71485 0.238276,0.32031 0.42187,0.72852 0.550781,1.2246 0.1289,0.4961 0.19335,1.08399 0.19336,1.76368 m -1.03125,0.0352 c -5e-6,-0.13281 -0.0059,-0.26366 -0.01758,-0.39258 -0.0078,-0.1328 -0.01758,-0.26171 -0.0293,-0.38671 l -3.240234,2.4082 c 0.05859,0.20313 0.13281,0.39063 0.222656,0.5625 0.08984,0.17188 0.197263,0.32031 0.322265,0.44531 0.128904,0.1211 0.273435,0.2168 0.433594,0.28711 0.16406,0.0664 0.349607,0.0996 0.556641,0.0996 0.265621,0 0.505855,-0.0644 0.720703,-0.19336 0.218746,-0.1289 0.404292,-0.32031 0.556641,-0.57422 0.152339,-0.2539 0.269526,-0.56836 0.351562,-0.94336 0.08203,-0.3789 0.123042,-0.8164 0.123047,-1.3125 m -3.503906,-0.0703 c -2e-6,0.1211 -2e-6,0.24219 0,0.36328 0.0039,0.1211 0.01172,0.23829 0.02344,0.35156 l 3.240235,-2.39648 c -0.0586,-0.19921 -0.132818,-0.38085 -0.222657,-0.54492 -0.08985,-0.16406 -0.19727,-0.30468 -0.322265,-0.42188 -0.125004,-0.12108 -0.267582,-0.21483 -0.427735,-0.28125 -0.16016,-0.0664 -0.339847,-0.0996 -0.539062,-0.0996 -0.265628,10e-6 -0.507815,0.0645 -0.726563,0.19336 -0.214846,0.12892 -0.398439,0.32227 -0.550781,0.58008 -0.152345,0.25391 -0.269533,0.57032 -0.351562,0.94922 -0.08203,0.375 -0.123049,0.81055 -0.123047,1.30664"
         style="font-style:normal;font-variant:normal;font-weight:normal;font-stretch:normal;fill:#2e3436;marker:none;font-family:Consolas;-inkscape-font-specification:Consolas"
         id="path8343" />
      <path
         d="m 105.48242,558.01418 -0.0234,-0.79102 c -0.32031,0.31641 -0.64648,0.54492 -0.97851,0.68555 -0.32813,0.14062 -0.67383,0.21094 -1.03711,0.21094 -0.33594,0 -0.62305,-0.043 -0.86133,-0.12891 -0.23828,-0.0859 -0.43555,-0.20312 -0.5918,-0.35156 -0.15234,-0.15234 -0.26562,-0.33008 -0.33984,-0.5332 -0.0703,-0.20313 -0.10547,-0.42383 -0.10547,-0.66211 0,-0.58985 0.21875,-1.05078 0.65625,-1.38282 0.44141,-0.33593 1.0918,-0.5039 1.95117,-0.5039 l 1.21875,0 0,-0.51563 c 0,-0.34765 -0.11133,-0.62499 -0.33398,-0.83203 -0.22266,-0.21093 -0.5625,-0.3164 -1.01953,-0.31641 -0.33204,10e-6 -0.66016,0.0371 -0.98438,0.11133 -0.32031,0.0742 -0.65234,0.1797 -0.99609,0.31641 l 0,-0.91992 c 0.1289,-0.0469 0.27148,-0.0918 0.42773,-0.13477 0.16016,-0.0469 0.32813,-0.0879 0.50391,-0.12305 0.17578,-0.0352 0.35937,-0.0625 0.55078,-0.082 0.1914,-0.0234 0.38476,-0.0352 0.58008,-0.0352 0.35546,0 0.67578,0.0391 0.96094,0.11718 0.28515,0.0781 0.52538,0.19728 0.7207,0.35743 0.19921,0.16016 0.35156,0.36133 0.45703,0.60351 0.10546,0.24219 0.1582,0.52735 0.1582,0.85547 l 0,4.05469 -0.91406,0 m -0.11133,-2.67774 -1.29492,0 c -0.25391,10e-6 -0.47266,0.0254 -0.65625,0.0762 -0.18359,0.0508 -0.33398,0.12305 -0.45117,0.21679 -0.11719,0.0938 -0.20508,0.20704 -0.26367,0.33985 -0.0547,0.1289 -0.082,0.27539 -0.082,0.43945 0,0.11328 0.0176,0.22266 0.0527,0.32812 0.0352,0.10157 0.0918,0.19337 0.16992,0.2754 0.0781,0.0781 0.17969,0.14062 0.30469,0.1875 0.125,0.0469 0.27734,0.0703 0.45703,0.0703 0.23437,0 0.50195,-0.0703 0.80274,-0.21094 0.30468,-0.14453 0.62499,-0.37109 0.96093,-0.67969 l 0,-1.04297"
         style="font-style:normal;font-variant:normal;font-weight:normal;font-stretch:normal;fill:#2e3436;marker:none;font-family:Consolas;-inkscape-font-specification:Consolas"
         id="path8345" />
      <path
         d="m 113.22852,551.30519 -3.21094,6.70899 -1.16602,0 3.33399,-6.70899 -4.13672,0 0,-0.94921 5.17969,0 0,0.94921"
         style="font-style:normal;font-variant:normal;font-weight:normal;font-stretch:normal;fill:#2e3436;marker:none;font-family:Consolas;-inkscape-font-specification:Consolas"
         id="path8347" />
      <path
         d="m 114.59961,555.19582 c 0,-0.5 0.0684,-0.94336 0.20508,-1.33008 0.13672,-0.39062 0.33007,-0.71874 0.58008,-0.98437 0.2539,-0.26953 0.55663,-0.47265 0.9082,-0.60938 0.35546,-0.14062 0.75,-0.21093 1.18359,-0.21094 0.1875,10e-6 0.37109,0.0117 0.55078,0.0352 0.18359,0.0234 0.36328,0.0605 0.53907,0.11133 l 0,-2.47266 1.02539,0 0,8.2793 -0.91407,0 -0.0352,-1.11328 c -0.28516,0.41406 -0.59376,0.7207 -0.92578,0.91992 -0.33204,0.19922 -0.69141,0.29883 -1.07813,0.29883 -0.33594,0 -0.63281,-0.0703 -0.89062,-0.21094 -0.25391,-0.14063 -0.4668,-0.33789 -0.63867,-0.5918 -0.16797,-0.25781 -0.29493,-0.5664 -0.38086,-0.92578 -0.0859,-0.35937 -0.12891,-0.75781 -0.12891,-1.19531 m 1.04297,-0.0645 c 0,0.71094 0.10351,1.24219 0.31055,1.59375 0.21093,0.34765 0.50781,0.52148 0.89062,0.52148 0.25781,0 0.52929,-0.11523 0.81445,-0.3457 0.28906,-0.23047 0.5918,-0.57227 0.90821,-1.02539 l 0,-2.73047 c -0.16798,-0.0781 -0.35352,-0.13672 -0.55664,-0.17578 -0.20313,-0.043 -0.4043,-0.0644 -0.60352,-0.0645 -0.55469,10e-6 -0.98828,0.1797 -1.30078,0.53907 -0.3086,0.35938 -0.46289,0.92187 -0.46289,1.6875"
         style="font-style:normal;font-variant:normal;font-weight:normal;font-stretch:normal;fill:#2e3436;marker:none;font-family:Consolas;-inkscape-font-specification:Consolas"
         id="path8349" />
      <path
         d="m 126.46484,556.0923 c 0,0.32422 -0.0664,0.61329 -0.19921,0.86719 -0.13282,0.25 -0.31837,0.46094 -0.55665,0.63281 -0.23828,0.17188 -0.51953,0.30274 -0.84375,0.39258 -0.32422,0.0899 -0.67578,0.13477 -1.05468,0.13477 -0.41797,0 -0.78711,-0.0469 -1.10742,-0.14063 -0.31641,-0.0937 -0.58204,-0.22461 -0.79688,-0.39258 -0.21484,-0.16796 -0.37695,-0.36718 -0.48633,-0.59765 -0.10937,-0.23047 -0.16406,-0.48438 -0.16406,-0.76172 0,-0.46875 0.13086,-0.87305 0.39258,-1.21289 0.26171,-0.33984 0.66601,-0.64844 1.21289,-0.92578 -0.5,-0.2539 -0.86524,-0.53515 -1.0957,-0.84375 -0.23047,-0.3125 -0.34571,-0.66992 -0.34571,-1.07227 0,-0.24609 0.0508,-0.48437 0.15235,-0.71484 0.10156,-0.23046 0.2539,-0.43554 0.45703,-0.61524 0.20703,-0.17968 0.46484,-0.32225 0.77343,-0.42773 0.3086,-0.10937 0.67188,-0.16406 1.08985,-0.16406 0.39453,0 0.74023,0.043 1.03711,0.1289 0.30077,0.082 0.55273,0.20118 0.75586,0.35742 0.20312,0.15626 0.35546,0.34571 0.45703,0.56836 0.10155,0.22267 0.15234,0.47071 0.15234,0.74414 0,0.44532 -0.125,0.82423 -0.375,1.13672 -0.2461,0.31251 -0.59766,0.58595 -1.05469,0.82032 0.22656,0.11328 0.4375,0.23828 0.63282,0.375 0.1953,0.13672 0.36523,0.28906 0.50976,0.45703 0.14453,0.16797 0.25586,0.35547 0.33399,0.5625 0.082,0.20703 0.12304,0.4375 0.12304,0.6914 m -1.21289,-3.96093 c 0,-0.34765 -0.12305,-0.60547 -0.36914,-0.77344 -0.24219,-0.17187 -0.58399,-0.25781 -1.02539,-0.25781 -0.4375,0 -0.7793,0.084 -1.02539,0.25195 -0.24219,0.16797 -0.36328,0.41993 -0.36328,0.75586 0,0.15235 0.0293,0.29297 0.0879,0.42187 0.0586,0.12892 0.14844,0.25001 0.26953,0.36328 0.125,0.11329 0.2793,0.22462 0.46289,0.33399 0.18359,0.10938 0.40234,0.22071 0.65625,0.33398 0.4414,-0.20702 0.76953,-0.42187 0.98438,-0.64453 0.21484,-0.22655 0.32226,-0.48827 0.32226,-0.78515 m 0.10547,4.03711 c 0,-0.14453 -0.0234,-0.28516 -0.0703,-0.42188 -0.0469,-0.13672 -0.13086,-0.27148 -0.25195,-0.4043 -0.1211,-0.13281 -0.28321,-0.26562 -0.48633,-0.39843 -0.20313,-0.13281 -0.46094,-0.26953 -0.77344,-0.41016 -0.26563,0.12891 -0.49024,0.25782 -0.67383,0.38672 -0.17969,0.125 -0.32617,0.25391 -0.43945,0.38672 -0.10938,0.12891 -0.1875,0.26367 -0.23438,0.40429 -0.0469,0.14063 -0.0703,0.28907 -0.0703,0.44532 0,0.17578 0.0371,0.33203 0.11133,0.46875 0.0781,0.13281 0.18359,0.24609 0.31641,0.33984 0.13281,0.0937 0.29101,0.16406 0.47461,0.21094 0.18359,0.0469 0.38281,0.0703 0.59765,0.0703 0.20703,0 0.40234,-0.0215 0.58594,-0.0644 0.18359,-0.043 0.34179,-0.10742 0.47461,-0.19336 0.13671,-0.0898 0.24413,-0.20117 0.32226,-0.33399 0.0781,-0.13671 0.11719,-0.29882 0.11719,-0.48632"
         style="font-style:normal;font-variant:normal;font-weight:normal;font-stretch:normal;fill:#2e3436;marker:none;font-family:Consolas;-inkscape-font-specification:Consolas"
         id="path8351" />
    </g>
    <g
       transform="translate(356.57268,-55.921379)"
       style="line-height:125%;letter-spacing:0px;word-spacing:0px;color:#000000;fill:#2e3436;fill-opacity:1;fill-rule:nonzero;stroke:none;stroke-width:1px;marker:none;visibility:visible;display:inline;overflow:visible;enable-background:accumulate"
       id="flowRoot8130-6-5">
      <path
         d="m 80.662109,556.32082 -1.30664,0 0,1.69336 -1.042969,0 0,-1.69336 -3.685547,0 0,-0.89649 3.263672,-5.06835 1.464844,0 0,5.06835 1.30664,0 0,0.89649 m -2.349609,-4.98047 -2.666016,4.08398 2.666016,0 0,-4.08398"
         style="font-style:normal;font-variant:normal;font-weight:normal;font-stretch:normal;fill:#2e3436;marker:none;font-family:Consolas;-inkscape-font-specification:Consolas"
         id="path8354" />
      <path
         d="m 87.054687,554.18801 c -6e-6,0.58594 -0.0586,1.12109 -0.175781,1.60547 -0.117193,0.48047 -0.294927,0.89453 -0.533203,1.24218 -0.238286,0.34375 -0.535161,0.61133 -0.890625,0.80274 -0.351567,0.1875 -0.765629,0.28125 -1.242187,0.28125 -0.410159,0 -0.783206,-0.0762 -1.119141,-0.22852 -0.335939,-0.15625 -0.623048,-0.39453 -0.861328,-0.71484 -0.238282,-0.32031 -0.421876,-0.72852 -0.550781,-1.22461 -0.128907,-0.49609 -0.19336,-1.08398 -0.19336,-1.76367 0,-0.58594 0.05859,-1.12109 0.175781,-1.60547 0.121093,-0.48437 0.298828,-0.89843 0.533204,-1.24219 0.238279,-0.34765 0.535154,-0.61523 0.890625,-0.80273 0.355466,-0.1914 0.769528,-0.28711 1.242187,-0.28711 0.410153,0 0.783199,0.0781 1.119141,0.23437 0.335932,0.15235 0.623042,0.39063 0.861328,0.71485 0.238276,0.32031 0.421869,0.72852 0.550781,1.2246 0.1289,0.4961 0.193353,1.08399 0.193359,1.76368 m -1.03125,0.0352 c -5e-6,-0.13281 -0.0059,-0.26366 -0.01758,-0.39258 -0.0078,-0.1328 -0.01758,-0.26171 -0.0293,-0.38671 l -3.240234,2.4082 c 0.05859,0.20313 0.132811,0.39063 0.222656,0.5625 0.08984,0.17188 0.197264,0.32031 0.322266,0.44531 0.128904,0.1211 0.273435,0.2168 0.433594,0.28711 0.164059,0.0664 0.349606,0.0996 0.55664,0.0996 0.265622,0 0.505856,-0.0644 0.720703,-0.19336 0.218746,-0.1289 0.404293,-0.32031 0.556641,-0.57422 0.152339,-0.2539 0.269527,-0.56836 0.351563,-0.94336 0.08203,-0.3789 0.123041,-0.8164 0.123046,-1.3125 m -3.503906,-0.0703 c -10e-7,0.1211 -10e-7,0.24219 0,0.36328 0.0039,0.1211 0.01172,0.23829 0.02344,0.35156 l 3.240234,-2.39648 c -0.0586,-0.19921 -0.132817,-0.38085 -0.222656,-0.54492 -0.08985,-0.16406 -0.19727,-0.30468 -0.322266,-0.42188 -0.125004,-0.12108 -0.267582,-0.21483 -0.427734,-0.28125 -0.16016,-0.0664 -0.339847,-0.0996 -0.539063,-0.0996 -0.265628,10e-6 -0.507815,0.0645 -0.726562,0.19336 -0.214846,0.12892 -0.39844,0.32227 -0.550781,0.58008 -0.152346,0.25391 -0.269533,0.57032 -0.351563,0.94922 -0.08203,0.375 -0.123048,0.81055 -0.123047,1.30664"
         style="font-style:normal;font-variant:normal;font-weight:normal;font-stretch:normal;fill:#2e3436;marker:none;font-family:Consolas;-inkscape-font-specification:Consolas"
         id="path8356" />
      <path
         d="m 88.208984,555.19582 c 0,-0.5 0.06836,-0.94336 0.205078,-1.33008 0.136718,-0.39062 0.330077,-0.71874 0.580079,-0.98437 0.253904,-0.26953 0.556638,-0.47265 0.908203,-0.60938 0.355466,-0.14062 0.749997,-0.21093 1.183593,-0.21094 0.187497,10e-6 0.37109,0.0117 0.550782,0.0352 0.183589,0.0234 0.363277,0.0605 0.539062,0.11133 l 0,-2.47266 1.025391,0 0,8.2793 -0.914063,0 -0.03516,-1.11328 c -0.285161,0.41406 -0.593754,0.7207 -0.925781,0.91992 -0.332035,0.19922 -0.691409,0.29883 -1.078125,0.29883 -0.33594,0 -0.632815,-0.0703 -0.890625,-0.21094 -0.253908,-0.14063 -0.466798,-0.33789 -0.638672,-0.5918 -0.16797,-0.25781 -0.294923,-0.5664 -0.380859,-0.92578 -0.08594,-0.35937 -0.128907,-0.75781 -0.128907,-1.19531 m 1.042969,-0.0645 c -2e-6,0.71094 0.103514,1.24219 0.310547,1.59375 0.210935,0.34765 0.50781,0.52148 0.890625,0.52148 0.257809,0 0.529293,-0.11523 0.814453,-0.3457 0.289059,-0.23047 0.591793,-0.57227 0.908203,-1.02539 l 0,-2.73047 c -0.167973,-0.0781 -0.35352,-0.13672 -0.55664,-0.17578 -0.203129,-0.043 -0.404301,-0.0644 -0.603516,-0.0645 -0.55469,10e-6 -0.988284,0.1797 -1.300781,0.53907 -0.308596,0.35938 -0.462893,0.92187 -0.462891,1.6875"
         style="font-style:normal;font-variant:normal;font-weight:normal;font-stretch:normal;fill:#2e3436;marker:none;font-family:Consolas;-inkscape-font-specification:Consolas"
         id="path8358" />
      <path
         d="m 99.880859,555.56496 c -5e-6,0.37891 -0.08204,0.72461 -0.246093,1.03711 -0.164068,0.3125 -0.39063,0.58203 -0.679688,0.80859 -0.285161,0.22266 -0.623051,0.39649 -1.013672,0.52149 -0.390628,0.125 -0.812503,0.1875 -1.265625,0.1875 -0.113283,0 -0.23633,-0.004 -0.36914,-0.0117 -0.128909,-0.004 -0.257815,-0.0117 -0.386719,-0.0234 -0.128908,-0.008 -0.255861,-0.0176 -0.38086,-0.0293 -0.121094,-0.0117 -0.230469,-0.0254 -0.328125,-0.041 l 0,-0.92578 c 0.210937,0.0508 0.451171,0.0879 0.720704,0.11133 0.273435,0.0234 0.548825,0.0351 0.826171,0.0351 0.312498,0 0.593747,-0.0371 0.84375,-0.11133 0.249997,-0.0742 0.462887,-0.17968 0.638672,-0.3164 0.175777,-0.14063 0.310543,-0.3086 0.404297,-0.50391 0.09375,-0.19922 0.140621,-0.42187 0.140625,-0.66797 -4e-6,-0.47656 -0.171879,-0.82226 -0.515625,-1.03711 -0.339847,-0.21874 -0.830081,-0.32812 -1.470703,-0.32812 l -1.453125,0 0,-3.91406 4.125,0 0,0.89062 -3.164062,0 0,2.15039 0.667968,0 c 0.367185,1e-5 0.724606,0.0332 1.072266,0.0996 0.347652,0.0664 0.656245,0.1836 0.925781,0.35156 0.273433,0.16407 0.492182,0.38673 0.65625,0.66797 0.167963,0.27735 0.251948,0.62696 0.251953,1.04883"
         style="font-style:normal;font-variant:normal;font-weight:normal;font-stretch:normal;fill:#2e3436;marker:none;font-family:Consolas;-inkscape-font-specification:Consolas"
         id="path8360" />
      <path
         d="m 106.92383,550.6841 c -0.53516,-0.11327 -0.9961,-0.16991 -1.38281,-0.16992 -0.91798,10e-6 -1.37696,0.48047 -1.37696,1.4414 l 0,1.03125 2.57813,0 0,0.84961 -2.57813,0 0,4.17774 -1.03711,0 0,-4.17774 -1.89257,0 0,-0.84961 1.89257,0 0,-0.97265 c 0,-1.5664 0.81641,-2.3496 2.44922,-2.34961 0.40625,10e-6 0.85546,0.0469 1.34766,0.14062 l 0,0.87891 m -6.1582,1.44727 0,0"
         style="font-style:normal;font-variant:normal;font-weight:normal;font-stretch:normal;fill:#2e3436;marker:none;font-family:Consolas;-inkscape-font-specification:Consolas"
         id="path8362" />
      <path
         d="m 113.44531,554.18801 c 0,0.58594 -0.0586,1.12109 -0.17578,1.60547 -0.11719,0.48047 -0.29493,0.89453 -0.5332,1.24218 -0.23829,0.34375 -0.53516,0.61133 -0.89063,0.80274 -0.35156,0.1875 -0.76563,0.28125 -1.24218,0.28125 -0.41016,0 -0.78321,-0.0762 -1.11914,-0.22852 -0.33594,-0.15625 -0.62305,-0.39453 -0.86133,-0.71484 -0.23829,-0.32031 -0.42188,-0.72852 -0.55078,-1.22461 -0.12891,-0.49609 -0.19336,-1.08398 -0.19336,-1.76367 0,-0.58594 0.0586,-1.12109 0.17578,-1.60547 0.12109,-0.48437 0.29882,-0.89843 0.5332,-1.24219 0.23828,-0.34765 0.53516,-0.61523 0.89063,-0.80273 0.35546,-0.1914 0.76952,-0.28711 1.24218,-0.28711 0.41016,0 0.7832,0.0781 1.11914,0.23437 0.33594,0.15235 0.62305,0.39063 0.86133,0.71485 0.23828,0.32031 0.42187,0.72852 0.55078,1.2246 0.1289,0.4961 0.19336,1.08399 0.19336,1.76368 m -1.03125,0.0352 c 0,-0.13281 -0.006,-0.26366 -0.0176,-0.39258 -0.008,-0.1328 -0.0176,-0.26171 -0.0293,-0.38671 l -3.24024,2.4082 c 0.0586,0.20313 0.13281,0.39063 0.22266,0.5625 0.0898,0.17188 0.19726,0.32031 0.32227,0.44531 0.1289,0.1211 0.27343,0.2168 0.43359,0.28711 0.16406,0.0664 0.34961,0.0996 0.55664,0.0996 0.26562,0 0.50585,-0.0644 0.7207,-0.19336 0.21875,-0.1289 0.40429,-0.32031 0.55664,-0.57422 0.15234,-0.2539 0.26953,-0.56836 0.35157,-0.94336 0.082,-0.3789 0.12304,-0.8164 0.12304,-1.3125 m -3.5039,-0.0703 c -1e-5,0.1211 -1e-5,0.24219 0,0.36328 0.004,0.1211 0.0117,0.23829 0.0234,0.35156 l 3.24024,-2.39648 c -0.0586,-0.19921 -0.13282,-0.38085 -0.22266,-0.54492 -0.0898,-0.16406 -0.19727,-0.30468 -0.32226,-0.42188 -0.12501,-0.12108 -0.26759,-0.21483 -0.42774,-0.28125 -0.16016,-0.0664 -0.33985,-0.0996 -0.53906,-0.0996 -0.26563,10e-6 -0.50782,0.0645 -0.72656,0.19336 -0.21485,0.12892 -0.39844,0.32227 -0.55078,0.58008 -0.15235,0.25391 -0.26954,0.57032 -0.35157,0.94922 -0.082,0.375 -0.12305,0.81055 -0.12304,1.30664"
         style="font-style:normal;font-variant:normal;font-weight:normal;font-stretch:normal;fill:#2e3436;marker:none;font-family:Consolas;-inkscape-font-specification:Consolas"
         id="path8364" />
      <path
         d="m 120.04297,554.18801 c -1e-5,0.58594 -0.0586,1.12109 -0.17578,1.60547 -0.1172,0.48047 -0.29493,0.89453 -0.53321,1.24218 -0.23828,0.34375 -0.53516,0.61133 -0.89062,0.80274 -0.35157,0.1875 -0.76563,0.28125 -1.24219,0.28125 -0.41016,0 -0.7832,-0.0762 -1.11914,-0.22852 -0.33594,-0.15625 -0.62305,-0.39453 -0.86133,-0.71484 -0.23828,-0.32031 -0.42187,-0.72852 -0.55078,-1.22461 -0.1289,-0.49609 -0.19336,-1.08398 -0.19336,-1.76367 0,-0.58594 0.0586,-1.12109 0.17578,-1.60547 0.1211,-0.48437 0.29883,-0.89843 0.53321,-1.24219 0.23828,-0.34765 0.53515,-0.61523 0.89062,-0.80273 0.35547,-0.1914 0.76953,-0.28711 1.24219,-0.28711 0.41015,0 0.7832,0.0781 1.11914,0.23437 0.33593,0.15235 0.62304,0.39063 0.86133,0.71485 0.23827,0.32031 0.42187,0.72852 0.55078,1.2246 0.1289,0.4961 0.19335,1.08399 0.19336,1.76368 m -1.03125,0.0352 c -1e-5,-0.13281 -0.006,-0.26366 -0.0176,-0.39258 -0.008,-0.1328 -0.0176,-0.26171 -0.0293,-0.38671 l -3.24023,2.4082 c 0.0586,0.20313 0.13281,0.39063 0.22266,0.5625 0.0898,0.17188 0.19726,0.32031 0.32226,0.44531 0.12891,0.1211 0.27344,0.2168 0.4336,0.28711 0.16405,0.0664 0.3496,0.0996 0.55664,0.0996 0.26562,0 0.50585,-0.0644 0.7207,-0.19336 0.21874,-0.1289 0.40429,-0.32031 0.55664,-0.57422 0.15234,-0.2539 0.26953,-0.56836 0.35156,-0.94336 0.082,-0.3789 0.12304,-0.8164 0.12305,-1.3125 m -3.50391,-0.0703 c 0,0.1211 0,0.24219 0,0.36328 0.004,0.1211 0.0117,0.23829 0.0234,0.35156 l 3.24023,-2.39648 c -0.0586,-0.19921 -0.13281,-0.38085 -0.22265,-0.54492 -0.0898,-0.16406 -0.19727,-0.30468 -0.32227,-0.42188 -0.125,-0.12108 -0.26758,-0.21483 -0.42773,-0.28125 -0.16016,-0.0664 -0.33985,-0.0996 -0.53906,-0.0996 -0.26563,10e-6 -0.50782,0.0645 -0.72657,0.19336 -0.21484,0.12892 -0.39844,0.32227 -0.55078,0.58008 -0.15234,0.25391 -0.26953,0.57032 -0.35156,0.94922 -0.082,0.375 -0.12305,0.81055 -0.12305,1.30664"
         style="font-style:normal;font-variant:normal;font-weight:normal;font-stretch:normal;fill:#2e3436;marker:none;font-family:Consolas;-inkscape-font-specification:Consolas"
         id="path8366" />
      <path
         d="m 126.40039,558.01418 -4.81055,0 0,-0.94922 1.96875,0 0,-5.58984 -1.83398,0.99609 -0.375,-0.86719 2.4375,-1.2832 0.90234,0 0,6.74414 1.71094,0 0,0.94922"
         style="font-style:normal;font-variant:normal;font-weight:normal;font-stretch:normal;fill:#2e3436;marker:none;font-family:Consolas;-inkscape-font-specification:Consolas"
         id="path8368" />
    </g>
    <g
       transform="translate(539.24364,-55.921379)"
       style="line-height:125%;letter-spacing:0px;word-spacing:0px;color:#000000;fill:#2e3436;fill-opacity:1;fill-rule:nonzero;stroke:none;stroke-width:1px;marker:none;visibility:visible;display:inline;overflow:visible;enable-background:accumulate"
       id="flowRoot8130-6-4">
      <path
         d="m 80.134766,555.68801 c -6e-6,0.33594 -0.06837,0.65234 -0.205079,0.94922 -0.136724,0.29297 -0.341802,0.55078 -0.615234,0.77343 -0.273442,0.21875 -0.617192,0.39258 -1.03125,0.52149 -0.414066,0.125 -0.896487,0.1875 -1.447266,0.1875 -0.304689,0 -0.578126,-0.01 -0.820312,-0.0293 -0.242189,-0.0195 -0.468751,-0.0449 -0.679688,-0.0762 l 0,-0.91406 c 0.242187,0.043 0.498046,0.0762 0.767579,0.0996 0.269529,0.0234 0.544919,0.0351 0.826171,0.0351 0.38281,0 0.708982,-0.0332 0.978516,-0.0996 0.273434,-0.0703 0.49609,-0.16992 0.667969,-0.29883 0.171871,-0.1289 0.29687,-0.28515 0.375,-0.46875 0.07812,-0.18359 0.117183,-0.39062 0.117187,-0.62109 -4e-6,-0.21093 -0.04688,-0.39453 -0.140625,-0.55078 -0.09375,-0.15625 -0.226566,-0.28711 -0.398437,-0.39258 -0.167973,-0.10546 -0.371098,-0.18359 -0.609375,-0.23437 -0.234378,-0.0547 -0.492191,-0.082 -0.773438,-0.082 l -0.873047,0 0,-0.83789 0.884766,0 c 0.230466,10e-6 0.43945,-0.0293 0.626953,-0.0879 0.191403,-0.0625 0.353512,-0.15038 0.486328,-0.26367 0.136715,-0.11327 0.240231,-0.25195 0.310547,-0.41601 0.07421,-0.16797 0.111324,-0.35742 0.111328,-0.56836 -4e-6,-0.41015 -0.125004,-0.70898 -0.375,-0.89649 -0.250003,-0.18749 -0.61719,-0.28124 -1.101562,-0.28125 -0.257815,10e-6 -0.52344,0.0254 -0.796875,0.0762 -0.273439,0.0508 -0.566408,0.12696 -0.878906,0.22852 l 0,-0.89063 c 0.132811,-0.0469 0.273436,-0.0879 0.421875,-0.12304 0.152342,-0.0391 0.302732,-0.0703 0.451171,-0.0937 0.152342,-0.0273 0.302733,-0.0469 0.451172,-0.0586 0.148435,-0.0156 0.291013,-0.0234 0.427735,-0.0234 0.406246,0 0.763668,0.0449 1.072265,0.13476 0.30859,0.086 0.566402,0.21095 0.773438,0.375 0.207026,0.16407 0.363276,0.36329 0.46875,0.59766 0.105463,0.23438 0.158198,0.49805 0.158203,0.79101 -5e-6,0.43751 -0.113287,0.8047 -0.339844,1.10157 -0.222661,0.29688 -0.529301,0.5332 -0.919922,0.70898 0.199215,0.0313 0.394527,0.0937 0.585938,0.1875 0.195307,0.0937 0.369135,0.21485 0.521484,0.36328 0.156245,0.14454 0.281245,0.31641 0.375,0.51563 0.09765,0.19922 0.146479,0.41992 0.146485,0.66211"
         style="font-style:normal;font-variant:normal;font-weight:normal;font-stretch:normal;fill:#2e3436;marker:none;font-family:Consolas;-inkscape-font-specification:Consolas"
         id="path8371" />
      <path
         d="m 87.054687,554.18801 c -6e-6,0.58594 -0.0586,1.12109 -0.175781,1.60547 -0.117193,0.48047 -0.294927,0.89453 -0.533203,1.24218 -0.238286,0.34375 -0.535161,0.61133 -0.890625,0.80274 -0.351567,0.1875 -0.765629,0.28125 -1.242187,0.28125 -0.410159,0 -0.783206,-0.0762 -1.119141,-0.22852 -0.335939,-0.15625 -0.623048,-0.39453 -0.861328,-0.71484 -0.238282,-0.32031 -0.421876,-0.72852 -0.550781,-1.22461 -0.128907,-0.49609 -0.19336,-1.08398 -0.19336,-1.76367 0,-0.58594 0.05859,-1.12109 0.175781,-1.60547 0.121093,-0.48437 0.298828,-0.89843 0.533204,-1.24219 0.238279,-0.34765 0.535154,-0.61523 0.890625,-0.80273 0.355466,-0.1914 0.769528,-0.28711 1.242187,-0.28711 0.410153,0 0.783199,0.0781 1.119141,0.23437 0.335932,0.15235 0.623042,0.39063 0.861328,0.71485 0.238276,0.32031 0.421869,0.72852 0.550781,1.2246 0.1289,0.4961 0.193353,1.08399 0.193359,1.76368 m -1.03125,0.0352 c -5e-6,-0.13281 -0.0059,-0.26366 -0.01758,-0.39258 -0.0078,-0.1328 -0.01758,-0.26171 -0.0293,-0.38671 l -3.240234,2.4082 c 0.05859,0.20313 0.132811,0.39063 0.222656,0.5625 0.08984,0.17188 0.197264,0.32031 0.322266,0.44531 0.128904,0.1211 0.273435,0.2168 0.433594,0.28711 0.164059,0.0664 0.349606,0.0996 0.55664,0.0996 0.265622,0 0.505856,-0.0644 0.720703,-0.19336 0.218746,-0.1289 0.404293,-0.32031 0.556641,-0.57422 0.152339,-0.2539 0.269527,-0.56836 0.351563,-0.94336 0.08203,-0.3789 0.123041,-0.8164 0.123046,-1.3125 m -3.503906,-0.0703 c -10e-7,0.1211 -10e-7,0.24219 0,0.36328 0.0039,0.1211 0.01172,0.23829 0.02344,0.35156 l 3.240234,-2.39648 c -0.0586,-0.19921 -0.132817,-0.38085 -0.222656,-0.54492 -0.08985,-0.16406 -0.19727,-0.30468 -0.322266,-0.42188 -0.125004,-0.12108 -0.267582,-0.21483 -0.427734,-0.28125 -0.16016,-0.0664 -0.339847,-0.0996 -0.539063,-0.0996 -0.265628,10e-6 -0.507815,0.0645 -0.726562,0.19336 -0.214846,0.12892 -0.39844,0.32227 -0.550781,0.58008 -0.152346,0.25391 -0.269533,0.57032 -0.351563,0.94922 -0.08203,0.375 -0.123048,0.81055 -0.123047,1.30664"
         style="font-style:normal;font-variant:normal;font-weight:normal;font-stretch:normal;fill:#2e3436;marker:none;font-family:Consolas;-inkscape-font-specification:Consolas"
         id="path8373" />
      <path
         d="m 93.570312,555.5884 c -6e-6,0.35156 -0.06446,0.68164 -0.193359,0.99023 -0.125006,0.3086 -0.304693,0.57813 -0.539062,0.8086 -0.23438,0.22656 -0.517583,0.40625 -0.84961,0.53906 -0.328129,0.1289 -0.693363,0.19336 -1.095703,0.19336 -0.421878,0 -0.794924,-0.0664 -1.119141,-0.19922 -0.32422,-0.13672 -0.595704,-0.34375 -0.814453,-0.6211 -0.218751,-0.28124 -0.384766,-0.63476 -0.498047,-1.06054 -0.113282,-0.42578 -0.169922,-0.92969 -0.169921,-1.51172 -10e-7,-0.39062 0.02539,-0.76953 0.07617,-1.13672 0.05078,-0.36718 0.134765,-0.71289 0.251954,-1.03711 0.117186,-0.32421 0.273436,-0.62109 0.46875,-0.89062 0.19531,-0.26953 0.437498,-0.5 0.726562,-0.69141 0.292966,-0.19531 0.636716,-0.3457 1.03125,-0.45117 0.394528,-0.10937 0.851558,-0.16406 1.371094,-0.16406 l 0.755859,0 0,0.89062 -0.820312,0 c -0.457036,1e-5 -0.85352,0.0547 -1.189453,0.16406 -0.335941,0.10938 -0.617191,0.26368 -0.84375,0.46289 -0.226565,0.19923 -0.400393,0.43946 -0.521485,0.72071 -0.121095,0.28125 -0.197267,0.5957 -0.228515,0.94336 l -0.02344,0.24023 c 0.246092,-0.14453 0.529295,-0.25976 0.849609,-0.3457 0.324216,-0.0898 0.673825,-0.13476 1.048829,-0.13477 0.386714,10e-6 0.724605,0.0566 1.013671,0.16992 0.292964,0.11329 0.535152,0.27149 0.726563,0.47461 0.195307,0.19923 0.341791,0.43946 0.439453,0.72071 0.09765,0.28125 0.146478,0.58984 0.146484,0.92578 m -1.066406,0.0644 c -5e-6,-0.23437 -0.0293,-0.44531 -0.08789,-0.63281 -0.05469,-0.19141 -0.142583,-0.35156 -0.263672,-0.48047 -0.121098,-0.13281 -0.275395,-0.23437 -0.462891,-0.30469 -0.183598,-0.0742 -0.4043,-0.11132 -0.662109,-0.11133 -0.148441,10e-6 -0.298832,0.0137 -0.451172,0.041 -0.152347,0.0273 -0.302737,0.0664 -0.451172,0.11719 -0.144534,0.0469 -0.283205,0.10156 -0.416016,0.16406 -0.132814,0.0625 -0.253908,0.12891 -0.363281,0.19922 -2e-6,0.50391 0.03516,0.92578 0.105469,1.26562 0.07031,0.33594 0.173826,0.60547 0.310547,0.8086 0.140622,0.20312 0.312497,0.34765 0.515625,0.43359 0.203122,0.0859 0.437497,0.12891 0.703125,0.12891 0.222652,0 0.425777,-0.0352 0.609375,-0.10547 0.187496,-0.0742 0.347652,-0.18164 0.480468,-0.32227 0.136715,-0.14062 0.242183,-0.31054 0.316407,-0.50976 0.07812,-0.20313 0.117182,-0.4336 0.117187,-0.69141"
         style="font-style:normal;font-variant:normal;font-weight:normal;font-stretch:normal;fill:#2e3436;marker:none;font-family:Consolas;-inkscape-font-specification:Consolas"
         id="path8375" />
      <path
         d="m 100.07422,558.01418 -5.044923,0 0,-0.91406 1.980469,-1.96875 c 0.324215,-0.32031 0.587887,-0.59766 0.791015,-0.83204 0.203121,-0.23437 0.361324,-0.44726 0.47461,-0.63867 0.113277,-0.19531 0.189448,-0.3789 0.228515,-0.55078 0.03906,-0.17187 0.05859,-0.35742 0.05859,-0.55664 -4e-6,-0.18749 -0.0254,-0.36523 -0.07617,-0.5332 -0.05079,-0.17187 -0.12891,-0.32226 -0.234375,-0.45117 -0.105473,-0.1289 -0.242191,-0.23047 -0.410156,-0.30469 -0.167972,-0.0742 -0.369144,-0.11132 -0.603516,-0.11133 -0.324221,1e-5 -0.619143,0.0723 -0.884765,0.2168 -0.265627,0.14453 -0.509768,0.33203 -0.732422,0.5625 l -0.5625,-0.67383 c 0.289061,-0.30468 0.621092,-0.54882 0.996093,-0.73242 0.378904,-0.18359 0.818357,-0.27539 1.31836,-0.27539 0.33984,0 0.648434,0.0508 0.925781,0.15234 0.281246,0.10157 0.523433,0.24805 0.726563,0.43945 0.20312,0.19142 0.359369,0.42579 0.46875,0.70313 0.113275,0.27735 0.169916,0.58985 0.169921,0.9375 -5e-6,0.29297 -0.03907,0.56446 -0.117187,0.81445 -0.07813,0.25001 -0.197271,0.50001 -0.357422,0.75 -0.156255,0.2461 -0.355473,0.50196 -0.597656,0.76758 -0.238286,0.26563 -0.521488,0.55664 -0.84961,0.87305 l -1.388671,1.35351 3.720704,0 0,0.97266"
         style="font-style:normal;font-variant:normal;font-weight:normal;font-stretch:normal;fill:#2e3436;marker:none;font-family:Consolas;-inkscape-font-specification:Consolas"
         id="path8377" />
      <path
         d="m 107.05273,556.32082 -1.30664,0 0,1.69336 -1.04296,0 0,-1.69336 -3.68555,0 0,-0.89649 3.26367,-5.06835 1.46484,0 0,5.06835 1.30664,0 0,0.89649 m -2.3496,-4.98047 -2.66602,4.08398 2.66602,0 0,-4.08398"
         style="font-style:normal;font-variant:normal;font-weight:normal;font-stretch:normal;fill:#2e3436;marker:none;font-family:Consolas;-inkscape-font-specification:Consolas"
         id="path8379" />
      <path
         d="m 113.26953,554.76223 c 0,0.14453 -0.002,0.26562 -0.006,0.36328 -0.004,0.0977 -0.01,0.18945 -0.0176,0.27539 l -4.13086,0 c 0,0.60156 0.16797,1.06445 0.50391,1.38867 0.33594,0.32031 0.82031,0.48047 1.45313,0.48047 0.17187,0 0.34374,-0.006 0.51562,-0.0176 0.17187,-0.0156 0.33789,-0.0352 0.49805,-0.0586 0.16015,-0.0234 0.31249,-0.0488 0.45703,-0.0762 0.14843,-0.0312 0.28515,-0.0645 0.41016,-0.0996 l 0,0.8379 c -0.27735,0.0781 -0.59181,0.14062 -0.94336,0.1875 -0.34766,0.0508 -0.70899,0.0762 -1.08399,0.0762 -0.50391,0 -0.9375,-0.0684 -1.30078,-0.20508 -0.36328,-0.13672 -0.66211,-0.33398 -0.89648,-0.5918 -0.23047,-0.26172 -0.40235,-0.58007 -0.51563,-0.95508 -0.10938,-0.3789 -0.16406,-0.80663 -0.16406,-1.2832 0,-0.41406 0.0586,-0.80468 0.17578,-1.17187 0.12109,-0.37109 0.29492,-0.69531 0.52148,-0.97266 0.23047,-0.28124 0.51172,-0.5039 0.84375,-0.66797 0.33203,-0.16406 0.70899,-0.24609 1.13086,-0.24609 0.41016,0 0.77344,0.0645 1.08985,0.19336 0.3164,0.12891 0.58202,0.3125 0.79687,0.55078 0.21875,0.23438 0.38281,0.52149 0.49219,0.86133 0.11327,0.33594 0.16992,0.71289 0.16992,1.13086 m -1.06055,-0.14649 c 0.0117,-0.26171 -0.0137,-0.5 -0.0762,-0.71484 -0.0625,-0.21875 -0.16016,-0.40625 -0.29297,-0.5625 -0.12891,-0.15625 -0.29102,-0.27734 -0.48632,-0.36328 -0.19532,-0.0898 -0.42188,-0.13476 -0.67969,-0.13477 -0.22266,1e-5 -0.42579,0.043 -0.60938,0.12891 -0.18359,0.0859 -0.3418,0.20703 -0.47461,0.36328 -0.13281,0.15625 -0.24023,0.34375 -0.32226,0.5625 -0.082,0.21875 -0.13282,0.45899 -0.15235,0.7207 l 3.09375,0"
         style="font-style:normal;font-variant:normal;font-weight:normal;font-stretch:normal;fill:#2e3436;marker:none;font-family:Consolas;-inkscape-font-specification:Consolas"
         id="path8381" />
      <path
         d="m 120.11914,550.6841 c -0.53516,-0.11327 -0.9961,-0.16991 -1.38281,-0.16992 -0.91797,10e-6 -1.37696,0.48047 -1.37695,1.4414 l 0,1.03125 2.57812,0 0,0.84961 -2.57812,0 0,4.17774 -1.03711,0 0,-4.17774 -1.89258,0 0,-0.84961 1.89258,0 0,-0.97265 c -1e-5,-1.5664 0.8164,-2.3496 2.44921,-2.34961 0.40625,10e-6 0.85547,0.0469 1.34766,0.14062 l 0,0.87891 m -6.1582,1.44727 0,0"
         style="font-style:normal;font-variant:normal;font-weight:normal;font-stretch:normal;fill:#2e3436;marker:none;font-family:Consolas;-inkscape-font-specification:Consolas"
         id="path8383" />
      <path
         d="m 125.27539,558.01418 -0.0234,-0.79102 c -0.32031,0.31641 -0.64649,0.54492 -0.97851,0.68555 -0.32813,0.14062 -0.67383,0.21094 -1.03711,0.21094 -0.33594,0 -0.62305,-0.043 -0.86133,-0.12891 -0.23828,-0.0859 -0.43555,-0.20312 -0.5918,-0.35156 -0.15234,-0.15234 -0.26562,-0.33008 -0.33984,-0.5332 -0.0703,-0.20313 -0.10547,-0.42383 -0.10547,-0.66211 0,-0.58985 0.21875,-1.05078 0.65625,-1.38282 0.4414,-0.33593 1.09179,-0.5039 1.95117,-0.5039 l 1.21875,0 0,-0.51563 c 0,-0.34765 -0.11133,-0.62499 -0.33398,-0.83203 -0.22266,-0.21093 -0.56251,-0.3164 -1.01953,-0.31641 -0.33204,10e-6 -0.66016,0.0371 -0.98438,0.11133 -0.32031,0.0742 -0.65234,0.1797 -0.99609,0.31641 l 0,-0.91992 c 0.1289,-0.0469 0.27148,-0.0918 0.42773,-0.13477 0.16016,-0.0469 0.32813,-0.0879 0.50391,-0.12305 0.17578,-0.0352 0.35937,-0.0625 0.55078,-0.082 0.1914,-0.0234 0.38476,-0.0352 0.58008,-0.0352 0.35546,0 0.67578,0.0391 0.96094,0.11718 0.28515,0.0781 0.52538,0.19728 0.7207,0.35743 0.19921,0.16016 0.35156,0.36133 0.45703,0.60351 0.10546,0.24219 0.1582,0.52735 0.1582,0.85547 l 0,4.05469 -0.91406,0 m -0.11133,-2.67774 -1.29492,0 c -0.25391,10e-6 -0.47266,0.0254 -0.65625,0.0762 -0.1836,0.0508 -0.33399,0.12305 -0.45117,0.21679 -0.11719,0.0938 -0.20508,0.20704 -0.26367,0.33985 -0.0547,0.1289 -0.082,0.27539 -0.082,0.43945 -1e-5,0.11328 0.0176,0.22266 0.0527,0.32812 0.0352,0.10157 0.0918,0.19337 0.16992,0.2754 0.0781,0.0781 0.17969,0.14062 0.30469,0.1875 0.125,0.0469 0.27734,0.0703 0.45703,0.0703 0.23437,0 0.50195,-0.0703 0.80274,-0.21094 0.30468,-0.14453 0.62499,-0.37109 0.96093,-0.67969 l 0,-1.04297"
         style="font-style:normal;font-variant:normal;font-weight:normal;font-stretch:normal;fill:#2e3436;marker:none;font-family:Consolas;-inkscape-font-specification:Consolas"
         id="path8385" />
    </g>
  </g>
</svg>
